<?xml version="1.0" encoding="UTF-8" standalone="no"?>
<!DOCTYPE svg PUBLIC "-//W3C//DTD SVG 1.1//EN"
 "http://www.w3.org/Graphics/SVG/1.1/DTD/svg11.dtd">
<!-- Generated by graphviz version 2.43.0 (0)
 -->
<!-- Title: env.EnvironmentException Pages: 1 -->
<svg width="557pt" height="491pt"
 viewBox="0.00 0.00 557.00 491.00" xmlns="http://www.w3.org/2000/svg" xmlns:xlink="http://www.w3.org/1999/xlink">
<g id="graph0" class="graph" transform="scale(1 1) rotate(0) translate(4 487)">
<title>env.EnvironmentException</title>
<!-- Node1 -->
<g id="node1" class="node">
<title>Node1</title>
<g id="a_node1"><a xlink:title=" ">
<polygon fill="#bfbfbf" stroke="black" points="212,-105.5 212,-162.5 359,-162.5 359,-105.5 212,-105.5"/>
<text text-anchor="middle" x="285.5" y="-150.5" font-family="Helvetica,sans-Serif" font-size="10.00">env.EnvironmentException</text>
<polyline fill="none" stroke="black" points="212,-143.5 359,-143.5 "/>
<text text-anchor="middle" x="285.5" y="-131.5" font-family="Helvetica,sans-Serif" font-size="10.00"> </text>
<polyline fill="none" stroke="black" points="212,-124.5 359,-124.5 "/>
<text text-anchor="middle" x="285.5" y="-112.5" font-family="Helvetica,sans-Serif" font-size="10.00"> </text>
</a>
</g>
</g>
<!-- Node4 -->
<g id="node4" class="node">
<title>Node4</title>
<g id="a_node4"><a xlink:href="classenv_1_1EnvironmentCheckException.html" target="_top" xlink:title=" ">
<polygon fill="none" stroke="black" points="0,-6 0,-63 177,-63 177,-6 0,-6"/>
<text text-anchor="middle" x="88.5" y="-51" font-family="Helvetica,sans-Serif" font-size="10.00">env.EnvironmentCheckException</text>
<polyline fill="none" stroke="black" points="0,-44 177,-44 "/>
<text text-anchor="middle" x="88.5" y="-32" font-family="Helvetica,sans-Serif" font-size="10.00"> </text>
<polyline fill="none" stroke="black" points="0,-25 177,-25 "/>
<text text-anchor="middle" x="88.5" y="-13" font-family="Helvetica,sans-Serif" font-size="10.00"> </text>
</a>
</g>
</g>
<!-- Node1&#45;&gt;Node4 -->
<g id="edge3" class="edge">
<title>Node1&#45;&gt;Node4</title>
<path fill="none" stroke="midnightblue" d="M220.56,-100.86C195.92,-88.67 168.1,-74.9 144.37,-63.15"/>
<polygon fill="none" stroke="midnightblue" points="219.32,-104.15 229.84,-105.45 222.43,-97.88 219.32,-104.15"/>
</g>
<!-- Node5 -->
<g id="node5" class="node">
<title>Node5</title>
<g id="a_node5"><a xlink:href="classenv_1_1EnvironmentMissingRequiredVariableException.html" target="_top" xlink:title=" ">
<polygon fill="none" stroke="black" points="195.5,-0.5 195.5,-68.5 375.5,-68.5 375.5,-0.5 195.5,-0.5"/>
<text text-anchor="start" x="203.5" y="-56.5" font-family="Helvetica,sans-Serif" font-size="10.00">env.EnvironmentMissingRequired</text>
<text text-anchor="middle" x="285.5" y="-45.5" font-family="Helvetica,sans-Serif" font-size="10.00">VariableException</text>
<polyline fill="none" stroke="black" points="195.5,-38.5 375.5,-38.5 "/>
<text text-anchor="middle" x="285.5" y="-26.5" font-family="Helvetica,sans-Serif" font-size="10.00"> </text>
<polyline fill="none" stroke="black" points="195.5,-19.5 375.5,-19.5 "/>
<text text-anchor="middle" x="285.5" y="-7.5" font-family="Helvetica,sans-Serif" font-size="10.00"> </text>
</a>
</g>
</g>
<!-- Node1&#45;&gt;Node5 -->
<g id="edge4" class="edge">
<title>Node1&#45;&gt;Node5</title>
<path fill="none" stroke="midnightblue" d="M285.5,-95.06C285.5,-86.39 285.5,-77.24 285.5,-68.79"/>
<polygon fill="none" stroke="midnightblue" points="282,-95.32 285.5,-105.32 289,-95.32 282,-95.32"/>
</g>
<!-- Node6 -->
<g id="node6" class="node">
<title>Node6</title>
<g id="a_node6"><a xlink:href="classenv_1_1EnvironmentUnmatchedVariableTypeException.html" target="_top" xlink:title=" ">
<polygon fill="none" stroke="black" points="394,-0.5 394,-68.5 549,-68.5 549,-0.5 394,-0.5"/>
<text text-anchor="start" x="402" y="-56.5" font-family="Helvetica,sans-Serif" font-size="10.00">env.EnvironmentUnmatched</text>
<text text-anchor="middle" x="471.5" y="-45.5" font-family="Helvetica,sans-Serif" font-size="10.00">VariableTypeException</text>
<polyline fill="none" stroke="black" points="394,-38.5 549,-38.5 "/>
<text text-anchor="middle" x="471.5" y="-26.5" font-family="Helvetica,sans-Serif" font-size="10.00"> </text>
<polyline fill="none" stroke="black" points="394,-19.5 549,-19.5 "/>
<text text-anchor="middle" x="471.5" y="-7.5" font-family="Helvetica,sans-Serif" font-size="10.00"> </text>
</a>
</g>
</g>
<!-- Node1&#45;&gt;Node6 -->
<g id="edge5" class="edge">
<title>Node1&#45;&gt;Node6</title>
<path fill="none" stroke="midnightblue" d="M347.17,-100.67C366.82,-90.37 388.58,-78.96 408.34,-68.61"/>
<polygon fill="none" stroke="midnightblue" points="345.53,-97.58 338.3,-105.32 348.78,-103.78 345.53,-97.58"/>
</g>
<!-- Node2 -->
<g id="node2" class="node">
<title>Node2</title>
<g id="a_node2"><a xlink:href="classexception_1_1ChatbotException.html" target="_top" xlink:title=" ">
<polygon fill="none" stroke="black" points="208.5,-199.5 208.5,-388.5 362.5,-388.5 362.5,-199.5 208.5,-199.5"/>
<text text-anchor="middle" x="285.5" y="-376.5" font-family="Helvetica,sans-Serif" font-size="10.00">exception.ChatbotException</text>
<polyline fill="none" stroke="black" points="208.5,-369.5 362.5,-369.5 "/>
<text text-anchor="start" x="216.5" y="-357.5" font-family="Helvetica,sans-Serif" font-size="10.00">+ cause</text>
<text text-anchor="start" x="216.5" y="-346.5" font-family="Helvetica,sans-Serif" font-size="10.00">+ code</text>
<text text-anchor="start" x="216.5" y="-335.5" font-family="Helvetica,sans-Serif" font-size="10.00">+ filename</text>
<text text-anchor="start" x="216.5" y="-324.5" font-family="Helvetica,sans-Serif" font-size="10.00">+ lineno</text>
<text text-anchor="start" x="216.5" y="-313.5" font-family="Helvetica,sans-Serif" font-size="10.00">+ message</text>
<text text-anchor="start" x="216.5" y="-302.5" font-family="Helvetica,sans-Serif" font-size="10.00">+ severity</text>
<text text-anchor="start" x="216.5" y="-291.5" font-family="Helvetica,sans-Serif" font-size="10.00">+ traceback</text>
<text text-anchor="start" x="216.5" y="-280.5" font-family="Helvetica,sans-Serif" font-size="10.00">+ type</text>
<text text-anchor="start" x="216.5" y="-269.5" font-family="Helvetica,sans-Serif" font-size="10.00">+ SEVERITY_TO_LOGGING</text>
<polyline fill="none" stroke="black" points="208.5,-262.5 362.5,-262.5 "/>
<text text-anchor="start" x="216.5" y="-250.5" font-family="Helvetica,sans-Serif" font-size="10.00">+ __init__()</text>
<text text-anchor="start" x="216.5" y="-239.5" font-family="Helvetica,sans-Serif" font-size="10.00">+ __repr__()</text>
<text text-anchor="start" x="216.5" y="-228.5" font-family="Helvetica,sans-Serif" font-size="10.00">+ __str__()</text>
<text text-anchor="start" x="216.5" y="-217.5" font-family="Helvetica,sans-Serif" font-size="10.00">+ to_dict()</text>
<text text-anchor="start" x="216.5" y="-206.5" font-family="Helvetica,sans-Serif" font-size="10.00">+ to_json()</text>
</a>
</g>
</g>
<!-- Node2&#45;&gt;Node1 -->
<g id="edge1" class="edge">
<title>Node2&#45;&gt;Node1</title>
<path fill="none" stroke="midnightblue" d="M285.5,-189.13C285.5,-179.56 285.5,-170.54 285.5,-162.7"/>
<polygon fill="none" stroke="midnightblue" points="282,-189.26 285.5,-199.26 289,-189.26 282,-189.26"/>
</g>
<!-- Node3 -->
<g id="node3" class="node">
<title>Node3</title>
<g id="a_node3"><a xlink:title=" ">
<polygon fill="none" stroke="#bfbfbf" points="253,-425.5 253,-482.5 318,-482.5 318,-425.5 253,-425.5"/>
<text text-anchor="middle" x="285.5" y="-470.5" font-family="Helvetica,sans-Serif" font-size="10.00">Exception</text>
<polyline fill="none" stroke="#bfbfbf" points="253,-463.5 318,-463.5 "/>
<text text-anchor="middle" x="285.5" y="-451.5" font-family="Helvetica,sans-Serif" font-size="10.00"> </text>
<polyline fill="none" stroke="#bfbfbf" points="253,-444.5 318,-444.5 "/>
<text text-anchor="middle" x="285.5" y="-432.5" font-family="Helvetica,sans-Serif" font-size="10.00"> </text>
</a>
</g>
</g>
<!-- Node3&#45;&gt;Node2 -->
<g id="edge2" class="edge">
<title>Node3&#45;&gt;Node2</title>
<path fill="none" stroke="midnightblue" d="M285.5,-415.22C285.5,-407.01 285.5,-397.99 285.5,-388.68"/>
<polygon fill="none" stroke="midnightblue" points="282,-415.48 285.5,-425.48 289,-415.48 282,-415.48"/>
</g>
</g>
</svg>
