<?xml version="1.0" encoding="UTF-8" standalone="no"?>
<!DOCTYPE svg PUBLIC "-//W3C//DTD SVG 1.1//EN"
 "http://www.w3.org/Graphics/SVG/1.1/DTD/svg11.dtd">
<!-- Generated by graphviz version 2.43.0 (0)
 -->
<!-- Title: bot.OutgoingQueuedMessage Pages: 1 -->
<svg width="182pt" height="302pt"
 viewBox="0.00 0.00 182.00 302.00" xmlns="http://www.w3.org/2000/svg" xmlns:xlink="http://www.w3.org/1999/xlink">
<g id="graph0" class="graph" transform="scale(1 1) rotate(0) translate(4 298)">
<title>bot.OutgoingQueuedMessage</title>
<!-- Node1 -->
<g id="Node000001" class="node">
<title>Node1</title>
<g id="a_Node000001"><a xlink:title=" ">
<polygon fill="#999999" stroke="transparent" points="169,-86 5,-86 5,0 169,0 169,-86"/>
<text text-anchor="start" x="14.5" y="-74" font-family="Helvetica,sans-Serif" font-size="10.00">bot.OutgoingQueuedMessage</text>
<text text-anchor="start" x="9" y="-59" font-family="Helvetica,sans-Serif" font-size="10.00">+</text>
<text text-anchor="start" x="22" y="-59" font-family="Helvetica,sans-Serif" font-size="10.00">send_retries</text>
<text text-anchor="start" x="9" y="-44" font-family="Helvetica,sans-Serif" font-size="10.00">+</text>
<text text-anchor="start" x="22" y="-44" font-family="Helvetica,sans-Serif" font-size="10.00">sent_ok</text>
<text text-anchor="start" x="9" y="-29" font-family="Helvetica,sans-Serif" font-size="10.00">+</text>
<text text-anchor="start" x="22" y="-29" font-family="Helvetica,sans-Serif" font-size="10.00">__init__(self, message,</text>
<text text-anchor="start" x="22" y="-18" font-family="Helvetica,sans-Serif" font-size="10.00"> int max_send_retries</text>
<text text-anchor="start" x="22" y="-7" font-family="Helvetica,sans-Serif" font-size="10.00">=3, int max_store_retries=3)</text>
<polygon fill="#666666" stroke="#666666" points="5,-69 5,-69 169,-69 169,-69 5,-69"/>
<polygon fill="#666666" stroke="#666666" points="5,-39 5,-39 20,-39 20,-39 5,-39"/>
<polygon fill="#666666" stroke="#666666" points="20,-39 20,-39 169,-39 169,-39 20,-39"/>
<polygon fill="none" stroke="#666666" points="5,0 5,-86 169,-86 169,0 5,0"/>
</a>
</g>
</g>
<!-- Node2 -->
<g id="Node000002" class="node">
<title>Node2</title>
<g id="a_Node000002"><a xlink:href="classbot_1_1QueuedMessage.html" target="_top" xlink:title=" ">
<polygon fill="white" stroke="transparent" points="174,-294 0,-294 0,-122 174,-122 174,-294"/>
<text text-anchor="start" x="37" y="-282" font-family="Helvetica,sans-Serif" font-size="10.00">bot.QueuedMessage</text>
<text text-anchor="start" x="4" y="-267" font-family="Helvetica,sans-Serif" font-size="10.00">+</text>
<text text-anchor="start" x="17" y="-267" font-family="Helvetica,sans-Serif" font-size="10.00">event</text>
<text text-anchor="start" x="4" y="-252" font-family="Helvetica,sans-Serif" font-size="10.00">+</text>
<text text-anchor="start" x="17" y="-252" font-family="Helvetica,sans-Serif" font-size="10.00">message</text>
<text text-anchor="start" x="4" y="-237" font-family="Helvetica,sans-Serif" font-size="10.00">+</text>
<text text-anchor="start" x="17" y="-237" font-family="Helvetica,sans-Serif" font-size="10.00">result</text>
<text text-anchor="start" x="4" y="-222" font-family="Helvetica,sans-Serif" font-size="10.00">+</text>
<text text-anchor="start" x="17" y="-222" font-family="Helvetica,sans-Serif" font-size="10.00">store_retries</text>
<text text-anchor="start" x="4" y="-207" font-family="Helvetica,sans-Serif" font-size="10.00">+</text>
<text text-anchor="start" x="17" y="-207" font-family="Helvetica,sans-Serif" font-size="10.00">stored_ok</text>
<text text-anchor="start" x="4" y="-192" font-family="Helvetica,sans-Serif" font-size="10.00">+</text>
<text text-anchor="start" x="17" y="-192" font-family="Helvetica,sans-Serif" font-size="10.00">__init__(self, message,</text>
<text text-anchor="start" x="17" y="-181" font-family="Helvetica,sans-Serif" font-size="10.00"> int max_store_retries=3)</text>
<text text-anchor="start" x="4" y="-166" font-family="Helvetica,sans-Serif" font-size="10.00">+</text>
<text text-anchor="start" x="17" y="-166" font-family="Helvetica,sans-Serif" font-size="10.00">set_result(self, bool</text>
<text text-anchor="start" x="17" y="-155" font-family="Helvetica,sans-Serif" font-size="10.00"> result)</text>
<text text-anchor="start" x="4" y="-140" font-family="Helvetica,sans-Serif" font-size="10.00">+</text>
<text text-anchor="start" x="17" y="-140" font-family="Helvetica,sans-Serif" font-size="10.00">wait_result(self,</text>
<text text-anchor="start" x="17" y="-129" font-family="Helvetica,sans-Serif" font-size="10.00"> Optional[float] timeout=None)</text>
<polygon fill="#666666" stroke="#666666" points="0,-277 0,-277 174,-277 174,-277 0,-277"/>
<polygon fill="#666666" stroke="#666666" points="0,-202 0,-202 15,-202 15,-202 0,-202"/>
<polygon fill="#666666" stroke="#666666" points="15,-202 15,-202 174,-202 174,-202 15,-202"/>
<polygon fill="none" stroke="#666666" points="0,-122 0,-294 174,-294 174,-122 0,-122"/>
</a>
</g>
</g>
<!-- Node2&#45;&gt;Node1 -->
<g id="edge1_Node000001_Node000002" class="edge">
<title>Node2&#45;&gt;Node1</title>
<g id="a_edge1_Node000001_Node000002"><a xlink:title=" ">
<path fill="none" stroke="#63b8ff" d="M87,-111.62C87,-102.77 87,-94.15 87,-86.19"/>
<polygon fill="none" stroke="#63b8ff" points="83.5,-111.68 87,-121.68 90.5,-111.68 83.5,-111.68"/>
</a>
</g>
</g>
</g>
</svg>
