<?xml version="1.0" encoding="UTF-8" standalone="no"?>
<!DOCTYPE svg PUBLIC "-//W3C//DTD SVG 1.1//EN"
 "http://www.w3.org/Graphics/SVG/1.1/DTD/svg11.dtd">
<!-- Generated by graphviz version 2.43.0 (0)
 -->
<!-- Title: configurator.Configurator.http_request_with_retry Pages: 1 -->
<!--zoomable 129 -->

<svg id="main" version="1.1" xmlns="http://www.w3.org/2000/svg" xmlns:xlink="http://www.w3.org/1999/xlink" xml:space="preserve" onload="init(evt)">
<style type="text/css"><![CDATA[
.node, .edge {opacity: 0.7;}
.node.selected, .edge.selected {opacity: 1;}
.edge:hover path { stroke: red; }
.edge:hover polygon { stroke: red; fill: red; }
]]></style>

<defs>
  <circle id="rim" cx="0" cy="0" r="7"/>
  <circle id="rim2" cx="0" cy="0" r="3.5"/>
  <g id="zoomPlus">
    <use xlink:href="#rim" fill="#404040"><set attributeName="fill" to="#808080" begin="zoomplus.mouseover" end="zoomplus.mouseout"/></use>
    <path d="M-4,0h8M0,-4v8" fill="none" stroke="white" stroke-width="1.5" pointer-events="none"/>
  </g>
  <g id="zoomMin">
    <use xlink:href="#rim" fill="#404040"><set attributeName="fill" to="#808080" begin="zoomminus.mouseover" end="zoomminus.mouseout"/></use>
    <path d="M-4,0h8" fill="none" stroke="white" stroke-width="1.5" pointer-events="none"/>
  </g>
  <g id="arrowUp" transform="translate(30 24)">
    <use xlink:href="#rim"/>
    <path pointer-events="none" fill="none" stroke="white" stroke-width="1.5" d="M0,-3.0v7 M-2.5,-0.5L0,-3.0L2.5,-0.5"/>
  </g>
  <g id="arrowRight" transform="rotate(90) translate(36 -43)">
    <use xlink:href="#rim"/>
    <path pointer-events="none" fill="none" stroke="white" stroke-width="1.5" d="M0,-3.0v7 M-2.5,-0.5L0,-3.0L2.5,-0.5"/>
  </g>
  <g id="arrowDown" transform="rotate(180) translate(-30 -48)">
    <use xlink:href="#rim"/>
    <path pointer-events="none" fill="none" stroke="white" stroke-width="1.5" d="M0,-3.0v7 M-2.5,-0.5L0,-3.0L2.5,-0.5"/>
  </g>
  <g id="arrowLeft" transform="rotate(270) translate(-36 17)">
    <use xlink:href="#rim"/>
    <path pointer-events="none" fill="none" stroke="white" stroke-width="1.5" d="M0,-3.0v7 M-2.5,-0.5L0,-3.0L2.5,-0.5"/>
  </g>
  <g id="resetDef">
    <use xlink:href="#rim2" fill="#404040"><set attributeName="fill" to="#808080" begin="reset.mouseover" end="reset.mouseout"/></use>
  </g>
</defs>
<script type="application/ecmascript">
var viewWidth = 795;
var viewHeight = 129;
var sectionId = 'dynsection-4';
</script>
<script type="application/ecmascript" xlink:href="svg.min.js"/>
<svg id="graph" class="graph">
<g id="viewport">
<title>configurator.Configurator.http_request_with_retry</title>
<!-- Node1 -->
<g id="Node000001" class="node">
<title>Node1</title>
<g id="a_Node000001"><a xlink:title=" ">
<polygon fill="#999999" stroke="#666666" points="787,-73 628,-73 628,-43 787,-43 787,-73"/>
<text text-anchor="start" x="636" y="-61" font-family="Helvetica,sans-Serif" font-size="10.00">configurator.Configurator.http</text>
<text text-anchor="middle" x="707.5" y="-50" font-family="Helvetica,sans-Serif" font-size="10.00">_request_with_retry</text>
</a>
</g>
</g>
<!-- Node2 -->
<g id="Node000002" class="node">
<title>Node2</title>
<g id="a_Node000002"><a xlink:href="classconfigurator_1_1Configurator.html#aa06514ca8386fc8b9b9a2662d47d8b90" target="_top" xlink:title=" ">
<polygon fill="white" stroke="#666666" points="592,-118 424,-118 424,-88 592,-88 592,-118"/>
<text text-anchor="start" x="432" y="-106" font-family="Helvetica,sans-Serif" font-size="10.00">configurator.Configurator.check</text>
<text text-anchor="middle" x="508" y="-95" font-family="Helvetica,sans-Serif" font-size="10.00">_ngrok</text>
</a>
</g>
</g>
<!-- Node1&#45;&gt;Node2 -->
<g id="edge1_Node000001_Node000002" class="edge">
<title>Node1&#45;&gt;Node2</title>
<g id="a_edge1_Node000001_Node000002"><a xlink:title=" ">
<path fill="none" stroke="#63b8ff" d="M630.69,-75.27C612.32,-79.46 592.84,-83.9 574.98,-87.97"/>
<polygon fill="#63b8ff" stroke="#63b8ff" points="631.49,-78.68 640.46,-73.05 629.93,-71.86 631.49,-78.68"/>
</a>
</g>
</g>
<!-- Node5 -->
<g id="Node000005" class="node">
<title>Node5</title>
<g id="a_Node000005"><a xlink:href="classconfigurator_1_1Configurator.html#a606d6215f18570c8b6c305633e56d03a" target="_top" xlink:title=" ">
<polygon fill="white" stroke="#666666" points="382,-73 227,-73 227,-43 382,-43 382,-73"/>
<text text-anchor="start" x="235" y="-61" font-family="Helvetica,sans-Serif" font-size="10.00">configurator.Configurator.set</text>
<text text-anchor="middle" x="304.5" y="-50" font-family="Helvetica,sans-Serif" font-size="10.00">_telegram_webhook</text>
</a>
</g>
</g>
<!-- Node1&#45;&gt;Node5 -->
<g id="edge4_Node000001_Node000005" class="edge">
<title>Node1&#45;&gt;Node5</title>
<g id="a_edge4_Node000001_Node000005"><a xlink:title=" ">
<path fill="none" stroke="#63b8ff" d="M617.54,-58C546.9,-58 449.19,-58 382.02,-58"/>
<polygon fill="#63b8ff" stroke="#63b8ff" points="617.75,-61.5 627.75,-58 617.75,-54.5 617.75,-61.5"/>
</a>
</g>
</g>
<!-- Node6 -->
<g id="Node000006" class="node">
<title>Node6</title>
<g id="a_Node000006"><a xlink:href="classconfigurator_1_1Configurator.html#a7d2d4f9f2c0ce3910d53e5748d92cbe9" target="_top" xlink:title=" ">
<polygon fill="white" stroke="#666666" points="589,-30 427,-30 427,0 589,0 589,-30"/>
<text text-anchor="start" x="435" y="-18" font-family="Helvetica,sans-Serif" font-size="10.00">configurator.Configurator.start</text>
<text text-anchor="middle" x="508" y="-7" font-family="Helvetica,sans-Serif" font-size="10.00">_ngrok</text>
</a>
</g>
</g>
<!-- Node1&#45;&gt;Node6 -->
<g id="edge6_Node000001_Node000006" class="edge">
<title>Node1&#45;&gt;Node6</title>
<g id="a_edge6_Node000001_Node000006"><a xlink:title=" ">
<path fill="none" stroke="#63b8ff" d="M627.37,-40.77C611.04,-37.22 593.97,-33.5 578.04,-30.03"/>
<polygon fill="#63b8ff" stroke="#63b8ff" points="626.91,-44.25 637.42,-42.96 628.4,-37.41 626.91,-44.25"/>
</a>
</g>
</g>
<!-- Node3 -->
<g id="Node000003" class="node">
<title>Node3</title>
<g id="a_Node000003"><a xlink:href="classconfigurator_1_1Configurator.html#aed68704c19cba14d0f2fa93933a3bcb4" target="_top" xlink:title=" ">
<polygon fill="white" stroke="#666666" points="388,-121 221,-121 221,-91 388,-91 388,-121"/>
<text text-anchor="start" x="229" y="-109" font-family="Helvetica,sans-Serif" font-size="10.00">configurator.Configurator.verify</text>
<text text-anchor="middle" x="304.5" y="-98" font-family="Helvetica,sans-Serif" font-size="10.00">_ngrok</text>
</a>
</g>
</g>
<!-- Node2&#45;&gt;Node3 -->
<g id="edge2_Node000002_Node000003" class="edge">
<title>Node2&#45;&gt;Node3</title>
<g id="a_edge2_Node000002_Node000003"><a xlink:title=" ">
<path fill="none" stroke="#63b8ff" d="M413.84,-104.39C405.25,-104.51 396.59,-104.64 388.11,-104.77"/>
<polygon fill="#63b8ff" stroke="#63b8ff" points="413.93,-107.89 423.88,-104.24 413.83,-100.89 413.93,-107.89"/>
</a>
</g>
</g>
<!-- Node4 -->
<g id="Node000004" class="node">
<title>Node4</title>
<g id="a_Node000004"><a xlink:href="classconfigurator_1_1Configurator.html#aea5dbc28f772e392d8a96958ca403cfd" target="_top" xlink:title=" ">
<polygon fill="white" stroke="#666666" points="185,-67.5 0,-67.5 0,-48.5 185,-48.5 185,-67.5"/>
<text text-anchor="middle" x="92.5" y="-55.5" font-family="Helvetica,sans-Serif" font-size="10.00">configurator.Configurator.configure</text>
</a>
</g>
</g>
<!-- Node3&#45;&gt;Node4 -->
<g id="edge3_Node000003_Node000004" class="edge">
<title>Node3&#45;&gt;Node4</title>
<g id="a_edge3_Node000003_Node000004"><a xlink:title=" ">
<path fill="none" stroke="#63b8ff" d="M227.67,-88.67C196.55,-81.55 161.72,-73.59 135.34,-67.56"/>
<polygon fill="#63b8ff" stroke="#63b8ff" points="227.1,-92.13 237.63,-90.94 228.66,-85.3 227.1,-92.13"/>
</a>
</g>
</g>
<!-- Node5&#45;&gt;Node4 -->
<g id="edge5_Node000005_Node000004" class="edge">
<title>Node5&#45;&gt;Node4</title>
<g id="a_edge5_Node000005_Node000004"><a xlink:title=" ">
<path fill="none" stroke="#63b8ff" d="M216.58,-58C206.27,-58 195.71,-58 185.34,-58"/>
<polygon fill="#63b8ff" stroke="#63b8ff" points="216.79,-61.5 226.79,-58 216.79,-54.5 216.79,-61.5"/>
</a>
</g>
</g>
<!-- Node6&#45;&gt;Node4 -->
<g id="edge7_Node000006_Node000004" class="edge">
<title>Node6&#45;&gt;Node4</title>
<g id="a_edge7_Node000006_Node000004"><a xlink:title=" ">
<path fill="none" stroke="#63b8ff" d="M416.61,-18.23C360.2,-20.94 286.18,-25.73 221,-34 192.85,-37.57 161.52,-43.44 136.96,-48.48"/>
<polygon fill="#63b8ff" stroke="#63b8ff" points="417.1,-21.71 426.93,-17.75 416.78,-14.72 417.1,-21.71"/>
</a>
</g>
</g>
</g>
</svg>

<g id="navigator" transform="translate(0 0)" fill="#404254">
  <rect fill="#f2f5e9" fill-opacity="0.5" stroke="#606060" stroke-width=".5" x="0" y="0" width="60" height="60"/>
  <use id="zoomplus" xlink:href="#zoomPlus" x="17" y="9" onmousedown="handleZoom(evt,'in')"/>
  <use id="zoomminus" xlink:href="#zoomMin" x="42" y="9" onmousedown="handleZoom(evt,'out')"/>
  <use id="reset" xlink:href="#resetDef" x="30" y="36" onmousedown="handleReset()"/>
   <use id="arrowup" xlink:href="#arrowUp" x="0" y="0" onmousedown="handlePan(0,-1)"/>
  <use id="arrowright" xlink:href="#arrowRight" x="0" y="0" onmousedown="handlePan(1,0)"/>
  <use id="arrowdown" xlink:href="#arrowDown" x="0" y="0" onmousedown="handlePan(0,1)"/>
  <use id="arrowleft" xlink:href="#arrowLeft" x="0" y="0" onmousedown="handlePan(-1,0)"/>
</g>
<svg viewBox="0 0 15 15" width="100%" height="30px" preserveAspectRatio="xMaxYMin meet">
 <g id="arrow_out" transform="scale(0.3 0.3)">
  <a xlink:href="classconfigurator_1_1Configurator_a30f64780800ae92589cc2951388984dd_icgraph_org.svg" target="_base">
   <rect id="button" ry="5" rx="5" y="6" x="6" height="38" width="38"
        fill="#f2f5e9" fill-opacity="0.5" stroke="#606060" stroke-width="1.0"/>
   <path id="arrow"
     d="M 11.500037,31.436501 C 11.940474,20.09759 22.043105,11.32322 32.158766,21.979434 L 37.068811,17.246167 C 37.068811,17.246167 37.088388,32 37.088388,32 L 22.160133,31.978069 C 22.160133,31.978069 26.997745,27.140456 26.997745,27.140456 C 18.528582,18.264221 13.291696,25.230495 11.500037,31.436501 z"
     style="fill:#404040;"/>
  </a>
 </g>
</svg>

<style type='text/css'>
<![CDATA[
[data-mouse-over-selected='false'] { opacity: 0.7; }
[data-mouse-over-selected='true']  { opacity: 1.0; }
]]>
</style>
<script type="application/ecmascript"><![CDATA[
document.addEventListener('DOMContentLoaded', (event) => {
  highlightEdges();
  highlightAdjacentNodes();
});
]]></script>
</svg>
