<?xml version="1.0" encoding="UTF-8" standalone="no"?>
<!DOCTYPE svg PUBLIC "-//W3C//DTD SVG 1.1//EN"
 "http://www.w3.org/Graphics/SVG/1.1/DTD/svg11.dtd">
<!-- Generated by graphviz version 2.43.0 (0)
 -->
<!-- Title: bot.BotQueuedMessageException Pages: 1 -->
<svg width="344pt" height="739pt"
 viewBox="0.00 0.00 344.00 739.00" xmlns="http://www.w3.org/2000/svg" xmlns:xlink="http://www.w3.org/1999/xlink">
<g id="graph0" class="graph" transform="scale(1 1) rotate(0) translate(4 735)">
<title>bot.BotQueuedMessageException</title>
<!-- Node1 -->
<g id="Node000001" class="node">
<title>Node1</title>
<g id="a_Node000001"><a xlink:title=" ">
<polygon fill="#999999" stroke="transparent" points="255.5,-145 80.5,-145 80.5,-96 255.5,-96 255.5,-145"/>
<text text-anchor="start" x="86" y="-132.5" font-family="Helvetica,sans-Serif" font-size="10.00">bot.BotQueuedMessageException</text>
<text text-anchor="start" x="166.5" y="-117.5" font-family="Helvetica,sans-Serif" font-size="10.00"> </text>
<text text-anchor="start" x="166.5" y="-102.5" font-family="Helvetica,sans-Serif" font-size="10.00"> </text>
<polygon fill="#666666" stroke="#666666" points="81,-127.5 81,-127.5 256,-127.5 256,-127.5 81,-127.5"/>
<polygon fill="#666666" stroke="#666666" points="81,-112.5 81,-112.5 256,-112.5 256,-112.5 81,-112.5"/>
<polygon fill="none" stroke="#666666" points="80.5,-96 80.5,-145 255.5,-145 255.5,-96 80.5,-96"/>
</a>
</g>
</g>
<!-- Node6 -->
<g id="Node000006" class="node">
<title>Node6</title>
<g id="a_Node000006"><a xlink:href="classbot_1_1BotQueuedMessageInvalidException.html" target="_top" xlink:title=" ">
<polygon fill="white" stroke="transparent" points="160,-60 0,-60 0,0 160,0 160,-60"/>
<text text-anchor="start" x="5" y="-48" font-family="Helvetica,sans-Serif" font-size="10.00">bot.BotQueuedMessageInvalid</text>
<text text-anchor="start" x="55.5" y="-37" font-family="Helvetica,sans-Serif" font-size="10.00">Exception</text>
<text text-anchor="start" x="78" y="-22" font-family="Helvetica,sans-Serif" font-size="10.00"> </text>
<text text-anchor="start" x="78" y="-7" font-family="Helvetica,sans-Serif" font-size="10.00"> </text>
<polygon fill="#666666" stroke="#666666" points="0,-32 0,-32 160,-32 160,-32 0,-32"/>
<polygon fill="#666666" stroke="#666666" points="0,-17 0,-17 160,-17 160,-17 0,-17"/>
<polygon fill="none" stroke="#666666" points="0,0 0,-60 160,-60 160,0 0,0"/>
</a>
</g>
</g>
<!-- Node1&#45;&gt;Node6 -->
<g id="edge5_Node000001_Node000006" class="edge">
<title>Node1&#45;&gt;Node6</title>
<g id="a_edge5_Node000001_Node000006"><a xlink:title=" ">
<path fill="none" stroke="#63b8ff" d="M137.27,-88.6C128.09,-79.36 118.06,-69.27 108.99,-60.16"/>
<polygon fill="none" stroke="#63b8ff" points="134.88,-91.16 144.42,-95.78 139.85,-86.22 134.88,-91.16"/>
</a>
</g>
</g>
<!-- Node7 -->
<g id="Node000007" class="node">
<title>Node7</title>
<g id="a_Node000007"><a xlink:href="classbot_1_1BotQueuedMessageResultException.html" target="_top" xlink:title=" ">
<polygon fill="white" stroke="transparent" points="336,-60 178,-60 178,0 336,0 336,-60"/>
<text text-anchor="start" x="183" y="-48" font-family="Helvetica,sans-Serif" font-size="10.00">bot.BotQueuedMessageResult</text>
<text text-anchor="start" x="232.5" y="-37" font-family="Helvetica,sans-Serif" font-size="10.00">Exception</text>
<text text-anchor="start" x="255" y="-22" font-family="Helvetica,sans-Serif" font-size="10.00"> </text>
<text text-anchor="start" x="255" y="-7" font-family="Helvetica,sans-Serif" font-size="10.00"> </text>
<polygon fill="#666666" stroke="#666666" points="178,-32 178,-32 336,-32 336,-32 178,-32"/>
<polygon fill="#666666" stroke="#666666" points="178,-17 178,-17 336,-17 336,-17 178,-17"/>
<polygon fill="none" stroke="#666666" points="178,0 178,-60 336,-60 336,0 178,0"/>
</a>
</g>
</g>
<!-- Node1&#45;&gt;Node7 -->
<g id="edge6_Node000001_Node000007" class="edge">
<title>Node1&#45;&gt;Node7</title>
<g id="a_edge6_Node000001_Node000007"><a xlink:title=" ">
<path fill="none" stroke="#63b8ff" d="M199.08,-88.6C208.36,-79.36 218.51,-69.27 227.68,-60.16"/>
<polygon fill="none" stroke="#63b8ff" points="196.47,-86.25 191.85,-95.78 201.41,-91.21 196.47,-86.25"/>
</a>
</g>
</g>
<!-- Node2 -->
<g id="Node000002" class="node">
<title>Node2</title>
<g id="a_Node000002"><a xlink:href="classbot_1_1BotMessageException.html" target="_top" xlink:title=" ">
<polygon fill="white" stroke="transparent" points="236.5,-230 99.5,-230 99.5,-181 236.5,-181 236.5,-230"/>
<text text-anchor="start" x="105" y="-217.5" font-family="Helvetica,sans-Serif" font-size="10.00">bot.BotMessageException</text>
<text text-anchor="start" x="166.5" y="-202.5" font-family="Helvetica,sans-Serif" font-size="10.00"> </text>
<text text-anchor="start" x="166.5" y="-187.5" font-family="Helvetica,sans-Serif" font-size="10.00"> </text>
<polygon fill="#666666" stroke="#666666" points="100,-212.5 100,-212.5 237,-212.5 237,-212.5 100,-212.5"/>
<polygon fill="#666666" stroke="#666666" points="100,-197.5 100,-197.5 237,-197.5 237,-197.5 100,-197.5"/>
<polygon fill="none" stroke="#666666" points="99.5,-181 99.5,-230 236.5,-230 236.5,-181 99.5,-181"/>
</a>
</g>
</g>
<!-- Node2&#45;&gt;Node1 -->
<g id="edge1_Node000001_Node000002" class="edge">
<title>Node2&#45;&gt;Node1</title>
<g id="a_edge1_Node000001_Node000002"><a xlink:title=" ">
<path fill="none" stroke="#63b8ff" d="M168,-170.77C168,-162.17 168,-153.1 168,-145.12"/>
<polygon fill="none" stroke="#63b8ff" points="164.5,-170.94 168,-180.94 171.5,-170.94 164.5,-170.94"/>
</a>
</g>
</g>
<!-- Node3 -->
<g id="Node000003" class="node">
<title>Node3</title>
<g id="a_Node000003"><a xlink:href="classbot_1_1BotException.html" target="_top" xlink:title=" ">
<polygon fill="white" stroke="transparent" points="215,-315 121,-315 121,-266 215,-266 215,-315"/>
<text text-anchor="start" x="126" y="-302.5" font-family="Helvetica,sans-Serif" font-size="10.00">bot.BotException</text>
<text text-anchor="start" x="166" y="-287.5" font-family="Helvetica,sans-Serif" font-size="10.00"> </text>
<text text-anchor="start" x="166" y="-272.5" font-family="Helvetica,sans-Serif" font-size="10.00"> </text>
<polygon fill="#666666" stroke="#666666" points="121,-297.5 121,-297.5 215,-297.5 215,-297.5 121,-297.5"/>
<polygon fill="#666666" stroke="#666666" points="121,-282.5 121,-282.5 215,-282.5 215,-282.5 121,-282.5"/>
<polygon fill="none" stroke="#666666" points="121,-266 121,-315 215,-315 215,-266 121,-266"/>
</a>
</g>
</g>
<!-- Node3&#45;&gt;Node2 -->
<g id="edge2_Node000002_Node000003" class="edge">
<title>Node3&#45;&gt;Node2</title>
<g id="a_edge2_Node000002_Node000003"><a xlink:title=" ">
<path fill="none" stroke="#63b8ff" d="M168,-255.77C168,-247.17 168,-238.1 168,-230.12"/>
<polygon fill="none" stroke="#63b8ff" points="164.5,-255.94 168,-265.94 171.5,-255.94 164.5,-255.94"/>
</a>
</g>
</g>
<!-- Node4 -->
<g id="Node000004" class="node">
<title>Node4</title>
<g id="a_Node000004"><a xlink:href="classexception_1_1ChatbotException.html" target="_top" xlink:title=" ">
<polygon fill="white" stroke="transparent" points="293,-646 43,-646 43,-351 293,-351 293,-646"/>
<text text-anchor="start" x="99" y="-633.5" font-family="Helvetica,sans-Serif" font-size="10.00">exception.ChatbotException</text>
<text text-anchor="start" x="47" y="-618.5" font-family="Helvetica,sans-Serif" font-size="10.00">+</text>
<text text-anchor="start" x="60" y="-618.5" font-family="Helvetica,sans-Serif" font-size="10.00">cause</text>
<text text-anchor="start" x="47" y="-603.5" font-family="Helvetica,sans-Serif" font-size="10.00">+</text>
<text text-anchor="start" x="60" y="-603.5" font-family="Helvetica,sans-Serif" font-size="10.00">code</text>
<text text-anchor="start" x="47" y="-588.5" font-family="Helvetica,sans-Serif" font-size="10.00">+</text>
<text text-anchor="start" x="60" y="-588.5" font-family="Helvetica,sans-Serif" font-size="10.00">filename</text>
<text text-anchor="start" x="47" y="-573.5" font-family="Helvetica,sans-Serif" font-size="10.00">+</text>
<text text-anchor="start" x="60" y="-573.5" font-family="Helvetica,sans-Serif" font-size="10.00">lineno</text>
<text text-anchor="start" x="47" y="-558.5" font-family="Helvetica,sans-Serif" font-size="10.00">+</text>
<text text-anchor="start" x="60" y="-558.5" font-family="Helvetica,sans-Serif" font-size="10.00">message</text>
<text text-anchor="start" x="47" y="-543.5" font-family="Helvetica,sans-Serif" font-size="10.00">+</text>
<text text-anchor="start" x="60" y="-543.5" font-family="Helvetica,sans-Serif" font-size="10.00">severity</text>
<text text-anchor="start" x="47" y="-528.5" font-family="Helvetica,sans-Serif" font-size="10.00">+</text>
<text text-anchor="start" x="60" y="-528.5" font-family="Helvetica,sans-Serif" font-size="10.00">traceback</text>
<text text-anchor="start" x="47" y="-513.5" font-family="Helvetica,sans-Serif" font-size="10.00">+</text>
<text text-anchor="start" x="60" y="-513.5" font-family="Helvetica,sans-Serif" font-size="10.00">type</text>
<text text-anchor="start" x="47" y="-498.5" font-family="Helvetica,sans-Serif" font-size="10.00">+</text>
<text text-anchor="start" x="60" y="-498.5" font-family="Helvetica,sans-Serif" font-size="10.00">SEVERITY_TO_LOGGING</text>
<text text-anchor="start" x="47" y="-483.5" font-family="Helvetica,sans-Serif" font-size="10.00">+</text>
<text text-anchor="start" x="60" y="-483.5" font-family="Helvetica,sans-Serif" font-size="10.00">__init__(self, &quot;Chatbot</text>
<text text-anchor="start" x="60" y="-472.5" font-family="Helvetica,sans-Serif" font-size="10.00">Exception.ChatbotExceptionCode&quot;</text>
<text text-anchor="start" x="60" y="-461.5" font-family="Helvetica,sans-Serif" font-size="10.00"> code=None, str message=None,</text>
<text text-anchor="start" x="60" y="-450.5" font-family="Helvetica,sans-Serif" font-size="10.00"> &quot;ChatbotException.ChatbotExceptionSeverity&quot;</text>
<text text-anchor="start" x="60" y="-439.5" font-family="Helvetica,sans-Serif" font-size="10.00"> severity=None, str filename=None, int</text>
<text text-anchor="start" x="60" y="-428.5" font-family="Helvetica,sans-Serif" font-size="10.00"> lineno=None, Exception cause=None, bool</text>
<text text-anchor="start" x="60" y="-417.5" font-family="Helvetica,sans-Serif" font-size="10.00"> include_trace=True)</text>
<text text-anchor="start" x="47" y="-402.5" font-family="Helvetica,sans-Serif" font-size="10.00">+</text>
<text text-anchor="start" x="60" y="-402.5" font-family="Helvetica,sans-Serif" font-size="10.00">__repr__(self)</text>
<text text-anchor="start" x="47" y="-387.5" font-family="Helvetica,sans-Serif" font-size="10.00">+</text>
<text text-anchor="start" x="60" y="-387.5" font-family="Helvetica,sans-Serif" font-size="10.00">__str__(self)</text>
<text text-anchor="start" x="47" y="-372.5" font-family="Helvetica,sans-Serif" font-size="10.00">+</text>
<text text-anchor="start" x="60" y="-372.5" font-family="Helvetica,sans-Serif" font-size="10.00">to_dict(self)</text>
<text text-anchor="start" x="47" y="-357.5" font-family="Helvetica,sans-Serif" font-size="10.00">+</text>
<text text-anchor="start" x="60" y="-357.5" font-family="Helvetica,sans-Serif" font-size="10.00">to_json(self)</text>
<polygon fill="#666666" stroke="#666666" points="43,-628.5 43,-628.5 293,-628.5 293,-628.5 43,-628.5"/>
<polygon fill="#666666" stroke="#666666" points="43,-493.5 43,-493.5 58,-493.5 58,-493.5 43,-493.5"/>
<polygon fill="#666666" stroke="#666666" points="58,-493.5 58,-493.5 293,-493.5 293,-493.5 58,-493.5"/>
<polygon fill="none" stroke="#666666" points="43,-351 43,-646 293,-646 293,-351 43,-351"/>
</a>
</g>
</g>
<!-- Node4&#45;&gt;Node3 -->
<g id="edge3_Node000003_Node000004" class="edge">
<title>Node4&#45;&gt;Node3</title>
<g id="a_edge3_Node000003_Node000004"><a xlink:title=" ">
<path fill="none" stroke="#63b8ff" d="M168,-340.58C168,-331.04 168,-322.35 168,-315.04"/>
<polygon fill="none" stroke="#63b8ff" points="164.5,-340.81 168,-350.81 171.5,-340.81 164.5,-340.81"/>
</a>
</g>
</g>
<!-- Node5 -->
<g id="Node000005" class="node">
<title>Node5</title>
<g id="a_Node000005"><a xlink:title=" ">
<polygon fill="white" stroke="transparent" points="197.5,-731 138.5,-731 138.5,-682 197.5,-682 197.5,-731"/>
<text text-anchor="start" x="144" y="-718.5" font-family="Helvetica,sans-Serif" font-size="10.00">Exception</text>
<text text-anchor="start" x="166.5" y="-703.5" font-family="Helvetica,sans-Serif" font-size="10.00"> </text>
<text text-anchor="start" x="166.5" y="-688.5" font-family="Helvetica,sans-Serif" font-size="10.00"> </text>
<polygon fill="#666666" stroke="#666666" points="139,-713.5 139,-713.5 198,-713.5 198,-713.5 139,-713.5"/>
<polygon fill="#666666" stroke="#666666" points="139,-698.5 139,-698.5 198,-698.5 198,-698.5 139,-698.5"/>
<polygon fill="none" stroke="#666666" points="138.5,-682 138.5,-731 197.5,-731 197.5,-682 138.5,-682"/>
</a>
</g>
</g>
<!-- Node5&#45;&gt;Node4 -->
<g id="edge4_Node000004_Node000005" class="edge">
<title>Node5&#45;&gt;Node4</title>
<g id="a_edge4_Node000004_Node000005"><a xlink:title=" ">
<path fill="none" stroke="#63b8ff" d="M168,-671.71C168,-664.05 168,-655.44 168,-646.26"/>
<polygon fill="none" stroke="#63b8ff" points="164.5,-671.87 168,-681.87 171.5,-671.87 164.5,-671.87"/>
</a>
</g>
</g>
</g>
</svg>
