<?xml version="1.0" encoding="UTF-8" standalone="no"?>
<!DOCTYPE svg PUBLIC "-//W3C//DTD SVG 1.1//EN"
 "http://www.w3.org/Graphics/SVG/1.1/DTD/svg11.dtd">
<!-- Generated by graphviz version 2.43.0 (0)
 -->
<!-- Title: bot.Bot.start Pages: 1 -->
<svg width="270pt" height="86pt"
 viewBox="0.00 0.00 270.00 86.00" xmlns="http://www.w3.org/2000/svg" xmlns:xlink="http://www.w3.org/1999/xlink">
<g id="graph0" class="graph" transform="scale(1 1) rotate(0) translate(4 82)">
<title>bot.Bot.start</title>
<!-- Node1 -->
<g id="Node000001" class="node">
<title>Node1</title>
<g id="a_Node000001"><a xlink:title=" ">
<polygon fill="#999999" stroke="#666666" points="77,-48.5 0,-48.5 0,-29.5 77,-29.5 77,-48.5"/>
<text text-anchor="middle" x="38.5" y="-36.5" font-family="Helvetica,sans-Serif" font-size="10.00">bot.Bot.start</text>
</a>
</g>
</g>
<!-- Node1&#45;&gt;Node1 -->
<g id="edge3_Node000001_Node000001" class="edge">
<title>Node1&#45;&gt;Node1</title>
<g id="a_edge3_Node000001_Node000001"><a xlink:title=" ">
<path fill="none" stroke="#63b8ff" d="M15.69,-48.58C4.59,-57.23 12.2,-66.5 38.5,-66.5 55.35,-66.5 64.53,-62.7 66.03,-57.69"/>
<polygon fill="#63b8ff" stroke="#63b8ff" points="69.02,-55.85 61.31,-48.58 62.8,-59.07 69.02,-55.85"/>
</a>
</g>
</g>
<!-- Node2 -->
<g id="Node000002" class="node">
<title>Node2</title>
<g id="a_Node000002"><a xlink:href="classbot_1_1Bot.html#afa36ac420df45dec04821ad7839ef433" target="_top" xlink:title=" ">
<polygon fill="white" stroke="#666666" points="262,-78 113,-78 113,-48 262,-48 262,-78"/>
<text text-anchor="start" x="121" y="-66" font-family="Helvetica,sans-Serif" font-size="10.00">bot.Bot.consume_incoming</text>
<text text-anchor="middle" x="187.5" y="-55" font-family="Helvetica,sans-Serif" font-size="10.00">_queue</text>
</a>
</g>
</g>
<!-- Node1&#45;&gt;Node2 -->
<g id="edge1_Node000001_Node000002" class="edge">
<title>Node1&#45;&gt;Node2</title>
<g id="a_edge1_Node000001_Node000002"><a xlink:title=" ">
<path fill="none" stroke="#63b8ff" d="M77.36,-45.18C85.27,-46.47 93.91,-47.88 102.75,-49.33"/>
<polygon fill="#63b8ff" stroke="#63b8ff" points="102.35,-52.81 112.78,-50.96 103.48,-45.9 102.35,-52.81"/>
</a>
</g>
</g>
<!-- Node3 -->
<g id="Node000003" class="node">
<title>Node3</title>
<g id="a_Node000003"><a xlink:href="classbot_1_1Bot.html#abc2caaa21ed664e53259802db8bbf058" target="_top" xlink:title=" ">
<polygon fill="white" stroke="#666666" points="261,-30 114,-30 114,0 261,0 261,-30"/>
<text text-anchor="start" x="122" y="-18" font-family="Helvetica,sans-Serif" font-size="10.00">bot.Bot.consume_outgoing</text>
<text text-anchor="middle" x="187.5" y="-7" font-family="Helvetica,sans-Serif" font-size="10.00">_queue</text>
</a>
</g>
</g>
<!-- Node1&#45;&gt;Node3 -->
<g id="edge2_Node000001_Node000003" class="edge">
<title>Node1&#45;&gt;Node3</title>
<g id="a_edge2_Node000001_Node000003"><a xlink:title=" ">
<path fill="none" stroke="#63b8ff" d="M77.36,-32.82C85.6,-31.47 94.64,-30 103.87,-28.49"/>
<polygon fill="#63b8ff" stroke="#63b8ff" points="104.63,-31.91 113.94,-26.85 103.5,-25 104.63,-31.91"/>
</a>
</g>
</g>
</g>
</svg>
