<?xml version="1.0" encoding="UTF-8" standalone="no"?>
<!DOCTYPE svg PUBLIC "-//W3C//DTD SVG 1.1//EN"
 "http://www.w3.org/Graphics/SVG/1.1/DTD/svg11.dtd">
<!-- Generated by graphviz version 2.43.0 (0)
 -->
<!-- Title: bot.BotManager.start_bot Pages: 1 -->
<svg width="498pt" height="39pt"
 viewBox="0.00 0.00 498.00 39.00" xmlns="http://www.w3.org/2000/svg" xmlns:xlink="http://www.w3.org/1999/xlink">
<g id="graph0" class="graph" transform="scale(1 1) rotate(0) translate(4 35)">
<title>bot.BotManager.start_bot</title>
<!-- Node1 -->
<g id="node1" class="node">
<title>Node1</title>
<g id="a_node1"><a xlink:title=" ">
<polygon fill="#bfbfbf" stroke="black" points="0,-6 0,-25 141,-25 141,-6 0,-6"/>
<text text-anchor="middle" x="70.5" y="-13" font-family="Helvetica,sans-Serif" font-size="10.00">bot.BotManager.start_bot</text>
</a>
</g>
</g>
<!-- Node2 -->
<g id="node2" class="node">
<title>Node2</title>
<g id="a_node2"><a xlink:href="classbot_1_1BotManager.html#add838a9111964ac3ef46d63d6dd640d5" target="_top" xlink:title=" ">
<polygon fill="none" stroke="black" points="177,-0.5 177,-30.5 305,-30.5 305,-0.5 177,-0.5"/>
<text text-anchor="start" x="185" y="-18.5" font-family="Helvetica,sans-Serif" font-size="10.00">bot.BotManager.create</text>
<text text-anchor="middle" x="241" y="-7.5" font-family="Helvetica,sans-Serif" font-size="10.00">_if_not_exist_bot</text>
</a>
</g>
</g>
<!-- Node1&#45;&gt;Node2 -->
<g id="edge1" class="edge">
<title>Node1&#45;&gt;Node2</title>
<path fill="none" stroke="midnightblue" d="M141.01,-15.5C149.45,-15.5 158.1,-15.5 166.6,-15.5"/>
<polygon fill="midnightblue" stroke="midnightblue" points="166.86,-19 176.86,-15.5 166.86,-12 166.86,-19"/>
</g>
<!-- Node3 -->
<g id="node3" class="node">
<title>Node3</title>
<g id="a_node3"><a xlink:href="classbot_1_1BotManager.html#a2e8fcc3964b3cbe2c48869dc86bfa960" target="_top" xlink:title=" ">
<polygon fill="none" stroke="black" points="341,-6 341,-25 490,-25 490,-6 341,-6"/>
<text text-anchor="middle" x="415.5" y="-13" font-family="Helvetica,sans-Serif" font-size="10.00">bot.BotManager.create_bot</text>
</a>
</g>
</g>
<!-- Node2&#45;&gt;Node3 -->
<g id="edge2" class="edge">
<title>Node2&#45;&gt;Node3</title>
<path fill="none" stroke="midnightblue" d="M305.25,-15.5C313.55,-15.5 322.15,-15.5 330.71,-15.5"/>
<polygon fill="midnightblue" stroke="midnightblue" points="330.73,-19 340.73,-15.5 330.73,-12 330.73,-19"/>
</g>
</g>
</svg>
