<?xml version="1.0" encoding="UTF-8" standalone="no"?>
<!DOCTYPE svg PUBLIC "-//W3C//DTD SVG 1.1//EN"
 "http://www.w3.org/Graphics/SVG/1.1/DTD/svg11.dtd">
<!-- Generated by graphviz version 2.43.0 (0)
 -->
<!-- Title: configurator.Configurator.start_ngrok Pages: 1 -->
<svg width="373pt" height="88pt"
 viewBox="0.00 0.00 373.00 88.00" xmlns="http://www.w3.org/2000/svg" xmlns:xlink="http://www.w3.org/1999/xlink">
<g id="graph0" class="graph" transform="scale(1 1) rotate(0) translate(4 84)">
<title>configurator.Configurator.start_ngrok</title>
<!-- Node1 -->
<g id="node1" class="node">
<title>Node1</title>
<g id="a_node1"><a xlink:title=" ">
<polygon fill="#bfbfbf" stroke="black" points="0,-24.5 0,-54.5 165,-54.5 165,-24.5 0,-24.5"/>
<text text-anchor="start" x="8" y="-42.5" font-family="Helvetica,sans-Serif" font-size="10.00">configurator.Configurator.start</text>
<text text-anchor="middle" x="82.5" y="-31.5" font-family="Helvetica,sans-Serif" font-size="10.00">_ngrok</text>
</a>
</g>
</g>
<!-- Node2 -->
<g id="node2" class="node">
<title>Node2</title>
<g id="a_node2"><a xlink:href="classconfigurator_1_1Configurator.html#af018c5b4193c24793e3b771121ce3d48" target="_top" xlink:title=" ">
<polygon fill="none" stroke="black" points="202,-49.5 202,-79.5 364,-79.5 364,-49.5 202,-49.5"/>
<text text-anchor="start" x="210" y="-67.5" font-family="Helvetica,sans-Serif" font-size="10.00">configurator.Configurator.http</text>
<text text-anchor="middle" x="283" y="-56.5" font-family="Helvetica,sans-Serif" font-size="10.00">_request_with_retry</text>
</a>
</g>
</g>
<!-- Node1&#45;&gt;Node2 -->
<g id="edge1" class="edge">
<title>Node1&#45;&gt;Node2</title>
<path fill="none" stroke="midnightblue" d="M165.1,-49.78C173.88,-50.88 182.85,-52.01 191.72,-53.13"/>
<polygon fill="midnightblue" stroke="midnightblue" points="191.32,-56.61 201.68,-54.38 192.2,-49.66 191.32,-56.61"/>
</g>
<!-- Node3 -->
<g id="node3" class="node">
<title>Node3</title>
<g id="a_node3"><a xlink:href="classconfigurator_1_1Configurator.html#a0e0ecf1e952a5119a3b667b4254ecfea" target="_top" xlink:title=" ">
<polygon fill="none" stroke="black" points="201,-0.5 201,-30.5 365,-30.5 365,-0.5 201,-0.5"/>
<text text-anchor="start" x="209" y="-18.5" font-family="Helvetica,sans-Serif" font-size="10.00">configurator.Configurator.stop</text>
<text text-anchor="middle" x="283" y="-7.5" font-family="Helvetica,sans-Serif" font-size="10.00">_ngrok</text>
</a>
</g>
</g>
<!-- Node1&#45;&gt;Node3 -->
<g id="edge2" class="edge">
<title>Node1&#45;&gt;Node3</title>
<path fill="none" stroke="midnightblue" d="M165.1,-29.63C173.55,-28.61 182.18,-27.57 190.73,-26.53"/>
<polygon fill="midnightblue" stroke="midnightblue" points="191.21,-30 200.72,-25.33 190.37,-23.05 191.21,-30"/>
</g>
</g>
</svg>
