<?xml version="1.0" encoding="UTF-8" standalone="no"?>
<!DOCTYPE svg PUBLIC "-//W3C//DTD SVG 1.1//EN"
 "http://www.w3.org/Graphics/SVG/1.1/DTD/svg11.dtd">
<!-- Generated by graphviz version 2.43.0 (0)
 -->
<!-- Title: bot.BotMessageException Pages: 1 -->
<svg width="1586pt" height="679pt"
 viewBox="0.00 0.00 1585.50 679.00" xmlns="http://www.w3.org/2000/svg" xmlns:xlink="http://www.w3.org/1999/xlink">
<g id="graph0" class="graph" transform="scale(1 1) rotate(0) translate(4 675)">
<title>bot.BotMessageException</title>
<!-- Node1 -->
<g id="node1" class="node">
<title>Node1</title>
<g id="a_node1"><a xlink:title=" ">
<polygon fill="#bfbfbf" stroke="black" points="817.5,-199.5 817.5,-256.5 960.5,-256.5 960.5,-199.5 817.5,-199.5"/>
<text text-anchor="middle" x="889" y="-244.5" font-family="Helvetica,sans-Serif" font-size="10.00">bot.BotMessageException</text>
<polyline fill="none" stroke="black" points="817.5,-237.5 960.5,-237.5 "/>
<text text-anchor="middle" x="889" y="-225.5" font-family="Helvetica,sans-Serif" font-size="10.00"> </text>
<polyline fill="none" stroke="black" points="817.5,-218.5 960.5,-218.5 "/>
<text text-anchor="middle" x="889" y="-206.5" font-family="Helvetica,sans-Serif" font-size="10.00"> </text>
</a>
</g>
</g>
<!-- Node5 -->
<g id="node5" class="node">
<title>Node5</title>
<g id="a_node5"><a xlink:href="classbot_1_1BotMessageQueueException.html" target="_top" xlink:title=" ">
<polygon fill="none" stroke="black" points="291.5,-105.5 291.5,-162.5 466.5,-162.5 466.5,-105.5 291.5,-105.5"/>
<text text-anchor="middle" x="379" y="-150.5" font-family="Helvetica,sans-Serif" font-size="10.00">bot.BotMessageQueueException</text>
<polyline fill="none" stroke="black" points="291.5,-143.5 466.5,-143.5 "/>
<text text-anchor="middle" x="379" y="-131.5" font-family="Helvetica,sans-Serif" font-size="10.00"> </text>
<polyline fill="none" stroke="black" points="291.5,-124.5 466.5,-124.5 "/>
<text text-anchor="middle" x="379" y="-112.5" font-family="Helvetica,sans-Serif" font-size="10.00"> </text>
</a>
</g>
</g>
<!-- Node1&#45;&gt;Node5 -->
<g id="edge4" class="edge">
<title>Node1&#45;&gt;Node5</title>
<path fill="none" stroke="midnightblue" d="M807.33,-212.27C714.09,-195.45 562.14,-168.04 466.53,-150.79"/>
<polygon fill="none" stroke="midnightblue" points="806.82,-215.73 817.28,-214.06 808.06,-208.84 806.82,-215.73"/>
</g>
<!-- Node9 -->
<g id="node9" class="node">
<title>Node9</title>
<g id="a_node9"><a xlink:href="classbot_1_1BotQueuedMessageException.html" target="_top" xlink:title=" ">
<polygon fill="none" stroke="black" points="598.5,-105.5 598.5,-162.5 779.5,-162.5 779.5,-105.5 598.5,-105.5"/>
<text text-anchor="middle" x="689" y="-150.5" font-family="Helvetica,sans-Serif" font-size="10.00">bot.BotQueuedMessageException</text>
<polyline fill="none" stroke="black" points="598.5,-143.5 779.5,-143.5 "/>
<text text-anchor="middle" x="689" y="-131.5" font-family="Helvetica,sans-Serif" font-size="10.00"> </text>
<polyline fill="none" stroke="black" points="598.5,-124.5 779.5,-124.5 "/>
<text text-anchor="middle" x="689" y="-112.5" font-family="Helvetica,sans-Serif" font-size="10.00"> </text>
</a>
</g>
</g>
<!-- Node1&#45;&gt;Node9 -->
<g id="edge8" class="edge">
<title>Node1&#45;&gt;Node9</title>
<path fill="none" stroke="midnightblue" d="M819.63,-195.09C796.62,-184.5 771.21,-172.82 748.96,-162.58"/>
<polygon fill="none" stroke="midnightblue" points="818.45,-198.4 828.99,-199.4 821.37,-192.04 818.45,-198.4"/>
</g>
<!-- Node12 -->
<g id="node12" class="node">
<title>Node12</title>
<g id="a_node12"><a xlink:href="classbot_1_1BotReceiveMessageException.html" target="_top" xlink:title=" ">
<polygon fill="none" stroke="black" points="798,-105.5 798,-162.5 980,-162.5 980,-105.5 798,-105.5"/>
<text text-anchor="middle" x="889" y="-150.5" font-family="Helvetica,sans-Serif" font-size="10.00">bot.BotReceiveMessageException</text>
<polyline fill="none" stroke="black" points="798,-143.5 980,-143.5 "/>
<text text-anchor="middle" x="889" y="-131.5" font-family="Helvetica,sans-Serif" font-size="10.00"> </text>
<polyline fill="none" stroke="black" points="798,-124.5 980,-124.5 "/>
<text text-anchor="middle" x="889" y="-112.5" font-family="Helvetica,sans-Serif" font-size="10.00"> </text>
</a>
</g>
</g>
<!-- Node1&#45;&gt;Node12 -->
<g id="edge11" class="edge">
<title>Node1&#45;&gt;Node12</title>
<path fill="none" stroke="midnightblue" d="M889,-189.21C889,-180.29 889,-170.95 889,-162.58"/>
<polygon fill="none" stroke="midnightblue" points="885.5,-189.4 889,-199.4 892.5,-189.4 885.5,-189.4"/>
</g>
<!-- Node13 -->
<g id="node13" class="node">
<title>Node13</title>
<g id="a_node13"><a xlink:href="classbot_1_1BotSendMessageException.html" target="_top" xlink:title=" ">
<polygon fill="none" stroke="black" points="998.5,-105.5 998.5,-162.5 1165.5,-162.5 1165.5,-105.5 998.5,-105.5"/>
<text text-anchor="middle" x="1082" y="-150.5" font-family="Helvetica,sans-Serif" font-size="10.00">bot.BotSendMessageException</text>
<polyline fill="none" stroke="black" points="998.5,-143.5 1165.5,-143.5 "/>
<text text-anchor="middle" x="1082" y="-131.5" font-family="Helvetica,sans-Serif" font-size="10.00"> </text>
<polyline fill="none" stroke="black" points="998.5,-124.5 1165.5,-124.5 "/>
<text text-anchor="middle" x="1082" y="-112.5" font-family="Helvetica,sans-Serif" font-size="10.00"> </text>
</a>
</g>
</g>
<!-- Node1&#45;&gt;Node13 -->
<g id="edge12" class="edge">
<title>Node1&#45;&gt;Node13</title>
<path fill="none" stroke="midnightblue" d="M955.94,-195.09C978.15,-184.5 1002.67,-172.82 1024.13,-162.58"/>
<polygon fill="none" stroke="midnightblue" points="954.43,-191.93 946.91,-199.4 957.44,-198.25 954.43,-191.93"/>
</g>
<!-- Node14 -->
<g id="node14" class="node">
<title>Node14</title>
<g id="a_node14"><a xlink:href="classbot_1_1HTTPMessageException.html" target="_top" xlink:title=" ">
<polygon fill="none" stroke="black" points="1193,-105.5 1193,-162.5 1345,-162.5 1345,-105.5 1193,-105.5"/>
<text text-anchor="middle" x="1269" y="-150.5" font-family="Helvetica,sans-Serif" font-size="10.00">bot.HTTPMessageException</text>
<polyline fill="none" stroke="black" points="1193,-143.5 1345,-143.5 "/>
<text text-anchor="middle" x="1269" y="-131.5" font-family="Helvetica,sans-Serif" font-size="10.00"> </text>
<polyline fill="none" stroke="black" points="1193,-124.5 1345,-124.5 "/>
<text text-anchor="middle" x="1269" y="-112.5" font-family="Helvetica,sans-Serif" font-size="10.00"> </text>
</a>
</g>
</g>
<!-- Node1&#45;&gt;Node14 -->
<g id="edge13" class="edge">
<title>Node1&#45;&gt;Node14</title>
<path fill="none" stroke="midnightblue" d="M970.82,-210.12C1027.98,-197.96 1105.93,-180.65 1174,-163 1180.16,-161.4 1186.52,-159.68 1192.9,-157.91"/>
<polygon fill="none" stroke="midnightblue" points="969.82,-206.75 960.76,-212.25 971.27,-213.6 969.82,-206.75"/>
</g>
<!-- Node2 -->
<g id="node2" class="node">
<title>Node2</title>
<g id="a_node2"><a xlink:href="classbot_1_1BotException.html" target="_top" xlink:title=" ">
<polygon fill="none" stroke="black" points="839,-293.5 839,-350.5 939,-350.5 939,-293.5 839,-293.5"/>
<text text-anchor="middle" x="889" y="-338.5" font-family="Helvetica,sans-Serif" font-size="10.00">bot.BotException</text>
<polyline fill="none" stroke="black" points="839,-331.5 939,-331.5 "/>
<text text-anchor="middle" x="889" y="-319.5" font-family="Helvetica,sans-Serif" font-size="10.00"> </text>
<polyline fill="none" stroke="black" points="839,-312.5 939,-312.5 "/>
<text text-anchor="middle" x="889" y="-300.5" font-family="Helvetica,sans-Serif" font-size="10.00"> </text>
</a>
</g>
</g>
<!-- Node2&#45;&gt;Node1 -->
<g id="edge1" class="edge">
<title>Node2&#45;&gt;Node1</title>
<path fill="none" stroke="midnightblue" d="M889,-283.21C889,-274.29 889,-264.95 889,-256.58"/>
<polygon fill="none" stroke="midnightblue" points="885.5,-283.4 889,-293.4 892.5,-283.4 885.5,-283.4"/>
</g>
<!-- Node3 -->
<g id="node3" class="node">
<title>Node3</title>
<g id="a_node3"><a xlink:href="classexception_1_1ChatbotException.html" target="_top" xlink:title=" ">
<polygon fill="none" stroke="black" points="812,-387.5 812,-576.5 966,-576.5 966,-387.5 812,-387.5"/>
<text text-anchor="middle" x="889" y="-564.5" font-family="Helvetica,sans-Serif" font-size="10.00">exception.ChatbotException</text>
<polyline fill="none" stroke="black" points="812,-557.5 966,-557.5 "/>
<text text-anchor="start" x="820" y="-545.5" font-family="Helvetica,sans-Serif" font-size="10.00">+ cause</text>
<text text-anchor="start" x="820" y="-534.5" font-family="Helvetica,sans-Serif" font-size="10.00">+ code</text>
<text text-anchor="start" x="820" y="-523.5" font-family="Helvetica,sans-Serif" font-size="10.00">+ filename</text>
<text text-anchor="start" x="820" y="-512.5" font-family="Helvetica,sans-Serif" font-size="10.00">+ lineno</text>
<text text-anchor="start" x="820" y="-501.5" font-family="Helvetica,sans-Serif" font-size="10.00">+ message</text>
<text text-anchor="start" x="820" y="-490.5" font-family="Helvetica,sans-Serif" font-size="10.00">+ severity</text>
<text text-anchor="start" x="820" y="-479.5" font-family="Helvetica,sans-Serif" font-size="10.00">+ traceback</text>
<text text-anchor="start" x="820" y="-468.5" font-family="Helvetica,sans-Serif" font-size="10.00">+ type</text>
<text text-anchor="start" x="820" y="-457.5" font-family="Helvetica,sans-Serif" font-size="10.00">+ SEVERITY_TO_LOGGING</text>
<polyline fill="none" stroke="black" points="812,-450.5 966,-450.5 "/>
<text text-anchor="start" x="820" y="-438.5" font-family="Helvetica,sans-Serif" font-size="10.00">+ __init__()</text>
<text text-anchor="start" x="820" y="-427.5" font-family="Helvetica,sans-Serif" font-size="10.00">+ __repr__()</text>
<text text-anchor="start" x="820" y="-416.5" font-family="Helvetica,sans-Serif" font-size="10.00">+ __str__()</text>
<text text-anchor="start" x="820" y="-405.5" font-family="Helvetica,sans-Serif" font-size="10.00">+ to_dict()</text>
<text text-anchor="start" x="820" y="-394.5" font-family="Helvetica,sans-Serif" font-size="10.00">+ to_json()</text>
</a>
</g>
</g>
<!-- Node3&#45;&gt;Node2 -->
<g id="edge2" class="edge">
<title>Node3&#45;&gt;Node2</title>
<path fill="none" stroke="midnightblue" d="M889,-377.13C889,-367.56 889,-358.54 889,-350.7"/>
<polygon fill="none" stroke="midnightblue" points="885.5,-377.26 889,-387.26 892.5,-377.26 885.5,-377.26"/>
</g>
<!-- Node4 -->
<g id="node4" class="node">
<title>Node4</title>
<g id="a_node4"><a xlink:title=" ">
<polygon fill="none" stroke="#bfbfbf" points="856.5,-613.5 856.5,-670.5 921.5,-670.5 921.5,-613.5 856.5,-613.5"/>
<text text-anchor="middle" x="889" y="-658.5" font-family="Helvetica,sans-Serif" font-size="10.00">Exception</text>
<polyline fill="none" stroke="#bfbfbf" points="856.5,-651.5 921.5,-651.5 "/>
<text text-anchor="middle" x="889" y="-639.5" font-family="Helvetica,sans-Serif" font-size="10.00"> </text>
<polyline fill="none" stroke="#bfbfbf" points="856.5,-632.5 921.5,-632.5 "/>
<text text-anchor="middle" x="889" y="-620.5" font-family="Helvetica,sans-Serif" font-size="10.00"> </text>
</a>
</g>
</g>
<!-- Node4&#45;&gt;Node3 -->
<g id="edge3" class="edge">
<title>Node4&#45;&gt;Node3</title>
<path fill="none" stroke="midnightblue" d="M889,-603.22C889,-595.01 889,-585.99 889,-576.68"/>
<polygon fill="none" stroke="midnightblue" points="885.5,-603.48 889,-613.48 892.5,-603.48 885.5,-603.48"/>
</g>
<!-- Node6 -->
<g id="node6" class="node">
<title>Node6</title>
<g id="a_node6"><a xlink:href="classbot_1_1BotMessageQueueEmptyException.html" target="_top" xlink:title=" ">
<polygon fill="none" stroke="black" points="0,-0.5 0,-68.5 158,-68.5 158,-0.5 0,-0.5"/>
<text text-anchor="start" x="8" y="-56.5" font-family="Helvetica,sans-Serif" font-size="10.00">bot.BotMessageQueueEmpty</text>
<text text-anchor="middle" x="79" y="-45.5" font-family="Helvetica,sans-Serif" font-size="10.00">Exception</text>
<polyline fill="none" stroke="black" points="0,-38.5 158,-38.5 "/>
<text text-anchor="middle" x="79" y="-26.5" font-family="Helvetica,sans-Serif" font-size="10.00"> </text>
<polyline fill="none" stroke="black" points="0,-19.5 158,-19.5 "/>
<text text-anchor="middle" x="79" y="-7.5" font-family="Helvetica,sans-Serif" font-size="10.00"> </text>
</a>
</g>
</g>
<!-- Node5&#45;&gt;Node6 -->
<g id="edge5" class="edge">
<title>Node5&#45;&gt;Node6</title>
<path fill="none" stroke="midnightblue" d="M281.36,-105.09C245.25,-94.36 204.09,-81.64 167,-69 164.06,-68 161.07,-66.96 158.06,-65.9"/>
<polygon fill="none" stroke="midnightblue" points="280.82,-108.58 291.4,-108.06 282.81,-101.87 280.82,-108.58"/>
</g>
<!-- Node7 -->
<g id="node7" class="node">
<title>Node7</title>
<g id="a_node7"><a xlink:href="classbot_1_1BotMessageQueueFullException.html" target="_top" xlink:title=" ">
<polygon fill="none" stroke="black" points="176,-6 176,-63 368,-63 368,-6 176,-6"/>
<text text-anchor="middle" x="272" y="-51" font-family="Helvetica,sans-Serif" font-size="10.00">bot.BotMessageQueueFullException</text>
<polyline fill="none" stroke="black" points="176,-44 368,-44 "/>
<text text-anchor="middle" x="272" y="-32" font-family="Helvetica,sans-Serif" font-size="10.00"> </text>
<polyline fill="none" stroke="black" points="176,-25 368,-25 "/>
<text text-anchor="middle" x="272" y="-13" font-family="Helvetica,sans-Serif" font-size="10.00"> </text>
</a>
</g>
</g>
<!-- Node5&#45;&gt;Node7 -->
<g id="edge6" class="edge">
<title>Node5&#45;&gt;Node7</title>
<path fill="none" stroke="midnightblue" d="M340.95,-98.33C328.32,-86.82 314.43,-74.17 302.45,-63.25"/>
<polygon fill="none" stroke="midnightblue" points="338.88,-101.17 348.62,-105.32 343.59,-96 338.88,-101.17"/>
</g>
<!-- Node8 -->
<g id="node8" class="node">
<title>Node8</title>
<g id="a_node8"><a xlink:href="classbot_1_1BotMessageQueueLockException.html" target="_top" xlink:title=" ">
<polygon fill="none" stroke="black" points="386.5,-6 386.5,-63 583.5,-63 583.5,-6 386.5,-6"/>
<text text-anchor="middle" x="485" y="-51" font-family="Helvetica,sans-Serif" font-size="10.00">bot.BotMessageQueueLockException</text>
<polyline fill="none" stroke="black" points="386.5,-44 583.5,-44 "/>
<text text-anchor="middle" x="485" y="-32" font-family="Helvetica,sans-Serif" font-size="10.00"> </text>
<polyline fill="none" stroke="black" points="386.5,-25 583.5,-25 "/>
<text text-anchor="middle" x="485" y="-13" font-family="Helvetica,sans-Serif" font-size="10.00"> </text>
</a>
</g>
</g>
<!-- Node5&#45;&gt;Node8 -->
<g id="edge7" class="edge">
<title>Node5&#45;&gt;Node8</title>
<path fill="none" stroke="midnightblue" d="M416.69,-98.33C429.21,-86.82 442.96,-74.17 454.83,-63.25"/>
<polygon fill="none" stroke="midnightblue" points="414.08,-95.98 409.09,-105.32 418.82,-101.13 414.08,-95.98"/>
</g>
<!-- Node10 -->
<g id="node10" class="node">
<title>Node10</title>
<g id="a_node10"><a xlink:href="classbot_1_1BotQueuedMessageInvalidException.html" target="_top" xlink:title=" ">
<polygon fill="none" stroke="black" points="602,-0.5 602,-68.5 768,-68.5 768,-0.5 602,-0.5"/>
<text text-anchor="start" x="610" y="-56.5" font-family="Helvetica,sans-Serif" font-size="10.00">bot.BotQueuedMessageInvalid</text>
<text text-anchor="middle" x="685" y="-45.5" font-family="Helvetica,sans-Serif" font-size="10.00">Exception</text>
<polyline fill="none" stroke="black" points="602,-38.5 768,-38.5 "/>
<text text-anchor="middle" x="685" y="-26.5" font-family="Helvetica,sans-Serif" font-size="10.00"> </text>
<polyline fill="none" stroke="black" points="602,-19.5 768,-19.5 "/>
<text text-anchor="middle" x="685" y="-7.5" font-family="Helvetica,sans-Serif" font-size="10.00"> </text>
</a>
</g>
</g>
<!-- Node9&#45;&gt;Node10 -->
<g id="edge9" class="edge">
<title>Node9&#45;&gt;Node10</title>
<path fill="none" stroke="midnightblue" d="M687.44,-95.06C687.09,-86.39 686.71,-77.24 686.37,-68.79"/>
<polygon fill="none" stroke="midnightblue" points="683.96,-95.47 687.86,-105.32 690.95,-95.19 683.96,-95.47"/>
</g>
<!-- Node11 -->
<g id="node11" class="node">
<title>Node11</title>
<g id="a_node11"><a xlink:href="classbot_1_1BotQueuedMessageResultException.html" target="_top" xlink:title=" ">
<polygon fill="none" stroke="black" points="786,-0.5 786,-68.5 950,-68.5 950,-0.5 786,-0.5"/>
<text text-anchor="start" x="794" y="-56.5" font-family="Helvetica,sans-Serif" font-size="10.00">bot.BotQueuedMessageResult</text>
<text text-anchor="middle" x="868" y="-45.5" font-family="Helvetica,sans-Serif" font-size="10.00">Exception</text>
<polyline fill="none" stroke="black" points="786,-38.5 950,-38.5 "/>
<text text-anchor="middle" x="868" y="-26.5" font-family="Helvetica,sans-Serif" font-size="10.00"> </text>
<polyline fill="none" stroke="black" points="786,-19.5 950,-19.5 "/>
<text text-anchor="middle" x="868" y="-7.5" font-family="Helvetica,sans-Serif" font-size="10.00"> </text>
</a>
</g>
</g>
<!-- Node9&#45;&gt;Node11 -->
<g id="edge10" class="edge">
<title>Node9&#45;&gt;Node11</title>
<path fill="none" stroke="midnightblue" d="M748.6,-100.53C767.45,-90.27 788.29,-78.92 807.22,-68.61"/>
<polygon fill="none" stroke="midnightblue" points="746.92,-97.46 739.82,-105.32 750.27,-103.61 746.92,-97.46"/>
</g>
<!-- Node15 -->
<g id="node15" class="node">
<title>Node15</title>
<g id="a_node15"><a xlink:href="classbot_1_1HTTPMessageHeadersException.html" target="_top" xlink:title=" ">
<polygon fill="none" stroke="black" points="968.5,-6 968.5,-63 1161.5,-63 1161.5,-6 968.5,-6"/>
<text text-anchor="middle" x="1065" y="-51" font-family="Helvetica,sans-Serif" font-size="10.00">bot.HTTPMessageHeadersException</text>
<polyline fill="none" stroke="black" points="968.5,-44 1161.5,-44 "/>
<text text-anchor="middle" x="1065" y="-32" font-family="Helvetica,sans-Serif" font-size="10.00"> </text>
<polyline fill="none" stroke="black" points="968.5,-25 1161.5,-25 "/>
<text text-anchor="middle" x="1065" y="-13" font-family="Helvetica,sans-Serif" font-size="10.00"> </text>
</a>
</g>
</g>
<!-- Node14&#45;&gt;Node15 -->
<g id="edge14" class="edge">
<title>Node14&#45;&gt;Node15</title>
<path fill="none" stroke="midnightblue" d="M1202.09,-101.02C1176.49,-88.79 1147.54,-74.95 1122.85,-63.15"/>
<polygon fill="none" stroke="midnightblue" points="1200.83,-104.3 1211.36,-105.45 1203.85,-97.98 1200.83,-104.3"/>
</g>
<!-- Node16 -->
<g id="node16" class="node">
<title>Node16</title>
<g id="a_node16"><a xlink:href="classbot_1_1HTTPMessageParamsException.html" target="_top" xlink:title=" ">
<polygon fill="none" stroke="black" points="1179.5,-6 1179.5,-63 1368.5,-63 1368.5,-6 1179.5,-6"/>
<text text-anchor="middle" x="1274" y="-51" font-family="Helvetica,sans-Serif" font-size="10.00">bot.HTTPMessageParamsException</text>
<polyline fill="none" stroke="black" points="1179.5,-44 1368.5,-44 "/>
<text text-anchor="middle" x="1274" y="-32" font-family="Helvetica,sans-Serif" font-size="10.00"> </text>
<polyline fill="none" stroke="black" points="1179.5,-25 1368.5,-25 "/>
<text text-anchor="middle" x="1274" y="-13" font-family="Helvetica,sans-Serif" font-size="10.00"> </text>
</a>
</g>
</g>
<!-- Node14&#45;&gt;Node16 -->
<g id="edge15" class="edge">
<title>Node14&#45;&gt;Node16</title>
<path fill="none" stroke="midnightblue" d="M1270.95,-95.04C1271.49,-84.45 1272.07,-73.14 1272.58,-63.25"/>
<polygon fill="none" stroke="midnightblue" points="1267.44,-95.16 1270.42,-105.32 1274.43,-95.51 1267.44,-95.16"/>
</g>
<!-- Node17 -->
<g id="node17" class="node">
<title>Node17</title>
<g id="a_node17"><a xlink:href="classbot_1_1HTTPMessagePayloadException.html" target="_top" xlink:title=" ">
<polygon fill="none" stroke="black" points="1386.5,-6 1386.5,-63 1577.5,-63 1577.5,-6 1386.5,-6"/>
<text text-anchor="middle" x="1482" y="-51" font-family="Helvetica,sans-Serif" font-size="10.00">bot.HTTPMessagePayloadException</text>
<polyline fill="none" stroke="black" points="1386.5,-44 1577.5,-44 "/>
<text text-anchor="middle" x="1482" y="-32" font-family="Helvetica,sans-Serif" font-size="10.00"> </text>
<polyline fill="none" stroke="black" points="1386.5,-25 1577.5,-25 "/>
<text text-anchor="middle" x="1482" y="-13" font-family="Helvetica,sans-Serif" font-size="10.00"> </text>
</a>
</g>
</g>
<!-- Node14&#45;&gt;Node17 -->
<g id="edge16" class="edge">
<title>Node14&#45;&gt;Node17</title>
<path fill="none" stroke="midnightblue" d="M1338.51,-101.18C1365.32,-88.91 1395.71,-75 1421.6,-63.15"/>
<polygon fill="none" stroke="midnightblue" points="1336.82,-98.11 1329.18,-105.45 1339.73,-104.47 1336.82,-98.11"/>
</g>
</g>
</svg>
