<?xml version="1.0" encoding="UTF-8" standalone="no"?>
<!DOCTYPE svg PUBLIC "-//W3C//DTD SVG 1.1//EN"
 "http://www.w3.org/Graphics/SVG/1.1/DTD/svg11.dtd">
<!-- Generated by graphviz version 2.43.0 (0)
 -->
<!-- Title: exception.ChatbotException.ChatbotExceptionSeverity Pages: 1 -->
<svg width="159pt" height="213pt"
 viewBox="0.00 0.00 159.00 213.00" xmlns="http://www.w3.org/2000/svg" xmlns:xlink="http://www.w3.org/1999/xlink">
<g id="graph0" class="graph" transform="scale(1 1) rotate(0) translate(4 209)">
<title>exception.ChatbotException.ChatbotExceptionSeverity</title>
<!-- Node1 -->
<g id="Node000001" class="node">
<title>Node1</title>
<g id="a_Node000001"><a xlink:title=" ">
<polygon fill="#999999" stroke="transparent" points="151,-120 0,-120 0,0 151,0 151,-120"/>
<text text-anchor="start" x="5.5" y="-108" font-family="Helvetica,sans-Serif" font-size="10.00">exception.ChatbotException.</text>
<text text-anchor="start" x="12.5" y="-97" font-family="Helvetica,sans-Serif" font-size="10.00">ChatbotExceptionSeverity</text>
<text text-anchor="start" x="24.5" y="-82" font-family="Helvetica,sans-Serif" font-size="10.00">+</text>
<text text-anchor="start" x="57.5" y="-82" font-family="Helvetica,sans-Serif" font-size="10.00">ALERT</text>
<text text-anchor="start" x="24.5" y="-67" font-family="Helvetica,sans-Serif" font-size="10.00">+</text>
<text text-anchor="start" x="57.5" y="-67" font-family="Helvetica,sans-Serif" font-size="10.00">CRITICAL</text>
<text text-anchor="start" x="24.5" y="-52" font-family="Helvetica,sans-Serif" font-size="10.00">+</text>
<text text-anchor="start" x="57.5" y="-52" font-family="Helvetica,sans-Serif" font-size="10.00">DEBUG</text>
<text text-anchor="start" x="24.5" y="-37" font-family="Helvetica,sans-Serif" font-size="10.00">+</text>
<text text-anchor="start" x="57.5" y="-37" font-family="Helvetica,sans-Serif" font-size="10.00">GENERIC</text>
<text text-anchor="start" x="24.5" y="-22" font-family="Helvetica,sans-Serif" font-size="10.00">+</text>
<text text-anchor="start" x="57.5" y="-22" font-family="Helvetica,sans-Serif" font-size="10.00">WARNING</text>
<text text-anchor="start" x="74" y="-7" font-family="Helvetica,sans-Serif" font-size="10.00"> </text>
<polygon fill="#666666" stroke="#666666" points="0.5,-92 0.5,-92 151.5,-92 151.5,-92 0.5,-92"/>
<polygon fill="#666666" stroke="#666666" points="0.5,-17 0.5,-17 55.5,-17 55.5,-17 0.5,-17"/>
<polygon fill="#666666" stroke="#666666" points="55.5,-17 55.5,-17 151.5,-17 151.5,-17 55.5,-17"/>
<polygon fill="none" stroke="#666666" points="0,0 0,-120 151,-120 151,0 0,0"/>
</a>
</g>
</g>
<!-- Node2 -->
<g id="Node000002" class="node">
<title>Node2</title>
<g id="a_Node000002"><a xlink:title=" ">
<polygon fill="white" stroke="transparent" points="94.5,-205 56.5,-205 56.5,-156 94.5,-156 94.5,-205"/>
<text text-anchor="start" x="61.5" y="-192.5" font-family="Helvetica,sans-Serif" font-size="10.00">Enum</text>
<text text-anchor="start" x="73.5" y="-177.5" font-family="Helvetica,sans-Serif" font-size="10.00"> </text>
<text text-anchor="start" x="73.5" y="-162.5" font-family="Helvetica,sans-Serif" font-size="10.00"> </text>
<polygon fill="#666666" stroke="#666666" points="56.5,-187.5 56.5,-187.5 94.5,-187.5 94.5,-187.5 56.5,-187.5"/>
<polygon fill="#666666" stroke="#666666" points="56.5,-172.5 56.5,-172.5 94.5,-172.5 94.5,-172.5 56.5,-172.5"/>
<polygon fill="none" stroke="#666666" points="56.5,-156 56.5,-205 94.5,-205 94.5,-156 56.5,-156"/>
</a>
</g>
</g>
<!-- Node2&#45;&gt;Node1 -->
<g id="edge1_Node000001_Node000002" class="edge">
<title>Node2&#45;&gt;Node1</title>
<g id="a_edge1_Node000001_Node000002"><a xlink:title=" ">
<path fill="none" stroke="#63b8ff" d="M75.5,-145.59C75.5,-137.71 75.5,-129.09 75.5,-120.47"/>
<polygon fill="none" stroke="#63b8ff" points="72,-145.8 75.5,-155.8 79,-145.8 72,-145.8"/>
</a>
</g>
</g>
</g>
</svg>
