<?xml version="1.0" encoding="UTF-8" standalone="no"?>
<!DOCTYPE svg PUBLIC "-//W3C//DTD SVG 1.1//EN"
 "http://www.w3.org/Graphics/SVG/1.1/DTD/svg11.dtd">
<!-- Generated by graphviz version 2.43.0 (0)
 -->
<!-- Title: web_server.WebAppException Pages: 1 -->
<svg width="1014pt" height="491pt"
 viewBox="0.00 0.00 1014.00 491.00" xmlns="http://www.w3.org/2000/svg" xmlns:xlink="http://www.w3.org/1999/xlink">
<g id="graph0" class="graph" transform="scale(1 1) rotate(0) translate(4 487)">
<title>web_server.WebAppException</title>
<!-- Node1 -->
<g id="node1" class="node">
<title>Node1</title>
<g id="a_node1"><a xlink:title=" ">
<polygon fill="#bfbfbf" stroke="black" points="414,-105.5 414,-162.5 578,-162.5 578,-105.5 414,-105.5"/>
<text text-anchor="middle" x="496" y="-150.5" font-family="Helvetica,sans-Serif" font-size="10.00">web_server.WebAppException</text>
<polyline fill="none" stroke="black" points="414,-143.5 578,-143.5 "/>
<text text-anchor="middle" x="496" y="-131.5" font-family="Helvetica,sans-Serif" font-size="10.00"> </text>
<polyline fill="none" stroke="black" points="414,-124.5 578,-124.5 "/>
<text text-anchor="middle" x="496" y="-112.5" font-family="Helvetica,sans-Serif" font-size="10.00"> </text>
</a>
</g>
</g>
<!-- Node4 -->
<g id="node4" class="node">
<title>Node4</title>
<g id="a_node4"><a xlink:href="classweb__server_1_1WebAppConfigurationException.html" target="_top" xlink:title=" ">
<polygon fill="none" stroke="black" points="0,-0.5 0,-68.5 182,-68.5 182,-0.5 0,-0.5"/>
<text text-anchor="start" x="8" y="-56.5" font-family="Helvetica,sans-Serif" font-size="10.00">web_server.WebAppConfiguration</text>
<text text-anchor="middle" x="91" y="-45.5" font-family="Helvetica,sans-Serif" font-size="10.00">Exception</text>
<polyline fill="none" stroke="black" points="0,-38.5 182,-38.5 "/>
<text text-anchor="middle" x="91" y="-26.5" font-family="Helvetica,sans-Serif" font-size="10.00"> </text>
<polyline fill="none" stroke="black" points="0,-19.5 182,-19.5 "/>
<text text-anchor="middle" x="91" y="-7.5" font-family="Helvetica,sans-Serif" font-size="10.00"> </text>
</a>
</g>
</g>
<!-- Node1&#45;&gt;Node4 -->
<g id="edge3" class="edge">
<title>Node1&#45;&gt;Node4</title>
<path fill="none" stroke="midnightblue" d="M403.86,-116.56C343,-105 261.73,-88.2 191,-69 188.08,-68.21 185.13,-67.38 182.15,-66.52"/>
<polygon fill="none" stroke="midnightblue" points="403.35,-120.03 413.83,-118.45 404.65,-113.15 403.35,-120.03"/>
</g>
<!-- Node5 -->
<g id="node5" class="node">
<title>Node5</title>
<g id="a_node5"><a xlink:href="classweb__server_1_1WebAppRunException.html" target="_top" xlink:title=" ">
<polygon fill="none" stroke="black" points="200.5,-6 200.5,-63 383.5,-63 383.5,-6 200.5,-6"/>
<text text-anchor="middle" x="292" y="-51" font-family="Helvetica,sans-Serif" font-size="10.00">web_server.WebAppRunException</text>
<polyline fill="none" stroke="black" points="200.5,-44 383.5,-44 "/>
<text text-anchor="middle" x="292" y="-32" font-family="Helvetica,sans-Serif" font-size="10.00"> </text>
<polyline fill="none" stroke="black" points="200.5,-25 383.5,-25 "/>
<text text-anchor="middle" x="292" y="-13" font-family="Helvetica,sans-Serif" font-size="10.00"> </text>
</a>
</g>
</g>
<!-- Node1&#45;&gt;Node5 -->
<g id="edge4" class="edge">
<title>Node1&#45;&gt;Node5</title>
<path fill="none" stroke="midnightblue" d="M429.09,-101.02C403.49,-88.79 374.54,-74.95 349.85,-63.15"/>
<polygon fill="none" stroke="midnightblue" points="427.83,-104.3 438.36,-105.45 430.85,-97.98 427.83,-104.3"/>
</g>
<!-- Node6 -->
<g id="node6" class="node">
<title>Node6</title>
<g id="a_node6"><a xlink:href="classweb__server_1_1WebAppStartException.html" target="_top" xlink:title=" ">
<polygon fill="none" stroke="black" points="402,-6 402,-63 590,-63 590,-6 402,-6"/>
<text text-anchor="middle" x="496" y="-51" font-family="Helvetica,sans-Serif" font-size="10.00">web_server.WebAppStartException</text>
<polyline fill="none" stroke="black" points="402,-44 590,-44 "/>
<text text-anchor="middle" x="496" y="-32" font-family="Helvetica,sans-Serif" font-size="10.00"> </text>
<polyline fill="none" stroke="black" points="402,-25 590,-25 "/>
<text text-anchor="middle" x="496" y="-13" font-family="Helvetica,sans-Serif" font-size="10.00"> </text>
</a>
</g>
</g>
<!-- Node1&#45;&gt;Node6 -->
<g id="edge5" class="edge">
<title>Node1&#45;&gt;Node6</title>
<path fill="none" stroke="midnightblue" d="M496,-95.04C496,-84.45 496,-73.14 496,-63.25"/>
<polygon fill="none" stroke="midnightblue" points="492.5,-95.32 496,-105.32 499.5,-95.32 492.5,-95.32"/>
</g>
<!-- Node7 -->
<g id="node7" class="node">
<title>Node7</title>
<g id="a_node7"><a xlink:href="classweb__server_1_1WebAppStopException.html" target="_top" xlink:title=" ">
<polygon fill="none" stroke="black" points="608,-6 608,-63 794,-63 794,-6 608,-6"/>
<text text-anchor="middle" x="701" y="-51" font-family="Helvetica,sans-Serif" font-size="10.00">web_server.WebAppStopException</text>
<polyline fill="none" stroke="black" points="608,-44 794,-44 "/>
<text text-anchor="middle" x="701" y="-32" font-family="Helvetica,sans-Serif" font-size="10.00"> </text>
<polyline fill="none" stroke="black" points="608,-25 794,-25 "/>
<text text-anchor="middle" x="701" y="-13" font-family="Helvetica,sans-Serif" font-size="10.00"> </text>
</a>
</g>
</g>
<!-- Node1&#45;&gt;Node7 -->
<g id="edge6" class="edge">
<title>Node1&#45;&gt;Node7</title>
<path fill="none" stroke="midnightblue" d="M563.23,-101.02C588.96,-88.79 618.06,-74.95 642.87,-63.15"/>
<polygon fill="none" stroke="midnightblue" points="561.45,-98 553.92,-105.45 564.46,-104.32 561.45,-98"/>
</g>
<!-- Node8 -->
<g id="node8" class="node">
<title>Node8</title>
<g id="a_node8"><a xlink:href="classweb__server_1_1WebAppVerifyException.html" target="_top" xlink:title=" ">
<polygon fill="none" stroke="black" points="812,-6 812,-63 1006,-63 1006,-6 812,-6"/>
<text text-anchor="middle" x="909" y="-51" font-family="Helvetica,sans-Serif" font-size="10.00">web_server.WebAppVerifyException</text>
<polyline fill="none" stroke="black" points="812,-44 1006,-44 "/>
<text text-anchor="middle" x="909" y="-32" font-family="Helvetica,sans-Serif" font-size="10.00"> </text>
<polyline fill="none" stroke="black" points="812,-25 1006,-25 "/>
<text text-anchor="middle" x="909" y="-13" font-family="Helvetica,sans-Serif" font-size="10.00"> </text>
</a>
</g>
</g>
<!-- Node1&#45;&gt;Node8 -->
<g id="edge7" class="edge">
<title>Node1&#45;&gt;Node8</title>
<path fill="none" stroke="midnightblue" d="M588.32,-116.27C649.57,-104.55 731.53,-87.69 803,-69 810,-67.17 817.23,-65.16 824.46,-63.05"/>
<polygon fill="none" stroke="midnightblue" points="587.46,-112.87 578.29,-118.18 588.77,-119.75 587.46,-112.87"/>
</g>
<!-- Node2 -->
<g id="node2" class="node">
<title>Node2</title>
<g id="a_node2"><a xlink:href="classexception_1_1ChatbotException.html" target="_top" xlink:title=" ">
<polygon fill="none" stroke="black" points="419,-199.5 419,-388.5 573,-388.5 573,-199.5 419,-199.5"/>
<text text-anchor="middle" x="496" y="-376.5" font-family="Helvetica,sans-Serif" font-size="10.00">exception.ChatbotException</text>
<polyline fill="none" stroke="black" points="419,-369.5 573,-369.5 "/>
<text text-anchor="start" x="427" y="-357.5" font-family="Helvetica,sans-Serif" font-size="10.00">+ cause</text>
<text text-anchor="start" x="427" y="-346.5" font-family="Helvetica,sans-Serif" font-size="10.00">+ code</text>
<text text-anchor="start" x="427" y="-335.5" font-family="Helvetica,sans-Serif" font-size="10.00">+ filename</text>
<text text-anchor="start" x="427" y="-324.5" font-family="Helvetica,sans-Serif" font-size="10.00">+ lineno</text>
<text text-anchor="start" x="427" y="-313.5" font-family="Helvetica,sans-Serif" font-size="10.00">+ message</text>
<text text-anchor="start" x="427" y="-302.5" font-family="Helvetica,sans-Serif" font-size="10.00">+ severity</text>
<text text-anchor="start" x="427" y="-291.5" font-family="Helvetica,sans-Serif" font-size="10.00">+ traceback</text>
<text text-anchor="start" x="427" y="-280.5" font-family="Helvetica,sans-Serif" font-size="10.00">+ type</text>
<text text-anchor="start" x="427" y="-269.5" font-family="Helvetica,sans-Serif" font-size="10.00">+ SEVERITY_TO_LOGGING</text>
<polyline fill="none" stroke="black" points="419,-262.5 573,-262.5 "/>
<text text-anchor="start" x="427" y="-250.5" font-family="Helvetica,sans-Serif" font-size="10.00">+ __init__()</text>
<text text-anchor="start" x="427" y="-239.5" font-family="Helvetica,sans-Serif" font-size="10.00">+ __repr__()</text>
<text text-anchor="start" x="427" y="-228.5" font-family="Helvetica,sans-Serif" font-size="10.00">+ __str__()</text>
<text text-anchor="start" x="427" y="-217.5" font-family="Helvetica,sans-Serif" font-size="10.00">+ to_dict()</text>
<text text-anchor="start" x="427" y="-206.5" font-family="Helvetica,sans-Serif" font-size="10.00">+ to_json()</text>
</a>
</g>
</g>
<!-- Node2&#45;&gt;Node1 -->
<g id="edge1" class="edge">
<title>Node2&#45;&gt;Node1</title>
<path fill="none" stroke="midnightblue" d="M496,-189.13C496,-179.56 496,-170.54 496,-162.7"/>
<polygon fill="none" stroke="midnightblue" points="492.5,-189.26 496,-199.26 499.5,-189.26 492.5,-189.26"/>
</g>
<!-- Node3 -->
<g id="node3" class="node">
<title>Node3</title>
<g id="a_node3"><a xlink:title=" ">
<polygon fill="none" stroke="#bfbfbf" points="463.5,-425.5 463.5,-482.5 528.5,-482.5 528.5,-425.5 463.5,-425.5"/>
<text text-anchor="middle" x="496" y="-470.5" font-family="Helvetica,sans-Serif" font-size="10.00">Exception</text>
<polyline fill="none" stroke="#bfbfbf" points="463.5,-463.5 528.5,-463.5 "/>
<text text-anchor="middle" x="496" y="-451.5" font-family="Helvetica,sans-Serif" font-size="10.00"> </text>
<polyline fill="none" stroke="#bfbfbf" points="463.5,-444.5 528.5,-444.5 "/>
<text text-anchor="middle" x="496" y="-432.5" font-family="Helvetica,sans-Serif" font-size="10.00"> </text>
</a>
</g>
</g>
<!-- Node3&#45;&gt;Node2 -->
<g id="edge2" class="edge">
<title>Node3&#45;&gt;Node2</title>
<path fill="none" stroke="midnightblue" d="M496,-415.22C496,-407.01 496,-397.99 496,-388.68"/>
<polygon fill="none" stroke="midnightblue" points="492.5,-415.48 496,-425.48 499.5,-415.48 492.5,-415.48"/>
</g>
</g>
</svg>
