<?xml version="1.0" encoding="UTF-8" standalone="no"?>
<!DOCTYPE svg PUBLIC "-//W3C//DTD SVG 1.1//EN"
 "http://www.w3.org/Graphics/SVG/1.1/DTD/svg11.dtd">
<!-- Generated by graphviz version 2.43.0 (0)
 -->
<!-- Title: bot.Bot.__del__ Pages: 1 -->
<svg width="274pt" height="101pt"
 viewBox="0.00 0.00 274.00 101.00" xmlns="http://www.w3.org/2000/svg" xmlns:xlink="http://www.w3.org/1999/xlink">
<g id="graph0" class="graph" transform="scale(1 1) rotate(0) translate(4 97)">
<title>bot.Bot.__del__</title>
<!-- Node1 -->
<g id="Node000001" class="node">
<title>Node1</title>
<g id="a_Node000001"><a xlink:title=" ">
<polygon fill="#999999" stroke="#666666" points="91,-56 0,-56 0,-37 91,-37 91,-56"/>
<text text-anchor="middle" x="45.5" y="-44" font-family="Helvetica,sans-Serif" font-size="10.00">bot.Bot.__del__</text>
</a>
</g>
</g>
<!-- Node2 -->
<g id="Node000002" class="node">
<title>Node2</title>
<g id="a_Node000002"><a xlink:href="classbot_1_1Bot.html#aece457b53f85db00c751aa0eff611e81" target="_top" xlink:title=" ">
<polygon fill="white" stroke="#666666" points="234.5,-93 158.5,-93 158.5,-74 234.5,-74 234.5,-93"/>
<text text-anchor="middle" x="196.5" y="-81" font-family="Helvetica,sans-Serif" font-size="10.00">bot.Bot.stop</text>
</a>
</g>
</g>
<!-- Node1&#45;&gt;Node2 -->
<g id="edge1_Node000001_Node000002" class="edge">
<title>Node1&#45;&gt;Node2</title>
<g id="a_edge1_Node000001_Node000002"><a xlink:title=" ">
<path fill="none" stroke="#63b8ff" d="M84.87,-56.03C104.29,-60.85 128.02,-66.74 148.52,-71.83"/>
<polygon fill="#63b8ff" stroke="#63b8ff" points="147.74,-75.25 158.29,-74.26 149.43,-68.45 147.74,-75.25"/>
</a>
</g>
</g>
<!-- Node3 -->
<g id="Node000003" class="node">
<title>Node3</title>
<g id="a_Node000003"><a xlink:href="classbot_1_1BotManager.html#a640250be5ea91bbcff56e533e416b1c0" target="_top" xlink:title=" ">
<polygon fill="white" stroke="#666666" points="255.5,-56 137.5,-56 137.5,-37 255.5,-37 255.5,-56"/>
<text text-anchor="middle" x="196.5" y="-44" font-family="Helvetica,sans-Serif" font-size="10.00">bot.BotManager.stop</text>
</a>
</g>
</g>
<!-- Node1&#45;&gt;Node3 -->
<g id="edge2_Node000001_Node000003" class="edge">
<title>Node1&#45;&gt;Node3</title>
<g id="a_edge2_Node000001_Node000003"><a xlink:title=" ">
<path fill="none" stroke="#63b8ff" d="M91.2,-46.5C102.52,-46.5 114.94,-46.5 127.13,-46.5"/>
<polygon fill="#63b8ff" stroke="#63b8ff" points="127.3,-50 137.3,-46.5 127.3,-43 127.3,-50"/>
</a>
</g>
</g>
<!-- Node4 -->
<g id="Node000004" class="node">
<title>Node4</title>
<g id="a_Node000004"><a xlink:href="classweb__server_1_1WebApp.html#ad0b330da0dc4521360db9cf1132aff39" target="_top" xlink:title=" ">
<polygon fill="white" stroke="#666666" points="266,-19 127,-19 127,0 266,0 266,-19"/>
<text text-anchor="middle" x="196.5" y="-7" font-family="Helvetica,sans-Serif" font-size="10.00">web_server.WebApp.stop</text>
</a>
</g>
</g>
<!-- Node1&#45;&gt;Node4 -->
<g id="edge3_Node000001_Node000004" class="edge">
<title>Node1&#45;&gt;Node4</title>
<g id="a_edge3_Node000001_Node000004"><a xlink:title=" ">
<path fill="none" stroke="#63b8ff" d="M84.87,-36.97C103.83,-32.26 126.9,-26.53 147.06,-21.53"/>
<polygon fill="#63b8ff" stroke="#63b8ff" points="148.14,-24.87 157,-19.06 146.45,-18.07 148.14,-24.87"/>
</a>
</g>
</g>
</g>
</svg>
