<?xml version="1.0" encoding="UTF-8" standalone="no"?>
<!DOCTYPE svg PUBLIC "-//W3C//DTD SVG 1.1//EN"
 "http://www.w3.org/Graphics/SVG/1.1/DTD/svg11.dtd">
<!-- Generated by graphviz version 2.43.0 (0)
 -->
<!-- Title: bot.BotQueuedMessageInvalidException Pages: 1 -->
<svg width="258pt" height="739pt"
 viewBox="0.00 0.00 258.00 739.00" xmlns="http://www.w3.org/2000/svg" xmlns:xlink="http://www.w3.org/1999/xlink">
<g id="graph0" class="graph" transform="scale(1 1) rotate(0) translate(4 735)">
<title>bot.BotQueuedMessageInvalidException</title>
<!-- Node1 -->
<g id="Node000001" class="node">
<title>Node1</title>
<g id="a_Node000001"><a xlink:title=" ">
<polygon fill="#999999" stroke="transparent" points="205,-60 45,-60 45,0 205,0 205,-60"/>
<text text-anchor="start" x="50" y="-48" font-family="Helvetica,sans-Serif" font-size="10.00">bot.BotQueuedMessageInvalid</text>
<text text-anchor="start" x="100.5" y="-37" font-family="Helvetica,sans-Serif" font-size="10.00">Exception</text>
<text text-anchor="start" x="123" y="-22" font-family="Helvetica,sans-Serif" font-size="10.00"> </text>
<text text-anchor="start" x="123" y="-7" font-family="Helvetica,sans-Serif" font-size="10.00"> </text>
<polygon fill="#666666" stroke="#666666" points="45,-32 45,-32 205,-32 205,-32 45,-32"/>
<polygon fill="#666666" stroke="#666666" points="45,-17 45,-17 205,-17 205,-17 45,-17"/>
<polygon fill="none" stroke="#666666" points="45,0 45,-60 205,-60 205,0 45,0"/>
</a>
</g>
</g>
<!-- Node2 -->
<g id="Node000002" class="node">
<title>Node2</title>
<g id="a_Node000002"><a xlink:href="classbot_1_1BotQueuedMessageException.html" target="_top" xlink:title=" ">
<polygon fill="white" stroke="transparent" points="212.5,-145 37.5,-145 37.5,-96 212.5,-96 212.5,-145"/>
<text text-anchor="start" x="43" y="-132.5" font-family="Helvetica,sans-Serif" font-size="10.00">bot.BotQueuedMessageException</text>
<text text-anchor="start" x="123.5" y="-117.5" font-family="Helvetica,sans-Serif" font-size="10.00"> </text>
<text text-anchor="start" x="123.5" y="-102.5" font-family="Helvetica,sans-Serif" font-size="10.00"> </text>
<polygon fill="#666666" stroke="#666666" points="38,-127.5 38,-127.5 213,-127.5 213,-127.5 38,-127.5"/>
<polygon fill="#666666" stroke="#666666" points="38,-112.5 38,-112.5 213,-112.5 213,-112.5 38,-112.5"/>
<polygon fill="none" stroke="#666666" points="37.5,-96 37.5,-145 212.5,-145 212.5,-96 37.5,-96"/>
</a>
</g>
</g>
<!-- Node2&#45;&gt;Node1 -->
<g id="edge1_Node000001_Node000002" class="edge">
<title>Node2&#45;&gt;Node1</title>
<g id="a_edge1_Node000001_Node000002"><a xlink:title=" ">
<path fill="none" stroke="#63b8ff" d="M125,-85.55C125,-77.18 125,-68.28 125,-60.16"/>
<polygon fill="none" stroke="#63b8ff" points="121.5,-85.78 125,-95.78 128.5,-85.78 121.5,-85.78"/>
</a>
</g>
</g>
<!-- Node3 -->
<g id="Node000003" class="node">
<title>Node3</title>
<g id="a_Node000003"><a xlink:href="classbot_1_1BotMessageException.html" target="_top" xlink:title=" ">
<polygon fill="white" stroke="transparent" points="193.5,-230 56.5,-230 56.5,-181 193.5,-181 193.5,-230"/>
<text text-anchor="start" x="62" y="-217.5" font-family="Helvetica,sans-Serif" font-size="10.00">bot.BotMessageException</text>
<text text-anchor="start" x="123.5" y="-202.5" font-family="Helvetica,sans-Serif" font-size="10.00"> </text>
<text text-anchor="start" x="123.5" y="-187.5" font-family="Helvetica,sans-Serif" font-size="10.00"> </text>
<polygon fill="#666666" stroke="#666666" points="57,-212.5 57,-212.5 194,-212.5 194,-212.5 57,-212.5"/>
<polygon fill="#666666" stroke="#666666" points="57,-197.5 57,-197.5 194,-197.5 194,-197.5 57,-197.5"/>
<polygon fill="none" stroke="#666666" points="56.5,-181 56.5,-230 193.5,-230 193.5,-181 56.5,-181"/>
</a>
</g>
</g>
<!-- Node3&#45;&gt;Node2 -->
<g id="edge2_Node000002_Node000003" class="edge">
<title>Node3&#45;&gt;Node2</title>
<g id="a_edge2_Node000002_Node000003"><a xlink:title=" ">
<path fill="none" stroke="#63b8ff" d="M125,-170.77C125,-162.17 125,-153.1 125,-145.12"/>
<polygon fill="none" stroke="#63b8ff" points="121.5,-170.94 125,-180.94 128.5,-170.94 121.5,-170.94"/>
</a>
</g>
</g>
<!-- Node4 -->
<g id="Node000004" class="node">
<title>Node4</title>
<g id="a_Node000004"><a xlink:href="classbot_1_1BotException.html" target="_top" xlink:title=" ">
<polygon fill="white" stroke="transparent" points="172,-315 78,-315 78,-266 172,-266 172,-315"/>
<text text-anchor="start" x="83" y="-302.5" font-family="Helvetica,sans-Serif" font-size="10.00">bot.BotException</text>
<text text-anchor="start" x="123" y="-287.5" font-family="Helvetica,sans-Serif" font-size="10.00"> </text>
<text text-anchor="start" x="123" y="-272.5" font-family="Helvetica,sans-Serif" font-size="10.00"> </text>
<polygon fill="#666666" stroke="#666666" points="78,-297.5 78,-297.5 172,-297.5 172,-297.5 78,-297.5"/>
<polygon fill="#666666" stroke="#666666" points="78,-282.5 78,-282.5 172,-282.5 172,-282.5 78,-282.5"/>
<polygon fill="none" stroke="#666666" points="78,-266 78,-315 172,-315 172,-266 78,-266"/>
</a>
</g>
</g>
<!-- Node4&#45;&gt;Node3 -->
<g id="edge3_Node000003_Node000004" class="edge">
<title>Node4&#45;&gt;Node3</title>
<g id="a_edge3_Node000003_Node000004"><a xlink:title=" ">
<path fill="none" stroke="#63b8ff" d="M125,-255.77C125,-247.17 125,-238.1 125,-230.12"/>
<polygon fill="none" stroke="#63b8ff" points="121.5,-255.94 125,-265.94 128.5,-255.94 121.5,-255.94"/>
</a>
</g>
</g>
<!-- Node5 -->
<g id="Node000005" class="node">
<title>Node5</title>
<g id="a_Node000005"><a xlink:href="classexception_1_1ChatbotException.html" target="_top" xlink:title=" ">
<polygon fill="white" stroke="transparent" points="250,-646 0,-646 0,-351 250,-351 250,-646"/>
<text text-anchor="start" x="56" y="-633.5" font-family="Helvetica,sans-Serif" font-size="10.00">exception.ChatbotException</text>
<text text-anchor="start" x="4" y="-618.5" font-family="Helvetica,sans-Serif" font-size="10.00">+</text>
<text text-anchor="start" x="17" y="-618.5" font-family="Helvetica,sans-Serif" font-size="10.00">cause</text>
<text text-anchor="start" x="4" y="-603.5" font-family="Helvetica,sans-Serif" font-size="10.00">+</text>
<text text-anchor="start" x="17" y="-603.5" font-family="Helvetica,sans-Serif" font-size="10.00">code</text>
<text text-anchor="start" x="4" y="-588.5" font-family="Helvetica,sans-Serif" font-size="10.00">+</text>
<text text-anchor="start" x="17" y="-588.5" font-family="Helvetica,sans-Serif" font-size="10.00">filename</text>
<text text-anchor="start" x="4" y="-573.5" font-family="Helvetica,sans-Serif" font-size="10.00">+</text>
<text text-anchor="start" x="17" y="-573.5" font-family="Helvetica,sans-Serif" font-size="10.00">lineno</text>
<text text-anchor="start" x="4" y="-558.5" font-family="Helvetica,sans-Serif" font-size="10.00">+</text>
<text text-anchor="start" x="17" y="-558.5" font-family="Helvetica,sans-Serif" font-size="10.00">message</text>
<text text-anchor="start" x="4" y="-543.5" font-family="Helvetica,sans-Serif" font-size="10.00">+</text>
<text text-anchor="start" x="17" y="-543.5" font-family="Helvetica,sans-Serif" font-size="10.00">severity</text>
<text text-anchor="start" x="4" y="-528.5" font-family="Helvetica,sans-Serif" font-size="10.00">+</text>
<text text-anchor="start" x="17" y="-528.5" font-family="Helvetica,sans-Serif" font-size="10.00">traceback</text>
<text text-anchor="start" x="4" y="-513.5" font-family="Helvetica,sans-Serif" font-size="10.00">+</text>
<text text-anchor="start" x="17" y="-513.5" font-family="Helvetica,sans-Serif" font-size="10.00">type</text>
<text text-anchor="start" x="4" y="-498.5" font-family="Helvetica,sans-Serif" font-size="10.00">+</text>
<text text-anchor="start" x="17" y="-498.5" font-family="Helvetica,sans-Serif" font-size="10.00">SEVERITY_TO_LOGGING</text>
<text text-anchor="start" x="4" y="-483.5" font-family="Helvetica,sans-Serif" font-size="10.00">+</text>
<text text-anchor="start" x="17" y="-483.5" font-family="Helvetica,sans-Serif" font-size="10.00">__init__(self, &quot;Chatbot</text>
<text text-anchor="start" x="17" y="-472.5" font-family="Helvetica,sans-Serif" font-size="10.00">Exception.ChatbotExceptionCode&quot;</text>
<text text-anchor="start" x="17" y="-461.5" font-family="Helvetica,sans-Serif" font-size="10.00"> code=None, str message=None,</text>
<text text-anchor="start" x="17" y="-450.5" font-family="Helvetica,sans-Serif" font-size="10.00"> &quot;ChatbotException.ChatbotExceptionSeverity&quot;</text>
<text text-anchor="start" x="17" y="-439.5" font-family="Helvetica,sans-Serif" font-size="10.00"> severity=None, str filename=None, int</text>
<text text-anchor="start" x="17" y="-428.5" font-family="Helvetica,sans-Serif" font-size="10.00"> lineno=None, Exception cause=None, bool</text>
<text text-anchor="start" x="17" y="-417.5" font-family="Helvetica,sans-Serif" font-size="10.00"> include_trace=True)</text>
<text text-anchor="start" x="4" y="-402.5" font-family="Helvetica,sans-Serif" font-size="10.00">+</text>
<text text-anchor="start" x="17" y="-402.5" font-family="Helvetica,sans-Serif" font-size="10.00">__repr__(self)</text>
<text text-anchor="start" x="4" y="-387.5" font-family="Helvetica,sans-Serif" font-size="10.00">+</text>
<text text-anchor="start" x="17" y="-387.5" font-family="Helvetica,sans-Serif" font-size="10.00">__str__(self)</text>
<text text-anchor="start" x="4" y="-372.5" font-family="Helvetica,sans-Serif" font-size="10.00">+</text>
<text text-anchor="start" x="17" y="-372.5" font-family="Helvetica,sans-Serif" font-size="10.00">to_dict(self)</text>
<text text-anchor="start" x="4" y="-357.5" font-family="Helvetica,sans-Serif" font-size="10.00">+</text>
<text text-anchor="start" x="17" y="-357.5" font-family="Helvetica,sans-Serif" font-size="10.00">to_json(self)</text>
<polygon fill="#666666" stroke="#666666" points="0,-628.5 0,-628.5 250,-628.5 250,-628.5 0,-628.5"/>
<polygon fill="#666666" stroke="#666666" points="0,-493.5 0,-493.5 15,-493.5 15,-493.5 0,-493.5"/>
<polygon fill="#666666" stroke="#666666" points="15,-493.5 15,-493.5 250,-493.5 250,-493.5 15,-493.5"/>
<polygon fill="none" stroke="#666666" points="0,-351 0,-646 250,-646 250,-351 0,-351"/>
</a>
</g>
</g>
<!-- Node5&#45;&gt;Node4 -->
<g id="edge4_Node000004_Node000005" class="edge">
<title>Node5&#45;&gt;Node4</title>
<g id="a_edge4_Node000004_Node000005"><a xlink:title=" ">
<path fill="none" stroke="#63b8ff" d="M125,-340.58C125,-331.04 125,-322.35 125,-315.04"/>
<polygon fill="none" stroke="#63b8ff" points="121.5,-340.81 125,-350.81 128.5,-340.81 121.5,-340.81"/>
</a>
</g>
</g>
<!-- Node6 -->
<g id="Node000006" class="node">
<title>Node6</title>
<g id="a_Node000006"><a xlink:title=" ">
<polygon fill="white" stroke="transparent" points="154.5,-731 95.5,-731 95.5,-682 154.5,-682 154.5,-731"/>
<text text-anchor="start" x="101" y="-718.5" font-family="Helvetica,sans-Serif" font-size="10.00">Exception</text>
<text text-anchor="start" x="123.5" y="-703.5" font-family="Helvetica,sans-Serif" font-size="10.00"> </text>
<text text-anchor="start" x="123.5" y="-688.5" font-family="Helvetica,sans-Serif" font-size="10.00"> </text>
<polygon fill="#666666" stroke="#666666" points="96,-713.5 96,-713.5 155,-713.5 155,-713.5 96,-713.5"/>
<polygon fill="#666666" stroke="#666666" points="96,-698.5 96,-698.5 155,-698.5 155,-698.5 96,-698.5"/>
<polygon fill="none" stroke="#666666" points="95.5,-682 95.5,-731 154.5,-731 154.5,-682 95.5,-682"/>
</a>
</g>
</g>
<!-- Node6&#45;&gt;Node5 -->
<g id="edge5_Node000005_Node000006" class="edge">
<title>Node6&#45;&gt;Node5</title>
<g id="a_edge5_Node000005_Node000006"><a xlink:title=" ">
<path fill="none" stroke="#63b8ff" d="M125,-671.71C125,-664.05 125,-655.44 125,-646.26"/>
<polygon fill="none" stroke="#63b8ff" points="121.5,-671.87 125,-681.87 128.5,-671.87 121.5,-671.87"/>
</a>
</g>
</g>
</g>
</svg>
