<?xml version="1.0" encoding="UTF-8" standalone="no"?>
<!DOCTYPE svg PUBLIC "-//W3C//DTD SVG 1.1//EN"
 "http://www.w3.org/Graphics/SVG/1.1/DTD/svg11.dtd">
<!-- Generated by graphviz version 2.43.0 (0)
 -->
<!-- Title: configurator.Configurator.configure Pages: 1 -->
<svg width="795pt" height="129pt"
 viewBox="0.00 0.00 795.00 129.00" xmlns="http://www.w3.org/2000/svg" xmlns:xlink="http://www.w3.org/1999/xlink">
<g id="graph0" class="graph" transform="scale(1 1) rotate(0) translate(4 125)">
<title>configurator.Configurator.configure</title>
<!-- Node1 -->
<g id="Node000001" class="node">
<title>Node1</title>
<g id="a_Node000001"><a xlink:title=" ">
<polygon fill="#999999" stroke="#666666" points="185,-72.5 0,-72.5 0,-53.5 185,-53.5 185,-72.5"/>
<text text-anchor="middle" x="92.5" y="-60.5" font-family="Helvetica,sans-Serif" font-size="10.00">configurator.Configurator.configure</text>
</a>
</g>
</g>
<!-- Node2 -->
<g id="Node000002" class="node">
<title>Node2</title>
<g id="a_Node000002"><a xlink:href="classconfigurator_1_1Configurator.html#a606d6215f18570c8b6c305633e56d03a" target="_top" xlink:title=" ">
<polygon fill="white" stroke="#666666" points="585.5,-121 430.5,-121 430.5,-91 585.5,-91 585.5,-121"/>
<text text-anchor="start" x="438.5" y="-109" font-family="Helvetica,sans-Serif" font-size="10.00">configurator.Configurator.set</text>
<text text-anchor="middle" x="508" y="-98" font-family="Helvetica,sans-Serif" font-size="10.00">_telegram_webhook</text>
</a>
</g>
</g>
<!-- Node1&#45;&gt;Node2 -->
<g id="edge1_Node000001_Node000002" class="edge">
<title>Node1&#45;&gt;Node2</title>
<g id="a_edge1_Node000001_Node000002"><a xlink:title=" ">
<path fill="none" stroke="#63b8ff" d="M136.96,-72.52C161.52,-77.56 192.85,-83.43 221,-87 287.6,-95.45 363.42,-100.27 420.26,-102.94"/>
<polygon fill="#63b8ff" stroke="#63b8ff" points="420.14,-106.44 430.29,-103.4 420.46,-99.44 420.14,-106.44"/>
</a>
</g>
</g>
<!-- Node4 -->
<g id="Node000004" class="node">
<title>Node4</title>
<g id="a_Node000004"><a xlink:href="classconfigurator_1_1Configurator.html#a7d2d4f9f2c0ce3910d53e5748d92cbe9" target="_top" xlink:title=" ">
<polygon fill="white" stroke="#666666" points="385.5,-78 223.5,-78 223.5,-48 385.5,-48 385.5,-78"/>
<text text-anchor="start" x="231.5" y="-66" font-family="Helvetica,sans-Serif" font-size="10.00">configurator.Configurator.start</text>
<text text-anchor="middle" x="304.5" y="-55" font-family="Helvetica,sans-Serif" font-size="10.00">_ngrok</text>
</a>
</g>
</g>
<!-- Node1&#45;&gt;Node4 -->
<g id="edge3_Node000001_Node000004" class="edge">
<title>Node1&#45;&gt;Node4</title>
<g id="a_edge3_Node000001_Node000004"><a xlink:title=" ">
<path fill="none" stroke="#63b8ff" d="M185.3,-63C194.62,-63 204.09,-63 213.39,-63"/>
<polygon fill="#63b8ff" stroke="#63b8ff" points="213.41,-66.5 223.41,-63 213.41,-59.5 213.41,-66.5"/>
</a>
</g>
</g>
<!-- Node5 -->
<g id="Node000005" class="node">
<title>Node5</title>
<g id="a_Node000005"><a xlink:href="classconfigurator_1_1Configurator.html#aed68704c19cba14d0f2fa93933a3bcb4" target="_top" xlink:title=" ">
<polygon fill="white" stroke="#666666" points="388,-30 221,-30 221,0 388,0 388,-30"/>
<text text-anchor="start" x="229" y="-18" font-family="Helvetica,sans-Serif" font-size="10.00">configurator.Configurator.verify</text>
<text text-anchor="middle" x="304.5" y="-7" font-family="Helvetica,sans-Serif" font-size="10.00">_ngrok</text>
</a>
</g>
</g>
<!-- Node1&#45;&gt;Node5 -->
<g id="edge5_Node000001_Node000005" class="edge">
<title>Node1&#45;&gt;Node5</title>
<g id="a_edge5_Node000001_Node000005"><a xlink:title=" ">
<path fill="none" stroke="#63b8ff" d="M135.24,-53.46C161.68,-47.42 196.66,-39.42 227.87,-32.29"/>
<polygon fill="#63b8ff" stroke="#63b8ff" points="228.89,-35.64 237.86,-30 227.33,-28.82 228.89,-35.64"/>
</a>
</g>
</g>
<!-- Node3 -->
<g id="Node000003" class="node">
<title>Node3</title>
<g id="a_Node000003"><a xlink:href="classconfigurator_1_1Configurator.html#a30f64780800ae92589cc2951388984dd" target="_top" xlink:title=" ">
<polygon fill="white" stroke="#666666" points="787,-78 628,-78 628,-48 787,-48 787,-78"/>
<text text-anchor="start" x="636" y="-66" font-family="Helvetica,sans-Serif" font-size="10.00">configurator.Configurator.http</text>
<text text-anchor="middle" x="707.5" y="-55" font-family="Helvetica,sans-Serif" font-size="10.00">_request_with_retry</text>
</a>
</g>
</g>
<!-- Node2&#45;&gt;Node3 -->
<g id="edge2_Node000002_Node000003" class="edge">
<title>Node2&#45;&gt;Node3</title>
<g id="a_edge2_Node000002_Node000003"><a xlink:title=" ">
<path fill="none" stroke="#63b8ff" d="M578.08,-90.96C594.01,-87.49 611.09,-83.77 627.41,-80.22"/>
<polygon fill="#63b8ff" stroke="#63b8ff" points="628.44,-83.58 637.46,-78.03 626.95,-76.74 628.44,-83.58"/>
</a>
</g>
</g>
<!-- Node4&#45;&gt;Node3 -->
<g id="edge4_Node000004_Node000003" class="edge">
<title>Node4&#45;&gt;Node3</title>
<g id="a_edge4_Node000004_Node000003"><a xlink:title=" ">
<path fill="none" stroke="#63b8ff" d="M385.68,-63C452.78,-63 548.4,-63 617.78,-63"/>
<polygon fill="#63b8ff" stroke="#63b8ff" points="617.82,-66.5 627.82,-63 617.82,-59.5 617.82,-66.5"/>
</a>
</g>
</g>
<!-- Node6 -->
<g id="Node000006" class="node">
<title>Node6</title>
<g id="a_Node000006"><a xlink:href="classconfigurator_1_1Configurator.html#aa06514ca8386fc8b9b9a2662d47d8b90" target="_top" xlink:title=" ">
<polygon fill="white" stroke="#666666" points="592,-33 424,-33 424,-3 592,-3 592,-33"/>
<text text-anchor="start" x="432" y="-21" font-family="Helvetica,sans-Serif" font-size="10.00">configurator.Configurator.check</text>
<text text-anchor="middle" x="508" y="-10" font-family="Helvetica,sans-Serif" font-size="10.00">_ngrok</text>
</a>
</g>
</g>
<!-- Node5&#45;&gt;Node6 -->
<g id="edge6_Node000005_Node000006" class="edge">
<title>Node5&#45;&gt;Node6</title>
<g id="a_edge6_Node000005_Node000006"><a xlink:title=" ">
<path fill="none" stroke="#63b8ff" d="M388.04,-16.23C396.55,-16.36 405.25,-16.49 413.87,-16.61"/>
<polygon fill="#63b8ff" stroke="#63b8ff" points="413.89,-20.11 423.94,-16.76 413.99,-13.11 413.89,-20.11"/>
</a>
</g>
</g>
<!-- Node6&#45;&gt;Node3 -->
<g id="edge7_Node000006_Node000003" class="edge">
<title>Node6&#45;&gt;Node3</title>
<g id="a_edge7_Node000006_Node000003"><a xlink:title=" ">
<path fill="none" stroke="#63b8ff" d="M575.04,-33.05C592.91,-37.12 612.39,-41.56 630.75,-45.74"/>
<polygon fill="#63b8ff" stroke="#63b8ff" points="630,-49.16 640.52,-47.97 631.55,-42.33 630,-49.16"/>
</a>
</g>
</g>
</g>
</svg>
