<?xml version="1.0" encoding="UTF-8" standalone="no"?>
<!DOCTYPE svg PUBLIC "-//W3C//DTD SVG 1.1//EN"
 "http://www.w3.org/Graphics/SVG/1.1/DTD/svg11.dtd">
<!-- Generated by graphviz version 2.43.0 (0)
 -->
<!-- Title: bot.Bot Pages: 1 -->
<svg width="368pt" height="402pt"
 viewBox="0.00 0.00 368.00 402.00" xmlns="http://www.w3.org/2000/svg" xmlns:xlink="http://www.w3.org/1999/xlink">
<g id="graph0" class="graph" transform="scale(1 1) rotate(0) translate(4 398)">
<title>bot.Bot</title>
<!-- Node1 -->
<g id="node1" class="node">
<title>Node1</title>
<g id="a_node1"><a xlink:title=" ">
<polygon fill="#bfbfbf" stroke="black" points="97.5,-105.5 97.5,-393.5 262.5,-393.5 262.5,-105.5 97.5,-105.5"/>
<text text-anchor="middle" x="180" y="-381.5" font-family="Helvetica,sans-Serif" font-size="10.00">bot.Bot</text>
<polyline fill="none" stroke="black" points="97.5,-374.5 262.5,-374.5 "/>
<text text-anchor="start" x="105.5" y="-362.5" font-family="Helvetica,sans-Serif" font-size="10.00">+ bot_logger</text>
<text text-anchor="start" x="105.5" y="-351.5" font-family="Helvetica,sans-Serif" font-size="10.00">+ bot_stop_event</text>
<text text-anchor="start" x="105.5" y="-340.5" font-family="Helvetica,sans-Serif" font-size="10.00">+ consumer_in_thread</text>
<text text-anchor="start" x="105.5" y="-329.5" font-family="Helvetica,sans-Serif" font-size="10.00">+ consumer_out_thread</text>
<text text-anchor="start" x="105.5" y="-318.5" font-family="Helvetica,sans-Serif" font-size="10.00">+ id</text>
<text text-anchor="start" x="105.5" y="-307.5" font-family="Helvetica,sans-Serif" font-size="10.00">+ incoming_messages</text>
<text text-anchor="start" x="105.5" y="-296.5" font-family="Helvetica,sans-Serif" font-size="10.00">+ on_incoming_message</text>
<text text-anchor="start" x="105.5" y="-285.5" font-family="Helvetica,sans-Serif" font-size="10.00">+ on_outgoing_message</text>
<text text-anchor="start" x="105.5" y="-274.5" font-family="Helvetica,sans-Serif" font-size="10.00">+ outgoing_messages</text>
<text text-anchor="start" x="105.5" y="-263.5" font-family="Helvetica,sans-Serif" font-size="10.00">+ str</text>
<polyline fill="none" stroke="black" points="97.5,-256.5 262.5,-256.5 "/>
<text text-anchor="start" x="105.5" y="-244.5" font-family="Helvetica,sans-Serif" font-size="10.00">+ __del__()</text>
<text text-anchor="start" x="105.5" y="-233.5" font-family="Helvetica,sans-Serif" font-size="10.00">+ __init__()</text>
<text text-anchor="start" x="105.5" y="-222.5" font-family="Helvetica,sans-Serif" font-size="10.00">+ alive()</text>
<text text-anchor="start" x="105.5" y="-211.5" font-family="Helvetica,sans-Serif" font-size="10.00">+ consume_incoming_queue()</text>
<text text-anchor="start" x="105.5" y="-200.5" font-family="Helvetica,sans-Serif" font-size="10.00">+ consume_outgoing_queue()</text>
<text text-anchor="start" x="105.5" y="-189.5" font-family="Helvetica,sans-Serif" font-size="10.00">+ deserialize()</text>
<text text-anchor="start" x="105.5" y="-178.5" font-family="Helvetica,sans-Serif" font-size="10.00">+ http_check()</text>
<text text-anchor="start" x="105.5" y="-167.5" font-family="Helvetica,sans-Serif" font-size="10.00">+ is_running()</text>
<text text-anchor="start" x="105.5" y="-156.5" font-family="Helvetica,sans-Serif" font-size="10.00">+ receive_message()</text>
<text text-anchor="start" x="105.5" y="-145.5" font-family="Helvetica,sans-Serif" font-size="10.00">+ send_message()</text>
<text text-anchor="start" x="105.5" y="-134.5" font-family="Helvetica,sans-Serif" font-size="10.00">+ serialize()</text>
<text text-anchor="start" x="105.5" y="-123.5" font-family="Helvetica,sans-Serif" font-size="10.00">+ start()</text>
<text text-anchor="start" x="105.5" y="-112.5" font-family="Helvetica,sans-Serif" font-size="10.00">+ stop()</text>
</a>
</g>
</g>
<!-- Node2 -->
<g id="node2" class="node">
<title>Node2</title>
<g id="a_node2"><a xlink:href="classbot_1_1FacebookBot.html" target="_top" xlink:title=" ">
<polygon fill="none" stroke="black" points="0,-0.5 0,-68.5 108,-68.5 108,-0.5 0,-0.5"/>
<text text-anchor="middle" x="54" y="-56.5" font-family="Helvetica,sans-Serif" font-size="10.00">bot.FacebookBot</text>
<polyline fill="none" stroke="black" points="0,-49.5 108,-49.5 "/>
<text text-anchor="middle" x="54" y="-37.5" font-family="Helvetica,sans-Serif" font-size="10.00"> </text>
<polyline fill="none" stroke="black" points="0,-30.5 108,-30.5 "/>
<text text-anchor="start" x="8" y="-18.5" font-family="Helvetica,sans-Serif" font-size="10.00">+ __init__()</text>
<text text-anchor="start" x="8" y="-7.5" font-family="Helvetica,sans-Serif" font-size="10.00">+ send_message()</text>
</a>
</g>
</g>
<!-- Node1&#45;&gt;Node2 -->
<g id="edge1" class="edge">
<title>Node1&#45;&gt;Node2</title>
<path fill="none" stroke="midnightblue" d="M92.12,-99.95C85.38,-88.55 79.09,-77.91 73.64,-68.7"/>
<polygon fill="none" stroke="midnightblue" points="89.26,-101.98 97.36,-108.8 95.28,-98.41 89.26,-101.98"/>
</g>
<!-- Node3 -->
<g id="node3" class="node">
<title>Node3</title>
<g id="a_node3"><a xlink:href="classbot_1_1TelegramBot.html" target="_top" xlink:title=" ">
<polygon fill="none" stroke="black" points="126,-0.5 126,-68.5 234,-68.5 234,-0.5 126,-0.5"/>
<text text-anchor="middle" x="180" y="-56.5" font-family="Helvetica,sans-Serif" font-size="10.00">bot.TelegramBot</text>
<polyline fill="none" stroke="black" points="126,-49.5 234,-49.5 "/>
<text text-anchor="middle" x="180" y="-37.5" font-family="Helvetica,sans-Serif" font-size="10.00"> </text>
<polyline fill="none" stroke="black" points="126,-30.5 234,-30.5 "/>
<text text-anchor="start" x="134" y="-18.5" font-family="Helvetica,sans-Serif" font-size="10.00">+ __init__()</text>
<text text-anchor="start" x="134" y="-7.5" font-family="Helvetica,sans-Serif" font-size="10.00">+ send_message()</text>
</a>
</g>
</g>
<!-- Node1&#45;&gt;Node3 -->
<g id="edge2" class="edge">
<title>Node1&#45;&gt;Node3</title>
<path fill="none" stroke="midnightblue" d="M180,-95.08C180,-85.52 180,-76.6 180,-68.72"/>
<polygon fill="none" stroke="midnightblue" points="176.5,-95.24 180,-105.24 183.5,-95.24 176.5,-95.24"/>
</g>
<!-- Node4 -->
<g id="node4" class="node">
<title>Node4</title>
<g id="a_node4"><a xlink:href="classbot_1_1WhatsappBot.html" target="_top" xlink:title=" ">
<polygon fill="none" stroke="black" points="252,-0.5 252,-68.5 360,-68.5 360,-0.5 252,-0.5"/>
<text text-anchor="middle" x="306" y="-56.5" font-family="Helvetica,sans-Serif" font-size="10.00">bot.WhatsappBot</text>
<polyline fill="none" stroke="black" points="252,-49.5 360,-49.5 "/>
<text text-anchor="middle" x="306" y="-37.5" font-family="Helvetica,sans-Serif" font-size="10.00"> </text>
<polyline fill="none" stroke="black" points="252,-30.5 360,-30.5 "/>
<text text-anchor="start" x="260" y="-18.5" font-family="Helvetica,sans-Serif" font-size="10.00">+ __init__()</text>
<text text-anchor="start" x="260" y="-7.5" font-family="Helvetica,sans-Serif" font-size="10.00">+ send_message()</text>
</a>
</g>
</g>
<!-- Node1&#45;&gt;Node4 -->
<g id="edge3" class="edge">
<title>Node1&#45;&gt;Node4</title>
<path fill="none" stroke="midnightblue" d="M267.88,-99.95C274.62,-88.55 280.91,-77.91 286.36,-68.7"/>
<polygon fill="none" stroke="midnightblue" points="264.72,-98.41 262.64,-108.8 270.74,-101.98 264.72,-98.41"/>
</g>
</g>
</svg>
