<?xml version="1.0" encoding="UTF-8" standalone="no"?>
<!DOCTYPE svg PUBLIC "-//W3C//DTD SVG 1.1//EN"
 "http://www.w3.org/Graphics/SVG/1.1/DTD/svg11.dtd">
<!-- Generated by graphviz version 2.43.0 (0)
 -->
<!-- Title: exception.ChatbotException.ChatbotExceptionCode Pages: 1 -->
<svg width="159pt" height="228pt"
 viewBox="0.00 0.00 159.00 228.00" xmlns="http://www.w3.org/2000/svg" xmlns:xlink="http://www.w3.org/1999/xlink">
<g id="graph0" class="graph" transform="scale(1 1) rotate(0) translate(4 224)">
<title>exception.ChatbotException.ChatbotExceptionCode</title>
<!-- Node1 -->
<g id="Node000001" class="node">
<title>Node1</title>
<g id="a_Node000001"><a xlink:title=" ">
<polygon fill="#999999" stroke="transparent" points="151,-135 0,-135 0,0 151,0 151,-135"/>
<text text-anchor="start" x="5.5" y="-122.5" font-family="Helvetica,sans-Serif" font-size="10.00">exception.ChatbotException.</text>
<text text-anchor="start" x="20" y="-111.5" font-family="Helvetica,sans-Serif" font-size="10.00">ChatbotExceptionCode</text>
<text text-anchor="start" x="14.5" y="-96.5" font-family="Helvetica,sans-Serif" font-size="10.00">+</text>
<text text-anchor="start" x="37.5" y="-96.5" font-family="Helvetica,sans-Serif" font-size="10.00">CONFIG_ERROR</text>
<text text-anchor="start" x="14.5" y="-81.5" font-family="Helvetica,sans-Serif" font-size="10.00">+</text>
<text text-anchor="start" x="37.5" y="-81.5" font-family="Helvetica,sans-Serif" font-size="10.00">DB_ERROR</text>
<text text-anchor="start" x="14.5" y="-66.5" font-family="Helvetica,sans-Serif" font-size="10.00">+</text>
<text text-anchor="start" x="37.5" y="-66.5" font-family="Helvetica,sans-Serif" font-size="10.00">GENERIC_ERROR</text>
<text text-anchor="start" x="14.5" y="-51.5" font-family="Helvetica,sans-Serif" font-size="10.00">+</text>
<text text-anchor="start" x="37.5" y="-51.5" font-family="Helvetica,sans-Serif" font-size="10.00">NETWORK_ERROR</text>
<text text-anchor="start" x="14.5" y="-36.5" font-family="Helvetica,sans-Serif" font-size="10.00">+</text>
<text text-anchor="start" x="37.5" y="-36.5" font-family="Helvetica,sans-Serif" font-size="10.00">NO_ERROR</text>
<text text-anchor="start" x="14.5" y="-21.5" font-family="Helvetica,sans-Serif" font-size="10.00">+</text>
<text text-anchor="start" x="37.5" y="-21.5" font-family="Helvetica,sans-Serif" font-size="10.00">TIMEOUT_ERROR</text>
<text text-anchor="start" x="74" y="-6.5" font-family="Helvetica,sans-Serif" font-size="10.00"> </text>
<polygon fill="#666666" stroke="#666666" points="0.5,-106.5 0.5,-106.5 151.5,-106.5 151.5,-106.5 0.5,-106.5"/>
<polygon fill="#666666" stroke="#666666" points="0.5,-16.5 0.5,-16.5 35.5,-16.5 35.5,-16.5 0.5,-16.5"/>
<polygon fill="#666666" stroke="#666666" points="35.5,-16.5 35.5,-16.5 151.5,-16.5 151.5,-16.5 35.5,-16.5"/>
<polygon fill="none" stroke="#666666" points="0,0 0,-135 151,-135 151,0 0,0"/>
</a>
</g>
</g>
<!-- Node2 -->
<g id="Node000002" class="node">
<title>Node2</title>
<g id="a_Node000002"><a xlink:title=" ">
<polygon fill="white" stroke="transparent" points="94.5,-220 56.5,-220 56.5,-171 94.5,-171 94.5,-220"/>
<text text-anchor="start" x="61.5" y="-207.5" font-family="Helvetica,sans-Serif" font-size="10.00">Enum</text>
<text text-anchor="start" x="73.5" y="-192.5" font-family="Helvetica,sans-Serif" font-size="10.00"> </text>
<text text-anchor="start" x="73.5" y="-177.5" font-family="Helvetica,sans-Serif" font-size="10.00"> </text>
<polygon fill="#666666" stroke="#666666" points="56.5,-202.5 56.5,-202.5 94.5,-202.5 94.5,-202.5 56.5,-202.5"/>
<polygon fill="#666666" stroke="#666666" points="56.5,-187.5 56.5,-187.5 94.5,-187.5 94.5,-187.5 56.5,-187.5"/>
<polygon fill="none" stroke="#666666" points="56.5,-171 56.5,-220 94.5,-220 94.5,-171 56.5,-171"/>
</a>
</g>
</g>
<!-- Node2&#45;&gt;Node1 -->
<g id="edge1_Node000001_Node000002" class="edge">
<title>Node2&#45;&gt;Node1</title>
<g id="a_edge1_Node000001_Node000002"><a xlink:title=" ">
<path fill="none" stroke="#63b8ff" d="M75.5,-160.56C75.5,-152.65 75.5,-143.96 75.5,-135.17"/>
<polygon fill="none" stroke="#63b8ff" points="72,-160.8 75.5,-170.8 79,-160.8 72,-160.8"/>
</a>
</g>
</g>
</g>
</svg>
