<?xml version="1.0" encoding="UTF-8" standalone="no"?>
<!DOCTYPE svg PUBLIC "-//W3C//DTD SVG 1.1//EN"
 "http://www.w3.org/Graphics/SVG/1.1/DTD/svg11.dtd">
<!-- Generated by graphviz version 2.43.0 (0)
 -->
<!-- Title: logger.LogException Pages: 1 -->
<!--zoomable 596 -->
<svg id="main" version="1.1" xmlns="http://www.w3.org/2000/svg" xmlns:xlink="http://www.w3.org/1999/xlink" xml:space="preserve" onload="init(evt)">
<style type="text/css"><![CDATA[
.edge:hover path { stroke: red; }
.edge:hover polygon { stroke: red; fill: red; }
]]></style>
<script type="text/javascript"><![CDATA[
var edges = document.getElementsByTagName('g');
if (edges && edges.length) {
  for (var i=0;i<edges.length;i++) {
    if (edges[i].id.substr(0,4)=='edge') {
      edges[i].setAttribute('class','edge');
    }
  }
}
]]></script>
        <defs>
                <circle id="rim" cx="0" cy="0" r="7"/>
                <circle id="rim2" cx="0" cy="0" r="3.5"/>
                <g id="zoomPlus">
                        <use xlink:href="#rim" fill="#404040">
                                <set attributeName="fill" to="#808080" begin="zoomplus.mouseover" end="zoomplus.mouseout"/>
                        </use>
                        <path d="M-4,0h8M0,-4v8" fill="none" stroke="white" stroke-width="1.5" pointer-events="none"/>
                </g>
                <g id="zoomMin">
                        <use xlink:href="#rim" fill="#404040">
                                <set attributeName="fill" to="#808080" begin="zoomminus.mouseover" end="zoomminus.mouseout"/>
                        </use>
                        <path d="M-4,0h8" fill="none" stroke="white" stroke-width="1.5" pointer-events="none"/>
                </g>
                <g id="dirArrow">
                        <path fill="none" stroke="white" stroke-width="1.5" d="M0,-3.0v7 M-2.5,-0.5L0,-3.0L2.5,-0.5"/>
                </g>
               <g id="resetDef">
                       <use xlink:href="#rim2" fill="#404040">
                               <set attributeName="fill" to="#808080" begin="reset.mouseover" end="reset.mouseout"/>
                       </use>
               </g>
        </defs>

<script type="text/javascript">
var viewWidth = 1055;
var viewHeight = 596;
var sectionId = 'dynsection-0';
</script>
<script xlink:href="svgpan.js"/>
<svg id="graph" class="graph">
<g id="viewport">
<title>logger.LogException</title>
<!-- Node1 -->
<g id="node1" class="node">
<title>Node1</title>
<g id="a_node1"><a xlink:title=" ">
<polygon fill="#bfbfbf" stroke="black" points="464,-210.5 464,-267.5 580,-267.5 580,-210.5 464,-210.5"/>
<text text-anchor="middle" x="522" y="-255.5" font-family="Helvetica,sans-Serif" font-size="10.00">logger.LogException</text>
<polyline fill="none" stroke="black" points="464,-248.5 580,-248.5 "/>
<text text-anchor="middle" x="522" y="-236.5" font-family="Helvetica,sans-Serif" font-size="10.00"> </text>
<polyline fill="none" stroke="black" points="464,-229.5 580,-229.5 "/>
<text text-anchor="middle" x="522" y="-217.5" font-family="Helvetica,sans-Serif" font-size="10.00"> </text>
</a>
</g>
</g>
<!-- Node4 -->
<g id="node4" class="node">
<title>Node4</title>
<g id="a_node4"><a xlink:href="classlogger_1_1LogConfigurationException.html" target="_top" xlink:title=" ">
<polygon fill="none" stroke="black" points="0,-111 0,-168 182,-168 182,-111 0,-111"/>
<text text-anchor="middle" x="91" y="-156" font-family="Helvetica,sans-Serif" font-size="10.00">logger.LogConfigurationException</text>
<polyline fill="none" stroke="black" points="0,-149 182,-149 "/>
<text text-anchor="middle" x="91" y="-137" font-family="Helvetica,sans-Serif" font-size="10.00"> </text>
<polyline fill="none" stroke="black" points="0,-130 182,-130 "/>
<text text-anchor="middle" x="91" y="-118" font-family="Helvetica,sans-Serif" font-size="10.00"> </text>
</a>
</g>
</g>
<!-- Node1&#45;&gt;Node4 -->
<g id="edge3" class="edge">
<title>Node1&#45;&gt;Node4</title>
<path fill="none" stroke="midnightblue" d="M453.71,-227.51C386.37,-216.53 280.78,-197.61 191,-174 184.18,-172.21 177.15,-170.2 170.13,-168.07"/>
<polygon fill="none" stroke="midnightblue" points="453.34,-231 463.78,-229.14 454.46,-224.09 453.34,-231"/>
</g>
<!-- Node6 -->
<g id="node6" class="node">
<title>Node6</title>
<g id="a_node6"><a xlink:href="classlogger_1_1LogCriticalOperationException.html" target="_top" xlink:title=" ">
<polygon fill="none" stroke="black" points="200,-105.5 200,-173.5 350,-173.5 350,-105.5 200,-105.5"/>
<text text-anchor="start" x="208" y="-161.5" font-family="Helvetica,sans-Serif" font-size="10.00">logger.LogCriticalOperation</text>
<text text-anchor="middle" x="275" y="-150.5" font-family="Helvetica,sans-Serif" font-size="10.00">Exception</text>
<polyline fill="none" stroke="black" points="200,-143.5 350,-143.5 "/>
<text text-anchor="middle" x="275" y="-131.5" font-family="Helvetica,sans-Serif" font-size="10.00"> </text>
<polyline fill="none" stroke="black" points="200,-124.5 350,-124.5 "/>
<text text-anchor="middle" x="275" y="-112.5" font-family="Helvetica,sans-Serif" font-size="10.00"> </text>
</a>
</g>
</g>
<!-- Node1&#45;&gt;Node6 -->
<g id="edge5" class="edge">
<title>Node1&#45;&gt;Node6</title>
<path fill="none" stroke="midnightblue" d="M454.55,-211.61C425.18,-200.1 390.38,-186.42 359,-174 356.08,-172.84 353.1,-171.67 350.1,-170.47"/>
<polygon fill="none" stroke="midnightblue" points="453.29,-214.88 463.88,-215.27 455.85,-208.36 453.29,-214.88"/>
</g>
<!-- Node7 -->
<g id="node7" class="node">
<title>Node7</title>
<g id="a_node7"><a xlink:href="classlogger_1_1LogDebugOperationException.html" target="_top" xlink:title=" ">
<polygon fill="none" stroke="black" points="368.5,-105.5 368.5,-173.5 515.5,-173.5 515.5,-105.5 368.5,-105.5"/>
<text text-anchor="start" x="376.5" y="-161.5" font-family="Helvetica,sans-Serif" font-size="10.00">logger.LogDebugOperation</text>
<text text-anchor="middle" x="442" y="-150.5" font-family="Helvetica,sans-Serif" font-size="10.00">Exception</text>
<polyline fill="none" stroke="black" points="368.5,-143.5 515.5,-143.5 "/>
<text text-anchor="middle" x="442" y="-131.5" font-family="Helvetica,sans-Serif" font-size="10.00"> </text>
<polyline fill="none" stroke="black" points="368.5,-124.5 515.5,-124.5 "/>
<text text-anchor="middle" x="442" y="-112.5" font-family="Helvetica,sans-Serif" font-size="10.00"> </text>
</a>
</g>
</g>
<!-- Node1&#45;&gt;Node7 -->
<g id="edge6" class="edge">
<title>Node1&#45;&gt;Node7</title>
<path fill="none" stroke="midnightblue" d="M492.74,-202.34C485.08,-193.01 476.86,-182.99 469.31,-173.79"/>
<polygon fill="none" stroke="midnightblue" points="490.24,-204.81 499.29,-210.32 495.65,-200.37 490.24,-204.81"/>
</g>
<!-- Node8 -->
<g id="node8" class="node">
<title>Node8</title>
<g id="a_node8"><a xlink:href="classlogger_1_1LogErrorOperationException.html" target="_top" xlink:title=" ">
<polygon fill="none" stroke="black" points="533.5,-105.5 533.5,-173.5 672.5,-173.5 672.5,-105.5 533.5,-105.5"/>
<text text-anchor="start" x="541.5" y="-161.5" font-family="Helvetica,sans-Serif" font-size="10.00">logger.LogErrorOperation</text>
<text text-anchor="middle" x="603" y="-150.5" font-family="Helvetica,sans-Serif" font-size="10.00">Exception</text>
<polyline fill="none" stroke="black" points="533.5,-143.5 672.5,-143.5 "/>
<text text-anchor="middle" x="603" y="-131.5" font-family="Helvetica,sans-Serif" font-size="10.00"> </text>
<polyline fill="none" stroke="black" points="533.5,-124.5 672.5,-124.5 "/>
<text text-anchor="middle" x="603" y="-112.5" font-family="Helvetica,sans-Serif" font-size="10.00"> </text>
</a>
</g>
</g>
<!-- Node1&#45;&gt;Node8 -->
<g id="edge7" class="edge">
<title>Node1&#45;&gt;Node8</title>
<path fill="none" stroke="midnightblue" d="M551.39,-202.62C559.21,-193.21 567.63,-183.08 575.35,-173.79"/>
<polygon fill="none" stroke="midnightblue" points="548.69,-200.39 544.99,-210.32 554.08,-204.87 548.69,-200.39"/>
</g>
<!-- Node9 -->
<g id="node9" class="node">
<title>Node9</title>
<g id="a_node9"><a xlink:href="classlogger_1_1LogInfoOperationException.html" target="_top" xlink:title=" ">
<polygon fill="none" stroke="black" points="691,-111 691,-168 873,-168 873,-111 691,-111"/>
<text text-anchor="middle" x="782" y="-156" font-family="Helvetica,sans-Serif" font-size="10.00">logger.LogInfoOperationException</text>
<polyline fill="none" stroke="black" points="691,-149 873,-149 "/>
<text text-anchor="middle" x="782" y="-137" font-family="Helvetica,sans-Serif" font-size="10.00"> </text>
<polyline fill="none" stroke="black" points="691,-130 873,-130 "/>
<text text-anchor="middle" x="782" y="-118" font-family="Helvetica,sans-Serif" font-size="10.00"> </text>
</a>
</g>
</g>
<!-- Node1&#45;&gt;Node9 -->
<g id="edge8" class="edge">
<title>Node1&#45;&gt;Node9</title>
<path fill="none" stroke="midnightblue" d="M589.57,-212.66C625.99,-199 670.99,-182.13 708.31,-168.14"/>
<polygon fill="none" stroke="midnightblue" points="588.16,-209.45 580.03,-216.24 590.62,-216.01 588.16,-209.45"/>
</g>
<!-- Node10 -->
<g id="node10" class="node">
<title>Node10</title>
<g id="a_node10"><a xlink:href="classlogger_1_1LogWarningOperationException.html" target="_top" xlink:title=" ">
<polygon fill="none" stroke="black" points="891,-105.5 891,-173.5 1047,-173.5 1047,-105.5 891,-105.5"/>
<text text-anchor="start" x="899" y="-161.5" font-family="Helvetica,sans-Serif" font-size="10.00">logger.LogWarningOperation</text>
<text text-anchor="middle" x="969" y="-150.5" font-family="Helvetica,sans-Serif" font-size="10.00">Exception</text>
<polyline fill="none" stroke="black" points="891,-143.5 1047,-143.5 "/>
<text text-anchor="middle" x="969" y="-131.5" font-family="Helvetica,sans-Serif" font-size="10.00"> </text>
<polyline fill="none" stroke="black" points="891,-124.5 1047,-124.5 "/>
<text text-anchor="middle" x="969" y="-112.5" font-family="Helvetica,sans-Serif" font-size="10.00"> </text>
</a>
</g>
</g>
<!-- Node1&#45;&gt;Node10 -->
<g id="edge9" class="edge">
<title>Node1&#45;&gt;Node10</title>
<path fill="none" stroke="midnightblue" d="M590.12,-229.85C663.17,-220.2 782.13,-201.83 882,-174 884.96,-173.17 887.96,-172.29 890.98,-171.35"/>
<polygon fill="none" stroke="midnightblue" points="589.59,-226.39 580.12,-231.15 590.49,-233.33 589.59,-226.39"/>
</g>
<!-- Node2 -->
<g id="node2" class="node">
<title>Node2</title>
<g id="a_node2"><a xlink:href="classexception_1_1ChatbotException.html" target="_top" xlink:title=" ">
<polygon fill="none" stroke="black" points="445,-304.5 445,-493.5 599,-493.5 599,-304.5 445,-304.5"/>
<text text-anchor="middle" x="522" y="-481.5" font-family="Helvetica,sans-Serif" font-size="10.00">exception.ChatbotException</text>
<polyline fill="none" stroke="black" points="445,-474.5 599,-474.5 "/>
<text text-anchor="start" x="453" y="-462.5" font-family="Helvetica,sans-Serif" font-size="10.00">+ cause</text>
<text text-anchor="start" x="453" y="-451.5" font-family="Helvetica,sans-Serif" font-size="10.00">+ code</text>
<text text-anchor="start" x="453" y="-440.5" font-family="Helvetica,sans-Serif" font-size="10.00">+ filename</text>
<text text-anchor="start" x="453" y="-429.5" font-family="Helvetica,sans-Serif" font-size="10.00">+ lineno</text>
<text text-anchor="start" x="453" y="-418.5" font-family="Helvetica,sans-Serif" font-size="10.00">+ message</text>
<text text-anchor="start" x="453" y="-407.5" font-family="Helvetica,sans-Serif" font-size="10.00">+ severity</text>
<text text-anchor="start" x="453" y="-396.5" font-family="Helvetica,sans-Serif" font-size="10.00">+ traceback</text>
<text text-anchor="start" x="453" y="-385.5" font-family="Helvetica,sans-Serif" font-size="10.00">+ type</text>
<text text-anchor="start" x="453" y="-374.5" font-family="Helvetica,sans-Serif" font-size="10.00">+ SEVERITY_TO_LOGGING</text>
<polyline fill="none" stroke="black" points="445,-367.5 599,-367.5 "/>
<text text-anchor="start" x="453" y="-355.5" font-family="Helvetica,sans-Serif" font-size="10.00">+ __init__()</text>
<text text-anchor="start" x="453" y="-344.5" font-family="Helvetica,sans-Serif" font-size="10.00">+ __repr__()</text>
<text text-anchor="start" x="453" y="-333.5" font-family="Helvetica,sans-Serif" font-size="10.00">+ __str__()</text>
<text text-anchor="start" x="453" y="-322.5" font-family="Helvetica,sans-Serif" font-size="10.00">+ to_dict()</text>
<text text-anchor="start" x="453" y="-311.5" font-family="Helvetica,sans-Serif" font-size="10.00">+ to_json()</text>
</a>
</g>
</g>
<!-- Node2&#45;&gt;Node1 -->
<g id="edge1" class="edge">
<title>Node2&#45;&gt;Node1</title>
<path fill="none" stroke="midnightblue" d="M522,-294.13C522,-284.56 522,-275.54 522,-267.7"/>
<polygon fill="none" stroke="midnightblue" points="518.5,-294.26 522,-304.26 525.5,-294.26 518.5,-294.26"/>
</g>
<!-- Node3 -->
<g id="node3" class="node">
<title>Node3</title>
<g id="a_node3"><a xlink:title=" ">
<polygon fill="none" stroke="#bfbfbf" points="489.5,-530.5 489.5,-587.5 554.5,-587.5 554.5,-530.5 489.5,-530.5"/>
<text text-anchor="middle" x="522" y="-575.5" font-family="Helvetica,sans-Serif" font-size="10.00">Exception</text>
<polyline fill="none" stroke="#bfbfbf" points="489.5,-568.5 554.5,-568.5 "/>
<text text-anchor="middle" x="522" y="-556.5" font-family="Helvetica,sans-Serif" font-size="10.00"> </text>
<polyline fill="none" stroke="#bfbfbf" points="489.5,-549.5 554.5,-549.5 "/>
<text text-anchor="middle" x="522" y="-537.5" font-family="Helvetica,sans-Serif" font-size="10.00"> </text>
</a>
</g>
</g>
<!-- Node3&#45;&gt;Node2 -->
<g id="edge2" class="edge">
<title>Node3&#45;&gt;Node2</title>
<path fill="none" stroke="midnightblue" d="M522,-520.22C522,-512.01 522,-502.99 522,-493.68"/>
<polygon fill="none" stroke="midnightblue" points="518.5,-520.48 522,-530.48 525.5,-520.48 518.5,-520.48"/>
</g>
<!-- Node5 -->
<g id="node5" class="node">
<title>Node5</title>
<g id="a_node5"><a xlink:href="classlogger_1_1LogWrongAttributeException.html" target="_top" xlink:title=" ">
<polygon fill="none" stroke="black" points="20,-0.5 20,-68.5 162,-68.5 162,-0.5 20,-0.5"/>
<text text-anchor="start" x="28" y="-56.5" font-family="Helvetica,sans-Serif" font-size="10.00">logger.LogWrongAttribute</text>
<text text-anchor="middle" x="91" y="-45.5" font-family="Helvetica,sans-Serif" font-size="10.00">Exception</text>
<polyline fill="none" stroke="black" points="20,-38.5 162,-38.5 "/>
<text text-anchor="middle" x="91" y="-26.5" font-family="Helvetica,sans-Serif" font-size="10.00"> </text>
<polyline fill="none" stroke="black" points="20,-19.5 162,-19.5 "/>
<text text-anchor="middle" x="91" y="-7.5" font-family="Helvetica,sans-Serif" font-size="10.00"> </text>
</a>
</g>
</g>
<!-- Node4&#45;&gt;Node5 -->
<g id="edge4" class="edge">
<title>Node4&#45;&gt;Node5</title>
<path fill="none" stroke="midnightblue" d="M91,-100.74C91,-90.23 91,-78.9 91,-68.68"/>
<polygon fill="none" stroke="midnightblue" points="87.5,-100.9 91,-110.9 94.5,-100.9 87.5,-100.9"/>
</g>
</g>
</svg>
        <g id="navigator" transform="translate(0 0)" fill="#404254">
                <rect fill="#f2f5e9" fill-opacity="0.5" stroke="#606060" stroke-width=".5" x="0" y="0" width="60" height="60"/>
                <use id="zoomplus" xlink:href="#zoomPlus" x="17" y="9" onmousedown="handleZoom(evt,'in')"/>
                <use id="zoomminus" xlink:href="#zoomMin" x="42" y="9" onmousedown="handleZoom(evt,'out')"/>
                <use id="reset" xlink:href="#resetDef" x="30" y="36" onmousedown="handleReset()"/>
                <g id="arrowUp" xlink:href="#dirArrow" transform="translate(30 24)" onmousedown="handlePan(0,-1)">
                  <use xlink:href="#rim" fill="#404040">
                        <set attributeName="fill" to="#808080" begin="arrowUp.mouseover" end="arrowUp.mouseout"/>
                  </use>
                  <path fill="none" stroke="white" stroke-width="1.5" d="M0,-3.0v7 M-2.5,-0.5L0,-3.0L2.5,-0.5"/>
                </g>
                <g id="arrowRight" xlink:href="#dirArrow" transform="rotate(90) translate(36 -43)" onmousedown="handlePan(1,0)">
                  <use xlink:href="#rim" fill="#404040">
                        <set attributeName="fill" to="#808080" begin="arrowRight.mouseover" end="arrowRight.mouseout"/>
                  </use>
                  <path fill="none" stroke="white" stroke-width="1.5" d="M0,-3.0v7 M-2.5,-0.5L0,-3.0L2.5,-0.5"/>
                </g>
                <g id="arrowDown" xlink:href="#dirArrow" transform="rotate(180) translate(-30 -48)" onmousedown="handlePan(0,1)">
                  <use xlink:href="#rim" fill="#404040">
                        <set attributeName="fill" to="#808080" begin="arrowDown.mouseover" end="arrowDown.mouseout"/>
                  </use>
                  <path fill="none" stroke="white" stroke-width="1.5" d="M0,-3.0v7 M-2.5,-0.5L0,-3.0L2.5,-0.5"/>
                </g>
                <g id="arrowLeft" xlink:href="#dirArrow" transform="rotate(270) translate(-36 17)" onmousedown="handlePan(-1,0)">
                  <use xlink:href="#rim" fill="#404040">
                        <set attributeName="fill" to="#808080" begin="arrowLeft.mouseover" end="arrowLeft.mouseout"/>
                  </use>
                  <path fill="none" stroke="white" stroke-width="1.5" d="M0,-3.0v7 M-2.5,-0.5L0,-3.0L2.5,-0.5"/>
                </g>
        </g>
        <svg viewBox="0 0 15 15" width="100%" height="30px" preserveAspectRatio="xMaxYMin meet">
         <g id="arrow_out" transform="scale(0.3 0.3)">
          <a xlink:href="classlogger_1_1LogException__inherit__graph_org.svg" target="_base">
           <rect id="button" ry="5" rx="5" y="6" x="6" height="38" width="38"
                fill="#f2f5e9" fill-opacity="0.5" stroke="#606060" stroke-width="1.0"/>
           <path id="arrow"
             d="M 11.500037,31.436501 C 11.940474,20.09759 22.043105,11.32322 32.158766,21.979434 L 37.068811,17.246167 C 37.068811,17.246167 37.088388,32 37.088388,32 L 22.160133,31.978069 C 22.160133,31.978069 26.997745,27.140456 26.997745,27.140456 C 18.528582,18.264221 13.291696,25.230495 11.500037,31.436501 z"
             style="fill:#404040;"/>
          </a>
         </g>
        </svg>
</svg>
