<?xml version="1.0" encoding="UTF-8" standalone="no"?>
<!DOCTYPE svg PUBLIC "-//W3C//DTD SVG 1.1//EN"
 "http://www.w3.org/Graphics/SVG/1.1/DTD/svg11.dtd">
<!-- Generated by graphviz version 2.43.0 (0)
 -->
<!-- Title: web_server.WebAppRunException Pages: 1 -->
<svg width="191pt" height="480pt"
 viewBox="0.00 0.00 191.00 480.00" xmlns="http://www.w3.org/2000/svg" xmlns:xlink="http://www.w3.org/1999/xlink">
<g id="graph0" class="graph" transform="scale(1 1) rotate(0) translate(4 476)">
<title>web_server.WebAppRunException</title>
<!-- Node1 -->
<g id="node1" class="node">
<title>Node1</title>
<g id="a_node1"><a xlink:title=" ">
<polygon fill="#bfbfbf" stroke="black" points="0,-0.5 0,-57.5 183,-57.5 183,-0.5 0,-0.5"/>
<text text-anchor="middle" x="91.5" y="-45.5" font-family="Helvetica,sans-Serif" font-size="10.00">web_server.WebAppRunException</text>
<polyline fill="none" stroke="black" points="0,-38.5 183,-38.5 "/>
<text text-anchor="middle" x="91.5" y="-26.5" font-family="Helvetica,sans-Serif" font-size="10.00"> </text>
<polyline fill="none" stroke="black" points="0,-19.5 183,-19.5 "/>
<text text-anchor="middle" x="91.5" y="-7.5" font-family="Helvetica,sans-Serif" font-size="10.00"> </text>
</a>
</g>
</g>
<!-- Node2 -->
<g id="node2" class="node">
<title>Node2</title>
<g id="a_node2"><a xlink:href="classweb__server_1_1WebAppException.html" target="_top" xlink:title=" ">
<polygon fill="none" stroke="black" points="9.5,-94.5 9.5,-151.5 173.5,-151.5 173.5,-94.5 9.5,-94.5"/>
<text text-anchor="middle" x="91.5" y="-139.5" font-family="Helvetica,sans-Serif" font-size="10.00">web_server.WebAppException</text>
<polyline fill="none" stroke="black" points="9.5,-132.5 173.5,-132.5 "/>
<text text-anchor="middle" x="91.5" y="-120.5" font-family="Helvetica,sans-Serif" font-size="10.00"> </text>
<polyline fill="none" stroke="black" points="9.5,-113.5 173.5,-113.5 "/>
<text text-anchor="middle" x="91.5" y="-101.5" font-family="Helvetica,sans-Serif" font-size="10.00"> </text>
</a>
</g>
</g>
<!-- Node2&#45;&gt;Node1 -->
<g id="edge1" class="edge">
<title>Node2&#45;&gt;Node1</title>
<path fill="none" stroke="midnightblue" d="M91.5,-84.21C91.5,-75.29 91.5,-65.95 91.5,-57.58"/>
<polygon fill="none" stroke="midnightblue" points="88,-84.4 91.5,-94.4 95,-84.4 88,-84.4"/>
</g>
<!-- Node3 -->
<g id="node3" class="node">
<title>Node3</title>
<g id="a_node3"><a xlink:href="classexception_1_1ChatbotException.html" target="_top" xlink:title=" ">
<polygon fill="none" stroke="black" points="14.5,-188.5 14.5,-377.5 168.5,-377.5 168.5,-188.5 14.5,-188.5"/>
<text text-anchor="middle" x="91.5" y="-365.5" font-family="Helvetica,sans-Serif" font-size="10.00">exception.ChatbotException</text>
<polyline fill="none" stroke="black" points="14.5,-358.5 168.5,-358.5 "/>
<text text-anchor="start" x="22.5" y="-346.5" font-family="Helvetica,sans-Serif" font-size="10.00">+ cause</text>
<text text-anchor="start" x="22.5" y="-335.5" font-family="Helvetica,sans-Serif" font-size="10.00">+ code</text>
<text text-anchor="start" x="22.5" y="-324.5" font-family="Helvetica,sans-Serif" font-size="10.00">+ filename</text>
<text text-anchor="start" x="22.5" y="-313.5" font-family="Helvetica,sans-Serif" font-size="10.00">+ lineno</text>
<text text-anchor="start" x="22.5" y="-302.5" font-family="Helvetica,sans-Serif" font-size="10.00">+ message</text>
<text text-anchor="start" x="22.5" y="-291.5" font-family="Helvetica,sans-Serif" font-size="10.00">+ severity</text>
<text text-anchor="start" x="22.5" y="-280.5" font-family="Helvetica,sans-Serif" font-size="10.00">+ traceback</text>
<text text-anchor="start" x="22.5" y="-269.5" font-family="Helvetica,sans-Serif" font-size="10.00">+ type</text>
<text text-anchor="start" x="22.5" y="-258.5" font-family="Helvetica,sans-Serif" font-size="10.00">+ SEVERITY_TO_LOGGING</text>
<polyline fill="none" stroke="black" points="14.5,-251.5 168.5,-251.5 "/>
<text text-anchor="start" x="22.5" y="-239.5" font-family="Helvetica,sans-Serif" font-size="10.00">+ __init__()</text>
<text text-anchor="start" x="22.5" y="-228.5" font-family="Helvetica,sans-Serif" font-size="10.00">+ __repr__()</text>
<text text-anchor="start" x="22.5" y="-217.5" font-family="Helvetica,sans-Serif" font-size="10.00">+ __str__()</text>
<text text-anchor="start" x="22.5" y="-206.5" font-family="Helvetica,sans-Serif" font-size="10.00">+ to_dict()</text>
<text text-anchor="start" x="22.5" y="-195.5" font-family="Helvetica,sans-Serif" font-size="10.00">+ to_json()</text>
</a>
</g>
</g>
<!-- Node3&#45;&gt;Node2 -->
<g id="edge2" class="edge">
<title>Node3&#45;&gt;Node2</title>
<path fill="none" stroke="midnightblue" d="M91.5,-178.13C91.5,-168.56 91.5,-159.54 91.5,-151.7"/>
<polygon fill="none" stroke="midnightblue" points="88,-178.26 91.5,-188.26 95,-178.26 88,-178.26"/>
</g>
<!-- Node4 -->
<g id="node4" class="node">
<title>Node4</title>
<g id="a_node4"><a xlink:title=" ">
<polygon fill="none" stroke="#bfbfbf" points="59,-414.5 59,-471.5 124,-471.5 124,-414.5 59,-414.5"/>
<text text-anchor="middle" x="91.5" y="-459.5" font-family="Helvetica,sans-Serif" font-size="10.00">Exception</text>
<polyline fill="none" stroke="#bfbfbf" points="59,-452.5 124,-452.5 "/>
<text text-anchor="middle" x="91.5" y="-440.5" font-family="Helvetica,sans-Serif" font-size="10.00"> </text>
<polyline fill="none" stroke="#bfbfbf" points="59,-433.5 124,-433.5 "/>
<text text-anchor="middle" x="91.5" y="-421.5" font-family="Helvetica,sans-Serif" font-size="10.00"> </text>
</a>
</g>
</g>
<!-- Node4&#45;&gt;Node3 -->
<g id="edge3" class="edge">
<title>Node4&#45;&gt;Node3</title>
<path fill="none" stroke="midnightblue" d="M91.5,-404.22C91.5,-396.01 91.5,-386.99 91.5,-377.68"/>
<polygon fill="none" stroke="midnightblue" points="88,-404.48 91.5,-414.48 95,-404.48 88,-404.48"/>
</g>
</g>
</svg>
