<?xml version="1.0" encoding="UTF-8" standalone="no"?>
<!DOCTYPE svg PUBLIC "-//W3C//DTD SVG 1.1//EN"
 "http://www.w3.org/Graphics/SVG/1.1/DTD/svg11.dtd">
<!-- Generated by graphviz version 2.43.0 (0)
 -->
<!-- Title: bot.BotManager.__del__ Pages: 1 -->
<svg width="316pt" height="101pt"
 viewBox="0.00 0.00 316.00 101.00" xmlns="http://www.w3.org/2000/svg" xmlns:xlink="http://www.w3.org/1999/xlink">
<g id="graph0" class="graph" transform="scale(1 1) rotate(0) translate(4 97)">
<title>bot.BotManager.__del__</title>
<!-- Node1 -->
<g id="Node000001" class="node">
<title>Node1</title>
<g id="a_Node000001"><a xlink:title=" ">
<polygon fill="#999999" stroke="#666666" points="133,-56 0,-56 0,-37 133,-37 133,-56"/>
<text text-anchor="middle" x="66.5" y="-44" font-family="Helvetica,sans-Serif" font-size="10.00">bot.BotManager.__del__</text>
</a>
</g>
</g>
<!-- Node2 -->
<g id="Node000002" class="node">
<title>Node2</title>
<g id="a_Node000002"><a xlink:href="classbot_1_1Bot.html#aece457b53f85db00c751aa0eff611e81" target="_top" xlink:title=" ">
<polygon fill="white" stroke="#666666" points="276.5,-93 200.5,-93 200.5,-74 276.5,-74 276.5,-93"/>
<text text-anchor="middle" x="238.5" y="-81" font-family="Helvetica,sans-Serif" font-size="10.00">bot.Bot.stop</text>
</a>
</g>
</g>
<!-- Node1&#45;&gt;Node2 -->
<g id="edge1_Node000001_Node000002" class="edge">
<title>Node1&#45;&gt;Node2</title>
<g id="a_edge1_Node000001_Node000002"><a xlink:title=" ">
<path fill="none" stroke="#63b8ff" d="M111.28,-56.03C135.58,-61.32 165.8,-67.9 190.58,-73.29"/>
<polygon fill="#63b8ff" stroke="#63b8ff" points="189.97,-76.74 200.49,-75.44 191.46,-69.9 189.97,-76.74"/>
</a>
</g>
</g>
<!-- Node3 -->
<g id="Node000003" class="node">
<title>Node3</title>
<g id="a_Node000003"><a xlink:href="classbot_1_1BotManager.html#a640250be5ea91bbcff56e533e416b1c0" target="_top" xlink:title=" ">
<polygon fill="white" stroke="#666666" points="297.5,-56 179.5,-56 179.5,-37 297.5,-37 297.5,-56"/>
<text text-anchor="middle" x="238.5" y="-44" font-family="Helvetica,sans-Serif" font-size="10.00">bot.BotManager.stop</text>
</a>
</g>
</g>
<!-- Node1&#45;&gt;Node3 -->
<g id="edge2_Node000001_Node000003" class="edge">
<title>Node1&#45;&gt;Node3</title>
<g id="a_edge2_Node000001_Node000003"><a xlink:title=" ">
<path fill="none" stroke="#63b8ff" d="M133.23,-46.5C145.01,-46.5 157.31,-46.5 169.16,-46.5"/>
<polygon fill="#63b8ff" stroke="#63b8ff" points="169.43,-50 179.43,-46.5 169.43,-43 169.43,-50"/>
</a>
</g>
</g>
<!-- Node4 -->
<g id="Node000004" class="node">
<title>Node4</title>
<g id="a_Node000004"><a xlink:href="classweb__server_1_1WebApp.html#ad0b330da0dc4521360db9cf1132aff39" target="_top" xlink:title=" ">
<polygon fill="white" stroke="#666666" points="308,-19 169,-19 169,0 308,0 308,-19"/>
<text text-anchor="middle" x="238.5" y="-7" font-family="Helvetica,sans-Serif" font-size="10.00">web_server.WebApp.stop</text>
</a>
</g>
</g>
<!-- Node1&#45;&gt;Node4 -->
<g id="edge3_Node000001_Node000004" class="edge">
<title>Node1&#45;&gt;Node4</title>
<g id="a_edge3_Node000001_Node000004"><a xlink:title=" ">
<path fill="none" stroke="#63b8ff" d="M111.28,-36.97C133.3,-32.18 160.2,-26.32 183.5,-21.25"/>
<polygon fill="#63b8ff" stroke="#63b8ff" points="184.55,-24.61 193.57,-19.06 183.06,-17.77 184.55,-24.61"/>
</a>
</g>
</g>
</g>
</svg>
