<?xml version="1.0" encoding="UTF-8" standalone="no"?>
<!DOCTYPE svg PUBLIC "-//W3C//DTD SVG 1.1//EN"
 "http://www.w3.org/Graphics/SVG/1.1/DTD/svg11.dtd">
<!-- Generated by graphviz version 2.43.0 (0)
 -->
<!-- Title: bot.BotManager.create_if_not_exist_bot Pages: 1 -->
<svg width="323pt" height="172pt"
 viewBox="0.00 0.00 323.00 171.50" xmlns="http://www.w3.org/2000/svg" xmlns:xlink="http://www.w3.org/1999/xlink">

<svg id="main" version="1.1" xmlns="http://www.w3.org/2000/svg" xmlns:xlink="http://www.w3.org/1999/xlink" xml:space="preserve" onload="init(evt)">
<style type="text/css"><![CDATA[
.node, .edge {opacity: 0.7;}
.node.selected, .edge.selected {opacity: 1;}
.edge:hover path { stroke: red; }
.edge:hover polygon { stroke: red; fill: red; }
]]></style>
<script type="application/ecmascript" xlink:href="svg.min.js"/>
<svg id="graph" class="graph">
<g id="graph0" class="graph" transform="scale(1 1) rotate(0) translate(4 167.5)">
<title>bot.BotManager.create_if_not_exist_bot</title>
<!-- Node1 -->
<g id="Node000001" class="node">
<title>Node1</title>
<g id="a_Node000001"><a xlink:title=" ">
<polygon fill="#999999" stroke="#666666" points="315,-91.5 187,-91.5 187,-61.5 315,-61.5 315,-91.5"/>
<text text-anchor="start" x="195" y="-79.5" font-family="Helvetica,sans-Serif" font-size="10.00">bot.BotManager.create</text>
<text text-anchor="middle" x="251" y="-68.5" font-family="Helvetica,sans-Serif" font-size="10.00">_if_not_exist_bot</text>
</a>
</g>
</g>
<!-- Node2 -->
<g id="Node000002" class="node">
<title>Node2</title>
<g id="a_Node000002"><a xlink:href="classbot_1_1BotManager.html#a476223236141f8727739094c156b8790" target="_top" xlink:title=" ">
<polygon fill="white" stroke="#666666" points="151,-163.5 0,-163.5 0,-133.5 151,-133.5 151,-163.5"/>
<text text-anchor="start" x="8" y="-151.5" font-family="Helvetica,sans-Serif" font-size="10.00">bot.BotManager.create</text>
<text text-anchor="middle" x="75.5" y="-140.5" font-family="Helvetica,sans-Serif" font-size="10.00">_if_not_exist_and_start_bot</text>
</a>
</g>
</g>
<!-- Node1&#45;&gt;Node2 -->
<g id="edge1_Node000001_Node000002" class="edge">
<title>Node1&#45;&gt;Node2</title>
<g id="a_edge1_Node000001_Node000002"><a xlink:title=" ">
<path fill="none" stroke="#63b8ff" d="M212.32,-96.31C194.07,-105.5 171.68,-116.2 151,-124.5 143.18,-127.64 134.78,-130.66 126.54,-133.45"/>
<polygon fill="#63b8ff" stroke="#63b8ff" points="214.13,-99.31 221.46,-91.66 210.96,-93.07 214.13,-99.31"/>
</a>
</g>
</g>
<!-- Node3 -->
<g id="Node000003" class="node">
<title>Node3</title>
<g id="a_Node000003"><a xlink:href="classbot_1_1BotManager.html#afcf8120800e601f205fe2ad2a2436efa" target="_top" xlink:title=" ">
<polygon fill="white" stroke="#666666" points="142,-115.5 9,-115.5 9,-85.5 142,-85.5 142,-115.5"/>
<text text-anchor="start" x="17" y="-103.5" font-family="Helvetica,sans-Serif" font-size="10.00">bot.BotManager.receive</text>
<text text-anchor="middle" x="75.5" y="-92.5" font-family="Helvetica,sans-Serif" font-size="10.00">_message_from_bot</text>
</a>
</g>
</g>
<!-- Node1&#45;&gt;Node3 -->
<g id="edge2_Node000001_Node000003" class="edge">
<title>Node1&#45;&gt;Node3</title>
<g id="a_edge2_Node000001_Node000003"><a xlink:title=" ">
<path fill="none" stroke="#63b8ff" d="M176.87,-86.62C165.36,-88.21 153.53,-89.84 142.21,-91.41"/>
<polygon fill="#63b8ff" stroke="#63b8ff" points="177.45,-90.07 186.87,-85.23 176.49,-83.14 177.45,-90.07"/>
</a>
</g>
</g>
<!-- Node4 -->
<g id="Node000004" class="node">
<title>Node4</title>
<g id="a_Node000004"><a xlink:href="classbot_1_1BotManager.html#a1252539ad8ced4a098615fbdde873893" target="_top" xlink:title=" ">
<polygon fill="white" stroke="#666666" points="135.5,-67.5 15.5,-67.5 15.5,-37.5 135.5,-37.5 135.5,-67.5"/>
<text text-anchor="start" x="23.5" y="-55.5" font-family="Helvetica,sans-Serif" font-size="10.00">bot.BotManager.send</text>
<text text-anchor="middle" x="75.5" y="-44.5" font-family="Helvetica,sans-Serif" font-size="10.00">_message_on_bot</text>
</a>
</g>
</g>
<!-- Node1&#45;&gt;Node4 -->
<g id="edge3_Node000001_Node000004" class="edge">
<title>Node1&#45;&gt;Node4</title>
<g id="a_edge3_Node000001_Node000004"><a xlink:title=" ">
<path fill="none" stroke="#63b8ff" d="M176.93,-66.39C163.12,-64.48 148.84,-62.51 135.54,-60.67"/>
<polygon fill="#63b8ff" stroke="#63b8ff" points="176.49,-69.86 186.87,-67.77 177.45,-62.93 176.49,-69.86"/>
</a>
</g>
</g>
<!-- Node5 -->
<g id="Node000005" class="node">
<title>Node5</title>
<g id="a_Node000005"><a xlink:href="classbot_1_1BotManager.html#ac3951e114a0a17e9680bc7313025b52a" target="_top" xlink:title=" ">
<polygon fill="white" stroke="#666666" points="145.5,-19 5.5,-19 5.5,0 145.5,0 145.5,-19"/>
<text text-anchor="middle" x="75.5" y="-7" font-family="Helvetica,sans-Serif" font-size="10.00">bot.BotManager.start_bot</text>
</a>
</g>
</g>
<!-- Node1&#45;&gt;Node5 -->
<g id="edge4_Node000001_Node000005" class="edge">
<title>Node1&#45;&gt;Node5</title>
<g id="a_edge4_Node000001_Node000005"><a xlink:title=" ">
<path fill="none" stroke="#63b8ff" d="M213.59,-56.66C195.21,-47.21 172.33,-36.3 151,-28.5 141.22,-24.92 130.49,-21.76 120.28,-19.1"/>
<polygon fill="#63b8ff" stroke="#63b8ff" points="212.01,-59.78 222.49,-61.3 215.24,-53.57 212.01,-59.78"/>
</a>
</g>
</g>
</g>
</svg>
</svg>

<style type='text/css'>
<![CDATA[
[data-mouse-over-selected='false'] { opacity: 0.7; }
[data-mouse-over-selected='true']  { opacity: 1.0; }
]]>
</style>
<script type="application/ecmascript"><![CDATA[
document.addEventListener('DOMContentLoaded', (event) => {
  highlightEdges();
  highlightAdjacentNodes();
});
]]></script>
</svg>
