<?xml version="1.0" encoding="UTF-8" standalone="no"?>
<!DOCTYPE svg PUBLIC "-//W3C//DTD SVG 1.1//EN"
 "http://www.w3.org/Graphics/SVG/1.1/DTD/svg11.dtd">
<!-- Generated by graphviz version 2.43.0 (0)
 -->
<!-- Title: logger.LogInfoOperationException Pages: 1 -->
<svg width="190pt" height="480pt"
 viewBox="0.00 0.00 190.00 480.00" xmlns="http://www.w3.org/2000/svg" xmlns:xlink="http://www.w3.org/1999/xlink">
<g id="graph0" class="graph" transform="scale(1 1) rotate(0) translate(4 476)">
<title>logger.LogInfoOperationException</title>
<!-- Node1 -->
<g id="node1" class="node">
<title>Node1</title>
<g id="a_node1"><a xlink:title=" ">
<polygon fill="#bfbfbf" stroke="black" points="0,-0.5 0,-57.5 182,-57.5 182,-0.5 0,-0.5"/>
<text text-anchor="middle" x="91" y="-45.5" font-family="Helvetica,sans-Serif" font-size="10.00">logger.LogInfoOperationException</text>
<polyline fill="none" stroke="black" points="0,-38.5 182,-38.5 "/>
<text text-anchor="middle" x="91" y="-26.5" font-family="Helvetica,sans-Serif" font-size="10.00"> </text>
<polyline fill="none" stroke="black" points="0,-19.5 182,-19.5 "/>
<text text-anchor="middle" x="91" y="-7.5" font-family="Helvetica,sans-Serif" font-size="10.00"> </text>
</a>
</g>
</g>
<!-- Node2 -->
<g id="node2" class="node">
<title>Node2</title>
<g id="a_node2"><a xlink:href="classlogger_1_1LogException.html" target="_top" xlink:title=" ">
<polygon fill="none" stroke="black" points="33,-94.5 33,-151.5 149,-151.5 149,-94.5 33,-94.5"/>
<text text-anchor="middle" x="91" y="-139.5" font-family="Helvetica,sans-Serif" font-size="10.00">logger.LogException</text>
<polyline fill="none" stroke="black" points="33,-132.5 149,-132.5 "/>
<text text-anchor="middle" x="91" y="-120.5" font-family="Helvetica,sans-Serif" font-size="10.00"> </text>
<polyline fill="none" stroke="black" points="33,-113.5 149,-113.5 "/>
<text text-anchor="middle" x="91" y="-101.5" font-family="Helvetica,sans-Serif" font-size="10.00"> </text>
</a>
</g>
</g>
<!-- Node2&#45;&gt;Node1 -->
<g id="edge1" class="edge">
<title>Node2&#45;&gt;Node1</title>
<path fill="none" stroke="midnightblue" d="M91,-84.21C91,-75.29 91,-65.95 91,-57.58"/>
<polygon fill="none" stroke="midnightblue" points="87.5,-84.4 91,-94.4 94.5,-84.4 87.5,-84.4"/>
</g>
<!-- Node3 -->
<g id="node3" class="node">
<title>Node3</title>
<g id="a_node3"><a xlink:href="classexception_1_1ChatbotException.html" target="_top" xlink:title=" ">
<polygon fill="none" stroke="black" points="14,-188.5 14,-377.5 168,-377.5 168,-188.5 14,-188.5"/>
<text text-anchor="middle" x="91" y="-365.5" font-family="Helvetica,sans-Serif" font-size="10.00">exception.ChatbotException</text>
<polyline fill="none" stroke="black" points="14,-358.5 168,-358.5 "/>
<text text-anchor="start" x="22" y="-346.5" font-family="Helvetica,sans-Serif" font-size="10.00">+ cause</text>
<text text-anchor="start" x="22" y="-335.5" font-family="Helvetica,sans-Serif" font-size="10.00">+ code</text>
<text text-anchor="start" x="22" y="-324.5" font-family="Helvetica,sans-Serif" font-size="10.00">+ filename</text>
<text text-anchor="start" x="22" y="-313.5" font-family="Helvetica,sans-Serif" font-size="10.00">+ lineno</text>
<text text-anchor="start" x="22" y="-302.5" font-family="Helvetica,sans-Serif" font-size="10.00">+ message</text>
<text text-anchor="start" x="22" y="-291.5" font-family="Helvetica,sans-Serif" font-size="10.00">+ severity</text>
<text text-anchor="start" x="22" y="-280.5" font-family="Helvetica,sans-Serif" font-size="10.00">+ traceback</text>
<text text-anchor="start" x="22" y="-269.5" font-family="Helvetica,sans-Serif" font-size="10.00">+ type</text>
<text text-anchor="start" x="22" y="-258.5" font-family="Helvetica,sans-Serif" font-size="10.00">+ SEVERITY_TO_LOGGING</text>
<polyline fill="none" stroke="black" points="14,-251.5 168,-251.5 "/>
<text text-anchor="start" x="22" y="-239.5" font-family="Helvetica,sans-Serif" font-size="10.00">+ __init__()</text>
<text text-anchor="start" x="22" y="-228.5" font-family="Helvetica,sans-Serif" font-size="10.00">+ __repr__()</text>
<text text-anchor="start" x="22" y="-217.5" font-family="Helvetica,sans-Serif" font-size="10.00">+ __str__()</text>
<text text-anchor="start" x="22" y="-206.5" font-family="Helvetica,sans-Serif" font-size="10.00">+ to_dict()</text>
<text text-anchor="start" x="22" y="-195.5" font-family="Helvetica,sans-Serif" font-size="10.00">+ to_json()</text>
</a>
</g>
</g>
<!-- Node3&#45;&gt;Node2 -->
<g id="edge2" class="edge">
<title>Node3&#45;&gt;Node2</title>
<path fill="none" stroke="midnightblue" d="M91,-178.13C91,-168.56 91,-159.54 91,-151.7"/>
<polygon fill="none" stroke="midnightblue" points="87.5,-178.26 91,-188.26 94.5,-178.26 87.5,-178.26"/>
</g>
<!-- Node4 -->
<g id="node4" class="node">
<title>Node4</title>
<g id="a_node4"><a xlink:title=" ">
<polygon fill="none" stroke="#bfbfbf" points="58.5,-414.5 58.5,-471.5 123.5,-471.5 123.5,-414.5 58.5,-414.5"/>
<text text-anchor="middle" x="91" y="-459.5" font-family="Helvetica,sans-Serif" font-size="10.00">Exception</text>
<polyline fill="none" stroke="#bfbfbf" points="58.5,-452.5 123.5,-452.5 "/>
<text text-anchor="middle" x="91" y="-440.5" font-family="Helvetica,sans-Serif" font-size="10.00"> </text>
<polyline fill="none" stroke="#bfbfbf" points="58.5,-433.5 123.5,-433.5 "/>
<text text-anchor="middle" x="91" y="-421.5" font-family="Helvetica,sans-Serif" font-size="10.00"> </text>
</a>
</g>
</g>
<!-- Node4&#45;&gt;Node3 -->
<g id="edge3" class="edge">
<title>Node4&#45;&gt;Node3</title>
<path fill="none" stroke="midnightblue" d="M91,-404.22C91,-396.01 91,-386.99 91,-377.68"/>
<polygon fill="none" stroke="midnightblue" points="87.5,-404.48 91,-414.48 94.5,-404.48 87.5,-404.48"/>
</g>
</g>
</svg>
