<?xml version="1.0" encoding="UTF-8" standalone="no"?>
<!DOCTYPE svg PUBLIC "-//W3C//DTD SVG 1.1//EN"
 "http://www.w3.org/Graphics/SVG/1.1/DTD/svg11.dtd">
<!-- Generated by graphviz version 2.43.0 (0)
 -->
<!-- Title: bot.BotManager.run Pages: 1 -->
<svg width="850pt" height="64pt"
 viewBox="0.00 0.00 850.00 64.00" xmlns="http://www.w3.org/2000/svg" xmlns:xlink="http://www.w3.org/1999/xlink">
<g id="graph0" class="graph" transform="scale(1 1) rotate(0) translate(4 60)">
<title>bot.BotManager.run</title>
<!-- Node1 -->
<g id="Node000001" class="node">
<title>Node1</title>
<g id="a_Node000001"><a xlink:title=" ">
<polygon fill="#999999" stroke="#666666" points="113,-37 0,-37 0,-18 113,-18 113,-37"/>
<text text-anchor="middle" x="56.5" y="-25" font-family="Helvetica,sans-Serif" font-size="10.00">bot.BotManager.run</text>
</a>
</g>
</g>
<!-- Node2 -->
<g id="Node000002" class="node">
<title>Node2</title>
<g id="a_Node000002"><a xlink:href="classbot_1_1BotManager.html#ad22b0997528b8f1d1903733008df541d" target="_top" xlink:title=" ">
<polygon fill="white" stroke="#666666" points="289,-42.5 149,-42.5 149,-12.5 289,-12.5 289,-42.5"/>
<text text-anchor="start" x="157" y="-30.5" font-family="Helvetica,sans-Serif" font-size="10.00">bot.BotManager.maintain</text>
<text text-anchor="middle" x="219" y="-19.5" font-family="Helvetica,sans-Serif" font-size="10.00">_alive_bots</text>
</a>
</g>
</g>
<!-- Node1&#45;&gt;Node2 -->
<g id="edge1_Node000001_Node000002" class="edge">
<title>Node1&#45;&gt;Node2</title>
<g id="a_edge1_Node000001_Node000002"><a xlink:title=" ">
<path fill="none" stroke="#63b8ff" d="M113.18,-27.5C121.45,-27.5 130.1,-27.5 138.73,-27.5"/>
<polygon fill="#63b8ff" stroke="#63b8ff" points="138.84,-31 148.84,-27.5 138.84,-24 138.84,-31"/>
</a>
</g>
</g>
<!-- Node3 -->
<g id="Node000003" class="node">
<title>Node3</title>
<g id="a_Node000003"><a xlink:href="classbot_1_1BotManager.html#a6277812686ae6ccc51f8663ec760df8a" target="_top" xlink:title=" ">
<polygon fill="white" stroke="#666666" points="470,-42.5 325,-42.5 325,-12.5 470,-12.5 470,-42.5"/>
<text text-anchor="start" x="333" y="-30.5" font-family="Helvetica,sans-Serif" font-size="10.00">bot.BotManager.terminate</text>
<text text-anchor="middle" x="397.5" y="-19.5" font-family="Helvetica,sans-Serif" font-size="10.00">_and_restart_bot</text>
</a>
</g>
</g>
<!-- Node2&#45;&gt;Node3 -->
<g id="edge2_Node000002_Node000003" class="edge">
<title>Node2&#45;&gt;Node3</title>
<g id="a_edge2_Node000002_Node000003"><a xlink:title=" ">
<path fill="none" stroke="#63b8ff" d="M289.25,-27.5C297.56,-27.5 306.1,-27.5 314.57,-27.5"/>
<polygon fill="#63b8ff" stroke="#63b8ff" points="314.83,-31 324.83,-27.5 314.83,-24 314.83,-31"/>
</a>
</g>
</g>
<!-- Node4 -->
<g id="Node000004" class="node">
<title>Node4</title>
<g id="a_Node000004"><a xlink:href="classbot_1_1BotManager.html#a2e8fcc3964b3cbe2c48869dc86bfa960" target="_top" xlink:title=" ">
<polygon fill="white" stroke="#666666" points="663.5,-56 514.5,-56 514.5,-37 663.5,-37 663.5,-56"/>
<text text-anchor="middle" x="589" y="-44" font-family="Helvetica,sans-Serif" font-size="10.00">bot.BotManager.create_bot</text>
</a>
</g>
</g>
<!-- Node3&#45;&gt;Node4 -->
<g id="edge3_Node000003_Node000004" class="edge">
<title>Node3&#45;&gt;Node4</title>
<g id="a_edge3_Node000003_Node000004"><a xlink:title=" ">
<path fill="none" stroke="#63b8ff" d="M470.14,-34.68C481.33,-35.8 492.97,-36.97 504.4,-38.12"/>
<polygon fill="#63b8ff" stroke="#63b8ff" points="504.07,-41.6 514.37,-39.12 504.76,-34.64 504.07,-41.6"/>
</a>
</g>
</g>
<!-- Node5 -->
<g id="Node000005" class="node">
<title>Node5</title>
<g id="a_Node000005"><a xlink:href="classbot_1_1BotManager.html#ab182740bcd7d17cd006588194fe9b376" target="_top" xlink:title=" ">
<polygon fill="white" stroke="#666666" points="672,-19 506,-19 506,0 672,0 672,-19"/>
<text text-anchor="middle" x="589" y="-7" font-family="Helvetica,sans-Serif" font-size="10.00">bot.BotManager.terminate_bot</text>
</a>
</g>
</g>
<!-- Node3&#45;&gt;Node5 -->
<g id="edge4_Node000003_Node000005" class="edge">
<title>Node3&#45;&gt;Node5</title>
<g id="a_edge4_Node000003_Node000005"><a xlink:title=" ">
<path fill="none" stroke="#63b8ff" d="M470.14,-20.69C478.5,-19.9 487.12,-19.08 495.71,-18.27"/>
<polygon fill="#63b8ff" stroke="#63b8ff" points="496.14,-21.74 505.77,-17.31 495.48,-14.77 496.14,-21.74"/>
</a>
</g>
</g>
<!-- Node6 -->
<g id="Node000006" class="node">
<title>Node6</title>
<g id="a_Node000006"><a xlink:href="classbot_1_1BotManager.html#a4b75202a45c9088324f8c1a6f800e76f" target="_top" xlink:title=" ">
<polygon fill="white" stroke="#666666" points="842,-19 708,-19 708,0 842,0 842,-19"/>
<text text-anchor="middle" x="775" y="-7" font-family="Helvetica,sans-Serif" font-size="10.00">bot.BotManager.get_bot</text>
</a>
</g>
</g>
<!-- Node5&#45;&gt;Node6 -->
<g id="edge5_Node000005_Node000006" class="edge">
<title>Node5&#45;&gt;Node6</title>
<g id="a_edge5_Node000005_Node000006"><a xlink:title=" ">
<path fill="none" stroke="#63b8ff" d="M672.04,-9.5C680.56,-9.5 689.19,-9.5 697.64,-9.5"/>
<polygon fill="#63b8ff" stroke="#63b8ff" points="697.84,-13 707.84,-9.5 697.84,-6 697.84,-13"/>
</a>
</g>
</g>
</g>
</svg>
