<?xml version="1.0" encoding="UTF-8" standalone="no"?>
<!DOCTYPE svg PUBLIC "-//W3C//DTD SVG 1.1//EN"
 "http://www.w3.org/Graphics/SVG/1.1/DTD/svg11.dtd">
<!-- Generated by graphviz version 2.43.0 (0)
 -->
<!-- Title: bot.BotMessageQueueException Pages: 1 -->
<svg width="574pt" height="739pt"
 viewBox="0.00 0.00 573.50 739.00" xmlns="http://www.w3.org/2000/svg" xmlns:xlink="http://www.w3.org/1999/xlink">
<g id="graph0" class="graph" transform="scale(1 1) rotate(0) translate(4 735)">
<title>bot.BotMessageQueueException</title>
<!-- Node1 -->
<g id="Node000001" class="node">
<title>Node1</title>
<g id="a_Node000001"><a xlink:title=" ">
<polygon fill="#999999" stroke="transparent" points="347.5,-145 178.5,-145 178.5,-96 347.5,-96 347.5,-145"/>
<text text-anchor="start" x="184" y="-132.5" font-family="Helvetica,sans-Serif" font-size="10.00">bot.BotMessageQueueException</text>
<text text-anchor="start" x="261.5" y="-117.5" font-family="Helvetica,sans-Serif" font-size="10.00"> </text>
<text text-anchor="start" x="261.5" y="-102.5" font-family="Helvetica,sans-Serif" font-size="10.00"> </text>
<polygon fill="#666666" stroke="#666666" points="179,-127.5 179,-127.5 348,-127.5 348,-127.5 179,-127.5"/>
<polygon fill="#666666" stroke="#666666" points="179,-112.5 179,-112.5 348,-112.5 348,-112.5 179,-112.5"/>
<polygon fill="none" stroke="#666666" points="178.5,-96 178.5,-145 347.5,-145 347.5,-96 178.5,-96"/>
</a>
</g>
</g>
<!-- Node6 -->
<g id="Node000006" class="node">
<title>Node6</title>
<g id="a_Node000006"><a xlink:href="classbot_1_1BotMessageQueueEmptyException.html" target="_top" xlink:title=" ">
<polygon fill="white" stroke="transparent" points="152,-60 0,-60 0,0 152,0 152,-60"/>
<text text-anchor="start" x="5" y="-48" font-family="Helvetica,sans-Serif" font-size="10.00">bot.BotMessageQueueEmpty</text>
<text text-anchor="start" x="51.5" y="-37" font-family="Helvetica,sans-Serif" font-size="10.00">Exception</text>
<text text-anchor="start" x="74" y="-22" font-family="Helvetica,sans-Serif" font-size="10.00"> </text>
<text text-anchor="start" x="74" y="-7" font-family="Helvetica,sans-Serif" font-size="10.00"> </text>
<polygon fill="#666666" stroke="#666666" points="0,-32 0,-32 152,-32 152,-32 0,-32"/>
<polygon fill="#666666" stroke="#666666" points="0,-17 0,-17 152,-17 152,-17 0,-17"/>
<polygon fill="none" stroke="#666666" points="0,0 0,-60 152,-60 152,0 0,0"/>
</a>
</g>
</g>
<!-- Node1&#45;&gt;Node6 -->
<g id="edge5_Node000001_Node000006" class="edge">
<title>Node1&#45;&gt;Node6</title>
<g id="a_edge5_Node000001_Node000006"><a xlink:title=" ">
<path fill="none" stroke="#63b8ff" d="M203.72,-91.45C182.65,-81.47 158.88,-70.22 137.61,-60.16"/>
<polygon fill="none" stroke="#63b8ff" points="202.35,-94.67 212.89,-95.78 205.35,-88.34 202.35,-94.67"/>
</a>
</g>
</g>
<!-- Node7 -->
<g id="Node000007" class="node">
<title>Node7</title>
<g id="a_Node000007"><a xlink:href="classbot_1_1BotMessageQueueFullException.html" target="_top" xlink:title=" ">
<polygon fill="white" stroke="transparent" points="356,-54.5 170,-54.5 170,-5.5 356,-5.5 356,-54.5"/>
<text text-anchor="start" x="175" y="-42" font-family="Helvetica,sans-Serif" font-size="10.00">bot.BotMessageQueueFullException</text>
<text text-anchor="start" x="261" y="-27" font-family="Helvetica,sans-Serif" font-size="10.00"> </text>
<text text-anchor="start" x="261" y="-12" font-family="Helvetica,sans-Serif" font-size="10.00"> </text>
<polygon fill="#666666" stroke="#666666" points="170,-37 170,-37 356,-37 356,-37 170,-37"/>
<polygon fill="#666666" stroke="#666666" points="170,-22 170,-22 356,-22 356,-22 170,-22"/>
<polygon fill="none" stroke="#666666" points="170,-5.5 170,-54.5 356,-54.5 356,-5.5 170,-5.5"/>
</a>
</g>
</g>
<!-- Node1&#45;&gt;Node7 -->
<g id="edge6_Node000001_Node000007" class="edge">
<title>Node1&#45;&gt;Node7</title>
<g id="a_edge6_Node000001_Node000007"><a xlink:title=" ">
<path fill="none" stroke="#63b8ff" d="M263,-85.48C263,-75.24 263,-64.21 263,-54.78"/>
<polygon fill="none" stroke="#63b8ff" points="259.5,-85.78 263,-95.78 266.5,-85.78 259.5,-85.78"/>
</a>
</g>
</g>
<!-- Node8 -->
<g id="Node000008" class="node">
<title>Node8</title>
<g id="a_Node000008"><a xlink:href="classbot_1_1BotMessageQueueLockException.html" target="_top" xlink:title=" ">
<polygon fill="white" stroke="transparent" points="565.5,-54.5 374.5,-54.5 374.5,-5.5 565.5,-5.5 565.5,-54.5"/>
<text text-anchor="start" x="380" y="-42" font-family="Helvetica,sans-Serif" font-size="10.00">bot.BotMessageQueueLockException</text>
<text text-anchor="start" x="468.5" y="-27" font-family="Helvetica,sans-Serif" font-size="10.00"> </text>
<text text-anchor="start" x="468.5" y="-12" font-family="Helvetica,sans-Serif" font-size="10.00"> </text>
<polygon fill="#666666" stroke="#666666" points="375,-37 375,-37 566,-37 566,-37 375,-37"/>
<polygon fill="#666666" stroke="#666666" points="375,-22 375,-22 566,-22 566,-22 375,-22"/>
<polygon fill="none" stroke="#666666" points="374.5,-5.5 374.5,-54.5 565.5,-54.5 565.5,-5.5 374.5,-5.5"/>
</a>
</g>
</g>
<!-- Node1&#45;&gt;Node8 -->
<g id="edge7_Node000001_Node000008" class="edge">
<title>Node1&#45;&gt;Node8</title>
<g id="a_edge7_Node000001_Node000008"><a xlink:title=" ">
<path fill="none" stroke="#63b8ff" d="M327.52,-91.91C355.56,-79.93 388.07,-66.03 414.95,-54.53"/>
<polygon fill="none" stroke="#63b8ff" points="326.02,-88.75 318.2,-95.9 328.77,-95.19 326.02,-88.75"/>
</a>
</g>
</g>
<!-- Node2 -->
<g id="Node000002" class="node">
<title>Node2</title>
<g id="a_Node000002"><a xlink:href="classbot_1_1BotMessageException.html" target="_top" xlink:title=" ">
<polygon fill="white" stroke="transparent" points="331.5,-230 194.5,-230 194.5,-181 331.5,-181 331.5,-230"/>
<text text-anchor="start" x="200" y="-217.5" font-family="Helvetica,sans-Serif" font-size="10.00">bot.BotMessageException</text>
<text text-anchor="start" x="261.5" y="-202.5" font-family="Helvetica,sans-Serif" font-size="10.00"> </text>
<text text-anchor="start" x="261.5" y="-187.5" font-family="Helvetica,sans-Serif" font-size="10.00"> </text>
<polygon fill="#666666" stroke="#666666" points="195,-212.5 195,-212.5 332,-212.5 332,-212.5 195,-212.5"/>
<polygon fill="#666666" stroke="#666666" points="195,-197.5 195,-197.5 332,-197.5 332,-197.5 195,-197.5"/>
<polygon fill="none" stroke="#666666" points="194.5,-181 194.5,-230 331.5,-230 331.5,-181 194.5,-181"/>
</a>
</g>
</g>
<!-- Node2&#45;&gt;Node1 -->
<g id="edge1_Node000001_Node000002" class="edge">
<title>Node2&#45;&gt;Node1</title>
<g id="a_edge1_Node000001_Node000002"><a xlink:title=" ">
<path fill="none" stroke="#63b8ff" d="M263,-170.77C263,-162.17 263,-153.1 263,-145.12"/>
<polygon fill="none" stroke="#63b8ff" points="259.5,-170.94 263,-180.94 266.5,-170.94 259.5,-170.94"/>
</a>
</g>
</g>
<!-- Node3 -->
<g id="Node000003" class="node">
<title>Node3</title>
<g id="a_Node000003"><a xlink:href="classbot_1_1BotException.html" target="_top" xlink:title=" ">
<polygon fill="white" stroke="transparent" points="310,-315 216,-315 216,-266 310,-266 310,-315"/>
<text text-anchor="start" x="221" y="-302.5" font-family="Helvetica,sans-Serif" font-size="10.00">bot.BotException</text>
<text text-anchor="start" x="261" y="-287.5" font-family="Helvetica,sans-Serif" font-size="10.00"> </text>
<text text-anchor="start" x="261" y="-272.5" font-family="Helvetica,sans-Serif" font-size="10.00"> </text>
<polygon fill="#666666" stroke="#666666" points="216,-297.5 216,-297.5 310,-297.5 310,-297.5 216,-297.5"/>
<polygon fill="#666666" stroke="#666666" points="216,-282.5 216,-282.5 310,-282.5 310,-282.5 216,-282.5"/>
<polygon fill="none" stroke="#666666" points="216,-266 216,-315 310,-315 310,-266 216,-266"/>
</a>
</g>
</g>
<!-- Node3&#45;&gt;Node2 -->
<g id="edge2_Node000002_Node000003" class="edge">
<title>Node3&#45;&gt;Node2</title>
<g id="a_edge2_Node000002_Node000003"><a xlink:title=" ">
<path fill="none" stroke="#63b8ff" d="M263,-255.77C263,-247.17 263,-238.1 263,-230.12"/>
<polygon fill="none" stroke="#63b8ff" points="259.5,-255.94 263,-265.94 266.5,-255.94 259.5,-255.94"/>
</a>
</g>
</g>
<!-- Node4 -->
<g id="Node000004" class="node">
<title>Node4</title>
<g id="a_Node000004"><a xlink:href="classexception_1_1ChatbotException.html" target="_top" xlink:title=" ">
<polygon fill="white" stroke="transparent" points="388,-646 138,-646 138,-351 388,-351 388,-646"/>
<text text-anchor="start" x="194" y="-633.5" font-family="Helvetica,sans-Serif" font-size="10.00">exception.ChatbotException</text>
<text text-anchor="start" x="142" y="-618.5" font-family="Helvetica,sans-Serif" font-size="10.00">+</text>
<text text-anchor="start" x="155" y="-618.5" font-family="Helvetica,sans-Serif" font-size="10.00">cause</text>
<text text-anchor="start" x="142" y="-603.5" font-family="Helvetica,sans-Serif" font-size="10.00">+</text>
<text text-anchor="start" x="155" y="-603.5" font-family="Helvetica,sans-Serif" font-size="10.00">code</text>
<text text-anchor="start" x="142" y="-588.5" font-family="Helvetica,sans-Serif" font-size="10.00">+</text>
<text text-anchor="start" x="155" y="-588.5" font-family="Helvetica,sans-Serif" font-size="10.00">filename</text>
<text text-anchor="start" x="142" y="-573.5" font-family="Helvetica,sans-Serif" font-size="10.00">+</text>
<text text-anchor="start" x="155" y="-573.5" font-family="Helvetica,sans-Serif" font-size="10.00">lineno</text>
<text text-anchor="start" x="142" y="-558.5" font-family="Helvetica,sans-Serif" font-size="10.00">+</text>
<text text-anchor="start" x="155" y="-558.5" font-family="Helvetica,sans-Serif" font-size="10.00">message</text>
<text text-anchor="start" x="142" y="-543.5" font-family="Helvetica,sans-Serif" font-size="10.00">+</text>
<text text-anchor="start" x="155" y="-543.5" font-family="Helvetica,sans-Serif" font-size="10.00">severity</text>
<text text-anchor="start" x="142" y="-528.5" font-family="Helvetica,sans-Serif" font-size="10.00">+</text>
<text text-anchor="start" x="155" y="-528.5" font-family="Helvetica,sans-Serif" font-size="10.00">traceback</text>
<text text-anchor="start" x="142" y="-513.5" font-family="Helvetica,sans-Serif" font-size="10.00">+</text>
<text text-anchor="start" x="155" y="-513.5" font-family="Helvetica,sans-Serif" font-size="10.00">type</text>
<text text-anchor="start" x="142" y="-498.5" font-family="Helvetica,sans-Serif" font-size="10.00">+</text>
<text text-anchor="start" x="155" y="-498.5" font-family="Helvetica,sans-Serif" font-size="10.00">SEVERITY_TO_LOGGING</text>
<text text-anchor="start" x="142" y="-483.5" font-family="Helvetica,sans-Serif" font-size="10.00">+</text>
<text text-anchor="start" x="155" y="-483.5" font-family="Helvetica,sans-Serif" font-size="10.00">__init__(self, &quot;Chatbot</text>
<text text-anchor="start" x="155" y="-472.5" font-family="Helvetica,sans-Serif" font-size="10.00">Exception.ChatbotExceptionCode&quot;</text>
<text text-anchor="start" x="155" y="-461.5" font-family="Helvetica,sans-Serif" font-size="10.00"> code=None, str message=None,</text>
<text text-anchor="start" x="155" y="-450.5" font-family="Helvetica,sans-Serif" font-size="10.00"> &quot;ChatbotException.ChatbotExceptionSeverity&quot;</text>
<text text-anchor="start" x="155" y="-439.5" font-family="Helvetica,sans-Serif" font-size="10.00"> severity=None, str filename=None, int</text>
<text text-anchor="start" x="155" y="-428.5" font-family="Helvetica,sans-Serif" font-size="10.00"> lineno=None, Exception cause=None, bool</text>
<text text-anchor="start" x="155" y="-417.5" font-family="Helvetica,sans-Serif" font-size="10.00"> include_trace=True)</text>
<text text-anchor="start" x="142" y="-402.5" font-family="Helvetica,sans-Serif" font-size="10.00">+</text>
<text text-anchor="start" x="155" y="-402.5" font-family="Helvetica,sans-Serif" font-size="10.00">__repr__(self)</text>
<text text-anchor="start" x="142" y="-387.5" font-family="Helvetica,sans-Serif" font-size="10.00">+</text>
<text text-anchor="start" x="155" y="-387.5" font-family="Helvetica,sans-Serif" font-size="10.00">__str__(self)</text>
<text text-anchor="start" x="142" y="-372.5" font-family="Helvetica,sans-Serif" font-size="10.00">+</text>
<text text-anchor="start" x="155" y="-372.5" font-family="Helvetica,sans-Serif" font-size="10.00">to_dict(self)</text>
<text text-anchor="start" x="142" y="-357.5" font-family="Helvetica,sans-Serif" font-size="10.00">+</text>
<text text-anchor="start" x="155" y="-357.5" font-family="Helvetica,sans-Serif" font-size="10.00">to_json(self)</text>
<polygon fill="#666666" stroke="#666666" points="138,-628.5 138,-628.5 388,-628.5 388,-628.5 138,-628.5"/>
<polygon fill="#666666" stroke="#666666" points="138,-493.5 138,-493.5 153,-493.5 153,-493.5 138,-493.5"/>
<polygon fill="#666666" stroke="#666666" points="153,-493.5 153,-493.5 388,-493.5 388,-493.5 153,-493.5"/>
<polygon fill="none" stroke="#666666" points="138,-351 138,-646 388,-646 388,-351 138,-351"/>
</a>
</g>
</g>
<!-- Node4&#45;&gt;Node3 -->
<g id="edge3_Node000003_Node000004" class="edge">
<title>Node4&#45;&gt;Node3</title>
<g id="a_edge3_Node000003_Node000004"><a xlink:title=" ">
<path fill="none" stroke="#63b8ff" d="M263,-340.58C263,-331.04 263,-322.35 263,-315.04"/>
<polygon fill="none" stroke="#63b8ff" points="259.5,-340.81 263,-350.81 266.5,-340.81 259.5,-340.81"/>
</a>
</g>
</g>
<!-- Node5 -->
<g id="Node000005" class="node">
<title>Node5</title>
<g id="a_Node000005"><a xlink:title=" ">
<polygon fill="white" stroke="transparent" points="292.5,-731 233.5,-731 233.5,-682 292.5,-682 292.5,-731"/>
<text text-anchor="start" x="239" y="-718.5" font-family="Helvetica,sans-Serif" font-size="10.00">Exception</text>
<text text-anchor="start" x="261.5" y="-703.5" font-family="Helvetica,sans-Serif" font-size="10.00"> </text>
<text text-anchor="start" x="261.5" y="-688.5" font-family="Helvetica,sans-Serif" font-size="10.00"> </text>
<polygon fill="#666666" stroke="#666666" points="234,-713.5 234,-713.5 293,-713.5 293,-713.5 234,-713.5"/>
<polygon fill="#666666" stroke="#666666" points="234,-698.5 234,-698.5 293,-698.5 293,-698.5 234,-698.5"/>
<polygon fill="none" stroke="#666666" points="233.5,-682 233.5,-731 292.5,-731 292.5,-682 233.5,-682"/>
</a>
</g>
</g>
<!-- Node5&#45;&gt;Node4 -->
<g id="edge4_Node000004_Node000005" class="edge">
<title>Node5&#45;&gt;Node4</title>
<g id="a_edge4_Node000004_Node000005"><a xlink:title=" ">
<path fill="none" stroke="#63b8ff" d="M263,-671.71C263,-664.05 263,-655.44 263,-646.26"/>
<polygon fill="none" stroke="#63b8ff" points="259.5,-671.87 263,-681.87 266.5,-671.87 259.5,-671.87"/>
</a>
</g>
</g>
</g>
</svg>
