<?xml version="1.0" encoding="UTF-8" standalone="no"?>
<!DOCTYPE svg PUBLIC "-//W3C//DTD SVG 1.1//EN"
 "http://www.w3.org/Graphics/SVG/1.1/DTD/svg11.dtd">
<!-- Generated by graphviz version 2.43.0 (0)
 -->
<!-- Title: bot.BotManager.maintain_alive_bots Pages: 1 -->
<svg width="704pt" height="66pt"
 viewBox="0.00 0.00 704.00 66.00" xmlns="http://www.w3.org/2000/svg" xmlns:xlink="http://www.w3.org/1999/xlink">
<g id="graph0" class="graph" transform="scale(1 1) rotate(0) translate(4 62)">
<title>bot.BotManager.maintain_alive_bots</title>
<!-- Node1 -->
<g id="node1" class="node">
<title>Node1</title>
<g id="a_node1"><a xlink:title=" ">
<polygon fill="#bfbfbf" stroke="black" points="0,-14 0,-44 141,-44 141,-14 0,-14"/>
<text text-anchor="start" x="8" y="-32" font-family="Helvetica,sans-Serif" font-size="10.00">bot.BotManager.maintain</text>
<text text-anchor="middle" x="70.5" y="-21" font-family="Helvetica,sans-Serif" font-size="10.00">_alive_bots</text>
</a>
</g>
</g>
<!-- Node2 -->
<g id="node2" class="node">
<title>Node2</title>
<g id="a_node2"><a xlink:href="classbot_1_1BotManager.html#a6277812686ae6ccc51f8663ec760df8a" target="_top" xlink:title=" ">
<polygon fill="none" stroke="black" points="177,-14 177,-44 323,-44 323,-14 177,-14"/>
<text text-anchor="start" x="185" y="-32" font-family="Helvetica,sans-Serif" font-size="10.00">bot.BotManager.terminate</text>
<text text-anchor="middle" x="250" y="-21" font-family="Helvetica,sans-Serif" font-size="10.00">_and_restart_bot</text>
</a>
</g>
</g>
<!-- Node1&#45;&gt;Node2 -->
<g id="edge1" class="edge">
<title>Node1&#45;&gt;Node2</title>
<path fill="none" stroke="midnightblue" d="M141.14,-29C149.59,-29 158.28,-29 166.88,-29"/>
<polygon fill="midnightblue" stroke="midnightblue" points="166.93,-32.5 176.93,-29 166.93,-25.5 166.93,-32.5"/>
</g>
<!-- Node3 -->
<g id="node3" class="node">
<title>Node3</title>
<g id="a_node3"><a xlink:href="classbot_1_1BotManager.html#a2e8fcc3964b3cbe2c48869dc86bfa960" target="_top" xlink:title=" ">
<polygon fill="none" stroke="black" points="368,-38.5 368,-57.5 517,-57.5 517,-38.5 368,-38.5"/>
<text text-anchor="middle" x="442.5" y="-45.5" font-family="Helvetica,sans-Serif" font-size="10.00">bot.BotManager.create_bot</text>
</a>
</g>
</g>
<!-- Node2&#45;&gt;Node3 -->
<g id="edge2" class="edge">
<title>Node2&#45;&gt;Node3</title>
<path fill="none" stroke="midnightblue" d="M323.02,-36.18C334.35,-37.31 346.14,-38.49 357.71,-39.64"/>
<polygon fill="midnightblue" stroke="midnightblue" points="357.5,-43.14 367.79,-40.65 358.19,-36.17 357.5,-43.14"/>
</g>
<!-- Node4 -->
<g id="node4" class="node">
<title>Node4</title>
<g id="a_node4"><a xlink:href="classbot_1_1BotManager.html#a6c4d0cf24bbffdb34c08b2385699edde" target="_top" xlink:title=" ">
<polygon fill="none" stroke="black" points="359,-0.5 359,-19.5 526,-19.5 526,-0.5 359,-0.5"/>
<text text-anchor="middle" x="442.5" y="-7.5" font-family="Helvetica,sans-Serif" font-size="10.00">bot.BotManager.terminate_bot</text>
</a>
</g>
</g>
<!-- Node2&#45;&gt;Node4 -->
<g id="edge3" class="edge">
<title>Node2&#45;&gt;Node4</title>
<path fill="none" stroke="midnightblue" d="M323.02,-21.82C331.43,-20.98 340.09,-20.11 348.73,-19.25"/>
<polygon fill="midnightblue" stroke="midnightblue" points="349.23,-22.72 358.83,-18.24 348.54,-15.75 349.23,-22.72"/>
</g>
<!-- Node5 -->
<g id="node5" class="node">
<title>Node5</title>
<g id="a_node5"><a xlink:href="classbot_1_1BotManager.html#a4b75202a45c9088324f8c1a6f800e76f" target="_top" xlink:title=" ">
<polygon fill="none" stroke="black" points="562,-0.5 562,-19.5 696,-19.5 696,-0.5 562,-0.5"/>
<text text-anchor="middle" x="629" y="-7.5" font-family="Helvetica,sans-Serif" font-size="10.00">bot.BotManager.get_bot</text>
</a>
</g>
</g>
<!-- Node4&#45;&gt;Node5 -->
<g id="edge4" class="edge">
<title>Node4&#45;&gt;Node5</title>
<path fill="none" stroke="midnightblue" d="M526.04,-10C534.56,-10 543.2,-10 551.66,-10"/>
<polygon fill="midnightblue" stroke="midnightblue" points="551.86,-13.5 561.86,-10 551.86,-6.5 551.86,-13.5"/>
</g>
</g>
</svg>
