<?xml version="1.0" encoding="UTF-8" standalone="no"?>
<!DOCTYPE svg PUBLIC "-//W3C//DTD SVG 1.1//EN"
 "http://www.w3.org/Graphics/SVG/1.1/DTD/svg11.dtd">
<!-- Generated by graphviz version 2.43.0 (0)
 -->
<!-- Title: env.Env.__init__ Pages: 1 -->
<svg width="366pt" height="46pt"
 viewBox="0.00 0.00 366.00 46.00" xmlns="http://www.w3.org/2000/svg" xmlns:xlink="http://www.w3.org/1999/xlink">
<g id="graph0" class="graph" transform="scale(1 1) rotate(0) translate(4 42)">
<title>env.Env.__init__</title>
<!-- Node1 -->
<g id="Node000001" class="node">
<title>Node1</title>
<g id="a_Node000001"><a xlink:title=" ">
<polygon fill="#999999" stroke="#666666" points="94,-19 0,-19 0,0 94,0 94,-19"/>
<text text-anchor="middle" x="47" y="-7" font-family="Helvetica,sans-Serif" font-size="10.00">env.Env.__init__</text>
</a>
</g>
</g>
<!-- Node2 -->
<g id="Node000002" class="node">
<title>Node2</title>
<g id="a_Node000002"><a xlink:href="classenv_1_1Env.html#ae17cf8ec7a1ecde876c6d7f4df2c48dd" target="_top" xlink:title=" ">
<polygon fill="white" stroke="#666666" points="226,-38 130,-38 130,-19 226,-19 226,-38"/>
<text text-anchor="middle" x="178" y="-26" font-family="Helvetica,sans-Serif" font-size="10.00">env.Env._get_int</text>
</a>
</g>
</g>
<!-- Node1&#45;&gt;Node2 -->
<g id="edge1_Node000001_Node000002" class="edge">
<title>Node1&#45;&gt;Node2</title>
<g id="a_edge1_Node000001_Node000002"><a xlink:title=" ">
<path fill="none" stroke="#63b8ff" d="M94.21,-16.31C102.52,-17.53 111.28,-18.82 119.86,-20.08"/>
<polygon fill="#63b8ff" stroke="#63b8ff" points="119.41,-23.56 129.81,-21.55 120.43,-16.63 119.41,-23.56"/>
</a>
</g>
</g>
<!-- Node3 -->
<g id="Node000003" class="node">
<title>Node3</title>
<g id="a_Node000003"><a xlink:href="classenv_1_1Env.html#a9746e9e625cdf0e56f542f217639325a" target="_top" xlink:title=" ">
<polygon fill="white" stroke="#666666" points="358,-19 262,-19 262,0 358,0 358,-19"/>
<text text-anchor="middle" x="310" y="-7" font-family="Helvetica,sans-Serif" font-size="10.00">env.Env._get_str</text>
</a>
</g>
</g>
<!-- Node1&#45;&gt;Node3 -->
<g id="edge3_Node000001_Node000003" class="edge">
<title>Node1&#45;&gt;Node3</title>
<g id="a_edge3_Node000001_Node000003"><a xlink:title=" ">
<path fill="none" stroke="#63b8ff" d="M94.06,-9.5C137.96,-9.5 204.21,-9.5 251.54,-9.5"/>
<polygon fill="#63b8ff" stroke="#63b8ff" points="251.64,-13 261.64,-9.5 251.64,-6 251.64,-13"/>
</a>
</g>
</g>
<!-- Node2&#45;&gt;Node3 -->
<g id="edge2_Node000002_Node000003" class="edge">
<title>Node2&#45;&gt;Node3</title>
<g id="a_edge2_Node000002_Node000003"><a xlink:title=" ">
<path fill="none" stroke="#63b8ff" d="M226.3,-21.59C234.65,-20.37 243.42,-19.08 252,-17.83"/>
<polygon fill="#63b8ff" stroke="#63b8ff" points="252.56,-21.29 261.95,-16.38 251.55,-14.36 252.56,-21.29"/>
</a>
</g>
</g>
</g>
</svg>
