<?xml version="1.0" encoding="UTF-8" standalone="no"?>
<!DOCTYPE svg PUBLIC "-//W3C//DTD SVG 1.1//EN"
 "http://www.w3.org/Graphics/SVG/1.1/DTD/svg11.dtd">
<!-- Generated by graphviz version 2.43.0 (0)
 -->
<!-- Title: web_server.WebAppException Pages: 1 -->
<!--zoomable 569 -->

<svg id="main" version="1.1" xmlns="http://www.w3.org/2000/svg" xmlns:xlink="http://www.w3.org/1999/xlink" xml:space="preserve" onload="init(evt)">
<style type="text/css"><![CDATA[
.node, .edge {opacity: 0.7;}
.node.selected, .edge.selected {opacity: 1;}
.edge:hover path { stroke: red; }
.edge:hover polygon { stroke: red; fill: red; }
]]></style>

<defs>
  <circle id="rim" cx="0" cy="0" r="7"/>
  <circle id="rim2" cx="0" cy="0" r="3.5"/>
  <g id="zoomPlus">
    <use xlink:href="#rim" fill="#404040"><set attributeName="fill" to="#808080" begin="zoomplus.mouseover" end="zoomplus.mouseout"/></use>
    <path d="M-4,0h8M0,-4v8" fill="none" stroke="white" stroke-width="1.5" pointer-events="none"/>
  </g>
  <g id="zoomMin">
    <use xlink:href="#rim" fill="#404040"><set attributeName="fill" to="#808080" begin="zoomminus.mouseover" end="zoomminus.mouseout"/></use>
    <path d="M-4,0h8" fill="none" stroke="white" stroke-width="1.5" pointer-events="none"/>
  </g>
  <g id="arrowUp" transform="translate(30 24)">
    <use xlink:href="#rim"/>
    <path pointer-events="none" fill="none" stroke="white" stroke-width="1.5" d="M0,-3.0v7 M-2.5,-0.5L0,-3.0L2.5,-0.5"/>
  </g>
  <g id="arrowRight" transform="rotate(90) translate(36 -43)">
    <use xlink:href="#rim"/>
    <path pointer-events="none" fill="none" stroke="white" stroke-width="1.5" d="M0,-3.0v7 M-2.5,-0.5L0,-3.0L2.5,-0.5"/>
  </g>
  <g id="arrowDown" transform="rotate(180) translate(-30 -48)">
    <use xlink:href="#rim"/>
    <path pointer-events="none" fill="none" stroke="white" stroke-width="1.5" d="M0,-3.0v7 M-2.5,-0.5L0,-3.0L2.5,-0.5"/>
  </g>
  <g id="arrowLeft" transform="rotate(270) translate(-36 17)">
    <use xlink:href="#rim"/>
    <path pointer-events="none" fill="none" stroke="white" stroke-width="1.5" d="M0,-3.0v7 M-2.5,-0.5L0,-3.0L2.5,-0.5"/>
  </g>
  <g id="resetDef">
    <use xlink:href="#rim2" fill="#404040"><set attributeName="fill" to="#808080" begin="reset.mouseover" end="reset.mouseout"/></use>
  </g>
</defs>
<script type="application/ecmascript">
var viewWidth = 975;
var viewHeight = 569;
var sectionId = 'dynsection-0';
</script>
<script type="application/ecmascript" xlink:href="svg.min.js"/>
<svg id="graph" class="graph">
<g id="viewport">
<title>web_server.WebAppException</title>
<!-- Node1 -->
<g id="Node000001" class="node">
<title>Node1</title>
<g id="a_Node000001"><a xlink:title=" ">
<polygon fill="#999999" stroke="transparent" points="554.5,-145 397.5,-145 397.5,-96 554.5,-96 554.5,-145"/>
<text text-anchor="start" x="403" y="-132.5" font-family="Helvetica,sans-Serif" font-size="10.00">web_server.WebAppException</text>
<text text-anchor="start" x="474.5" y="-117.5" font-family="Helvetica,sans-Serif" font-size="10.00"> </text>
<text text-anchor="start" x="474.5" y="-102.5" font-family="Helvetica,sans-Serif" font-size="10.00"> </text>
<polygon fill="#666666" stroke="#666666" points="398,-127.5 398,-127.5 555,-127.5 555,-127.5 398,-127.5"/>
<polygon fill="#666666" stroke="#666666" points="398,-112.5 398,-112.5 555,-112.5 555,-112.5 398,-112.5"/>
<polygon fill="none" stroke="#666666" points="397.5,-96 397.5,-145 554.5,-145 554.5,-96 397.5,-96"/>
</a>
</g>
</g>
<!-- Node4 -->
<g id="Node000004" class="node">
<title>Node4</title>
<g id="a_Node000004"><a xlink:href="classweb__server_1_1WebAppConfigurationException.html" target="_top" xlink:title=" ">
<polygon fill="white" stroke="transparent" points="174,-60 0,-60 0,0 174,0 174,-60"/>
<text text-anchor="start" x="5" y="-48" font-family="Helvetica,sans-Serif" font-size="10.00">web_server.WebAppConfiguration</text>
<text text-anchor="start" x="62.5" y="-37" font-family="Helvetica,sans-Serif" font-size="10.00">Exception</text>
<text text-anchor="start" x="85" y="-22" font-family="Helvetica,sans-Serif" font-size="10.00"> </text>
<text text-anchor="start" x="85" y="-7" font-family="Helvetica,sans-Serif" font-size="10.00"> </text>
<polygon fill="#666666" stroke="#666666" points="0,-32 0,-32 174,-32 174,-32 0,-32"/>
<polygon fill="#666666" stroke="#666666" points="0,-17 0,-17 174,-17 174,-17 0,-17"/>
<polygon fill="none" stroke="#666666" points="0,0 0,-60 174,-60 174,0 0,0"/>
</a>
</g>
</g>
<!-- Node1&#45;&gt;Node4 -->
<g id="edge3_Node000001_Node000004" class="edge">
<title>Node1&#45;&gt;Node4</title>
<g id="a_edge3_Node000001_Node000004"><a xlink:title=" ">
<path fill="none" stroke="#63b8ff" d="M387.28,-103.71C328.92,-92.77 251.04,-77.15 183,-60 180.05,-59.26 177.05,-58.48 174.02,-57.67"/>
<polygon fill="none" stroke="#63b8ff" points="386.73,-107.17 397.21,-105.56 388.02,-100.28 386.73,-107.17"/>
</a>
</g>
</g>
<!-- Node5 -->
<g id="Node000005" class="node">
<title>Node5</title>
<g id="a_Node000005"><a xlink:href="classweb__server_1_1WebAppRunException.html" target="_top" xlink:title=" ">
<polygon fill="white" stroke="transparent" points="368,-54.5 192,-54.5 192,-5.5 368,-5.5 368,-54.5"/>
<text text-anchor="start" x="197" y="-42" font-family="Helvetica,sans-Serif" font-size="10.00">web_server.WebAppRunException</text>
<text text-anchor="start" x="278" y="-27" font-family="Helvetica,sans-Serif" font-size="10.00"> </text>
<text text-anchor="start" x="278" y="-12" font-family="Helvetica,sans-Serif" font-size="10.00"> </text>
<polygon fill="#666666" stroke="#666666" points="192,-37 192,-37 368,-37 368,-37 192,-37"/>
<polygon fill="#666666" stroke="#666666" points="192,-22 192,-22 368,-22 368,-22 192,-22"/>
<polygon fill="none" stroke="#666666" points="192,-5.5 192,-54.5 368,-54.5 368,-5.5 192,-5.5"/>
</a>
</g>
</g>
<!-- Node1&#45;&gt;Node5 -->
<g id="edge4_Node000001_Node000005" class="edge">
<title>Node1&#45;&gt;Node5</title>
<g id="a_edge4_Node000001_Node000005"><a xlink:title=" ">
<path fill="none" stroke="#63b8ff" d="M414.56,-91.76C388.09,-79.8 357.46,-65.98 332.12,-54.53"/>
<polygon fill="none" stroke="#63b8ff" points="413.18,-94.97 423.73,-95.9 416.06,-88.59 413.18,-94.97"/>
</a>
</g>
</g>
<!-- Node6 -->
<g id="Node000006" class="node">
<title>Node6</title>
<g id="a_Node000006"><a xlink:href="classweb__server_1_1WebAppStartException.html" target="_top" xlink:title=" ">
<polygon fill="white" stroke="transparent" points="566,-54.5 386,-54.5 386,-5.5 566,-5.5 566,-54.5"/>
<text text-anchor="start" x="391" y="-42" font-family="Helvetica,sans-Serif" font-size="10.00">web_server.WebAppStartException</text>
<text text-anchor="start" x="474" y="-27" font-family="Helvetica,sans-Serif" font-size="10.00"> </text>
<text text-anchor="start" x="474" y="-12" font-family="Helvetica,sans-Serif" font-size="10.00"> </text>
<polygon fill="#666666" stroke="#666666" points="386,-37 386,-37 566,-37 566,-37 386,-37"/>
<polygon fill="#666666" stroke="#666666" points="386,-22 386,-22 566,-22 566,-22 386,-22"/>
<polygon fill="none" stroke="#666666" points="386,-5.5 386,-54.5 566,-54.5 566,-5.5 386,-5.5"/>
</a>
</g>
</g>
<!-- Node1&#45;&gt;Node6 -->
<g id="edge5_Node000001_Node000006" class="edge">
<title>Node1&#45;&gt;Node6</title>
<g id="a_edge5_Node000001_Node000006"><a xlink:title=" ">
<path fill="none" stroke="#63b8ff" d="M476,-85.48C476,-75.24 476,-64.21 476,-54.78"/>
<polygon fill="none" stroke="#63b8ff" points="472.5,-85.78 476,-95.78 479.5,-85.78 472.5,-85.78"/>
</a>
</g>
</g>
<!-- Node7 -->
<g id="Node000007" class="node">
<title>Node7</title>
<g id="a_Node000007"><a xlink:href="classweb__server_1_1WebAppStopException.html" target="_top" xlink:title=" ">
<polygon fill="white" stroke="transparent" points="763.5,-54.5 584.5,-54.5 584.5,-5.5 763.5,-5.5 763.5,-54.5"/>
<text text-anchor="start" x="590" y="-42" font-family="Helvetica,sans-Serif" font-size="10.00">web_server.WebAppStopException</text>
<text text-anchor="start" x="672.5" y="-27" font-family="Helvetica,sans-Serif" font-size="10.00"> </text>
<text text-anchor="start" x="672.5" y="-12" font-family="Helvetica,sans-Serif" font-size="10.00"> </text>
<polygon fill="#666666" stroke="#666666" points="585,-37 585,-37 764,-37 764,-37 585,-37"/>
<polygon fill="#666666" stroke="#666666" points="585,-22 585,-22 764,-22 764,-22 585,-22"/>
<polygon fill="none" stroke="#666666" points="584.5,-5.5 584.5,-54.5 763.5,-54.5 763.5,-5.5 584.5,-5.5"/>
</a>
</g>
</g>
<!-- Node1&#45;&gt;Node7 -->
<g id="edge6_Node000001_Node000007" class="edge">
<title>Node1&#45;&gt;Node7</title>
<g id="a_edge6_Node000001_Node000007"><a xlink:title=" ">
<path fill="none" stroke="#63b8ff" d="M538.07,-91.76C564.81,-79.8 595.75,-65.98 621.35,-54.53"/>
<polygon fill="none" stroke="#63b8ff" points="536.5,-88.62 528.8,-95.9 539.36,-95.01 536.5,-88.62"/>
</a>
</g>
</g>
<!-- Node8 -->
<g id="Node000008" class="node">
<title>Node8</title>
<g id="a_Node000008"><a xlink:href="classweb__server_1_1WebAppVerifyException.html" target="_top" xlink:title=" ">
<polygon fill="white" stroke="transparent" points="966.5,-54.5 781.5,-54.5 781.5,-5.5 966.5,-5.5 966.5,-54.5"/>
<text text-anchor="start" x="787" y="-42" font-family="Helvetica,sans-Serif" font-size="10.00">web_server.WebAppVerifyException</text>
<text text-anchor="start" x="872.5" y="-27" font-family="Helvetica,sans-Serif" font-size="10.00"> </text>
<text text-anchor="start" x="872.5" y="-12" font-family="Helvetica,sans-Serif" font-size="10.00"> </text>
<polygon fill="#666666" stroke="#666666" points="782,-37 782,-37 967,-37 967,-37 782,-37"/>
<polygon fill="#666666" stroke="#666666" points="782,-22 782,-22 967,-22 967,-22 782,-22"/>
<polygon fill="none" stroke="#666666" points="781.5,-5.5 781.5,-54.5 966.5,-54.5 966.5,-5.5 781.5,-5.5"/>
</a>
</g>
</g>
<!-- Node1&#45;&gt;Node8 -->
<g id="edge7_Node000001_Node000008" class="edge">
<title>Node1&#45;&gt;Node8</title>
<g id="a_edge7_Node000001_Node000008"><a xlink:title=" ">
<path fill="none" stroke="#63b8ff" d="M564.63,-103.71C623.88,-92.67 703.44,-76.92 773,-60 779.91,-58.32 787.06,-56.48 794.22,-54.56"/>
<polygon fill="none" stroke="#63b8ff" points="563.75,-100.31 554.55,-105.58 565.02,-107.2 563.75,-100.31"/>
</a>
</g>
</g>
<!-- Node2 -->
<g id="Node000002" class="node">
<title>Node2</title>
<g id="a_Node000002"><a xlink:href="classexception_1_1ChatbotException.html" target="_top" xlink:title=" ">
<polygon fill="white" stroke="transparent" points="601,-476 351,-476 351,-181 601,-181 601,-476"/>
<text text-anchor="start" x="407" y="-463.5" font-family="Helvetica,sans-Serif" font-size="10.00">exception.ChatbotException</text>
<text text-anchor="start" x="355" y="-448.5" font-family="Helvetica,sans-Serif" font-size="10.00">+</text>
<text text-anchor="start" x="368" y="-448.5" font-family="Helvetica,sans-Serif" font-size="10.00">cause</text>
<text text-anchor="start" x="355" y="-433.5" font-family="Helvetica,sans-Serif" font-size="10.00">+</text>
<text text-anchor="start" x="368" y="-433.5" font-family="Helvetica,sans-Serif" font-size="10.00">code</text>
<text text-anchor="start" x="355" y="-418.5" font-family="Helvetica,sans-Serif" font-size="10.00">+</text>
<text text-anchor="start" x="368" y="-418.5" font-family="Helvetica,sans-Serif" font-size="10.00">filename</text>
<text text-anchor="start" x="355" y="-403.5" font-family="Helvetica,sans-Serif" font-size="10.00">+</text>
<text text-anchor="start" x="368" y="-403.5" font-family="Helvetica,sans-Serif" font-size="10.00">lineno</text>
<text text-anchor="start" x="355" y="-388.5" font-family="Helvetica,sans-Serif" font-size="10.00">+</text>
<text text-anchor="start" x="368" y="-388.5" font-family="Helvetica,sans-Serif" font-size="10.00">message</text>
<text text-anchor="start" x="355" y="-373.5" font-family="Helvetica,sans-Serif" font-size="10.00">+</text>
<text text-anchor="start" x="368" y="-373.5" font-family="Helvetica,sans-Serif" font-size="10.00">severity</text>
<text text-anchor="start" x="355" y="-358.5" font-family="Helvetica,sans-Serif" font-size="10.00">+</text>
<text text-anchor="start" x="368" y="-358.5" font-family="Helvetica,sans-Serif" font-size="10.00">traceback</text>
<text text-anchor="start" x="355" y="-343.5" font-family="Helvetica,sans-Serif" font-size="10.00">+</text>
<text text-anchor="start" x="368" y="-343.5" font-family="Helvetica,sans-Serif" font-size="10.00">type</text>
<text text-anchor="start" x="355" y="-328.5" font-family="Helvetica,sans-Serif" font-size="10.00">+</text>
<text text-anchor="start" x="368" y="-328.5" font-family="Helvetica,sans-Serif" font-size="10.00">SEVERITY_TO_LOGGING</text>
<text text-anchor="start" x="355" y="-313.5" font-family="Helvetica,sans-Serif" font-size="10.00">+</text>
<text text-anchor="start" x="368" y="-313.5" font-family="Helvetica,sans-Serif" font-size="10.00">__init__(self, &quot;Chatbot</text>
<text text-anchor="start" x="368" y="-302.5" font-family="Helvetica,sans-Serif" font-size="10.00">Exception.ChatbotExceptionCode&quot;</text>
<text text-anchor="start" x="368" y="-291.5" font-family="Helvetica,sans-Serif" font-size="10.00"> code=None, str message=None,</text>
<text text-anchor="start" x="368" y="-280.5" font-family="Helvetica,sans-Serif" font-size="10.00"> &quot;ChatbotException.ChatbotExceptionSeverity&quot;</text>
<text text-anchor="start" x="368" y="-269.5" font-family="Helvetica,sans-Serif" font-size="10.00"> severity=None, str filename=None, int</text>
<text text-anchor="start" x="368" y="-258.5" font-family="Helvetica,sans-Serif" font-size="10.00"> lineno=None, Exception cause=None, bool</text>
<text text-anchor="start" x="368" y="-247.5" font-family="Helvetica,sans-Serif" font-size="10.00"> include_trace=True)</text>
<text text-anchor="start" x="355" y="-232.5" font-family="Helvetica,sans-Serif" font-size="10.00">+</text>
<text text-anchor="start" x="368" y="-232.5" font-family="Helvetica,sans-Serif" font-size="10.00">__repr__(self)</text>
<text text-anchor="start" x="355" y="-217.5" font-family="Helvetica,sans-Serif" font-size="10.00">+</text>
<text text-anchor="start" x="368" y="-217.5" font-family="Helvetica,sans-Serif" font-size="10.00">__str__(self)</text>
<text text-anchor="start" x="355" y="-202.5" font-family="Helvetica,sans-Serif" font-size="10.00">+</text>
<text text-anchor="start" x="368" y="-202.5" font-family="Helvetica,sans-Serif" font-size="10.00">to_dict(self)</text>
<text text-anchor="start" x="355" y="-187.5" font-family="Helvetica,sans-Serif" font-size="10.00">+</text>
<text text-anchor="start" x="368" y="-187.5" font-family="Helvetica,sans-Serif" font-size="10.00">to_json(self)</text>
<polygon fill="#666666" stroke="#666666" points="351,-458.5 351,-458.5 601,-458.5 601,-458.5 351,-458.5"/>
<polygon fill="#666666" stroke="#666666" points="351,-323.5 351,-323.5 366,-323.5 366,-323.5 351,-323.5"/>
<polygon fill="#666666" stroke="#666666" points="366,-323.5 366,-323.5 601,-323.5 601,-323.5 366,-323.5"/>
<polygon fill="none" stroke="#666666" points="351,-181 351,-476 601,-476 601,-181 351,-181"/>
</a>
</g>
</g>
<!-- Node2&#45;&gt;Node1 -->
<g id="edge1_Node000001_Node000002" class="edge">
<title>Node2&#45;&gt;Node1</title>
<g id="a_edge1_Node000001_Node000002"><a xlink:title=" ">
<path fill="none" stroke="#63b8ff" d="M476,-170.58C476,-161.04 476,-152.35 476,-145.04"/>
<polygon fill="none" stroke="#63b8ff" points="472.5,-170.81 476,-180.81 479.5,-170.81 472.5,-170.81"/>
</a>
</g>
</g>
<!-- Node3 -->
<g id="Node000003" class="node">
<title>Node3</title>
<g id="a_Node000003"><a xlink:title=" ">
<polygon fill="white" stroke="transparent" points="505.5,-561 446.5,-561 446.5,-512 505.5,-512 505.5,-561"/>
<text text-anchor="start" x="452" y="-548.5" font-family="Helvetica,sans-Serif" font-size="10.00">Exception</text>
<text text-anchor="start" x="474.5" y="-533.5" font-family="Helvetica,sans-Serif" font-size="10.00"> </text>
<text text-anchor="start" x="474.5" y="-518.5" font-family="Helvetica,sans-Serif" font-size="10.00"> </text>
<polygon fill="#666666" stroke="#666666" points="447,-543.5 447,-543.5 506,-543.5 506,-543.5 447,-543.5"/>
<polygon fill="#666666" stroke="#666666" points="447,-528.5 447,-528.5 506,-528.5 506,-528.5 447,-528.5"/>
<polygon fill="none" stroke="#666666" points="446.5,-512 446.5,-561 505.5,-561 505.5,-512 446.5,-512"/>
</a>
</g>
</g>
<!-- Node3&#45;&gt;Node2 -->
<g id="edge2_Node000002_Node000003" class="edge">
<title>Node3&#45;&gt;Node2</title>
<g id="a_edge2_Node000002_Node000003"><a xlink:title=" ">
<path fill="none" stroke="#63b8ff" d="M476,-501.71C476,-494.05 476,-485.44 476,-476.26"/>
<polygon fill="none" stroke="#63b8ff" points="472.5,-501.87 476,-511.87 479.5,-501.87 472.5,-501.87"/>
</a>
</g>
</g>
</g>
</svg>

<g id="navigator" transform="translate(0 0)" fill="#404254">
  <rect fill="#f2f5e9" fill-opacity="0.5" stroke="#606060" stroke-width=".5" x="0" y="0" width="60" height="60"/>
  <use id="zoomplus" xlink:href="#zoomPlus" x="17" y="9" onmousedown="handleZoom(evt,'in')"/>
  <use id="zoomminus" xlink:href="#zoomMin" x="42" y="9" onmousedown="handleZoom(evt,'out')"/>
  <use id="reset" xlink:href="#resetDef" x="30" y="36" onmousedown="handleReset()"/>
   <use id="arrowup" xlink:href="#arrowUp" x="0" y="0" onmousedown="handlePan(0,-1)"/>
  <use id="arrowright" xlink:href="#arrowRight" x="0" y="0" onmousedown="handlePan(1,0)"/>
  <use id="arrowdown" xlink:href="#arrowDown" x="0" y="0" onmousedown="handlePan(0,1)"/>
  <use id="arrowleft" xlink:href="#arrowLeft" x="0" y="0" onmousedown="handlePan(-1,0)"/>
</g>
<svg viewBox="0 0 15 15" width="100%" height="30px" preserveAspectRatio="xMaxYMin meet">
 <g id="arrow_out" transform="scale(0.3 0.3)">
  <a xlink:href="classweb__server_1_1WebAppException__inherit__graph_org.svg" target="_base">
   <rect id="button" ry="5" rx="5" y="6" x="6" height="38" width="38"
        fill="#f2f5e9" fill-opacity="0.5" stroke="#606060" stroke-width="1.0"/>
   <path id="arrow"
     d="M 11.500037,31.436501 C 11.940474,20.09759 22.043105,11.32322 32.158766,21.979434 L 37.068811,17.246167 C 37.068811,17.246167 37.088388,32 37.088388,32 L 22.160133,31.978069 C 22.160133,31.978069 26.997745,27.140456 26.997745,27.140456 C 18.528582,18.264221 13.291696,25.230495 11.500037,31.436501 z"
     style="fill:#404040;"/>
  </a>
 </g>
</svg>

<style type='text/css'>
<![CDATA[
[data-mouse-over-selected='false'] { opacity: 0.7; }
[data-mouse-over-selected='true']  { opacity: 1.0; }
]]>
</style>
<script type="application/ecmascript"><![CDATA[
document.addEventListener('DOMContentLoaded', (event) => {
  highlightEdges();
  highlightAdjacentNodes();
});
]]></script>
</svg>
