<?xml version="1.0" encoding="UTF-8" standalone="no"?>
<!DOCTYPE svg PUBLIC "-//W3C//DTD SVG 1.1//EN"
 "http://www.w3.org/Graphics/SVG/1.1/DTD/svg11.dtd">
<!-- Generated by graphviz version 2.43.0 (0)
 -->
<!-- Title: logger.LogException Pages: 1 -->
<!--zoomable 665 -->

<svg id="main" version="1.1" xmlns="http://www.w3.org/2000/svg" xmlns:xlink="http://www.w3.org/1999/xlink" xml:space="preserve" onload="init(evt)">
<style type="text/css"><![CDATA[
.node, .edge {opacity: 0.7;}
.node.selected, .edge.selected {opacity: 1;}
.edge:hover path { stroke: red; }
.edge:hover polygon { stroke: red; fill: red; }
]]></style>

<defs>
  <circle id="rim" cx="0" cy="0" r="7"/>
  <circle id="rim2" cx="0" cy="0" r="3.5"/>
  <g id="zoomPlus">
    <use xlink:href="#rim" fill="#404040"><set attributeName="fill" to="#808080" begin="zoomplus.mouseover" end="zoomplus.mouseout"/></use>
    <path d="M-4,0h8M0,-4v8" fill="none" stroke="white" stroke-width="1.5" pointer-events="none"/>
  </g>
  <g id="zoomMin">
    <use xlink:href="#rim" fill="#404040"><set attributeName="fill" to="#808080" begin="zoomminus.mouseover" end="zoomminus.mouseout"/></use>
    <path d="M-4,0h8" fill="none" stroke="white" stroke-width="1.5" pointer-events="none"/>
  </g>
  <g id="arrowUp" transform="translate(30 24)">
    <use xlink:href="#rim"/>
    <path pointer-events="none" fill="none" stroke="white" stroke-width="1.5" d="M0,-3.0v7 M-2.5,-0.5L0,-3.0L2.5,-0.5"/>
  </g>
  <g id="arrowRight" transform="rotate(90) translate(36 -43)">
    <use xlink:href="#rim"/>
    <path pointer-events="none" fill="none" stroke="white" stroke-width="1.5" d="M0,-3.0v7 M-2.5,-0.5L0,-3.0L2.5,-0.5"/>
  </g>
  <g id="arrowDown" transform="rotate(180) translate(-30 -48)">
    <use xlink:href="#rim"/>
    <path pointer-events="none" fill="none" stroke="white" stroke-width="1.5" d="M0,-3.0v7 M-2.5,-0.5L0,-3.0L2.5,-0.5"/>
  </g>
  <g id="arrowLeft" transform="rotate(270) translate(-36 17)">
    <use xlink:href="#rim"/>
    <path pointer-events="none" fill="none" stroke="white" stroke-width="1.5" d="M0,-3.0v7 M-2.5,-0.5L0,-3.0L2.5,-0.5"/>
  </g>
  <g id="resetDef">
    <use xlink:href="#rim2" fill="#404040"><set attributeName="fill" to="#808080" begin="reset.mouseover" end="reset.mouseout"/></use>
  </g>
</defs>
<script type="application/ecmascript">
var viewWidth = 1013;
var viewHeight = 665;
var sectionId = 'dynsection-0';
</script>
<script type="application/ecmascript" xlink:href="svg.min.js"/>
<svg id="graph" class="graph">
<g id="viewport">
<title>logger.LogException</title>
<!-- Node1 -->
<g id="Node000001" class="node">
<title>Node1</title>
<g id="a_Node000001"><a xlink:title=" ">
<polygon fill="#999999" stroke="transparent" points="555.5,-241 446.5,-241 446.5,-192 555.5,-192 555.5,-241"/>
<text text-anchor="start" x="452" y="-228.5" font-family="Helvetica,sans-Serif" font-size="10.00">logger.LogException</text>
<text text-anchor="start" x="499.5" y="-213.5" font-family="Helvetica,sans-Serif" font-size="10.00"> </text>
<text text-anchor="start" x="499.5" y="-198.5" font-family="Helvetica,sans-Serif" font-size="10.00"> </text>
<polygon fill="#666666" stroke="#666666" points="447,-223.5 447,-223.5 556,-223.5 556,-223.5 447,-223.5"/>
<polygon fill="#666666" stroke="#666666" points="447,-208.5 447,-208.5 556,-208.5 556,-208.5 447,-208.5"/>
<polygon fill="none" stroke="#666666" points="446.5,-192 446.5,-241 555.5,-241 555.5,-192 446.5,-192"/>
</a>
</g>
</g>
<!-- Node4 -->
<g id="Node000004" class="node">
<title>Node4</title>
<g id="a_Node000004"><a xlink:href="classlogger_1_1LogConfigurationException.html" target="_top" xlink:title=" ">
<polygon fill="white" stroke="transparent" points="174,-150.5 0,-150.5 0,-101.5 174,-101.5 174,-150.5"/>
<text text-anchor="start" x="5" y="-138" font-family="Helvetica,sans-Serif" font-size="10.00">logger.LogConfigurationException</text>
<text text-anchor="start" x="85" y="-123" font-family="Helvetica,sans-Serif" font-size="10.00"> </text>
<text text-anchor="start" x="85" y="-108" font-family="Helvetica,sans-Serif" font-size="10.00"> </text>
<polygon fill="#666666" stroke="#666666" points="0,-133 0,-133 174,-133 174,-133 0,-133"/>
<polygon fill="#666666" stroke="#666666" points="0,-118 0,-118 174,-118 174,-118 0,-118"/>
<polygon fill="none" stroke="#666666" points="0,-101.5 0,-150.5 174,-150.5 174,-101.5 0,-101.5"/>
</a>
</g>
</g>
<!-- Node1&#45;&gt;Node4 -->
<g id="edge3_Node000001_Node000004" class="edge">
<title>Node1&#45;&gt;Node4</title>
<g id="a_edge3_Node000001_Node000004"><a xlink:title=" ">
<path fill="none" stroke="#63b8ff" d="M436.28,-205.5C371.72,-195.04 269.89,-177.19 183,-156 176.15,-154.33 169.06,-152.46 161.99,-150.5"/>
<polygon fill="none" stroke="#63b8ff" points="435.89,-208.99 446.32,-207.12 437,-202.07 435.89,-208.99"/>
</a>
</g>
</g>
<!-- Node6 -->
<g id="Node000006" class="node">
<title>Node6</title>
<g id="a_Node000006"><a xlink:href="classlogger_1_1LogCriticalOperationException.html" target="_top" xlink:title=" ">
<polygon fill="white" stroke="transparent" points="335.5,-156 192.5,-156 192.5,-96 335.5,-96 335.5,-156"/>
<text text-anchor="start" x="198" y="-144" font-family="Helvetica,sans-Serif" font-size="10.00">logger.LogCriticalOperation</text>
<text text-anchor="start" x="240" y="-133" font-family="Helvetica,sans-Serif" font-size="10.00">Exception</text>
<text text-anchor="start" x="262.5" y="-118" font-family="Helvetica,sans-Serif" font-size="10.00"> </text>
<text text-anchor="start" x="262.5" y="-103" font-family="Helvetica,sans-Serif" font-size="10.00"> </text>
<polygon fill="#666666" stroke="#666666" points="193,-128 193,-128 336,-128 336,-128 193,-128"/>
<polygon fill="#666666" stroke="#666666" points="193,-113 193,-113 336,-113 336,-113 193,-113"/>
<polygon fill="none" stroke="#666666" points="192.5,-96 192.5,-156 335.5,-156 335.5,-96 192.5,-96"/>
</a>
</g>
</g>
<!-- Node1&#45;&gt;Node6 -->
<g id="edge5_Node000001_Node000006" class="edge">
<title>Node1&#45;&gt;Node6</title>
<g id="a_edge5_Node000001_Node000006"><a xlink:title=" ">
<path fill="none" stroke="#63b8ff" d="M436.87,-191.55C405.68,-179.91 368.08,-165.87 335.92,-153.86"/>
<polygon fill="none" stroke="#63b8ff" points="435.74,-194.87 446.33,-195.09 438.19,-188.31 435.74,-194.87"/>
</a>
</g>
</g>
<!-- Node7 -->
<g id="Node000007" class="node">
<title>Node7</title>
<g id="a_Node000007"><a xlink:href="classlogger_1_1LogDebugOperationException.html" target="_top" xlink:title=" ">
<polygon fill="white" stroke="transparent" points="494,-156 354,-156 354,-96 494,-96 494,-156"/>
<text text-anchor="start" x="359" y="-144" font-family="Helvetica,sans-Serif" font-size="10.00">logger.LogDebugOperation</text>
<text text-anchor="start" x="399.5" y="-133" font-family="Helvetica,sans-Serif" font-size="10.00">Exception</text>
<text text-anchor="start" x="422" y="-118" font-family="Helvetica,sans-Serif" font-size="10.00"> </text>
<text text-anchor="start" x="422" y="-103" font-family="Helvetica,sans-Serif" font-size="10.00"> </text>
<polygon fill="#666666" stroke="#666666" points="354,-128 354,-128 494,-128 494,-128 354,-128"/>
<polygon fill="#666666" stroke="#666666" points="354,-113 354,-113 494,-113 494,-113 354,-113"/>
<polygon fill="none" stroke="#666666" points="354,-96 354,-156 494,-156 494,-96 354,-96"/>
</a>
</g>
</g>
<!-- Node1&#45;&gt;Node7 -->
<g id="edge6_Node000001_Node000007" class="edge">
<title>Node1&#45;&gt;Node7</title>
<g id="a_edge6_Node000001_Node000007"><a xlink:title=" ">
<path fill="none" stroke="#63b8ff" d="M473.63,-184.05C465.73,-174.96 457.14,-165.09 449.37,-156.16"/>
<polygon fill="none" stroke="#63b8ff" points="471.16,-186.54 480.37,-191.78 476.44,-181.94 471.16,-186.54"/>
</a>
</g>
</g>
<!-- Node8 -->
<g id="Node000008" class="node">
<title>Node8</title>
<g id="a_Node000008"><a xlink:href="classlogger_1_1LogErrorOperationException.html" target="_top" xlink:title=" ">
<polygon fill="white" stroke="transparent" points="644,-156 512,-156 512,-96 644,-96 644,-156"/>
<text text-anchor="start" x="517" y="-144" font-family="Helvetica,sans-Serif" font-size="10.00">logger.LogErrorOperation</text>
<text text-anchor="start" x="553.5" y="-133" font-family="Helvetica,sans-Serif" font-size="10.00">Exception</text>
<text text-anchor="start" x="576" y="-118" font-family="Helvetica,sans-Serif" font-size="10.00"> </text>
<text text-anchor="start" x="576" y="-103" font-family="Helvetica,sans-Serif" font-size="10.00"> </text>
<polygon fill="#666666" stroke="#666666" points="512,-128 512,-128 644,-128 644,-128 512,-128"/>
<polygon fill="#666666" stroke="#666666" points="512,-113 512,-113 644,-113 644,-113 512,-113"/>
<polygon fill="none" stroke="#666666" points="512,-96 512,-156 644,-156 644,-96 512,-96"/>
</a>
</g>
</g>
<!-- Node1&#45;&gt;Node8 -->
<g id="edge7_Node000001_Node000008" class="edge">
<title>Node1&#45;&gt;Node8</title>
<g id="a_edge7_Node000001_Node000008"><a xlink:title=" ">
<path fill="none" stroke="#63b8ff" d="M528.37,-184.05C536.27,-174.96 544.86,-165.09 552.63,-156.16"/>
<polygon fill="none" stroke="#63b8ff" points="525.56,-181.94 521.63,-191.78 530.84,-186.54 525.56,-181.94"/>
</a>
</g>
</g>
<!-- Node9 -->
<g id="Node000009" class="node">
<title>Node9</title>
<g id="a_Node000009"><a xlink:href="classlogger_1_1LogInfoOperationException.html" target="_top" xlink:title=" ">
<polygon fill="white" stroke="transparent" points="838,-150.5 662,-150.5 662,-101.5 838,-101.5 838,-150.5"/>
<text text-anchor="start" x="667" y="-138" font-family="Helvetica,sans-Serif" font-size="10.00">logger.LogInfoOperationException</text>
<text text-anchor="start" x="748" y="-123" font-family="Helvetica,sans-Serif" font-size="10.00"> </text>
<text text-anchor="start" x="748" y="-108" font-family="Helvetica,sans-Serif" font-size="10.00"> </text>
<polygon fill="#666666" stroke="#666666" points="662,-133 662,-133 838,-133 838,-133 662,-133"/>
<polygon fill="#666666" stroke="#666666" points="662,-118 662,-118 838,-118 838,-118 662,-118"/>
<polygon fill="none" stroke="#666666" points="662,-101.5 662,-150.5 838,-150.5 838,-101.5 662,-101.5"/>
</a>
</g>
</g>
<!-- Node1&#45;&gt;Node9 -->
<g id="edge8_Node000001_Node000009" class="edge">
<title>Node1&#45;&gt;Node9</title>
<g id="a_edge8_Node000001_Node000009"><a xlink:title=" ">
<path fill="none" stroke="#63b8ff" d="M565.15,-192.7C601.47,-179.79 646.83,-163.67 683.52,-150.63"/>
<polygon fill="none" stroke="#63b8ff" points="563.89,-189.43 555.64,-196.08 566.24,-196.03 563.89,-189.43"/>
</a>
</g>
</g>
<!-- Node10 -->
<g id="Node000010" class="node">
<title>Node10</title>
<g id="a_Node000010"><a xlink:href="classlogger_1_1LogWarningOperationException.html" target="_top" xlink:title=" ">
<polygon fill="white" stroke="transparent" points="1004.5,-156 855.5,-156 855.5,-96 1004.5,-96 1004.5,-156"/>
<text text-anchor="start" x="861" y="-144" font-family="Helvetica,sans-Serif" font-size="10.00">logger.LogWarningOperation</text>
<text text-anchor="start" x="906" y="-133" font-family="Helvetica,sans-Serif" font-size="10.00">Exception</text>
<text text-anchor="start" x="928.5" y="-118" font-family="Helvetica,sans-Serif" font-size="10.00"> </text>
<text text-anchor="start" x="928.5" y="-103" font-family="Helvetica,sans-Serif" font-size="10.00"> </text>
<polygon fill="#666666" stroke="#666666" points="856,-128 856,-128 1005,-128 1005,-128 856,-128"/>
<polygon fill="#666666" stroke="#666666" points="856,-113 856,-113 1005,-113 1005,-113 856,-113"/>
<polygon fill="none" stroke="#666666" points="855.5,-96 855.5,-156 1004.5,-156 1004.5,-96 855.5,-96"/>
</a>
</g>
</g>
<!-- Node1&#45;&gt;Node10 -->
<g id="edge9_Node000001_Node000010" class="edge">
<title>Node1&#45;&gt;Node10</title>
<g id="a_edge9_Node000001_Node000010"><a xlink:title=" ">
<path fill="none" stroke="#63b8ff" d="M565.53,-207.66C635.53,-198.4 750.26,-181.03 847,-156 849.66,-155.31 852.36,-154.58 855.07,-153.81"/>
<polygon fill="none" stroke="#63b8ff" points="564.99,-204.2 555.53,-208.97 565.9,-211.14 564.99,-204.2"/>
</a>
</g>
</g>
<!-- Node2 -->
<g id="Node000002" class="node">
<title>Node2</title>
<g id="a_Node000002"><a xlink:href="classexception_1_1ChatbotException.html" target="_top" xlink:title=" ">
<polygon fill="white" stroke="transparent" points="626,-572 376,-572 376,-277 626,-277 626,-572"/>
<text text-anchor="start" x="432" y="-559.5" font-family="Helvetica,sans-Serif" font-size="10.00">exception.ChatbotException</text>
<text text-anchor="start" x="380" y="-544.5" font-family="Helvetica,sans-Serif" font-size="10.00">+</text>
<text text-anchor="start" x="393" y="-544.5" font-family="Helvetica,sans-Serif" font-size="10.00">cause</text>
<text text-anchor="start" x="380" y="-529.5" font-family="Helvetica,sans-Serif" font-size="10.00">+</text>
<text text-anchor="start" x="393" y="-529.5" font-family="Helvetica,sans-Serif" font-size="10.00">code</text>
<text text-anchor="start" x="380" y="-514.5" font-family="Helvetica,sans-Serif" font-size="10.00">+</text>
<text text-anchor="start" x="393" y="-514.5" font-family="Helvetica,sans-Serif" font-size="10.00">filename</text>
<text text-anchor="start" x="380" y="-499.5" font-family="Helvetica,sans-Serif" font-size="10.00">+</text>
<text text-anchor="start" x="393" y="-499.5" font-family="Helvetica,sans-Serif" font-size="10.00">lineno</text>
<text text-anchor="start" x="380" y="-484.5" font-family="Helvetica,sans-Serif" font-size="10.00">+</text>
<text text-anchor="start" x="393" y="-484.5" font-family="Helvetica,sans-Serif" font-size="10.00">message</text>
<text text-anchor="start" x="380" y="-469.5" font-family="Helvetica,sans-Serif" font-size="10.00">+</text>
<text text-anchor="start" x="393" y="-469.5" font-family="Helvetica,sans-Serif" font-size="10.00">severity</text>
<text text-anchor="start" x="380" y="-454.5" font-family="Helvetica,sans-Serif" font-size="10.00">+</text>
<text text-anchor="start" x="393" y="-454.5" font-family="Helvetica,sans-Serif" font-size="10.00">traceback</text>
<text text-anchor="start" x="380" y="-439.5" font-family="Helvetica,sans-Serif" font-size="10.00">+</text>
<text text-anchor="start" x="393" y="-439.5" font-family="Helvetica,sans-Serif" font-size="10.00">type</text>
<text text-anchor="start" x="380" y="-424.5" font-family="Helvetica,sans-Serif" font-size="10.00">+</text>
<text text-anchor="start" x="393" y="-424.5" font-family="Helvetica,sans-Serif" font-size="10.00">SEVERITY_TO_LOGGING</text>
<text text-anchor="start" x="380" y="-409.5" font-family="Helvetica,sans-Serif" font-size="10.00">+</text>
<text text-anchor="start" x="393" y="-409.5" font-family="Helvetica,sans-Serif" font-size="10.00">__init__(self, &quot;Chatbot</text>
<text text-anchor="start" x="393" y="-398.5" font-family="Helvetica,sans-Serif" font-size="10.00">Exception.ChatbotExceptionCode&quot;</text>
<text text-anchor="start" x="393" y="-387.5" font-family="Helvetica,sans-Serif" font-size="10.00"> code=None, str message=None,</text>
<text text-anchor="start" x="393" y="-376.5" font-family="Helvetica,sans-Serif" font-size="10.00"> &quot;ChatbotException.ChatbotExceptionSeverity&quot;</text>
<text text-anchor="start" x="393" y="-365.5" font-family="Helvetica,sans-Serif" font-size="10.00"> severity=None, str filename=None, int</text>
<text text-anchor="start" x="393" y="-354.5" font-family="Helvetica,sans-Serif" font-size="10.00"> lineno=None, Exception cause=None, bool</text>
<text text-anchor="start" x="393" y="-343.5" font-family="Helvetica,sans-Serif" font-size="10.00"> include_trace=True)</text>
<text text-anchor="start" x="380" y="-328.5" font-family="Helvetica,sans-Serif" font-size="10.00">+</text>
<text text-anchor="start" x="393" y="-328.5" font-family="Helvetica,sans-Serif" font-size="10.00">__repr__(self)</text>
<text text-anchor="start" x="380" y="-313.5" font-family="Helvetica,sans-Serif" font-size="10.00">+</text>
<text text-anchor="start" x="393" y="-313.5" font-family="Helvetica,sans-Serif" font-size="10.00">__str__(self)</text>
<text text-anchor="start" x="380" y="-298.5" font-family="Helvetica,sans-Serif" font-size="10.00">+</text>
<text text-anchor="start" x="393" y="-298.5" font-family="Helvetica,sans-Serif" font-size="10.00">to_dict(self)</text>
<text text-anchor="start" x="380" y="-283.5" font-family="Helvetica,sans-Serif" font-size="10.00">+</text>
<text text-anchor="start" x="393" y="-283.5" font-family="Helvetica,sans-Serif" font-size="10.00">to_json(self)</text>
<polygon fill="#666666" stroke="#666666" points="376,-554.5 376,-554.5 626,-554.5 626,-554.5 376,-554.5"/>
<polygon fill="#666666" stroke="#666666" points="376,-419.5 376,-419.5 391,-419.5 391,-419.5 376,-419.5"/>
<polygon fill="#666666" stroke="#666666" points="391,-419.5 391,-419.5 626,-419.5 626,-419.5 391,-419.5"/>
<polygon fill="none" stroke="#666666" points="376,-277 376,-572 626,-572 626,-277 376,-277"/>
</a>
</g>
</g>
<!-- Node2&#45;&gt;Node1 -->
<g id="edge1_Node000001_Node000002" class="edge">
<title>Node2&#45;&gt;Node1</title>
<g id="a_edge1_Node000001_Node000002"><a xlink:title=" ">
<path fill="none" stroke="#63b8ff" d="M501,-266.58C501,-257.04 501,-248.35 501,-241.04"/>
<polygon fill="none" stroke="#63b8ff" points="497.5,-266.81 501,-276.81 504.5,-266.81 497.5,-266.81"/>
</a>
</g>
</g>
<!-- Node3 -->
<g id="Node000003" class="node">
<title>Node3</title>
<g id="a_Node000003"><a xlink:title=" ">
<polygon fill="white" stroke="transparent" points="530.5,-657 471.5,-657 471.5,-608 530.5,-608 530.5,-657"/>
<text text-anchor="start" x="477" y="-644.5" font-family="Helvetica,sans-Serif" font-size="10.00">Exception</text>
<text text-anchor="start" x="499.5" y="-629.5" font-family="Helvetica,sans-Serif" font-size="10.00"> </text>
<text text-anchor="start" x="499.5" y="-614.5" font-family="Helvetica,sans-Serif" font-size="10.00"> </text>
<polygon fill="#666666" stroke="#666666" points="472,-639.5 472,-639.5 531,-639.5 531,-639.5 472,-639.5"/>
<polygon fill="#666666" stroke="#666666" points="472,-624.5 472,-624.5 531,-624.5 531,-624.5 472,-624.5"/>
<polygon fill="none" stroke="#666666" points="471.5,-608 471.5,-657 530.5,-657 530.5,-608 471.5,-608"/>
</a>
</g>
</g>
<!-- Node3&#45;&gt;Node2 -->
<g id="edge2_Node000002_Node000003" class="edge">
<title>Node3&#45;&gt;Node2</title>
<g id="a_edge2_Node000002_Node000003"><a xlink:title=" ">
<path fill="none" stroke="#63b8ff" d="M501,-597.71C501,-590.05 501,-581.44 501,-572.26"/>
<polygon fill="none" stroke="#63b8ff" points="497.5,-597.87 501,-607.87 504.5,-597.87 497.5,-597.87"/>
</a>
</g>
</g>
<!-- Node5 -->
<g id="Node000005" class="node">
<title>Node5</title>
<g id="a_Node000005"><a xlink:href="classlogger_1_1LogWrongAttributeException.html" target="_top" xlink:title=" ">
<polygon fill="white" stroke="transparent" points="154.5,-60 19.5,-60 19.5,0 154.5,0 154.5,-60"/>
<text text-anchor="start" x="25" y="-48" font-family="Helvetica,sans-Serif" font-size="10.00">logger.LogWrongAttribute</text>
<text text-anchor="start" x="63" y="-37" font-family="Helvetica,sans-Serif" font-size="10.00">Exception</text>
<text text-anchor="start" x="85.5" y="-22" font-family="Helvetica,sans-Serif" font-size="10.00"> </text>
<text text-anchor="start" x="85.5" y="-7" font-family="Helvetica,sans-Serif" font-size="10.00"> </text>
<polygon fill="#666666" stroke="#666666" points="20,-32 20,-32 155,-32 155,-32 20,-32"/>
<polygon fill="#666666" stroke="#666666" points="20,-17 20,-17 155,-17 155,-17 20,-17"/>
<polygon fill="none" stroke="#666666" points="19.5,0 19.5,-60 154.5,-60 154.5,0 19.5,0"/>
</a>
</g>
</g>
<!-- Node4&#45;&gt;Node5 -->
<g id="edge4_Node000004_Node000005" class="edge">
<title>Node4&#45;&gt;Node5</title>
<g id="a_edge4_Node000004_Node000005"><a xlink:title=" ">
<path fill="none" stroke="#63b8ff" d="M87,-91.11C87,-80.95 87,-69.91 87,-60.09"/>
<polygon fill="none" stroke="#63b8ff" points="83.5,-91.28 87,-101.28 90.5,-91.28 83.5,-91.28"/>
</a>
</g>
</g>
</g>
</svg>

<g id="navigator" transform="translate(0 0)" fill="#404254">
  <rect fill="#f2f5e9" fill-opacity="0.5" stroke="#606060" stroke-width=".5" x="0" y="0" width="60" height="60"/>
  <use id="zoomplus" xlink:href="#zoomPlus" x="17" y="9" onmousedown="handleZoom(evt,'in')"/>
  <use id="zoomminus" xlink:href="#zoomMin" x="42" y="9" onmousedown="handleZoom(evt,'out')"/>
  <use id="reset" xlink:href="#resetDef" x="30" y="36" onmousedown="handleReset()"/>
   <use id="arrowup" xlink:href="#arrowUp" x="0" y="0" onmousedown="handlePan(0,-1)"/>
  <use id="arrowright" xlink:href="#arrowRight" x="0" y="0" onmousedown="handlePan(1,0)"/>
  <use id="arrowdown" xlink:href="#arrowDown" x="0" y="0" onmousedown="handlePan(0,1)"/>
  <use id="arrowleft" xlink:href="#arrowLeft" x="0" y="0" onmousedown="handlePan(-1,0)"/>
</g>
<svg viewBox="0 0 15 15" width="100%" height="30px" preserveAspectRatio="xMaxYMin meet">
 <g id="arrow_out" transform="scale(0.3 0.3)">
  <a xlink:href="classlogger_1_1LogException__inherit__graph_org.svg" target="_base">
   <rect id="button" ry="5" rx="5" y="6" x="6" height="38" width="38"
        fill="#f2f5e9" fill-opacity="0.5" stroke="#606060" stroke-width="1.0"/>
   <path id="arrow"
     d="M 11.500037,31.436501 C 11.940474,20.09759 22.043105,11.32322 32.158766,21.979434 L 37.068811,17.246167 C 37.068811,17.246167 37.088388,32 37.088388,32 L 22.160133,31.978069 C 22.160133,31.978069 26.997745,27.140456 26.997745,27.140456 C 18.528582,18.264221 13.291696,25.230495 11.500037,31.436501 z"
     style="fill:#404040;"/>
  </a>
 </g>
</svg>

<style type='text/css'>
<![CDATA[
[data-mouse-over-selected='false'] { opacity: 0.7; }
[data-mouse-over-selected='true']  { opacity: 1.0; }
]]>
</style>
<script type="application/ecmascript"><![CDATA[
document.addEventListener('DOMContentLoaded', (event) => {
  highlightEdges();
  highlightAdjacentNodes();
});
]]></script>
</svg>
