<?xml version="1.0" encoding="UTF-8" standalone="no"?>
<!DOCTYPE svg PUBLIC "-//W3C//DTD SVG 1.1//EN"
 "http://www.w3.org/Graphics/SVG/1.1/DTD/svg11.dtd">
<!-- Generated by graphviz version 2.43.0 (0)
 -->
<!-- Title: logger.Logger.logger_put Pages: 1 -->
<svg width="307pt" height="180pt"
 viewBox="0.00 0.00 307.00 180.00" xmlns="http://www.w3.org/2000/svg" xmlns:xlink="http://www.w3.org/1999/xlink">
<g id="graph0" class="graph" transform="scale(1 1) rotate(0) translate(4 176)">
<title>logger.Logger.logger_put</title>
<!-- Node1 -->
<g id="node1" class="node">
<title>Node1</title>
<g id="a_node1"><a xlink:title=" ">
<polygon fill="#bfbfbf" stroke="black" points="161,-76.5 161,-95.5 299,-95.5 299,-76.5 161,-76.5"/>
<text text-anchor="middle" x="230" y="-83.5" font-family="Helvetica,sans-Serif" font-size="10.00">logger.Logger.logger_put</text>
</a>
</g>
</g>
<!-- Node2 -->
<g id="node2" class="node">
<title>Node2</title>
<g id="a_node2"><a xlink:href="classlogger_1_1Logger.html#a52718fde5c823c58134e19736665c9c4" target="_top" xlink:title=" ">
<polygon fill="none" stroke="black" points="3,-152.5 3,-171.5 122,-171.5 122,-152.5 3,-152.5"/>
<text text-anchor="middle" x="62.5" y="-159.5" font-family="Helvetica,sans-Serif" font-size="10.00">logger.Logger.critical</text>
</a>
</g>
</g>
<!-- Node1&#45;&gt;Node2 -->
<g id="edge1" class="edge">
<title>Node1&#45;&gt;Node2</title>
<path fill="none" stroke="midnightblue" d="M204.91,-101.03C184.27,-113.45 153.44,-130.96 125,-143 116.66,-146.53 107.45,-149.73 98.74,-152.45"/>
<polygon fill="midnightblue" stroke="midnightblue" points="206.92,-103.9 213.64,-95.71 203.28,-97.92 206.92,-103.9"/>
</g>
<!-- Node3 -->
<g id="node3" class="node">
<title>Node3</title>
<g id="a_node3"><a xlink:href="classlogger_1_1Logger.html#a3b54c525dbd6df144818c86c299b87df" target="_top" xlink:title=" ">
<polygon fill="none" stroke="black" points="4.5,-114.5 4.5,-133.5 120.5,-133.5 120.5,-114.5 4.5,-114.5"/>
<text text-anchor="middle" x="62.5" y="-121.5" font-family="Helvetica,sans-Serif" font-size="10.00">logger.Logger.debug</text>
</a>
</g>
</g>
<!-- Node1&#45;&gt;Node3 -->
<g id="edge2" class="edge">
<title>Node1&#45;&gt;Node3</title>
<path fill="none" stroke="midnightblue" d="M177.19,-97.9C153.93,-103.24 126.85,-109.45 104.96,-114.48"/>
<polygon fill="midnightblue" stroke="midnightblue" points="178.27,-101.24 187.24,-95.59 176.71,-94.42 178.27,-101.24"/>
</g>
<!-- Node4 -->
<g id="node4" class="node">
<title>Node4</title>
<g id="a_node4"><a xlink:href="classlogger_1_1Logger.html#ab66f56c6ae6aff5617cb1b952db03881" target="_top" xlink:title=" ">
<polygon fill="none" stroke="black" points="7.5,-76.5 7.5,-95.5 117.5,-95.5 117.5,-76.5 7.5,-76.5"/>
<text text-anchor="middle" x="62.5" y="-83.5" font-family="Helvetica,sans-Serif" font-size="10.00">logger.Logger.error</text>
</a>
</g>
</g>
<!-- Node1&#45;&gt;Node4 -->
<g id="edge3" class="edge">
<title>Node1&#45;&gt;Node4</title>
<path fill="none" stroke="midnightblue" d="M150.57,-86C139.46,-86 128.24,-86 117.72,-86"/>
<polygon fill="midnightblue" stroke="midnightblue" points="150.73,-89.5 160.73,-86 150.73,-82.5 150.73,-89.5"/>
</g>
<!-- Node5 -->
<g id="node5" class="node">
<title>Node5</title>
<g id="a_node5"><a xlink:href="classlogger_1_1Logger.html#a50b65c496c6d6e344c9cc3f0840891ab" target="_top" xlink:title=" ">
<polygon fill="none" stroke="black" points="10,-38.5 10,-57.5 115,-57.5 115,-38.5 10,-38.5"/>
<text text-anchor="middle" x="62.5" y="-45.5" font-family="Helvetica,sans-Serif" font-size="10.00">logger.Logger.info</text>
</a>
</g>
</g>
<!-- Node1&#45;&gt;Node5 -->
<g id="edge4" class="edge">
<title>Node1&#45;&gt;Node5</title>
<path fill="none" stroke="midnightblue" d="M177.19,-74.1C153.93,-68.76 126.85,-62.55 104.96,-57.52"/>
<polygon fill="midnightblue" stroke="midnightblue" points="176.71,-77.58 187.24,-76.41 178.27,-70.76 176.71,-77.58"/>
</g>
<!-- Node6 -->
<g id="node6" class="node">
<title>Node6</title>
<g id="a_node6"><a xlink:href="classlogger_1_1Logger.html#a1707e182afb5974b70fbc849e103dde6" target="_top" xlink:title=" ">
<polygon fill="none" stroke="black" points="0,-0.5 0,-19.5 125,-19.5 125,-0.5 0,-0.5"/>
<text text-anchor="middle" x="62.5" y="-7.5" font-family="Helvetica,sans-Serif" font-size="10.00">logger.Logger.warning</text>
</a>
</g>
</g>
<!-- Node1&#45;&gt;Node6 -->
<g id="edge5" class="edge">
<title>Node1&#45;&gt;Node6</title>
<path fill="none" stroke="midnightblue" d="M204.91,-70.97C184.27,-58.55 153.44,-41.04 125,-29 116.66,-25.47 107.45,-22.27 98.74,-19.55"/>
<polygon fill="midnightblue" stroke="midnightblue" points="203.28,-74.08 213.64,-76.29 206.92,-68.1 203.28,-74.08"/>
</g>
</g>
</svg>
