<?xml version="1.0" encoding="UTF-8" standalone="no"?>
<!DOCTYPE svg PUBLIC "-//W3C//DTD SVG 1.1//EN"
 "http://www.w3.org/Graphics/SVG/1.1/DTD/svg11.dtd">
<!-- Generated by graphviz version 2.43.0 (0)
 -->
<!-- Title: bot.BotManager.create_bot Pages: 1 -->
<!--zoomable 220 -->

<svg id="main" version="1.1" xmlns="http://www.w3.org/2000/svg" xmlns:xlink="http://www.w3.org/1999/xlink" xml:space="preserve" onload="init(evt)">
<style type="text/css"><![CDATA[
.node, .edge {opacity: 0.7;}
.node.selected, .edge.selected {opacity: 1;}
.edge:hover path { stroke: red; }
.edge:hover polygon { stroke: red; fill: red; }
]]></style>

<defs>
  <circle id="rim" cx="0" cy="0" r="7"/>
  <circle id="rim2" cx="0" cy="0" r="3.5"/>
  <g id="zoomPlus">
    <use xlink:href="#rim" fill="#404040"><set attributeName="fill" to="#808080" begin="zoomplus.mouseover" end="zoomplus.mouseout"/></use>
    <path d="M-4,0h8M0,-4v8" fill="none" stroke="white" stroke-width="1.5" pointer-events="none"/>
  </g>
  <g id="zoomMin">
    <use xlink:href="#rim" fill="#404040"><set attributeName="fill" to="#808080" begin="zoomminus.mouseover" end="zoomminus.mouseout"/></use>
    <path d="M-4,0h8" fill="none" stroke="white" stroke-width="1.5" pointer-events="none"/>
  </g>
  <g id="arrowUp" transform="translate(30 24)">
    <use xlink:href="#rim"/>
    <path pointer-events="none" fill="none" stroke="white" stroke-width="1.5" d="M0,-3.0v7 M-2.5,-0.5L0,-3.0L2.5,-0.5"/>
  </g>
  <g id="arrowRight" transform="rotate(90) translate(36 -43)">
    <use xlink:href="#rim"/>
    <path pointer-events="none" fill="none" stroke="white" stroke-width="1.5" d="M0,-3.0v7 M-2.5,-0.5L0,-3.0L2.5,-0.5"/>
  </g>
  <g id="arrowDown" transform="rotate(180) translate(-30 -48)">
    <use xlink:href="#rim"/>
    <path pointer-events="none" fill="none" stroke="white" stroke-width="1.5" d="M0,-3.0v7 M-2.5,-0.5L0,-3.0L2.5,-0.5"/>
  </g>
  <g id="arrowLeft" transform="rotate(270) translate(-36 17)">
    <use xlink:href="#rim"/>
    <path pointer-events="none" fill="none" stroke="white" stroke-width="1.5" d="M0,-3.0v7 M-2.5,-0.5L0,-3.0L2.5,-0.5"/>
  </g>
  <g id="resetDef">
    <use xlink:href="#rim2" fill="#404040"><set attributeName="fill" to="#808080" begin="reset.mouseover" end="reset.mouseout"/></use>
  </g>
</defs>
<script type="application/ecmascript">
var viewWidth = 674;
var viewHeight = 220;
var sectionId = 'dynsection-2';
</script>
<script type="application/ecmascript" xlink:href="svg.min.js"/>
<svg id="graph" class="graph">
<g id="viewport">
<title>bot.BotManager.create_bot</title>
<!-- Node1 -->
<g id="Node000001" class="node">
<title>Node1</title>
<g id="a_Node000001"><a xlink:title=" ">
<polygon fill="#999999" stroke="#666666" points="666,-67.5 517,-67.5 517,-48.5 666,-48.5 666,-67.5"/>
<text text-anchor="middle" x="591.5" y="-55.5" font-family="Helvetica,sans-Serif" font-size="10.00">bot.BotManager.create_bot</text>
</a>
</g>
</g>
<!-- Node2 -->
<g id="Node000002" class="node">
<title>Node2</title>
<g id="a_Node000002"><a xlink:href="classbot_1_1BotManager.html#add838a9111964ac3ef46d63d6dd640d5" target="_top" xlink:title=" ">
<polygon fill="white" stroke="#666666" points="472.5,-116 344.5,-116 344.5,-86 472.5,-86 472.5,-116"/>
<text text-anchor="start" x="352.5" y="-104" font-family="Helvetica,sans-Serif" font-size="10.00">bot.BotManager.create</text>
<text text-anchor="middle" x="408.5" y="-93" font-family="Helvetica,sans-Serif" font-size="10.00">_if_not_exist_bot</text>
</a>
</g>
</g>
<!-- Node1&#45;&gt;Node2 -->
<g id="edge1_Node000001_Node000002" class="edge">
<title>Node1&#45;&gt;Node2</title>
<g id="a_edge1_Node000001_Node000002"><a xlink:title=" ">
<path fill="none" stroke="#63b8ff" d="M540.36,-69.91C519.41,-74.89 494.83,-80.73 472.67,-85.99"/>
<polygon fill="#63b8ff" stroke="#63b8ff" points="541.41,-73.26 550.33,-67.54 539.79,-66.45 541.41,-73.26"/>
</a>
</g>
</g>
<!-- Node7 -->
<g id="Node000007" class="node">
<title>Node7</title>
<g id="a_Node000007"><a xlink:href="classbot_1_1BotManager.html#a6277812686ae6ccc51f8663ec760df8a" target="_top" xlink:title=" ">
<polygon fill="white" stroke="#666666" points="481,-49 336,-49 336,-19 481,-19 481,-49"/>
<text text-anchor="start" x="344" y="-37" font-family="Helvetica,sans-Serif" font-size="10.00">bot.BotManager.terminate</text>
<text text-anchor="middle" x="408.5" y="-26" font-family="Helvetica,sans-Serif" font-size="10.00">_and_restart_bot</text>
</a>
</g>
</g>
<!-- Node1&#45;&gt;Node7 -->
<g id="edge6_Node000001_Node000007" class="edge">
<title>Node1&#45;&gt;Node7</title>
<g id="a_edge6_Node000001_Node000007"><a xlink:title=" ">
<path fill="none" stroke="#63b8ff" d="M508.79,-47.17C499.59,-45.95 490.27,-44.71 481.21,-43.51"/>
<polygon fill="#63b8ff" stroke="#63b8ff" points="508.33,-50.64 518.7,-48.48 509.25,-43.7 508.33,-50.64"/>
</a>
</g>
</g>
<!-- Node3 -->
<g id="Node000003" class="node">
<title>Node3</title>
<g id="a_Node000003"><a xlink:href="classbot_1_1BotManager.html#a476223236141f8727739094c156b8790" target="_top" xlink:title=" ">
<polygon fill="white" stroke="#666666" points="300,-212 149,-212 149,-182 300,-182 300,-212"/>
<text text-anchor="start" x="157" y="-200" font-family="Helvetica,sans-Serif" font-size="10.00">bot.BotManager.create</text>
<text text-anchor="middle" x="224.5" y="-189" font-family="Helvetica,sans-Serif" font-size="10.00">_if_not_exist_and_start_bot</text>
</a>
</g>
</g>
<!-- Node2&#45;&gt;Node3 -->
<g id="edge2_Node000002_Node000003" class="edge">
<title>Node2&#45;&gt;Node3</title>
<g id="a_edge2_Node000002_Node000003"><a xlink:title=" ">
<path fill="none" stroke="#63b8ff" d="M380.17,-122.43C359.18,-138.1 328.96,-158.98 300,-173 293.27,-176.26 286,-179.22 278.72,-181.87"/>
<polygon fill="#63b8ff" stroke="#63b8ff" points="382.43,-125.11 388.29,-116.29 378.21,-119.53 382.43,-125.11"/>
</a>
</g>
</g>
<!-- Node4 -->
<g id="Node000004" class="node">
<title>Node4</title>
<g id="a_Node000004"><a xlink:href="classbot_1_1BotManager.html#afcf8120800e601f205fe2ad2a2436efa" target="_top" xlink:title=" ">
<polygon fill="white" stroke="#666666" points="291,-164 158,-164 158,-134 291,-134 291,-164"/>
<text text-anchor="start" x="166" y="-152" font-family="Helvetica,sans-Serif" font-size="10.00">bot.BotManager.receive</text>
<text text-anchor="middle" x="224.5" y="-141" font-family="Helvetica,sans-Serif" font-size="10.00">_message_from_bot</text>
</a>
</g>
</g>
<!-- Node2&#45;&gt;Node4 -->
<g id="edge3_Node000002_Node000004" class="edge">
<title>Node2&#45;&gt;Node4</title>
<g id="a_edge3_Node000002_Node000004"><a xlink:title=" ">
<path fill="none" stroke="#63b8ff" d="M340.58,-118.65C321.47,-123.69 300.83,-129.13 282.38,-134"/>
<polygon fill="#63b8ff" stroke="#63b8ff" points="341.64,-121.99 350.41,-116.06 339.85,-115.22 341.64,-121.99"/>
</a>
</g>
</g>
<!-- Node5 -->
<g id="Node000005" class="node">
<title>Node5</title>
<g id="a_Node000005"><a xlink:href="classbot_1_1BotManager.html#a1252539ad8ced4a098615fbdde873893" target="_top" xlink:title=" ">
<polygon fill="white" stroke="#666666" points="284.5,-116 164.5,-116 164.5,-86 284.5,-86 284.5,-116"/>
<text text-anchor="start" x="172.5" y="-104" font-family="Helvetica,sans-Serif" font-size="10.00">bot.BotManager.send</text>
<text text-anchor="middle" x="224.5" y="-93" font-family="Helvetica,sans-Serif" font-size="10.00">_message_on_bot</text>
</a>
</g>
</g>
<!-- Node2&#45;&gt;Node5 -->
<g id="edge4_Node000002_Node000005" class="edge">
<title>Node2&#45;&gt;Node5</title>
<g id="a_edge4_Node000002_Node000005"><a xlink:title=" ">
<path fill="none" stroke="#63b8ff" d="M334.21,-101C317.7,-101 300.39,-101 284.56,-101"/>
<polygon fill="#63b8ff" stroke="#63b8ff" points="334.36,-104.5 344.36,-101 334.36,-97.5 334.36,-104.5"/>
</a>
</g>
</g>
<!-- Node6 -->
<g id="Node000006" class="node">
<title>Node6</title>
<g id="a_Node000006"><a xlink:href="classbot_1_1BotManager.html#ac3951e114a0a17e9680bc7313025b52a" target="_top" xlink:title=" ">
<polygon fill="white" stroke="#666666" points="294.5,-67.5 154.5,-67.5 154.5,-48.5 294.5,-48.5 294.5,-67.5"/>
<text text-anchor="middle" x="224.5" y="-55.5" font-family="Helvetica,sans-Serif" font-size="10.00">bot.BotManager.start_bot</text>
</a>
</g>
</g>
<!-- Node2&#45;&gt;Node6 -->
<g id="edge5_Node000002_Node000006" class="edge">
<title>Node2&#45;&gt;Node6</title>
<g id="a_edge5_Node000002_Node000006"><a xlink:title=" ">
<path fill="none" stroke="#63b8ff" d="M334.44,-83.74C311.01,-78.2 285.94,-72.28 265.76,-67.51"/>
<polygon fill="#63b8ff" stroke="#63b8ff" points="333.82,-87.19 344.36,-86.08 335.43,-80.38 333.82,-87.19"/>
</a>
</g>
</g>
<!-- Node8 -->
<g id="Node000008" class="node">
<title>Node8</title>
<g id="a_Node000008"><a xlink:href="classbot_1_1BotManager.html#ad22b0997528b8f1d1903733008df541d" target="_top" xlink:title=" ">
<polygon fill="white" stroke="#666666" points="294.5,-30 154.5,-30 154.5,0 294.5,0 294.5,-30"/>
<text text-anchor="start" x="162.5" y="-18" font-family="Helvetica,sans-Serif" font-size="10.00">bot.BotManager.maintain</text>
<text text-anchor="middle" x="224.5" y="-7" font-family="Helvetica,sans-Serif" font-size="10.00">_alive_bots</text>
</a>
</g>
</g>
<!-- Node7&#45;&gt;Node8 -->
<g id="edge7_Node000007_Node000008" class="edge">
<title>Node7&#45;&gt;Node8</title>
<g id="a_edge7_Node000007_Node000008"><a xlink:title=" ">
<path fill="none" stroke="#63b8ff" d="M325.59,-25.45C315.28,-24.37 304.81,-23.28 294.72,-22.23"/>
<polygon fill="#63b8ff" stroke="#63b8ff" points="325.52,-28.96 335.83,-26.52 326.25,-22 325.52,-28.96"/>
</a>
</g>
</g>
<!-- Node9 -->
<g id="Node000009" class="node">
<title>Node9</title>
<g id="a_Node000009"><a xlink:href="classbot_1_1BotManager.html#ad241d4a98df64724c4c6901a8fcc2c05" target="_top" xlink:title=" ">
<polygon fill="white" stroke="#666666" points="113,-24.5 0,-24.5 0,-5.5 113,-5.5 113,-24.5"/>
<text text-anchor="middle" x="56.5" y="-12.5" font-family="Helvetica,sans-Serif" font-size="10.00">bot.BotManager.run</text>
</a>
</g>
</g>
<!-- Node8&#45;&gt;Node9 -->
<g id="edge8_Node000008_Node000009" class="edge">
<title>Node8&#45;&gt;Node9</title>
<g id="a_edge8_Node000008_Node000009"><a xlink:title=" ">
<path fill="none" stroke="#63b8ff" d="M144.06,-15C133.57,-15 123.01,-15 113.04,-15"/>
<polygon fill="#63b8ff" stroke="#63b8ff" points="144.06,-18.5 154.06,-15 144.06,-11.5 144.06,-18.5"/>
</a>
</g>
</g>
</g>
</svg>

<g id="navigator" transform="translate(0 0)" fill="#404254">
  <rect fill="#f2f5e9" fill-opacity="0.5" stroke="#606060" stroke-width=".5" x="0" y="0" width="60" height="60"/>
  <use id="zoomplus" xlink:href="#zoomPlus" x="17" y="9" onmousedown="handleZoom(evt,'in')"/>
  <use id="zoomminus" xlink:href="#zoomMin" x="42" y="9" onmousedown="handleZoom(evt,'out')"/>
  <use id="reset" xlink:href="#resetDef" x="30" y="36" onmousedown="handleReset()"/>
   <use id="arrowup" xlink:href="#arrowUp" x="0" y="0" onmousedown="handlePan(0,-1)"/>
  <use id="arrowright" xlink:href="#arrowRight" x="0" y="0" onmousedown="handlePan(1,0)"/>
  <use id="arrowdown" xlink:href="#arrowDown" x="0" y="0" onmousedown="handlePan(0,1)"/>
  <use id="arrowleft" xlink:href="#arrowLeft" x="0" y="0" onmousedown="handlePan(-1,0)"/>
</g>
<svg viewBox="0 0 15 15" width="100%" height="30px" preserveAspectRatio="xMaxYMin meet">
 <g id="arrow_out" transform="scale(0.3 0.3)">
  <a xlink:href="classbot_1_1BotManager_a2e8fcc3964b3cbe2c48869dc86bfa960_icgraph_org.svg" target="_base">
   <rect id="button" ry="5" rx="5" y="6" x="6" height="38" width="38"
        fill="#f2f5e9" fill-opacity="0.5" stroke="#606060" stroke-width="1.0"/>
   <path id="arrow"
     d="M 11.500037,31.436501 C 11.940474,20.09759 22.043105,11.32322 32.158766,21.979434 L 37.068811,17.246167 C 37.068811,17.246167 37.088388,32 37.088388,32 L 22.160133,31.978069 C 22.160133,31.978069 26.997745,27.140456 26.997745,27.140456 C 18.528582,18.264221 13.291696,25.230495 11.500037,31.436501 z"
     style="fill:#404040;"/>
  </a>
 </g>
</svg>

<style type='text/css'>
<![CDATA[
[data-mouse-over-selected='false'] { opacity: 0.7; }
[data-mouse-over-selected='true']  { opacity: 1.0; }
]]>
</style>
<script type="application/ecmascript"><![CDATA[
document.addEventListener('DOMContentLoaded', (event) => {
  highlightEdges();
  highlightAdjacentNodes();
});
]]></script>
</svg>
