<?xml version="1.0" encoding="UTF-8" standalone="no"?>
<!DOCTYPE svg PUBLIC "-//W3C//DTD SVG 1.1//EN"
 "http://www.w3.org/Graphics/SVG/1.1/DTD/svg11.dtd">
<!-- Generated by graphviz version 2.43.0 (0)
 -->
<!-- Title: bot.BotQueuedMessageException Pages: 1 -->
<svg width="356pt" height="679pt"
 viewBox="0.00 0.00 356.00 679.00" xmlns="http://www.w3.org/2000/svg" xmlns:xlink="http://www.w3.org/1999/xlink">
<g id="graph0" class="graph" transform="scale(1 1) rotate(0) translate(4 675)">
<title>bot.BotQueuedMessageException</title>
<!-- Node1 -->
<g id="node1" class="node">
<title>Node1</title>
<g id="a_node1"><a xlink:title=" ">
<polygon fill="#bfbfbf" stroke="black" points="83.5,-105.5 83.5,-162.5 264.5,-162.5 264.5,-105.5 83.5,-105.5"/>
<text text-anchor="middle" x="174" y="-150.5" font-family="Helvetica,sans-Serif" font-size="10.00">bot.BotQueuedMessageException</text>
<polyline fill="none" stroke="black" points="83.5,-143.5 264.5,-143.5 "/>
<text text-anchor="middle" x="174" y="-131.5" font-family="Helvetica,sans-Serif" font-size="10.00"> </text>
<polyline fill="none" stroke="black" points="83.5,-124.5 264.5,-124.5 "/>
<text text-anchor="middle" x="174" y="-112.5" font-family="Helvetica,sans-Serif" font-size="10.00"> </text>
</a>
</g>
</g>
<!-- Node6 -->
<g id="node6" class="node">
<title>Node6</title>
<g id="a_node6"><a xlink:href="classbot_1_1BotQueuedMessageInvalidException.html" target="_top" xlink:title=" ">
<polygon fill="none" stroke="black" points="0,-0.5 0,-68.5 166,-68.5 166,-0.5 0,-0.5"/>
<text text-anchor="start" x="8" y="-56.5" font-family="Helvetica,sans-Serif" font-size="10.00">bot.BotQueuedMessageInvalid</text>
<text text-anchor="middle" x="83" y="-45.5" font-family="Helvetica,sans-Serif" font-size="10.00">Exception</text>
<polyline fill="none" stroke="black" points="0,-38.5 166,-38.5 "/>
<text text-anchor="middle" x="83" y="-26.5" font-family="Helvetica,sans-Serif" font-size="10.00"> </text>
<polyline fill="none" stroke="black" points="0,-19.5 166,-19.5 "/>
<text text-anchor="middle" x="83" y="-7.5" font-family="Helvetica,sans-Serif" font-size="10.00"> </text>
</a>
</g>
</g>
<!-- Node1&#45;&gt;Node6 -->
<g id="edge5" class="edge">
<title>Node1&#45;&gt;Node6</title>
<path fill="none" stroke="midnightblue" d="M141.24,-97.9C132.39,-88.41 122.83,-78.17 114.07,-68.79"/>
<polygon fill="none" stroke="midnightblue" points="138.78,-100.4 148.17,-105.32 143.9,-95.62 138.78,-100.4"/>
</g>
<!-- Node7 -->
<g id="node7" class="node">
<title>Node7</title>
<g id="a_node7"><a xlink:href="classbot_1_1BotQueuedMessageResultException.html" target="_top" xlink:title=" ">
<polygon fill="none" stroke="black" points="184,-0.5 184,-68.5 348,-68.5 348,-0.5 184,-0.5"/>
<text text-anchor="start" x="192" y="-56.5" font-family="Helvetica,sans-Serif" font-size="10.00">bot.BotQueuedMessageResult</text>
<text text-anchor="middle" x="266" y="-45.5" font-family="Helvetica,sans-Serif" font-size="10.00">Exception</text>
<polyline fill="none" stroke="black" points="184,-38.5 348,-38.5 "/>
<text text-anchor="middle" x="266" y="-26.5" font-family="Helvetica,sans-Serif" font-size="10.00"> </text>
<polyline fill="none" stroke="black" points="184,-19.5 348,-19.5 "/>
<text text-anchor="middle" x="266" y="-7.5" font-family="Helvetica,sans-Serif" font-size="10.00"> </text>
</a>
</g>
</g>
<!-- Node1&#45;&gt;Node7 -->
<g id="edge6" class="edge">
<title>Node1&#45;&gt;Node7</title>
<path fill="none" stroke="midnightblue" d="M207.12,-97.9C216.07,-88.41 225.73,-78.17 234.59,-68.79"/>
<polygon fill="none" stroke="midnightblue" points="204.43,-95.65 200.12,-105.32 209.53,-100.45 204.43,-95.65"/>
</g>
<!-- Node2 -->
<g id="node2" class="node">
<title>Node2</title>
<g id="a_node2"><a xlink:href="classbot_1_1BotMessageException.html" target="_top" xlink:title=" ">
<polygon fill="none" stroke="black" points="102.5,-199.5 102.5,-256.5 245.5,-256.5 245.5,-199.5 102.5,-199.5"/>
<text text-anchor="middle" x="174" y="-244.5" font-family="Helvetica,sans-Serif" font-size="10.00">bot.BotMessageException</text>
<polyline fill="none" stroke="black" points="102.5,-237.5 245.5,-237.5 "/>
<text text-anchor="middle" x="174" y="-225.5" font-family="Helvetica,sans-Serif" font-size="10.00"> </text>
<polyline fill="none" stroke="black" points="102.5,-218.5 245.5,-218.5 "/>
<text text-anchor="middle" x="174" y="-206.5" font-family="Helvetica,sans-Serif" font-size="10.00"> </text>
</a>
</g>
</g>
<!-- Node2&#45;&gt;Node1 -->
<g id="edge1" class="edge">
<title>Node2&#45;&gt;Node1</title>
<path fill="none" stroke="midnightblue" d="M174,-189.21C174,-180.29 174,-170.95 174,-162.58"/>
<polygon fill="none" stroke="midnightblue" points="170.5,-189.4 174,-199.4 177.5,-189.4 170.5,-189.4"/>
</g>
<!-- Node3 -->
<g id="node3" class="node">
<title>Node3</title>
<g id="a_node3"><a xlink:href="classbot_1_1BotException.html" target="_top" xlink:title=" ">
<polygon fill="none" stroke="black" points="124,-293.5 124,-350.5 224,-350.5 224,-293.5 124,-293.5"/>
<text text-anchor="middle" x="174" y="-338.5" font-family="Helvetica,sans-Serif" font-size="10.00">bot.BotException</text>
<polyline fill="none" stroke="black" points="124,-331.5 224,-331.5 "/>
<text text-anchor="middle" x="174" y="-319.5" font-family="Helvetica,sans-Serif" font-size="10.00"> </text>
<polyline fill="none" stroke="black" points="124,-312.5 224,-312.5 "/>
<text text-anchor="middle" x="174" y="-300.5" font-family="Helvetica,sans-Serif" font-size="10.00"> </text>
</a>
</g>
</g>
<!-- Node3&#45;&gt;Node2 -->
<g id="edge2" class="edge">
<title>Node3&#45;&gt;Node2</title>
<path fill="none" stroke="midnightblue" d="M174,-283.21C174,-274.29 174,-264.95 174,-256.58"/>
<polygon fill="none" stroke="midnightblue" points="170.5,-283.4 174,-293.4 177.5,-283.4 170.5,-283.4"/>
</g>
<!-- Node4 -->
<g id="node4" class="node">
<title>Node4</title>
<g id="a_node4"><a xlink:href="classexception_1_1ChatbotException.html" target="_top" xlink:title=" ">
<polygon fill="none" stroke="black" points="97,-387.5 97,-576.5 251,-576.5 251,-387.5 97,-387.5"/>
<text text-anchor="middle" x="174" y="-564.5" font-family="Helvetica,sans-Serif" font-size="10.00">exception.ChatbotException</text>
<polyline fill="none" stroke="black" points="97,-557.5 251,-557.5 "/>
<text text-anchor="start" x="105" y="-545.5" font-family="Helvetica,sans-Serif" font-size="10.00">+ cause</text>
<text text-anchor="start" x="105" y="-534.5" font-family="Helvetica,sans-Serif" font-size="10.00">+ code</text>
<text text-anchor="start" x="105" y="-523.5" font-family="Helvetica,sans-Serif" font-size="10.00">+ filename</text>
<text text-anchor="start" x="105" y="-512.5" font-family="Helvetica,sans-Serif" font-size="10.00">+ lineno</text>
<text text-anchor="start" x="105" y="-501.5" font-family="Helvetica,sans-Serif" font-size="10.00">+ message</text>
<text text-anchor="start" x="105" y="-490.5" font-family="Helvetica,sans-Serif" font-size="10.00">+ severity</text>
<text text-anchor="start" x="105" y="-479.5" font-family="Helvetica,sans-Serif" font-size="10.00">+ traceback</text>
<text text-anchor="start" x="105" y="-468.5" font-family="Helvetica,sans-Serif" font-size="10.00">+ type</text>
<text text-anchor="start" x="105" y="-457.5" font-family="Helvetica,sans-Serif" font-size="10.00">+ SEVERITY_TO_LOGGING</text>
<polyline fill="none" stroke="black" points="97,-450.5 251,-450.5 "/>
<text text-anchor="start" x="105" y="-438.5" font-family="Helvetica,sans-Serif" font-size="10.00">+ __init__()</text>
<text text-anchor="start" x="105" y="-427.5" font-family="Helvetica,sans-Serif" font-size="10.00">+ __repr__()</text>
<text text-anchor="start" x="105" y="-416.5" font-family="Helvetica,sans-Serif" font-size="10.00">+ __str__()</text>
<text text-anchor="start" x="105" y="-405.5" font-family="Helvetica,sans-Serif" font-size="10.00">+ to_dict()</text>
<text text-anchor="start" x="105" y="-394.5" font-family="Helvetica,sans-Serif" font-size="10.00">+ to_json()</text>
</a>
</g>
</g>
<!-- Node4&#45;&gt;Node3 -->
<g id="edge3" class="edge">
<title>Node4&#45;&gt;Node3</title>
<path fill="none" stroke="midnightblue" d="M174,-377.13C174,-367.56 174,-358.54 174,-350.7"/>
<polygon fill="none" stroke="midnightblue" points="170.5,-377.26 174,-387.26 177.5,-377.26 170.5,-377.26"/>
</g>
<!-- Node5 -->
<g id="node5" class="node">
<title>Node5</title>
<g id="a_node5"><a xlink:title=" ">
<polygon fill="none" stroke="#bfbfbf" points="141.5,-613.5 141.5,-670.5 206.5,-670.5 206.5,-613.5 141.5,-613.5"/>
<text text-anchor="middle" x="174" y="-658.5" font-family="Helvetica,sans-Serif" font-size="10.00">Exception</text>
<polyline fill="none" stroke="#bfbfbf" points="141.5,-651.5 206.5,-651.5 "/>
<text text-anchor="middle" x="174" y="-639.5" font-family="Helvetica,sans-Serif" font-size="10.00"> </text>
<polyline fill="none" stroke="#bfbfbf" points="141.5,-632.5 206.5,-632.5 "/>
<text text-anchor="middle" x="174" y="-620.5" font-family="Helvetica,sans-Serif" font-size="10.00"> </text>
</a>
</g>
</g>
<!-- Node5&#45;&gt;Node4 -->
<g id="edge4" class="edge">
<title>Node5&#45;&gt;Node4</title>
<path fill="none" stroke="midnightblue" d="M174,-603.22C174,-595.01 174,-585.99 174,-576.68"/>
<polygon fill="none" stroke="midnightblue" points="170.5,-603.48 174,-613.48 177.5,-603.48 170.5,-603.48"/>
</g>
</g>
</svg>
