<?xml version="1.0" encoding="UTF-8" standalone="no"?>
<!DOCTYPE svg PUBLIC "-//W3C//DTD SVG 1.1//EN"
 "http://www.w3.org/Graphics/SVG/1.1/DTD/svg11.dtd">
<!-- Generated by graphviz version 2.43.0 (0)
 -->
<!-- Title: bot.BotManager.create_bot Pages: 1 -->
<svg width="675pt" height="225pt"
 viewBox="0.00 0.00 675.00 225.00" xmlns="http://www.w3.org/2000/svg" xmlns:xlink="http://www.w3.org/1999/xlink">
<g id="graph0" class="graph" transform="scale(1 1) rotate(0) translate(4 221)">
<title>bot.BotManager.create_bot</title>
<!-- Node1 -->
<g id="node1" class="node">
<title>Node1</title>
<g id="a_node1"><a xlink:title=" ">
<polygon fill="#bfbfbf" stroke="black" points="518,-50 518,-69 667,-69 667,-50 518,-50"/>
<text text-anchor="middle" x="592.5" y="-57" font-family="Helvetica,sans-Serif" font-size="10.00">bot.BotManager.create_bot</text>
</a>
</g>
</g>
<!-- Node2 -->
<g id="node2" class="node">
<title>Node2</title>
<g id="a_node2"><a xlink:href="classbot_1_1BotManager.html#add838a9111964ac3ef46d63d6dd640d5" target="_top" xlink:title=" ">
<polygon fill="none" stroke="black" points="345,-88.5 345,-118.5 473,-118.5 473,-88.5 345,-88.5"/>
<text text-anchor="start" x="353" y="-106.5" font-family="Helvetica,sans-Serif" font-size="10.00">bot.BotManager.create</text>
<text text-anchor="middle" x="409" y="-95.5" font-family="Helvetica,sans-Serif" font-size="10.00">_if_not_exist_bot</text>
</a>
</g>
</g>
<!-- Node1&#45;&gt;Node2 -->
<g id="edge1" class="edge">
<title>Node1&#45;&gt;Node2</title>
<path fill="none" stroke="midnightblue" d="M542.19,-71.46C520.59,-76.69 495.02,-82.89 472.14,-88.43"/>
<polygon fill="midnightblue" stroke="midnightblue" points="543.22,-74.8 552.12,-69.05 541.57,-68 543.22,-74.8"/>
</g>
<!-- Node7 -->
<g id="node7" class="node">
<title>Node7</title>
<g id="a_node7"><a xlink:href="classbot_1_1BotManager.html#a6277812686ae6ccc51f8663ec760df8a" target="_top" xlink:title=" ">
<polygon fill="none" stroke="black" points="336,-20.5 336,-50.5 482,-50.5 482,-20.5 336,-20.5"/>
<text text-anchor="start" x="344" y="-38.5" font-family="Helvetica,sans-Serif" font-size="10.00">bot.BotManager.terminate</text>
<text text-anchor="middle" x="409" y="-27.5" font-family="Helvetica,sans-Serif" font-size="10.00">_and_restart_bot</text>
</a>
</g>
</g>
<!-- Node1&#45;&gt;Node7 -->
<g id="edge6" class="edge">
<title>Node1&#45;&gt;Node7</title>
<path fill="none" stroke="midnightblue" d="M509.35,-48.64C500.3,-47.44 491.12,-46.23 482.2,-45.05"/>
<polygon fill="midnightblue" stroke="midnightblue" points="509.13,-52.14 519.51,-49.98 510.05,-45.2 509.13,-52.14"/>
</g>
<!-- Node3 -->
<g id="node3" class="node">
<title>Node3</title>
<g id="a_node3"><a xlink:href="classbot_1_1BotManager.html#a476223236141f8727739094c156b8790" target="_top" xlink:title=" ">
<polygon fill="none" stroke="black" points="149,-186.5 149,-216.5 300,-216.5 300,-186.5 149,-186.5"/>
<text text-anchor="start" x="157" y="-204.5" font-family="Helvetica,sans-Serif" font-size="10.00">bot.BotManager.create</text>
<text text-anchor="middle" x="224.5" y="-193.5" font-family="Helvetica,sans-Serif" font-size="10.00">_if_not_exist_and_start_bot</text>
</a>
</g>
</g>
<!-- Node2&#45;&gt;Node3 -->
<g id="edge2" class="edge">
<title>Node2&#45;&gt;Node3</title>
<path fill="none" stroke="midnightblue" d="M381.39,-124.98C360.31,-141.16 329.59,-162.98 300,-177.5 293.29,-180.79 286.03,-183.78 278.75,-186.44"/>
<polygon fill="midnightblue" stroke="midnightblue" points="383.79,-127.55 389.52,-118.64 379.48,-122.03 383.79,-127.55"/>
</g>
<!-- Node4 -->
<g id="node4" class="node">
<title>Node4</title>
<g id="a_node4"><a xlink:href="classbot_1_1BotManager.html#afcf8120800e601f205fe2ad2a2436efa" target="_top" xlink:title=" ">
<polygon fill="none" stroke="black" points="157.5,-137.5 157.5,-167.5 291.5,-167.5 291.5,-137.5 157.5,-137.5"/>
<text text-anchor="start" x="165.5" y="-155.5" font-family="Helvetica,sans-Serif" font-size="10.00">bot.BotManager.receive</text>
<text text-anchor="middle" x="224.5" y="-144.5" font-family="Helvetica,sans-Serif" font-size="10.00">_message_from_bot</text>
</a>
</g>
</g>
<!-- Node2&#45;&gt;Node4 -->
<g id="edge3" class="edge">
<title>Node2&#45;&gt;Node4</title>
<path fill="none" stroke="midnightblue" d="M341.9,-121.25C322.12,-126.56 300.63,-132.33 281.56,-137.45"/>
<polygon fill="midnightblue" stroke="midnightblue" points="343,-124.57 351.75,-118.6 341.19,-117.81 343,-124.57"/>
</g>
<!-- Node5 -->
<g id="node5" class="node">
<title>Node5</title>
<g id="a_node5"><a xlink:href="classbot_1_1BotManager.html#a1252539ad8ced4a098615fbdde873893" target="_top" xlink:title=" ">
<polygon fill="none" stroke="black" points="164,-88.5 164,-118.5 285,-118.5 285,-88.5 164,-88.5"/>
<text text-anchor="start" x="172" y="-106.5" font-family="Helvetica,sans-Serif" font-size="10.00">bot.BotManager.send</text>
<text text-anchor="middle" x="224.5" y="-95.5" font-family="Helvetica,sans-Serif" font-size="10.00">_message_on_bot</text>
</a>
</g>
</g>
<!-- Node2&#45;&gt;Node5 -->
<g id="edge4" class="edge">
<title>Node2&#45;&gt;Node5</title>
<path fill="none" stroke="midnightblue" d="M334.8,-103.5C318.33,-103.5 301.03,-103.5 285.18,-103.5"/>
<polygon fill="midnightblue" stroke="midnightblue" points="334.94,-107 344.94,-103.5 334.94,-100 334.94,-107"/>
</g>
<!-- Node6 -->
<g id="node6" class="node">
<title>Node6</title>
<g id="a_node6"><a xlink:href="classbot_1_1BotManager.html#ac3951e114a0a17e9680bc7313025b52a" target="_top" xlink:title=" ">
<polygon fill="none" stroke="black" points="154,-50 154,-69 295,-69 295,-50 154,-50"/>
<text text-anchor="middle" x="224.5" y="-57" font-family="Helvetica,sans-Serif" font-size="10.00">bot.BotManager.start_bot</text>
</a>
</g>
</g>
<!-- Node2&#45;&gt;Node6 -->
<g id="edge5" class="edge">
<title>Node2&#45;&gt;Node6</title>
<path fill="none" stroke="midnightblue" d="M335.84,-86.1C311.69,-80.28 285.66,-74 264.95,-69.01"/>
<polygon fill="midnightblue" stroke="midnightblue" points="335.16,-89.54 345.7,-88.48 336.8,-82.73 335.16,-89.54"/>
</g>
<!-- Node8 -->
<g id="node8" class="node">
<title>Node8</title>
<g id="a_node8"><a xlink:href="classbot_1_1BotManager.html#ad22b0997528b8f1d1903733008df541d" target="_top" xlink:title=" ">
<polygon fill="none" stroke="black" points="154,-0.5 154,-30.5 295,-30.5 295,-0.5 154,-0.5"/>
<text text-anchor="start" x="162" y="-18.5" font-family="Helvetica,sans-Serif" font-size="10.00">bot.BotManager.maintain</text>
<text text-anchor="middle" x="224.5" y="-7.5" font-family="Helvetica,sans-Serif" font-size="10.00">_alive_bots</text>
</a>
</g>
</g>
<!-- Node7&#45;&gt;Node8 -->
<g id="edge7" class="edge">
<title>Node7&#45;&gt;Node8</title>
<path fill="none" stroke="midnightblue" d="M325.69,-26.48C315.45,-25.36 305.05,-24.22 295.02,-23.12"/>
<polygon fill="midnightblue" stroke="midnightblue" points="325.55,-29.99 335.87,-27.6 326.31,-23.03 325.55,-29.99"/>
</g>
<!-- Node9 -->
<g id="node9" class="node">
<title>Node9</title>
<g id="a_node9"><a xlink:href="classbot_1_1BotManager.html#aea79e8e1137316f2f7e782292d0e298b" target="_top" xlink:title=" ">
<polygon fill="none" stroke="black" points="0,-6 0,-25 113,-25 113,-6 0,-6"/>
<text text-anchor="middle" x="56.5" y="-13" font-family="Helvetica,sans-Serif" font-size="10.00">bot.BotManager.run</text>
</a>
</g>
</g>
<!-- Node8&#45;&gt;Node9 -->
<g id="edge8" class="edge">
<title>Node8&#45;&gt;Node9</title>
<path fill="none" stroke="midnightblue" d="M143.42,-15.5C133.21,-15.5 122.94,-15.5 113.23,-15.5"/>
<polygon fill="midnightblue" stroke="midnightblue" points="143.58,-19 153.58,-15.5 143.58,-12 143.58,-19"/>
</g>
</g>
</svg>
