<?xml version="1.0" encoding="UTF-8" standalone="no"?>
<!DOCTYPE svg PUBLIC "-//W3C//DTD SVG 1.1//EN"
 "http://www.w3.org/Graphics/SVG/1.1/DTD/svg11.dtd">
<!-- Generated by graphviz version 2.43.0 (0)
 -->
<!-- Title: bot.QueuedMessage Pages: 1 -->
<svg width="346pt" height="302pt"
 viewBox="0.00 0.00 345.50 302.00" xmlns="http://www.w3.org/2000/svg" xmlns:xlink="http://www.w3.org/1999/xlink">
<g id="graph0" class="graph" transform="scale(1 1) rotate(0) translate(4 298)">
<title>bot.QueuedMessage</title>
<!-- Node1 -->
<g id="Node000001" class="node">
<title>Node1</title>
<g id="a_Node000001"><a xlink:title=" ">
<polygon fill="#999999" stroke="transparent" points="253.5,-294 79.5,-294 79.5,-122 253.5,-122 253.5,-294"/>
<text text-anchor="start" x="116.5" y="-282" font-family="Helvetica,sans-Serif" font-size="10.00">bot.QueuedMessage</text>
<text text-anchor="start" x="83.5" y="-267" font-family="Helvetica,sans-Serif" font-size="10.00">+</text>
<text text-anchor="start" x="96.5" y="-267" font-family="Helvetica,sans-Serif" font-size="10.00">event</text>
<text text-anchor="start" x="83.5" y="-252" font-family="Helvetica,sans-Serif" font-size="10.00">+</text>
<text text-anchor="start" x="96.5" y="-252" font-family="Helvetica,sans-Serif" font-size="10.00">message</text>
<text text-anchor="start" x="83.5" y="-237" font-family="Helvetica,sans-Serif" font-size="10.00">+</text>
<text text-anchor="start" x="96.5" y="-237" font-family="Helvetica,sans-Serif" font-size="10.00">result</text>
<text text-anchor="start" x="83.5" y="-222" font-family="Helvetica,sans-Serif" font-size="10.00">+</text>
<text text-anchor="start" x="96.5" y="-222" font-family="Helvetica,sans-Serif" font-size="10.00">store_retries</text>
<text text-anchor="start" x="83.5" y="-207" font-family="Helvetica,sans-Serif" font-size="10.00">+</text>
<text text-anchor="start" x="96.5" y="-207" font-family="Helvetica,sans-Serif" font-size="10.00">stored_ok</text>
<text text-anchor="start" x="83.5" y="-192" font-family="Helvetica,sans-Serif" font-size="10.00">+</text>
<text text-anchor="start" x="96.5" y="-192" font-family="Helvetica,sans-Serif" font-size="10.00">__init__(self, message,</text>
<text text-anchor="start" x="96.5" y="-181" font-family="Helvetica,sans-Serif" font-size="10.00"> int max_store_retries=3)</text>
<text text-anchor="start" x="83.5" y="-166" font-family="Helvetica,sans-Serif" font-size="10.00">+</text>
<text text-anchor="start" x="96.5" y="-166" font-family="Helvetica,sans-Serif" font-size="10.00">set_result(self, bool</text>
<text text-anchor="start" x="96.5" y="-155" font-family="Helvetica,sans-Serif" font-size="10.00"> result)</text>
<text text-anchor="start" x="83.5" y="-140" font-family="Helvetica,sans-Serif" font-size="10.00">+</text>
<text text-anchor="start" x="96.5" y="-140" font-family="Helvetica,sans-Serif" font-size="10.00">wait_result(self,</text>
<text text-anchor="start" x="96.5" y="-129" font-family="Helvetica,sans-Serif" font-size="10.00"> Optional[float] timeout=None)</text>
<polygon fill="#666666" stroke="#666666" points="79.5,-277 79.5,-277 253.5,-277 253.5,-277 79.5,-277"/>
<polygon fill="#666666" stroke="#666666" points="79.5,-202 79.5,-202 94.5,-202 94.5,-202 79.5,-202"/>
<polygon fill="#666666" stroke="#666666" points="94.5,-202 94.5,-202 253.5,-202 253.5,-202 94.5,-202"/>
<polygon fill="none" stroke="#666666" points="79.5,-122 79.5,-294 253.5,-294 253.5,-122 79.5,-122"/>
</a>
</g>
</g>
<!-- Node2 -->
<g id="Node000002" class="node">
<title>Node2</title>
<g id="a_Node000002"><a xlink:href="classbot_1_1IncomingQueuedMessage.html" target="_top" xlink:title=" ">
<polygon fill="white" stroke="transparent" points="155,-73 0,-73 0,-13 155,-13 155,-73"/>
<text text-anchor="start" x="5.5" y="-61" font-family="Helvetica,sans-Serif" font-size="10.00">bot.IncomingQueuedMessage</text>
<text text-anchor="start" x="76" y="-46" font-family="Helvetica,sans-Serif" font-size="10.00"> </text>
<text text-anchor="start" x="6.5" y="-31" font-family="Helvetica,sans-Serif" font-size="10.00">+</text>
<text text-anchor="start" x="21.5" y="-31" font-family="Helvetica,sans-Serif" font-size="10.00">__init__(self, message,</text>
<text text-anchor="start" x="21.5" y="-20" font-family="Helvetica,sans-Serif" font-size="10.00"> int max_store_retries=3)</text>
<polygon fill="#666666" stroke="#666666" points="0.5,-56 0.5,-56 155.5,-56 155.5,-56 0.5,-56"/>
<polygon fill="#666666" stroke="#666666" points="0.5,-41 0.5,-41 155.5,-41 155.5,-41 0.5,-41"/>
<polygon fill="none" stroke="#666666" points="0,-13 0,-73 155,-73 155,-13 0,-13"/>
</a>
</g>
</g>
<!-- Node1&#45;&gt;Node2 -->
<g id="edge1_Node000001_Node000002" class="edge">
<title>Node1&#45;&gt;Node2</title>
<g id="a_edge1_Node000001_Node000002"><a xlink:title=" ">
<path fill="none" stroke="#63b8ff" d="M115.03,-112.74C107.24,-98.47 99.74,-84.73 93.52,-73.34"/>
<polygon fill="none" stroke="#63b8ff" points="112.05,-114.58 119.91,-121.68 118.19,-111.23 112.05,-114.58"/>
</a>
</g>
</g>
<!-- Node3 -->
<g id="Node000003" class="node">
<title>Node3</title>
<g id="a_Node000003"><a xlink:href="classbot_1_1OutgoingQueuedMessage.html" target="_top" xlink:title=" ">
<polygon fill="white" stroke="transparent" points="337.5,-86 173.5,-86 173.5,0 337.5,0 337.5,-86"/>
<text text-anchor="start" x="183" y="-74" font-family="Helvetica,sans-Serif" font-size="10.00">bot.OutgoingQueuedMessage</text>
<text text-anchor="start" x="177.5" y="-59" font-family="Helvetica,sans-Serif" font-size="10.00">+</text>
<text text-anchor="start" x="190.5" y="-59" font-family="Helvetica,sans-Serif" font-size="10.00">send_retries</text>
<text text-anchor="start" x="177.5" y="-44" font-family="Helvetica,sans-Serif" font-size="10.00">+</text>
<text text-anchor="start" x="190.5" y="-44" font-family="Helvetica,sans-Serif" font-size="10.00">sent_ok</text>
<text text-anchor="start" x="177.5" y="-29" font-family="Helvetica,sans-Serif" font-size="10.00">+</text>
<text text-anchor="start" x="190.5" y="-29" font-family="Helvetica,sans-Serif" font-size="10.00">__init__(self, message,</text>
<text text-anchor="start" x="190.5" y="-18" font-family="Helvetica,sans-Serif" font-size="10.00"> int max_send_retries</text>
<text text-anchor="start" x="190.5" y="-7" font-family="Helvetica,sans-Serif" font-size="10.00">=3, int max_store_retries=3)</text>
<polygon fill="#666666" stroke="#666666" points="173.5,-69 173.5,-69 337.5,-69 337.5,-69 173.5,-69"/>
<polygon fill="#666666" stroke="#666666" points="173.5,-39 173.5,-39 188.5,-39 188.5,-39 173.5,-39"/>
<polygon fill="#666666" stroke="#666666" points="188.5,-39 188.5,-39 337.5,-39 337.5,-39 188.5,-39"/>
<polygon fill="none" stroke="#666666" points="173.5,0 173.5,-86 337.5,-86 337.5,0 173.5,0"/>
</a>
</g>
</g>
<!-- Node1&#45;&gt;Node3 -->
<g id="edge2_Node000001_Node000003" class="edge">
<title>Node1&#45;&gt;Node3</title>
<g id="a_edge2_Node000001_Node000003"><a xlink:title=" ">
<path fill="none" stroke="#63b8ff" d="M217.95,-112.76C223,-103.52 227.93,-94.49 232.46,-86.19"/>
<polygon fill="none" stroke="#63b8ff" points="214.81,-111.23 213.09,-121.68 220.95,-114.58 214.81,-111.23"/>
</a>
</g>
</g>
</g>
</svg>
