<?xml version="1.0" encoding="UTF-8" standalone="no"?>
<!DOCTYPE svg PUBLIC "-//W3C//DTD SVG 1.1//EN"
 "http://www.w3.org/Graphics/SVG/1.1/DTD/svg11.dtd">
<!-- Generated by graphviz version 2.43.0 (0)
 -->
<!-- Title: bot.Bot.start Pages: 1 -->
<svg width="270pt" height="88pt"
 viewBox="0.00 0.00 270.00 88.00" xmlns="http://www.w3.org/2000/svg" xmlns:xlink="http://www.w3.org/1999/xlink">
<g id="graph0" class="graph" transform="scale(1 1) rotate(0) translate(4 84)">
<title>bot.Bot.start</title>
<!-- Node1 -->
<g id="node1" class="node">
<title>Node1</title>
<g id="a_node1"><a xlink:title=" ">
<polygon fill="#bfbfbf" stroke="black" points="0,-30 0,-49 77,-49 77,-30 0,-30"/>
<text text-anchor="middle" x="38.5" y="-37" font-family="Helvetica,sans-Serif" font-size="10.00">bot.Bot.start</text>
</a>
</g>
</g>
<!-- Node2 -->
<g id="node2" class="node">
<title>Node2</title>
<g id="a_node2"><a xlink:href="classbot_1_1Bot.html#ab59d7a2ff54fb51aba3c7c537dc9dd9f" target="_top" xlink:title=" ">
<polygon fill="none" stroke="black" points="113,-49.5 113,-79.5 262,-79.5 262,-49.5 113,-49.5"/>
<text text-anchor="start" x="121" y="-67.5" font-family="Helvetica,sans-Serif" font-size="10.00">bot.Bot.consume_incoming</text>
<text text-anchor="middle" x="187.5" y="-56.5" font-family="Helvetica,sans-Serif" font-size="10.00">_queue</text>
</a>
</g>
</g>
<!-- Node1&#45;&gt;Node2 -->
<g id="edge1" class="edge">
<title>Node1&#45;&gt;Node2</title>
<path fill="none" stroke="midnightblue" d="M77.36,-45.94C85.27,-47.28 93.91,-48.75 102.75,-50.26"/>
<polygon fill="midnightblue" stroke="midnightblue" points="102.34,-53.74 112.78,-51.96 103.51,-46.84 102.34,-53.74"/>
</g>
<!-- Node3 -->
<g id="node3" class="node">
<title>Node3</title>
<g id="a_node3"><a xlink:href="classbot_1_1Bot.html#affc589ed1cdb57710dc551f8a460cb6d" target="_top" xlink:title=" ">
<polygon fill="none" stroke="black" points="114,-0.5 114,-30.5 261,-30.5 261,-0.5 114,-0.5"/>
<text text-anchor="start" x="122" y="-18.5" font-family="Helvetica,sans-Serif" font-size="10.00">bot.Bot.consume_outgoing</text>
<text text-anchor="middle" x="187.5" y="-7.5" font-family="Helvetica,sans-Serif" font-size="10.00">_queue</text>
</a>
</g>
</g>
<!-- Node1&#45;&gt;Node3 -->
<g id="edge2" class="edge">
<title>Node1&#45;&gt;Node3</title>
<path fill="none" stroke="midnightblue" d="M77.36,-33.32C85.6,-31.97 94.64,-30.5 103.87,-28.99"/>
<polygon fill="midnightblue" stroke="midnightblue" points="104.63,-32.41 113.94,-27.35 103.5,-25.5 104.63,-32.41"/>
</g>
</g>
</svg>
