<?xml version="1.0" encoding="UTF-8" standalone="no"?>
<!DOCTYPE svg PUBLIC "-//W3C//DTD SVG 1.1//EN"
 "http://www.w3.org/Graphics/SVG/1.1/DTD/svg11.dtd">
<!-- Generated by graphviz version 2.43.0 (0)
 -->
<!-- Title: env.EnvironmentException Pages: 1 -->
<svg width="539pt" height="569pt"
 viewBox="0.00 0.00 539.00 569.00" xmlns="http://www.w3.org/2000/svg" xmlns:xlink="http://www.w3.org/1999/xlink">
<g id="graph0" class="graph" transform="scale(1 1) rotate(0) translate(4 565)">
<title>env.EnvironmentException</title>
<!-- Node1 -->
<g id="Node000001" class="node">
<title>Node1</title>
<g id="a_Node000001"><a xlink:title=" ">
<polygon fill="#999999" stroke="transparent" points="347,-145 206,-145 206,-96 347,-96 347,-145"/>
<text text-anchor="start" x="211.5" y="-132.5" font-family="Helvetica,sans-Serif" font-size="10.00">env.EnvironmentException</text>
<text text-anchor="start" x="275" y="-117.5" font-family="Helvetica,sans-Serif" font-size="10.00"> </text>
<text text-anchor="start" x="275" y="-102.5" font-family="Helvetica,sans-Serif" font-size="10.00"> </text>
<polygon fill="#666666" stroke="#666666" points="206.5,-127.5 206.5,-127.5 347.5,-127.5 347.5,-127.5 206.5,-127.5"/>
<polygon fill="#666666" stroke="#666666" points="206.5,-112.5 206.5,-112.5 347.5,-112.5 347.5,-112.5 206.5,-112.5"/>
<polygon fill="none" stroke="#666666" points="206,-96 206,-145 347,-145 347,-96 206,-96"/>
</a>
</g>
</g>
<!-- Node4 -->
<g id="Node000004" class="node">
<title>Node4</title>
<g id="a_Node000004"><a xlink:href="classenv_1_1EnvironmentCheckException.html" target="_top" xlink:title=" ">
<polygon fill="white" stroke="transparent" points="171,-54.5 0,-54.5 0,-5.5 171,-5.5 171,-54.5"/>
<text text-anchor="start" x="5.5" y="-42" font-family="Helvetica,sans-Serif" font-size="10.00">env.EnvironmentCheckException</text>
<text text-anchor="start" x="84" y="-27" font-family="Helvetica,sans-Serif" font-size="10.00"> </text>
<text text-anchor="start" x="84" y="-12" font-family="Helvetica,sans-Serif" font-size="10.00"> </text>
<polygon fill="#666666" stroke="#666666" points="0.5,-37 0.5,-37 171.5,-37 171.5,-37 0.5,-37"/>
<polygon fill="#666666" stroke="#666666" points="0.5,-22 0.5,-22 171.5,-22 171.5,-22 0.5,-22"/>
<polygon fill="none" stroke="#666666" points="0,-5.5 0,-54.5 171,-54.5 171,-5.5 0,-5.5"/>
</a>
</g>
</g>
<!-- Node1&#45;&gt;Node4 -->
<g id="edge3_Node000001_Node000004" class="edge">
<title>Node1&#45;&gt;Node4</title>
<g id="a_edge3_Node000001_Node000004"><a xlink:title=" ">
<path fill="none" stroke="#63b8ff" d="M216.29,-91.6C190.57,-79.68 160.88,-65.93 136.29,-54.53"/>
<polygon fill="none" stroke="#63b8ff" points="215.02,-94.87 225.57,-95.9 217.96,-88.52 215.02,-94.87"/>
</a>
</g>
</g>
<!-- Node5 -->
<g id="Node000005" class="node">
<title>Node5</title>
<g id="a_Node000005"><a xlink:href="classenv_1_1EnvironmentMissingRequiredVariableException.html" target="_top" xlink:title=" ">
<polygon fill="white" stroke="transparent" points="363.5,-60 189.5,-60 189.5,0 363.5,0 363.5,-60"/>
<text text-anchor="start" x="194.5" y="-48" font-family="Helvetica,sans-Serif" font-size="10.00">env.EnvironmentMissingRequired</text>
<text text-anchor="start" x="232.5" y="-37" font-family="Helvetica,sans-Serif" font-size="10.00">VariableException</text>
<text text-anchor="start" x="274.5" y="-22" font-family="Helvetica,sans-Serif" font-size="10.00"> </text>
<text text-anchor="start" x="274.5" y="-7" font-family="Helvetica,sans-Serif" font-size="10.00"> </text>
<polygon fill="#666666" stroke="#666666" points="189.5,-32 189.5,-32 363.5,-32 363.5,-32 189.5,-32"/>
<polygon fill="#666666" stroke="#666666" points="189.5,-17 189.5,-17 363.5,-17 363.5,-17 189.5,-17"/>
<polygon fill="none" stroke="#666666" points="189.5,0 189.5,-60 363.5,-60 363.5,0 189.5,0"/>
</a>
</g>
</g>
<!-- Node1&#45;&gt;Node5 -->
<g id="edge4_Node000001_Node000005" class="edge">
<title>Node1&#45;&gt;Node5</title>
<g id="a_edge4_Node000001_Node000005"><a xlink:title=" ">
<path fill="none" stroke="#63b8ff" d="M276.5,-85.55C276.5,-77.18 276.5,-68.28 276.5,-60.16"/>
<polygon fill="none" stroke="#63b8ff" points="273,-85.78 276.5,-95.78 280,-85.78 273,-85.78"/>
</a>
</g>
</g>
<!-- Node6 -->
<g id="Node000006" class="node">
<title>Node6</title>
<g id="a_Node000006"><a xlink:href="classenv_1_1EnvironmentUnmatchedVariableTypeException.html" target="_top" xlink:title=" ">
<polygon fill="white" stroke="transparent" points="531,-60 382,-60 382,0 531,0 531,-60"/>
<text text-anchor="start" x="387.5" y="-48" font-family="Helvetica,sans-Serif" font-size="10.00">env.EnvironmentUnmatched</text>
<text text-anchor="start" x="401.5" y="-37" font-family="Helvetica,sans-Serif" font-size="10.00">VariableTypeException</text>
<text text-anchor="start" x="455" y="-22" font-family="Helvetica,sans-Serif" font-size="10.00"> </text>
<text text-anchor="start" x="455" y="-7" font-family="Helvetica,sans-Serif" font-size="10.00"> </text>
<polygon fill="#666666" stroke="#666666" points="382.5,-32 382.5,-32 531.5,-32 531.5,-32 382.5,-32"/>
<polygon fill="#666666" stroke="#666666" points="382.5,-17 382.5,-17 531.5,-17 531.5,-17 382.5,-17"/>
<polygon fill="none" stroke="#666666" points="382,0 382,-60 531,-60 531,0 382,0"/>
</a>
</g>
</g>
<!-- Node1&#45;&gt;Node6 -->
<g id="edge5_Node000001_Node000006" class="edge">
<title>Node1&#45;&gt;Node6</title>
<g id="a_edge5_Node000001_Node000006"><a xlink:title=" ">
<path fill="none" stroke="#63b8ff" d="M333.83,-91.31C354.05,-81.37 376.82,-70.18 397.2,-60.16"/>
<polygon fill="none" stroke="#63b8ff" points="332.17,-88.23 324.74,-95.78 335.25,-94.51 332.17,-88.23"/>
</a>
</g>
</g>
<!-- Node2 -->
<g id="Node000002" class="node">
<title>Node2</title>
<g id="a_Node000002"><a xlink:href="classexception_1_1ChatbotException.html" target="_top" xlink:title=" ">
<polygon fill="white" stroke="transparent" points="401.5,-476 151.5,-476 151.5,-181 401.5,-181 401.5,-476"/>
<text text-anchor="start" x="207.5" y="-463.5" font-family="Helvetica,sans-Serif" font-size="10.00">exception.ChatbotException</text>
<text text-anchor="start" x="155.5" y="-448.5" font-family="Helvetica,sans-Serif" font-size="10.00">+</text>
<text text-anchor="start" x="168.5" y="-448.5" font-family="Helvetica,sans-Serif" font-size="10.00">cause</text>
<text text-anchor="start" x="155.5" y="-433.5" font-family="Helvetica,sans-Serif" font-size="10.00">+</text>
<text text-anchor="start" x="168.5" y="-433.5" font-family="Helvetica,sans-Serif" font-size="10.00">code</text>
<text text-anchor="start" x="155.5" y="-418.5" font-family="Helvetica,sans-Serif" font-size="10.00">+</text>
<text text-anchor="start" x="168.5" y="-418.5" font-family="Helvetica,sans-Serif" font-size="10.00">filename</text>
<text text-anchor="start" x="155.5" y="-403.5" font-family="Helvetica,sans-Serif" font-size="10.00">+</text>
<text text-anchor="start" x="168.5" y="-403.5" font-family="Helvetica,sans-Serif" font-size="10.00">lineno</text>
<text text-anchor="start" x="155.5" y="-388.5" font-family="Helvetica,sans-Serif" font-size="10.00">+</text>
<text text-anchor="start" x="168.5" y="-388.5" font-family="Helvetica,sans-Serif" font-size="10.00">message</text>
<text text-anchor="start" x="155.5" y="-373.5" font-family="Helvetica,sans-Serif" font-size="10.00">+</text>
<text text-anchor="start" x="168.5" y="-373.5" font-family="Helvetica,sans-Serif" font-size="10.00">severity</text>
<text text-anchor="start" x="155.5" y="-358.5" font-family="Helvetica,sans-Serif" font-size="10.00">+</text>
<text text-anchor="start" x="168.5" y="-358.5" font-family="Helvetica,sans-Serif" font-size="10.00">traceback</text>
<text text-anchor="start" x="155.5" y="-343.5" font-family="Helvetica,sans-Serif" font-size="10.00">+</text>
<text text-anchor="start" x="168.5" y="-343.5" font-family="Helvetica,sans-Serif" font-size="10.00">type</text>
<text text-anchor="start" x="155.5" y="-328.5" font-family="Helvetica,sans-Serif" font-size="10.00">+</text>
<text text-anchor="start" x="168.5" y="-328.5" font-family="Helvetica,sans-Serif" font-size="10.00">SEVERITY_TO_LOGGING</text>
<text text-anchor="start" x="155.5" y="-313.5" font-family="Helvetica,sans-Serif" font-size="10.00">+</text>
<text text-anchor="start" x="168.5" y="-313.5" font-family="Helvetica,sans-Serif" font-size="10.00">__init__(self, &quot;Chatbot</text>
<text text-anchor="start" x="168.5" y="-302.5" font-family="Helvetica,sans-Serif" font-size="10.00">Exception.ChatbotExceptionCode&quot;</text>
<text text-anchor="start" x="168.5" y="-291.5" font-family="Helvetica,sans-Serif" font-size="10.00"> code=None, str message=None,</text>
<text text-anchor="start" x="168.5" y="-280.5" font-family="Helvetica,sans-Serif" font-size="10.00"> &quot;ChatbotException.ChatbotExceptionSeverity&quot;</text>
<text text-anchor="start" x="168.5" y="-269.5" font-family="Helvetica,sans-Serif" font-size="10.00"> severity=None, str filename=None, int</text>
<text text-anchor="start" x="168.5" y="-258.5" font-family="Helvetica,sans-Serif" font-size="10.00"> lineno=None, Exception cause=None, bool</text>
<text text-anchor="start" x="168.5" y="-247.5" font-family="Helvetica,sans-Serif" font-size="10.00"> include_trace=True)</text>
<text text-anchor="start" x="155.5" y="-232.5" font-family="Helvetica,sans-Serif" font-size="10.00">+</text>
<text text-anchor="start" x="168.5" y="-232.5" font-family="Helvetica,sans-Serif" font-size="10.00">__repr__(self)</text>
<text text-anchor="start" x="155.5" y="-217.5" font-family="Helvetica,sans-Serif" font-size="10.00">+</text>
<text text-anchor="start" x="168.5" y="-217.5" font-family="Helvetica,sans-Serif" font-size="10.00">__str__(self)</text>
<text text-anchor="start" x="155.5" y="-202.5" font-family="Helvetica,sans-Serif" font-size="10.00">+</text>
<text text-anchor="start" x="168.5" y="-202.5" font-family="Helvetica,sans-Serif" font-size="10.00">to_dict(self)</text>
<text text-anchor="start" x="155.5" y="-187.5" font-family="Helvetica,sans-Serif" font-size="10.00">+</text>
<text text-anchor="start" x="168.5" y="-187.5" font-family="Helvetica,sans-Serif" font-size="10.00">to_json(self)</text>
<polygon fill="#666666" stroke="#666666" points="151.5,-458.5 151.5,-458.5 401.5,-458.5 401.5,-458.5 151.5,-458.5"/>
<polygon fill="#666666" stroke="#666666" points="151.5,-323.5 151.5,-323.5 166.5,-323.5 166.5,-323.5 151.5,-323.5"/>
<polygon fill="#666666" stroke="#666666" points="166.5,-323.5 166.5,-323.5 401.5,-323.5 401.5,-323.5 166.5,-323.5"/>
<polygon fill="none" stroke="#666666" points="151.5,-181 151.5,-476 401.5,-476 401.5,-181 151.5,-181"/>
</a>
</g>
</g>
<!-- Node2&#45;&gt;Node1 -->
<g id="edge1_Node000001_Node000002" class="edge">
<title>Node2&#45;&gt;Node1</title>
<g id="a_edge1_Node000001_Node000002"><a xlink:title=" ">
<path fill="none" stroke="#63b8ff" d="M276.5,-170.58C276.5,-161.04 276.5,-152.35 276.5,-145.04"/>
<polygon fill="none" stroke="#63b8ff" points="273,-170.81 276.5,-180.81 280,-170.81 273,-170.81"/>
</a>
</g>
</g>
<!-- Node3 -->
<g id="Node000003" class="node">
<title>Node3</title>
<g id="a_Node000003"><a xlink:title=" ">
<polygon fill="white" stroke="transparent" points="306,-561 247,-561 247,-512 306,-512 306,-561"/>
<text text-anchor="start" x="252.5" y="-548.5" font-family="Helvetica,sans-Serif" font-size="10.00">Exception</text>
<text text-anchor="start" x="275" y="-533.5" font-family="Helvetica,sans-Serif" font-size="10.00"> </text>
<text text-anchor="start" x="275" y="-518.5" font-family="Helvetica,sans-Serif" font-size="10.00"> </text>
<polygon fill="#666666" stroke="#666666" points="247.5,-543.5 247.5,-543.5 306.5,-543.5 306.5,-543.5 247.5,-543.5"/>
<polygon fill="#666666" stroke="#666666" points="247.5,-528.5 247.5,-528.5 306.5,-528.5 306.5,-528.5 247.5,-528.5"/>
<polygon fill="none" stroke="#666666" points="247,-512 247,-561 306,-561 306,-512 247,-512"/>
</a>
</g>
</g>
<!-- Node3&#45;&gt;Node2 -->
<g id="edge2_Node000002_Node000003" class="edge">
<title>Node3&#45;&gt;Node2</title>
<g id="a_edge2_Node000002_Node000003"><a xlink:title=" ">
<path fill="none" stroke="#63b8ff" d="M276.5,-501.71C276.5,-494.05 276.5,-485.44 276.5,-476.26"/>
<polygon fill="none" stroke="#63b8ff" points="273,-501.87 276.5,-511.87 280,-501.87 273,-501.87"/>
</a>
</g>
</g>
</g>
</svg>
