<?xml version="1.0" encoding="UTF-8" standalone="no"?>
<!DOCTYPE svg PUBLIC "-//W3C//DTD SVG 1.1//EN"
 "http://www.w3.org/Graphics/SVG/1.1/DTD/svg11.dtd">
<!-- Generated by graphviz version 2.43.0 (0)
 -->
<!-- Title: bot.BotManager.create_bot Pages: 1 -->
<svg width="674pt" height="220pt"
 viewBox="0.00 0.00 674.00 220.00" xmlns="http://www.w3.org/2000/svg" xmlns:xlink="http://www.w3.org/1999/xlink">
<g id="graph0" class="graph" transform="scale(1 1) rotate(0) translate(4 216)">
<title>bot.BotManager.create_bot</title>
<!-- Node1 -->
<g id="Node000001" class="node">
<title>Node1</title>
<g id="a_Node000001"><a xlink:title=" ">
<polygon fill="#999999" stroke="#666666" points="666,-67.5 517,-67.5 517,-48.5 666,-48.5 666,-67.5"/>
<text text-anchor="middle" x="591.5" y="-55.5" font-family="Helvetica,sans-Serif" font-size="10.00">bot.BotManager.create_bot</text>
</a>
</g>
</g>
<!-- Node2 -->
<g id="Node000002" class="node">
<title>Node2</title>
<g id="a_Node000002"><a xlink:href="classbot_1_1BotManager.html#add838a9111964ac3ef46d63d6dd640d5" target="_top" xlink:title=" ">
<polygon fill="white" stroke="#666666" points="472.5,-116 344.5,-116 344.5,-86 472.5,-86 472.5,-116"/>
<text text-anchor="start" x="352.5" y="-104" font-family="Helvetica,sans-Serif" font-size="10.00">bot.BotManager.create</text>
<text text-anchor="middle" x="408.5" y="-93" font-family="Helvetica,sans-Serif" font-size="10.00">_if_not_exist_bot</text>
</a>
</g>
</g>
<!-- Node1&#45;&gt;Node2 -->
<g id="edge1_Node000001_Node000002" class="edge">
<title>Node1&#45;&gt;Node2</title>
<g id="a_edge1_Node000001_Node000002"><a xlink:title=" ">
<path fill="none" stroke="#63b8ff" d="M540.36,-69.91C519.41,-74.89 494.83,-80.73 472.67,-85.99"/>
<polygon fill="#63b8ff" stroke="#63b8ff" points="541.41,-73.26 550.33,-67.54 539.79,-66.45 541.41,-73.26"/>
</a>
</g>
</g>
<!-- Node7 -->
<g id="Node000007" class="node">
<title>Node7</title>
<g id="a_Node000007"><a xlink:href="classbot_1_1BotManager.html#a6277812686ae6ccc51f8663ec760df8a" target="_top" xlink:title=" ">
<polygon fill="white" stroke="#666666" points="481,-49 336,-49 336,-19 481,-19 481,-49"/>
<text text-anchor="start" x="344" y="-37" font-family="Helvetica,sans-Serif" font-size="10.00">bot.BotManager.terminate</text>
<text text-anchor="middle" x="408.5" y="-26" font-family="Helvetica,sans-Serif" font-size="10.00">_and_restart_bot</text>
</a>
</g>
</g>
<!-- Node1&#45;&gt;Node7 -->
<g id="edge6_Node000001_Node000007" class="edge">
<title>Node1&#45;&gt;Node7</title>
<g id="a_edge6_Node000001_Node000007"><a xlink:title=" ">
<path fill="none" stroke="#63b8ff" d="M508.79,-47.17C499.59,-45.95 490.27,-44.71 481.21,-43.51"/>
<polygon fill="#63b8ff" stroke="#63b8ff" points="508.33,-50.64 518.7,-48.48 509.25,-43.7 508.33,-50.64"/>
</a>
</g>
</g>
<!-- Node3 -->
<g id="Node000003" class="node">
<title>Node3</title>
<g id="a_Node000003"><a xlink:href="classbot_1_1BotManager.html#a476223236141f8727739094c156b8790" target="_top" xlink:title=" ">
<polygon fill="white" stroke="#666666" points="300,-212 149,-212 149,-182 300,-182 300,-212"/>
<text text-anchor="start" x="157" y="-200" font-family="Helvetica,sans-Serif" font-size="10.00">bot.BotManager.create</text>
<text text-anchor="middle" x="224.5" y="-189" font-family="Helvetica,sans-Serif" font-size="10.00">_if_not_exist_and_start_bot</text>
</a>
</g>
</g>
<!-- Node2&#45;&gt;Node3 -->
<g id="edge2_Node000002_Node000003" class="edge">
<title>Node2&#45;&gt;Node3</title>
<g id="a_edge2_Node000002_Node000003"><a xlink:title=" ">
<path fill="none" stroke="#63b8ff" d="M380.17,-122.43C359.18,-138.1 328.96,-158.98 300,-173 293.27,-176.26 286,-179.22 278.72,-181.87"/>
<polygon fill="#63b8ff" stroke="#63b8ff" points="382.43,-125.11 388.29,-116.29 378.21,-119.53 382.43,-125.11"/>
</a>
</g>
</g>
<!-- Node4 -->
<g id="Node000004" class="node">
<title>Node4</title>
<g id="a_Node000004"><a xlink:href="classbot_1_1BotManager.html#afcf8120800e601f205fe2ad2a2436efa" target="_top" xlink:title=" ">
<polygon fill="white" stroke="#666666" points="291,-164 158,-164 158,-134 291,-134 291,-164"/>
<text text-anchor="start" x="166" y="-152" font-family="Helvetica,sans-Serif" font-size="10.00">bot.BotManager.receive</text>
<text text-anchor="middle" x="224.5" y="-141" font-family="Helvetica,sans-Serif" font-size="10.00">_message_from_bot</text>
</a>
</g>
</g>
<!-- Node2&#45;&gt;Node4 -->
<g id="edge3_Node000002_Node000004" class="edge">
<title>Node2&#45;&gt;Node4</title>
<g id="a_edge3_Node000002_Node000004"><a xlink:title=" ">
<path fill="none" stroke="#63b8ff" d="M340.58,-118.65C321.47,-123.69 300.83,-129.13 282.38,-134"/>
<polygon fill="#63b8ff" stroke="#63b8ff" points="341.64,-121.99 350.41,-116.06 339.85,-115.22 341.64,-121.99"/>
</a>
</g>
</g>
<!-- Node5 -->
<g id="Node000005" class="node">
<title>Node5</title>
<g id="a_Node000005"><a xlink:href="classbot_1_1BotManager.html#a1252539ad8ced4a098615fbdde873893" target="_top" xlink:title=" ">
<polygon fill="white" stroke="#666666" points="284.5,-116 164.5,-116 164.5,-86 284.5,-86 284.5,-116"/>
<text text-anchor="start" x="172.5" y="-104" font-family="Helvetica,sans-Serif" font-size="10.00">bot.BotManager.send</text>
<text text-anchor="middle" x="224.5" y="-93" font-family="Helvetica,sans-Serif" font-size="10.00">_message_on_bot</text>
</a>
</g>
</g>
<!-- Node2&#45;&gt;Node5 -->
<g id="edge4_Node000002_Node000005" class="edge">
<title>Node2&#45;&gt;Node5</title>
<g id="a_edge4_Node000002_Node000005"><a xlink:title=" ">
<path fill="none" stroke="#63b8ff" d="M334.21,-101C317.7,-101 300.39,-101 284.56,-101"/>
<polygon fill="#63b8ff" stroke="#63b8ff" points="334.36,-104.5 344.36,-101 334.36,-97.5 334.36,-104.5"/>
</a>
</g>
</g>
<!-- Node6 -->
<g id="Node000006" class="node">
<title>Node6</title>
<g id="a_Node000006"><a xlink:href="classbot_1_1BotManager.html#ac3951e114a0a17e9680bc7313025b52a" target="_top" xlink:title=" ">
<polygon fill="white" stroke="#666666" points="294.5,-67.5 154.5,-67.5 154.5,-48.5 294.5,-48.5 294.5,-67.5"/>
<text text-anchor="middle" x="224.5" y="-55.5" font-family="Helvetica,sans-Serif" font-size="10.00">bot.BotManager.start_bot</text>
</a>
</g>
</g>
<!-- Node2&#45;&gt;Node6 -->
<g id="edge5_Node000002_Node000006" class="edge">
<title>Node2&#45;&gt;Node6</title>
<g id="a_edge5_Node000002_Node000006"><a xlink:title=" ">
<path fill="none" stroke="#63b8ff" d="M334.44,-83.74C311.01,-78.2 285.94,-72.28 265.76,-67.51"/>
<polygon fill="#63b8ff" stroke="#63b8ff" points="333.82,-87.19 344.36,-86.08 335.43,-80.38 333.82,-87.19"/>
</a>
</g>
</g>
<!-- Node8 -->
<g id="Node000008" class="node">
<title>Node8</title>
<g id="a_Node000008"><a xlink:href="classbot_1_1BotManager.html#ad22b0997528b8f1d1903733008df541d" target="_top" xlink:title=" ">
<polygon fill="white" stroke="#666666" points="294.5,-30 154.5,-30 154.5,0 294.5,0 294.5,-30"/>
<text text-anchor="start" x="162.5" y="-18" font-family="Helvetica,sans-Serif" font-size="10.00">bot.BotManager.maintain</text>
<text text-anchor="middle" x="224.5" y="-7" font-family="Helvetica,sans-Serif" font-size="10.00">_alive_bots</text>
</a>
</g>
</g>
<!-- Node7&#45;&gt;Node8 -->
<g id="edge7_Node000007_Node000008" class="edge">
<title>Node7&#45;&gt;Node8</title>
<g id="a_edge7_Node000007_Node000008"><a xlink:title=" ">
<path fill="none" stroke="#63b8ff" d="M325.59,-25.45C315.28,-24.37 304.81,-23.28 294.72,-22.23"/>
<polygon fill="#63b8ff" stroke="#63b8ff" points="325.52,-28.96 335.83,-26.52 326.25,-22 325.52,-28.96"/>
</a>
</g>
</g>
<!-- Node9 -->
<g id="Node000009" class="node">
<title>Node9</title>
<g id="a_Node000009"><a xlink:href="classbot_1_1BotManager.html#ad241d4a98df64724c4c6901a8fcc2c05" target="_top" xlink:title=" ">
<polygon fill="white" stroke="#666666" points="113,-24.5 0,-24.5 0,-5.5 113,-5.5 113,-24.5"/>
<text text-anchor="middle" x="56.5" y="-12.5" font-family="Helvetica,sans-Serif" font-size="10.00">bot.BotManager.run</text>
</a>
</g>
</g>
<!-- Node8&#45;&gt;Node9 -->
<g id="edge8_Node000008_Node000009" class="edge">
<title>Node8&#45;&gt;Node9</title>
<g id="a_edge8_Node000008_Node000009"><a xlink:title=" ">
<path fill="none" stroke="#63b8ff" d="M144.06,-15C133.57,-15 123.01,-15 113.04,-15"/>
<polygon fill="#63b8ff" stroke="#63b8ff" points="144.06,-18.5 154.06,-15 144.06,-11.5 144.06,-18.5"/>
</a>
</g>
</g>
</g>
</svg>
