<?xml version="1.0" encoding="UTF-8" standalone="no"?>
<!DOCTYPE svg PUBLIC "-//W3C//DTD SVG 1.1//EN"
 "http://www.w3.org/Graphics/SVG/1.1/DTD/svg11.dtd">
<!-- Generated by graphviz version 2.43.0 (0)
 -->
<!-- Title: bot.BotQueuedMessageResultException Pages: 1 -->
<svg width="189pt" height="679pt"
 viewBox="0.00 0.00 189.00 679.00" xmlns="http://www.w3.org/2000/svg" xmlns:xlink="http://www.w3.org/1999/xlink">
<g id="graph0" class="graph" transform="scale(1 1) rotate(0) translate(4 675)">
<title>bot.BotQueuedMessageResultException</title>
<!-- Node1 -->
<g id="node1" class="node">
<title>Node1</title>
<g id="a_node1"><a xlink:title=" ">
<polygon fill="#bfbfbf" stroke="black" points="8.5,-0.5 8.5,-68.5 172.5,-68.5 172.5,-0.5 8.5,-0.5"/>
<text text-anchor="start" x="16.5" y="-56.5" font-family="Helvetica,sans-Serif" font-size="10.00">bot.BotQueuedMessageResult</text>
<text text-anchor="middle" x="90.5" y="-45.5" font-family="Helvetica,sans-Serif" font-size="10.00">Exception</text>
<polyline fill="none" stroke="black" points="8.5,-38.5 172.5,-38.5 "/>
<text text-anchor="middle" x="90.5" y="-26.5" font-family="Helvetica,sans-Serif" font-size="10.00"> </text>
<polyline fill="none" stroke="black" points="8.5,-19.5 172.5,-19.5 "/>
<text text-anchor="middle" x="90.5" y="-7.5" font-family="Helvetica,sans-Serif" font-size="10.00"> </text>
</a>
</g>
</g>
<!-- Node2 -->
<g id="node2" class="node">
<title>Node2</title>
<g id="a_node2"><a xlink:href="classbot_1_1BotQueuedMessageException.html" target="_top" xlink:title=" ">
<polygon fill="none" stroke="black" points="0,-105.5 0,-162.5 181,-162.5 181,-105.5 0,-105.5"/>
<text text-anchor="middle" x="90.5" y="-150.5" font-family="Helvetica,sans-Serif" font-size="10.00">bot.BotQueuedMessageException</text>
<polyline fill="none" stroke="black" points="0,-143.5 181,-143.5 "/>
<text text-anchor="middle" x="90.5" y="-131.5" font-family="Helvetica,sans-Serif" font-size="10.00"> </text>
<polyline fill="none" stroke="black" points="0,-124.5 181,-124.5 "/>
<text text-anchor="middle" x="90.5" y="-112.5" font-family="Helvetica,sans-Serif" font-size="10.00"> </text>
</a>
</g>
</g>
<!-- Node2&#45;&gt;Node1 -->
<g id="edge1" class="edge">
<title>Node2&#45;&gt;Node1</title>
<path fill="none" stroke="midnightblue" d="M90.5,-95.06C90.5,-86.39 90.5,-77.24 90.5,-68.79"/>
<polygon fill="none" stroke="midnightblue" points="87,-95.32 90.5,-105.32 94,-95.32 87,-95.32"/>
</g>
<!-- Node3 -->
<g id="node3" class="node">
<title>Node3</title>
<g id="a_node3"><a xlink:href="classbot_1_1BotMessageException.html" target="_top" xlink:title=" ">
<polygon fill="none" stroke="black" points="19,-199.5 19,-256.5 162,-256.5 162,-199.5 19,-199.5"/>
<text text-anchor="middle" x="90.5" y="-244.5" font-family="Helvetica,sans-Serif" font-size="10.00">bot.BotMessageException</text>
<polyline fill="none" stroke="black" points="19,-237.5 162,-237.5 "/>
<text text-anchor="middle" x="90.5" y="-225.5" font-family="Helvetica,sans-Serif" font-size="10.00"> </text>
<polyline fill="none" stroke="black" points="19,-218.5 162,-218.5 "/>
<text text-anchor="middle" x="90.5" y="-206.5" font-family="Helvetica,sans-Serif" font-size="10.00"> </text>
</a>
</g>
</g>
<!-- Node3&#45;&gt;Node2 -->
<g id="edge2" class="edge">
<title>Node3&#45;&gt;Node2</title>
<path fill="none" stroke="midnightblue" d="M90.5,-189.21C90.5,-180.29 90.5,-170.95 90.5,-162.58"/>
<polygon fill="none" stroke="midnightblue" points="87,-189.4 90.5,-199.4 94,-189.4 87,-189.4"/>
</g>
<!-- Node4 -->
<g id="node4" class="node">
<title>Node4</title>
<g id="a_node4"><a xlink:href="classbot_1_1BotException.html" target="_top" xlink:title=" ">
<polygon fill="none" stroke="black" points="40.5,-293.5 40.5,-350.5 140.5,-350.5 140.5,-293.5 40.5,-293.5"/>
<text text-anchor="middle" x="90.5" y="-338.5" font-family="Helvetica,sans-Serif" font-size="10.00">bot.BotException</text>
<polyline fill="none" stroke="black" points="40.5,-331.5 140.5,-331.5 "/>
<text text-anchor="middle" x="90.5" y="-319.5" font-family="Helvetica,sans-Serif" font-size="10.00"> </text>
<polyline fill="none" stroke="black" points="40.5,-312.5 140.5,-312.5 "/>
<text text-anchor="middle" x="90.5" y="-300.5" font-family="Helvetica,sans-Serif" font-size="10.00"> </text>
</a>
</g>
</g>
<!-- Node4&#45;&gt;Node3 -->
<g id="edge3" class="edge">
<title>Node4&#45;&gt;Node3</title>
<path fill="none" stroke="midnightblue" d="M90.5,-283.21C90.5,-274.29 90.5,-264.95 90.5,-256.58"/>
<polygon fill="none" stroke="midnightblue" points="87,-283.4 90.5,-293.4 94,-283.4 87,-283.4"/>
</g>
<!-- Node5 -->
<g id="node5" class="node">
<title>Node5</title>
<g id="a_node5"><a xlink:href="classexception_1_1ChatbotException.html" target="_top" xlink:title=" ">
<polygon fill="none" stroke="black" points="13.5,-387.5 13.5,-576.5 167.5,-576.5 167.5,-387.5 13.5,-387.5"/>
<text text-anchor="middle" x="90.5" y="-564.5" font-family="Helvetica,sans-Serif" font-size="10.00">exception.ChatbotException</text>
<polyline fill="none" stroke="black" points="13.5,-557.5 167.5,-557.5 "/>
<text text-anchor="start" x="21.5" y="-545.5" font-family="Helvetica,sans-Serif" font-size="10.00">+ cause</text>
<text text-anchor="start" x="21.5" y="-534.5" font-family="Helvetica,sans-Serif" font-size="10.00">+ code</text>
<text text-anchor="start" x="21.5" y="-523.5" font-family="Helvetica,sans-Serif" font-size="10.00">+ filename</text>
<text text-anchor="start" x="21.5" y="-512.5" font-family="Helvetica,sans-Serif" font-size="10.00">+ lineno</text>
<text text-anchor="start" x="21.5" y="-501.5" font-family="Helvetica,sans-Serif" font-size="10.00">+ message</text>
<text text-anchor="start" x="21.5" y="-490.5" font-family="Helvetica,sans-Serif" font-size="10.00">+ severity</text>
<text text-anchor="start" x="21.5" y="-479.5" font-family="Helvetica,sans-Serif" font-size="10.00">+ traceback</text>
<text text-anchor="start" x="21.5" y="-468.5" font-family="Helvetica,sans-Serif" font-size="10.00">+ type</text>
<text text-anchor="start" x="21.5" y="-457.5" font-family="Helvetica,sans-Serif" font-size="10.00">+ SEVERITY_TO_LOGGING</text>
<polyline fill="none" stroke="black" points="13.5,-450.5 167.5,-450.5 "/>
<text text-anchor="start" x="21.5" y="-438.5" font-family="Helvetica,sans-Serif" font-size="10.00">+ __init__()</text>
<text text-anchor="start" x="21.5" y="-427.5" font-family="Helvetica,sans-Serif" font-size="10.00">+ __repr__()</text>
<text text-anchor="start" x="21.5" y="-416.5" font-family="Helvetica,sans-Serif" font-size="10.00">+ __str__()</text>
<text text-anchor="start" x="21.5" y="-405.5" font-family="Helvetica,sans-Serif" font-size="10.00">+ to_dict()</text>
<text text-anchor="start" x="21.5" y="-394.5" font-family="Helvetica,sans-Serif" font-size="10.00">+ to_json()</text>
</a>
</g>
</g>
<!-- Node5&#45;&gt;Node4 -->
<g id="edge4" class="edge">
<title>Node5&#45;&gt;Node4</title>
<path fill="none" stroke="midnightblue" d="M90.5,-377.13C90.5,-367.56 90.5,-358.54 90.5,-350.7"/>
<polygon fill="none" stroke="midnightblue" points="87,-377.26 90.5,-387.26 94,-377.26 87,-377.26"/>
</g>
<!-- Node6 -->
<g id="node6" class="node">
<title>Node6</title>
<g id="a_node6"><a xlink:title=" ">
<polygon fill="none" stroke="#bfbfbf" points="58,-613.5 58,-670.5 123,-670.5 123,-613.5 58,-613.5"/>
<text text-anchor="middle" x="90.5" y="-658.5" font-family="Helvetica,sans-Serif" font-size="10.00">Exception</text>
<polyline fill="none" stroke="#bfbfbf" points="58,-651.5 123,-651.5 "/>
<text text-anchor="middle" x="90.5" y="-639.5" font-family="Helvetica,sans-Serif" font-size="10.00"> </text>
<polyline fill="none" stroke="#bfbfbf" points="58,-632.5 123,-632.5 "/>
<text text-anchor="middle" x="90.5" y="-620.5" font-family="Helvetica,sans-Serif" font-size="10.00"> </text>
</a>
</g>
</g>
<!-- Node6&#45;&gt;Node5 -->
<g id="edge5" class="edge">
<title>Node6&#45;&gt;Node5</title>
<path fill="none" stroke="midnightblue" d="M90.5,-603.22C90.5,-595.01 90.5,-585.99 90.5,-576.68"/>
<polygon fill="none" stroke="midnightblue" points="87,-603.48 90.5,-613.48 94,-603.48 87,-603.48"/>
</g>
</g>
</svg>
