<?xml version="1.0" encoding="UTF-8" standalone="no"?>
<!DOCTYPE svg PUBLIC "-//W3C//DTD SVG 1.1//EN"
 "http://www.w3.org/Graphics/SVG/1.1/DTD/svg11.dtd">
<!-- Generated by graphviz version 2.43.0 (0)
 -->
<!-- Title: bot.BotManager.terminate_and_restart_bot Pages: 1 -->
<svg width="525pt" height="64pt"
 viewBox="0.00 0.00 525.00 64.00" xmlns="http://www.w3.org/2000/svg" xmlns:xlink="http://www.w3.org/1999/xlink">
<g id="graph0" class="graph" transform="scale(1 1) rotate(0) translate(4 60)">
<title>bot.BotManager.terminate_and_restart_bot</title>
<!-- Node1 -->
<g id="Node000001" class="node">
<title>Node1</title>
<g id="a_Node000001"><a xlink:title=" ">
<polygon fill="#999999" stroke="#666666" points="145,-42.5 0,-42.5 0,-12.5 145,-12.5 145,-42.5"/>
<text text-anchor="start" x="8" y="-30.5" font-family="Helvetica,sans-Serif" font-size="10.00">bot.BotManager.terminate</text>
<text text-anchor="middle" x="72.5" y="-19.5" font-family="Helvetica,sans-Serif" font-size="10.00">_and_restart_bot</text>
</a>
</g>
</g>
<!-- Node2 -->
<g id="Node000002" class="node">
<title>Node2</title>
<g id="a_Node000002"><a xlink:href="classbot_1_1BotManager.html#a2e8fcc3964b3cbe2c48869dc86bfa960" target="_top" xlink:title=" ">
<polygon fill="white" stroke="#666666" points="338.5,-56 189.5,-56 189.5,-37 338.5,-37 338.5,-56"/>
<text text-anchor="middle" x="264" y="-44" font-family="Helvetica,sans-Serif" font-size="10.00">bot.BotManager.create_bot</text>
</a>
</g>
</g>
<!-- Node1&#45;&gt;Node2 -->
<g id="edge1_Node000001_Node000002" class="edge">
<title>Node1&#45;&gt;Node2</title>
<g id="a_edge1_Node000001_Node000002"><a xlink:title=" ">
<path fill="none" stroke="#63b8ff" d="M145.14,-34.68C156.33,-35.8 167.97,-36.97 179.4,-38.12"/>
<polygon fill="#63b8ff" stroke="#63b8ff" points="179.07,-41.6 189.37,-39.12 179.76,-34.64 179.07,-41.6"/>
</a>
</g>
</g>
<!-- Node3 -->
<g id="Node000003" class="node">
<title>Node3</title>
<g id="a_Node000003"><a xlink:href="classbot_1_1BotManager.html#ab182740bcd7d17cd006588194fe9b376" target="_top" xlink:title=" ">
<polygon fill="white" stroke="#666666" points="347,-19 181,-19 181,0 347,0 347,-19"/>
<text text-anchor="middle" x="264" y="-7" font-family="Helvetica,sans-Serif" font-size="10.00">bot.BotManager.terminate_bot</text>
</a>
</g>
</g>
<!-- Node1&#45;&gt;Node3 -->
<g id="edge2_Node000001_Node000003" class="edge">
<title>Node1&#45;&gt;Node3</title>
<g id="a_edge2_Node000001_Node000003"><a xlink:title=" ">
<path fill="none" stroke="#63b8ff" d="M145.14,-20.69C153.5,-19.9 162.12,-19.08 170.71,-18.27"/>
<polygon fill="#63b8ff" stroke="#63b8ff" points="171.14,-21.74 180.77,-17.31 170.48,-14.77 171.14,-21.74"/>
</a>
</g>
</g>
<!-- Node4 -->
<g id="Node000004" class="node">
<title>Node4</title>
<g id="a_Node000004"><a xlink:href="classbot_1_1BotManager.html#a4b75202a45c9088324f8c1a6f800e76f" target="_top" xlink:title=" ">
<polygon fill="white" stroke="#666666" points="517,-19 383,-19 383,0 517,0 517,-19"/>
<text text-anchor="middle" x="450" y="-7" font-family="Helvetica,sans-Serif" font-size="10.00">bot.BotManager.get_bot</text>
</a>
</g>
</g>
<!-- Node3&#45;&gt;Node4 -->
<g id="edge3_Node000003_Node000004" class="edge">
<title>Node3&#45;&gt;Node4</title>
<g id="a_edge3_Node000003_Node000004"><a xlink:title=" ">
<path fill="none" stroke="#63b8ff" d="M347.04,-9.5C355.56,-9.5 364.19,-9.5 372.64,-9.5"/>
<polygon fill="#63b8ff" stroke="#63b8ff" points="372.84,-13 382.84,-9.5 372.84,-6 372.84,-13"/>
</a>
</g>
</g>
</g>
</svg>
