<?xml version="1.0" encoding="UTF-8" standalone="no"?>
<!DOCTYPE svg PUBLIC "-//W3C//DTD SVG 1.1//EN"
 "http://www.w3.org/Graphics/SVG/1.1/DTD/svg11.dtd">
<!-- Generated by graphviz version 2.43.0 (0)
 -->
<!-- Title: env.Env._get_str Pages: 1 -->
<svg width="366pt" height="46pt"
 viewBox="0.00 0.00 366.00 46.00" xmlns="http://www.w3.org/2000/svg" xmlns:xlink="http://www.w3.org/1999/xlink">
<g id="graph0" class="graph" transform="scale(1 1) rotate(0) translate(4 42)">
<title>env.Env._get_str</title>
<!-- Node1 -->
<g id="Node000001" class="node">
<title>Node1</title>
<g id="a_Node000001"><a xlink:title=" ">
<polygon fill="#999999" stroke="#666666" points="358,-38 262,-38 262,-19 358,-19 358,-38"/>
<text text-anchor="middle" x="310" y="-26" font-family="Helvetica,sans-Serif" font-size="10.00">env.Env._get_str</text>
</a>
</g>
</g>
<!-- Node2 -->
<g id="Node000002" class="node">
<title>Node2</title>
<g id="a_Node000002"><a xlink:href="classenv_1_1Env.html#a2e063896aa7901dd46607f94a7f2ef07" target="_top" xlink:title=" ">
<polygon fill="white" stroke="#666666" points="94,-38 0,-38 0,-19 94,-19 94,-38"/>
<text text-anchor="middle" x="47" y="-26" font-family="Helvetica,sans-Serif" font-size="10.00">env.Env.__init__</text>
</a>
</g>
</g>
<!-- Node1&#45;&gt;Node2 -->
<g id="edge1_Node000001_Node000002" class="edge">
<title>Node1&#45;&gt;Node2</title>
<g id="a_edge1_Node000001_Node000002"><a xlink:title=" ">
<path fill="none" stroke="#63b8ff" d="M251.63,-28.5C204.29,-28.5 137.97,-28.5 94.04,-28.5"/>
<polygon fill="#63b8ff" stroke="#63b8ff" points="251.73,-32 261.73,-28.5 251.73,-25 251.73,-32"/>
</a>
</g>
</g>
<!-- Node3 -->
<g id="Node000003" class="node">
<title>Node3</title>
<g id="a_Node000003"><a xlink:href="classenv_1_1Env.html#ae17cf8ec7a1ecde876c6d7f4df2c48dd" target="_top" xlink:title=" ">
<polygon fill="white" stroke="#666666" points="226,-19 130,-19 130,0 226,0 226,-19"/>
<text text-anchor="middle" x="178" y="-7" font-family="Helvetica,sans-Serif" font-size="10.00">env.Env._get_int</text>
</a>
</g>
</g>
<!-- Node1&#45;&gt;Node3 -->
<g id="edge2_Node000001_Node000003" class="edge">
<title>Node1&#45;&gt;Node3</title>
<g id="a_edge2_Node000001_Node000003"><a xlink:title=" ">
<path fill="none" stroke="#63b8ff" d="M251.74,-20.13C243.16,-18.88 234.39,-17.6 226.05,-16.38"/>
<polygon fill="#63b8ff" stroke="#63b8ff" points="251.3,-23.6 261.7,-21.59 252.31,-16.68 251.3,-23.6"/>
</a>
</g>
</g>
<!-- Node3&#45;&gt;Node2 -->
<g id="edge3_Node000003_Node000002" class="edge">
<title>Node3&#45;&gt;Node2</title>
<g id="a_edge3_Node000003_Node000002"><a xlink:title=" ">
<path fill="none" stroke="#63b8ff" d="M119.71,-17.94C111.11,-19.2 102.33,-20.5 94.01,-21.72"/>
<polygon fill="#63b8ff" stroke="#63b8ff" points="120.31,-21.39 129.7,-16.47 119.29,-14.46 120.31,-21.39"/>
</a>
</g>
</g>
</g>
</svg>
