<?xml version="1.0" encoding="UTF-8" standalone="no"?>
<!DOCTYPE svg PUBLIC "-//W3C//DTD SVG 1.1//EN"
 "http://www.w3.org/Graphics/SVG/1.1/DTD/svg11.dtd">
<!-- Generated by graphviz version 2.43.0 (0)
 -->
<!-- Title: bot.BotMessageQueueException Pages: 1 -->
<svg width="592pt" height="679pt"
 viewBox="0.00 0.00 591.50 679.00" xmlns="http://www.w3.org/2000/svg" xmlns:xlink="http://www.w3.org/1999/xlink">
<g id="graph0" class="graph" transform="scale(1 1) rotate(0) translate(4 675)">
<title>bot.BotMessageQueueException</title>
<!-- Node1 -->
<g id="node1" class="node">
<title>Node1</title>
<g id="a_node1"><a xlink:title=" ">
<polygon fill="#bfbfbf" stroke="black" points="184.5,-105.5 184.5,-162.5 359.5,-162.5 359.5,-105.5 184.5,-105.5"/>
<text text-anchor="middle" x="272" y="-150.5" font-family="Helvetica,sans-Serif" font-size="10.00">bot.BotMessageQueueException</text>
<polyline fill="none" stroke="black" points="184.5,-143.5 359.5,-143.5 "/>
<text text-anchor="middle" x="272" y="-131.5" font-family="Helvetica,sans-Serif" font-size="10.00"> </text>
<polyline fill="none" stroke="black" points="184.5,-124.5 359.5,-124.5 "/>
<text text-anchor="middle" x="272" y="-112.5" font-family="Helvetica,sans-Serif" font-size="10.00"> </text>
</a>
</g>
</g>
<!-- Node6 -->
<g id="node6" class="node">
<title>Node6</title>
<g id="a_node6"><a xlink:href="classbot_1_1BotMessageQueueEmptyException.html" target="_top" xlink:title=" ">
<polygon fill="none" stroke="black" points="0,-0.5 0,-68.5 158,-68.5 158,-0.5 0,-0.5"/>
<text text-anchor="start" x="8" y="-56.5" font-family="Helvetica,sans-Serif" font-size="10.00">bot.BotMessageQueueEmpty</text>
<text text-anchor="middle" x="79" y="-45.5" font-family="Helvetica,sans-Serif" font-size="10.00">Exception</text>
<polyline fill="none" stroke="black" points="0,-38.5 158,-38.5 "/>
<text text-anchor="middle" x="79" y="-26.5" font-family="Helvetica,sans-Serif" font-size="10.00"> </text>
<polyline fill="none" stroke="black" points="0,-19.5 158,-19.5 "/>
<text text-anchor="middle" x="79" y="-7.5" font-family="Helvetica,sans-Serif" font-size="10.00"> </text>
</a>
</g>
</g>
<!-- Node1&#45;&gt;Node6 -->
<g id="edge5" class="edge">
<title>Node1&#45;&gt;Node6</title>
<path fill="none" stroke="midnightblue" d="M208.5,-100.92C187.92,-90.52 165.06,-78.98 144.35,-68.51"/>
<polygon fill="none" stroke="midnightblue" points="206.96,-104.07 217.47,-105.45 210.12,-97.82 206.96,-104.07"/>
</g>
<!-- Node7 -->
<g id="node7" class="node">
<title>Node7</title>
<g id="a_node7"><a xlink:href="classbot_1_1BotMessageQueueFullException.html" target="_top" xlink:title=" ">
<polygon fill="none" stroke="black" points="176,-6 176,-63 368,-63 368,-6 176,-6"/>
<text text-anchor="middle" x="272" y="-51" font-family="Helvetica,sans-Serif" font-size="10.00">bot.BotMessageQueueFullException</text>
<polyline fill="none" stroke="black" points="176,-44 368,-44 "/>
<text text-anchor="middle" x="272" y="-32" font-family="Helvetica,sans-Serif" font-size="10.00"> </text>
<polyline fill="none" stroke="black" points="176,-25 368,-25 "/>
<text text-anchor="middle" x="272" y="-13" font-family="Helvetica,sans-Serif" font-size="10.00"> </text>
</a>
</g>
</g>
<!-- Node1&#45;&gt;Node7 -->
<g id="edge6" class="edge">
<title>Node1&#45;&gt;Node7</title>
<path fill="none" stroke="midnightblue" d="M272,-95.04C272,-84.45 272,-73.14 272,-63.25"/>
<polygon fill="none" stroke="midnightblue" points="268.5,-95.32 272,-105.32 275.5,-95.32 268.5,-95.32"/>
</g>
<!-- Node8 -->
<g id="node8" class="node">
<title>Node8</title>
<g id="a_node8"><a xlink:href="classbot_1_1BotMessageQueueLockException.html" target="_top" xlink:title=" ">
<polygon fill="none" stroke="black" points="386.5,-6 386.5,-63 583.5,-63 583.5,-6 386.5,-6"/>
<text text-anchor="middle" x="485" y="-51" font-family="Helvetica,sans-Serif" font-size="10.00">bot.BotMessageQueueLockException</text>
<polyline fill="none" stroke="black" points="386.5,-44 583.5,-44 "/>
<text text-anchor="middle" x="485" y="-32" font-family="Helvetica,sans-Serif" font-size="10.00"> </text>
<polyline fill="none" stroke="black" points="386.5,-25 583.5,-25 "/>
<text text-anchor="middle" x="485" y="-13" font-family="Helvetica,sans-Serif" font-size="10.00"> </text>
</a>
</g>
</g>
<!-- Node1&#45;&gt;Node8 -->
<g id="edge7" class="edge">
<title>Node1&#45;&gt;Node8</title>
<path fill="none" stroke="midnightblue" d="M341.51,-101.18C368.32,-88.91 398.71,-75 424.6,-63.15"/>
<polygon fill="none" stroke="midnightblue" points="339.82,-98.11 332.18,-105.45 342.73,-104.47 339.82,-98.11"/>
</g>
<!-- Node2 -->
<g id="node2" class="node">
<title>Node2</title>
<g id="a_node2"><a xlink:href="classbot_1_1BotMessageException.html" target="_top" xlink:title=" ">
<polygon fill="none" stroke="black" points="200.5,-199.5 200.5,-256.5 343.5,-256.5 343.5,-199.5 200.5,-199.5"/>
<text text-anchor="middle" x="272" y="-244.5" font-family="Helvetica,sans-Serif" font-size="10.00">bot.BotMessageException</text>
<polyline fill="none" stroke="black" points="200.5,-237.5 343.5,-237.5 "/>
<text text-anchor="middle" x="272" y="-225.5" font-family="Helvetica,sans-Serif" font-size="10.00"> </text>
<polyline fill="none" stroke="black" points="200.5,-218.5 343.5,-218.5 "/>
<text text-anchor="middle" x="272" y="-206.5" font-family="Helvetica,sans-Serif" font-size="10.00"> </text>
</a>
</g>
</g>
<!-- Node2&#45;&gt;Node1 -->
<g id="edge1" class="edge">
<title>Node2&#45;&gt;Node1</title>
<path fill="none" stroke="midnightblue" d="M272,-189.21C272,-180.29 272,-170.95 272,-162.58"/>
<polygon fill="none" stroke="midnightblue" points="268.5,-189.4 272,-199.4 275.5,-189.4 268.5,-189.4"/>
</g>
<!-- Node3 -->
<g id="node3" class="node">
<title>Node3</title>
<g id="a_node3"><a xlink:href="classbot_1_1BotException.html" target="_top" xlink:title=" ">
<polygon fill="none" stroke="black" points="222,-293.5 222,-350.5 322,-350.5 322,-293.5 222,-293.5"/>
<text text-anchor="middle" x="272" y="-338.5" font-family="Helvetica,sans-Serif" font-size="10.00">bot.BotException</text>
<polyline fill="none" stroke="black" points="222,-331.5 322,-331.5 "/>
<text text-anchor="middle" x="272" y="-319.5" font-family="Helvetica,sans-Serif" font-size="10.00"> </text>
<polyline fill="none" stroke="black" points="222,-312.5 322,-312.5 "/>
<text text-anchor="middle" x="272" y="-300.5" font-family="Helvetica,sans-Serif" font-size="10.00"> </text>
</a>
</g>
</g>
<!-- Node3&#45;&gt;Node2 -->
<g id="edge2" class="edge">
<title>Node3&#45;&gt;Node2</title>
<path fill="none" stroke="midnightblue" d="M272,-283.21C272,-274.29 272,-264.95 272,-256.58"/>
<polygon fill="none" stroke="midnightblue" points="268.5,-283.4 272,-293.4 275.5,-283.4 268.5,-283.4"/>
</g>
<!-- Node4 -->
<g id="node4" class="node">
<title>Node4</title>
<g id="a_node4"><a xlink:href="classexception_1_1ChatbotException.html" target="_top" xlink:title=" ">
<polygon fill="none" stroke="black" points="195,-387.5 195,-576.5 349,-576.5 349,-387.5 195,-387.5"/>
<text text-anchor="middle" x="272" y="-564.5" font-family="Helvetica,sans-Serif" font-size="10.00">exception.ChatbotException</text>
<polyline fill="none" stroke="black" points="195,-557.5 349,-557.5 "/>
<text text-anchor="start" x="203" y="-545.5" font-family="Helvetica,sans-Serif" font-size="10.00">+ cause</text>
<text text-anchor="start" x="203" y="-534.5" font-family="Helvetica,sans-Serif" font-size="10.00">+ code</text>
<text text-anchor="start" x="203" y="-523.5" font-family="Helvetica,sans-Serif" font-size="10.00">+ filename</text>
<text text-anchor="start" x="203" y="-512.5" font-family="Helvetica,sans-Serif" font-size="10.00">+ lineno</text>
<text text-anchor="start" x="203" y="-501.5" font-family="Helvetica,sans-Serif" font-size="10.00">+ message</text>
<text text-anchor="start" x="203" y="-490.5" font-family="Helvetica,sans-Serif" font-size="10.00">+ severity</text>
<text text-anchor="start" x="203" y="-479.5" font-family="Helvetica,sans-Serif" font-size="10.00">+ traceback</text>
<text text-anchor="start" x="203" y="-468.5" font-family="Helvetica,sans-Serif" font-size="10.00">+ type</text>
<text text-anchor="start" x="203" y="-457.5" font-family="Helvetica,sans-Serif" font-size="10.00">+ SEVERITY_TO_LOGGING</text>
<polyline fill="none" stroke="black" points="195,-450.5 349,-450.5 "/>
<text text-anchor="start" x="203" y="-438.5" font-family="Helvetica,sans-Serif" font-size="10.00">+ __init__()</text>
<text text-anchor="start" x="203" y="-427.5" font-family="Helvetica,sans-Serif" font-size="10.00">+ __repr__()</text>
<text text-anchor="start" x="203" y="-416.5" font-family="Helvetica,sans-Serif" font-size="10.00">+ __str__()</text>
<text text-anchor="start" x="203" y="-405.5" font-family="Helvetica,sans-Serif" font-size="10.00">+ to_dict()</text>
<text text-anchor="start" x="203" y="-394.5" font-family="Helvetica,sans-Serif" font-size="10.00">+ to_json()</text>
</a>
</g>
</g>
<!-- Node4&#45;&gt;Node3 -->
<g id="edge3" class="edge">
<title>Node4&#45;&gt;Node3</title>
<path fill="none" stroke="midnightblue" d="M272,-377.13C272,-367.56 272,-358.54 272,-350.7"/>
<polygon fill="none" stroke="midnightblue" points="268.5,-377.26 272,-387.26 275.5,-377.26 268.5,-377.26"/>
</g>
<!-- Node5 -->
<g id="node5" class="node">
<title>Node5</title>
<g id="a_node5"><a xlink:title=" ">
<polygon fill="none" stroke="#bfbfbf" points="239.5,-613.5 239.5,-670.5 304.5,-670.5 304.5,-613.5 239.5,-613.5"/>
<text text-anchor="middle" x="272" y="-658.5" font-family="Helvetica,sans-Serif" font-size="10.00">Exception</text>
<polyline fill="none" stroke="#bfbfbf" points="239.5,-651.5 304.5,-651.5 "/>
<text text-anchor="middle" x="272" y="-639.5" font-family="Helvetica,sans-Serif" font-size="10.00"> </text>
<polyline fill="none" stroke="#bfbfbf" points="239.5,-632.5 304.5,-632.5 "/>
<text text-anchor="middle" x="272" y="-620.5" font-family="Helvetica,sans-Serif" font-size="10.00"> </text>
</a>
</g>
</g>
<!-- Node5&#45;&gt;Node4 -->
<g id="edge4" class="edge">
<title>Node5&#45;&gt;Node4</title>
<path fill="none" stroke="midnightblue" d="M272,-603.22C272,-595.01 272,-585.99 272,-576.68"/>
<polygon fill="none" stroke="midnightblue" points="268.5,-603.48 272,-613.48 275.5,-603.48 268.5,-603.48"/>
</g>
</g>
</svg>
