<?xml version="1.0" encoding="UTF-8" standalone="no"?>
<!DOCTYPE svg PUBLIC "-//W3C//DTD SVG 1.1//EN"
 "http://www.w3.org/Graphics/SVG/1.1/DTD/svg11.dtd">
<!-- Generated by graphviz version 2.43.0 (0)
 -->
<!-- Title: bot.BotQueuedMessageException Pages: 1 -->
<!--zoomable 739 -->

<svg id="main" version="1.1" xmlns="http://www.w3.org/2000/svg" xmlns:xlink="http://www.w3.org/1999/xlink" xml:space="preserve" onload="init(evt)">
<style type="text/css"><![CDATA[
.node, .edge {opacity: 0.7;}
.node.selected, .edge.selected {opacity: 1;}
.edge:hover path { stroke: red; }
.edge:hover polygon { stroke: red; fill: red; }
]]></style>

<defs>
  <circle id="rim" cx="0" cy="0" r="7"/>
  <circle id="rim2" cx="0" cy="0" r="3.5"/>
  <g id="zoomPlus">
    <use xlink:href="#rim" fill="#404040"><set attributeName="fill" to="#808080" begin="zoomplus.mouseover" end="zoomplus.mouseout"/></use>
    <path d="M-4,0h8M0,-4v8" fill="none" stroke="white" stroke-width="1.5" pointer-events="none"/>
  </g>
  <g id="zoomMin">
    <use xlink:href="#rim" fill="#404040"><set attributeName="fill" to="#808080" begin="zoomminus.mouseover" end="zoomminus.mouseout"/></use>
    <path d="M-4,0h8" fill="none" stroke="white" stroke-width="1.5" pointer-events="none"/>
  </g>
  <g id="arrowUp" transform="translate(30 24)">
    <use xlink:href="#rim"/>
    <path pointer-events="none" fill="none" stroke="white" stroke-width="1.5" d="M0,-3.0v7 M-2.5,-0.5L0,-3.0L2.5,-0.5"/>
  </g>
  <g id="arrowRight" transform="rotate(90) translate(36 -43)">
    <use xlink:href="#rim"/>
    <path pointer-events="none" fill="none" stroke="white" stroke-width="1.5" d="M0,-3.0v7 M-2.5,-0.5L0,-3.0L2.5,-0.5"/>
  </g>
  <g id="arrowDown" transform="rotate(180) translate(-30 -48)">
    <use xlink:href="#rim"/>
    <path pointer-events="none" fill="none" stroke="white" stroke-width="1.5" d="M0,-3.0v7 M-2.5,-0.5L0,-3.0L2.5,-0.5"/>
  </g>
  <g id="arrowLeft" transform="rotate(270) translate(-36 17)">
    <use xlink:href="#rim"/>
    <path pointer-events="none" fill="none" stroke="white" stroke-width="1.5" d="M0,-3.0v7 M-2.5,-0.5L0,-3.0L2.5,-0.5"/>
  </g>
  <g id="resetDef">
    <use xlink:href="#rim2" fill="#404040"><set attributeName="fill" to="#808080" begin="reset.mouseover" end="reset.mouseout"/></use>
  </g>
</defs>
<script type="application/ecmascript">
var viewWidth = 344;
var viewHeight = 739;
var sectionId = 'dynsection-0';
</script>
<script type="application/ecmascript" xlink:href="svg.min.js"/>
<svg id="graph" class="graph">
<g id="viewport">
<title>bot.BotQueuedMessageException</title>
<!-- Node1 -->
<g id="Node000001" class="node">
<title>Node1</title>
<g id="a_Node000001"><a xlink:title=" ">
<polygon fill="#999999" stroke="transparent" points="255.5,-145 80.5,-145 80.5,-96 255.5,-96 255.5,-145"/>
<text text-anchor="start" x="86" y="-132.5" font-family="Helvetica,sans-Serif" font-size="10.00">bot.BotQueuedMessageException</text>
<text text-anchor="start" x="166.5" y="-117.5" font-family="Helvetica,sans-Serif" font-size="10.00"> </text>
<text text-anchor="start" x="166.5" y="-102.5" font-family="Helvetica,sans-Serif" font-size="10.00"> </text>
<polygon fill="#666666" stroke="#666666" points="81,-127.5 81,-127.5 256,-127.5 256,-127.5 81,-127.5"/>
<polygon fill="#666666" stroke="#666666" points="81,-112.5 81,-112.5 256,-112.5 256,-112.5 81,-112.5"/>
<polygon fill="none" stroke="#666666" points="80.5,-96 80.5,-145 255.5,-145 255.5,-96 80.5,-96"/>
</a>
</g>
</g>
<!-- Node6 -->
<g id="Node000006" class="node">
<title>Node6</title>
<g id="a_Node000006"><a xlink:href="classbot_1_1BotQueuedMessageInvalidException.html" target="_top" xlink:title=" ">
<polygon fill="white" stroke="transparent" points="160,-60 0,-60 0,0 160,0 160,-60"/>
<text text-anchor="start" x="5" y="-48" font-family="Helvetica,sans-Serif" font-size="10.00">bot.BotQueuedMessageInvalid</text>
<text text-anchor="start" x="55.5" y="-37" font-family="Helvetica,sans-Serif" font-size="10.00">Exception</text>
<text text-anchor="start" x="78" y="-22" font-family="Helvetica,sans-Serif" font-size="10.00"> </text>
<text text-anchor="start" x="78" y="-7" font-family="Helvetica,sans-Serif" font-size="10.00"> </text>
<polygon fill="#666666" stroke="#666666" points="0,-32 0,-32 160,-32 160,-32 0,-32"/>
<polygon fill="#666666" stroke="#666666" points="0,-17 0,-17 160,-17 160,-17 0,-17"/>
<polygon fill="none" stroke="#666666" points="0,0 0,-60 160,-60 160,0 0,0"/>
</a>
</g>
</g>
<!-- Node1&#45;&gt;Node6 -->
<g id="edge5_Node000001_Node000006" class="edge">
<title>Node1&#45;&gt;Node6</title>
<g id="a_edge5_Node000001_Node000006"><a xlink:title=" ">
<path fill="none" stroke="#63b8ff" d="M137.27,-88.6C128.09,-79.36 118.06,-69.27 108.99,-60.16"/>
<polygon fill="none" stroke="#63b8ff" points="134.88,-91.16 144.42,-95.78 139.85,-86.22 134.88,-91.16"/>
</a>
</g>
</g>
<!-- Node7 -->
<g id="Node000007" class="node">
<title>Node7</title>
<g id="a_Node000007"><a xlink:href="classbot_1_1BotQueuedMessageResultException.html" target="_top" xlink:title=" ">
<polygon fill="white" stroke="transparent" points="336,-60 178,-60 178,0 336,0 336,-60"/>
<text text-anchor="start" x="183" y="-48" font-family="Helvetica,sans-Serif" font-size="10.00">bot.BotQueuedMessageResult</text>
<text text-anchor="start" x="232.5" y="-37" font-family="Helvetica,sans-Serif" font-size="10.00">Exception</text>
<text text-anchor="start" x="255" y="-22" font-family="Helvetica,sans-Serif" font-size="10.00"> </text>
<text text-anchor="start" x="255" y="-7" font-family="Helvetica,sans-Serif" font-size="10.00"> </text>
<polygon fill="#666666" stroke="#666666" points="178,-32 178,-32 336,-32 336,-32 178,-32"/>
<polygon fill="#666666" stroke="#666666" points="178,-17 178,-17 336,-17 336,-17 178,-17"/>
<polygon fill="none" stroke="#666666" points="178,0 178,-60 336,-60 336,0 178,0"/>
</a>
</g>
</g>
<!-- Node1&#45;&gt;Node7 -->
<g id="edge6_Node000001_Node000007" class="edge">
<title>Node1&#45;&gt;Node7</title>
<g id="a_edge6_Node000001_Node000007"><a xlink:title=" ">
<path fill="none" stroke="#63b8ff" d="M199.08,-88.6C208.36,-79.36 218.51,-69.27 227.68,-60.16"/>
<polygon fill="none" stroke="#63b8ff" points="196.47,-86.25 191.85,-95.78 201.41,-91.21 196.47,-86.25"/>
</a>
</g>
</g>
<!-- Node2 -->
<g id="Node000002" class="node">
<title>Node2</title>
<g id="a_Node000002"><a xlink:href="classbot_1_1BotMessageException.html" target="_top" xlink:title=" ">
<polygon fill="white" stroke="transparent" points="236.5,-230 99.5,-230 99.5,-181 236.5,-181 236.5,-230"/>
<text text-anchor="start" x="105" y="-217.5" font-family="Helvetica,sans-Serif" font-size="10.00">bot.BotMessageException</text>
<text text-anchor="start" x="166.5" y="-202.5" font-family="Helvetica,sans-Serif" font-size="10.00"> </text>
<text text-anchor="start" x="166.5" y="-187.5" font-family="Helvetica,sans-Serif" font-size="10.00"> </text>
<polygon fill="#666666" stroke="#666666" points="100,-212.5 100,-212.5 237,-212.5 237,-212.5 100,-212.5"/>
<polygon fill="#666666" stroke="#666666" points="100,-197.5 100,-197.5 237,-197.5 237,-197.5 100,-197.5"/>
<polygon fill="none" stroke="#666666" points="99.5,-181 99.5,-230 236.5,-230 236.5,-181 99.5,-181"/>
</a>
</g>
</g>
<!-- Node2&#45;&gt;Node1 -->
<g id="edge1_Node000001_Node000002" class="edge">
<title>Node2&#45;&gt;Node1</title>
<g id="a_edge1_Node000001_Node000002"><a xlink:title=" ">
<path fill="none" stroke="#63b8ff" d="M168,-170.77C168,-162.17 168,-153.1 168,-145.12"/>
<polygon fill="none" stroke="#63b8ff" points="164.5,-170.94 168,-180.94 171.5,-170.94 164.5,-170.94"/>
</a>
</g>
</g>
<!-- Node3 -->
<g id="Node000003" class="node">
<title>Node3</title>
<g id="a_Node000003"><a xlink:href="classbot_1_1BotException.html" target="_top" xlink:title=" ">
<polygon fill="white" stroke="transparent" points="215,-315 121,-315 121,-266 215,-266 215,-315"/>
<text text-anchor="start" x="126" y="-302.5" font-family="Helvetica,sans-Serif" font-size="10.00">bot.BotException</text>
<text text-anchor="start" x="166" y="-287.5" font-family="Helvetica,sans-Serif" font-size="10.00"> </text>
<text text-anchor="start" x="166" y="-272.5" font-family="Helvetica,sans-Serif" font-size="10.00"> </text>
<polygon fill="#666666" stroke="#666666" points="121,-297.5 121,-297.5 215,-297.5 215,-297.5 121,-297.5"/>
<polygon fill="#666666" stroke="#666666" points="121,-282.5 121,-282.5 215,-282.5 215,-282.5 121,-282.5"/>
<polygon fill="none" stroke="#666666" points="121,-266 121,-315 215,-315 215,-266 121,-266"/>
</a>
</g>
</g>
<!-- Node3&#45;&gt;Node2 -->
<g id="edge2_Node000002_Node000003" class="edge">
<title>Node3&#45;&gt;Node2</title>
<g id="a_edge2_Node000002_Node000003"><a xlink:title=" ">
<path fill="none" stroke="#63b8ff" d="M168,-255.77C168,-247.17 168,-238.1 168,-230.12"/>
<polygon fill="none" stroke="#63b8ff" points="164.5,-255.94 168,-265.94 171.5,-255.94 164.5,-255.94"/>
</a>
</g>
</g>
<!-- Node4 -->
<g id="Node000004" class="node">
<title>Node4</title>
<g id="a_Node000004"><a xlink:href="classexception_1_1ChatbotException.html" target="_top" xlink:title=" ">
<polygon fill="white" stroke="transparent" points="293,-646 43,-646 43,-351 293,-351 293,-646"/>
<text text-anchor="start" x="99" y="-633.5" font-family="Helvetica,sans-Serif" font-size="10.00">exception.ChatbotException</text>
<text text-anchor="start" x="47" y="-618.5" font-family="Helvetica,sans-Serif" font-size="10.00">+</text>
<text text-anchor="start" x="60" y="-618.5" font-family="Helvetica,sans-Serif" font-size="10.00">cause</text>
<text text-anchor="start" x="47" y="-603.5" font-family="Helvetica,sans-Serif" font-size="10.00">+</text>
<text text-anchor="start" x="60" y="-603.5" font-family="Helvetica,sans-Serif" font-size="10.00">code</text>
<text text-anchor="start" x="47" y="-588.5" font-family="Helvetica,sans-Serif" font-size="10.00">+</text>
<text text-anchor="start" x="60" y="-588.5" font-family="Helvetica,sans-Serif" font-size="10.00">filename</text>
<text text-anchor="start" x="47" y="-573.5" font-family="Helvetica,sans-Serif" font-size="10.00">+</text>
<text text-anchor="start" x="60" y="-573.5" font-family="Helvetica,sans-Serif" font-size="10.00">lineno</text>
<text text-anchor="start" x="47" y="-558.5" font-family="Helvetica,sans-Serif" font-size="10.00">+</text>
<text text-anchor="start" x="60" y="-558.5" font-family="Helvetica,sans-Serif" font-size="10.00">message</text>
<text text-anchor="start" x="47" y="-543.5" font-family="Helvetica,sans-Serif" font-size="10.00">+</text>
<text text-anchor="start" x="60" y="-543.5" font-family="Helvetica,sans-Serif" font-size="10.00">severity</text>
<text text-anchor="start" x="47" y="-528.5" font-family="Helvetica,sans-Serif" font-size="10.00">+</text>
<text text-anchor="start" x="60" y="-528.5" font-family="Helvetica,sans-Serif" font-size="10.00">traceback</text>
<text text-anchor="start" x="47" y="-513.5" font-family="Helvetica,sans-Serif" font-size="10.00">+</text>
<text text-anchor="start" x="60" y="-513.5" font-family="Helvetica,sans-Serif" font-size="10.00">type</text>
<text text-anchor="start" x="47" y="-498.5" font-family="Helvetica,sans-Serif" font-size="10.00">+</text>
<text text-anchor="start" x="60" y="-498.5" font-family="Helvetica,sans-Serif" font-size="10.00">SEVERITY_TO_LOGGING</text>
<text text-anchor="start" x="47" y="-483.5" font-family="Helvetica,sans-Serif" font-size="10.00">+</text>
<text text-anchor="start" x="60" y="-483.5" font-family="Helvetica,sans-Serif" font-size="10.00">__init__(self, &quot;Chatbot</text>
<text text-anchor="start" x="60" y="-472.5" font-family="Helvetica,sans-Serif" font-size="10.00">Exception.ChatbotExceptionCode&quot;</text>
<text text-anchor="start" x="60" y="-461.5" font-family="Helvetica,sans-Serif" font-size="10.00"> code=None, str message=None,</text>
<text text-anchor="start" x="60" y="-450.5" font-family="Helvetica,sans-Serif" font-size="10.00"> &quot;ChatbotException.ChatbotExceptionSeverity&quot;</text>
<text text-anchor="start" x="60" y="-439.5" font-family="Helvetica,sans-Serif" font-size="10.00"> severity=None, str filename=None, int</text>
<text text-anchor="start" x="60" y="-428.5" font-family="Helvetica,sans-Serif" font-size="10.00"> lineno=None, Exception cause=None, bool</text>
<text text-anchor="start" x="60" y="-417.5" font-family="Helvetica,sans-Serif" font-size="10.00"> include_trace=True)</text>
<text text-anchor="start" x="47" y="-402.5" font-family="Helvetica,sans-Serif" font-size="10.00">+</text>
<text text-anchor="start" x="60" y="-402.5" font-family="Helvetica,sans-Serif" font-size="10.00">__repr__(self)</text>
<text text-anchor="start" x="47" y="-387.5" font-family="Helvetica,sans-Serif" font-size="10.00">+</text>
<text text-anchor="start" x="60" y="-387.5" font-family="Helvetica,sans-Serif" font-size="10.00">__str__(self)</text>
<text text-anchor="start" x="47" y="-372.5" font-family="Helvetica,sans-Serif" font-size="10.00">+</text>
<text text-anchor="start" x="60" y="-372.5" font-family="Helvetica,sans-Serif" font-size="10.00">to_dict(self)</text>
<text text-anchor="start" x="47" y="-357.5" font-family="Helvetica,sans-Serif" font-size="10.00">+</text>
<text text-anchor="start" x="60" y="-357.5" font-family="Helvetica,sans-Serif" font-size="10.00">to_json(self)</text>
<polygon fill="#666666" stroke="#666666" points="43,-628.5 43,-628.5 293,-628.5 293,-628.5 43,-628.5"/>
<polygon fill="#666666" stroke="#666666" points="43,-493.5 43,-493.5 58,-493.5 58,-493.5 43,-493.5"/>
<polygon fill="#666666" stroke="#666666" points="58,-493.5 58,-493.5 293,-493.5 293,-493.5 58,-493.5"/>
<polygon fill="none" stroke="#666666" points="43,-351 43,-646 293,-646 293,-351 43,-351"/>
</a>
</g>
</g>
<!-- Node4&#45;&gt;Node3 -->
<g id="edge3_Node000003_Node000004" class="edge">
<title>Node4&#45;&gt;Node3</title>
<g id="a_edge3_Node000003_Node000004"><a xlink:title=" ">
<path fill="none" stroke="#63b8ff" d="M168,-340.58C168,-331.04 168,-322.35 168,-315.04"/>
<polygon fill="none" stroke="#63b8ff" points="164.5,-340.81 168,-350.81 171.5,-340.81 164.5,-340.81"/>
</a>
</g>
</g>
<!-- Node5 -->
<g id="Node000005" class="node">
<title>Node5</title>
<g id="a_Node000005"><a xlink:title=" ">
<polygon fill="white" stroke="transparent" points="197.5,-731 138.5,-731 138.5,-682 197.5,-682 197.5,-731"/>
<text text-anchor="start" x="144" y="-718.5" font-family="Helvetica,sans-Serif" font-size="10.00">Exception</text>
<text text-anchor="start" x="166.5" y="-703.5" font-family="Helvetica,sans-Serif" font-size="10.00"> </text>
<text text-anchor="start" x="166.5" y="-688.5" font-family="Helvetica,sans-Serif" font-size="10.00"> </text>
<polygon fill="#666666" stroke="#666666" points="139,-713.5 139,-713.5 198,-713.5 198,-713.5 139,-713.5"/>
<polygon fill="#666666" stroke="#666666" points="139,-698.5 139,-698.5 198,-698.5 198,-698.5 139,-698.5"/>
<polygon fill="none" stroke="#666666" points="138.5,-682 138.5,-731 197.5,-731 197.5,-682 138.5,-682"/>
</a>
</g>
</g>
<!-- Node5&#45;&gt;Node4 -->
<g id="edge4_Node000004_Node000005" class="edge">
<title>Node5&#45;&gt;Node4</title>
<g id="a_edge4_Node000004_Node000005"><a xlink:title=" ">
<path fill="none" stroke="#63b8ff" d="M168,-671.71C168,-664.05 168,-655.44 168,-646.26"/>
<polygon fill="none" stroke="#63b8ff" points="164.5,-671.87 168,-681.87 171.5,-671.87 164.5,-671.87"/>
</a>
</g>
</g>
</g>
</svg>

<g id="navigator" transform="translate(0 0)" fill="#404254">
  <rect fill="#f2f5e9" fill-opacity="0.5" stroke="#606060" stroke-width=".5" x="0" y="0" width="60" height="60"/>
  <use id="zoomplus" xlink:href="#zoomPlus" x="17" y="9" onmousedown="handleZoom(evt,'in')"/>
  <use id="zoomminus" xlink:href="#zoomMin" x="42" y="9" onmousedown="handleZoom(evt,'out')"/>
  <use id="reset" xlink:href="#resetDef" x="30" y="36" onmousedown="handleReset()"/>
   <use id="arrowup" xlink:href="#arrowUp" x="0" y="0" onmousedown="handlePan(0,-1)"/>
  <use id="arrowright" xlink:href="#arrowRight" x="0" y="0" onmousedown="handlePan(1,0)"/>
  <use id="arrowdown" xlink:href="#arrowDown" x="0" y="0" onmousedown="handlePan(0,1)"/>
  <use id="arrowleft" xlink:href="#arrowLeft" x="0" y="0" onmousedown="handlePan(-1,0)"/>
</g>
<svg viewBox="0 0 15 15" width="100%" height="30px" preserveAspectRatio="xMaxYMin meet">
 <g id="arrow_out" transform="scale(0.3 0.3)">
  <a xlink:href="classbot_1_1BotQueuedMessageException__inherit__graph_org.svg" target="_base">
   <rect id="button" ry="5" rx="5" y="6" x="6" height="38" width="38"
        fill="#f2f5e9" fill-opacity="0.5" stroke="#606060" stroke-width="1.0"/>
   <path id="arrow"
     d="M 11.500037,31.436501 C 11.940474,20.09759 22.043105,11.32322 32.158766,21.979434 L 37.068811,17.246167 C 37.068811,17.246167 37.088388,32 37.088388,32 L 22.160133,31.978069 C 22.160133,31.978069 26.997745,27.140456 26.997745,27.140456 C 18.528582,18.264221 13.291696,25.230495 11.500037,31.436501 z"
     style="fill:#404040;"/>
  </a>
 </g>
</svg>

<style type='text/css'>
<![CDATA[
[data-mouse-over-selected='false'] { opacity: 0.7; }
[data-mouse-over-selected='true']  { opacity: 1.0; }
]]>
</style>
<script type="application/ecmascript"><![CDATA[
document.addEventListener('DOMContentLoaded', (event) => {
  highlightEdges();
  highlightAdjacentNodes();
});
]]></script>
</svg>
