<?xml version="1.0" encoding="UTF-8" standalone="no"?>
<!DOCTYPE svg PUBLIC "-//W3C//DTD SVG 1.1//EN"
 "http://www.w3.org/Graphics/SVG/1.1/DTD/svg11.dtd">
<!-- Generated by graphviz version 2.43.0 (0)
 -->
<!-- Title: configurator.Configurator.http_request_with_retry Pages: 1 -->
<!--zoomable 132 -->
<svg id="main" version="1.1" xmlns="http://www.w3.org/2000/svg" xmlns:xlink="http://www.w3.org/1999/xlink" xml:space="preserve" onload="init(evt)">
<style type="text/css"><![CDATA[
.edge:hover path { stroke: red; }
.edge:hover polygon { stroke: red; fill: red; }
]]></style>
<script type="text/javascript"><![CDATA[
var edges = document.getElementsByTagName('g');
if (edges && edges.length) {
  for (var i=0;i<edges.length;i++) {
    if (edges[i].id.substr(0,4)=='edge') {
      edges[i].setAttribute('class','edge');
    }
  }
}
]]></script>
        <defs>
                <circle id="rim" cx="0" cy="0" r="7"/>
                <circle id="rim2" cx="0" cy="0" r="3.5"/>
                <g id="zoomPlus">
                        <use xlink:href="#rim" fill="#404040">
                                <set attributeName="fill" to="#808080" begin="zoomplus.mouseover" end="zoomplus.mouseout"/>
                        </use>
                        <path d="M-4,0h8M0,-4v8" fill="none" stroke="white" stroke-width="1.5" pointer-events="none"/>
                </g>
                <g id="zoomMin">
                        <use xlink:href="#rim" fill="#404040">
                                <set attributeName="fill" to="#808080" begin="zoomminus.mouseover" end="zoomminus.mouseout"/>
                        </use>
                        <path d="M-4,0h8" fill="none" stroke="white" stroke-width="1.5" pointer-events="none"/>
                </g>
                <g id="dirArrow">
                        <path fill="none" stroke="white" stroke-width="1.5" d="M0,-3.0v7 M-2.5,-0.5L0,-3.0L2.5,-0.5"/>
                </g>
               <g id="resetDef">
                       <use xlink:href="#rim2" fill="#404040">
                               <set attributeName="fill" to="#808080" begin="reset.mouseover" end="reset.mouseout"/>
                       </use>
               </g>
        </defs>

<script type="text/javascript">
var viewWidth = 808;
var viewHeight = 132;
var sectionId = 'dynsection-4';
</script>
<script xlink:href="svgpan.js"/>
<svg id="graph" class="graph">
<g id="viewport">
<title>configurator.Configurator.http_request_with_retry</title>
<!-- Node1 -->
<g id="node1" class="node">
<title>Node1</title>
<g id="a_node1"><a xlink:title=" ">
<polygon fill="#bfbfbf" stroke="black" points="638,-44.5 638,-74.5 800,-74.5 800,-44.5 638,-44.5"/>
<text text-anchor="start" x="646" y="-62.5" font-family="Helvetica,sans-Serif" font-size="10.00">configurator.Configurator.http</text>
<text text-anchor="middle" x="719" y="-51.5" font-family="Helvetica,sans-Serif" font-size="10.00">_request_with_retry</text>
</a>
</g>
</g>
<!-- Node2 -->
<g id="node2" class="node">
<title>Node2</title>
<g id="a_node2"><a xlink:href="classconfigurator_1_1Configurator.html#aa06514ca8386fc8b9b9a2662d47d8b90" target="_top" xlink:title=" ">
<polygon fill="none" stroke="black" points="431,-90.5 431,-120.5 602,-120.5 602,-90.5 431,-90.5"/>
<text text-anchor="start" x="439" y="-108.5" font-family="Helvetica,sans-Serif" font-size="10.00">configurator.Configurator.check</text>
<text text-anchor="middle" x="516.5" y="-97.5" font-family="Helvetica,sans-Serif" font-size="10.00">_ngrok</text>
</a>
</g>
</g>
<!-- Node1&#45;&gt;Node2 -->
<g id="edge1" class="edge">
<title>Node1&#45;&gt;Node2</title>
<path fill="none" stroke="midnightblue" d="M642.55,-76.81C622.94,-81.31 601.99,-86.11 582.96,-90.48"/>
<polygon fill="midnightblue" stroke="midnightblue" points="643.38,-80.21 652.35,-74.56 641.82,-73.39 643.38,-80.21"/>
</g>
<!-- Node5 -->
<g id="node5" class="node">
<title>Node5</title>
<g id="a_node5"><a xlink:href="classconfigurator_1_1Configurator.html#a6a7a9f06fb955a0f9643bfc5e70342df" target="_top" xlink:title=" ">
<polygon fill="none" stroke="black" points="230.5,-44.5 230.5,-74.5 388.5,-74.5 388.5,-44.5 230.5,-44.5"/>
<text text-anchor="start" x="238.5" y="-62.5" font-family="Helvetica,sans-Serif" font-size="10.00">configurator.Configurator.set</text>
<text text-anchor="middle" x="309.5" y="-51.5" font-family="Helvetica,sans-Serif" font-size="10.00">_telegram_webhook</text>
</a>
</g>
</g>
<!-- Node1&#45;&gt;Node5 -->
<g id="edge4" class="edge">
<title>Node1&#45;&gt;Node5</title>
<path fill="none" stroke="midnightblue" d="M627.61,-59.5C555.95,-59.5 456.86,-59.5 388.61,-59.5"/>
<polygon fill="midnightblue" stroke="midnightblue" points="627.98,-63 637.98,-59.5 627.98,-56 627.98,-63"/>
</g>
<!-- Node6 -->
<g id="node6" class="node">
<title>Node6</title>
<g id="a_node6"><a xlink:href="classconfigurator_1_1Configurator.html#a7d2d4f9f2c0ce3910d53e5748d92cbe9" target="_top" xlink:title=" ">
<polygon fill="none" stroke="black" points="434,-0.5 434,-30.5 599,-30.5 599,-0.5 434,-0.5"/>
<text text-anchor="start" x="442" y="-18.5" font-family="Helvetica,sans-Serif" font-size="10.00">configurator.Configurator.start</text>
<text text-anchor="middle" x="516.5" y="-7.5" font-family="Helvetica,sans-Serif" font-size="10.00">_ngrok</text>
</a>
</g>
</g>
<!-- Node1&#45;&gt;Node6 -->
<g id="edge6" class="edge">
<title>Node1&#45;&gt;Node6</title>
<path fill="none" stroke="midnightblue" d="M639.31,-42.23C621.69,-38.36 603.14,-34.29 585.97,-30.53"/>
<polygon fill="midnightblue" stroke="midnightblue" points="639.04,-45.76 649.56,-44.48 640.54,-38.92 639.04,-45.76"/>
</g>
<!-- Node3 -->
<g id="node3" class="node">
<title>Node3</title>
<g id="a_node3"><a xlink:href="classconfigurator_1_1Configurator.html#aed68704c19cba14d0f2fa93933a3bcb4" target="_top" xlink:title=" ">
<polygon fill="none" stroke="black" points="224,-93.5 224,-123.5 395,-123.5 395,-93.5 224,-93.5"/>
<text text-anchor="start" x="232" y="-111.5" font-family="Helvetica,sans-Serif" font-size="10.00">configurator.Configurator.verify</text>
<text text-anchor="middle" x="309.5" y="-100.5" font-family="Helvetica,sans-Serif" font-size="10.00">_ngrok</text>
</a>
</g>
</g>
<!-- Node2&#45;&gt;Node3 -->
<g id="edge2" class="edge">
<title>Node2&#45;&gt;Node3</title>
<path fill="none" stroke="midnightblue" d="M420.91,-106.88C412.34,-107.01 403.69,-107.14 395.2,-107.26"/>
<polygon fill="midnightblue" stroke="midnightblue" points="420.99,-110.38 430.94,-106.74 420.88,-103.38 420.99,-110.38"/>
</g>
<!-- Node4 -->
<g id="node4" class="node">
<title>Node4</title>
<g id="a_node4"><a xlink:href="classconfigurator_1_1Configurator.html#a8ffdf2ad767373fc199bb2d2cece8304" target="_top" xlink:title=" ">
<polygon fill="none" stroke="black" points="0,-50 0,-69 188,-69 188,-50 0,-50"/>
<text text-anchor="middle" x="94" y="-57" font-family="Helvetica,sans-Serif" font-size="10.00">configurator.Configurator.configure</text>
</a>
</g>
</g>
<!-- Node3&#45;&gt;Node4 -->
<g id="edge3" class="edge">
<title>Node3&#45;&gt;Node4</title>
<path fill="none" stroke="midnightblue" d="M233.07,-91.19C200.61,-83.74 163.91,-75.32 136.51,-69.03"/>
<polygon fill="midnightblue" stroke="midnightblue" points="232.46,-94.64 242.99,-93.47 234.03,-87.82 232.46,-94.64"/>
</g>
<!-- Node5&#45;&gt;Node4 -->
<g id="edge5" class="edge">
<title>Node5&#45;&gt;Node4</title>
<path fill="none" stroke="midnightblue" d="M220.16,-59.5C209.59,-59.5 198.77,-59.5 188.13,-59.5"/>
<polygon fill="midnightblue" stroke="midnightblue" points="220.21,-63 230.21,-59.5 220.21,-56 220.21,-63"/>
</g>
<!-- Node6&#45;&gt;Node4 -->
<g id="edge7" class="edge">
<title>Node6&#45;&gt;Node4</title>
<path fill="none" stroke="midnightblue" d="M423.71,-18.51C366.17,-21.13 290.55,-25.92 224,-34.5 194.7,-38.28 162.03,-44.63 136.9,-49.99"/>
<polygon fill="midnightblue" stroke="midnightblue" points="424.04,-22 433.87,-18.06 423.73,-15.01 424.04,-22"/>
</g>
</g>
</svg>
        <g id="navigator" transform="translate(0 0)" fill="#404254">
                <rect fill="#f2f5e9" fill-opacity="0.5" stroke="#606060" stroke-width=".5" x="0" y="0" width="60" height="60"/>
                <use id="zoomplus" xlink:href="#zoomPlus" x="17" y="9" onmousedown="handleZoom(evt,'in')"/>
                <use id="zoomminus" xlink:href="#zoomMin" x="42" y="9" onmousedown="handleZoom(evt,'out')"/>
                <use id="reset" xlink:href="#resetDef" x="30" y="36" onmousedown="handleReset()"/>
                <g id="arrowUp" xlink:href="#dirArrow" transform="translate(30 24)" onmousedown="handlePan(0,-1)">
                  <use xlink:href="#rim" fill="#404040">
                        <set attributeName="fill" to="#808080" begin="arrowUp.mouseover" end="arrowUp.mouseout"/>
                  </use>
                  <path fill="none" stroke="white" stroke-width="1.5" d="M0,-3.0v7 M-2.5,-0.5L0,-3.0L2.5,-0.5"/>
                </g>
                <g id="arrowRight" xlink:href="#dirArrow" transform="rotate(90) translate(36 -43)" onmousedown="handlePan(1,0)">
                  <use xlink:href="#rim" fill="#404040">
                        <set attributeName="fill" to="#808080" begin="arrowRight.mouseover" end="arrowRight.mouseout"/>
                  </use>
                  <path fill="none" stroke="white" stroke-width="1.5" d="M0,-3.0v7 M-2.5,-0.5L0,-3.0L2.5,-0.5"/>
                </g>
                <g id="arrowDown" xlink:href="#dirArrow" transform="rotate(180) translate(-30 -48)" onmousedown="handlePan(0,1)">
                  <use xlink:href="#rim" fill="#404040">
                        <set attributeName="fill" to="#808080" begin="arrowDown.mouseover" end="arrowDown.mouseout"/>
                  </use>
                  <path fill="none" stroke="white" stroke-width="1.5" d="M0,-3.0v7 M-2.5,-0.5L0,-3.0L2.5,-0.5"/>
                </g>
                <g id="arrowLeft" xlink:href="#dirArrow" transform="rotate(270) translate(-36 17)" onmousedown="handlePan(-1,0)">
                  <use xlink:href="#rim" fill="#404040">
                        <set attributeName="fill" to="#808080" begin="arrowLeft.mouseover" end="arrowLeft.mouseout"/>
                  </use>
                  <path fill="none" stroke="white" stroke-width="1.5" d="M0,-3.0v7 M-2.5,-0.5L0,-3.0L2.5,-0.5"/>
                </g>
        </g>
        <svg viewBox="0 0 15 15" width="100%" height="30px" preserveAspectRatio="xMaxYMin meet">
         <g id="arrow_out" transform="scale(0.3 0.3)">
          <a xlink:href="classconfigurator_1_1Configurator_af018c5b4193c24793e3b771121ce3d48_icgraph_org.svg" target="_base">
           <rect id="button" ry="5" rx="5" y="6" x="6" height="38" width="38"
                fill="#f2f5e9" fill-opacity="0.5" stroke="#606060" stroke-width="1.0"/>
           <path id="arrow"
             d="M 11.500037,31.436501 C 11.940474,20.09759 22.043105,11.32322 32.158766,21.979434 L 37.068811,17.246167 C 37.068811,17.246167 37.088388,32 37.088388,32 L 22.160133,31.978069 C 22.160133,31.978069 26.997745,27.140456 26.997745,27.140456 C 18.528582,18.264221 13.291696,25.230495 11.500037,31.436501 z"
             style="fill:#404040;"/>
          </a>
         </g>
        </svg>
</svg>
