<?xml version="1.0" encoding="UTF-8" standalone="no"?>
<!DOCTYPE svg PUBLIC "-//W3C//DTD SVG 1.1//EN"
 "http://www.w3.org/Graphics/SVG/1.1/DTD/svg11.dtd">
<!-- Generated by graphviz version 2.43.0 (0)
 -->
<!-- Title: bot.HTTPMessageException Pages: 1 -->
<svg width="599pt" height="728pt"
 viewBox="0.00 0.00 599.00 728.00" xmlns="http://www.w3.org/2000/svg" xmlns:xlink="http://www.w3.org/1999/xlink">
<g id="graph0" class="graph" transform="scale(1 1) rotate(0) translate(4 724)">
<title>bot.HTTPMessageException</title>
<!-- Node1 -->
<g id="Node000001" class="node">
<title>Node1</title>
<g id="a_Node000001"><a xlink:title=" ">
<polygon fill="#999999" stroke="transparent" points="369.5,-134 223.5,-134 223.5,-85 369.5,-85 369.5,-134"/>
<text text-anchor="start" x="228.5" y="-121.5" font-family="Helvetica,sans-Serif" font-size="10.00">bot.HTTPMessageException</text>
<text text-anchor="start" x="294.5" y="-106.5" font-family="Helvetica,sans-Serif" font-size="10.00"> </text>
<text text-anchor="start" x="294.5" y="-91.5" font-family="Helvetica,sans-Serif" font-size="10.00"> </text>
<polygon fill="#666666" stroke="#666666" points="223.5,-116.5 223.5,-116.5 369.5,-116.5 369.5,-116.5 223.5,-116.5"/>
<polygon fill="#666666" stroke="#666666" points="223.5,-101.5 223.5,-101.5 369.5,-101.5 369.5,-101.5 223.5,-101.5"/>
<polygon fill="none" stroke="#666666" points="223.5,-85 223.5,-134 369.5,-134 369.5,-85 223.5,-85"/>
</a>
</g>
</g>
<!-- Node6 -->
<g id="Node000006" class="node">
<title>Node6</title>
<g id="a_Node000006"><a xlink:href="classbot_1_1HTTPMessageHeadersException.html" target="_top" xlink:title=" ">
<polygon fill="white" stroke="transparent" points="187,-49 0,-49 0,0 187,0 187,-49"/>
<text text-anchor="start" x="5.5" y="-36.5" font-family="Helvetica,sans-Serif" font-size="10.00">bot.HTTPMessageHeadersException</text>
<text text-anchor="start" x="92" y="-21.5" font-family="Helvetica,sans-Serif" font-size="10.00"> </text>
<text text-anchor="start" x="92" y="-6.5" font-family="Helvetica,sans-Serif" font-size="10.00"> </text>
<polygon fill="#666666" stroke="#666666" points="0.5,-31.5 0.5,-31.5 187.5,-31.5 187.5,-31.5 0.5,-31.5"/>
<polygon fill="#666666" stroke="#666666" points="0.5,-16.5 0.5,-16.5 187.5,-16.5 187.5,-16.5 0.5,-16.5"/>
<polygon fill="none" stroke="#666666" points="0,0 0,-49 187,-49 187,0 0,0"/>
</a>
</g>
</g>
<!-- Node1&#45;&gt;Node6 -->
<g id="edge5_Node000001_Node000006" class="edge">
<title>Node1&#45;&gt;Node6</title>
<g id="a_edge5_Node000001_Node000006"><a xlink:title=" ">
<path fill="none" stroke="#63b8ff" d="M229.36,-81.05C204.1,-70.72 175.61,-59.07 151.27,-49.12"/>
<polygon fill="none" stroke="#63b8ff" points="228.29,-84.39 238.87,-84.94 230.94,-77.91 228.29,-84.39"/>
</a>
</g>
</g>
<!-- Node7 -->
<g id="Node000007" class="node">
<title>Node7</title>
<g id="a_Node000007"><a xlink:href="classbot_1_1HTTPMessageParamsException.html" target="_top" xlink:title=" ">
<polygon fill="white" stroke="transparent" points="387.5,-49 205.5,-49 205.5,0 387.5,0 387.5,-49"/>
<text text-anchor="start" x="210.5" y="-36.5" font-family="Helvetica,sans-Serif" font-size="10.00">bot.HTTPMessageParamsException</text>
<text text-anchor="start" x="294.5" y="-21.5" font-family="Helvetica,sans-Serif" font-size="10.00"> </text>
<text text-anchor="start" x="294.5" y="-6.5" font-family="Helvetica,sans-Serif" font-size="10.00"> </text>
<polygon fill="#666666" stroke="#666666" points="205.5,-31.5 205.5,-31.5 387.5,-31.5 387.5,-31.5 205.5,-31.5"/>
<polygon fill="#666666" stroke="#666666" points="205.5,-16.5 205.5,-16.5 387.5,-16.5 387.5,-16.5 205.5,-16.5"/>
<polygon fill="none" stroke="#666666" points="205.5,0 205.5,-49 387.5,-49 387.5,0 205.5,0"/>
</a>
</g>
</g>
<!-- Node1&#45;&gt;Node7 -->
<g id="edge6_Node000001_Node000007" class="edge">
<title>Node1&#45;&gt;Node7</title>
<g id="a_edge6_Node000001_Node000007"><a xlink:title=" ">
<path fill="none" stroke="#63b8ff" d="M296.5,-74.77C296.5,-66.17 296.5,-57.1 296.5,-49.12"/>
<polygon fill="none" stroke="#63b8ff" points="293,-74.94 296.5,-84.94 300,-74.94 293,-74.94"/>
</a>
</g>
</g>
<!-- Node8 -->
<g id="Node000008" class="node">
<title>Node8</title>
<g id="a_Node000008"><a xlink:href="classbot_1_1HTTPMessagePayloadException.html" target="_top" xlink:title=" ">
<polygon fill="white" stroke="transparent" points="591,-49 406,-49 406,0 591,0 591,-49"/>
<text text-anchor="start" x="411.5" y="-36.5" font-family="Helvetica,sans-Serif" font-size="10.00">bot.HTTPMessagePayloadException</text>
<text text-anchor="start" x="497" y="-21.5" font-family="Helvetica,sans-Serif" font-size="10.00"> </text>
<text text-anchor="start" x="497" y="-6.5" font-family="Helvetica,sans-Serif" font-size="10.00"> </text>
<polygon fill="#666666" stroke="#666666" points="406.5,-31.5 406.5,-31.5 591.5,-31.5 591.5,-31.5 406.5,-31.5"/>
<polygon fill="#666666" stroke="#666666" points="406.5,-16.5 406.5,-16.5 591.5,-16.5 591.5,-16.5 406.5,-16.5"/>
<polygon fill="none" stroke="#666666" points="406,0 406,-49 591,-49 591,0 406,0"/>
</a>
</g>
</g>
<!-- Node1&#45;&gt;Node8 -->
<g id="edge7_Node000001_Node000008" class="edge">
<title>Node1&#45;&gt;Node8</title>
<g id="a_edge7_Node000001_Node000008"><a xlink:title=" ">
<path fill="none" stroke="#63b8ff" d="M363.31,-81.05C388.45,-70.72 416.79,-59.07 441.01,-49.12"/>
<polygon fill="none" stroke="#63b8ff" points="361.76,-77.9 353.84,-84.94 364.42,-84.37 361.76,-77.9"/>
</a>
</g>
</g>
<!-- Node2 -->
<g id="Node000002" class="node">
<title>Node2</title>
<g id="a_Node000002"><a xlink:href="classbot_1_1BotMessageException.html" target="_top" xlink:title=" ">
<polygon fill="white" stroke="transparent" points="365,-219 228,-219 228,-170 365,-170 365,-219"/>
<text text-anchor="start" x="233.5" y="-206.5" font-family="Helvetica,sans-Serif" font-size="10.00">bot.BotMessageException</text>
<text text-anchor="start" x="295" y="-191.5" font-family="Helvetica,sans-Serif" font-size="10.00"> </text>
<text text-anchor="start" x="295" y="-176.5" font-family="Helvetica,sans-Serif" font-size="10.00"> </text>
<polygon fill="#666666" stroke="#666666" points="228.5,-201.5 228.5,-201.5 365.5,-201.5 365.5,-201.5 228.5,-201.5"/>
<polygon fill="#666666" stroke="#666666" points="228.5,-186.5 228.5,-186.5 365.5,-186.5 365.5,-186.5 228.5,-186.5"/>
<polygon fill="none" stroke="#666666" points="228,-170 228,-219 365,-219 365,-170 228,-170"/>
</a>
</g>
</g>
<!-- Node2&#45;&gt;Node1 -->
<g id="edge1_Node000001_Node000002" class="edge">
<title>Node2&#45;&gt;Node1</title>
<g id="a_edge1_Node000001_Node000002"><a xlink:title=" ">
<path fill="none" stroke="#63b8ff" d="M296.5,-159.77C296.5,-151.17 296.5,-142.1 296.5,-134.12"/>
<polygon fill="none" stroke="#63b8ff" points="293,-159.94 296.5,-169.94 300,-159.94 293,-159.94"/>
</a>
</g>
</g>
<!-- Node3 -->
<g id="Node000003" class="node">
<title>Node3</title>
<g id="a_Node000003"><a xlink:href="classbot_1_1BotException.html" target="_top" xlink:title=" ">
<polygon fill="white" stroke="transparent" points="343.5,-304 249.5,-304 249.5,-255 343.5,-255 343.5,-304"/>
<text text-anchor="start" x="254.5" y="-291.5" font-family="Helvetica,sans-Serif" font-size="10.00">bot.BotException</text>
<text text-anchor="start" x="294.5" y="-276.5" font-family="Helvetica,sans-Serif" font-size="10.00"> </text>
<text text-anchor="start" x="294.5" y="-261.5" font-family="Helvetica,sans-Serif" font-size="10.00"> </text>
<polygon fill="#666666" stroke="#666666" points="249.5,-286.5 249.5,-286.5 343.5,-286.5 343.5,-286.5 249.5,-286.5"/>
<polygon fill="#666666" stroke="#666666" points="249.5,-271.5 249.5,-271.5 343.5,-271.5 343.5,-271.5 249.5,-271.5"/>
<polygon fill="none" stroke="#666666" points="249.5,-255 249.5,-304 343.5,-304 343.5,-255 249.5,-255"/>
</a>
</g>
</g>
<!-- Node3&#45;&gt;Node2 -->
<g id="edge2_Node000002_Node000003" class="edge">
<title>Node3&#45;&gt;Node2</title>
<g id="a_edge2_Node000002_Node000003"><a xlink:title=" ">
<path fill="none" stroke="#63b8ff" d="M296.5,-244.77C296.5,-236.17 296.5,-227.1 296.5,-219.12"/>
<polygon fill="none" stroke="#63b8ff" points="293,-244.94 296.5,-254.94 300,-244.94 293,-244.94"/>
</a>
</g>
</g>
<!-- Node4 -->
<g id="Node000004" class="node">
<title>Node4</title>
<g id="a_Node000004"><a xlink:href="classexception_1_1ChatbotException.html" target="_top" xlink:title=" ">
<polygon fill="white" stroke="transparent" points="421.5,-635 171.5,-635 171.5,-340 421.5,-340 421.5,-635"/>
<text text-anchor="start" x="227.5" y="-622.5" font-family="Helvetica,sans-Serif" font-size="10.00">exception.ChatbotException</text>
<text text-anchor="start" x="175.5" y="-607.5" font-family="Helvetica,sans-Serif" font-size="10.00">+</text>
<text text-anchor="start" x="188.5" y="-607.5" font-family="Helvetica,sans-Serif" font-size="10.00">cause</text>
<text text-anchor="start" x="175.5" y="-592.5" font-family="Helvetica,sans-Serif" font-size="10.00">+</text>
<text text-anchor="start" x="188.5" y="-592.5" font-family="Helvetica,sans-Serif" font-size="10.00">code</text>
<text text-anchor="start" x="175.5" y="-577.5" font-family="Helvetica,sans-Serif" font-size="10.00">+</text>
<text text-anchor="start" x="188.5" y="-577.5" font-family="Helvetica,sans-Serif" font-size="10.00">filename</text>
<text text-anchor="start" x="175.5" y="-562.5" font-family="Helvetica,sans-Serif" font-size="10.00">+</text>
<text text-anchor="start" x="188.5" y="-562.5" font-family="Helvetica,sans-Serif" font-size="10.00">lineno</text>
<text text-anchor="start" x="175.5" y="-547.5" font-family="Helvetica,sans-Serif" font-size="10.00">+</text>
<text text-anchor="start" x="188.5" y="-547.5" font-family="Helvetica,sans-Serif" font-size="10.00">message</text>
<text text-anchor="start" x="175.5" y="-532.5" font-family="Helvetica,sans-Serif" font-size="10.00">+</text>
<text text-anchor="start" x="188.5" y="-532.5" font-family="Helvetica,sans-Serif" font-size="10.00">severity</text>
<text text-anchor="start" x="175.5" y="-517.5" font-family="Helvetica,sans-Serif" font-size="10.00">+</text>
<text text-anchor="start" x="188.5" y="-517.5" font-family="Helvetica,sans-Serif" font-size="10.00">traceback</text>
<text text-anchor="start" x="175.5" y="-502.5" font-family="Helvetica,sans-Serif" font-size="10.00">+</text>
<text text-anchor="start" x="188.5" y="-502.5" font-family="Helvetica,sans-Serif" font-size="10.00">type</text>
<text text-anchor="start" x="175.5" y="-487.5" font-family="Helvetica,sans-Serif" font-size="10.00">+</text>
<text text-anchor="start" x="188.5" y="-487.5" font-family="Helvetica,sans-Serif" font-size="10.00">SEVERITY_TO_LOGGING</text>
<text text-anchor="start" x="175.5" y="-472.5" font-family="Helvetica,sans-Serif" font-size="10.00">+</text>
<text text-anchor="start" x="188.5" y="-472.5" font-family="Helvetica,sans-Serif" font-size="10.00">__init__(self, &quot;Chatbot</text>
<text text-anchor="start" x="188.5" y="-461.5" font-family="Helvetica,sans-Serif" font-size="10.00">Exception.ChatbotExceptionCode&quot;</text>
<text text-anchor="start" x="188.5" y="-450.5" font-family="Helvetica,sans-Serif" font-size="10.00"> code=None, str message=None,</text>
<text text-anchor="start" x="188.5" y="-439.5" font-family="Helvetica,sans-Serif" font-size="10.00"> &quot;ChatbotException.ChatbotExceptionSeverity&quot;</text>
<text text-anchor="start" x="188.5" y="-428.5" font-family="Helvetica,sans-Serif" font-size="10.00"> severity=None, str filename=None, int</text>
<text text-anchor="start" x="188.5" y="-417.5" font-family="Helvetica,sans-Serif" font-size="10.00"> lineno=None, Exception cause=None, bool</text>
<text text-anchor="start" x="188.5" y="-406.5" font-family="Helvetica,sans-Serif" font-size="10.00"> include_trace=True)</text>
<text text-anchor="start" x="175.5" y="-391.5" font-family="Helvetica,sans-Serif" font-size="10.00">+</text>
<text text-anchor="start" x="188.5" y="-391.5" font-family="Helvetica,sans-Serif" font-size="10.00">__repr__(self)</text>
<text text-anchor="start" x="175.5" y="-376.5" font-family="Helvetica,sans-Serif" font-size="10.00">+</text>
<text text-anchor="start" x="188.5" y="-376.5" font-family="Helvetica,sans-Serif" font-size="10.00">__str__(self)</text>
<text text-anchor="start" x="175.5" y="-361.5" font-family="Helvetica,sans-Serif" font-size="10.00">+</text>
<text text-anchor="start" x="188.5" y="-361.5" font-family="Helvetica,sans-Serif" font-size="10.00">to_dict(self)</text>
<text text-anchor="start" x="175.5" y="-346.5" font-family="Helvetica,sans-Serif" font-size="10.00">+</text>
<text text-anchor="start" x="188.5" y="-346.5" font-family="Helvetica,sans-Serif" font-size="10.00">to_json(self)</text>
<polygon fill="#666666" stroke="#666666" points="171.5,-617.5 171.5,-617.5 421.5,-617.5 421.5,-617.5 171.5,-617.5"/>
<polygon fill="#666666" stroke="#666666" points="171.5,-482.5 171.5,-482.5 186.5,-482.5 186.5,-482.5 171.5,-482.5"/>
<polygon fill="#666666" stroke="#666666" points="186.5,-482.5 186.5,-482.5 421.5,-482.5 421.5,-482.5 186.5,-482.5"/>
<polygon fill="none" stroke="#666666" points="171.5,-340 171.5,-635 421.5,-635 421.5,-340 171.5,-340"/>
</a>
</g>
</g>
<!-- Node4&#45;&gt;Node3 -->
<g id="edge3_Node000003_Node000004" class="edge">
<title>Node4&#45;&gt;Node3</title>
<g id="a_edge3_Node000003_Node000004"><a xlink:title=" ">
<path fill="none" stroke="#63b8ff" d="M296.5,-329.58C296.5,-320.04 296.5,-311.35 296.5,-304.04"/>
<polygon fill="none" stroke="#63b8ff" points="293,-329.81 296.5,-339.81 300,-329.81 293,-329.81"/>
</a>
</g>
</g>
<!-- Node5 -->
<g id="Node000005" class="node">
<title>Node5</title>
<g id="a_Node000005"><a xlink:title=" ">
<polygon fill="white" stroke="transparent" points="326,-720 267,-720 267,-671 326,-671 326,-720"/>
<text text-anchor="start" x="272.5" y="-707.5" font-family="Helvetica,sans-Serif" font-size="10.00">Exception</text>
<text text-anchor="start" x="295" y="-692.5" font-family="Helvetica,sans-Serif" font-size="10.00"> </text>
<text text-anchor="start" x="295" y="-677.5" font-family="Helvetica,sans-Serif" font-size="10.00"> </text>
<polygon fill="#666666" stroke="#666666" points="267.5,-702.5 267.5,-702.5 326.5,-702.5 326.5,-702.5 267.5,-702.5"/>
<polygon fill="#666666" stroke="#666666" points="267.5,-687.5 267.5,-687.5 326.5,-687.5 326.5,-687.5 267.5,-687.5"/>
<polygon fill="none" stroke="#666666" points="267,-671 267,-720 326,-720 326,-671 267,-671"/>
</a>
</g>
</g>
<!-- Node5&#45;&gt;Node4 -->
<g id="edge4_Node000004_Node000005" class="edge">
<title>Node5&#45;&gt;Node4</title>
<g id="a_edge4_Node000004_Node000005"><a xlink:title=" ">
<path fill="none" stroke="#63b8ff" d="M296.5,-660.71C296.5,-653.05 296.5,-644.44 296.5,-635.26"/>
<polygon fill="none" stroke="#63b8ff" points="293,-660.87 296.5,-670.87 300,-660.87 293,-660.87"/>
</a>
</g>
</g>
</g>
</svg>
