<?xml version="1.0" encoding="UTF-8" standalone="no"?>
<!DOCTYPE svg PUBLIC "-//W3C//DTD SVG 1.1//EN"
 "http://www.w3.org/Graphics/SVG/1.1/DTD/svg11.dtd">
<!-- Generated by graphviz version 2.43.0 (0)
 -->
<!-- Title: bot.IncomingQueuedMessage Pages: 1 -->
<svg width="182pt" height="276pt"
 viewBox="0.00 0.00 182.00 276.00" xmlns="http://www.w3.org/2000/svg" xmlns:xlink="http://www.w3.org/1999/xlink">

<svg id="main" version="1.1" xmlns="http://www.w3.org/2000/svg" xmlns:xlink="http://www.w3.org/1999/xlink" xml:space="preserve" onload="init(evt)">
<style type="text/css"><![CDATA[
.node, .edge {opacity: 0.7;}
.node.selected, .edge.selected {opacity: 1;}
.edge:hover path { stroke: red; }
.edge:hover polygon { stroke: red; fill: red; }
]]></style>
<script type="application/ecmascript" xlink:href="svg.min.js"/>
<svg id="graph" class="graph">
<g id="graph0" class="graph" transform="scale(1 1) rotate(0) translate(4 272)">
<title>bot.IncomingQueuedMessage</title>
<!-- Node1 -->
<g id="Node000001" class="node">
<title>Node1</title>
<g id="a_Node000001"><a xlink:title=" ">
<polygon fill="#999999" stroke="transparent" points="164.5,-60 9.5,-60 9.5,0 164.5,0 164.5,-60"/>
<text text-anchor="start" x="15" y="-48" font-family="Helvetica,sans-Serif" font-size="10.00">bot.IncomingQueuedMessage</text>
<text text-anchor="start" x="85.5" y="-33" font-family="Helvetica,sans-Serif" font-size="10.00"> </text>
<text text-anchor="start" x="16" y="-18" font-family="Helvetica,sans-Serif" font-size="10.00">+</text>
<text text-anchor="start" x="31" y="-18" font-family="Helvetica,sans-Serif" font-size="10.00">__init__(self, message,</text>
<text text-anchor="start" x="31" y="-7" font-family="Helvetica,sans-Serif" font-size="10.00"> int max_store_retries=3)</text>
<polygon fill="#666666" stroke="#666666" points="10,-43 10,-43 165,-43 165,-43 10,-43"/>
<polygon fill="#666666" stroke="#666666" points="10,-28 10,-28 165,-28 165,-28 10,-28"/>
<polygon fill="none" stroke="#666666" points="9.5,0 9.5,-60 164.5,-60 164.5,0 9.5,0"/>
</a>
</g>
</g>
<!-- Node2 -->
<g id="Node000002" class="node">
<title>Node2</title>
<g id="a_Node000002"><a xlink:href="classbot_1_1QueuedMessage.html" target="_top" xlink:title=" ">
<polygon fill="white" stroke="transparent" points="174,-268 0,-268 0,-96 174,-96 174,-268"/>
<text text-anchor="start" x="37" y="-256" font-family="Helvetica,sans-Serif" font-size="10.00">bot.QueuedMessage</text>
<text text-anchor="start" x="4" y="-241" font-family="Helvetica,sans-Serif" font-size="10.00">+</text>
<text text-anchor="start" x="17" y="-241" font-family="Helvetica,sans-Serif" font-size="10.00">event</text>
<text text-anchor="start" x="4" y="-226" font-family="Helvetica,sans-Serif" font-size="10.00">+</text>
<text text-anchor="start" x="17" y="-226" font-family="Helvetica,sans-Serif" font-size="10.00">message</text>
<text text-anchor="start" x="4" y="-211" font-family="Helvetica,sans-Serif" font-size="10.00">+</text>
<text text-anchor="start" x="17" y="-211" font-family="Helvetica,sans-Serif" font-size="10.00">result</text>
<text text-anchor="start" x="4" y="-196" font-family="Helvetica,sans-Serif" font-size="10.00">+</text>
<text text-anchor="start" x="17" y="-196" font-family="Helvetica,sans-Serif" font-size="10.00">store_retries</text>
<text text-anchor="start" x="4" y="-181" font-family="Helvetica,sans-Serif" font-size="10.00">+</text>
<text text-anchor="start" x="17" y="-181" font-family="Helvetica,sans-Serif" font-size="10.00">stored_ok</text>
<text text-anchor="start" x="4" y="-166" font-family="Helvetica,sans-Serif" font-size="10.00">+</text>
<text text-anchor="start" x="17" y="-166" font-family="Helvetica,sans-Serif" font-size="10.00">__init__(self, message,</text>
<text text-anchor="start" x="17" y="-155" font-family="Helvetica,sans-Serif" font-size="10.00"> int max_store_retries=3)</text>
<text text-anchor="start" x="4" y="-140" font-family="Helvetica,sans-Serif" font-size="10.00">+</text>
<text text-anchor="start" x="17" y="-140" font-family="Helvetica,sans-Serif" font-size="10.00">set_result(self, bool</text>
<text text-anchor="start" x="17" y="-129" font-family="Helvetica,sans-Serif" font-size="10.00"> result)</text>
<text text-anchor="start" x="4" y="-114" font-family="Helvetica,sans-Serif" font-size="10.00">+</text>
<text text-anchor="start" x="17" y="-114" font-family="Helvetica,sans-Serif" font-size="10.00">wait_result(self,</text>
<text text-anchor="start" x="17" y="-103" font-family="Helvetica,sans-Serif" font-size="10.00"> Optional[float] timeout=None)</text>
<polygon fill="#666666" stroke="#666666" points="0,-251 0,-251 174,-251 174,-251 0,-251"/>
<polygon fill="#666666" stroke="#666666" points="0,-176 0,-176 15,-176 15,-176 0,-176"/>
<polygon fill="#666666" stroke="#666666" points="15,-176 15,-176 174,-176 174,-176 15,-176"/>
<polygon fill="none" stroke="#666666" points="0,-96 0,-268 174,-268 174,-96 0,-96"/>
</a>
</g>
</g>
<!-- Node2&#45;&gt;Node1 -->
<g id="edge1_Node000001_Node000002" class="edge">
<title>Node2&#45;&gt;Node1</title>
<g id="a_edge1_Node000001_Node000002"><a xlink:title=" ">
<path fill="none" stroke="#63b8ff" d="M87,-85.81C87,-76.63 87,-67.88 87,-60.18"/>
<polygon fill="none" stroke="#63b8ff" points="83.5,-85.92 87,-95.92 90.5,-85.92 83.5,-85.92"/>
</a>
</g>
</g>
</g>
</svg>
</svg>

<style type='text/css'>
<![CDATA[
[data-mouse-over-selected='false'] { opacity: 0.7; }
[data-mouse-over-selected='true']  { opacity: 1.0; }
]]>
</style>
<script type="application/ecmascript"><![CDATA[
document.addEventListener('DOMContentLoaded', (event) => {
  highlightEdges();
  highlightAdjacentNodes();
});
]]></script>
</svg>
