<?xml version="1.0" encoding="UTF-8" standalone="no"?>
<!DOCTYPE svg PUBLIC "-//W3C//DTD SVG 1.1//EN"
 "http://www.w3.org/Graphics/SVG/1.1/DTD/svg11.dtd">
<!-- Generated by graphviz version 2.43.0 (0)
 -->
<!-- Title: env.EnvironmentMissingRequiredVariableException Pages: 1 -->
<svg width="188pt" height="491pt"
 viewBox="0.00 0.00 188.00 491.00" xmlns="http://www.w3.org/2000/svg" xmlns:xlink="http://www.w3.org/1999/xlink">
<g id="graph0" class="graph" transform="scale(1 1) rotate(0) translate(4 487)">
<title>env.EnvironmentMissingRequiredVariableException</title>
<!-- Node1 -->
<g id="node1" class="node">
<title>Node1</title>
<g id="a_node1"><a xlink:title=" ">
<polygon fill="#bfbfbf" stroke="black" points="0,-0.5 0,-68.5 180,-68.5 180,-0.5 0,-0.5"/>
<text text-anchor="start" x="8" y="-56.5" font-family="Helvetica,sans-Serif" font-size="10.00">env.EnvironmentMissingRequired</text>
<text text-anchor="middle" x="90" y="-45.5" font-family="Helvetica,sans-Serif" font-size="10.00">VariableException</text>
<polyline fill="none" stroke="black" points="0,-38.5 180,-38.5 "/>
<text text-anchor="middle" x="90" y="-26.5" font-family="Helvetica,sans-Serif" font-size="10.00"> </text>
<polyline fill="none" stroke="black" points="0,-19.5 180,-19.5 "/>
<text text-anchor="middle" x="90" y="-7.5" font-family="Helvetica,sans-Serif" font-size="10.00"> </text>
</a>
</g>
</g>
<!-- Node2 -->
<g id="node2" class="node">
<title>Node2</title>
<g id="a_node2"><a xlink:href="classenv_1_1EnvironmentException.html" target="_top" xlink:title=" ">
<polygon fill="none" stroke="black" points="16.5,-105.5 16.5,-162.5 163.5,-162.5 163.5,-105.5 16.5,-105.5"/>
<text text-anchor="middle" x="90" y="-150.5" font-family="Helvetica,sans-Serif" font-size="10.00">env.EnvironmentException</text>
<polyline fill="none" stroke="black" points="16.5,-143.5 163.5,-143.5 "/>
<text text-anchor="middle" x="90" y="-131.5" font-family="Helvetica,sans-Serif" font-size="10.00"> </text>
<polyline fill="none" stroke="black" points="16.5,-124.5 163.5,-124.5 "/>
<text text-anchor="middle" x="90" y="-112.5" font-family="Helvetica,sans-Serif" font-size="10.00"> </text>
</a>
</g>
</g>
<!-- Node2&#45;&gt;Node1 -->
<g id="edge1" class="edge">
<title>Node2&#45;&gt;Node1</title>
<path fill="none" stroke="midnightblue" d="M90,-95.06C90,-86.39 90,-77.24 90,-68.79"/>
<polygon fill="none" stroke="midnightblue" points="86.5,-95.32 90,-105.32 93.5,-95.32 86.5,-95.32"/>
</g>
<!-- Node3 -->
<g id="node3" class="node">
<title>Node3</title>
<g id="a_node3"><a xlink:href="classexception_1_1ChatbotException.html" target="_top" xlink:title=" ">
<polygon fill="none" stroke="black" points="13,-199.5 13,-388.5 167,-388.5 167,-199.5 13,-199.5"/>
<text text-anchor="middle" x="90" y="-376.5" font-family="Helvetica,sans-Serif" font-size="10.00">exception.ChatbotException</text>
<polyline fill="none" stroke="black" points="13,-369.5 167,-369.5 "/>
<text text-anchor="start" x="21" y="-357.5" font-family="Helvetica,sans-Serif" font-size="10.00">+ cause</text>
<text text-anchor="start" x="21" y="-346.5" font-family="Helvetica,sans-Serif" font-size="10.00">+ code</text>
<text text-anchor="start" x="21" y="-335.5" font-family="Helvetica,sans-Serif" font-size="10.00">+ filename</text>
<text text-anchor="start" x="21" y="-324.5" font-family="Helvetica,sans-Serif" font-size="10.00">+ lineno</text>
<text text-anchor="start" x="21" y="-313.5" font-family="Helvetica,sans-Serif" font-size="10.00">+ message</text>
<text text-anchor="start" x="21" y="-302.5" font-family="Helvetica,sans-Serif" font-size="10.00">+ severity</text>
<text text-anchor="start" x="21" y="-291.5" font-family="Helvetica,sans-Serif" font-size="10.00">+ traceback</text>
<text text-anchor="start" x="21" y="-280.5" font-family="Helvetica,sans-Serif" font-size="10.00">+ type</text>
<text text-anchor="start" x="21" y="-269.5" font-family="Helvetica,sans-Serif" font-size="10.00">+ SEVERITY_TO_LOGGING</text>
<polyline fill="none" stroke="black" points="13,-262.5 167,-262.5 "/>
<text text-anchor="start" x="21" y="-250.5" font-family="Helvetica,sans-Serif" font-size="10.00">+ __init__()</text>
<text text-anchor="start" x="21" y="-239.5" font-family="Helvetica,sans-Serif" font-size="10.00">+ __repr__()</text>
<text text-anchor="start" x="21" y="-228.5" font-family="Helvetica,sans-Serif" font-size="10.00">+ __str__()</text>
<text text-anchor="start" x="21" y="-217.5" font-family="Helvetica,sans-Serif" font-size="10.00">+ to_dict()</text>
<text text-anchor="start" x="21" y="-206.5" font-family="Helvetica,sans-Serif" font-size="10.00">+ to_json()</text>
</a>
</g>
</g>
<!-- Node3&#45;&gt;Node2 -->
<g id="edge2" class="edge">
<title>Node3&#45;&gt;Node2</title>
<path fill="none" stroke="midnightblue" d="M90,-189.13C90,-179.56 90,-170.54 90,-162.7"/>
<polygon fill="none" stroke="midnightblue" points="86.5,-189.26 90,-199.26 93.5,-189.26 86.5,-189.26"/>
</g>
<!-- Node4 -->
<g id="node4" class="node">
<title>Node4</title>
<g id="a_node4"><a xlink:title=" ">
<polygon fill="none" stroke="#bfbfbf" points="57.5,-425.5 57.5,-482.5 122.5,-482.5 122.5,-425.5 57.5,-425.5"/>
<text text-anchor="middle" x="90" y="-470.5" font-family="Helvetica,sans-Serif" font-size="10.00">Exception</text>
<polyline fill="none" stroke="#bfbfbf" points="57.5,-463.5 122.5,-463.5 "/>
<text text-anchor="middle" x="90" y="-451.5" font-family="Helvetica,sans-Serif" font-size="10.00"> </text>
<polyline fill="none" stroke="#bfbfbf" points="57.5,-444.5 122.5,-444.5 "/>
<text text-anchor="middle" x="90" y="-432.5" font-family="Helvetica,sans-Serif" font-size="10.00"> </text>
</a>
</g>
</g>
<!-- Node4&#45;&gt;Node3 -->
<g id="edge3" class="edge">
<title>Node4&#45;&gt;Node3</title>
<path fill="none" stroke="midnightblue" d="M90,-415.22C90,-407.01 90,-397.99 90,-388.68"/>
<polygon fill="none" stroke="midnightblue" points="86.5,-415.48 90,-425.48 93.5,-415.48 86.5,-415.48"/>
</g>
</g>
</svg>
