<?xml version="1.0" encoding="UTF-8" standalone="no"?>
<!DOCTYPE svg PUBLIC "-//W3C//DTD SVG 1.1//EN"
 "http://www.w3.org/Graphics/SVG/1.1/DTD/svg11.dtd">
<!-- Generated by graphviz version 2.43.0 (0)
 -->
<!-- Title: logger.Logger.logger_put Pages: 1 -->
<svg width="305pt" height="175pt"
 viewBox="0.00 0.00 305.00 175.00" xmlns="http://www.w3.org/2000/svg" xmlns:xlink="http://www.w3.org/1999/xlink">
<g id="graph0" class="graph" transform="scale(1 1) rotate(0) translate(4 171)">
<title>logger.Logger.logger_put</title>
<!-- Node1 -->
<g id="Node000001" class="node">
<title>Node1</title>
<g id="a_Node000001"><a xlink:title=" ">
<polygon fill="#999999" stroke="#666666" points="297,-93 160,-93 160,-74 297,-74 297,-93"/>
<text text-anchor="middle" x="228.5" y="-81" font-family="Helvetica,sans-Serif" font-size="10.00">logger.Logger.logger_put</text>
</a>
</g>
</g>
<!-- Node2 -->
<g id="Node000002" class="node">
<title>Node2</title>
<g id="a_Node000002"><a xlink:href="classlogger_1_1Logger.html#af7cf7a2c19b61d6b659c840eee66caac" target="_top" xlink:title=" ">
<polygon fill="white" stroke="#666666" points="121,-167 3,-167 3,-148 121,-148 121,-167"/>
<text text-anchor="middle" x="62" y="-155" font-family="Helvetica,sans-Serif" font-size="10.00">logger.Logger.critical</text>
</a>
</g>
</g>
<!-- Node1&#45;&gt;Node2 -->
<g id="edge1_Node000001_Node000002" class="edge">
<title>Node1&#45;&gt;Node2</title>
<g id="a_edge1_Node000001_Node000002"><a xlink:title=" ">
<path fill="none" stroke="#63b8ff" d="M203.54,-98.33C183,-110.59 152.33,-127.81 124,-139.5 116.35,-142.66 107.94,-145.51 99.88,-147.97"/>
<polygon fill="#63b8ff" stroke="#63b8ff" points="205.47,-101.26 212.22,-93.09 201.85,-95.27 205.47,-101.26"/>
</a>
</g>
</g>
<!-- Node3 -->
<g id="Node000003" class="node">
<title>Node3</title>
<g id="a_Node000003"><a xlink:href="classlogger_1_1Logger.html#a74771dbdd48ca4e3a7b7e592b525bb82" target="_top" xlink:title=" ">
<polygon fill="white" stroke="#666666" points="119.5,-130 4.5,-130 4.5,-111 119.5,-111 119.5,-130"/>
<text text-anchor="middle" x="62" y="-118" font-family="Helvetica,sans-Serif" font-size="10.00">logger.Logger.debug</text>
</a>
</g>
</g>
<!-- Node1&#45;&gt;Node3 -->
<g id="edge2_Node000001_Node000003" class="edge">
<title>Node1&#45;&gt;Node3</title>
<g id="a_edge2_Node000001_Node000003"><a xlink:title=" ">
<path fill="none" stroke="#63b8ff" d="M175.09,-95.29C152.63,-100.34 126.74,-106.16 105.5,-110.94"/>
<polygon fill="#63b8ff" stroke="#63b8ff" points="176.15,-98.64 185.14,-93.03 174.61,-91.81 176.15,-98.64"/>
</a>
</g>
</g>
<!-- Node4 -->
<g id="Node000004" class="node">
<title>Node4</title>
<g id="a_Node000004"><a xlink:href="classlogger_1_1Logger.html#ace87ecc0eedff03aa9859b417e1945dd" target="_top" xlink:title=" ">
<polygon fill="white" stroke="#666666" points="116,-93 8,-93 8,-74 116,-74 116,-93"/>
<text text-anchor="middle" x="62" y="-81" font-family="Helvetica,sans-Serif" font-size="10.00">logger.Logger.error</text>
</a>
</g>
</g>
<!-- Node1&#45;&gt;Node4 -->
<g id="edge3_Node000001_Node000004" class="edge">
<title>Node1&#45;&gt;Node4</title>
<g id="a_edge3_Node000001_Node000004"><a xlink:title=" ">
<path fill="none" stroke="#63b8ff" d="M149.36,-83.5C138.1,-83.5 126.75,-83.5 116.13,-83.5"/>
<polygon fill="#63b8ff" stroke="#63b8ff" points="149.64,-87 159.64,-83.5 149.64,-80 149.64,-87"/>
</a>
</g>
</g>
<!-- Node5 -->
<g id="Node000005" class="node">
<title>Node5</title>
<g id="a_Node000005"><a xlink:href="classlogger_1_1Logger.html#a7b5050e78749b23f4a6a2996e14d4a22" target="_top" xlink:title=" ">
<polygon fill="white" stroke="#666666" points="114,-56 10,-56 10,-37 114,-37 114,-56"/>
<text text-anchor="middle" x="62" y="-44" font-family="Helvetica,sans-Serif" font-size="10.00">logger.Logger.info</text>
</a>
</g>
</g>
<!-- Node1&#45;&gt;Node5 -->
<g id="edge4_Node000001_Node000005" class="edge">
<title>Node1&#45;&gt;Node5</title>
<g id="a_edge4_Node000001_Node000005"><a xlink:title=" ">
<path fill="none" stroke="#63b8ff" d="M175.09,-71.71C152.63,-66.66 126.74,-60.84 105.5,-56.06"/>
<polygon fill="#63b8ff" stroke="#63b8ff" points="174.61,-75.19 185.14,-73.97 176.15,-68.36 174.61,-75.19"/>
</a>
</g>
</g>
<!-- Node6 -->
<g id="Node000006" class="node">
<title>Node6</title>
<g id="a_Node000006"><a xlink:href="classlogger_1_1Logger.html#aafd655f7337511498427cf1473234159" target="_top" xlink:title=" ">
<polygon fill="white" stroke="#666666" points="124,-19 0,-19 0,0 124,0 124,-19"/>
<text text-anchor="middle" x="62" y="-7" font-family="Helvetica,sans-Serif" font-size="10.00">logger.Logger.warning</text>
</a>
</g>
</g>
<!-- Node1&#45;&gt;Node6 -->
<g id="edge5_Node000001_Node000006" class="edge">
<title>Node1&#45;&gt;Node6</title>
<g id="a_edge5_Node000001_Node000006"><a xlink:title=" ">
<path fill="none" stroke="#63b8ff" d="M203.1,-68.86C182.52,-56.92 152.01,-40.18 124,-28.5 115.61,-25 106.33,-21.79 97.6,-19.05"/>
<polygon fill="#63b8ff" stroke="#63b8ff" points="201.42,-71.93 211.82,-73.97 204.96,-65.9 201.42,-71.93"/>
</a>
</g>
</g>
</g>
</svg>
