<?xml version="1.0" encoding="UTF-8" standalone="no"?>
<!DOCTYPE svg PUBLIC "-//W3C//DTD SVG 1.1//EN"
 "http://www.w3.org/Graphics/SVG/1.1/DTD/svg11.dtd">
<!-- Generated by graphviz version 2.43.0 (0)
 -->
<!-- Title: configurator.ConfigurationHTTPRequestMethodExcpetion Pages: 1 -->
<svg width="175pt" height="502pt"
 viewBox="0.00 0.00 175.00 502.00" xmlns="http://www.w3.org/2000/svg" xmlns:xlink="http://www.w3.org/1999/xlink">
<g id="graph0" class="graph" transform="scale(1 1) rotate(0) translate(4 498)">
<title>configurator.ConfigurationHTTPRequestMethodExcpetion</title>
<!-- Node1 -->
<g id="node1" class="node">
<title>Node1</title>
<g id="a_node1"><a xlink:title=" ">
<polygon fill="#bfbfbf" stroke="black" points="0,-0.5 0,-68.5 167,-68.5 167,-0.5 0,-0.5"/>
<text text-anchor="start" x="8" y="-56.5" font-family="Helvetica,sans-Serif" font-size="10.00">configurator.Configuration</text>
<text text-anchor="middle" x="83.5" y="-45.5" font-family="Helvetica,sans-Serif" font-size="10.00">HTTPRequestMethodExcpetion</text>
<polyline fill="none" stroke="black" points="0,-38.5 167,-38.5 "/>
<text text-anchor="middle" x="83.5" y="-26.5" font-family="Helvetica,sans-Serif" font-size="10.00"> </text>
<polyline fill="none" stroke="black" points="0,-19.5 167,-19.5 "/>
<text text-anchor="middle" x="83.5" y="-7.5" font-family="Helvetica,sans-Serif" font-size="10.00"> </text>
</a>
</g>
</g>
<!-- Node2 -->
<g id="node2" class="node">
<title>Node2</title>
<g id="a_node2"><a xlink:href="classconfigurator_1_1ConfigurationException.html" target="_top" xlink:title=" ">
<polygon fill="none" stroke="black" points="11,-105.5 11,-173.5 156,-173.5 156,-105.5 11,-105.5"/>
<text text-anchor="start" x="19" y="-161.5" font-family="Helvetica,sans-Serif" font-size="10.00">configurator.Configuration</text>
<text text-anchor="middle" x="83.5" y="-150.5" font-family="Helvetica,sans-Serif" font-size="10.00">Exception</text>
<polyline fill="none" stroke="black" points="11,-143.5 156,-143.5 "/>
<text text-anchor="middle" x="83.5" y="-131.5" font-family="Helvetica,sans-Serif" font-size="10.00"> </text>
<polyline fill="none" stroke="black" points="11,-124.5 156,-124.5 "/>
<text text-anchor="middle" x="83.5" y="-112.5" font-family="Helvetica,sans-Serif" font-size="10.00"> </text>
</a>
</g>
</g>
<!-- Node2&#45;&gt;Node1 -->
<g id="edge1" class="edge">
<title>Node2&#45;&gt;Node1</title>
<path fill="none" stroke="midnightblue" d="M83.5,-95.14C83.5,-86.26 83.5,-77.04 83.5,-68.59"/>
<polygon fill="none" stroke="midnightblue" points="80,-95.34 83.5,-105.34 87,-95.34 80,-95.34"/>
</g>
<!-- Node3 -->
<g id="node3" class="node">
<title>Node3</title>
<g id="a_node3"><a xlink:href="classexception_1_1ChatbotException.html" target="_top" xlink:title=" ">
<polygon fill="none" stroke="black" points="6.5,-210.5 6.5,-399.5 160.5,-399.5 160.5,-210.5 6.5,-210.5"/>
<text text-anchor="middle" x="83.5" y="-387.5" font-family="Helvetica,sans-Serif" font-size="10.00">exception.ChatbotException</text>
<polyline fill="none" stroke="black" points="6.5,-380.5 160.5,-380.5 "/>
<text text-anchor="start" x="14.5" y="-368.5" font-family="Helvetica,sans-Serif" font-size="10.00">+ cause</text>
<text text-anchor="start" x="14.5" y="-357.5" font-family="Helvetica,sans-Serif" font-size="10.00">+ code</text>
<text text-anchor="start" x="14.5" y="-346.5" font-family="Helvetica,sans-Serif" font-size="10.00">+ filename</text>
<text text-anchor="start" x="14.5" y="-335.5" font-family="Helvetica,sans-Serif" font-size="10.00">+ lineno</text>
<text text-anchor="start" x="14.5" y="-324.5" font-family="Helvetica,sans-Serif" font-size="10.00">+ message</text>
<text text-anchor="start" x="14.5" y="-313.5" font-family="Helvetica,sans-Serif" font-size="10.00">+ severity</text>
<text text-anchor="start" x="14.5" y="-302.5" font-family="Helvetica,sans-Serif" font-size="10.00">+ traceback</text>
<text text-anchor="start" x="14.5" y="-291.5" font-family="Helvetica,sans-Serif" font-size="10.00">+ type</text>
<text text-anchor="start" x="14.5" y="-280.5" font-family="Helvetica,sans-Serif" font-size="10.00">+ SEVERITY_TO_LOGGING</text>
<polyline fill="none" stroke="black" points="6.5,-273.5 160.5,-273.5 "/>
<text text-anchor="start" x="14.5" y="-261.5" font-family="Helvetica,sans-Serif" font-size="10.00">+ __init__()</text>
<text text-anchor="start" x="14.5" y="-250.5" font-family="Helvetica,sans-Serif" font-size="10.00">+ __repr__()</text>
<text text-anchor="start" x="14.5" y="-239.5" font-family="Helvetica,sans-Serif" font-size="10.00">+ __str__()</text>
<text text-anchor="start" x="14.5" y="-228.5" font-family="Helvetica,sans-Serif" font-size="10.00">+ to_dict()</text>
<text text-anchor="start" x="14.5" y="-217.5" font-family="Helvetica,sans-Serif" font-size="10.00">+ to_json()</text>
</a>
</g>
</g>
<!-- Node3&#45;&gt;Node2 -->
<g id="edge2" class="edge">
<title>Node3&#45;&gt;Node2</title>
<path fill="none" stroke="midnightblue" d="M83.5,-200.27C83.5,-190.75 83.5,-181.67 83.5,-173.58"/>
<polygon fill="none" stroke="midnightblue" points="80,-200.31 83.5,-210.31 87,-200.31 80,-200.31"/>
</g>
<!-- Node4 -->
<g id="node4" class="node">
<title>Node4</title>
<g id="a_node4"><a xlink:title=" ">
<polygon fill="none" stroke="#bfbfbf" points="51,-436.5 51,-493.5 116,-493.5 116,-436.5 51,-436.5"/>
<text text-anchor="middle" x="83.5" y="-481.5" font-family="Helvetica,sans-Serif" font-size="10.00">Exception</text>
<polyline fill="none" stroke="#bfbfbf" points="51,-474.5 116,-474.5 "/>
<text text-anchor="middle" x="83.5" y="-462.5" font-family="Helvetica,sans-Serif" font-size="10.00"> </text>
<polyline fill="none" stroke="#bfbfbf" points="51,-455.5 116,-455.5 "/>
<text text-anchor="middle" x="83.5" y="-443.5" font-family="Helvetica,sans-Serif" font-size="10.00"> </text>
</a>
</g>
</g>
<!-- Node4&#45;&gt;Node3 -->
<g id="edge3" class="edge">
<title>Node4&#45;&gt;Node3</title>
<path fill="none" stroke="midnightblue" d="M83.5,-426.22C83.5,-418.01 83.5,-408.99 83.5,-399.68"/>
<polygon fill="none" stroke="midnightblue" points="80,-426.48 83.5,-436.48 87,-426.48 80,-426.48"/>
</g>
</g>
</svg>
