<?xml version="1.0" encoding="UTF-8" standalone="no"?>
<!DOCTYPE svg PUBLIC "-//W3C//DTD SVG 1.1//EN"
 "http://www.w3.org/Graphics/SVG/1.1/DTD/svg11.dtd">
<!-- Generated by graphviz version 2.43.0 (0)
 -->
<!-- Title: logger.Logger Pages: 1 -->
<svg width="285pt" height="718pt"
 viewBox="0.00 0.00 285.00 718.00" xmlns="http://www.w3.org/2000/svg" xmlns:xlink="http://www.w3.org/1999/xlink">
<g id="graph0" class="graph" transform="scale(1 1) rotate(0) translate(4 714)">
<title>logger.Logger</title>
<!-- Node1 -->
<g id="Node000001" class="node">
<title>Node1</title>
<g id="a_Node000001"><a xlink:title=" ">
<polygon fill="#999999" stroke="transparent" points="277,-614 0,-614 0,0 277,0 277,-614"/>
<text text-anchor="start" x="105.5" y="-602" font-family="Helvetica,sans-Serif" font-size="10.00">logger.Logger</text>
<text text-anchor="start" x="4.5" y="-587" font-family="Helvetica,sans-Serif" font-size="10.00">+</text>
<text text-anchor="start" x="17.5" y="-587" font-family="Helvetica,sans-Serif" font-size="10.00">enable_file_handler</text>
<text text-anchor="start" x="4.5" y="-572" font-family="Helvetica,sans-Serif" font-size="10.00">+</text>
<text text-anchor="start" x="17.5" y="-572" font-family="Helvetica,sans-Serif" font-size="10.00">enable_stream_handler</text>
<text text-anchor="start" x="4.5" y="-557" font-family="Helvetica,sans-Serif" font-size="10.00">+</text>
<text text-anchor="start" x="17.5" y="-557" font-family="Helvetica,sans-Serif" font-size="10.00">enable_syslog_handler</text>
<text text-anchor="start" x="4.5" y="-542" font-family="Helvetica,sans-Serif" font-size="10.00">+</text>
<text text-anchor="start" x="17.5" y="-542" font-family="Helvetica,sans-Serif" font-size="10.00">file_handler</text>
<text text-anchor="start" x="4.5" y="-527" font-family="Helvetica,sans-Serif" font-size="10.00">+</text>
<text text-anchor="start" x="17.5" y="-527" font-family="Helvetica,sans-Serif" font-size="10.00">stream_handler</text>
<text text-anchor="start" x="4.5" y="-512" font-family="Helvetica,sans-Serif" font-size="10.00">+</text>
<text text-anchor="start" x="17.5" y="-512" font-family="Helvetica,sans-Serif" font-size="10.00">syslog_handler</text>
<text text-anchor="start" x="4.5" y="-497" font-family="Helvetica,sans-Serif" font-size="10.00">+</text>
<text text-anchor="start" x="17.5" y="-497" font-family="Helvetica,sans-Serif" font-size="10.00">dict log_level_map</text>
<text text-anchor="start" x="4.5" y="-482" font-family="Helvetica,sans-Serif" font-size="10.00">+</text>
<text text-anchor="start" x="17.5" y="-482" font-family="Helvetica,sans-Serif" font-size="10.00">logger_queue</text>
<text text-anchor="start" x="4.5" y="-467" font-family="Helvetica,sans-Serif" font-size="10.00">+</text>
<text text-anchor="start" x="17.5" y="-467" font-family="Helvetica,sans-Serif" font-size="10.00">logger_stop_event</text>
<text text-anchor="start" x="4.5" y="-452" font-family="Helvetica,sans-Serif" font-size="10.00">#</text>
<text text-anchor="start" x="17.5" y="-452" font-family="Helvetica,sans-Serif" font-size="10.00">_configured</text>
<text text-anchor="start" x="4.5" y="-437" font-family="Helvetica,sans-Serif" font-size="10.00">+</text>
<text text-anchor="start" x="17.5" y="-437" font-family="Helvetica,sans-Serif" font-size="10.00">__init__(self, name,</text>
<text text-anchor="start" x="17.5" y="-426" font-family="Helvetica,sans-Serif" font-size="10.00"> bool enable_file_handler</text>
<text text-anchor="start" x="17.5" y="-415" font-family="Helvetica,sans-Serif" font-size="10.00">=True, bool enable_stream</text>
<text text-anchor="start" x="17.5" y="-404" font-family="Helvetica,sans-Serif" font-size="10.00">_handler=False, bool enable</text>
<text text-anchor="start" x="17.5" y="-393" font-family="Helvetica,sans-Serif" font-size="10.00">_syslog_handler=False)</text>
<text text-anchor="start" x="4.5" y="-378" font-family="Helvetica,sans-Serif" font-size="10.00">+</text>
<text text-anchor="start" x="17.5" y="-378" font-family="Helvetica,sans-Serif" font-size="10.00">config(self, Optional</text>
<text text-anchor="start" x="17.5" y="-367" font-family="Helvetica,sans-Serif" font-size="10.00">[str] log_dir=None, Optional</text>
<text text-anchor="start" x="17.5" y="-356" font-family="Helvetica,sans-Serif" font-size="10.00">[str] log_filename=None, Optional</text>
<text text-anchor="start" x="17.5" y="-345" font-family="Helvetica,sans-Serif" font-size="10.00">[Union[str, int]] min_level=None,</text>
<text text-anchor="start" x="17.5" y="-334" font-family="Helvetica,sans-Serif" font-size="10.00"> Optional[int] max_files=None, Optional</text>
<text text-anchor="start" x="17.5" y="-323" font-family="Helvetica,sans-Serif" font-size="10.00">[int] max_size=None, Optional[str] encoding=None)</text>
<text text-anchor="start" x="4.5" y="-308" font-family="Helvetica,sans-Serif" font-size="10.00">+</text>
<text text-anchor="start" x="17.5" y="-308" font-family="Helvetica,sans-Serif" font-size="10.00">critical(self, msg,</text>
<text text-anchor="start" x="17.5" y="-297" font-family="Helvetica,sans-Serif" font-size="10.00"> *args, **kwargs)</text>
<text text-anchor="start" x="4.5" y="-282" font-family="Helvetica,sans-Serif" font-size="10.00">+</text>
<text text-anchor="start" x="17.5" y="-282" font-family="Helvetica,sans-Serif" font-size="10.00">debug(self, msg, *args,</text>
<text text-anchor="start" x="17.5" y="-271" font-family="Helvetica,sans-Serif" font-size="10.00"> **kwargs)</text>
<text text-anchor="start" x="4.5" y="-256" font-family="Helvetica,sans-Serif" font-size="10.00">+</text>
<text text-anchor="start" x="17.5" y="-256" font-family="Helvetica,sans-Serif" font-size="10.00">error(self, msg, *args,</text>
<text text-anchor="start" x="17.5" y="-245" font-family="Helvetica,sans-Serif" font-size="10.00"> **kwargs)</text>
<text text-anchor="start" x="4.5" y="-230" font-family="Helvetica,sans-Serif" font-size="10.00">+</text>
<text text-anchor="start" x="17.5" y="-230" font-family="Helvetica,sans-Serif" font-size="10.00">format_msg(func)</text>
<text text-anchor="start" x="4.5" y="-215" font-family="Helvetica,sans-Serif" font-size="10.00">+</text>
<text text-anchor="start" x="17.5" y="-215" font-family="Helvetica,sans-Serif" font-size="10.00">info(self, msg, *args,</text>
<text text-anchor="start" x="17.5" y="-204" font-family="Helvetica,sans-Serif" font-size="10.00"> **kwargs)</text>
<text text-anchor="start" x="4.5" y="-189" font-family="Helvetica,sans-Serif" font-size="10.00">+</text>
<text text-anchor="start" x="17.5" y="-189" font-family="Helvetica,sans-Serif" font-size="10.00">logger_put(cls, logger,</text>
<text text-anchor="start" x="17.5" y="-178" font-family="Helvetica,sans-Serif" font-size="10.00"> level, msg, *args, **kwargs)</text>
<text text-anchor="start" x="4.5" y="-163" font-family="Helvetica,sans-Serif" font-size="10.00">+</text>
<text text-anchor="start" x="17.5" y="-163" font-family="Helvetica,sans-Serif" font-size="10.00">logger_run(cls)</text>
<text text-anchor="start" x="4.5" y="-148" font-family="Helvetica,sans-Serif" font-size="10.00">+</text>
<text text-anchor="start" x="17.5" y="-148" font-family="Helvetica,sans-Serif" font-size="10.00">shutdown_logger(cls)</text>
<text text-anchor="start" x="4.5" y="-133" font-family="Helvetica,sans-Serif" font-size="10.00">+</text>
<text text-anchor="start" x="17.5" y="-133" font-family="Helvetica,sans-Serif" font-size="10.00">start_logger(cls,</text>
<text text-anchor="start" x="17.5" y="-122" font-family="Helvetica,sans-Serif" font-size="10.00"> str thread_name=&quot;LoggerThread&quot;,</text>
<text text-anchor="start" x="17.5" y="-111" font-family="Helvetica,sans-Serif" font-size="10.00"> bool daemon=True, **thread_kwargs)</text>
<text text-anchor="start" x="4.5" y="-96" font-family="Helvetica,sans-Serif" font-size="10.00">+</text>
<text text-anchor="start" x="17.5" y="-96" font-family="Helvetica,sans-Serif" font-size="10.00">warning(self, msg,</text>
<text text-anchor="start" x="17.5" y="-85" font-family="Helvetica,sans-Serif" font-size="10.00"> *args, **kwargs)</text>
<text text-anchor="start" x="4.5" y="-70" font-family="Helvetica,sans-Serif" font-size="10.00">+</text>
<text text-anchor="start" x="17.5" y="-70" font-family="Helvetica,sans-Serif" font-size="10.00">generate_unique_filename</text>
<text text-anchor="start" x="17.5" y="-59" font-family="Helvetica,sans-Serif" font-size="10.00">(dir, filename)</text>
<text text-anchor="start" x="4.5" y="-44" font-family="Helvetica,sans-Serif" font-size="10.00">+</text>
<text text-anchor="start" x="17.5" y="-44" font-family="Helvetica,sans-Serif" font-size="10.00">get_creator_class</text>
<text text-anchor="start" x="17.5" y="-33" font-family="Helvetica,sans-Serif" font-size="10.00">_name()</text>
<text text-anchor="start" x="4.5" y="-18" font-family="Helvetica,sans-Serif" font-size="10.00">+</text>
<text text-anchor="start" x="17.5" y="-18" font-family="Helvetica,sans-Serif" font-size="10.00">is_valid_encoding</text>
<text text-anchor="start" x="17.5" y="-7" font-family="Helvetica,sans-Serif" font-size="10.00">(str encoding)</text>
<polygon fill="#666666" stroke="#666666" points="0.5,-597 0.5,-597 277.5,-597 277.5,-597 0.5,-597"/>
<polygon fill="#666666" stroke="#666666" points="0.5,-447 0.5,-447 15.5,-447 15.5,-447 0.5,-447"/>
<polygon fill="#666666" stroke="#666666" points="15.5,-447 15.5,-447 277.5,-447 277.5,-447 15.5,-447"/>
<polygon fill="none" stroke="#666666" points="0,0 0,-614 277,-614 277,0 0,0"/>
</a>
</g>
</g>
<!-- Node2 -->
<g id="Node000002" class="node">
<title>Node2</title>
<g id="a_Node000002"><a xlink:title=" ">
<polygon fill="white" stroke="transparent" points="138.5,-710 52.5,-710 52.5,-661 138.5,-661 138.5,-710"/>
<text text-anchor="start" x="57.5" y="-697.5" font-family="Helvetica,sans-Serif" font-size="10.00">logging::Logger</text>
<text text-anchor="start" x="93.5" y="-682.5" font-family="Helvetica,sans-Serif" font-size="10.00"> </text>
<text text-anchor="start" x="93.5" y="-667.5" font-family="Helvetica,sans-Serif" font-size="10.00"> </text>
<polygon fill="#666666" stroke="#666666" points="52.5,-692.5 52.5,-692.5 138.5,-692.5 138.5,-692.5 52.5,-692.5"/>
<polygon fill="#666666" stroke="#666666" points="52.5,-677.5 52.5,-677.5 138.5,-677.5 138.5,-677.5 52.5,-677.5"/>
<polygon fill="none" stroke="#666666" points="52.5,-661 52.5,-710 138.5,-710 138.5,-661 52.5,-661"/>
</a>
</g>
</g>
<!-- Node2&#45;&gt;Node1 -->
<g id="edge1_Node000001_Node000002" class="edge">
<title>Node2&#45;&gt;Node1</title>
<g id="a_edge1_Node000001_Node000002"><a xlink:title=" ">
<path fill="none" stroke="#63b8ff" d="M99.35,-650.83C100.54,-640.4 101.96,-627.94 103.55,-614.06"/>
<polygon fill="none" stroke="#63b8ff" points="95.85,-650.62 98.19,-660.95 102.8,-651.41 95.85,-650.62"/>
</a>
</g>
</g>
<!-- Node3 -->
<g id="Node000003" class="node">
<title>Node3</title>
<g id="a_Node000003"><a xlink:title=" ">
<polygon fill="white" stroke="transparent" points="208.5,-710 156.5,-710 156.5,-661 208.5,-661 208.5,-710"/>
<text text-anchor="start" x="161.5" y="-697.5" font-family="Helvetica,sans-Serif" font-size="10.00">Optional</text>
<text text-anchor="start" x="180.5" y="-682.5" font-family="Helvetica,sans-Serif" font-size="10.00"> </text>
<text text-anchor="start" x="180.5" y="-667.5" font-family="Helvetica,sans-Serif" font-size="10.00"> </text>
<polygon fill="#666666" stroke="#666666" points="156.5,-692.5 156.5,-692.5 208.5,-692.5 208.5,-692.5 156.5,-692.5"/>
<polygon fill="#666666" stroke="#666666" points="156.5,-677.5 156.5,-677.5 208.5,-677.5 208.5,-677.5 156.5,-677.5"/>
<polygon fill="none" stroke="#666666" points="156.5,-661 156.5,-710 208.5,-710 208.5,-661 156.5,-661"/>
</a>
</g>
</g>
<!-- Node3&#45;&gt;Node1 -->
<g id="edge2_Node000001_Node000003" class="edge">
<title>Node3&#45;&gt;Node1</title>
<g id="a_edge2_Node000001_Node000003"><a xlink:title=" ">
<path fill="none" stroke="#63b8ff" d="M179.75,-660.95C178.66,-651.61 177.28,-639.86 175.71,-626.36"/>
<polygon fill="none" stroke="#63b8ff" points="175.66,-625.98 170.99,-620.48 174.27,-614.06 178.94,-619.55 175.66,-625.98"/>
</a>
</g>
<text text-anchor="middle" x="216" y="-635" font-family="Helvetica,sans-Serif" font-size="10.00" fill="grey"> +logger_thread</text>
</g>
</g>
</svg>
