<?xml version="1.0" encoding="UTF-8" standalone="no"?>
<!DOCTYPE svg PUBLIC "-//W3C//DTD SVG 1.1//EN"
 "http://www.w3.org/Graphics/SVG/1.1/DTD/svg11.dtd">
<!-- Generated by graphviz version 2.43.0 (0)
 -->
<!-- Title: bot.Bot Pages: 1 -->
<svg width="401pt" height="700pt"
 viewBox="0.00 0.00 401.00 700.00" xmlns="http://www.w3.org/2000/svg" xmlns:xlink="http://www.w3.org/1999/xlink">
<g id="graph0" class="graph" transform="scale(1 1) rotate(0) translate(4 696)">
<title>bot.Bot</title>
<!-- Node1 -->
<g id="Node000001" class="node">
<title>Node1</title>
<g id="a_Node000001"><a xlink:title=" ">
<polygon fill="#999999" stroke="transparent" points="314,-692 79,-692 79,-122 314,-122 314,-692"/>
<text text-anchor="start" x="179" y="-680" font-family="Helvetica,sans-Serif" font-size="10.00">bot.Bot</text>
<text text-anchor="start" x="83.5" y="-665" font-family="Helvetica,sans-Serif" font-size="10.00">+</text>
<text text-anchor="start" x="96.5" y="-665" font-family="Helvetica,sans-Serif" font-size="10.00">bot_logger</text>
<text text-anchor="start" x="83.5" y="-650" font-family="Helvetica,sans-Serif" font-size="10.00">+</text>
<text text-anchor="start" x="96.5" y="-650" font-family="Helvetica,sans-Serif" font-size="10.00">bot_stop_event</text>
<text text-anchor="start" x="83.5" y="-635" font-family="Helvetica,sans-Serif" font-size="10.00">+</text>
<text text-anchor="start" x="96.5" y="-635" font-family="Helvetica,sans-Serif" font-size="10.00">consumer_in_thread</text>
<text text-anchor="start" x="83.5" y="-620" font-family="Helvetica,sans-Serif" font-size="10.00">+</text>
<text text-anchor="start" x="96.5" y="-620" font-family="Helvetica,sans-Serif" font-size="10.00">consumer_out_thread</text>
<text text-anchor="start" x="83.5" y="-605" font-family="Helvetica,sans-Serif" font-size="10.00">+</text>
<text text-anchor="start" x="96.5" y="-605" font-family="Helvetica,sans-Serif" font-size="10.00">id</text>
<text text-anchor="start" x="83.5" y="-590" font-family="Helvetica,sans-Serif" font-size="10.00">+</text>
<text text-anchor="start" x="96.5" y="-590" font-family="Helvetica,sans-Serif" font-size="10.00">incoming_messages</text>
<text text-anchor="start" x="83.5" y="-575" font-family="Helvetica,sans-Serif" font-size="10.00">+</text>
<text text-anchor="start" x="96.5" y="-575" font-family="Helvetica,sans-Serif" font-size="10.00">on_incoming_message</text>
<text text-anchor="start" x="83.5" y="-560" font-family="Helvetica,sans-Serif" font-size="10.00">+</text>
<text text-anchor="start" x="96.5" y="-560" font-family="Helvetica,sans-Serif" font-size="10.00">on_outgoing_message</text>
<text text-anchor="start" x="83.5" y="-545" font-family="Helvetica,sans-Serif" font-size="10.00">+</text>
<text text-anchor="start" x="96.5" y="-545" font-family="Helvetica,sans-Serif" font-size="10.00">outgoing_messages</text>
<text text-anchor="start" x="83.5" y="-530" font-family="Helvetica,sans-Serif" font-size="10.00">+</text>
<text text-anchor="start" x="96.5" y="-530" font-family="Helvetica,sans-Serif" font-size="10.00">stop</text>
<text text-anchor="start" x="83.5" y="-515" font-family="Helvetica,sans-Serif" font-size="10.00">+</text>
<text text-anchor="start" x="96.5" y="-515" font-family="Helvetica,sans-Serif" font-size="10.00">str send_message_api</text>
<text text-anchor="start" x="83.5" y="-500" font-family="Helvetica,sans-Serif" font-size="10.00">+</text>
<text text-anchor="start" x="96.5" y="-500" font-family="Helvetica,sans-Serif" font-size="10.00">str token</text>
<text text-anchor="start" x="83.5" y="-485" font-family="Helvetica,sans-Serif" font-size="10.00">+</text>
<text text-anchor="start" x="96.5" y="-485" font-family="Helvetica,sans-Serif" font-size="10.00">__del__(self)</text>
<text text-anchor="start" x="83.5" y="-470" font-family="Helvetica,sans-Serif" font-size="10.00">+</text>
<text text-anchor="start" x="96.5" y="-470" font-family="Helvetica,sans-Serif" font-size="10.00">__init__(self, str</text>
<text text-anchor="start" x="96.5" y="-459" font-family="Helvetica,sans-Serif" font-size="10.00"> id, Optional[Callable</text>
<text text-anchor="start" x="96.5" y="-448" font-family="Helvetica,sans-Serif" font-size="10.00">[[Message], bool]] on</text>
<text text-anchor="start" x="96.5" y="-437" font-family="Helvetica,sans-Serif" font-size="10.00">_incoming_message=None,</text>
<text text-anchor="start" x="96.5" y="-426" font-family="Helvetica,sans-Serif" font-size="10.00"> Optional[Callable[[Message]</text>
<text text-anchor="start" x="96.5" y="-415" font-family="Helvetica,sans-Serif" font-size="10.00">, bool]] on_outgoing_message=None)</text>
<text text-anchor="start" x="83.5" y="-400" font-family="Helvetica,sans-Serif" font-size="10.00">+</text>
<text text-anchor="start" x="96.5" y="-400" font-family="Helvetica,sans-Serif" font-size="10.00">bool alive(self)</text>
<text text-anchor="start" x="83.5" y="-385" font-family="Helvetica,sans-Serif" font-size="10.00">+</text>
<text text-anchor="start" x="96.5" y="-385" font-family="Helvetica,sans-Serif" font-size="10.00">consume_incoming_queue</text>
<text text-anchor="start" x="96.5" y="-374" font-family="Helvetica,sans-Serif" font-size="10.00">(self)</text>
<text text-anchor="start" x="83.5" y="-359" font-family="Helvetica,sans-Serif" font-size="10.00">+</text>
<text text-anchor="start" x="96.5" y="-359" font-family="Helvetica,sans-Serif" font-size="10.00">consume_outgoing_queue</text>
<text text-anchor="start" x="96.5" y="-348" font-family="Helvetica,sans-Serif" font-size="10.00">(self)</text>
<text text-anchor="start" x="83.5" y="-333" font-family="Helvetica,sans-Serif" font-size="10.00">+</text>
<text text-anchor="start" x="96.5" y="-333" font-family="Helvetica,sans-Serif" font-size="10.00">deserialize(cls, data)</text>
<text text-anchor="start" x="83.5" y="-318" font-family="Helvetica,sans-Serif" font-size="10.00">+</text>
<text text-anchor="start" x="96.5" y="-318" font-family="Helvetica,sans-Serif" font-size="10.00">bool http_check(self)</text>
<text text-anchor="start" x="83.5" y="-303" font-family="Helvetica,sans-Serif" font-size="10.00">+</text>
<text text-anchor="start" x="96.5" y="-303" font-family="Helvetica,sans-Serif" font-size="10.00">bool is_running(self)</text>
<text text-anchor="start" x="83.5" y="-288" font-family="Helvetica,sans-Serif" font-size="10.00">+</text>
<text text-anchor="start" x="96.5" y="-288" font-family="Helvetica,sans-Serif" font-size="10.00">receive_message(self,</text>
<text text-anchor="start" x="96.5" y="-277" font-family="Helvetica,sans-Serif" font-size="10.00"> str payload, bool wait</text>
<text text-anchor="start" x="96.5" y="-266" font-family="Helvetica,sans-Serif" font-size="10.00">=False)</text>
<text text-anchor="start" x="83.5" y="-251" font-family="Helvetica,sans-Serif" font-size="10.00">+</text>
<text text-anchor="start" x="96.5" y="-251" font-family="Helvetica,sans-Serif" font-size="10.00">Optional[bool] send</text>
<text text-anchor="start" x="96.5" y="-240" font-family="Helvetica,sans-Serif" font-size="10.00">_message(self, str payload,</text>
<text text-anchor="start" x="96.5" y="-229" font-family="Helvetica,sans-Serif" font-size="10.00"> bool wait=False)</text>
<text text-anchor="start" x="83.5" y="-214" font-family="Helvetica,sans-Serif" font-size="10.00">+</text>
<text text-anchor="start" x="96.5" y="-214" font-family="Helvetica,sans-Serif" font-size="10.00">serialize(self, max</text>
<text text-anchor="start" x="96.5" y="-203" font-family="Helvetica,sans-Serif" font-size="10.00">_queue_items=None)</text>
<text text-anchor="start" x="83.5" y="-188" font-family="Helvetica,sans-Serif" font-size="10.00">+</text>
<text text-anchor="start" x="96.5" y="-188" font-family="Helvetica,sans-Serif" font-size="10.00">start(self, str consumer</text>
<text text-anchor="start" x="96.5" y="-177" font-family="Helvetica,sans-Serif" font-size="10.00">_out_thread_name=&quot;BotConsumerOutgoing</text>
<text text-anchor="start" x="96.5" y="-166" font-family="Helvetica,sans-Serif" font-size="10.00">Thread&quot;, str consumer_in_thread</text>
<text text-anchor="start" x="96.5" y="-155" font-family="Helvetica,sans-Serif" font-size="10.00">_name=&quot;BotConsumerIncomingThread&quot;,</text>
<text text-anchor="start" x="96.5" y="-144" font-family="Helvetica,sans-Serif" font-size="10.00"> bool daemon=True, **thread_kwargs)</text>
<text text-anchor="start" x="83.5" y="-129" font-family="Helvetica,sans-Serif" font-size="10.00">+</text>
<text text-anchor="start" x="96.5" y="-129" font-family="Helvetica,sans-Serif" font-size="10.00">stop(self)</text>
<polygon fill="#666666" stroke="#666666" points="79.5,-675 79.5,-675 314.5,-675 314.5,-675 79.5,-675"/>
<polygon fill="#666666" stroke="#666666" points="79.5,-495 79.5,-495 94.5,-495 94.5,-495 79.5,-495"/>
<polygon fill="#666666" stroke="#666666" points="94.5,-495 94.5,-495 314.5,-495 314.5,-495 94.5,-495"/>
<polygon fill="none" stroke="#666666" points="79,-122 79,-692 314,-692 314,-122 79,-122"/>
</a>
</g>
</g>
<!-- Node2 -->
<g id="Node000002" class="node">
<title>Node2</title>
<g id="a_Node000002"><a xlink:href="classbot_1_1FacebookBot.html" target="_top" xlink:title=" ">
<polygon fill="white" stroke="transparent" points="119,-86 0,-86 0,0 119,0 119,-86"/>
<text text-anchor="start" x="19" y="-74" font-family="Helvetica,sans-Serif" font-size="10.00">bot.FacebookBot</text>
<text text-anchor="start" x="58" y="-59" font-family="Helvetica,sans-Serif" font-size="10.00"> </text>
<text text-anchor="start" x="4.5" y="-44" font-family="Helvetica,sans-Serif" font-size="10.00">+</text>
<text text-anchor="start" x="17.5" y="-44" font-family="Helvetica,sans-Serif" font-size="10.00">__init__(self, str,</text>
<text text-anchor="start" x="17.5" y="-33" font-family="Helvetica,sans-Serif" font-size="10.00"> str id)</text>
<text text-anchor="start" x="4.5" y="-18" font-family="Helvetica,sans-Serif" font-size="10.00">+</text>
<text text-anchor="start" x="17.5" y="-18" font-family="Helvetica,sans-Serif" font-size="10.00">send_message(self,</text>
<text text-anchor="start" x="17.5" y="-7" font-family="Helvetica,sans-Serif" font-size="10.00"> text)</text>
<polygon fill="#666666" stroke="#666666" points="0.5,-69 0.5,-69 119.5,-69 119.5,-69 0.5,-69"/>
<polygon fill="#666666" stroke="#666666" points="0.5,-54 0.5,-54 119.5,-54 119.5,-54 0.5,-54"/>
<polygon fill="none" stroke="#666666" points="0,0 0,-86 119,-86 119,0 0,0"/>
</a>
</g>
</g>
<!-- Node1&#45;&gt;Node2 -->
<g id="edge1_Node000001_Node000002" class="edge">
<title>Node1&#45;&gt;Node2</title>
<g id="a_edge1_Node000001_Node000002"><a xlink:title=" ">
<path fill="none" stroke="#63b8ff" d="M85.25,-112.04C81.69,-102.64 78.39,-93.92 75.42,-86.07"/>
<polygon fill="none" stroke="#63b8ff" points="82.08,-113.54 88.89,-121.66 88.62,-111.07 82.08,-113.54"/>
</a>
</g>
</g>
<!-- Node3 -->
<g id="Node000003" class="node">
<title>Node3</title>
<g id="a_Node000003"><a xlink:href="classbot_1_1TelegramBot.html" target="_top" xlink:title=" ">
<polygon fill="white" stroke="transparent" points="256,-80.5 137,-80.5 137,-5.5 256,-5.5 256,-80.5"/>
<text text-anchor="start" x="156.5" y="-68" font-family="Helvetica,sans-Serif" font-size="10.00">bot.TelegramBot</text>
<text text-anchor="start" x="141.5" y="-53" font-family="Helvetica,sans-Serif" font-size="10.00">+</text>
<text text-anchor="start" x="154.5" y="-53" font-family="Helvetica,sans-Serif" font-size="10.00">id</text>
<text text-anchor="start" x="141.5" y="-38" font-family="Helvetica,sans-Serif" font-size="10.00">+</text>
<text text-anchor="start" x="154.5" y="-38" font-family="Helvetica,sans-Serif" font-size="10.00">__init__(self, str id)</text>
<text text-anchor="start" x="141.5" y="-23" font-family="Helvetica,sans-Serif" font-size="10.00">+</text>
<text text-anchor="start" x="154.5" y="-23" font-family="Helvetica,sans-Serif" font-size="10.00">send_message(self,</text>
<text text-anchor="start" x="154.5" y="-12" font-family="Helvetica,sans-Serif" font-size="10.00"> text)</text>
<polygon fill="#666666" stroke="#666666" points="137.5,-63 137.5,-63 256.5,-63 256.5,-63 137.5,-63"/>
<polygon fill="#666666" stroke="#666666" points="137.5,-48 137.5,-48 152.5,-48 152.5,-48 137.5,-48"/>
<polygon fill="#666666" stroke="#666666" points="152.5,-48 152.5,-48 256.5,-48 256.5,-48 152.5,-48"/>
<polygon fill="none" stroke="#666666" points="137,-5.5 137,-80.5 256,-80.5 256,-5.5 137,-5.5"/>
</a>
</g>
</g>
<!-- Node1&#45;&gt;Node3 -->
<g id="edge2_Node000001_Node000003" class="edge">
<title>Node1&#45;&gt;Node3</title>
<g id="a_edge2_Node000001_Node000003"><a xlink:title=" ">
<path fill="none" stroke="#63b8ff" d="M196.5,-111.43C196.5,-100.07 196.5,-89.71 196.5,-80.71"/>
<polygon fill="none" stroke="#63b8ff" points="193,-111.66 196.5,-121.66 200,-111.66 193,-111.66"/>
</a>
</g>
</g>
<!-- Node4 -->
<g id="Node000004" class="node">
<title>Node4</title>
<g id="a_Node000004"><a xlink:href="classbot_1_1WhatsappBot.html" target="_top" xlink:title=" ">
<polygon fill="white" stroke="transparent" points="393,-86 274,-86 274,0 393,0 393,-86"/>
<text text-anchor="start" x="291.5" y="-74" font-family="Helvetica,sans-Serif" font-size="10.00">bot.WhatsappBot</text>
<text text-anchor="start" x="278.5" y="-59" font-family="Helvetica,sans-Serif" font-size="10.00">+</text>
<text text-anchor="start" x="291.5" y="-59" font-family="Helvetica,sans-Serif" font-size="10.00">id</text>
<text text-anchor="start" x="278.5" y="-44" font-family="Helvetica,sans-Serif" font-size="10.00">+</text>
<text text-anchor="start" x="291.5" y="-44" font-family="Helvetica,sans-Serif" font-size="10.00">__init__(self, str,</text>
<text text-anchor="start" x="291.5" y="-33" font-family="Helvetica,sans-Serif" font-size="10.00"> str id)</text>
<text text-anchor="start" x="278.5" y="-18" font-family="Helvetica,sans-Serif" font-size="10.00">+</text>
<text text-anchor="start" x="291.5" y="-18" font-family="Helvetica,sans-Serif" font-size="10.00">send_message(self,</text>
<text text-anchor="start" x="291.5" y="-7" font-family="Helvetica,sans-Serif" font-size="10.00"> text)</text>
<polygon fill="#666666" stroke="#666666" points="274.5,-69 274.5,-69 393.5,-69 393.5,-69 274.5,-69"/>
<polygon fill="#666666" stroke="#666666" points="274.5,-54 274.5,-54 289.5,-54 289.5,-54 274.5,-54"/>
<polygon fill="#666666" stroke="#666666" points="289.5,-54 289.5,-54 393.5,-54 393.5,-54 289.5,-54"/>
<polygon fill="none" stroke="#666666" points="274,0 274,-86 393,-86 393,0 274,0"/>
</a>
</g>
</g>
<!-- Node1&#45;&gt;Node4 -->
<g id="edge3_Node000001_Node000004" class="edge">
<title>Node1&#45;&gt;Node4</title>
<g id="a_edge3_Node000001_Node000004"><a xlink:title=" ">
<path fill="none" stroke="#63b8ff" d="M307.75,-112.04C311.31,-102.64 314.61,-93.92 317.58,-86.07"/>
<polygon fill="none" stroke="#63b8ff" points="304.38,-111.07 304.11,-121.66 310.92,-113.54 304.38,-111.07"/>
</a>
</g>
</g>
</g>
</svg>
