<?xml version="1.0" encoding="UTF-8" standalone="no"?>
<!DOCTYPE svg PUBLIC "-//W3C//DTD SVG 1.1//EN"
 "http://www.w3.org/Graphics/SVG/1.1/DTD/svg11.dtd">
<!-- Generated by graphviz version 2.43.0 (0)
 -->
<!-- Title: bot.BotManagerException Pages: 1 -->
<svg width="895pt" height="491pt"
 viewBox="0.00 0.00 894.50 491.00" xmlns="http://www.w3.org/2000/svg" xmlns:xlink="http://www.w3.org/1999/xlink">
<g id="graph0" class="graph" transform="scale(1 1) rotate(0) translate(4 487)">
<title>bot.BotManagerException</title>
<!-- Node1 -->
<g id="node1" class="node">
<title>Node1</title>
<g id="a_node1"><a xlink:title=" ">
<polygon fill="#bfbfbf" stroke="black" points="356,-105.5 356,-162.5 499,-162.5 499,-105.5 356,-105.5"/>
<text text-anchor="middle" x="427.5" y="-150.5" font-family="Helvetica,sans-Serif" font-size="10.00">bot.BotManagerException</text>
<polyline fill="none" stroke="black" points="356,-143.5 499,-143.5 "/>
<text text-anchor="middle" x="427.5" y="-131.5" font-family="Helvetica,sans-Serif" font-size="10.00"> </text>
<polyline fill="none" stroke="black" points="356,-124.5 499,-124.5 "/>
<text text-anchor="middle" x="427.5" y="-112.5" font-family="Helvetica,sans-Serif" font-size="10.00"> </text>
</a>
</g>
</g>
<!-- Node4 -->
<g id="node4" class="node">
<title>Node4</title>
<g id="a_node4"><a xlink:href="classbot_1_1BotManagerAliveCheckException.html" target="_top" xlink:title=" ">
<polygon fill="none" stroke="black" points="0,-0.5 0,-68.5 149,-68.5 149,-0.5 0,-0.5"/>
<text text-anchor="start" x="8" y="-56.5" font-family="Helvetica,sans-Serif" font-size="10.00">bot.BotManagerAliveCheck</text>
<text text-anchor="middle" x="74.5" y="-45.5" font-family="Helvetica,sans-Serif" font-size="10.00">Exception</text>
<polyline fill="none" stroke="black" points="0,-38.5 149,-38.5 "/>
<text text-anchor="middle" x="74.5" y="-26.5" font-family="Helvetica,sans-Serif" font-size="10.00"> </text>
<polyline fill="none" stroke="black" points="0,-19.5 149,-19.5 "/>
<text text-anchor="middle" x="74.5" y="-7.5" font-family="Helvetica,sans-Serif" font-size="10.00"> </text>
</a>
</g>
</g>
<!-- Node1&#45;&gt;Node4 -->
<g id="edge3" class="edge">
<title>Node1&#45;&gt;Node4</title>
<path fill="none" stroke="midnightblue" d="M346.05,-117.04C292.01,-105.64 219.84,-88.84 157.5,-69 154.83,-68.15 152.13,-67.26 149.42,-66.33"/>
<polygon fill="none" stroke="midnightblue" points="345.42,-120.49 355.92,-119.11 346.85,-113.64 345.42,-120.49"/>
</g>
<!-- Node5 -->
<g id="node5" class="node">
<title>Node5</title>
<g id="a_node5"><a xlink:href="classbot_1_1BotManagerBotException.html" target="_top" xlink:title=" ">
<polygon fill="none" stroke="black" points="167,-6 167,-63 326,-63 326,-6 167,-6"/>
<text text-anchor="middle" x="246.5" y="-51" font-family="Helvetica,sans-Serif" font-size="10.00">bot.BotManagerBotException</text>
<polyline fill="none" stroke="black" points="167,-44 326,-44 "/>
<text text-anchor="middle" x="246.5" y="-32" font-family="Helvetica,sans-Serif" font-size="10.00"> </text>
<polyline fill="none" stroke="black" points="167,-25 326,-25 "/>
<text text-anchor="middle" x="246.5" y="-13" font-family="Helvetica,sans-Serif" font-size="10.00"> </text>
</a>
</g>
</g>
<!-- Node1&#45;&gt;Node5 -->
<g id="edge4" class="edge">
<title>Node1&#45;&gt;Node5</title>
<path fill="none" stroke="midnightblue" d="M367.3,-100.57C344.75,-88.42 319.36,-74.75 297.7,-63.08"/>
<polygon fill="none" stroke="midnightblue" points="365.65,-103.66 376.12,-105.32 368.97,-97.5 365.65,-103.66"/>
</g>
<!-- Node6 -->
<g id="node6" class="node">
<title>Node6</title>
<g id="a_node6"><a xlink:href="classbot_1_1BotManagerStartException.html" target="_top" xlink:title=" ">
<polygon fill="none" stroke="black" points="344.5,-6 344.5,-63 510.5,-63 510.5,-6 344.5,-6"/>
<text text-anchor="middle" x="427.5" y="-51" font-family="Helvetica,sans-Serif" font-size="10.00">bot.BotManagerStartException</text>
<polyline fill="none" stroke="black" points="344.5,-44 510.5,-44 "/>
<text text-anchor="middle" x="427.5" y="-32" font-family="Helvetica,sans-Serif" font-size="10.00"> </text>
<polyline fill="none" stroke="black" points="344.5,-25 510.5,-25 "/>
<text text-anchor="middle" x="427.5" y="-13" font-family="Helvetica,sans-Serif" font-size="10.00"> </text>
</a>
</g>
</g>
<!-- Node1&#45;&gt;Node6 -->
<g id="edge5" class="edge">
<title>Node1&#45;&gt;Node6</title>
<path fill="none" stroke="midnightblue" d="M427.5,-95.04C427.5,-84.45 427.5,-73.14 427.5,-63.25"/>
<polygon fill="none" stroke="midnightblue" points="424,-95.32 427.5,-105.32 431,-95.32 424,-95.32"/>
</g>
<!-- Node7 -->
<g id="node7" class="node">
<title>Node7</title>
<g id="a_node7"><a xlink:href="classbot_1_1BotManagerStopException.html" target="_top" xlink:title=" ">
<polygon fill="none" stroke="black" points="528.5,-6 528.5,-63 692.5,-63 692.5,-6 528.5,-6"/>
<text text-anchor="middle" x="610.5" y="-51" font-family="Helvetica,sans-Serif" font-size="10.00">bot.BotManagerStopException</text>
<polyline fill="none" stroke="black" points="528.5,-44 692.5,-44 "/>
<text text-anchor="middle" x="610.5" y="-32" font-family="Helvetica,sans-Serif" font-size="10.00"> </text>
<polyline fill="none" stroke="black" points="528.5,-25 692.5,-25 "/>
<text text-anchor="middle" x="610.5" y="-13" font-family="Helvetica,sans-Serif" font-size="10.00"> </text>
</a>
</g>
</g>
<!-- Node1&#45;&gt;Node7 -->
<g id="edge6" class="edge">
<title>Node1&#45;&gt;Node7</title>
<path fill="none" stroke="midnightblue" d="M488.36,-100.57C511.16,-88.42 536.84,-74.75 558.74,-63.08"/>
<polygon fill="none" stroke="midnightblue" points="486.63,-97.53 479.45,-105.32 489.92,-103.71 486.63,-97.53"/>
</g>
<!-- Node8 -->
<g id="node8" class="node">
<title>Node8</title>
<g id="a_node8"><a xlink:href="classbot_1_1BotManagerThreadException.html" target="_top" xlink:title=" ">
<polygon fill="none" stroke="black" points="710.5,-6 710.5,-63 886.5,-63 886.5,-6 710.5,-6"/>
<text text-anchor="middle" x="798.5" y="-51" font-family="Helvetica,sans-Serif" font-size="10.00">bot.BotManagerThreadException</text>
<polyline fill="none" stroke="black" points="710.5,-44 886.5,-44 "/>
<text text-anchor="middle" x="798.5" y="-32" font-family="Helvetica,sans-Serif" font-size="10.00"> </text>
<polyline fill="none" stroke="black" points="710.5,-25 886.5,-25 "/>
<text text-anchor="middle" x="798.5" y="-13" font-family="Helvetica,sans-Serif" font-size="10.00"> </text>
</a>
</g>
</g>
<!-- Node1&#45;&gt;Node8 -->
<g id="edge7" class="edge">
<title>Node1&#45;&gt;Node8</title>
<path fill="none" stroke="midnightblue" d="M509.27,-116.21C564.04,-104.4 637.54,-87.46 701.5,-69 707.92,-67.15 714.54,-65.12 721.16,-63"/>
<polygon fill="none" stroke="midnightblue" points="508.32,-112.84 499.27,-118.35 509.78,-119.68 508.32,-112.84"/>
</g>
<!-- Node2 -->
<g id="node2" class="node">
<title>Node2</title>
<g id="a_node2"><a xlink:href="classexception_1_1ChatbotException.html" target="_top" xlink:title=" ">
<polygon fill="none" stroke="black" points="350.5,-199.5 350.5,-388.5 504.5,-388.5 504.5,-199.5 350.5,-199.5"/>
<text text-anchor="middle" x="427.5" y="-376.5" font-family="Helvetica,sans-Serif" font-size="10.00">exception.ChatbotException</text>
<polyline fill="none" stroke="black" points="350.5,-369.5 504.5,-369.5 "/>
<text text-anchor="start" x="358.5" y="-357.5" font-family="Helvetica,sans-Serif" font-size="10.00">+ cause</text>
<text text-anchor="start" x="358.5" y="-346.5" font-family="Helvetica,sans-Serif" font-size="10.00">+ code</text>
<text text-anchor="start" x="358.5" y="-335.5" font-family="Helvetica,sans-Serif" font-size="10.00">+ filename</text>
<text text-anchor="start" x="358.5" y="-324.5" font-family="Helvetica,sans-Serif" font-size="10.00">+ lineno</text>
<text text-anchor="start" x="358.5" y="-313.5" font-family="Helvetica,sans-Serif" font-size="10.00">+ message</text>
<text text-anchor="start" x="358.5" y="-302.5" font-family="Helvetica,sans-Serif" font-size="10.00">+ severity</text>
<text text-anchor="start" x="358.5" y="-291.5" font-family="Helvetica,sans-Serif" font-size="10.00">+ traceback</text>
<text text-anchor="start" x="358.5" y="-280.5" font-family="Helvetica,sans-Serif" font-size="10.00">+ type</text>
<text text-anchor="start" x="358.5" y="-269.5" font-family="Helvetica,sans-Serif" font-size="10.00">+ SEVERITY_TO_LOGGING</text>
<polyline fill="none" stroke="black" points="350.5,-262.5 504.5,-262.5 "/>
<text text-anchor="start" x="358.5" y="-250.5" font-family="Helvetica,sans-Serif" font-size="10.00">+ __init__()</text>
<text text-anchor="start" x="358.5" y="-239.5" font-family="Helvetica,sans-Serif" font-size="10.00">+ __repr__()</text>
<text text-anchor="start" x="358.5" y="-228.5" font-family="Helvetica,sans-Serif" font-size="10.00">+ __str__()</text>
<text text-anchor="start" x="358.5" y="-217.5" font-family="Helvetica,sans-Serif" font-size="10.00">+ to_dict()</text>
<text text-anchor="start" x="358.5" y="-206.5" font-family="Helvetica,sans-Serif" font-size="10.00">+ to_json()</text>
</a>
</g>
</g>
<!-- Node2&#45;&gt;Node1 -->
<g id="edge1" class="edge">
<title>Node2&#45;&gt;Node1</title>
<path fill="none" stroke="midnightblue" d="M427.5,-189.13C427.5,-179.56 427.5,-170.54 427.5,-162.7"/>
<polygon fill="none" stroke="midnightblue" points="424,-189.26 427.5,-199.26 431,-189.26 424,-189.26"/>
</g>
<!-- Node3 -->
<g id="node3" class="node">
<title>Node3</title>
<g id="a_node3"><a xlink:title=" ">
<polygon fill="none" stroke="#bfbfbf" points="395,-425.5 395,-482.5 460,-482.5 460,-425.5 395,-425.5"/>
<text text-anchor="middle" x="427.5" y="-470.5" font-family="Helvetica,sans-Serif" font-size="10.00">Exception</text>
<polyline fill="none" stroke="#bfbfbf" points="395,-463.5 460,-463.5 "/>
<text text-anchor="middle" x="427.5" y="-451.5" font-family="Helvetica,sans-Serif" font-size="10.00"> </text>
<polyline fill="none" stroke="#bfbfbf" points="395,-444.5 460,-444.5 "/>
<text text-anchor="middle" x="427.5" y="-432.5" font-family="Helvetica,sans-Serif" font-size="10.00"> </text>
</a>
</g>
</g>
<!-- Node3&#45;&gt;Node2 -->
<g id="edge2" class="edge">
<title>Node3&#45;&gt;Node2</title>
<path fill="none" stroke="midnightblue" d="M427.5,-415.22C427.5,-407.01 427.5,-397.99 427.5,-388.68"/>
<polygon fill="none" stroke="midnightblue" points="424,-415.48 427.5,-425.48 431,-415.48 424,-415.48"/>
</g>
</g>
</svg>
