<?xml version="1.0" encoding="UTF-8" standalone="no"?>
<!DOCTYPE svg PUBLIC "-//W3C//DTD SVG 1.1//EN"
 "http://www.w3.org/Graphics/SVG/1.1/DTD/svg11.dtd">
<!-- Generated by graphviz version 2.43.0 (0)
 -->
<!-- Title: bot.BotManager.terminate_bot_by_instance Pages: 1 -->
<svg width="527pt" height="39pt"
 viewBox="0.00 0.00 527.00 39.00" xmlns="http://www.w3.org/2000/svg" xmlns:xlink="http://www.w3.org/1999/xlink">
<g id="graph0" class="graph" transform="scale(1 1) rotate(0) translate(4 35)">
<title>bot.BotManager.terminate_bot_by_instance</title>
<!-- Node1 -->
<g id="node1" class="node">
<title>Node1</title>
<g id="a_node1"><a xlink:title=" ">
<polygon fill="#bfbfbf" stroke="black" points="0,-0.5 0,-30.5 146,-30.5 146,-0.5 0,-0.5"/>
<text text-anchor="start" x="8" y="-18.5" font-family="Helvetica,sans-Serif" font-size="10.00">bot.BotManager.terminate</text>
<text text-anchor="middle" x="73" y="-7.5" font-family="Helvetica,sans-Serif" font-size="10.00">_bot_by_instance</text>
</a>
</g>
</g>
<!-- Node2 -->
<g id="node2" class="node">
<title>Node2</title>
<g id="a_node2"><a xlink:href="classbot_1_1BotManager.html#a6c4d0cf24bbffdb34c08b2385699edde" target="_top" xlink:title=" ">
<polygon fill="none" stroke="black" points="182,-6 182,-25 349,-25 349,-6 182,-6"/>
<text text-anchor="middle" x="265.5" y="-13" font-family="Helvetica,sans-Serif" font-size="10.00">bot.BotManager.terminate_bot</text>
</a>
</g>
</g>
<!-- Node1&#45;&gt;Node2 -->
<g id="edge1" class="edge">
<title>Node1&#45;&gt;Node2</title>
<path fill="none" stroke="midnightblue" d="M146.02,-15.5C154.43,-15.5 163.09,-15.5 171.73,-15.5"/>
<polygon fill="midnightblue" stroke="midnightblue" points="171.83,-19 181.83,-15.5 171.83,-12 171.83,-19"/>
</g>
<!-- Node3 -->
<g id="node3" class="node">
<title>Node3</title>
<g id="a_node3"><a xlink:href="classbot_1_1BotManager.html#a4b75202a45c9088324f8c1a6f800e76f" target="_top" xlink:title=" ">
<polygon fill="none" stroke="black" points="385,-6 385,-25 519,-25 519,-6 385,-6"/>
<text text-anchor="middle" x="452" y="-13" font-family="Helvetica,sans-Serif" font-size="10.00">bot.BotManager.get_bot</text>
</a>
</g>
</g>
<!-- Node2&#45;&gt;Node3 -->
<g id="edge2" class="edge">
<title>Node2&#45;&gt;Node3</title>
<path fill="none" stroke="midnightblue" d="M349.04,-15.5C357.56,-15.5 366.2,-15.5 374.66,-15.5"/>
<polygon fill="midnightblue" stroke="midnightblue" points="374.86,-19 384.86,-15.5 374.86,-12 374.86,-19"/>
</g>
</g>
</svg>
