<?xml version="1.0" encoding="UTF-8" standalone="no"?>
<!DOCTYPE svg PUBLIC "-//W3C//DTD SVG 1.1//EN"
 "http://www.w3.org/Graphics/SVG/1.1/DTD/svg11.dtd">
<!-- Generated by graphviz version 2.43.0 (0)
 -->
<!-- Title: bot.WhatsappBotSendMessageException Pages: 1 -->
<svg width="176pt" height="585pt"
 viewBox="0.00 0.00 176.00 585.00" xmlns="http://www.w3.org/2000/svg" xmlns:xlink="http://www.w3.org/1999/xlink">
<g id="graph0" class="graph" transform="scale(1 1) rotate(0) translate(4 581)">
<title>bot.WhatsappBotSendMessageException</title>
<!-- Node1 -->
<g id="node1" class="node">
<title>Node1</title>
<g id="a_node1"><a xlink:title=" ">
<polygon fill="#bfbfbf" stroke="black" points="0,-0.5 0,-68.5 168,-68.5 168,-0.5 0,-0.5"/>
<text text-anchor="start" x="8" y="-56.5" font-family="Helvetica,sans-Serif" font-size="10.00">bot.WhatsappBotSendMessage</text>
<text text-anchor="middle" x="84" y="-45.5" font-family="Helvetica,sans-Serif" font-size="10.00">Exception</text>
<polyline fill="none" stroke="black" points="0,-38.5 168,-38.5 "/>
<text text-anchor="middle" x="84" y="-26.5" font-family="Helvetica,sans-Serif" font-size="10.00"> </text>
<polyline fill="none" stroke="black" points="0,-19.5 168,-19.5 "/>
<text text-anchor="middle" x="84" y="-7.5" font-family="Helvetica,sans-Serif" font-size="10.00"> </text>
</a>
</g>
</g>
<!-- Node2 -->
<g id="node2" class="node">
<title>Node2</title>
<g id="a_node2"><a xlink:href="classbot_1_1WhatsappBotException.html" target="_top" xlink:title=" ">
<polygon fill="none" stroke="black" points="9.5,-105.5 9.5,-162.5 158.5,-162.5 158.5,-105.5 9.5,-105.5"/>
<text text-anchor="middle" x="84" y="-150.5" font-family="Helvetica,sans-Serif" font-size="10.00">bot.WhatsappBotException</text>
<polyline fill="none" stroke="black" points="9.5,-143.5 158.5,-143.5 "/>
<text text-anchor="middle" x="84" y="-131.5" font-family="Helvetica,sans-Serif" font-size="10.00"> </text>
<polyline fill="none" stroke="black" points="9.5,-124.5 158.5,-124.5 "/>
<text text-anchor="middle" x="84" y="-112.5" font-family="Helvetica,sans-Serif" font-size="10.00"> </text>
</a>
</g>
</g>
<!-- Node2&#45;&gt;Node1 -->
<g id="edge1" class="edge">
<title>Node2&#45;&gt;Node1</title>
<path fill="none" stroke="midnightblue" d="M84,-95.06C84,-86.39 84,-77.24 84,-68.79"/>
<polygon fill="none" stroke="midnightblue" points="80.5,-95.32 84,-105.32 87.5,-95.32 80.5,-95.32"/>
</g>
<!-- Node3 -->
<g id="node3" class="node">
<title>Node3</title>
<g id="a_node3"><a xlink:href="classbot_1_1BotException.html" target="_top" xlink:title=" ">
<polygon fill="none" stroke="black" points="34,-199.5 34,-256.5 134,-256.5 134,-199.5 34,-199.5"/>
<text text-anchor="middle" x="84" y="-244.5" font-family="Helvetica,sans-Serif" font-size="10.00">bot.BotException</text>
<polyline fill="none" stroke="black" points="34,-237.5 134,-237.5 "/>
<text text-anchor="middle" x="84" y="-225.5" font-family="Helvetica,sans-Serif" font-size="10.00"> </text>
<polyline fill="none" stroke="black" points="34,-218.5 134,-218.5 "/>
<text text-anchor="middle" x="84" y="-206.5" font-family="Helvetica,sans-Serif" font-size="10.00"> </text>
</a>
</g>
</g>
<!-- Node3&#45;&gt;Node2 -->
<g id="edge2" class="edge">
<title>Node3&#45;&gt;Node2</title>
<path fill="none" stroke="midnightblue" d="M84,-189.21C84,-180.29 84,-170.95 84,-162.58"/>
<polygon fill="none" stroke="midnightblue" points="80.5,-189.4 84,-199.4 87.5,-189.4 80.5,-189.4"/>
</g>
<!-- Node4 -->
<g id="node4" class="node">
<title>Node4</title>
<g id="a_node4"><a xlink:href="classexception_1_1ChatbotException.html" target="_top" xlink:title=" ">
<polygon fill="none" stroke="black" points="7,-293.5 7,-482.5 161,-482.5 161,-293.5 7,-293.5"/>
<text text-anchor="middle" x="84" y="-470.5" font-family="Helvetica,sans-Serif" font-size="10.00">exception.ChatbotException</text>
<polyline fill="none" stroke="black" points="7,-463.5 161,-463.5 "/>
<text text-anchor="start" x="15" y="-451.5" font-family="Helvetica,sans-Serif" font-size="10.00">+ cause</text>
<text text-anchor="start" x="15" y="-440.5" font-family="Helvetica,sans-Serif" font-size="10.00">+ code</text>
<text text-anchor="start" x="15" y="-429.5" font-family="Helvetica,sans-Serif" font-size="10.00">+ filename</text>
<text text-anchor="start" x="15" y="-418.5" font-family="Helvetica,sans-Serif" font-size="10.00">+ lineno</text>
<text text-anchor="start" x="15" y="-407.5" font-family="Helvetica,sans-Serif" font-size="10.00">+ message</text>
<text text-anchor="start" x="15" y="-396.5" font-family="Helvetica,sans-Serif" font-size="10.00">+ severity</text>
<text text-anchor="start" x="15" y="-385.5" font-family="Helvetica,sans-Serif" font-size="10.00">+ traceback</text>
<text text-anchor="start" x="15" y="-374.5" font-family="Helvetica,sans-Serif" font-size="10.00">+ type</text>
<text text-anchor="start" x="15" y="-363.5" font-family="Helvetica,sans-Serif" font-size="10.00">+ SEVERITY_TO_LOGGING</text>
<polyline fill="none" stroke="black" points="7,-356.5 161,-356.5 "/>
<text text-anchor="start" x="15" y="-344.5" font-family="Helvetica,sans-Serif" font-size="10.00">+ __init__()</text>
<text text-anchor="start" x="15" y="-333.5" font-family="Helvetica,sans-Serif" font-size="10.00">+ __repr__()</text>
<text text-anchor="start" x="15" y="-322.5" font-family="Helvetica,sans-Serif" font-size="10.00">+ __str__()</text>
<text text-anchor="start" x="15" y="-311.5" font-family="Helvetica,sans-Serif" font-size="10.00">+ to_dict()</text>
<text text-anchor="start" x="15" y="-300.5" font-family="Helvetica,sans-Serif" font-size="10.00">+ to_json()</text>
</a>
</g>
</g>
<!-- Node4&#45;&gt;Node3 -->
<g id="edge3" class="edge">
<title>Node4&#45;&gt;Node3</title>
<path fill="none" stroke="midnightblue" d="M84,-283.13C84,-273.56 84,-264.54 84,-256.7"/>
<polygon fill="none" stroke="midnightblue" points="80.5,-283.26 84,-293.26 87.5,-283.26 80.5,-283.26"/>
</g>
<!-- Node5 -->
<g id="node5" class="node">
<title>Node5</title>
<g id="a_node5"><a xlink:title=" ">
<polygon fill="none" stroke="#bfbfbf" points="51.5,-519.5 51.5,-576.5 116.5,-576.5 116.5,-519.5 51.5,-519.5"/>
<text text-anchor="middle" x="84" y="-564.5" font-family="Helvetica,sans-Serif" font-size="10.00">Exception</text>
<polyline fill="none" stroke="#bfbfbf" points="51.5,-557.5 116.5,-557.5 "/>
<text text-anchor="middle" x="84" y="-545.5" font-family="Helvetica,sans-Serif" font-size="10.00"> </text>
<polyline fill="none" stroke="#bfbfbf" points="51.5,-538.5 116.5,-538.5 "/>
<text text-anchor="middle" x="84" y="-526.5" font-family="Helvetica,sans-Serif" font-size="10.00"> </text>
</a>
</g>
</g>
<!-- Node5&#45;&gt;Node4 -->
<g id="edge4" class="edge">
<title>Node5&#45;&gt;Node4</title>
<path fill="none" stroke="midnightblue" d="M84,-509.22C84,-501.01 84,-491.99 84,-482.68"/>
<polygon fill="none" stroke="midnightblue" points="80.5,-509.48 84,-519.48 87.5,-509.48 80.5,-509.48"/>
</g>
</g>
</svg>
