<?xml version="1.0" encoding="UTF-8" standalone="no"?>
<!DOCTYPE svg PUBLIC "-//W3C//DTD SVG 1.1//EN"
 "http://www.w3.org/Graphics/SVG/1.1/DTD/svg11.dtd">
<!-- Generated by graphviz version 2.43.0 (0)
 -->
<!-- Title: bot.BotThreadException Pages: 1 -->
<svg width="326pt" height="643pt"
 viewBox="0.00 0.00 326.00 643.00" xmlns="http://www.w3.org/2000/svg" xmlns:xlink="http://www.w3.org/1999/xlink">
<g id="graph0" class="graph" transform="scale(1 1) rotate(0) translate(4 639)">
<title>bot.BotThreadException</title>
<!-- Node1 -->
<g id="Node000001" class="node">
<title>Node1</title>
<g id="a_Node000001"><a xlink:title=" ">
<polygon fill="#999999" stroke="transparent" points="223.5,-134 95.5,-134 95.5,-85 223.5,-85 223.5,-134"/>
<text text-anchor="start" x="100.5" y="-121.5" font-family="Helvetica,sans-Serif" font-size="10.00">bot.BotThreadException</text>
<text text-anchor="start" x="157.5" y="-106.5" font-family="Helvetica,sans-Serif" font-size="10.00"> </text>
<text text-anchor="start" x="157.5" y="-91.5" font-family="Helvetica,sans-Serif" font-size="10.00"> </text>
<polygon fill="#666666" stroke="#666666" points="95.5,-116.5 95.5,-116.5 223.5,-116.5 223.5,-116.5 95.5,-116.5"/>
<polygon fill="#666666" stroke="#666666" points="95.5,-101.5 95.5,-101.5 223.5,-101.5 223.5,-101.5 95.5,-101.5"/>
<polygon fill="none" stroke="#666666" points="95.5,-85 95.5,-134 223.5,-134 223.5,-85 95.5,-85"/>
</a>
</g>
</g>
<!-- Node5 -->
<g id="Node000005" class="node">
<title>Node5</title>
<g id="a_Node000005"><a xlink:href="classbot_1_1BotStartThreadException.html" target="_top" xlink:title=" ">
<polygon fill="white" stroke="transparent" points="151,-49 0,-49 0,0 151,0 151,-49"/>
<text text-anchor="start" x="5.5" y="-36.5" font-family="Helvetica,sans-Serif" font-size="10.00">bot.BotStartThreadException</text>
<text text-anchor="start" x="74" y="-21.5" font-family="Helvetica,sans-Serif" font-size="10.00"> </text>
<text text-anchor="start" x="74" y="-6.5" font-family="Helvetica,sans-Serif" font-size="10.00"> </text>
<polygon fill="#666666" stroke="#666666" points="0.5,-31.5 0.5,-31.5 151.5,-31.5 151.5,-31.5 0.5,-31.5"/>
<polygon fill="#666666" stroke="#666666" points="0.5,-16.5 0.5,-16.5 151.5,-16.5 151.5,-16.5 0.5,-16.5"/>
<polygon fill="none" stroke="#666666" points="0,0 0,-49 151,-49 151,0 0,0"/>
</a>
</g>
</g>
<!-- Node1&#45;&gt;Node5 -->
<g id="edge4_Node000001_Node000005" class="edge">
<title>Node1&#45;&gt;Node5</title>
<g id="a_edge4_Node000001_Node000005"><a xlink:title=" ">
<path fill="none" stroke="#63b8ff" d="M128.5,-77.87C118.89,-68.38 108.46,-58.06 99.41,-49.12"/>
<polygon fill="none" stroke="#63b8ff" points="126.08,-80.4 135.65,-84.94 131,-75.42 126.08,-80.4"/>
</a>
</g>
</g>
<!-- Node6 -->
<g id="Node000006" class="node">
<title>Node6</title>
<g id="a_Node000006"><a xlink:href="classbot_1_1BotStopThreadException.html" target="_top" xlink:title=" ">
<polygon fill="white" stroke="transparent" points="318,-49 169,-49 169,0 318,0 318,-49"/>
<text text-anchor="start" x="174.5" y="-36.5" font-family="Helvetica,sans-Serif" font-size="10.00">bot.BotStopThreadException</text>
<text text-anchor="start" x="242" y="-21.5" font-family="Helvetica,sans-Serif" font-size="10.00"> </text>
<text text-anchor="start" x="242" y="-6.5" font-family="Helvetica,sans-Serif" font-size="10.00"> </text>
<polygon fill="#666666" stroke="#666666" points="169.5,-31.5 169.5,-31.5 318.5,-31.5 318.5,-31.5 169.5,-31.5"/>
<polygon fill="#666666" stroke="#666666" points="169.5,-16.5 169.5,-16.5 318.5,-16.5 318.5,-16.5 169.5,-16.5"/>
<polygon fill="none" stroke="#666666" points="169,0 169,-49 318,-49 318,0 169,0"/>
</a>
</g>
</g>
<!-- Node1&#45;&gt;Node6 -->
<g id="edge5_Node000001_Node000006" class="edge">
<title>Node1&#45;&gt;Node6</title>
<g id="a_edge5_Node000001_Node000006"><a xlink:title=" ">
<path fill="none" stroke="#63b8ff" d="M190.5,-77.87C200.11,-68.38 210.54,-58.06 219.59,-49.12"/>
<polygon fill="none" stroke="#63b8ff" points="188,-75.42 183.35,-84.94 192.92,-80.4 188,-75.42"/>
</a>
</g>
</g>
<!-- Node2 -->
<g id="Node000002" class="node">
<title>Node2</title>
<g id="a_Node000002"><a xlink:href="classbot_1_1BotException.html" target="_top" xlink:title=" ">
<polygon fill="white" stroke="transparent" points="206.5,-219 112.5,-219 112.5,-170 206.5,-170 206.5,-219"/>
<text text-anchor="start" x="117.5" y="-206.5" font-family="Helvetica,sans-Serif" font-size="10.00">bot.BotException</text>
<text text-anchor="start" x="157.5" y="-191.5" font-family="Helvetica,sans-Serif" font-size="10.00"> </text>
<text text-anchor="start" x="157.5" y="-176.5" font-family="Helvetica,sans-Serif" font-size="10.00"> </text>
<polygon fill="#666666" stroke="#666666" points="112.5,-201.5 112.5,-201.5 206.5,-201.5 206.5,-201.5 112.5,-201.5"/>
<polygon fill="#666666" stroke="#666666" points="112.5,-186.5 112.5,-186.5 206.5,-186.5 206.5,-186.5 112.5,-186.5"/>
<polygon fill="none" stroke="#666666" points="112.5,-170 112.5,-219 206.5,-219 206.5,-170 112.5,-170"/>
</a>
</g>
</g>
<!-- Node2&#45;&gt;Node1 -->
<g id="edge1_Node000001_Node000002" class="edge">
<title>Node2&#45;&gt;Node1</title>
<g id="a_edge1_Node000001_Node000002"><a xlink:title=" ">
<path fill="none" stroke="#63b8ff" d="M159.5,-159.77C159.5,-151.17 159.5,-142.1 159.5,-134.12"/>
<polygon fill="none" stroke="#63b8ff" points="156,-159.94 159.5,-169.94 163,-159.94 156,-159.94"/>
</a>
</g>
</g>
<!-- Node3 -->
<g id="Node000003" class="node">
<title>Node3</title>
<g id="a_Node000003"><a xlink:href="classexception_1_1ChatbotException.html" target="_top" xlink:title=" ">
<polygon fill="white" stroke="transparent" points="284.5,-550 34.5,-550 34.5,-255 284.5,-255 284.5,-550"/>
<text text-anchor="start" x="90.5" y="-537.5" font-family="Helvetica,sans-Serif" font-size="10.00">exception.ChatbotException</text>
<text text-anchor="start" x="38.5" y="-522.5" font-family="Helvetica,sans-Serif" font-size="10.00">+</text>
<text text-anchor="start" x="51.5" y="-522.5" font-family="Helvetica,sans-Serif" font-size="10.00">cause</text>
<text text-anchor="start" x="38.5" y="-507.5" font-family="Helvetica,sans-Serif" font-size="10.00">+</text>
<text text-anchor="start" x="51.5" y="-507.5" font-family="Helvetica,sans-Serif" font-size="10.00">code</text>
<text text-anchor="start" x="38.5" y="-492.5" font-family="Helvetica,sans-Serif" font-size="10.00">+</text>
<text text-anchor="start" x="51.5" y="-492.5" font-family="Helvetica,sans-Serif" font-size="10.00">filename</text>
<text text-anchor="start" x="38.5" y="-477.5" font-family="Helvetica,sans-Serif" font-size="10.00">+</text>
<text text-anchor="start" x="51.5" y="-477.5" font-family="Helvetica,sans-Serif" font-size="10.00">lineno</text>
<text text-anchor="start" x="38.5" y="-462.5" font-family="Helvetica,sans-Serif" font-size="10.00">+</text>
<text text-anchor="start" x="51.5" y="-462.5" font-family="Helvetica,sans-Serif" font-size="10.00">message</text>
<text text-anchor="start" x="38.5" y="-447.5" font-family="Helvetica,sans-Serif" font-size="10.00">+</text>
<text text-anchor="start" x="51.5" y="-447.5" font-family="Helvetica,sans-Serif" font-size="10.00">severity</text>
<text text-anchor="start" x="38.5" y="-432.5" font-family="Helvetica,sans-Serif" font-size="10.00">+</text>
<text text-anchor="start" x="51.5" y="-432.5" font-family="Helvetica,sans-Serif" font-size="10.00">traceback</text>
<text text-anchor="start" x="38.5" y="-417.5" font-family="Helvetica,sans-Serif" font-size="10.00">+</text>
<text text-anchor="start" x="51.5" y="-417.5" font-family="Helvetica,sans-Serif" font-size="10.00">type</text>
<text text-anchor="start" x="38.5" y="-402.5" font-family="Helvetica,sans-Serif" font-size="10.00">+</text>
<text text-anchor="start" x="51.5" y="-402.5" font-family="Helvetica,sans-Serif" font-size="10.00">SEVERITY_TO_LOGGING</text>
<text text-anchor="start" x="38.5" y="-387.5" font-family="Helvetica,sans-Serif" font-size="10.00">+</text>
<text text-anchor="start" x="51.5" y="-387.5" font-family="Helvetica,sans-Serif" font-size="10.00">__init__(self, &quot;Chatbot</text>
<text text-anchor="start" x="51.5" y="-376.5" font-family="Helvetica,sans-Serif" font-size="10.00">Exception.ChatbotExceptionCode&quot;</text>
<text text-anchor="start" x="51.5" y="-365.5" font-family="Helvetica,sans-Serif" font-size="10.00"> code=None, str message=None,</text>
<text text-anchor="start" x="51.5" y="-354.5" font-family="Helvetica,sans-Serif" font-size="10.00"> &quot;ChatbotException.ChatbotExceptionSeverity&quot;</text>
<text text-anchor="start" x="51.5" y="-343.5" font-family="Helvetica,sans-Serif" font-size="10.00"> severity=None, str filename=None, int</text>
<text text-anchor="start" x="51.5" y="-332.5" font-family="Helvetica,sans-Serif" font-size="10.00"> lineno=None, Exception cause=None, bool</text>
<text text-anchor="start" x="51.5" y="-321.5" font-family="Helvetica,sans-Serif" font-size="10.00"> include_trace=True)</text>
<text text-anchor="start" x="38.5" y="-306.5" font-family="Helvetica,sans-Serif" font-size="10.00">+</text>
<text text-anchor="start" x="51.5" y="-306.5" font-family="Helvetica,sans-Serif" font-size="10.00">__repr__(self)</text>
<text text-anchor="start" x="38.5" y="-291.5" font-family="Helvetica,sans-Serif" font-size="10.00">+</text>
<text text-anchor="start" x="51.5" y="-291.5" font-family="Helvetica,sans-Serif" font-size="10.00">__str__(self)</text>
<text text-anchor="start" x="38.5" y="-276.5" font-family="Helvetica,sans-Serif" font-size="10.00">+</text>
<text text-anchor="start" x="51.5" y="-276.5" font-family="Helvetica,sans-Serif" font-size="10.00">to_dict(self)</text>
<text text-anchor="start" x="38.5" y="-261.5" font-family="Helvetica,sans-Serif" font-size="10.00">+</text>
<text text-anchor="start" x="51.5" y="-261.5" font-family="Helvetica,sans-Serif" font-size="10.00">to_json(self)</text>
<polygon fill="#666666" stroke="#666666" points="34.5,-532.5 34.5,-532.5 284.5,-532.5 284.5,-532.5 34.5,-532.5"/>
<polygon fill="#666666" stroke="#666666" points="34.5,-397.5 34.5,-397.5 49.5,-397.5 49.5,-397.5 34.5,-397.5"/>
<polygon fill="#666666" stroke="#666666" points="49.5,-397.5 49.5,-397.5 284.5,-397.5 284.5,-397.5 49.5,-397.5"/>
<polygon fill="none" stroke="#666666" points="34.5,-255 34.5,-550 284.5,-550 284.5,-255 34.5,-255"/>
</a>
</g>
</g>
<!-- Node3&#45;&gt;Node2 -->
<g id="edge2_Node000002_Node000003" class="edge">
<title>Node3&#45;&gt;Node2</title>
<g id="a_edge2_Node000002_Node000003"><a xlink:title=" ">
<path fill="none" stroke="#63b8ff" d="M159.5,-244.58C159.5,-235.04 159.5,-226.35 159.5,-219.04"/>
<polygon fill="none" stroke="#63b8ff" points="156,-244.81 159.5,-254.81 163,-244.81 156,-244.81"/>
</a>
</g>
</g>
<!-- Node4 -->
<g id="Node000004" class="node">
<title>Node4</title>
<g id="a_Node000004"><a xlink:title=" ">
<polygon fill="white" stroke="transparent" points="189,-635 130,-635 130,-586 189,-586 189,-635"/>
<text text-anchor="start" x="135.5" y="-622.5" font-family="Helvetica,sans-Serif" font-size="10.00">Exception</text>
<text text-anchor="start" x="158" y="-607.5" font-family="Helvetica,sans-Serif" font-size="10.00"> </text>
<text text-anchor="start" x="158" y="-592.5" font-family="Helvetica,sans-Serif" font-size="10.00"> </text>
<polygon fill="#666666" stroke="#666666" points="130.5,-617.5 130.5,-617.5 189.5,-617.5 189.5,-617.5 130.5,-617.5"/>
<polygon fill="#666666" stroke="#666666" points="130.5,-602.5 130.5,-602.5 189.5,-602.5 189.5,-602.5 130.5,-602.5"/>
<polygon fill="none" stroke="#666666" points="130,-586 130,-635 189,-635 189,-586 130,-586"/>
</a>
</g>
</g>
<!-- Node4&#45;&gt;Node3 -->
<g id="edge3_Node000003_Node000004" class="edge">
<title>Node4&#45;&gt;Node3</title>
<g id="a_edge3_Node000003_Node000004"><a xlink:title=" ">
<path fill="none" stroke="#63b8ff" d="M159.5,-575.71C159.5,-568.05 159.5,-559.44 159.5,-550.26"/>
<polygon fill="none" stroke="#63b8ff" points="156,-575.87 159.5,-585.87 163,-575.87 156,-575.87"/>
</a>
</g>
</g>
</g>
</svg>
