<?xml version="1.0" encoding="UTF-8" standalone="no"?>
<!DOCTYPE svg PUBLIC "-//W3C//DTD SVG 1.1//EN"
 "http://www.w3.org/Graphics/SVG/1.1/DTD/svg11.dtd">
<!-- Generated by graphviz version 2.43.0 (0)
 -->
<!-- Title: configurator.ConfigurationException Pages: 1 -->
<svg width="1477pt" height="580pt"
 viewBox="0.00 0.00 1477.00 580.00" xmlns="http://www.w3.org/2000/svg" xmlns:xlink="http://www.w3.org/1999/xlink">
<g id="graph0" class="graph" transform="scale(1 1) rotate(0) translate(4 576)">
<title>configurator.ConfigurationException</title>
<!-- Node1 -->
<g id="Node000001" class="node">
<title>Node1</title>
<g id="a_Node000001"><a xlink:title=" ">
<polygon fill="#999999" stroke="transparent" points="808,-156 671,-156 671,-96 808,-96 808,-156"/>
<text text-anchor="start" x="676.5" y="-144" font-family="Helvetica,sans-Serif" font-size="10.00">configurator.Configuration</text>
<text text-anchor="start" x="715.5" y="-133" font-family="Helvetica,sans-Serif" font-size="10.00">Exception</text>
<text text-anchor="start" x="738" y="-118" font-family="Helvetica,sans-Serif" font-size="10.00"> </text>
<text text-anchor="start" x="738" y="-103" font-family="Helvetica,sans-Serif" font-size="10.00"> </text>
<polygon fill="#666666" stroke="#666666" points="671.5,-128 671.5,-128 808.5,-128 808.5,-128 671.5,-128"/>
<polygon fill="#666666" stroke="#666666" points="671.5,-113 671.5,-113 808.5,-113 808.5,-113 671.5,-113"/>
<polygon fill="none" stroke="#666666" points="671,-96 671,-156 808,-156 808,-96 671,-96"/>
</a>
</g>
</g>
<!-- Node4 -->
<g id="Node000004" class="node">
<title>Node4</title>
<g id="a_Node000004"><a xlink:href="classconfigurator_1_1ConfigurationCheckNgrokException.html" target="_top" xlink:title=" ">
<polygon fill="white" stroke="transparent" points="137,-60 0,-60 0,0 137,0 137,-60"/>
<text text-anchor="start" x="5.5" y="-48" font-family="Helvetica,sans-Serif" font-size="10.00">configurator.Configuration</text>
<text text-anchor="start" x="15" y="-37" font-family="Helvetica,sans-Serif" font-size="10.00">CheckNgrokException</text>
<text text-anchor="start" x="67" y="-22" font-family="Helvetica,sans-Serif" font-size="10.00"> </text>
<text text-anchor="start" x="67" y="-7" font-family="Helvetica,sans-Serif" font-size="10.00"> </text>
<polygon fill="#666666" stroke="#666666" points="0.5,-32 0.5,-32 137.5,-32 137.5,-32 0.5,-32"/>
<polygon fill="#666666" stroke="#666666" points="0.5,-17 0.5,-17 137.5,-17 137.5,-17 0.5,-17"/>
<polygon fill="none" stroke="#666666" points="0,0 0,-60 137,-60 137,0 0,0"/>
</a>
</g>
</g>
<!-- Node1&#45;&gt;Node4 -->
<g id="edge3_Node000001_Node000004" class="edge">
<title>Node1&#45;&gt;Node4</title>
<g id="a_edge3_Node000001_Node000004"><a xlink:title=" ">
<path fill="none" stroke="#63b8ff" d="M660.75,-122.66C545.97,-117.84 326.69,-103.3 145.5,-60 142.72,-59.34 139.91,-58.6 137.08,-57.8"/>
<polygon fill="none" stroke="#63b8ff" points="660.71,-126.16 670.85,-123.07 661,-119.17 660.71,-126.16"/>
</a>
</g>
</g>
<!-- Node5 -->
<g id="Node000005" class="node">
<title>Node5</title>
<g id="a_Node000005"><a xlink:href="classconfigurator_1_1ConfigurationHTTPRequestExcpetion.html" target="_top" xlink:title=" ">
<polygon fill="white" stroke="transparent" points="292,-60 155,-60 155,0 292,0 292,-60"/>
<text text-anchor="start" x="160.5" y="-48" font-family="Helvetica,sans-Serif" font-size="10.00">configurator.Configuration</text>
<text text-anchor="start" x="167" y="-37" font-family="Helvetica,sans-Serif" font-size="10.00">HTTPRequestExcpetion</text>
<text text-anchor="start" x="222" y="-22" font-family="Helvetica,sans-Serif" font-size="10.00"> </text>
<text text-anchor="start" x="222" y="-7" font-family="Helvetica,sans-Serif" font-size="10.00"> </text>
<polygon fill="#666666" stroke="#666666" points="155.5,-32 155.5,-32 292.5,-32 292.5,-32 155.5,-32"/>
<polygon fill="#666666" stroke="#666666" points="155.5,-17 155.5,-17 292.5,-17 292.5,-17 155.5,-17"/>
<polygon fill="none" stroke="#666666" points="155,0 155,-60 292,-60 292,0 155,0"/>
</a>
</g>
</g>
<!-- Node1&#45;&gt;Node5 -->
<g id="edge4_Node000001_Node000005" class="edge">
<title>Node1&#45;&gt;Node5</title>
<g id="a_edge4_Node000001_Node000005"><a xlink:title=" ">
<path fill="none" stroke="#63b8ff" d="M660.94,-118.46C572.31,-109.91 424.38,-92.11 300.5,-60 297.73,-59.28 294.93,-58.5 292.11,-57.67"/>
<polygon fill="none" stroke="#63b8ff" points="660.63,-121.95 670.92,-119.41 661.29,-114.98 660.63,-121.95"/>
</a>
</g>
</g>
<!-- Node6 -->
<g id="Node000006" class="node">
<title>Node6</title>
<g id="a_Node000006"><a xlink:href="classconfigurator_1_1ConfigurationHTTPRequestMethodExcpetion.html" target="_top" xlink:title=" ">
<polygon fill="white" stroke="transparent" points="471,-60 310,-60 310,0 471,0 471,-60"/>
<text text-anchor="start" x="315.5" y="-48" font-family="Helvetica,sans-Serif" font-size="10.00">configurator.Configuration</text>
<text text-anchor="start" x="315.5" y="-37" font-family="Helvetica,sans-Serif" font-size="10.00">HTTPRequestMethodExcpetion</text>
<text text-anchor="start" x="389" y="-22" font-family="Helvetica,sans-Serif" font-size="10.00"> </text>
<text text-anchor="start" x="389" y="-7" font-family="Helvetica,sans-Serif" font-size="10.00"> </text>
<polygon fill="#666666" stroke="#666666" points="310.5,-32 310.5,-32 471.5,-32 471.5,-32 310.5,-32"/>
<polygon fill="#666666" stroke="#666666" points="310.5,-17 310.5,-17 471.5,-17 471.5,-17 310.5,-17"/>
<polygon fill="none" stroke="#666666" points="310,0 310,-60 471,-60 471,0 310,0"/>
</a>
</g>
</g>
<!-- Node1&#45;&gt;Node6 -->
<g id="edge5_Node000001_Node000006" class="edge">
<title>Node1&#45;&gt;Node6</title>
<g id="a_edge5_Node000001_Node000006"><a xlink:title=" ">
<path fill="none" stroke="#63b8ff" d="M660.99,-106.72C609.45,-94.37 540.69,-77.23 480.5,-60 477.5,-59.14 474.45,-58.25 471.38,-57.34"/>
<polygon fill="none" stroke="#63b8ff" points="660.2,-110.13 670.74,-109.05 661.82,-103.32 660.2,-110.13"/>
</a>
</g>
</g>
<!-- Node7 -->
<g id="Node000007" class="node">
<title>Node7</title>
<g id="a_Node000007"><a xlink:href="classconfigurator_1_1ConfigurationHTTPRequestRetryExcpetion.html" target="_top" xlink:title=" ">
<polygon fill="white" stroke="transparent" points="639.5,-60 489.5,-60 489.5,0 639.5,0 639.5,-60"/>
<text text-anchor="start" x="494.5" y="-48" font-family="Helvetica,sans-Serif" font-size="10.00">configurator.Configuration</text>
<text text-anchor="start" x="494.5" y="-37" font-family="Helvetica,sans-Serif" font-size="10.00">HTTPRequestRetryExcpetion</text>
<text text-anchor="start" x="562.5" y="-22" font-family="Helvetica,sans-Serif" font-size="10.00"> </text>
<text text-anchor="start" x="562.5" y="-7" font-family="Helvetica,sans-Serif" font-size="10.00"> </text>
<polygon fill="#666666" stroke="#666666" points="489.5,-32 489.5,-32 639.5,-32 639.5,-32 489.5,-32"/>
<polygon fill="#666666" stroke="#666666" points="489.5,-17 489.5,-17 639.5,-17 639.5,-17 489.5,-17"/>
<polygon fill="none" stroke="#666666" points="489.5,0 489.5,-60 639.5,-60 639.5,0 489.5,0"/>
</a>
</g>
</g>
<!-- Node1&#45;&gt;Node7 -->
<g id="edge6_Node000001_Node000007" class="edge">
<title>Node1&#45;&gt;Node7</title>
<g id="a_edge6_Node000001_Node000007"><a xlink:title=" ">
<path fill="none" stroke="#63b8ff" d="M676.25,-91.03C657.36,-80.88 636.83,-69.85 618.58,-60.05"/>
<polygon fill="none" stroke="#63b8ff" points="674.62,-94.12 685.09,-95.77 677.93,-87.96 674.62,-94.12"/>
</a>
</g>
</g>
<!-- Node8 -->
<g id="Node000008" class="node">
<title>Node8</title>
<g id="a_Node000008"><a xlink:href="classconfigurator_1_1ConfigurationHTTPRequestTimeoutExcpetion.html" target="_top" xlink:title=" ">
<polygon fill="white" stroke="transparent" points="821.5,-60 657.5,-60 657.5,0 821.5,0 821.5,-60"/>
<text text-anchor="start" x="662.5" y="-48" font-family="Helvetica,sans-Serif" font-size="10.00">configurator.Configuration</text>
<text text-anchor="start" x="662.5" y="-37" font-family="Helvetica,sans-Serif" font-size="10.00">HTTPRequestTimeoutExcpetion</text>
<text text-anchor="start" x="737.5" y="-22" font-family="Helvetica,sans-Serif" font-size="10.00"> </text>
<text text-anchor="start" x="737.5" y="-7" font-family="Helvetica,sans-Serif" font-size="10.00"> </text>
<polygon fill="#666666" stroke="#666666" points="657.5,-32 657.5,-32 821.5,-32 821.5,-32 657.5,-32"/>
<polygon fill="#666666" stroke="#666666" points="657.5,-17 657.5,-17 821.5,-17 821.5,-17 657.5,-17"/>
<polygon fill="none" stroke="#666666" points="657.5,0 657.5,-60 821.5,-60 821.5,0 657.5,0"/>
</a>
</g>
</g>
<!-- Node1&#45;&gt;Node8 -->
<g id="edge7_Node000001_Node000008" class="edge">
<title>Node1&#45;&gt;Node8</title>
<g id="a_edge7_Node000001_Node000008"><a xlink:title=" ">
<path fill="none" stroke="#63b8ff" d="M739.5,-85.63C739.5,-77.11 739.5,-68.25 739.5,-60.21"/>
<polygon fill="none" stroke="#63b8ff" points="736,-85.77 739.5,-95.77 743,-85.77 736,-85.77"/>
</a>
</g>
</g>
<!-- Node9 -->
<g id="Node000009" class="node">
<title>Node9</title>
<g id="a_Node000009"><a xlink:href="classconfigurator_1_1ConfigurationSetTelegramWebhookException.html" target="_top" xlink:title=" ">
<polygon fill="white" stroke="transparent" points="1003.5,-60 839.5,-60 839.5,0 1003.5,0 1003.5,-60"/>
<text text-anchor="start" x="844.5" y="-48" font-family="Helvetica,sans-Serif" font-size="10.00">configurator.Configuration</text>
<text text-anchor="start" x="844.5" y="-37" font-family="Helvetica,sans-Serif" font-size="10.00">SetTelegramWebhookException</text>
<text text-anchor="start" x="919.5" y="-22" font-family="Helvetica,sans-Serif" font-size="10.00"> </text>
<text text-anchor="start" x="919.5" y="-7" font-family="Helvetica,sans-Serif" font-size="10.00"> </text>
<polygon fill="#666666" stroke="#666666" points="839.5,-32 839.5,-32 1003.5,-32 1003.5,-32 839.5,-32"/>
<polygon fill="#666666" stroke="#666666" points="839.5,-17 839.5,-17 1003.5,-17 1003.5,-17 839.5,-17"/>
<polygon fill="none" stroke="#666666" points="839.5,0 839.5,-60 1003.5,-60 1003.5,0 839.5,0"/>
</a>
</g>
</g>
<!-- Node1&#45;&gt;Node9 -->
<g id="edge8_Node000001_Node000009" class="edge">
<title>Node1&#45;&gt;Node9</title>
<g id="a_edge8_Node000001_Node000009"><a xlink:title=" ">
<path fill="none" stroke="#63b8ff" d="M805.01,-91.16C824.74,-80.98 846.2,-69.89 865.26,-60.05"/>
<polygon fill="none" stroke="#63b8ff" points="803.37,-88.07 796.09,-95.77 806.58,-94.29 803.37,-88.07"/>
</a>
</g>
</g>
<!-- Node10 -->
<g id="Node000010" class="node">
<title>Node10</title>
<g id="a_Node000010"><a xlink:href="classconfigurator_1_1ConfigurationStartNgrokException.html" target="_top" xlink:title=" ">
<polygon fill="white" stroke="transparent" points="1159,-60 1022,-60 1022,0 1159,0 1159,-60"/>
<text text-anchor="start" x="1027.5" y="-48" font-family="Helvetica,sans-Serif" font-size="10.00">configurator.Configuration</text>
<text text-anchor="start" x="1040.5" y="-37" font-family="Helvetica,sans-Serif" font-size="10.00">StartNgrokException</text>
<text text-anchor="start" x="1089" y="-22" font-family="Helvetica,sans-Serif" font-size="10.00"> </text>
<text text-anchor="start" x="1089" y="-7" font-family="Helvetica,sans-Serif" font-size="10.00"> </text>
<polygon fill="#666666" stroke="#666666" points="1022.5,-32 1022.5,-32 1159.5,-32 1159.5,-32 1022.5,-32"/>
<polygon fill="#666666" stroke="#666666" points="1022.5,-17 1022.5,-17 1159.5,-17 1159.5,-17 1022.5,-17"/>
<polygon fill="none" stroke="#666666" points="1022,0 1022,-60 1159,-60 1159,0 1022,0"/>
</a>
</g>
</g>
<!-- Node1&#45;&gt;Node10 -->
<g id="edge9_Node000001_Node000010" class="edge">
<title>Node1&#45;&gt;Node10</title>
<g id="a_edge9_Node000001_Node000010"><a xlink:title=" ">
<path fill="none" stroke="#63b8ff" d="M818.29,-108.91C873.19,-97.06 947.88,-79.63 1012.5,-60 1015.54,-59.08 1018.64,-58.1 1021.75,-57.08"/>
<polygon fill="none" stroke="#63b8ff" points="817.32,-105.54 808.28,-111.06 818.79,-112.39 817.32,-105.54"/>
</a>
</g>
</g>
<!-- Node11 -->
<g id="Node000011" class="node">
<title>Node11</title>
<g id="a_Node000011"><a xlink:href="classconfigurator_1_1ConfigurationStopNgrokException.html" target="_top" xlink:title=" ">
<polygon fill="white" stroke="transparent" points="1314,-60 1177,-60 1177,0 1314,0 1314,-60"/>
<text text-anchor="start" x="1182.5" y="-48" font-family="Helvetica,sans-Serif" font-size="10.00">configurator.Configuration</text>
<text text-anchor="start" x="1196" y="-37" font-family="Helvetica,sans-Serif" font-size="10.00">StopNgrokException</text>
<text text-anchor="start" x="1244" y="-22" font-family="Helvetica,sans-Serif" font-size="10.00"> </text>
<text text-anchor="start" x="1244" y="-7" font-family="Helvetica,sans-Serif" font-size="10.00"> </text>
<polygon fill="#666666" stroke="#666666" points="1177.5,-32 1177.5,-32 1314.5,-32 1314.5,-32 1177.5,-32"/>
<polygon fill="#666666" stroke="#666666" points="1177.5,-17 1177.5,-17 1314.5,-17 1314.5,-17 1177.5,-17"/>
<polygon fill="none" stroke="#666666" points="1177,0 1177,-60 1314,-60 1314,0 1177,0"/>
</a>
</g>
</g>
<!-- Node1&#45;&gt;Node11 -->
<g id="edge10_Node000001_Node000011" class="edge">
<title>Node1&#45;&gt;Node11</title>
<g id="a_edge10_Node000001_Node000011"><a xlink:title=" ">
<path fill="none" stroke="#63b8ff" d="M818.05,-118.09C904.84,-109.31 1048.26,-91.38 1168.5,-60 1171.26,-59.28 1174.07,-58.49 1176.88,-57.66"/>
<polygon fill="none" stroke="#63b8ff" points="817.61,-114.62 808.01,-119.09 818.3,-121.58 817.61,-114.62"/>
</a>
</g>
</g>
<!-- Node12 -->
<g id="Node000012" class="node">
<title>Node12</title>
<g id="a_Node000012"><a xlink:href="classconfigurator_1_1ConfigurationVerifyNgrokException.html" target="_top" xlink:title=" ">
<polygon fill="white" stroke="transparent" points="1469,-60 1332,-60 1332,0 1469,0 1469,-60"/>
<text text-anchor="start" x="1337.5" y="-48" font-family="Helvetica,sans-Serif" font-size="10.00">configurator.Configuration</text>
<text text-anchor="start" x="1348" y="-37" font-family="Helvetica,sans-Serif" font-size="10.00">VerifyNgrokException</text>
<text text-anchor="start" x="1399" y="-22" font-family="Helvetica,sans-Serif" font-size="10.00"> </text>
<text text-anchor="start" x="1399" y="-7" font-family="Helvetica,sans-Serif" font-size="10.00"> </text>
<polygon fill="#666666" stroke="#666666" points="1332.5,-32 1332.5,-32 1469.5,-32 1469.5,-32 1332.5,-32"/>
<polygon fill="#666666" stroke="#666666" points="1332.5,-17 1332.5,-17 1469.5,-17 1469.5,-17 1332.5,-17"/>
<polygon fill="none" stroke="#666666" points="1332,0 1332,-60 1469,-60 1469,0 1332,0"/>
</a>
</g>
</g>
<!-- Node1&#45;&gt;Node12 -->
<g id="edge11_Node000001_Node000012" class="edge">
<title>Node1&#45;&gt;Node12</title>
<g id="a_edge11_Node000001_Node000012"><a xlink:title=" ">
<path fill="none" stroke="#63b8ff" d="M818.65,-122.43C931.95,-117.36 1146.26,-102.53 1323.5,-60 1326.28,-59.33 1329.09,-58.59 1331.92,-57.8"/>
<polygon fill="none" stroke="#63b8ff" points="818.18,-118.95 808.34,-122.88 818.48,-125.94 818.18,-118.95"/>
</a>
</g>
</g>
<!-- Node2 -->
<g id="Node000002" class="node">
<title>Node2</title>
<g id="a_Node000002"><a xlink:href="classexception_1_1ChatbotException.html" target="_top" xlink:title=" ">
<polygon fill="white" stroke="transparent" points="864.5,-487 614.5,-487 614.5,-192 864.5,-192 864.5,-487"/>
<text text-anchor="start" x="670.5" y="-474.5" font-family="Helvetica,sans-Serif" font-size="10.00">exception.ChatbotException</text>
<text text-anchor="start" x="618.5" y="-459.5" font-family="Helvetica,sans-Serif" font-size="10.00">+</text>
<text text-anchor="start" x="631.5" y="-459.5" font-family="Helvetica,sans-Serif" font-size="10.00">cause</text>
<text text-anchor="start" x="618.5" y="-444.5" font-family="Helvetica,sans-Serif" font-size="10.00">+</text>
<text text-anchor="start" x="631.5" y="-444.5" font-family="Helvetica,sans-Serif" font-size="10.00">code</text>
<text text-anchor="start" x="618.5" y="-429.5" font-family="Helvetica,sans-Serif" font-size="10.00">+</text>
<text text-anchor="start" x="631.5" y="-429.5" font-family="Helvetica,sans-Serif" font-size="10.00">filename</text>
<text text-anchor="start" x="618.5" y="-414.5" font-family="Helvetica,sans-Serif" font-size="10.00">+</text>
<text text-anchor="start" x="631.5" y="-414.5" font-family="Helvetica,sans-Serif" font-size="10.00">lineno</text>
<text text-anchor="start" x="618.5" y="-399.5" font-family="Helvetica,sans-Serif" font-size="10.00">+</text>
<text text-anchor="start" x="631.5" y="-399.5" font-family="Helvetica,sans-Serif" font-size="10.00">message</text>
<text text-anchor="start" x="618.5" y="-384.5" font-family="Helvetica,sans-Serif" font-size="10.00">+</text>
<text text-anchor="start" x="631.5" y="-384.5" font-family="Helvetica,sans-Serif" font-size="10.00">severity</text>
<text text-anchor="start" x="618.5" y="-369.5" font-family="Helvetica,sans-Serif" font-size="10.00">+</text>
<text text-anchor="start" x="631.5" y="-369.5" font-family="Helvetica,sans-Serif" font-size="10.00">traceback</text>
<text text-anchor="start" x="618.5" y="-354.5" font-family="Helvetica,sans-Serif" font-size="10.00">+</text>
<text text-anchor="start" x="631.5" y="-354.5" font-family="Helvetica,sans-Serif" font-size="10.00">type</text>
<text text-anchor="start" x="618.5" y="-339.5" font-family="Helvetica,sans-Serif" font-size="10.00">+</text>
<text text-anchor="start" x="631.5" y="-339.5" font-family="Helvetica,sans-Serif" font-size="10.00">SEVERITY_TO_LOGGING</text>
<text text-anchor="start" x="618.5" y="-324.5" font-family="Helvetica,sans-Serif" font-size="10.00">+</text>
<text text-anchor="start" x="631.5" y="-324.5" font-family="Helvetica,sans-Serif" font-size="10.00">__init__(self, &quot;Chatbot</text>
<text text-anchor="start" x="631.5" y="-313.5" font-family="Helvetica,sans-Serif" font-size="10.00">Exception.ChatbotExceptionCode&quot;</text>
<text text-anchor="start" x="631.5" y="-302.5" font-family="Helvetica,sans-Serif" font-size="10.00"> code=None, str message=None,</text>
<text text-anchor="start" x="631.5" y="-291.5" font-family="Helvetica,sans-Serif" font-size="10.00"> &quot;ChatbotException.ChatbotExceptionSeverity&quot;</text>
<text text-anchor="start" x="631.5" y="-280.5" font-family="Helvetica,sans-Serif" font-size="10.00"> severity=None, str filename=None, int</text>
<text text-anchor="start" x="631.5" y="-269.5" font-family="Helvetica,sans-Serif" font-size="10.00"> lineno=None, Exception cause=None, bool</text>
<text text-anchor="start" x="631.5" y="-258.5" font-family="Helvetica,sans-Serif" font-size="10.00"> include_trace=True)</text>
<text text-anchor="start" x="618.5" y="-243.5" font-family="Helvetica,sans-Serif" font-size="10.00">+</text>
<text text-anchor="start" x="631.5" y="-243.5" font-family="Helvetica,sans-Serif" font-size="10.00">__repr__(self)</text>
<text text-anchor="start" x="618.5" y="-228.5" font-family="Helvetica,sans-Serif" font-size="10.00">+</text>
<text text-anchor="start" x="631.5" y="-228.5" font-family="Helvetica,sans-Serif" font-size="10.00">__str__(self)</text>
<text text-anchor="start" x="618.5" y="-213.5" font-family="Helvetica,sans-Serif" font-size="10.00">+</text>
<text text-anchor="start" x="631.5" y="-213.5" font-family="Helvetica,sans-Serif" font-size="10.00">to_dict(self)</text>
<text text-anchor="start" x="618.5" y="-198.5" font-family="Helvetica,sans-Serif" font-size="10.00">+</text>
<text text-anchor="start" x="631.5" y="-198.5" font-family="Helvetica,sans-Serif" font-size="10.00">to_json(self)</text>
<polygon fill="#666666" stroke="#666666" points="614.5,-469.5 614.5,-469.5 864.5,-469.5 864.5,-469.5 614.5,-469.5"/>
<polygon fill="#666666" stroke="#666666" points="614.5,-334.5 614.5,-334.5 629.5,-334.5 629.5,-334.5 614.5,-334.5"/>
<polygon fill="#666666" stroke="#666666" points="629.5,-334.5 629.5,-334.5 864.5,-334.5 864.5,-334.5 629.5,-334.5"/>
<polygon fill="none" stroke="#666666" points="614.5,-192 614.5,-487 864.5,-487 864.5,-192 614.5,-192"/>
</a>
</g>
</g>
<!-- Node2&#45;&gt;Node1 -->
<g id="edge1_Node000001_Node000002" class="edge">
<title>Node2&#45;&gt;Node1</title>
<g id="a_edge1_Node000001_Node000002"><a xlink:title=" ">
<path fill="none" stroke="#63b8ff" d="M739.5,-181.83C739.5,-172.4 739.5,-163.68 739.5,-156.09"/>
<polygon fill="none" stroke="#63b8ff" points="736,-181.89 739.5,-191.89 743,-181.89 736,-181.89"/>
</a>
</g>
</g>
<!-- Node3 -->
<g id="Node000003" class="node">
<title>Node3</title>
<g id="a_Node000003"><a xlink:title=" ">
<polygon fill="white" stroke="transparent" points="769,-572 710,-572 710,-523 769,-523 769,-572"/>
<text text-anchor="start" x="715.5" y="-559.5" font-family="Helvetica,sans-Serif" font-size="10.00">Exception</text>
<text text-anchor="start" x="738" y="-544.5" font-family="Helvetica,sans-Serif" font-size="10.00"> </text>
<text text-anchor="start" x="738" y="-529.5" font-family="Helvetica,sans-Serif" font-size="10.00"> </text>
<polygon fill="#666666" stroke="#666666" points="710.5,-554.5 710.5,-554.5 769.5,-554.5 769.5,-554.5 710.5,-554.5"/>
<polygon fill="#666666" stroke="#666666" points="710.5,-539.5 710.5,-539.5 769.5,-539.5 769.5,-539.5 710.5,-539.5"/>
<polygon fill="none" stroke="#666666" points="710,-523 710,-572 769,-572 769,-523 710,-523"/>
</a>
</g>
</g>
<!-- Node3&#45;&gt;Node2 -->
<g id="edge2_Node000002_Node000003" class="edge">
<title>Node3&#45;&gt;Node2</title>
<g id="a_edge2_Node000002_Node000003"><a xlink:title=" ">
<path fill="none" stroke="#63b8ff" d="M739.5,-512.71C739.5,-505.05 739.5,-496.44 739.5,-487.26"/>
<polygon fill="none" stroke="#63b8ff" points="736,-512.87 739.5,-522.87 743,-512.87 736,-512.87"/>
</a>
</g>
</g>
</g>
</svg>
