<?xml version="1.0" encoding="UTF-8" standalone="no"?>
<!DOCTYPE svg PUBLIC "-//W3C//DTD SVG 1.1//EN"
 "http://www.w3.org/Graphics/SVG/1.1/DTD/svg11.dtd">
<!-- Generated by graphviz version 2.43.0 (0)
 -->
<!-- Title: bot.BotManagerException Pages: 1 -->
<svg width="865pt" height="569pt"
 viewBox="0.00 0.00 864.50 569.00" xmlns="http://www.w3.org/2000/svg" xmlns:xlink="http://www.w3.org/1999/xlink">
<g id="graph0" class="graph" transform="scale(1 1) rotate(0) translate(4 565)">
<title>bot.BotManagerException</title>
<!-- Node1 -->
<g id="Node000001" class="node">
<title>Node1</title>
<g id="a_Node000001"><a xlink:title=" ">
<polygon fill="#999999" stroke="transparent" points="481,-145 344,-145 344,-96 481,-96 481,-145"/>
<text text-anchor="start" x="349.5" y="-132.5" font-family="Helvetica,sans-Serif" font-size="10.00">bot.BotManagerException</text>
<text text-anchor="start" x="411" y="-117.5" font-family="Helvetica,sans-Serif" font-size="10.00"> </text>
<text text-anchor="start" x="411" y="-102.5" font-family="Helvetica,sans-Serif" font-size="10.00"> </text>
<polygon fill="#666666" stroke="#666666" points="344.5,-127.5 344.5,-127.5 481.5,-127.5 481.5,-127.5 344.5,-127.5"/>
<polygon fill="#666666" stroke="#666666" points="344.5,-112.5 344.5,-112.5 481.5,-112.5 481.5,-112.5 344.5,-112.5"/>
<polygon fill="none" stroke="#666666" points="344,-96 344,-145 481,-145 481,-96 344,-96"/>
</a>
</g>
</g>
<!-- Node4 -->
<g id="Node000004" class="node">
<title>Node4</title>
<g id="a_Node000004"><a xlink:href="classbot_1_1BotManagerAliveCheckException.html" target="_top" xlink:title=" ">
<polygon fill="white" stroke="transparent" points="143,-60 0,-60 0,0 143,0 143,-60"/>
<text text-anchor="start" x="5.5" y="-48" font-family="Helvetica,sans-Serif" font-size="10.00">bot.BotManagerAliveCheck</text>
<text text-anchor="start" x="47.5" y="-37" font-family="Helvetica,sans-Serif" font-size="10.00">Exception</text>
<text text-anchor="start" x="70" y="-22" font-family="Helvetica,sans-Serif" font-size="10.00"> </text>
<text text-anchor="start" x="70" y="-7" font-family="Helvetica,sans-Serif" font-size="10.00"> </text>
<polygon fill="#666666" stroke="#666666" points="0.5,-32 0.5,-32 143.5,-32 143.5,-32 0.5,-32"/>
<polygon fill="#666666" stroke="#666666" points="0.5,-17 0.5,-17 143.5,-17 143.5,-17 0.5,-17"/>
<polygon fill="none" stroke="#666666" points="0,0 0,-60 143,-60 143,0 0,0"/>
</a>
</g>
</g>
<!-- Node1&#45;&gt;Node4 -->
<g id="edge3_Node000001_Node000004" class="edge">
<title>Node1&#45;&gt;Node4</title>
<g id="a_edge3_Node000001_Node000004"><a xlink:title=" ">
<path fill="none" stroke="#63b8ff" d="M333.9,-104.23C281.75,-93.45 212.03,-77.8 151.5,-60 148.81,-59.21 146.07,-58.37 143.32,-57.51"/>
<polygon fill="none" stroke="#63b8ff" points="333.26,-107.67 343.76,-106.25 334.67,-100.81 333.26,-107.67"/>
</a>
</g>
</g>
<!-- Node5 -->
<g id="Node000005" class="node">
<title>Node5</title>
<g id="a_Node000005"><a xlink:href="classbot_1_1BotManagerBotException.html" target="_top" xlink:title=" ">
<polygon fill="white" stroke="transparent" points="314,-54.5 161,-54.5 161,-5.5 314,-5.5 314,-54.5"/>
<text text-anchor="start" x="166.5" y="-42" font-family="Helvetica,sans-Serif" font-size="10.00">bot.BotManagerBotException</text>
<text text-anchor="start" x="236" y="-27" font-family="Helvetica,sans-Serif" font-size="10.00"> </text>
<text text-anchor="start" x="236" y="-12" font-family="Helvetica,sans-Serif" font-size="10.00"> </text>
<polygon fill="#666666" stroke="#666666" points="161.5,-37 161.5,-37 314.5,-37 314.5,-37 161.5,-37"/>
<polygon fill="#666666" stroke="#666666" points="161.5,-22 161.5,-22 314.5,-22 314.5,-22 161.5,-22"/>
<polygon fill="none" stroke="#666666" points="161,-5.5 161,-54.5 314,-54.5 314,-5.5 161,-5.5"/>
</a>
</g>
</g>
<!-- Node1&#45;&gt;Node5 -->
<g id="edge4_Node000001_Node000005" class="edge">
<title>Node1&#45;&gt;Node5</title>
<g id="a_edge4_Node000001_Node000005"><a xlink:title=" ">
<path fill="none" stroke="#63b8ff" d="M356.52,-91.19C333.21,-79.4 306.45,-65.87 284.22,-54.63"/>
<polygon fill="none" stroke="#63b8ff" points="355.1,-94.39 365.6,-95.78 358.26,-88.15 355.1,-94.39"/>
</a>
</g>
</g>
<!-- Node6 -->
<g id="Node000006" class="node">
<title>Node6</title>
<g id="a_Node000006"><a xlink:href="classbot_1_1BotManagerStartException.html" target="_top" xlink:title=" ">
<polygon fill="white" stroke="transparent" points="492.5,-54.5 332.5,-54.5 332.5,-5.5 492.5,-5.5 492.5,-54.5"/>
<text text-anchor="start" x="337.5" y="-42" font-family="Helvetica,sans-Serif" font-size="10.00">bot.BotManagerStartException</text>
<text text-anchor="start" x="410.5" y="-27" font-family="Helvetica,sans-Serif" font-size="10.00"> </text>
<text text-anchor="start" x="410.5" y="-12" font-family="Helvetica,sans-Serif" font-size="10.00"> </text>
<polygon fill="#666666" stroke="#666666" points="332.5,-37 332.5,-37 492.5,-37 492.5,-37 332.5,-37"/>
<polygon fill="#666666" stroke="#666666" points="332.5,-22 332.5,-22 492.5,-22 492.5,-22 332.5,-22"/>
<polygon fill="none" stroke="#666666" points="332.5,-5.5 332.5,-54.5 492.5,-54.5 492.5,-5.5 332.5,-5.5"/>
</a>
</g>
</g>
<!-- Node1&#45;&gt;Node6 -->
<g id="edge5_Node000001_Node000006" class="edge">
<title>Node1&#45;&gt;Node6</title>
<g id="a_edge5_Node000001_Node000006"><a xlink:title=" ">
<path fill="none" stroke="#63b8ff" d="M412.5,-85.48C412.5,-75.24 412.5,-64.21 412.5,-54.78"/>
<polygon fill="none" stroke="#63b8ff" points="409,-85.78 412.5,-95.78 416,-85.78 409,-85.78"/>
</a>
</g>
</g>
<!-- Node7 -->
<g id="Node000007" class="node">
<title>Node7</title>
<g id="a_Node000007"><a xlink:href="classbot_1_1BotManagerStopException.html" target="_top" xlink:title=" ">
<polygon fill="white" stroke="transparent" points="668.5,-54.5 510.5,-54.5 510.5,-5.5 668.5,-5.5 668.5,-54.5"/>
<text text-anchor="start" x="515.5" y="-42" font-family="Helvetica,sans-Serif" font-size="10.00">bot.BotManagerStopException</text>
<text text-anchor="start" x="587.5" y="-27" font-family="Helvetica,sans-Serif" font-size="10.00"> </text>
<text text-anchor="start" x="587.5" y="-12" font-family="Helvetica,sans-Serif" font-size="10.00"> </text>
<polygon fill="#666666" stroke="#666666" points="510.5,-37 510.5,-37 668.5,-37 668.5,-37 510.5,-37"/>
<polygon fill="#666666" stroke="#666666" points="510.5,-22 510.5,-22 668.5,-22 668.5,-22 510.5,-22"/>
<polygon fill="none" stroke="#666666" points="510.5,-5.5 510.5,-54.5 668.5,-54.5 668.5,-5.5 510.5,-5.5"/>
</a>
</g>
</g>
<!-- Node1&#45;&gt;Node7 -->
<g id="edge6_Node000001_Node000007" class="edge">
<title>Node1&#45;&gt;Node7</title>
<g id="a_edge6_Node000001_Node000007"><a xlink:title=" ">
<path fill="none" stroke="#63b8ff" d="M469.12,-91.19C492.7,-79.4 519.76,-65.87 542.24,-54.63"/>
<polygon fill="none" stroke="#63b8ff" points="467.31,-88.18 459.93,-95.78 470.44,-94.44 467.31,-88.18"/>
</a>
</g>
</g>
<!-- Node8 -->
<g id="Node000008" class="node">
<title>Node8</title>
<g id="a_Node000008"><a xlink:href="classbot_1_1BotManagerThreadException.html" target="_top" xlink:title=" ">
<polygon fill="white" stroke="transparent" points="856.5,-54.5 686.5,-54.5 686.5,-5.5 856.5,-5.5 856.5,-54.5"/>
<text text-anchor="start" x="691.5" y="-42" font-family="Helvetica,sans-Serif" font-size="10.00">bot.BotManagerThreadException</text>
<text text-anchor="start" x="769.5" y="-27" font-family="Helvetica,sans-Serif" font-size="10.00"> </text>
<text text-anchor="start" x="769.5" y="-12" font-family="Helvetica,sans-Serif" font-size="10.00"> </text>
<polygon fill="#666666" stroke="#666666" points="686.5,-37 686.5,-37 856.5,-37 856.5,-37 686.5,-37"/>
<polygon fill="#666666" stroke="#666666" points="686.5,-22 686.5,-22 856.5,-22 856.5,-22 686.5,-22"/>
<polygon fill="none" stroke="#666666" points="686.5,-5.5 686.5,-54.5 856.5,-54.5 856.5,-5.5 686.5,-5.5"/>
</a>
</g>
</g>
<!-- Node1&#45;&gt;Node8 -->
<g id="edge7_Node000001_Node000008" class="edge">
<title>Node1&#45;&gt;Node8</title>
<g id="a_edge7_Node000001_Node000008"><a xlink:title=" ">
<path fill="none" stroke="#63b8ff" d="M491.21,-103.52C544.14,-92.36 615.32,-76.54 677.5,-60 683.85,-58.31 690.42,-56.47 697,-54.57"/>
<polygon fill="none" stroke="#63b8ff" points="490.28,-100.14 481.22,-105.62 491.72,-106.99 490.28,-100.14"/>
</a>
</g>
</g>
<!-- Node2 -->
<g id="Node000002" class="node">
<title>Node2</title>
<g id="a_Node000002"><a xlink:href="classexception_1_1ChatbotException.html" target="_top" xlink:title=" ">
<polygon fill="white" stroke="transparent" points="537.5,-476 287.5,-476 287.5,-181 537.5,-181 537.5,-476"/>
<text text-anchor="start" x="343.5" y="-463.5" font-family="Helvetica,sans-Serif" font-size="10.00">exception.ChatbotException</text>
<text text-anchor="start" x="291.5" y="-448.5" font-family="Helvetica,sans-Serif" font-size="10.00">+</text>
<text text-anchor="start" x="304.5" y="-448.5" font-family="Helvetica,sans-Serif" font-size="10.00">cause</text>
<text text-anchor="start" x="291.5" y="-433.5" font-family="Helvetica,sans-Serif" font-size="10.00">+</text>
<text text-anchor="start" x="304.5" y="-433.5" font-family="Helvetica,sans-Serif" font-size="10.00">code</text>
<text text-anchor="start" x="291.5" y="-418.5" font-family="Helvetica,sans-Serif" font-size="10.00">+</text>
<text text-anchor="start" x="304.5" y="-418.5" font-family="Helvetica,sans-Serif" font-size="10.00">filename</text>
<text text-anchor="start" x="291.5" y="-403.5" font-family="Helvetica,sans-Serif" font-size="10.00">+</text>
<text text-anchor="start" x="304.5" y="-403.5" font-family="Helvetica,sans-Serif" font-size="10.00">lineno</text>
<text text-anchor="start" x="291.5" y="-388.5" font-family="Helvetica,sans-Serif" font-size="10.00">+</text>
<text text-anchor="start" x="304.5" y="-388.5" font-family="Helvetica,sans-Serif" font-size="10.00">message</text>
<text text-anchor="start" x="291.5" y="-373.5" font-family="Helvetica,sans-Serif" font-size="10.00">+</text>
<text text-anchor="start" x="304.5" y="-373.5" font-family="Helvetica,sans-Serif" font-size="10.00">severity</text>
<text text-anchor="start" x="291.5" y="-358.5" font-family="Helvetica,sans-Serif" font-size="10.00">+</text>
<text text-anchor="start" x="304.5" y="-358.5" font-family="Helvetica,sans-Serif" font-size="10.00">traceback</text>
<text text-anchor="start" x="291.5" y="-343.5" font-family="Helvetica,sans-Serif" font-size="10.00">+</text>
<text text-anchor="start" x="304.5" y="-343.5" font-family="Helvetica,sans-Serif" font-size="10.00">type</text>
<text text-anchor="start" x="291.5" y="-328.5" font-family="Helvetica,sans-Serif" font-size="10.00">+</text>
<text text-anchor="start" x="304.5" y="-328.5" font-family="Helvetica,sans-Serif" font-size="10.00">SEVERITY_TO_LOGGING</text>
<text text-anchor="start" x="291.5" y="-313.5" font-family="Helvetica,sans-Serif" font-size="10.00">+</text>
<text text-anchor="start" x="304.5" y="-313.5" font-family="Helvetica,sans-Serif" font-size="10.00">__init__(self, &quot;Chatbot</text>
<text text-anchor="start" x="304.5" y="-302.5" font-family="Helvetica,sans-Serif" font-size="10.00">Exception.ChatbotExceptionCode&quot;</text>
<text text-anchor="start" x="304.5" y="-291.5" font-family="Helvetica,sans-Serif" font-size="10.00"> code=None, str message=None,</text>
<text text-anchor="start" x="304.5" y="-280.5" font-family="Helvetica,sans-Serif" font-size="10.00"> &quot;ChatbotException.ChatbotExceptionSeverity&quot;</text>
<text text-anchor="start" x="304.5" y="-269.5" font-family="Helvetica,sans-Serif" font-size="10.00"> severity=None, str filename=None, int</text>
<text text-anchor="start" x="304.5" y="-258.5" font-family="Helvetica,sans-Serif" font-size="10.00"> lineno=None, Exception cause=None, bool</text>
<text text-anchor="start" x="304.5" y="-247.5" font-family="Helvetica,sans-Serif" font-size="10.00"> include_trace=True)</text>
<text text-anchor="start" x="291.5" y="-232.5" font-family="Helvetica,sans-Serif" font-size="10.00">+</text>
<text text-anchor="start" x="304.5" y="-232.5" font-family="Helvetica,sans-Serif" font-size="10.00">__repr__(self)</text>
<text text-anchor="start" x="291.5" y="-217.5" font-family="Helvetica,sans-Serif" font-size="10.00">+</text>
<text text-anchor="start" x="304.5" y="-217.5" font-family="Helvetica,sans-Serif" font-size="10.00">__str__(self)</text>
<text text-anchor="start" x="291.5" y="-202.5" font-family="Helvetica,sans-Serif" font-size="10.00">+</text>
<text text-anchor="start" x="304.5" y="-202.5" font-family="Helvetica,sans-Serif" font-size="10.00">to_dict(self)</text>
<text text-anchor="start" x="291.5" y="-187.5" font-family="Helvetica,sans-Serif" font-size="10.00">+</text>
<text text-anchor="start" x="304.5" y="-187.5" font-family="Helvetica,sans-Serif" font-size="10.00">to_json(self)</text>
<polygon fill="#666666" stroke="#666666" points="287.5,-458.5 287.5,-458.5 537.5,-458.5 537.5,-458.5 287.5,-458.5"/>
<polygon fill="#666666" stroke="#666666" points="287.5,-323.5 287.5,-323.5 302.5,-323.5 302.5,-323.5 287.5,-323.5"/>
<polygon fill="#666666" stroke="#666666" points="302.5,-323.5 302.5,-323.5 537.5,-323.5 537.5,-323.5 302.5,-323.5"/>
<polygon fill="none" stroke="#666666" points="287.5,-181 287.5,-476 537.5,-476 537.5,-181 287.5,-181"/>
</a>
</g>
</g>
<!-- Node2&#45;&gt;Node1 -->
<g id="edge1_Node000001_Node000002" class="edge">
<title>Node2&#45;&gt;Node1</title>
<g id="a_edge1_Node000001_Node000002"><a xlink:title=" ">
<path fill="none" stroke="#63b8ff" d="M412.5,-170.58C412.5,-161.04 412.5,-152.35 412.5,-145.04"/>
<polygon fill="none" stroke="#63b8ff" points="409,-170.81 412.5,-180.81 416,-170.81 409,-170.81"/>
</a>
</g>
</g>
<!-- Node3 -->
<g id="Node000003" class="node">
<title>Node3</title>
<g id="a_Node000003"><a xlink:title=" ">
<polygon fill="white" stroke="transparent" points="442,-561 383,-561 383,-512 442,-512 442,-561"/>
<text text-anchor="start" x="388.5" y="-548.5" font-family="Helvetica,sans-Serif" font-size="10.00">Exception</text>
<text text-anchor="start" x="411" y="-533.5" font-family="Helvetica,sans-Serif" font-size="10.00"> </text>
<text text-anchor="start" x="411" y="-518.5" font-family="Helvetica,sans-Serif" font-size="10.00"> </text>
<polygon fill="#666666" stroke="#666666" points="383.5,-543.5 383.5,-543.5 442.5,-543.5 442.5,-543.5 383.5,-543.5"/>
<polygon fill="#666666" stroke="#666666" points="383.5,-528.5 383.5,-528.5 442.5,-528.5 442.5,-528.5 383.5,-528.5"/>
<polygon fill="none" stroke="#666666" points="383,-512 383,-561 442,-561 442,-512 383,-512"/>
</a>
</g>
</g>
<!-- Node3&#45;&gt;Node2 -->
<g id="edge2_Node000002_Node000003" class="edge">
<title>Node3&#45;&gt;Node2</title>
<g id="a_edge2_Node000002_Node000003"><a xlink:title=" ">
<path fill="none" stroke="#63b8ff" d="M412.5,-501.71C412.5,-494.05 412.5,-485.44 412.5,-476.26"/>
<polygon fill="none" stroke="#63b8ff" points="409,-501.87 412.5,-511.87 416,-501.87 409,-501.87"/>
</a>
</g>
</g>
</g>
</svg>
