<?xml version="1.0" encoding="UTF-8" standalone="no"?>
<!DOCTYPE svg PUBLIC "-//W3C//DTD SVG 1.1//EN"
 "http://www.w3.org/Graphics/SVG/1.1/DTD/svg11.dtd">
<!-- Generated by graphviz version 2.43.0 (0)
 -->
<!-- Title: configurator.ConfigurationException Pages: 1 -->
<!--zoomable 502 -->
<svg id="main" version="1.1" xmlns="http://www.w3.org/2000/svg" xmlns:xlink="http://www.w3.org/1999/xlink" xml:space="preserve" onload="init(evt)">
<style type="text/css"><![CDATA[
.edge:hover path { stroke: red; }
.edge:hover polygon { stroke: red; fill: red; }
]]></style>
<script type="text/javascript"><![CDATA[
var edges = document.getElementsByTagName('g');
if (edges && edges.length) {
  for (var i=0;i<edges.length;i++) {
    if (edges[i].id.substr(0,4)=='edge') {
      edges[i].setAttribute('class','edge');
    }
  }
}
]]></script>
        <defs>
                <circle id="rim" cx="0" cy="0" r="7"/>
                <circle id="rim2" cx="0" cy="0" r="3.5"/>
                <g id="zoomPlus">
                        <use xlink:href="#rim" fill="#404040">
                                <set attributeName="fill" to="#808080" begin="zoomplus.mouseover" end="zoomplus.mouseout"/>
                        </use>
                        <path d="M-4,0h8M0,-4v8" fill="none" stroke="white" stroke-width="1.5" pointer-events="none"/>
                </g>
                <g id="zoomMin">
                        <use xlink:href="#rim" fill="#404040">
                                <set attributeName="fill" to="#808080" begin="zoomminus.mouseover" end="zoomminus.mouseout"/>
                        </use>
                        <path d="M-4,0h8" fill="none" stroke="white" stroke-width="1.5" pointer-events="none"/>
                </g>
                <g id="dirArrow">
                        <path fill="none" stroke="white" stroke-width="1.5" d="M0,-3.0v7 M-2.5,-0.5L0,-3.0L2.5,-0.5"/>
                </g>
               <g id="resetDef">
                       <use xlink:href="#rim2" fill="#404040">
                               <set attributeName="fill" to="#808080" begin="reset.mouseover" end="reset.mouseout"/>
                       </use>
               </g>
        </defs>

<script type="text/javascript">
var viewWidth = 1542;
var viewHeight = 502;
var sectionId = 'dynsection-0';
</script>
<script xlink:href="svgpan.js"/>
<svg id="graph" class="graph">
<g id="viewport">
<title>configurator.ConfigurationException</title>
<!-- Node1 -->
<g id="node1" class="node">
<title>Node1</title>
<g id="a_node1"><a xlink:title=" ">
<polygon fill="#bfbfbf" stroke="black" points="698,-105.5 698,-173.5 843,-173.5 843,-105.5 698,-105.5"/>
<text text-anchor="start" x="706" y="-161.5" font-family="Helvetica,sans-Serif" font-size="10.00">configurator.Configuration</text>
<text text-anchor="middle" x="770.5" y="-150.5" font-family="Helvetica,sans-Serif" font-size="10.00">Exception</text>
<polyline fill="none" stroke="black" points="698,-143.5 843,-143.5 "/>
<text text-anchor="middle" x="770.5" y="-131.5" font-family="Helvetica,sans-Serif" font-size="10.00"> </text>
<polyline fill="none" stroke="black" points="698,-124.5 843,-124.5 "/>
<text text-anchor="middle" x="770.5" y="-112.5" font-family="Helvetica,sans-Serif" font-size="10.00"> </text>
</a>
</g>
</g>
<!-- Node4 -->
<g id="node4" class="node">
<title>Node4</title>
<g id="a_node4"><a xlink:href="classconfigurator_1_1ConfigurationCheckNgrokException.html" target="_top" xlink:title=" ">
<polygon fill="none" stroke="black" points="0,-0.5 0,-68.5 145,-68.5 145,-0.5 0,-0.5"/>
<text text-anchor="start" x="8" y="-56.5" font-family="Helvetica,sans-Serif" font-size="10.00">configurator.Configuration</text>
<text text-anchor="middle" x="72.5" y="-45.5" font-family="Helvetica,sans-Serif" font-size="10.00">CheckNgrokException</text>
<polyline fill="none" stroke="black" points="0,-38.5 145,-38.5 "/>
<text text-anchor="middle" x="72.5" y="-26.5" font-family="Helvetica,sans-Serif" font-size="10.00"> </text>
<polyline fill="none" stroke="black" points="0,-19.5 145,-19.5 "/>
<text text-anchor="middle" x="72.5" y="-7.5" font-family="Helvetica,sans-Serif" font-size="10.00"> </text>
</a>
</g>
</g>
<!-- Node1&#45;&gt;Node4 -->
<g id="edge3" class="edge">
<title>Node1&#45;&gt;Node4</title>
<path fill="none" stroke="midnightblue" d="M687.4,-136.49C567.64,-131.94 340.39,-117.15 153.5,-69 150.7,-68.28 147.87,-67.48 145.03,-66.62"/>
<polygon fill="none" stroke="midnightblue" points="687.47,-139.99 697.59,-136.86 687.73,-133 687.47,-139.99"/>
</g>
<!-- Node5 -->
<g id="node5" class="node">
<title>Node5</title>
<g id="a_node5"><a xlink:href="classconfigurator_1_1ConfigurationHTTPRequestExcpetion.html" target="_top" xlink:title=" ">
<polygon fill="none" stroke="black" points="163,-0.5 163,-68.5 308,-68.5 308,-0.5 163,-0.5"/>
<text text-anchor="start" x="171" y="-56.5" font-family="Helvetica,sans-Serif" font-size="10.00">configurator.Configuration</text>
<text text-anchor="middle" x="235.5" y="-45.5" font-family="Helvetica,sans-Serif" font-size="10.00">HTTPRequestExcpetion</text>
<polyline fill="none" stroke="black" points="163,-38.5 308,-38.5 "/>
<text text-anchor="middle" x="235.5" y="-26.5" font-family="Helvetica,sans-Serif" font-size="10.00"> </text>
<polyline fill="none" stroke="black" points="163,-19.5 308,-19.5 "/>
<text text-anchor="middle" x="235.5" y="-7.5" font-family="Helvetica,sans-Serif" font-size="10.00"> </text>
</a>
</g>
</g>
<!-- Node1&#45;&gt;Node5 -->
<g id="edge4" class="edge">
<title>Node1&#45;&gt;Node5</title>
<path fill="none" stroke="midnightblue" d="M687.73,-131.85C595.76,-123.07 443.46,-104.42 316.5,-69 313.71,-68.22 310.9,-67.38 308.07,-66.48"/>
<polygon fill="none" stroke="midnightblue" points="687.53,-135.34 697.82,-132.79 688.19,-128.37 687.53,-135.34"/>
</g>
<!-- Node6 -->
<g id="node6" class="node">
<title>Node6</title>
<g id="a_node6"><a xlink:href="classconfigurator_1_1ConfigurationHTTPRequestMethodExcpetion.html" target="_top" xlink:title=" ">
<polygon fill="none" stroke="black" points="326,-0.5 326,-68.5 493,-68.5 493,-0.5 326,-0.5"/>
<text text-anchor="start" x="334" y="-56.5" font-family="Helvetica,sans-Serif" font-size="10.00">configurator.Configuration</text>
<text text-anchor="middle" x="409.5" y="-45.5" font-family="Helvetica,sans-Serif" font-size="10.00">HTTPRequestMethodExcpetion</text>
<polyline fill="none" stroke="black" points="326,-38.5 493,-38.5 "/>
<text text-anchor="middle" x="409.5" y="-26.5" font-family="Helvetica,sans-Serif" font-size="10.00"> </text>
<polyline fill="none" stroke="black" points="326,-19.5 493,-19.5 "/>
<text text-anchor="middle" x="409.5" y="-7.5" font-family="Helvetica,sans-Serif" font-size="10.00"> </text>
</a>
</g>
</g>
<!-- Node1&#45;&gt;Node6 -->
<g id="edge5" class="edge">
<title>Node1&#45;&gt;Node6</title>
<path fill="none" stroke="midnightblue" d="M688.02,-119.19C634.74,-106.21 564.11,-88.04 502.5,-69 499.38,-68.04 496.22,-67.03 493.03,-66"/>
<polygon fill="none" stroke="midnightblue" points="687.22,-122.6 697.76,-121.56 688.87,-115.8 687.22,-122.6"/>
</g>
<!-- Node7 -->
<g id="node7" class="node">
<title>Node7</title>
<g id="a_node7"><a xlink:href="classconfigurator_1_1ConfigurationHTTPRequestRetryExcpetion.html" target="_top" xlink:title=" ">
<polygon fill="none" stroke="black" points="511.5,-0.5 511.5,-68.5 667.5,-68.5 667.5,-0.5 511.5,-0.5"/>
<text text-anchor="start" x="519.5" y="-56.5" font-family="Helvetica,sans-Serif" font-size="10.00">configurator.Configuration</text>
<text text-anchor="middle" x="589.5" y="-45.5" font-family="Helvetica,sans-Serif" font-size="10.00">HTTPRequestRetryExcpetion</text>
<polyline fill="none" stroke="black" points="511.5,-38.5 667.5,-38.5 "/>
<text text-anchor="middle" x="589.5" y="-26.5" font-family="Helvetica,sans-Serif" font-size="10.00"> </text>
<polyline fill="none" stroke="black" points="511.5,-19.5 667.5,-19.5 "/>
<text text-anchor="middle" x="589.5" y="-7.5" font-family="Helvetica,sans-Serif" font-size="10.00"> </text>
</a>
</g>
</g>
<!-- Node1&#45;&gt;Node7 -->
<g id="edge6" class="edge">
<title>Node1&#45;&gt;Node7</title>
<path fill="none" stroke="midnightblue" d="M703.38,-100.3C685.08,-89.89 665.41,-78.7 647.66,-68.59"/>
<polygon fill="none" stroke="midnightblue" points="701.81,-103.44 712.23,-105.34 705.27,-97.36 701.81,-103.44"/>
</g>
<!-- Node8 -->
<g id="node8" class="node">
<title>Node8</title>
<g id="a_node8"><a xlink:href="classconfigurator_1_1ConfigurationHTTPRequestTimeoutExcpetion.html" target="_top" xlink:title=" ">
<polygon fill="none" stroke="black" points="685.5,-0.5 685.5,-68.5 855.5,-68.5 855.5,-0.5 685.5,-0.5"/>
<text text-anchor="start" x="693.5" y="-56.5" font-family="Helvetica,sans-Serif" font-size="10.00">configurator.Configuration</text>
<text text-anchor="middle" x="770.5" y="-45.5" font-family="Helvetica,sans-Serif" font-size="10.00">HTTPRequestTimeoutExcpetion</text>
<polyline fill="none" stroke="black" points="685.5,-38.5 855.5,-38.5 "/>
<text text-anchor="middle" x="770.5" y="-26.5" font-family="Helvetica,sans-Serif" font-size="10.00"> </text>
<polyline fill="none" stroke="black" points="685.5,-19.5 855.5,-19.5 "/>
<text text-anchor="middle" x="770.5" y="-7.5" font-family="Helvetica,sans-Serif" font-size="10.00"> </text>
</a>
</g>
</g>
<!-- Node1&#45;&gt;Node8 -->
<g id="edge7" class="edge">
<title>Node1&#45;&gt;Node8</title>
<path fill="none" stroke="midnightblue" d="M770.5,-95.14C770.5,-86.26 770.5,-77.04 770.5,-68.59"/>
<polygon fill="none" stroke="midnightblue" points="767,-95.34 770.5,-105.34 774,-95.34 767,-95.34"/>
</g>
<!-- Node9 -->
<g id="node9" class="node">
<title>Node9</title>
<g id="a_node9"><a xlink:href="classconfigurator_1_1ConfigurationSetTelegramWebhookException.html" target="_top" xlink:title=" ">
<polygon fill="none" stroke="black" points="874,-0.5 874,-68.5 1045,-68.5 1045,-0.5 874,-0.5"/>
<text text-anchor="start" x="882" y="-56.5" font-family="Helvetica,sans-Serif" font-size="10.00">configurator.Configuration</text>
<text text-anchor="middle" x="959.5" y="-45.5" font-family="Helvetica,sans-Serif" font-size="10.00">SetTelegramWebhookException</text>
<polyline fill="none" stroke="black" points="874,-38.5 1045,-38.5 "/>
<text text-anchor="middle" x="959.5" y="-26.5" font-family="Helvetica,sans-Serif" font-size="10.00"> </text>
<polyline fill="none" stroke="black" points="874,-19.5 1045,-19.5 "/>
<text text-anchor="middle" x="959.5" y="-7.5" font-family="Helvetica,sans-Serif" font-size="10.00"> </text>
</a>
</g>
</g>
<!-- Node1&#45;&gt;Node9 -->
<g id="edge8" class="edge">
<title>Node1&#45;&gt;Node9</title>
<path fill="none" stroke="midnightblue" d="M840.12,-100.56C859.42,-90.04 880.2,-78.71 898.94,-68.5"/>
<polygon fill="none" stroke="midnightblue" points="838.19,-97.63 831.08,-105.49 841.54,-103.77 838.19,-97.63"/>
</g>
<!-- Node10 -->
<g id="node10" class="node">
<title>Node10</title>
<g id="a_node10"><a xlink:href="classconfigurator_1_1ConfigurationStartNgrokException.html" target="_top" xlink:title=" ">
<polygon fill="none" stroke="black" points="1063,-0.5 1063,-68.5 1208,-68.5 1208,-0.5 1063,-0.5"/>
<text text-anchor="start" x="1071" y="-56.5" font-family="Helvetica,sans-Serif" font-size="10.00">configurator.Configuration</text>
<text text-anchor="middle" x="1135.5" y="-45.5" font-family="Helvetica,sans-Serif" font-size="10.00">StartNgrokException</text>
<polyline fill="none" stroke="black" points="1063,-38.5 1208,-38.5 "/>
<text text-anchor="middle" x="1135.5" y="-26.5" font-family="Helvetica,sans-Serif" font-size="10.00"> </text>
<polyline fill="none" stroke="black" points="1063,-19.5 1208,-19.5 "/>
<text text-anchor="middle" x="1135.5" y="-7.5" font-family="Helvetica,sans-Serif" font-size="10.00"> </text>
</a>
</g>
</g>
<!-- Node1&#45;&gt;Node10 -->
<g id="edge9" class="edge">
<title>Node1&#45;&gt;Node10</title>
<path fill="none" stroke="midnightblue" d="M853.21,-121.75C910.37,-109.32 987.82,-90.81 1054.5,-69 1057.25,-68.1 1060.03,-67.15 1062.84,-66.16"/>
<polygon fill="none" stroke="midnightblue" points="852.17,-118.39 843.13,-123.92 853.65,-125.23 852.17,-118.39"/>
</g>
<!-- Node11 -->
<g id="node11" class="node">
<title>Node11</title>
<g id="a_node11"><a xlink:href="classconfigurator_1_1ConfigurationStopNgrokException.html" target="_top" xlink:title=" ">
<polygon fill="none" stroke="black" points="1226,-0.5 1226,-68.5 1371,-68.5 1371,-0.5 1226,-0.5"/>
<text text-anchor="start" x="1234" y="-56.5" font-family="Helvetica,sans-Serif" font-size="10.00">configurator.Configuration</text>
<text text-anchor="middle" x="1298.5" y="-45.5" font-family="Helvetica,sans-Serif" font-size="10.00">StopNgrokException</text>
<polyline fill="none" stroke="black" points="1226,-38.5 1371,-38.5 "/>
<text text-anchor="middle" x="1298.5" y="-26.5" font-family="Helvetica,sans-Serif" font-size="10.00"> </text>
<polyline fill="none" stroke="black" points="1226,-19.5 1371,-19.5 "/>
<text text-anchor="middle" x="1298.5" y="-7.5" font-family="Helvetica,sans-Serif" font-size="10.00"> </text>
</a>
</g>
</g>
<!-- Node1&#45;&gt;Node11 -->
<g id="edge10" class="edge">
<title>Node1&#45;&gt;Node11</title>
<path fill="none" stroke="midnightblue" d="M853.46,-131.56C944.16,-122.6 1093.16,-103.84 1217.5,-69 1220.28,-68.22 1223.1,-67.37 1225.93,-66.47"/>
<polygon fill="none" stroke="midnightblue" points="852.85,-128.1 843.24,-132.55 853.53,-135.07 852.85,-128.1"/>
</g>
<!-- Node12 -->
<g id="node12" class="node">
<title>Node12</title>
<g id="a_node12"><a xlink:href="classconfigurator_1_1ConfigurationVerifyNgrokException.html" target="_top" xlink:title=" ">
<polygon fill="none" stroke="black" points="1389,-0.5 1389,-68.5 1534,-68.5 1534,-0.5 1389,-0.5"/>
<text text-anchor="start" x="1397" y="-56.5" font-family="Helvetica,sans-Serif" font-size="10.00">configurator.Configuration</text>
<text text-anchor="middle" x="1461.5" y="-45.5" font-family="Helvetica,sans-Serif" font-size="10.00">VerifyNgrokException</text>
<polyline fill="none" stroke="black" points="1389,-38.5 1534,-38.5 "/>
<text text-anchor="middle" x="1461.5" y="-26.5" font-family="Helvetica,sans-Serif" font-size="10.00"> </text>
<polyline fill="none" stroke="black" points="1389,-19.5 1534,-19.5 "/>
<text text-anchor="middle" x="1461.5" y="-7.5" font-family="Helvetica,sans-Serif" font-size="10.00"> </text>
</a>
</g>
</g>
<!-- Node1&#45;&gt;Node12 -->
<g id="edge11" class="edge">
<title>Node1&#45;&gt;Node12</title>
<path fill="none" stroke="midnightblue" d="M853.14,-136.35C971.67,-131.65 1195.99,-116.66 1380.5,-69 1383.3,-68.28 1386.13,-67.48 1388.97,-66.61"/>
<polygon fill="none" stroke="midnightblue" points="852.91,-132.86 843.05,-136.74 853.18,-139.86 852.91,-132.86"/>
</g>
<!-- Node2 -->
<g id="node2" class="node">
<title>Node2</title>
<g id="a_node2"><a xlink:href="classexception_1_1ChatbotException.html" target="_top" xlink:title=" ">
<polygon fill="none" stroke="black" points="693.5,-210.5 693.5,-399.5 847.5,-399.5 847.5,-210.5 693.5,-210.5"/>
<text text-anchor="middle" x="770.5" y="-387.5" font-family="Helvetica,sans-Serif" font-size="10.00">exception.ChatbotException</text>
<polyline fill="none" stroke="black" points="693.5,-380.5 847.5,-380.5 "/>
<text text-anchor="start" x="701.5" y="-368.5" font-family="Helvetica,sans-Serif" font-size="10.00">+ cause</text>
<text text-anchor="start" x="701.5" y="-357.5" font-family="Helvetica,sans-Serif" font-size="10.00">+ code</text>
<text text-anchor="start" x="701.5" y="-346.5" font-family="Helvetica,sans-Serif" font-size="10.00">+ filename</text>
<text text-anchor="start" x="701.5" y="-335.5" font-family="Helvetica,sans-Serif" font-size="10.00">+ lineno</text>
<text text-anchor="start" x="701.5" y="-324.5" font-family="Helvetica,sans-Serif" font-size="10.00">+ message</text>
<text text-anchor="start" x="701.5" y="-313.5" font-family="Helvetica,sans-Serif" font-size="10.00">+ severity</text>
<text text-anchor="start" x="701.5" y="-302.5" font-family="Helvetica,sans-Serif" font-size="10.00">+ traceback</text>
<text text-anchor="start" x="701.5" y="-291.5" font-family="Helvetica,sans-Serif" font-size="10.00">+ type</text>
<text text-anchor="start" x="701.5" y="-280.5" font-family="Helvetica,sans-Serif" font-size="10.00">+ SEVERITY_TO_LOGGING</text>
<polyline fill="none" stroke="black" points="693.5,-273.5 847.5,-273.5 "/>
<text text-anchor="start" x="701.5" y="-261.5" font-family="Helvetica,sans-Serif" font-size="10.00">+ __init__()</text>
<text text-anchor="start" x="701.5" y="-250.5" font-family="Helvetica,sans-Serif" font-size="10.00">+ __repr__()</text>
<text text-anchor="start" x="701.5" y="-239.5" font-family="Helvetica,sans-Serif" font-size="10.00">+ __str__()</text>
<text text-anchor="start" x="701.5" y="-228.5" font-family="Helvetica,sans-Serif" font-size="10.00">+ to_dict()</text>
<text text-anchor="start" x="701.5" y="-217.5" font-family="Helvetica,sans-Serif" font-size="10.00">+ to_json()</text>
</a>
</g>
</g>
<!-- Node2&#45;&gt;Node1 -->
<g id="edge1" class="edge">
<title>Node2&#45;&gt;Node1</title>
<path fill="none" stroke="midnightblue" d="M770.5,-200.27C770.5,-190.75 770.5,-181.67 770.5,-173.58"/>
<polygon fill="none" stroke="midnightblue" points="767,-200.31 770.5,-210.31 774,-200.31 767,-200.31"/>
</g>
<!-- Node3 -->
<g id="node3" class="node">
<title>Node3</title>
<g id="a_node3"><a xlink:title=" ">
<polygon fill="none" stroke="#bfbfbf" points="738,-436.5 738,-493.5 803,-493.5 803,-436.5 738,-436.5"/>
<text text-anchor="middle" x="770.5" y="-481.5" font-family="Helvetica,sans-Serif" font-size="10.00">Exception</text>
<polyline fill="none" stroke="#bfbfbf" points="738,-474.5 803,-474.5 "/>
<text text-anchor="middle" x="770.5" y="-462.5" font-family="Helvetica,sans-Serif" font-size="10.00"> </text>
<polyline fill="none" stroke="#bfbfbf" points="738,-455.5 803,-455.5 "/>
<text text-anchor="middle" x="770.5" y="-443.5" font-family="Helvetica,sans-Serif" font-size="10.00"> </text>
</a>
</g>
</g>
<!-- Node3&#45;&gt;Node2 -->
<g id="edge2" class="edge">
<title>Node3&#45;&gt;Node2</title>
<path fill="none" stroke="midnightblue" d="M770.5,-426.22C770.5,-418.01 770.5,-408.99 770.5,-399.68"/>
<polygon fill="none" stroke="midnightblue" points="767,-426.48 770.5,-436.48 774,-426.48 767,-426.48"/>
</g>
</g>
</svg>
        <g id="navigator" transform="translate(0 0)" fill="#404254">
                <rect fill="#f2f5e9" fill-opacity="0.5" stroke="#606060" stroke-width=".5" x="0" y="0" width="60" height="60"/>
                <use id="zoomplus" xlink:href="#zoomPlus" x="17" y="9" onmousedown="handleZoom(evt,'in')"/>
                <use id="zoomminus" xlink:href="#zoomMin" x="42" y="9" onmousedown="handleZoom(evt,'out')"/>
                <use id="reset" xlink:href="#resetDef" x="30" y="36" onmousedown="handleReset()"/>
                <g id="arrowUp" xlink:href="#dirArrow" transform="translate(30 24)" onmousedown="handlePan(0,-1)">
                  <use xlink:href="#rim" fill="#404040">
                        <set attributeName="fill" to="#808080" begin="arrowUp.mouseover" end="arrowUp.mouseout"/>
                  </use>
                  <path fill="none" stroke="white" stroke-width="1.5" d="M0,-3.0v7 M-2.5,-0.5L0,-3.0L2.5,-0.5"/>
                </g>
                <g id="arrowRight" xlink:href="#dirArrow" transform="rotate(90) translate(36 -43)" onmousedown="handlePan(1,0)">
                  <use xlink:href="#rim" fill="#404040">
                        <set attributeName="fill" to="#808080" begin="arrowRight.mouseover" end="arrowRight.mouseout"/>
                  </use>
                  <path fill="none" stroke="white" stroke-width="1.5" d="M0,-3.0v7 M-2.5,-0.5L0,-3.0L2.5,-0.5"/>
                </g>
                <g id="arrowDown" xlink:href="#dirArrow" transform="rotate(180) translate(-30 -48)" onmousedown="handlePan(0,1)">
                  <use xlink:href="#rim" fill="#404040">
                        <set attributeName="fill" to="#808080" begin="arrowDown.mouseover" end="arrowDown.mouseout"/>
                  </use>
                  <path fill="none" stroke="white" stroke-width="1.5" d="M0,-3.0v7 M-2.5,-0.5L0,-3.0L2.5,-0.5"/>
                </g>
                <g id="arrowLeft" xlink:href="#dirArrow" transform="rotate(270) translate(-36 17)" onmousedown="handlePan(-1,0)">
                  <use xlink:href="#rim" fill="#404040">
                        <set attributeName="fill" to="#808080" begin="arrowLeft.mouseover" end="arrowLeft.mouseout"/>
                  </use>
                  <path fill="none" stroke="white" stroke-width="1.5" d="M0,-3.0v7 M-2.5,-0.5L0,-3.0L2.5,-0.5"/>
                </g>
        </g>
        <svg viewBox="0 0 15 15" width="100%" height="30px" preserveAspectRatio="xMaxYMin meet">
         <g id="arrow_out" transform="scale(0.3 0.3)">
          <a xlink:href="classconfigurator_1_1ConfigurationException__inherit__graph_org.svg" target="_base">
           <rect id="button" ry="5" rx="5" y="6" x="6" height="38" width="38"
                fill="#f2f5e9" fill-opacity="0.5" stroke="#606060" stroke-width="1.0"/>
           <path id="arrow"
             d="M 11.500037,31.436501 C 11.940474,20.09759 22.043105,11.32322 32.158766,21.979434 L 37.068811,17.246167 C 37.068811,17.246167 37.088388,32 37.088388,32 L 22.160133,31.978069 C 22.160133,31.978069 26.997745,27.140456 26.997745,27.140456 C 18.528582,18.264221 13.291696,25.230495 11.500037,31.436501 z"
             style="fill:#404040;"/>
          </a>
         </g>
        </svg>
</svg>
