<?xml version="1.0" encoding="UTF-8" standalone="no"?>
<!DOCTYPE svg PUBLIC "-//W3C//DTD SVG 1.1//EN"
 "http://www.w3.org/Graphics/SVG/1.1/DTD/svg11.dtd">
<!-- Generated by graphviz version 2.43.0 (0)
 -->
<!-- Title: env.Env Pages: 1 -->
<svg width="168pt" height="135pt"
 viewBox="0.00 0.00 168.00 135.00" xmlns="http://www.w3.org/2000/svg" xmlns:xlink="http://www.w3.org/1999/xlink">
<g id="graph0" class="graph" transform="scale(1 1) rotate(0) translate(4 131)">
<title>env.Env</title>
<!-- Node1 -->
<g id="Node000001" class="node">
<title>Node1</title>
<g id="a_Node000001"><a xlink:title=" ">
<polygon fill="#999999" stroke="transparent" points="160,-127 0,-127 0,0 160,0 160,-127"/>
<text text-anchor="start" x="60.5" y="-114.5" font-family="Helvetica,sans-Serif" font-size="10.00">env.Env</text>
<text text-anchor="start" x="78" y="-99.5" font-family="Helvetica,sans-Serif" font-size="10.00"> </text>
<text text-anchor="start" x="4" y="-84.5" font-family="Helvetica,sans-Serif" font-size="10.00">+</text>
<text text-anchor="start" x="17" y="-84.5" font-family="Helvetica,sans-Serif" font-size="10.00">__init__(self, str</text>
<text text-anchor="start" x="17" y="-73.5" font-family="Helvetica,sans-Serif" font-size="10.00"> env_file=&quot;chatbot.env&quot;)</text>
<text text-anchor="start" x="4" y="-58.5" font-family="Helvetica,sans-Serif" font-size="10.00">+</text>
<text text-anchor="start" x="17" y="-58.5" font-family="Helvetica,sans-Serif" font-size="10.00">check_env(self)</text>
<text text-anchor="start" x="4" y="-43.5" font-family="Helvetica,sans-Serif" font-size="10.00">#</text>
<text text-anchor="start" x="17" y="-43.5" font-family="Helvetica,sans-Serif" font-size="10.00">int _get_int(self,</text>
<text text-anchor="start" x="17" y="-32.5" font-family="Helvetica,sans-Serif" font-size="10.00"> str key, bool required=True)</text>
<text text-anchor="start" x="4" y="-17.5" font-family="Helvetica,sans-Serif" font-size="10.00">#</text>
<text text-anchor="start" x="17" y="-17.5" font-family="Helvetica,sans-Serif" font-size="10.00">str _get_str(self,</text>
<text text-anchor="start" x="17" y="-6.5" font-family="Helvetica,sans-Serif" font-size="10.00"> str key, bool required=True)</text>
<polygon fill="#666666" stroke="#666666" points="0,-109.5 0,-109.5 160,-109.5 160,-109.5 0,-109.5"/>
<polygon fill="#666666" stroke="#666666" points="0,-94.5 0,-94.5 160,-94.5 160,-94.5 0,-94.5"/>
<polygon fill="none" stroke="#666666" points="0,0 0,-127 160,-127 160,0 0,0"/>
</a>
</g>
</g>
</g>
</svg>
