<?xml version="1.0" encoding="UTF-8" standalone="no"?>
<!DOCTYPE svg PUBLIC "-//W3C//DTD SVG 1.1//EN"
 "http://www.w3.org/Graphics/SVG/1.1/DTD/svg11.dtd">
<!-- Generated by graphviz version 2.43.0 (0)
 -->
<!-- Title: bot.BotMessageException Pages: 1 -->
<svg width="1537pt" height="739pt"
 viewBox="0.00 0.00 1536.50 739.00" xmlns="http://www.w3.org/2000/svg" xmlns:xlink="http://www.w3.org/1999/xlink">
<g id="graph0" class="graph" transform="scale(1 1) rotate(0) translate(4 735)">
<title>bot.BotMessageException</title>
<!-- Node1 -->
<g id="Node000001" class="node">
<title>Node1</title>
<g id="a_Node000001"><a xlink:title=" ">
<polygon fill="#999999" stroke="transparent" points="930.5,-230 793.5,-230 793.5,-181 930.5,-181 930.5,-230"/>
<text text-anchor="start" x="799" y="-217.5" font-family="Helvetica,sans-Serif" font-size="10.00">bot.BotMessageException</text>
<text text-anchor="start" x="860.5" y="-202.5" font-family="Helvetica,sans-Serif" font-size="10.00"> </text>
<text text-anchor="start" x="860.5" y="-187.5" font-family="Helvetica,sans-Serif" font-size="10.00"> </text>
<polygon fill="#666666" stroke="#666666" points="794,-212.5 794,-212.5 931,-212.5 931,-212.5 794,-212.5"/>
<polygon fill="#666666" stroke="#666666" points="794,-197.5 794,-197.5 931,-197.5 931,-197.5 794,-197.5"/>
<polygon fill="none" stroke="#666666" points="793.5,-181 793.5,-230 930.5,-230 930.5,-181 793.5,-181"/>
</a>
</g>
</g>
<!-- Node5 -->
<g id="Node000005" class="node">
<title>Node5</title>
<g id="a_Node000005"><a xlink:href="classbot_1_1BotMessageQueueException.html" target="_top" xlink:title=" ">
<polygon fill="white" stroke="transparent" points="451.5,-145 282.5,-145 282.5,-96 451.5,-96 451.5,-145"/>
<text text-anchor="start" x="288" y="-132.5" font-family="Helvetica,sans-Serif" font-size="10.00">bot.BotMessageQueueException</text>
<text text-anchor="start" x="365.5" y="-117.5" font-family="Helvetica,sans-Serif" font-size="10.00"> </text>
<text text-anchor="start" x="365.5" y="-102.5" font-family="Helvetica,sans-Serif" font-size="10.00"> </text>
<polygon fill="#666666" stroke="#666666" points="283,-127.5 283,-127.5 452,-127.5 452,-127.5 283,-127.5"/>
<polygon fill="#666666" stroke="#666666" points="283,-112.5 283,-112.5 452,-112.5 452,-112.5 283,-112.5"/>
<polygon fill="none" stroke="#666666" points="282.5,-96 282.5,-145 451.5,-145 451.5,-96 282.5,-96"/>
</a>
</g>
</g>
<!-- Node1&#45;&gt;Node5 -->
<g id="edge4_Node000001_Node000005" class="edge">
<title>Node1&#45;&gt;Node5</title>
<g id="a_edge4_Node000001_Node000005"><a xlink:title=" ">
<path fill="none" stroke="#63b8ff" d="M783.51,-191.34C693.07,-176.17 544.98,-151.34 451.91,-135.74"/>
<polygon fill="none" stroke="#63b8ff" points="782.99,-194.8 793.43,-193 784.15,-187.9 782.99,-194.8"/>
</a>
</g>
</g>
<!-- Node9 -->
<g id="Node000009" class="node">
<title>Node9</title>
<g id="a_Node000009"><a xlink:href="classbot_1_1BotQueuedMessageException.html" target="_top" xlink:title=" ">
<polygon fill="white" stroke="transparent" points="755.5,-145 580.5,-145 580.5,-96 755.5,-96 755.5,-145"/>
<text text-anchor="start" x="586" y="-132.5" font-family="Helvetica,sans-Serif" font-size="10.00">bot.BotQueuedMessageException</text>
<text text-anchor="start" x="666.5" y="-117.5" font-family="Helvetica,sans-Serif" font-size="10.00"> </text>
<text text-anchor="start" x="666.5" y="-102.5" font-family="Helvetica,sans-Serif" font-size="10.00"> </text>
<polygon fill="#666666" stroke="#666666" points="581,-127.5 581,-127.5 756,-127.5 756,-127.5 581,-127.5"/>
<polygon fill="#666666" stroke="#666666" points="581,-112.5 581,-112.5 756,-112.5 756,-112.5 581,-112.5"/>
<polygon fill="none" stroke="#666666" points="580.5,-96 580.5,-145 755.5,-145 755.5,-96 580.5,-96"/>
</a>
</g>
</g>
<!-- Node1&#45;&gt;Node9 -->
<g id="edge8_Node000001_Node000009" class="edge">
<title>Node1&#45;&gt;Node9</title>
<g id="a_edge8_Node000001_Node000009"><a xlink:title=" ">
<path fill="none" stroke="#63b8ff" d="M797.52,-176.91C773.45,-166.62 746.37,-155.03 723.21,-145.12"/>
<polygon fill="none" stroke="#63b8ff" points="796.36,-180.22 806.93,-180.94 799.11,-173.79 796.36,-180.22"/>
</a>
</g>
</g>
<!-- Node12 -->
<g id="Node000012" class="node">
<title>Node12</title>
<g id="a_Node000012"><a xlink:href="classbot_1_1BotReceiveMessageException.html" target="_top" xlink:title=" ">
<polygon fill="white" stroke="transparent" points="950,-145 774,-145 774,-96 950,-96 950,-145"/>
<text text-anchor="start" x="779" y="-132.5" font-family="Helvetica,sans-Serif" font-size="10.00">bot.BotReceiveMessageException</text>
<text text-anchor="start" x="860" y="-117.5" font-family="Helvetica,sans-Serif" font-size="10.00"> </text>
<text text-anchor="start" x="860" y="-102.5" font-family="Helvetica,sans-Serif" font-size="10.00"> </text>
<polygon fill="#666666" stroke="#666666" points="774,-127.5 774,-127.5 950,-127.5 950,-127.5 774,-127.5"/>
<polygon fill="#666666" stroke="#666666" points="774,-112.5 774,-112.5 950,-112.5 950,-112.5 774,-112.5"/>
<polygon fill="none" stroke="#666666" points="774,-96 774,-145 950,-145 950,-96 774,-96"/>
</a>
</g>
</g>
<!-- Node1&#45;&gt;Node12 -->
<g id="edge11_Node000001_Node000012" class="edge">
<title>Node1&#45;&gt;Node12</title>
<g id="a_edge11_Node000001_Node000012"><a xlink:title=" ">
<path fill="none" stroke="#63b8ff" d="M862,-170.77C862,-162.17 862,-153.1 862,-145.12"/>
<polygon fill="none" stroke="#63b8ff" points="858.5,-170.94 862,-180.94 865.5,-170.94 858.5,-170.94"/>
</a>
</g>
</g>
<!-- Node13 -->
<g id="Node000013" class="node">
<title>Node13</title>
<g id="a_Node000013"><a xlink:href="classbot_1_1BotSendMessageException.html" target="_top" xlink:title=" ">
<polygon fill="white" stroke="transparent" points="1129.5,-145 968.5,-145 968.5,-96 1129.5,-96 1129.5,-145"/>
<text text-anchor="start" x="974" y="-132.5" font-family="Helvetica,sans-Serif" font-size="10.00">bot.BotSendMessageException</text>
<text text-anchor="start" x="1047.5" y="-117.5" font-family="Helvetica,sans-Serif" font-size="10.00"> </text>
<text text-anchor="start" x="1047.5" y="-102.5" font-family="Helvetica,sans-Serif" font-size="10.00"> </text>
<polygon fill="#666666" stroke="#666666" points="969,-127.5 969,-127.5 1130,-127.5 1130,-127.5 969,-127.5"/>
<polygon fill="#666666" stroke="#666666" points="969,-112.5 969,-112.5 1130,-112.5 1130,-112.5 969,-112.5"/>
<polygon fill="none" stroke="#666666" points="968.5,-96 968.5,-145 1129.5,-145 1129.5,-96 968.5,-96"/>
</a>
</g>
</g>
<!-- Node1&#45;&gt;Node13 -->
<g id="edge12_Node000001_Node000013" class="edge">
<title>Node1&#45;&gt;Node13</title>
<g id="a_edge12_Node000001_Node000013"><a xlink:title=" ">
<path fill="none" stroke="#63b8ff" d="M924.46,-176.78C947.58,-166.51 973.56,-154.98 995.78,-145.12"/>
<polygon fill="none" stroke="#63b8ff" points="922.81,-173.68 915.09,-180.94 925.65,-180.08 922.81,-173.68"/>
</a>
</g>
</g>
<!-- Node14 -->
<g id="Node000014" class="node">
<title>Node14</title>
<g id="a_Node000014"><a xlink:href="classbot_1_1HTTPMessageException.html" target="_top" xlink:title=" ">
<polygon fill="white" stroke="transparent" points="1302,-145 1156,-145 1156,-96 1302,-96 1302,-145"/>
<text text-anchor="start" x="1161" y="-132.5" font-family="Helvetica,sans-Serif" font-size="10.00">bot.HTTPMessageException</text>
<text text-anchor="start" x="1227" y="-117.5" font-family="Helvetica,sans-Serif" font-size="10.00"> </text>
<text text-anchor="start" x="1227" y="-102.5" font-family="Helvetica,sans-Serif" font-size="10.00"> </text>
<polygon fill="#666666" stroke="#666666" points="1156,-127.5 1156,-127.5 1302,-127.5 1302,-127.5 1156,-127.5"/>
<polygon fill="#666666" stroke="#666666" points="1156,-112.5 1156,-112.5 1302,-112.5 1302,-112.5 1156,-112.5"/>
<polygon fill="none" stroke="#666666" points="1156,-96 1156,-145 1302,-145 1302,-96 1156,-96"/>
</a>
</g>
</g>
<!-- Node1&#45;&gt;Node14 -->
<g id="edge13_Node000001_Node000014" class="edge">
<title>Node1&#45;&gt;Node14</title>
<g id="a_edge13_Node000001_Node000014"><a xlink:title=" ">
<path fill="none" stroke="#63b8ff" d="M940.6,-188.44C995.93,-176.91 1071.66,-160.71 1138,-145 1143.72,-143.65 1149.62,-142.21 1155.56,-140.74"/>
<polygon fill="none" stroke="#63b8ff" points="939.59,-185.07 930.51,-190.53 941.01,-191.93 939.59,-185.07"/>
</a>
</g>
</g>
<!-- Node2 -->
<g id="Node000002" class="node">
<title>Node2</title>
<g id="a_Node000002"><a xlink:href="classbot_1_1BotException.html" target="_top" xlink:title=" ">
<polygon fill="white" stroke="transparent" points="909,-315 815,-315 815,-266 909,-266 909,-315"/>
<text text-anchor="start" x="820" y="-302.5" font-family="Helvetica,sans-Serif" font-size="10.00">bot.BotException</text>
<text text-anchor="start" x="860" y="-287.5" font-family="Helvetica,sans-Serif" font-size="10.00"> </text>
<text text-anchor="start" x="860" y="-272.5" font-family="Helvetica,sans-Serif" font-size="10.00"> </text>
<polygon fill="#666666" stroke="#666666" points="815,-297.5 815,-297.5 909,-297.5 909,-297.5 815,-297.5"/>
<polygon fill="#666666" stroke="#666666" points="815,-282.5 815,-282.5 909,-282.5 909,-282.5 815,-282.5"/>
<polygon fill="none" stroke="#666666" points="815,-266 815,-315 909,-315 909,-266 815,-266"/>
</a>
</g>
</g>
<!-- Node2&#45;&gt;Node1 -->
<g id="edge1_Node000001_Node000002" class="edge">
<title>Node2&#45;&gt;Node1</title>
<g id="a_edge1_Node000001_Node000002"><a xlink:title=" ">
<path fill="none" stroke="#63b8ff" d="M862,-255.77C862,-247.17 862,-238.1 862,-230.12"/>
<polygon fill="none" stroke="#63b8ff" points="858.5,-255.94 862,-265.94 865.5,-255.94 858.5,-255.94"/>
</a>
</g>
</g>
<!-- Node3 -->
<g id="Node000003" class="node">
<title>Node3</title>
<g id="a_Node000003"><a xlink:href="classexception_1_1ChatbotException.html" target="_top" xlink:title=" ">
<polygon fill="white" stroke="transparent" points="987,-646 737,-646 737,-351 987,-351 987,-646"/>
<text text-anchor="start" x="793" y="-633.5" font-family="Helvetica,sans-Serif" font-size="10.00">exception.ChatbotException</text>
<text text-anchor="start" x="741" y="-618.5" font-family="Helvetica,sans-Serif" font-size="10.00">+</text>
<text text-anchor="start" x="754" y="-618.5" font-family="Helvetica,sans-Serif" font-size="10.00">cause</text>
<text text-anchor="start" x="741" y="-603.5" font-family="Helvetica,sans-Serif" font-size="10.00">+</text>
<text text-anchor="start" x="754" y="-603.5" font-family="Helvetica,sans-Serif" font-size="10.00">code</text>
<text text-anchor="start" x="741" y="-588.5" font-family="Helvetica,sans-Serif" font-size="10.00">+</text>
<text text-anchor="start" x="754" y="-588.5" font-family="Helvetica,sans-Serif" font-size="10.00">filename</text>
<text text-anchor="start" x="741" y="-573.5" font-family="Helvetica,sans-Serif" font-size="10.00">+</text>
<text text-anchor="start" x="754" y="-573.5" font-family="Helvetica,sans-Serif" font-size="10.00">lineno</text>
<text text-anchor="start" x="741" y="-558.5" font-family="Helvetica,sans-Serif" font-size="10.00">+</text>
<text text-anchor="start" x="754" y="-558.5" font-family="Helvetica,sans-Serif" font-size="10.00">message</text>
<text text-anchor="start" x="741" y="-543.5" font-family="Helvetica,sans-Serif" font-size="10.00">+</text>
<text text-anchor="start" x="754" y="-543.5" font-family="Helvetica,sans-Serif" font-size="10.00">severity</text>
<text text-anchor="start" x="741" y="-528.5" font-family="Helvetica,sans-Serif" font-size="10.00">+</text>
<text text-anchor="start" x="754" y="-528.5" font-family="Helvetica,sans-Serif" font-size="10.00">traceback</text>
<text text-anchor="start" x="741" y="-513.5" font-family="Helvetica,sans-Serif" font-size="10.00">+</text>
<text text-anchor="start" x="754" y="-513.5" font-family="Helvetica,sans-Serif" font-size="10.00">type</text>
<text text-anchor="start" x="741" y="-498.5" font-family="Helvetica,sans-Serif" font-size="10.00">+</text>
<text text-anchor="start" x="754" y="-498.5" font-family="Helvetica,sans-Serif" font-size="10.00">SEVERITY_TO_LOGGING</text>
<text text-anchor="start" x="741" y="-483.5" font-family="Helvetica,sans-Serif" font-size="10.00">+</text>
<text text-anchor="start" x="754" y="-483.5" font-family="Helvetica,sans-Serif" font-size="10.00">__init__(self, &quot;Chatbot</text>
<text text-anchor="start" x="754" y="-472.5" font-family="Helvetica,sans-Serif" font-size="10.00">Exception.ChatbotExceptionCode&quot;</text>
<text text-anchor="start" x="754" y="-461.5" font-family="Helvetica,sans-Serif" font-size="10.00"> code=None, str message=None,</text>
<text text-anchor="start" x="754" y="-450.5" font-family="Helvetica,sans-Serif" font-size="10.00"> &quot;ChatbotException.ChatbotExceptionSeverity&quot;</text>
<text text-anchor="start" x="754" y="-439.5" font-family="Helvetica,sans-Serif" font-size="10.00"> severity=None, str filename=None, int</text>
<text text-anchor="start" x="754" y="-428.5" font-family="Helvetica,sans-Serif" font-size="10.00"> lineno=None, Exception cause=None, bool</text>
<text text-anchor="start" x="754" y="-417.5" font-family="Helvetica,sans-Serif" font-size="10.00"> include_trace=True)</text>
<text text-anchor="start" x="741" y="-402.5" font-family="Helvetica,sans-Serif" font-size="10.00">+</text>
<text text-anchor="start" x="754" y="-402.5" font-family="Helvetica,sans-Serif" font-size="10.00">__repr__(self)</text>
<text text-anchor="start" x="741" y="-387.5" font-family="Helvetica,sans-Serif" font-size="10.00">+</text>
<text text-anchor="start" x="754" y="-387.5" font-family="Helvetica,sans-Serif" font-size="10.00">__str__(self)</text>
<text text-anchor="start" x="741" y="-372.5" font-family="Helvetica,sans-Serif" font-size="10.00">+</text>
<text text-anchor="start" x="754" y="-372.5" font-family="Helvetica,sans-Serif" font-size="10.00">to_dict(self)</text>
<text text-anchor="start" x="741" y="-357.5" font-family="Helvetica,sans-Serif" font-size="10.00">+</text>
<text text-anchor="start" x="754" y="-357.5" font-family="Helvetica,sans-Serif" font-size="10.00">to_json(self)</text>
<polygon fill="#666666" stroke="#666666" points="737,-628.5 737,-628.5 987,-628.5 987,-628.5 737,-628.5"/>
<polygon fill="#666666" stroke="#666666" points="737,-493.5 737,-493.5 752,-493.5 752,-493.5 737,-493.5"/>
<polygon fill="#666666" stroke="#666666" points="752,-493.5 752,-493.5 987,-493.5 987,-493.5 752,-493.5"/>
<polygon fill="none" stroke="#666666" points="737,-351 737,-646 987,-646 987,-351 737,-351"/>
</a>
</g>
</g>
<!-- Node3&#45;&gt;Node2 -->
<g id="edge2_Node000002_Node000003" class="edge">
<title>Node3&#45;&gt;Node2</title>
<g id="a_edge2_Node000002_Node000003"><a xlink:title=" ">
<path fill="none" stroke="#63b8ff" d="M862,-340.58C862,-331.04 862,-322.35 862,-315.04"/>
<polygon fill="none" stroke="#63b8ff" points="858.5,-340.81 862,-350.81 865.5,-340.81 858.5,-340.81"/>
</a>
</g>
</g>
<!-- Node4 -->
<g id="Node000004" class="node">
<title>Node4</title>
<g id="a_Node000004"><a xlink:title=" ">
<polygon fill="white" stroke="transparent" points="891.5,-731 832.5,-731 832.5,-682 891.5,-682 891.5,-731"/>
<text text-anchor="start" x="838" y="-718.5" font-family="Helvetica,sans-Serif" font-size="10.00">Exception</text>
<text text-anchor="start" x="860.5" y="-703.5" font-family="Helvetica,sans-Serif" font-size="10.00"> </text>
<text text-anchor="start" x="860.5" y="-688.5" font-family="Helvetica,sans-Serif" font-size="10.00"> </text>
<polygon fill="#666666" stroke="#666666" points="833,-713.5 833,-713.5 892,-713.5 892,-713.5 833,-713.5"/>
<polygon fill="#666666" stroke="#666666" points="833,-698.5 833,-698.5 892,-698.5 892,-698.5 833,-698.5"/>
<polygon fill="none" stroke="#666666" points="832.5,-682 832.5,-731 891.5,-731 891.5,-682 832.5,-682"/>
</a>
</g>
</g>
<!-- Node4&#45;&gt;Node3 -->
<g id="edge3_Node000003_Node000004" class="edge">
<title>Node4&#45;&gt;Node3</title>
<g id="a_edge3_Node000003_Node000004"><a xlink:title=" ">
<path fill="none" stroke="#63b8ff" d="M862,-671.71C862,-664.05 862,-655.44 862,-646.26"/>
<polygon fill="none" stroke="#63b8ff" points="858.5,-671.87 862,-681.87 865.5,-671.87 858.5,-671.87"/>
</a>
</g>
</g>
<!-- Node6 -->
<g id="Node000006" class="node">
<title>Node6</title>
<g id="a_Node000006"><a xlink:href="classbot_1_1BotMessageQueueEmptyException.html" target="_top" xlink:title=" ">
<polygon fill="white" stroke="transparent" points="152,-60 0,-60 0,0 152,0 152,-60"/>
<text text-anchor="start" x="5" y="-48" font-family="Helvetica,sans-Serif" font-size="10.00">bot.BotMessageQueueEmpty</text>
<text text-anchor="start" x="51.5" y="-37" font-family="Helvetica,sans-Serif" font-size="10.00">Exception</text>
<text text-anchor="start" x="74" y="-22" font-family="Helvetica,sans-Serif" font-size="10.00"> </text>
<text text-anchor="start" x="74" y="-7" font-family="Helvetica,sans-Serif" font-size="10.00"> </text>
<polygon fill="#666666" stroke="#666666" points="0,-32 0,-32 152,-32 152,-32 0,-32"/>
<polygon fill="#666666" stroke="#666666" points="0,-17 0,-17 152,-17 152,-17 0,-17"/>
<polygon fill="none" stroke="#666666" points="0,0 0,-60 152,-60 152,0 0,0"/>
</a>
</g>
</g>
<!-- Node5&#45;&gt;Node6 -->
<g id="edge5_Node000005_Node000006" class="edge">
<title>Node5&#45;&gt;Node6</title>
<g id="a_edge5_Node000005_Node000006"><a xlink:title=" ">
<path fill="none" stroke="#63b8ff" d="M272.52,-93.23C237.39,-83.2 197.27,-71.42 161,-60 158.17,-59.11 155.3,-58.19 152.4,-57.26"/>
<polygon fill="none" stroke="#63b8ff" points="271.71,-96.64 282.29,-96.01 273.63,-89.91 271.71,-96.64"/>
</a>
</g>
</g>
<!-- Node7 -->
<g id="Node000007" class="node">
<title>Node7</title>
<g id="a_Node000007"><a xlink:href="classbot_1_1BotMessageQueueFullException.html" target="_top" xlink:title=" ">
<polygon fill="white" stroke="transparent" points="356,-54.5 170,-54.5 170,-5.5 356,-5.5 356,-54.5"/>
<text text-anchor="start" x="175" y="-42" font-family="Helvetica,sans-Serif" font-size="10.00">bot.BotMessageQueueFullException</text>
<text text-anchor="start" x="261" y="-27" font-family="Helvetica,sans-Serif" font-size="10.00"> </text>
<text text-anchor="start" x="261" y="-12" font-family="Helvetica,sans-Serif" font-size="10.00"> </text>
<polygon fill="#666666" stroke="#666666" points="170,-37 170,-37 356,-37 356,-37 170,-37"/>
<polygon fill="#666666" stroke="#666666" points="170,-22 170,-22 356,-22 356,-22 170,-22"/>
<polygon fill="none" stroke="#666666" points="170,-5.5 170,-54.5 356,-54.5 356,-5.5 170,-5.5"/>
</a>
</g>
</g>
<!-- Node5&#45;&gt;Node7 -->
<g id="edge6_Node000005_Node000007" class="edge">
<title>Node5&#45;&gt;Node7</title>
<g id="a_edge6_Node000005_Node000007"><a xlink:title=" ">
<path fill="none" stroke="#63b8ff" d="M331.17,-89.01C318.01,-77.81 303.31,-65.31 290.95,-54.78"/>
<polygon fill="none" stroke="#63b8ff" points="329.25,-91.97 339.13,-95.78 333.78,-86.64 329.25,-91.97"/>
</a>
</g>
</g>
<!-- Node8 -->
<g id="Node000008" class="node">
<title>Node8</title>
<g id="a_Node000008"><a xlink:href="classbot_1_1BotMessageQueueLockException.html" target="_top" xlink:title=" ">
<polygon fill="white" stroke="transparent" points="565.5,-54.5 374.5,-54.5 374.5,-5.5 565.5,-5.5 565.5,-54.5"/>
<text text-anchor="start" x="380" y="-42" font-family="Helvetica,sans-Serif" font-size="10.00">bot.BotMessageQueueLockException</text>
<text text-anchor="start" x="468.5" y="-27" font-family="Helvetica,sans-Serif" font-size="10.00"> </text>
<text text-anchor="start" x="468.5" y="-12" font-family="Helvetica,sans-Serif" font-size="10.00"> </text>
<polygon fill="#666666" stroke="#666666" points="375,-37 375,-37 566,-37 566,-37 375,-37"/>
<polygon fill="#666666" stroke="#666666" points="375,-22 375,-22 566,-22 566,-22 375,-22"/>
<polygon fill="none" stroke="#666666" points="374.5,-5.5 374.5,-54.5 565.5,-54.5 565.5,-5.5 374.5,-5.5"/>
</a>
</g>
</g>
<!-- Node5&#45;&gt;Node8 -->
<g id="edge7_Node000005_Node000008" class="edge">
<title>Node5&#45;&gt;Node8</title>
<g id="a_edge7_Node000005_Node000008"><a xlink:title=" ">
<path fill="none" stroke="#63b8ff" d="M402.49,-89.01C415.52,-77.81 430.07,-65.31 442.32,-54.78"/>
<polygon fill="none" stroke="#63b8ff" points="399.91,-86.61 394.6,-95.78 404.47,-91.92 399.91,-86.61"/>
</a>
</g>
</g>
<!-- Node10 -->
<g id="Node000010" class="node">
<title>Node10</title>
<g id="a_Node000010"><a xlink:href="classbot_1_1BotQueuedMessageInvalidException.html" target="_top" xlink:title=" ">
<polygon fill="white" stroke="transparent" points="744,-60 584,-60 584,0 744,0 744,-60"/>
<text text-anchor="start" x="589" y="-48" font-family="Helvetica,sans-Serif" font-size="10.00">bot.BotQueuedMessageInvalid</text>
<text text-anchor="start" x="639.5" y="-37" font-family="Helvetica,sans-Serif" font-size="10.00">Exception</text>
<text text-anchor="start" x="662" y="-22" font-family="Helvetica,sans-Serif" font-size="10.00"> </text>
<text text-anchor="start" x="662" y="-7" font-family="Helvetica,sans-Serif" font-size="10.00"> </text>
<polygon fill="#666666" stroke="#666666" points="584,-32 584,-32 744,-32 744,-32 584,-32"/>
<polygon fill="#666666" stroke="#666666" points="584,-17 584,-17 744,-17 744,-17 584,-17"/>
<polygon fill="none" stroke="#666666" points="584,0 584,-60 744,-60 744,0 584,0"/>
</a>
</g>
</g>
<!-- Node9&#45;&gt;Node10 -->
<g id="edge9_Node000009_Node000010" class="edge">
<title>Node9&#45;&gt;Node10</title>
<g id="a_edge9_Node000009_Node000010"><a xlink:title=" ">
<path fill="none" stroke="#63b8ff" d="M666.47,-85.55C666.09,-77.18 665.69,-68.28 665.32,-60.16"/>
<polygon fill="none" stroke="#63b8ff" points="662.98,-85.95 666.93,-95.78 669.97,-85.64 662.98,-85.95"/>
</a>
</g>
</g>
<!-- Node11 -->
<g id="Node000011" class="node">
<title>Node11</title>
<g id="a_Node000011"><a xlink:href="classbot_1_1BotQueuedMessageResultException.html" target="_top" xlink:title=" ">
<polygon fill="white" stroke="transparent" points="920,-60 762,-60 762,0 920,0 920,-60"/>
<text text-anchor="start" x="767" y="-48" font-family="Helvetica,sans-Serif" font-size="10.00">bot.BotQueuedMessageResult</text>
<text text-anchor="start" x="816.5" y="-37" font-family="Helvetica,sans-Serif" font-size="10.00">Exception</text>
<text text-anchor="start" x="839" y="-22" font-family="Helvetica,sans-Serif" font-size="10.00"> </text>
<text text-anchor="start" x="839" y="-7" font-family="Helvetica,sans-Serif" font-size="10.00"> </text>
<polygon fill="#666666" stroke="#666666" points="762,-32 762,-32 920,-32 920,-32 762,-32"/>
<polygon fill="#666666" stroke="#666666" points="762,-17 762,-17 920,-17 920,-17 762,-17"/>
<polygon fill="none" stroke="#666666" points="762,0 762,-60 920,-60 920,0 762,0"/>
</a>
</g>
</g>
<!-- Node9&#45;&gt;Node11 -->
<g id="edge10_Node000009_Node000011" class="edge">
<title>Node9&#45;&gt;Node11</title>
<g id="a_edge10_Node000009_Node000011"><a xlink:title=" ">
<path fill="none" stroke="#63b8ff" d="M723.36,-91.18C742.73,-81.27 764.51,-70.13 784.01,-60.16"/>
<polygon fill="none" stroke="#63b8ff" points="721.67,-88.11 714.36,-95.78 724.86,-94.35 721.67,-88.11"/>
</a>
</g>
</g>
<!-- Node15 -->
<g id="Node000015" class="node">
<title>Node15</title>
<g id="a_Node000015"><a xlink:href="classbot_1_1HTTPMessageHeadersException.html" target="_top" xlink:title=" ">
<polygon fill="white" stroke="transparent" points="1124.5,-54.5 937.5,-54.5 937.5,-5.5 1124.5,-5.5 1124.5,-54.5"/>
<text text-anchor="start" x="943" y="-42" font-family="Helvetica,sans-Serif" font-size="10.00">bot.HTTPMessageHeadersException</text>
<text text-anchor="start" x="1029.5" y="-27" font-family="Helvetica,sans-Serif" font-size="10.00"> </text>
<text text-anchor="start" x="1029.5" y="-12" font-family="Helvetica,sans-Serif" font-size="10.00"> </text>
<polygon fill="#666666" stroke="#666666" points="938,-37 938,-37 1125,-37 1125,-37 938,-37"/>
<polygon fill="#666666" stroke="#666666" points="938,-22 938,-22 1125,-22 1125,-22 938,-22"/>
<polygon fill="none" stroke="#666666" points="937.5,-5.5 937.5,-54.5 1124.5,-54.5 1124.5,-5.5 937.5,-5.5"/>
</a>
</g>
</g>
<!-- Node14&#45;&gt;Node15 -->
<g id="edge14_Node000014_Node000015" class="edge">
<title>Node14&#45;&gt;Node15</title>
<g id="a_edge14_Node000014_Node000015"><a xlink:title=" ">
<path fill="none" stroke="#63b8ff" d="M1166.93,-91.76C1140.19,-79.8 1109.25,-65.98 1083.65,-54.53"/>
<polygon fill="none" stroke="#63b8ff" points="1165.64,-95.01 1176.2,-95.9 1168.5,-88.62 1165.64,-95.01"/>
</a>
</g>
</g>
<!-- Node16 -->
<g id="Node000016" class="node">
<title>Node16</title>
<g id="a_Node000016"><a xlink:href="classbot_1_1HTTPMessageParamsException.html" target="_top" xlink:title=" ">
<polygon fill="white" stroke="transparent" points="1325,-54.5 1143,-54.5 1143,-5.5 1325,-5.5 1325,-54.5"/>
<text text-anchor="start" x="1148" y="-42" font-family="Helvetica,sans-Serif" font-size="10.00">bot.HTTPMessageParamsException</text>
<text text-anchor="start" x="1232" y="-27" font-family="Helvetica,sans-Serif" font-size="10.00"> </text>
<text text-anchor="start" x="1232" y="-12" font-family="Helvetica,sans-Serif" font-size="10.00"> </text>
<polygon fill="#666666" stroke="#666666" points="1143,-37 1143,-37 1325,-37 1325,-37 1143,-37"/>
<polygon fill="#666666" stroke="#666666" points="1143,-22 1143,-22 1325,-22 1325,-22 1143,-22"/>
<polygon fill="none" stroke="#666666" points="1143,-5.5 1143,-54.5 1325,-54.5 1325,-5.5 1143,-5.5"/>
</a>
</g>
</g>
<!-- Node14&#45;&gt;Node16 -->
<g id="edge15_Node000014_Node000016" class="edge">
<title>Node14&#45;&gt;Node16</title>
<g id="a_edge15_Node000014_Node000016"><a xlink:title=" ">
<path fill="none" stroke="#63b8ff" d="M1230.92,-85.48C1231.5,-75.24 1232.12,-64.21 1232.66,-54.78"/>
<polygon fill="none" stroke="#63b8ff" points="1227.41,-85.6 1230.34,-95.78 1234.4,-86 1227.41,-85.6"/>
</a>
</g>
</g>
<!-- Node17 -->
<g id="Node000017" class="node">
<title>Node17</title>
<g id="a_Node000017"><a xlink:href="classbot_1_1HTTPMessagePayloadException.html" target="_top" xlink:title=" ">
<polygon fill="white" stroke="transparent" points="1528.5,-54.5 1343.5,-54.5 1343.5,-5.5 1528.5,-5.5 1528.5,-54.5"/>
<text text-anchor="start" x="1349" y="-42" font-family="Helvetica,sans-Serif" font-size="10.00">bot.HTTPMessagePayloadException</text>
<text text-anchor="start" x="1434.5" y="-27" font-family="Helvetica,sans-Serif" font-size="10.00"> </text>
<text text-anchor="start" x="1434.5" y="-12" font-family="Helvetica,sans-Serif" font-size="10.00"> </text>
<polygon fill="#666666" stroke="#666666" points="1344,-37 1344,-37 1529,-37 1529,-37 1344,-37"/>
<polygon fill="#666666" stroke="#666666" points="1344,-22 1344,-22 1529,-22 1529,-22 1344,-22"/>
<polygon fill="none" stroke="#666666" points="1343.5,-5.5 1343.5,-54.5 1528.5,-54.5 1528.5,-5.5 1343.5,-5.5"/>
</a>
</g>
</g>
<!-- Node14&#45;&gt;Node17 -->
<g id="edge16_Node000014_Node000017" class="edge">
<title>Node14&#45;&gt;Node17</title>
<g id="a_edge16_Node000014_Node000017"><a xlink:title=" ">
<path fill="none" stroke="#63b8ff" d="M1293.52,-91.91C1321.56,-79.93 1354.07,-66.03 1380.95,-54.53"/>
<polygon fill="none" stroke="#63b8ff" points="1292.02,-88.75 1284.2,-95.9 1294.77,-95.19 1292.02,-88.75"/>
</a>
</g>
</g>
</g>
</svg>
