<?xml version="1.0" encoding="UTF-8" standalone="no"?>
<!DOCTYPE svg PUBLIC "-//W3C//DTD SVG 1.1//EN"
 "http://www.w3.org/Graphics/SVG/1.1/DTD/svg11.dtd">
<!-- Generated by graphviz version 2.43.0 (0)
 -->
<!-- Title: exception.ChatbotException Pages: 1 -->
<svg width="258pt" height="388pt"
 viewBox="0.00 0.00 258.00 388.00" xmlns="http://www.w3.org/2000/svg" xmlns:xlink="http://www.w3.org/1999/xlink">

<svg id="main" version="1.1" xmlns="http://www.w3.org/2000/svg" xmlns:xlink="http://www.w3.org/1999/xlink" xml:space="preserve" onload="init(evt)">
<style type="text/css"><![CDATA[
.node, .edge {opacity: 0.7;}
.node.selected, .edge.selected {opacity: 1;}
.edge:hover path { stroke: red; }
.edge:hover polygon { stroke: red; fill: red; }
]]></style>
<script type="application/ecmascript" xlink:href="svg.min.js"/>
<svg id="graph" class="graph">
<g id="graph0" class="graph" transform="scale(1 1) rotate(0) translate(4 384)">
<title>exception.ChatbotException</title>
<!-- Node1 -->
<g id="Node000001" class="node">
<title>Node1</title>
<g id="a_Node000001"><a xlink:title=" ">
<polygon fill="#999999" stroke="transparent" points="250,-295 0,-295 0,0 250,0 250,-295"/>
<text text-anchor="start" x="56" y="-282.5" font-family="Helvetica,sans-Serif" font-size="10.00">exception.ChatbotException</text>
<text text-anchor="start" x="4" y="-267.5" font-family="Helvetica,sans-Serif" font-size="10.00">+</text>
<text text-anchor="start" x="17" y="-267.5" font-family="Helvetica,sans-Serif" font-size="10.00">cause</text>
<text text-anchor="start" x="4" y="-252.5" font-family="Helvetica,sans-Serif" font-size="10.00">+</text>
<text text-anchor="start" x="17" y="-252.5" font-family="Helvetica,sans-Serif" font-size="10.00">code</text>
<text text-anchor="start" x="4" y="-237.5" font-family="Helvetica,sans-Serif" font-size="10.00">+</text>
<text text-anchor="start" x="17" y="-237.5" font-family="Helvetica,sans-Serif" font-size="10.00">filename</text>
<text text-anchor="start" x="4" y="-222.5" font-family="Helvetica,sans-Serif" font-size="10.00">+</text>
<text text-anchor="start" x="17" y="-222.5" font-family="Helvetica,sans-Serif" font-size="10.00">lineno</text>
<text text-anchor="start" x="4" y="-207.5" font-family="Helvetica,sans-Serif" font-size="10.00">+</text>
<text text-anchor="start" x="17" y="-207.5" font-family="Helvetica,sans-Serif" font-size="10.00">message</text>
<text text-anchor="start" x="4" y="-192.5" font-family="Helvetica,sans-Serif" font-size="10.00">+</text>
<text text-anchor="start" x="17" y="-192.5" font-family="Helvetica,sans-Serif" font-size="10.00">severity</text>
<text text-anchor="start" x="4" y="-177.5" font-family="Helvetica,sans-Serif" font-size="10.00">+</text>
<text text-anchor="start" x="17" y="-177.5" font-family="Helvetica,sans-Serif" font-size="10.00">traceback</text>
<text text-anchor="start" x="4" y="-162.5" font-family="Helvetica,sans-Serif" font-size="10.00">+</text>
<text text-anchor="start" x="17" y="-162.5" font-family="Helvetica,sans-Serif" font-size="10.00">type</text>
<text text-anchor="start" x="4" y="-147.5" font-family="Helvetica,sans-Serif" font-size="10.00">+</text>
<text text-anchor="start" x="17" y="-147.5" font-family="Helvetica,sans-Serif" font-size="10.00">SEVERITY_TO_LOGGING</text>
<text text-anchor="start" x="4" y="-132.5" font-family="Helvetica,sans-Serif" font-size="10.00">+</text>
<text text-anchor="start" x="17" y="-132.5" font-family="Helvetica,sans-Serif" font-size="10.00">__init__(self, &quot;Chatbot</text>
<text text-anchor="start" x="17" y="-121.5" font-family="Helvetica,sans-Serif" font-size="10.00">Exception.ChatbotExceptionCode&quot;</text>
<text text-anchor="start" x="17" y="-110.5" font-family="Helvetica,sans-Serif" font-size="10.00"> code=None, str message=None,</text>
<text text-anchor="start" x="17" y="-99.5" font-family="Helvetica,sans-Serif" font-size="10.00"> &quot;ChatbotException.ChatbotExceptionSeverity&quot;</text>
<text text-anchor="start" x="17" y="-88.5" font-family="Helvetica,sans-Serif" font-size="10.00"> severity=None, str filename=None, int</text>
<text text-anchor="start" x="17" y="-77.5" font-family="Helvetica,sans-Serif" font-size="10.00"> lineno=None, Exception cause=None, bool</text>
<text text-anchor="start" x="17" y="-66.5" font-family="Helvetica,sans-Serif" font-size="10.00"> include_trace=True)</text>
<text text-anchor="start" x="4" y="-51.5" font-family="Helvetica,sans-Serif" font-size="10.00">+</text>
<text text-anchor="start" x="17" y="-51.5" font-family="Helvetica,sans-Serif" font-size="10.00">__repr__(self)</text>
<text text-anchor="start" x="4" y="-36.5" font-family="Helvetica,sans-Serif" font-size="10.00">+</text>
<text text-anchor="start" x="17" y="-36.5" font-family="Helvetica,sans-Serif" font-size="10.00">__str__(self)</text>
<text text-anchor="start" x="4" y="-21.5" font-family="Helvetica,sans-Serif" font-size="10.00">+</text>
<text text-anchor="start" x="17" y="-21.5" font-family="Helvetica,sans-Serif" font-size="10.00">to_dict(self)</text>
<text text-anchor="start" x="4" y="-6.5" font-family="Helvetica,sans-Serif" font-size="10.00">+</text>
<text text-anchor="start" x="17" y="-6.5" font-family="Helvetica,sans-Serif" font-size="10.00">to_json(self)</text>
<polygon fill="#666666" stroke="#666666" points="0,-277.5 0,-277.5 250,-277.5 250,-277.5 0,-277.5"/>
<polygon fill="#666666" stroke="#666666" points="0,-142.5 0,-142.5 15,-142.5 15,-142.5 0,-142.5"/>
<polygon fill="#666666" stroke="#666666" points="15,-142.5 15,-142.5 250,-142.5 250,-142.5 15,-142.5"/>
<polygon fill="none" stroke="#666666" points="0,0 0,-295 250,-295 250,0 0,0"/>
</a>
</g>
</g>
<!-- Node2 -->
<g id="Node000002" class="node">
<title>Node2</title>
<g id="a_Node000002"><a xlink:title=" ">
<polygon fill="white" stroke="transparent" points="154.5,-380 95.5,-380 95.5,-331 154.5,-331 154.5,-380"/>
<text text-anchor="start" x="101" y="-367.5" font-family="Helvetica,sans-Serif" font-size="10.00">Exception</text>
<text text-anchor="start" x="123.5" y="-352.5" font-family="Helvetica,sans-Serif" font-size="10.00"> </text>
<text text-anchor="start" x="123.5" y="-337.5" font-family="Helvetica,sans-Serif" font-size="10.00"> </text>
<polygon fill="#666666" stroke="#666666" points="96,-362.5 96,-362.5 155,-362.5 155,-362.5 96,-362.5"/>
<polygon fill="#666666" stroke="#666666" points="96,-347.5 96,-347.5 155,-347.5 155,-347.5 96,-347.5"/>
<polygon fill="none" stroke="#666666" points="95.5,-331 95.5,-380 154.5,-380 154.5,-331 95.5,-331"/>
</a>
</g>
</g>
<!-- Node2&#45;&gt;Node1 -->
<g id="edge1_Node000001_Node000002" class="edge">
<title>Node2&#45;&gt;Node1</title>
<g id="a_edge1_Node000001_Node000002"><a xlink:title=" ">
<path fill="none" stroke="#63b8ff" d="M125,-320.71C125,-313.05 125,-304.44 125,-295.26"/>
<polygon fill="none" stroke="#63b8ff" points="121.5,-320.87 125,-330.87 128.5,-320.87 121.5,-320.87"/>
</a>
</g>
</g>
</g>
</svg>
</svg>

<style type='text/css'>
<![CDATA[
[data-mouse-over-selected='false'] { opacity: 0.7; }
[data-mouse-over-selected='true']  { opacity: 1.0; }
]]>
</style>
<script type="application/ecmascript"><![CDATA[
document.addEventListener('DOMContentLoaded', (event) => {
  highlightEdges();
  highlightAdjacentNodes();
});
]]></script>
</svg>
