<?xml version="1.0" encoding="UTF-8" standalone="no"?>
<!DOCTYPE svg PUBLIC "-//W3C//DTD SVG 1.1//EN"
 "http://www.w3.org/Graphics/SVG/1.1/DTD/svg11.dtd">
<!-- Generated by graphviz version 2.43.0 (0)
 -->
<!-- Title: configurator.ConfigurationExceptionCode Pages: 1 -->
<svg width="211pt" height="392pt"
 viewBox="0.00 0.00 211.00 392.00" xmlns="http://www.w3.org/2000/svg" xmlns:xlink="http://www.w3.org/1999/xlink">
<g id="graph0" class="graph" transform="scale(1 1) rotate(0) translate(4 388)">
<title>configurator.ConfigurationExceptionCode</title>
<!-- Node1 -->
<g id="Node000001" class="node">
<title>Node1</title>
<g id="a_Node000001"><a xlink:title=" ">
<polygon fill="#999999" stroke="transparent" points="203,-299 0,-299 0,0 203,0 203,-299"/>
<text text-anchor="start" x="38.5" y="-286.5" font-family="Helvetica,sans-Serif" font-size="10.00">configurator.Configuration</text>
<text text-anchor="start" x="65.5" y="-275.5" font-family="Helvetica,sans-Serif" font-size="10.00">ExceptionCode</text>
<text text-anchor="start" x="4.5" y="-260.5" font-family="Helvetica,sans-Serif" font-size="10.00">+</text>
<text text-anchor="start" x="17.5" y="-260.5" font-family="Helvetica,sans-Serif" font-size="10.00">CONFIG_LOGGER_FAILED</text>
<text text-anchor="start" x="4.5" y="-245.5" font-family="Helvetica,sans-Serif" font-size="10.00">+</text>
<text text-anchor="start" x="17.5" y="-245.5" font-family="Helvetica,sans-Serif" font-size="10.00">CONFIG_UNEXPECTED</text>
<text text-anchor="start" x="17.5" y="-234.5" font-family="Helvetica,sans-Serif" font-size="10.00">_ERROR</text>
<text text-anchor="start" x="4.5" y="-219.5" font-family="Helvetica,sans-Serif" font-size="10.00">+</text>
<text text-anchor="start" x="17.5" y="-219.5" font-family="Helvetica,sans-Serif" font-size="10.00">HTTP_METHOD_ERROR</text>
<text text-anchor="start" x="4.5" y="-204.5" font-family="Helvetica,sans-Serif" font-size="10.00">+</text>
<text text-anchor="start" x="17.5" y="-204.5" font-family="Helvetica,sans-Serif" font-size="10.00">HTTP_REQUEST_TIMEOUT</text>
<text text-anchor="start" x="4.5" y="-189.5" font-family="Helvetica,sans-Serif" font-size="10.00">+</text>
<text text-anchor="start" x="17.5" y="-189.5" font-family="Helvetica,sans-Serif" font-size="10.00">HTTP_TIMEOUT</text>
<text text-anchor="start" x="4.5" y="-174.5" font-family="Helvetica,sans-Serif" font-size="10.00">+</text>
<text text-anchor="start" x="17.5" y="-174.5" font-family="Helvetica,sans-Serif" font-size="10.00">NGROK_CHECK_FAILED</text>
<text text-anchor="start" x="4.5" y="-159.5" font-family="Helvetica,sans-Serif" font-size="10.00">+</text>
<text text-anchor="start" x="17.5" y="-159.5" font-family="Helvetica,sans-Serif" font-size="10.00">NGROK_NOT_READY</text>
<text text-anchor="start" x="4.5" y="-144.5" font-family="Helvetica,sans-Serif" font-size="10.00">+</text>
<text text-anchor="start" x="17.5" y="-144.5" font-family="Helvetica,sans-Serif" font-size="10.00">NGROK_START_FAILED</text>
<text text-anchor="start" x="4.5" y="-129.5" font-family="Helvetica,sans-Serif" font-size="10.00">+</text>
<text text-anchor="start" x="17.5" y="-129.5" font-family="Helvetica,sans-Serif" font-size="10.00">NGROK_STOP_FAILED</text>
<text text-anchor="start" x="4.5" y="-114.5" font-family="Helvetica,sans-Serif" font-size="10.00">+</text>
<text text-anchor="start" x="17.5" y="-114.5" font-family="Helvetica,sans-Serif" font-size="10.00">NGROK_VERIFY_FAILED</text>
<text text-anchor="start" x="4.5" y="-99.5" font-family="Helvetica,sans-Serif" font-size="10.00">+</text>
<text text-anchor="start" x="17.5" y="-99.5" font-family="Helvetica,sans-Serif" font-size="10.00">NO_ERROR</text>
<text text-anchor="start" x="4.5" y="-84.5" font-family="Helvetica,sans-Serif" font-size="10.00">+</text>
<text text-anchor="start" x="17.5" y="-84.5" font-family="Helvetica,sans-Serif" font-size="10.00">TELEGRAM_WEBHOOK_HTTP</text>
<text text-anchor="start" x="17.5" y="-73.5" font-family="Helvetica,sans-Serif" font-size="10.00">_ERROR</text>
<text text-anchor="start" x="4.5" y="-58.5" font-family="Helvetica,sans-Serif" font-size="10.00">+</text>
<text text-anchor="start" x="17.5" y="-58.5" font-family="Helvetica,sans-Serif" font-size="10.00">TELEGRAM_WEBHOOK_METHOD</text>
<text text-anchor="start" x="17.5" y="-47.5" font-family="Helvetica,sans-Serif" font-size="10.00">_ERROR</text>
<text text-anchor="start" x="4.5" y="-32.5" font-family="Helvetica,sans-Serif" font-size="10.00">+</text>
<text text-anchor="start" x="17.5" y="-32.5" font-family="Helvetica,sans-Serif" font-size="10.00">TELEGRAM_WEBHOOK_UNEXPECTED</text>
<text text-anchor="start" x="17.5" y="-21.5" font-family="Helvetica,sans-Serif" font-size="10.00">_ERROR</text>
<text text-anchor="start" x="100" y="-6.5" font-family="Helvetica,sans-Serif" font-size="10.00"> </text>
<polygon fill="#666666" stroke="#666666" points="0.5,-270.5 0.5,-270.5 203.5,-270.5 203.5,-270.5 0.5,-270.5"/>
<polygon fill="#666666" stroke="#666666" points="0.5,-16.5 0.5,-16.5 15.5,-16.5 15.5,-16.5 0.5,-16.5"/>
<polygon fill="#666666" stroke="#666666" points="15.5,-16.5 15.5,-16.5 203.5,-16.5 203.5,-16.5 15.5,-16.5"/>
<polygon fill="none" stroke="#666666" points="0,0 0,-299 203,-299 203,0 0,0"/>
</a>
</g>
</g>
<!-- Node2 -->
<g id="Node000002" class="node">
<title>Node2</title>
<g id="a_Node000002"><a xlink:title=" ">
<polygon fill="white" stroke="transparent" points="120.5,-384 82.5,-384 82.5,-335 120.5,-335 120.5,-384"/>
<text text-anchor="start" x="87.5" y="-371.5" font-family="Helvetica,sans-Serif" font-size="10.00">Enum</text>
<text text-anchor="start" x="99.5" y="-356.5" font-family="Helvetica,sans-Serif" font-size="10.00"> </text>
<text text-anchor="start" x="99.5" y="-341.5" font-family="Helvetica,sans-Serif" font-size="10.00"> </text>
<polygon fill="#666666" stroke="#666666" points="82.5,-366.5 82.5,-366.5 120.5,-366.5 120.5,-366.5 82.5,-366.5"/>
<polygon fill="#666666" stroke="#666666" points="82.5,-351.5 82.5,-351.5 120.5,-351.5 120.5,-351.5 82.5,-351.5"/>
<polygon fill="none" stroke="#666666" points="82.5,-335 82.5,-384 120.5,-384 120.5,-335 82.5,-335"/>
</a>
</g>
</g>
<!-- Node2&#45;&gt;Node1 -->
<g id="edge1_Node000001_Node000002" class="edge">
<title>Node2&#45;&gt;Node1</title>
<g id="a_edge1_Node000001_Node000002"><a xlink:title=" ">
<path fill="none" stroke="#63b8ff" d="M101.5,-324.5C101.5,-316.86 101.5,-308.27 101.5,-299.12"/>
<polygon fill="none" stroke="#63b8ff" points="98,-324.64 101.5,-334.64 105,-324.64 98,-324.64"/>
</a>
</g>
</g>
</g>
</svg>
