<?xml version="1.0" encoding="UTF-8" standalone="no"?>
<!DOCTYPE svg PUBLIC "-//W3C//DTD SVG 1.1//EN"
 "http://www.w3.org/Graphics/SVG/1.1/DTD/svg11.dtd">
<!-- Generated by graphviz version 2.43.0 (0)
 -->
<!-- Title: bot.QueuedMessage Pages: 1 -->
<svg width="348pt" height="237pt"
 viewBox="0.00 0.00 348.00 237.00" xmlns="http://www.w3.org/2000/svg" xmlns:xlink="http://www.w3.org/1999/xlink">
<g id="graph0" class="graph" transform="scale(1 1) rotate(0) translate(4 233)">
<title>bot.QueuedMessage</title>
<!-- Node1 -->
<g id="node1" class="node">
<title>Node1</title>
<g id="a_node1"><a xlink:title=" ">
<polygon fill="#bfbfbf" stroke="black" points="111.5,-105.5 111.5,-228.5 227.5,-228.5 227.5,-105.5 111.5,-105.5"/>
<text text-anchor="middle" x="169.5" y="-216.5" font-family="Helvetica,sans-Serif" font-size="10.00">bot.QueuedMessage</text>
<polyline fill="none" stroke="black" points="111.5,-209.5 227.5,-209.5 "/>
<text text-anchor="start" x="119.5" y="-197.5" font-family="Helvetica,sans-Serif" font-size="10.00">+ event</text>
<text text-anchor="start" x="119.5" y="-186.5" font-family="Helvetica,sans-Serif" font-size="10.00">+ message</text>
<text text-anchor="start" x="119.5" y="-175.5" font-family="Helvetica,sans-Serif" font-size="10.00">+ result</text>
<text text-anchor="start" x="119.5" y="-164.5" font-family="Helvetica,sans-Serif" font-size="10.00">+ store_retries</text>
<text text-anchor="start" x="119.5" y="-153.5" font-family="Helvetica,sans-Serif" font-size="10.00">+ stored_ok</text>
<polyline fill="none" stroke="black" points="111.5,-146.5 227.5,-146.5 "/>
<text text-anchor="start" x="119.5" y="-134.5" font-family="Helvetica,sans-Serif" font-size="10.00">+ __init__()</text>
<text text-anchor="start" x="119.5" y="-123.5" font-family="Helvetica,sans-Serif" font-size="10.00">+ set_result()</text>
<text text-anchor="start" x="119.5" y="-112.5" font-family="Helvetica,sans-Serif" font-size="10.00">+ wait_result()</text>
</a>
</g>
</g>
<!-- Node2 -->
<g id="node2" class="node">
<title>Node2</title>
<g id="a_node2"><a xlink:href="classbot_1_1IncomingQueuedMessage.html" target="_top" xlink:title=" ">
<polygon fill="none" stroke="black" points="0,-6 0,-63 161,-63 161,-6 0,-6"/>
<text text-anchor="middle" x="80.5" y="-51" font-family="Helvetica,sans-Serif" font-size="10.00">bot.IncomingQueuedMessage</text>
<polyline fill="none" stroke="black" points="0,-44 161,-44 "/>
<text text-anchor="middle" x="80.5" y="-32" font-family="Helvetica,sans-Serif" font-size="10.00"> </text>
<polyline fill="none" stroke="black" points="0,-25 161,-25 "/>
<text text-anchor="start" x="8" y="-13" font-family="Helvetica,sans-Serif" font-size="10.00">+ __init__()</text>
</a>
</g>
</g>
<!-- Node1&#45;&gt;Node2 -->
<g id="edge1" class="edge">
<title>Node1&#45;&gt;Node2</title>
<path fill="none" stroke="midnightblue" d="M122.45,-97.01C114.26,-84.99 106.18,-73.15 99.33,-63.11"/>
<polygon fill="none" stroke="midnightblue" points="119.6,-99.04 128.13,-105.33 125.38,-95.1 119.6,-99.04"/>
</g>
<!-- Node3 -->
<g id="node3" class="node">
<title>Node3</title>
<g id="a_node3"><a xlink:href="classbot_1_1OutgoingQueuedMessage.html" target="_top" xlink:title=" ">
<polygon fill="none" stroke="black" points="179,-0.5 179,-68.5 340,-68.5 340,-0.5 179,-0.5"/>
<text text-anchor="middle" x="259.5" y="-56.5" font-family="Helvetica,sans-Serif" font-size="10.00">bot.OutgoingQueuedMessage</text>
<polyline fill="none" stroke="black" points="179,-49.5 340,-49.5 "/>
<text text-anchor="start" x="187" y="-37.5" font-family="Helvetica,sans-Serif" font-size="10.00">+ send_retries</text>
<text text-anchor="start" x="187" y="-26.5" font-family="Helvetica,sans-Serif" font-size="10.00">+ sent_ok</text>
<polyline fill="none" stroke="black" points="179,-19.5 340,-19.5 "/>
<text text-anchor="start" x="187" y="-7.5" font-family="Helvetica,sans-Serif" font-size="10.00">+ __init__()</text>
</a>
</g>
</g>
<!-- Node1&#45;&gt;Node3 -->
<g id="edge2" class="edge">
<title>Node1&#45;&gt;Node3</title>
<path fill="none" stroke="midnightblue" d="M217.07,-97.02C223.89,-87.13 230.63,-77.36 236.66,-68.62"/>
<polygon fill="none" stroke="midnightblue" points="214.13,-95.12 211.34,-105.33 219.9,-99.09 214.13,-95.12"/>
</g>
</g>
</svg>
