<?xml version="1.0" encoding="UTF-8" standalone="no"?>
<!DOCTYPE svg PUBLIC "-//W3C//DTD SVG 1.1//EN"
 "http://www.w3.org/Graphics/SVG/1.1/DTD/svg11.dtd">
<!-- Generated by graphviz version 2.43.0 (0)
 -->
<!-- Title: database.Database Pages: 1 -->
<svg width="125pt" height="94pt"
 viewBox="0.00 0.00 125.00 94.00" xmlns="http://www.w3.org/2000/svg" xmlns:xlink="http://www.w3.org/1999/xlink">
<g id="graph0" class="graph" transform="scale(1 1) rotate(0) translate(4 90)">
<title>database.Database</title>
<!-- Node1 -->
<g id="Node000001" class="node">
<title>Node1</title>
<g id="a_Node000001"><a xlink:title=" ">
<polygon fill="#999999" stroke="transparent" points="117,-86 0,-86 0,0 117,0 117,-86"/>
<text text-anchor="start" x="11.5" y="-74" font-family="Helvetica,sans-Serif" font-size="10.00">database.Database</text>
<text text-anchor="start" x="57" y="-59" font-family="Helvetica,sans-Serif" font-size="10.00"> </text>
<text text-anchor="start" x="4.5" y="-44" font-family="Helvetica,sans-Serif" font-size="10.00">+</text>
<text text-anchor="start" x="17.5" y="-44" font-family="Helvetica,sans-Serif" font-size="10.00">__init__(self)</text>
<text text-anchor="start" x="4.5" y="-29" font-family="Helvetica,sans-Serif" font-size="10.00">+</text>
<text text-anchor="start" x="17.5" y="-29" font-family="Helvetica,sans-Serif" font-size="10.00">salva_prenotazione</text>
<text text-anchor="start" x="17.5" y="-18" font-family="Helvetica,sans-Serif" font-size="10.00">(self, name, event,</text>
<text text-anchor="start" x="17.5" y="-7" font-family="Helvetica,sans-Serif" font-size="10.00"> number_sits)</text>
<polygon fill="#666666" stroke="#666666" points="0.5,-69 0.5,-69 117.5,-69 117.5,-69 0.5,-69"/>
<polygon fill="#666666" stroke="#666666" points="0.5,-54 0.5,-54 117.5,-54 117.5,-54 0.5,-54"/>
<polygon fill="none" stroke="#666666" points="0,0 0,-86 117,-86 117,0 0,0"/>
</a>
</g>
</g>
</g>
</svg>
