<?xml version="1.0" encoding="UTF-8" standalone="no"?>
<!DOCTYPE svg PUBLIC "-//W3C//DTD SVG 1.1//EN"
 "http://www.w3.org/Graphics/SVG/1.1/DTD/svg11.dtd">
<!-- Generated by graphviz version 2.43.0 (0)
 -->
<!-- Title: Graphical Class Hierarchy Pages: 1 -->
<svg width="197pt" height="104pt"
 viewBox="0.00 0.00 197.00 104.00" xmlns="http://www.w3.org/2000/svg" xmlns:xlink="http://www.w3.org/1999/xlink">
<g id="graph0" class="graph" transform="scale(1 1) rotate(0) translate(4 100)">
<title>Graphical Class Hierarchy</title>
<!-- Node0 -->
<g id="node1" class="node">
<title>Node0</title>
<g id="a_node1"><a xlink:href="classbot_1_1Bot.html" target="_top" xlink:title=" ">
<polygon fill="none" stroke="black" points="0,-38.5 0,-57.5 52,-57.5 52,-38.5 0,-38.5"/>
<text text-anchor="middle" x="26" y="-45.5" font-family="Helvetica,sans-Serif" font-size="10.00">bot.Bot</text>
</a>
</g>
</g>
<!-- Node1 -->
<g id="node2" class="node">
<title>Node1</title>
<g id="a_node2"><a xlink:href="classbot_1_1FacebookBot.html" target="_top" xlink:title=" ">
<polygon fill="none" stroke="black" points="89.5,-76.5 89.5,-95.5 187.5,-95.5 187.5,-76.5 89.5,-76.5"/>
<text text-anchor="middle" x="138.5" y="-83.5" font-family="Helvetica,sans-Serif" font-size="10.00">bot.FacebookBot</text>
</a>
</g>
</g>
<!-- Node0&#45;&gt;Node1 -->
<g id="edge1" class="edge">
<title>Node0&#45;&gt;Node1</title>
<path fill="none" stroke="midnightblue" d="M61.82,-59.98C77.3,-65.3 95.27,-71.48 109.81,-76.48"/>
<polygon fill="midnightblue" stroke="midnightblue" points="62.67,-56.57 52.07,-56.62 60.39,-63.18 62.67,-56.57"/>
</g>
<!-- Node2 -->
<g id="node3" class="node">
<title>Node2</title>
<g id="a_node3"><a xlink:href="classbot_1_1TelegramBot.html" target="_top" xlink:title=" ">
<polygon fill="none" stroke="black" points="90,-38.5 90,-57.5 187,-57.5 187,-38.5 90,-38.5"/>
<text text-anchor="middle" x="138.5" y="-45.5" font-family="Helvetica,sans-Serif" font-size="10.00">bot.TelegramBot</text>
</a>
</g>
</g>
<!-- Node0&#45;&gt;Node2 -->
<g id="edge2" class="edge">
<title>Node0&#45;&gt;Node2</title>
<path fill="none" stroke="midnightblue" d="M62.32,-48C71.09,-48 80.64,-48 89.9,-48"/>
<polygon fill="midnightblue" stroke="midnightblue" points="62.07,-44.5 52.07,-48 62.07,-51.5 62.07,-44.5"/>
</g>
<!-- Node3 -->
<g id="node4" class="node">
<title>Node3</title>
<g id="a_node4"><a xlink:href="classbot_1_1WhatsappBot.html" target="_top" xlink:title=" ">
<polygon fill="none" stroke="black" points="88,-0.5 88,-19.5 189,-19.5 189,-0.5 88,-0.5"/>
<text text-anchor="middle" x="138.5" y="-7.5" font-family="Helvetica,sans-Serif" font-size="10.00">bot.WhatsappBot</text>
</a>
</g>
</g>
<!-- Node0&#45;&gt;Node3 -->
<g id="edge3" class="edge">
<title>Node0&#45;&gt;Node3</title>
<path fill="none" stroke="midnightblue" d="M61.82,-36.02C77.3,-30.7 95.27,-24.52 109.81,-19.52"/>
<polygon fill="midnightblue" stroke="midnightblue" points="60.39,-32.82 52.07,-39.38 62.67,-39.43 60.39,-32.82"/>
</g>
</g>
</svg>
