<?xml version="1.0" encoding="UTF-8" standalone="no"?>
<!DOCTYPE svg PUBLIC "-//W3C//DTD SVG 1.1//EN"
 "http://www.w3.org/Graphics/SVG/1.1/DTD/svg11.dtd">
<!-- Generated by graphviz version 2.43.0 (0)
 -->
<!-- Title: Graphical Class Hierarchy Pages: 1 -->
<svg width="189pt" height="66pt"
 viewBox="0.00 0.00 189.00 66.00" xmlns="http://www.w3.org/2000/svg" xmlns:xlink="http://www.w3.org/1999/xlink">
<g id="graph0" class="graph" transform="scale(1 1) rotate(0) translate(4 62)">
<title>Graphical Class Hierarchy</title>
<!-- Node87 -->
<g id="node1" class="node">
<title>Node87</title>
<g id="a_node1"><a xlink:title=" ">
<polygon fill="none" stroke="#bfbfbf" points="0,-19.5 0,-38.5 41,-38.5 41,-19.5 0,-19.5"/>
<text text-anchor="middle" x="20.5" y="-26.5" font-family="Helvetica,sans-Serif" font-size="10.00">Base</text>
</a>
</g>
</g>
<!-- Node0 -->
<g id="node2" class="node">
<title>Node0</title>
<g id="a_node2"><a xlink:href="classdatabase_1_1Booking.html" target="_top" xlink:title=" ">
<polygon fill="none" stroke="black" points="77,-38.5 77,-57.5 181,-57.5 181,-38.5 77,-38.5"/>
<text text-anchor="middle" x="129" y="-45.5" font-family="Helvetica,sans-Serif" font-size="10.00">database.Booking</text>
</a>
</g>
</g>
<!-- Node87&#45;&gt;Node0 -->
<g id="edge1" class="edge">
<title>Node87&#45;&gt;Node0</title>
<path fill="none" stroke="midnightblue" d="M50.94,-34.25C58.93,-35.68 67.82,-37.26 76.64,-38.84"/>
<polygon fill="midnightblue" stroke="midnightblue" points="51.49,-30.8 41.03,-32.48 50.26,-37.69 51.49,-30.8"/>
</g>
<!-- Node89 -->
<g id="node3" class="node">
<title>Node89</title>
<g id="a_node3"><a xlink:href="classdatabase_1_1Event.html" target="_top" xlink:title=" ">
<polygon fill="none" stroke="black" points="83,-0.5 83,-19.5 175,-19.5 175,-0.5 83,-0.5"/>
<text text-anchor="middle" x="129" y="-7.5" font-family="Helvetica,sans-Serif" font-size="10.00">database.Event</text>
</a>
</g>
</g>
<!-- Node87&#45;&gt;Node89 -->
<g id="edge2" class="edge">
<title>Node87&#45;&gt;Node89</title>
<path fill="none" stroke="midnightblue" d="M51.12,-23.72C60.98,-21.96 72.2,-19.96 82.96,-18.04"/>
<polygon fill="midnightblue" stroke="midnightblue" points="50.26,-20.31 41.03,-25.52 51.49,-27.2 50.26,-20.31"/>
</g>
</g>
</svg>
