<?xml version="1.0" encoding="UTF-8" standalone="no"?>
<!DOCTYPE svg PUBLIC "-//W3C//DTD SVG 1.1//EN"
 "http://www.w3.org/Graphics/SVG/1.1/DTD/svg11.dtd">
<!-- Generated by graphviz version 2.43.0 (0)
 -->
<!-- Title: Graphical Class Hierarchy Pages: 1 -->
<svg width="321pt" height="64pt"
 viewBox="0.00 0.00 321.00 64.00" xmlns="http://www.w3.org/2000/svg" xmlns:xlink="http://www.w3.org/1999/xlink">
<g id="graph0" class="graph" transform="scale(1 1) rotate(0) translate(4 60)">
<title>Graphical Class Hierarchy</title>
<!-- Node0 -->
<g id="Node000000" class="node">
<title>Node0</title>
<g id="a_Node000000"><a xlink:href="classbot_1_1QueuedMessage.html" target="_top" xlink:title=" ">
<polygon fill="white" stroke="#666666" points="116,-37 0,-37 0,-18 116,-18 116,-37"/>
<text text-anchor="middle" x="58" y="-25" font-family="Helvetica,sans-Serif" font-size="10.00">bot.QueuedMessage</text>
</a>
</g>
</g>
<!-- Node1 -->
<g id="Node000001" class="node">
<title>Node1</title>
<g id="a_Node000001"><a xlink:href="classbot_1_1IncomingQueuedMessage.html" target="_top" xlink:title=" ">
<polygon fill="white" stroke="#666666" points="313,-56 152,-56 152,-37 313,-37 313,-56"/>
<text text-anchor="middle" x="232.5" y="-44" font-family="Helvetica,sans-Serif" font-size="10.00">bot.IncomingQueuedMessage</text>
</a>
</g>
</g>
<!-- Node0&#45;&gt;Node1 -->
<g id="edge6_Node000000_Node000001" class="edge">
<title>Node0&#45;&gt;Node1</title>
<g id="a_edge6_Node000000_Node000001"><a xlink:title=" ">
<path fill="none" stroke="#63b8ff" d="M126.47,-34.93C134.8,-35.85 143.39,-36.79 151.89,-37.73"/>
<polygon fill="#63b8ff" stroke="#63b8ff" points="126.76,-31.44 116.44,-33.83 126,-38.4 126.76,-31.44"/>
</a>
</g>
</g>
<!-- Node2 -->
<g id="Node000002" class="node">
<title>Node2</title>
<g id="a_Node000002"><a xlink:href="classbot_1_1OutgoingQueuedMessage.html" target="_top" xlink:title=" ">
<polygon fill="white" stroke="#666666" points="313,-19 152,-19 152,0 313,0 313,-19"/>
<text text-anchor="middle" x="232.5" y="-7" font-family="Helvetica,sans-Serif" font-size="10.00">bot.OutgoingQueuedMessage</text>
</a>
</g>
</g>
<!-- Node0&#45;&gt;Node2 -->
<g id="edge7_Node000000_Node000002" class="edge">
<title>Node0&#45;&gt;Node2</title>
<g id="a_edge7_Node000000_Node000002"><a xlink:title=" ">
<path fill="none" stroke="#63b8ff" d="M126.47,-20.46C134.8,-19.59 143.39,-18.69 151.89,-17.81"/>
<polygon fill="#63b8ff" stroke="#63b8ff" points="126.02,-16.99 116.44,-21.51 126.75,-23.95 126.02,-16.99"/>
</a>
</g>
</g>
</g>
</svg>
