<?xml version="1.0" encoding="UTF-8" standalone="no"?>
<!DOCTYPE svg PUBLIC "-//W3C//DTD SVG 1.1//EN"
 "http://www.w3.org/Graphics/SVG/1.1/DTD/svg11.dtd">
<!-- Generated by graphviz version 2.43.0 (0)
 -->
<!-- Title: Graphical Class Hierarchy Pages: 1 -->
<svg width="245pt" height="134pt"
 viewBox="0.00 0.00 245.00 134.00" xmlns="http://www.w3.org/2000/svg" xmlns:xlink="http://www.w3.org/1999/xlink">
<g id="graph0" class="graph" transform="scale(1 1) rotate(0) translate(4 130)">
<title>Graphical Class Hierarchy</title>
<!-- Node0 -->
<g id="Node000000" class="node">
<title>Node0</title>
<g id="a_Node000000"><a xlink:title=" ">
<polygon fill="#e0e0e0" stroke="#999999" points="44,-72.5 0,-72.5 0,-53.5 44,-53.5 44,-72.5"/>
<text text-anchor="middle" x="22" y="-60.5" font-family="Helvetica,sans-Serif" font-size="10.00">Enum</text>
</a>
</g>
</g>
<!-- Node1 -->
<g id="Node000001" class="node">
<title>Node1</title>
<g id="a_Node000001"><a xlink:href="classconfigurator_1_1ConfigurationExceptionCode.html" target="_top" xlink:title=" ">
<polygon fill="white" stroke="#666666" points="230,-126 87,-126 87,-96 230,-96 230,-126"/>
<text text-anchor="start" x="95" y="-114" font-family="Helvetica,sans-Serif" font-size="10.00">configurator.Configuration</text>
<text text-anchor="middle" x="158.5" y="-103" font-family="Helvetica,sans-Serif" font-size="10.00">ExceptionCode</text>
</a>
</g>
</g>
<!-- Node0&#45;&gt;Node1 -->
<g id="edge8_Node000000_Node000001" class="edge">
<title>Node0&#45;&gt;Node1</title>
<g id="a_edge8_Node000000_Node000001"><a xlink:title=" ">
<path fill="none" stroke="#63b8ff" d="M53.41,-76.45C61.94,-80.05 71.28,-83.82 80,-87 88.47,-90.09 97.55,-93.13 106.4,-95.96"/>
<polygon fill="#63b8ff" stroke="#63b8ff" points="54.76,-73.22 44.19,-72.51 52,-79.66 54.76,-73.22"/>
</a>
</g>
</g>
<!-- Node2 -->
<g id="Node000002" class="node">
<title>Node2</title>
<g id="a_Node000002"><a xlink:href="classexception_1_1ChatbotException_1_1ChatbotExceptionCode.html" target="_top" xlink:title=" ">
<polygon fill="white" stroke="#666666" points="237,-78 80,-78 80,-48 237,-48 237,-78"/>
<text text-anchor="start" x="88" y="-66" font-family="Helvetica,sans-Serif" font-size="10.00">exception.ChatbotException.</text>
<text text-anchor="middle" x="158.5" y="-55" font-family="Helvetica,sans-Serif" font-size="10.00">ChatbotExceptionCode</text>
</a>
</g>
</g>
<!-- Node0&#45;&gt;Node2 -->
<g id="edge9_Node000000_Node000002" class="edge">
<title>Node0&#45;&gt;Node2</title>
<g id="a_edge9_Node000000_Node000002"><a xlink:title=" ">
<path fill="none" stroke="#63b8ff" d="M54.07,-63C61.92,-63 70.7,-63 79.75,-63"/>
<polygon fill="#63b8ff" stroke="#63b8ff" points="54.02,-59.5 44.02,-63 54.02,-66.5 54.02,-59.5"/>
</a>
</g>
</g>
<!-- Node3 -->
<g id="Node000003" class="node">
<title>Node3</title>
<g id="a_Node000003"><a xlink:href="classexception_1_1ChatbotException_1_1ChatbotExceptionSeverity.html" target="_top" xlink:title=" ">
<polygon fill="white" stroke="#666666" points="237,-30 80,-30 80,0 237,0 237,-30"/>
<text text-anchor="start" x="88" y="-18" font-family="Helvetica,sans-Serif" font-size="10.00">exception.ChatbotException.</text>
<text text-anchor="middle" x="158.5" y="-7" font-family="Helvetica,sans-Serif" font-size="10.00">ChatbotExceptionSeverity</text>
</a>
</g>
</g>
<!-- Node0&#45;&gt;Node3 -->
<g id="edge10_Node000000_Node000003" class="edge">
<title>Node0&#45;&gt;Node3</title>
<g id="a_edge10_Node000000_Node000003"><a xlink:title=" ">
<path fill="none" stroke="#63b8ff" d="M53.41,-49.55C61.94,-45.95 71.28,-42.18 80,-39 88.47,-35.91 97.55,-32.87 106.4,-30.04"/>
<polygon fill="#63b8ff" stroke="#63b8ff" points="52,-46.34 44.19,-53.49 54.76,-52.78 52,-46.34"/>
</a>
</g>
</g>
</g>
</svg>
