<?xml version="1.0" encoding="UTF-8" standalone="no"?>
<!DOCTYPE svg PUBLIC "-//W3C//DTD SVG 1.1//EN"
 "http://www.w3.org/Graphics/SVG/1.1/DTD/svg11.dtd">
<!-- Generated by graphviz version 2.43.0 (0)
 -->
<!-- Title: Graphical Class Hierarchy Pages: 1 -->
<svg width="197pt" height="101pt"
 viewBox="0.00 0.00 197.00 101.00" xmlns="http://www.w3.org/2000/svg" xmlns:xlink="http://www.w3.org/1999/xlink">
<g id="graph0" class="graph" transform="scale(1 1) rotate(0) translate(4 97)">
<title>Graphical Class Hierarchy</title>
<!-- Node0 -->
<g id="Node000000" class="node">
<title>Node0</title>
<g id="a_Node000000"><a xlink:href="classbot_1_1Bot.html" target="_top" xlink:title=" ">
<polygon fill="white" stroke="#666666" points="52,-56 0,-56 0,-37 52,-37 52,-56"/>
<text text-anchor="middle" x="26" y="-44" font-family="Helvetica,sans-Serif" font-size="10.00">bot.Bot</text>
</a>
</g>
</g>
<!-- Node1 -->
<g id="Node000001" class="node">
<title>Node1</title>
<g id="a_Node000001"><a xlink:href="classbot_1_1FacebookBot.html" target="_top" xlink:title=" ">
<polygon fill="white" stroke="#666666" points="187.5,-93 89.5,-93 89.5,-74 187.5,-74 187.5,-93"/>
<text text-anchor="middle" x="138.5" y="-81" font-family="Helvetica,sans-Serif" font-size="10.00">bot.FacebookBot</text>
</a>
</g>
</g>
<!-- Node0&#45;&gt;Node1 -->
<g id="edge3_Node000000_Node000001" class="edge">
<title>Node0&#45;&gt;Node1</title>
<g id="a_edge3_Node000000_Node000001"><a xlink:title=" ">
<path fill="none" stroke="#63b8ff" d="M61.67,-58.11C76.91,-63.21 94.57,-69.13 109.02,-73.96"/>
<polygon fill="#63b8ff" stroke="#63b8ff" points="62.67,-54.75 52.07,-54.9 60.45,-61.39 62.67,-54.75"/>
</a>
</g>
</g>
<!-- Node2 -->
<g id="Node000002" class="node">
<title>Node2</title>
<g id="a_Node000002"><a xlink:href="classbot_1_1TelegramBot.html" target="_top" xlink:title=" ">
<polygon fill="white" stroke="#666666" points="187,-56 90,-56 90,-37 187,-37 187,-56"/>
<text text-anchor="middle" x="138.5" y="-44" font-family="Helvetica,sans-Serif" font-size="10.00">bot.TelegramBot</text>
</a>
</g>
</g>
<!-- Node0&#45;&gt;Node2 -->
<g id="edge4_Node000000_Node000002" class="edge">
<title>Node0&#45;&gt;Node2</title>
<g id="a_edge4_Node000000_Node000002"><a xlink:title=" ">
<path fill="none" stroke="#63b8ff" d="M62.32,-46.5C71.09,-46.5 80.64,-46.5 89.9,-46.5"/>
<polygon fill="#63b8ff" stroke="#63b8ff" points="62.07,-43 52.07,-46.5 62.07,-50 62.07,-43"/>
</a>
</g>
</g>
<!-- Node3 -->
<g id="Node000003" class="node">
<title>Node3</title>
<g id="a_Node000003"><a xlink:href="classbot_1_1WhatsappBot.html" target="_top" xlink:title=" ">
<polygon fill="white" stroke="#666666" points="189,-19 88,-19 88,0 189,0 189,-19"/>
<text text-anchor="middle" x="138.5" y="-7" font-family="Helvetica,sans-Serif" font-size="10.00">bot.WhatsappBot</text>
</a>
</g>
</g>
<!-- Node0&#45;&gt;Node3 -->
<g id="edge5_Node000000_Node000003" class="edge">
<title>Node0&#45;&gt;Node3</title>
<g id="a_edge5_Node000000_Node000003"><a xlink:title=" ">
<path fill="none" stroke="#63b8ff" d="M61.67,-34.89C76.91,-29.79 94.57,-23.87 109.02,-19.04"/>
<polygon fill="#63b8ff" stroke="#63b8ff" points="60.45,-31.61 52.07,-38.1 62.67,-38.25 60.45,-31.61"/>
</a>
</g>
</g>
</g>
</svg>
