<?xml version="1.0" encoding="UTF-8" standalone="no"?>
<!DOCTYPE svg PUBLIC "-//W3C//DTD SVG 1.1//EN"
 "http://www.w3.org/Graphics/SVG/1.1/DTD/svg11.dtd">
<!-- Generated by graphviz version 2.43.0 (0)
 -->
<!-- Title: configurator.Configurator.check_ngrok Pages: 1 -->
<svg width="610pt" height="39pt"
 viewBox="0.00 0.00 610.00 39.00" xmlns="http://www.w3.org/2000/svg" xmlns:xlink="http://www.w3.org/1999/xlink">
<g id="graph0" class="graph" transform="scale(1 1) rotate(0) translate(4 35)">
<title>configurator.Configurator.check_ngrok</title>
<!-- Node1 -->
<g id="node1" class="node">
<title>Node1</title>
<g id="a_node1"><a xlink:title=" ">
<polygon fill="#bfbfbf" stroke="black" points="431,-0.5 431,-30.5 602,-30.5 602,-0.5 431,-0.5"/>
<text text-anchor="start" x="439" y="-18.5" font-family="Helvetica,sans-Serif" font-size="10.00">configurator.Configurator.check</text>
<text text-anchor="middle" x="516.5" y="-7.5" font-family="Helvetica,sans-Serif" font-size="10.00">_ngrok</text>
</a>
</g>
</g>
<!-- Node2 -->
<g id="node2" class="node">
<title>Node2</title>
<g id="a_node2"><a xlink:href="classconfigurator_1_1Configurator.html#aed68704c19cba14d0f2fa93933a3bcb4" target="_top" xlink:title=" ">
<polygon fill="none" stroke="black" points="224,-0.5 224,-30.5 395,-30.5 395,-0.5 224,-0.5"/>
<text text-anchor="start" x="232" y="-18.5" font-family="Helvetica,sans-Serif" font-size="10.00">configurator.Configurator.verify</text>
<text text-anchor="middle" x="309.5" y="-7.5" font-family="Helvetica,sans-Serif" font-size="10.00">_ngrok</text>
</a>
</g>
</g>
<!-- Node1&#45;&gt;Node2 -->
<g id="edge1" class="edge">
<title>Node1&#45;&gt;Node2</title>
<path fill="none" stroke="midnightblue" d="M420.91,-15.5C412.34,-15.5 403.69,-15.5 395.2,-15.5"/>
<polygon fill="midnightblue" stroke="midnightblue" points="420.94,-19 430.94,-15.5 420.94,-12 420.94,-19"/>
</g>
<!-- Node3 -->
<g id="node3" class="node">
<title>Node3</title>
<g id="a_node3"><a xlink:href="classconfigurator_1_1Configurator.html#a8ffdf2ad767373fc199bb2d2cece8304" target="_top" xlink:title=" ">
<polygon fill="none" stroke="black" points="0,-6 0,-25 188,-25 188,-6 0,-6"/>
<text text-anchor="middle" x="94" y="-13" font-family="Helvetica,sans-Serif" font-size="10.00">configurator.Configurator.configure</text>
</a>
</g>
</g>
<!-- Node2&#45;&gt;Node3 -->
<g id="edge2" class="edge">
<title>Node2&#45;&gt;Node3</title>
<path fill="none" stroke="midnightblue" d="M213.54,-15.5C205.06,-15.5 196.48,-15.5 188.02,-15.5"/>
<polygon fill="midnightblue" stroke="midnightblue" points="213.81,-19 223.81,-15.5 213.81,-12 213.81,-19"/>
</g>
</g>
</svg>
