<?xml version="1.0" encoding="UTF-8" standalone="no"?>
<!DOCTYPE svg PUBLIC "-//W3C//DTD SVG 1.1//EN"
 "http://www.w3.org/Graphics/SVG/1.1/DTD/svg11.dtd">
<!-- Generated by graphviz version 2.43.0 (0)
 -->
<!-- Title: bot.HTTPMessageHeadersException Pages: 1 -->
<svg width="201pt" height="668pt"
 viewBox="0.00 0.00 201.00 668.00" xmlns="http://www.w3.org/2000/svg" xmlns:xlink="http://www.w3.org/1999/xlink">
<g id="graph0" class="graph" transform="scale(1 1) rotate(0) translate(4 664)">
<title>bot.HTTPMessageHeadersException</title>
<!-- Node1 -->
<g id="node1" class="node">
<title>Node1</title>
<g id="a_node1"><a xlink:title=" ">
<polygon fill="#bfbfbf" stroke="black" points="0,-0.5 0,-57.5 193,-57.5 193,-0.5 0,-0.5"/>
<text text-anchor="middle" x="96.5" y="-45.5" font-family="Helvetica,sans-Serif" font-size="10.00">bot.HTTPMessageHeadersException</text>
<polyline fill="none" stroke="black" points="0,-38.5 193,-38.5 "/>
<text text-anchor="middle" x="96.5" y="-26.5" font-family="Helvetica,sans-Serif" font-size="10.00"> </text>
<polyline fill="none" stroke="black" points="0,-19.5 193,-19.5 "/>
<text text-anchor="middle" x="96.5" y="-7.5" font-family="Helvetica,sans-Serif" font-size="10.00"> </text>
</a>
</g>
</g>
<!-- Node2 -->
<g id="node2" class="node">
<title>Node2</title>
<g id="a_node2"><a xlink:href="classbot_1_1HTTPMessageException.html" target="_top" xlink:title=" ">
<polygon fill="none" stroke="black" points="20.5,-94.5 20.5,-151.5 172.5,-151.5 172.5,-94.5 20.5,-94.5"/>
<text text-anchor="middle" x="96.5" y="-139.5" font-family="Helvetica,sans-Serif" font-size="10.00">bot.HTTPMessageException</text>
<polyline fill="none" stroke="black" points="20.5,-132.5 172.5,-132.5 "/>
<text text-anchor="middle" x="96.5" y="-120.5" font-family="Helvetica,sans-Serif" font-size="10.00"> </text>
<polyline fill="none" stroke="black" points="20.5,-113.5 172.5,-113.5 "/>
<text text-anchor="middle" x="96.5" y="-101.5" font-family="Helvetica,sans-Serif" font-size="10.00"> </text>
</a>
</g>
</g>
<!-- Node2&#45;&gt;Node1 -->
<g id="edge1" class="edge">
<title>Node2&#45;&gt;Node1</title>
<path fill="none" stroke="midnightblue" d="M96.5,-84.21C96.5,-75.29 96.5,-65.95 96.5,-57.58"/>
<polygon fill="none" stroke="midnightblue" points="93,-84.4 96.5,-94.4 100,-84.4 93,-84.4"/>
</g>
<!-- Node3 -->
<g id="node3" class="node">
<title>Node3</title>
<g id="a_node3"><a xlink:href="classbot_1_1BotMessageException.html" target="_top" xlink:title=" ">
<polygon fill="none" stroke="black" points="25,-188.5 25,-245.5 168,-245.5 168,-188.5 25,-188.5"/>
<text text-anchor="middle" x="96.5" y="-233.5" font-family="Helvetica,sans-Serif" font-size="10.00">bot.BotMessageException</text>
<polyline fill="none" stroke="black" points="25,-226.5 168,-226.5 "/>
<text text-anchor="middle" x="96.5" y="-214.5" font-family="Helvetica,sans-Serif" font-size="10.00"> </text>
<polyline fill="none" stroke="black" points="25,-207.5 168,-207.5 "/>
<text text-anchor="middle" x="96.5" y="-195.5" font-family="Helvetica,sans-Serif" font-size="10.00"> </text>
</a>
</g>
</g>
<!-- Node3&#45;&gt;Node2 -->
<g id="edge2" class="edge">
<title>Node3&#45;&gt;Node2</title>
<path fill="none" stroke="midnightblue" d="M96.5,-178.21C96.5,-169.29 96.5,-159.95 96.5,-151.58"/>
<polygon fill="none" stroke="midnightblue" points="93,-178.4 96.5,-188.4 100,-178.4 93,-178.4"/>
</g>
<!-- Node4 -->
<g id="node4" class="node">
<title>Node4</title>
<g id="a_node4"><a xlink:href="classbot_1_1BotException.html" target="_top" xlink:title=" ">
<polygon fill="none" stroke="black" points="46.5,-282.5 46.5,-339.5 146.5,-339.5 146.5,-282.5 46.5,-282.5"/>
<text text-anchor="middle" x="96.5" y="-327.5" font-family="Helvetica,sans-Serif" font-size="10.00">bot.BotException</text>
<polyline fill="none" stroke="black" points="46.5,-320.5 146.5,-320.5 "/>
<text text-anchor="middle" x="96.5" y="-308.5" font-family="Helvetica,sans-Serif" font-size="10.00"> </text>
<polyline fill="none" stroke="black" points="46.5,-301.5 146.5,-301.5 "/>
<text text-anchor="middle" x="96.5" y="-289.5" font-family="Helvetica,sans-Serif" font-size="10.00"> </text>
</a>
</g>
</g>
<!-- Node4&#45;&gt;Node3 -->
<g id="edge3" class="edge">
<title>Node4&#45;&gt;Node3</title>
<path fill="none" stroke="midnightblue" d="M96.5,-272.21C96.5,-263.29 96.5,-253.95 96.5,-245.58"/>
<polygon fill="none" stroke="midnightblue" points="93,-272.4 96.5,-282.4 100,-272.4 93,-272.4"/>
</g>
<!-- Node5 -->
<g id="node5" class="node">
<title>Node5</title>
<g id="a_node5"><a xlink:href="classexception_1_1ChatbotException.html" target="_top" xlink:title=" ">
<polygon fill="none" stroke="black" points="19.5,-376.5 19.5,-565.5 173.5,-565.5 173.5,-376.5 19.5,-376.5"/>
<text text-anchor="middle" x="96.5" y="-553.5" font-family="Helvetica,sans-Serif" font-size="10.00">exception.ChatbotException</text>
<polyline fill="none" stroke="black" points="19.5,-546.5 173.5,-546.5 "/>
<text text-anchor="start" x="27.5" y="-534.5" font-family="Helvetica,sans-Serif" font-size="10.00">+ cause</text>
<text text-anchor="start" x="27.5" y="-523.5" font-family="Helvetica,sans-Serif" font-size="10.00">+ code</text>
<text text-anchor="start" x="27.5" y="-512.5" font-family="Helvetica,sans-Serif" font-size="10.00">+ filename</text>
<text text-anchor="start" x="27.5" y="-501.5" font-family="Helvetica,sans-Serif" font-size="10.00">+ lineno</text>
<text text-anchor="start" x="27.5" y="-490.5" font-family="Helvetica,sans-Serif" font-size="10.00">+ message</text>
<text text-anchor="start" x="27.5" y="-479.5" font-family="Helvetica,sans-Serif" font-size="10.00">+ severity</text>
<text text-anchor="start" x="27.5" y="-468.5" font-family="Helvetica,sans-Serif" font-size="10.00">+ traceback</text>
<text text-anchor="start" x="27.5" y="-457.5" font-family="Helvetica,sans-Serif" font-size="10.00">+ type</text>
<text text-anchor="start" x="27.5" y="-446.5" font-family="Helvetica,sans-Serif" font-size="10.00">+ SEVERITY_TO_LOGGING</text>
<polyline fill="none" stroke="black" points="19.5,-439.5 173.5,-439.5 "/>
<text text-anchor="start" x="27.5" y="-427.5" font-family="Helvetica,sans-Serif" font-size="10.00">+ __init__()</text>
<text text-anchor="start" x="27.5" y="-416.5" font-family="Helvetica,sans-Serif" font-size="10.00">+ __repr__()</text>
<text text-anchor="start" x="27.5" y="-405.5" font-family="Helvetica,sans-Serif" font-size="10.00">+ __str__()</text>
<text text-anchor="start" x="27.5" y="-394.5" font-family="Helvetica,sans-Serif" font-size="10.00">+ to_dict()</text>
<text text-anchor="start" x="27.5" y="-383.5" font-family="Helvetica,sans-Serif" font-size="10.00">+ to_json()</text>
</a>
</g>
</g>
<!-- Node5&#45;&gt;Node4 -->
<g id="edge4" class="edge">
<title>Node5&#45;&gt;Node4</title>
<path fill="none" stroke="midnightblue" d="M96.5,-366.13C96.5,-356.56 96.5,-347.54 96.5,-339.7"/>
<polygon fill="none" stroke="midnightblue" points="93,-366.26 96.5,-376.26 100,-366.26 93,-366.26"/>
</g>
<!-- Node6 -->
<g id="node6" class="node">
<title>Node6</title>
<g id="a_node6"><a xlink:title=" ">
<polygon fill="none" stroke="#bfbfbf" points="64,-602.5 64,-659.5 129,-659.5 129,-602.5 64,-602.5"/>
<text text-anchor="middle" x="96.5" y="-647.5" font-family="Helvetica,sans-Serif" font-size="10.00">Exception</text>
<polyline fill="none" stroke="#bfbfbf" points="64,-640.5 129,-640.5 "/>
<text text-anchor="middle" x="96.5" y="-628.5" font-family="Helvetica,sans-Serif" font-size="10.00"> </text>
<polyline fill="none" stroke="#bfbfbf" points="64,-621.5 129,-621.5 "/>
<text text-anchor="middle" x="96.5" y="-609.5" font-family="Helvetica,sans-Serif" font-size="10.00"> </text>
</a>
</g>
</g>
<!-- Node6&#45;&gt;Node5 -->
<g id="edge5" class="edge">
<title>Node6&#45;&gt;Node5</title>
<path fill="none" stroke="midnightblue" d="M96.5,-592.22C96.5,-584.01 96.5,-574.99 96.5,-565.68"/>
<polygon fill="none" stroke="midnightblue" points="93,-592.48 96.5,-602.48 100,-592.48 93,-592.48"/>
</g>
</g>
</svg>
