<?xml version="1.0" encoding="UTF-8" standalone="no"?>
<!DOCTYPE svg PUBLIC "-//W3C//DTD SVG 1.1//EN"
 "http://www.w3.org/Graphics/SVG/1.1/DTD/svg11.dtd">
<!-- Generated by graphviz version 2.43.0 (0)
 -->
<!-- Title: logger.LogConfigurationException Pages: 1 -->
<svg width="190pt" height="585pt"
 viewBox="0.00 0.00 190.00 585.00" xmlns="http://www.w3.org/2000/svg" xmlns:xlink="http://www.w3.org/1999/xlink">
<g id="graph0" class="graph" transform="scale(1 1) rotate(0) translate(4 581)">
<title>logger.LogConfigurationException</title>
<!-- Node1 -->
<g id="node1" class="node">
<title>Node1</title>
<g id="a_node1"><a xlink:title=" ">
<polygon fill="#bfbfbf" stroke="black" points="0,-105.5 0,-162.5 182,-162.5 182,-105.5 0,-105.5"/>
<text text-anchor="middle" x="91" y="-150.5" font-family="Helvetica,sans-Serif" font-size="10.00">logger.LogConfigurationException</text>
<polyline fill="none" stroke="black" points="0,-143.5 182,-143.5 "/>
<text text-anchor="middle" x="91" y="-131.5" font-family="Helvetica,sans-Serif" font-size="10.00"> </text>
<polyline fill="none" stroke="black" points="0,-124.5 182,-124.5 "/>
<text text-anchor="middle" x="91" y="-112.5" font-family="Helvetica,sans-Serif" font-size="10.00"> </text>
</a>
</g>
</g>
<!-- Node5 -->
<g id="node5" class="node">
<title>Node5</title>
<g id="a_node5"><a xlink:href="classlogger_1_1LogWrongAttributeException.html" target="_top" xlink:title=" ">
<polygon fill="none" stroke="black" points="20,-0.5 20,-68.5 162,-68.5 162,-0.5 20,-0.5"/>
<text text-anchor="start" x="28" y="-56.5" font-family="Helvetica,sans-Serif" font-size="10.00">logger.LogWrongAttribute</text>
<text text-anchor="middle" x="91" y="-45.5" font-family="Helvetica,sans-Serif" font-size="10.00">Exception</text>
<polyline fill="none" stroke="black" points="20,-38.5 162,-38.5 "/>
<text text-anchor="middle" x="91" y="-26.5" font-family="Helvetica,sans-Serif" font-size="10.00"> </text>
<polyline fill="none" stroke="black" points="20,-19.5 162,-19.5 "/>
<text text-anchor="middle" x="91" y="-7.5" font-family="Helvetica,sans-Serif" font-size="10.00"> </text>
</a>
</g>
</g>
<!-- Node1&#45;&gt;Node5 -->
<g id="edge4" class="edge">
<title>Node1&#45;&gt;Node5</title>
<path fill="none" stroke="midnightblue" d="M91,-95.06C91,-86.39 91,-77.24 91,-68.79"/>
<polygon fill="none" stroke="midnightblue" points="87.5,-95.32 91,-105.32 94.5,-95.32 87.5,-95.32"/>
</g>
<!-- Node2 -->
<g id="node2" class="node">
<title>Node2</title>
<g id="a_node2"><a xlink:href="classlogger_1_1LogException.html" target="_top" xlink:title=" ">
<polygon fill="none" stroke="black" points="33,-199.5 33,-256.5 149,-256.5 149,-199.5 33,-199.5"/>
<text text-anchor="middle" x="91" y="-244.5" font-family="Helvetica,sans-Serif" font-size="10.00">logger.LogException</text>
<polyline fill="none" stroke="black" points="33,-237.5 149,-237.5 "/>
<text text-anchor="middle" x="91" y="-225.5" font-family="Helvetica,sans-Serif" font-size="10.00"> </text>
<polyline fill="none" stroke="black" points="33,-218.5 149,-218.5 "/>
<text text-anchor="middle" x="91" y="-206.5" font-family="Helvetica,sans-Serif" font-size="10.00"> </text>
</a>
</g>
</g>
<!-- Node2&#45;&gt;Node1 -->
<g id="edge1" class="edge">
<title>Node2&#45;&gt;Node1</title>
<path fill="none" stroke="midnightblue" d="M91,-189.21C91,-180.29 91,-170.95 91,-162.58"/>
<polygon fill="none" stroke="midnightblue" points="87.5,-189.4 91,-199.4 94.5,-189.4 87.5,-189.4"/>
</g>
<!-- Node3 -->
<g id="node3" class="node">
<title>Node3</title>
<g id="a_node3"><a xlink:href="classexception_1_1ChatbotException.html" target="_top" xlink:title=" ">
<polygon fill="none" stroke="black" points="14,-293.5 14,-482.5 168,-482.5 168,-293.5 14,-293.5"/>
<text text-anchor="middle" x="91" y="-470.5" font-family="Helvetica,sans-Serif" font-size="10.00">exception.ChatbotException</text>
<polyline fill="none" stroke="black" points="14,-463.5 168,-463.5 "/>
<text text-anchor="start" x="22" y="-451.5" font-family="Helvetica,sans-Serif" font-size="10.00">+ cause</text>
<text text-anchor="start" x="22" y="-440.5" font-family="Helvetica,sans-Serif" font-size="10.00">+ code</text>
<text text-anchor="start" x="22" y="-429.5" font-family="Helvetica,sans-Serif" font-size="10.00">+ filename</text>
<text text-anchor="start" x="22" y="-418.5" font-family="Helvetica,sans-Serif" font-size="10.00">+ lineno</text>
<text text-anchor="start" x="22" y="-407.5" font-family="Helvetica,sans-Serif" font-size="10.00">+ message</text>
<text text-anchor="start" x="22" y="-396.5" font-family="Helvetica,sans-Serif" font-size="10.00">+ severity</text>
<text text-anchor="start" x="22" y="-385.5" font-family="Helvetica,sans-Serif" font-size="10.00">+ traceback</text>
<text text-anchor="start" x="22" y="-374.5" font-family="Helvetica,sans-Serif" font-size="10.00">+ type</text>
<text text-anchor="start" x="22" y="-363.5" font-family="Helvetica,sans-Serif" font-size="10.00">+ SEVERITY_TO_LOGGING</text>
<polyline fill="none" stroke="black" points="14,-356.5 168,-356.5 "/>
<text text-anchor="start" x="22" y="-344.5" font-family="Helvetica,sans-Serif" font-size="10.00">+ __init__()</text>
<text text-anchor="start" x="22" y="-333.5" font-family="Helvetica,sans-Serif" font-size="10.00">+ __repr__()</text>
<text text-anchor="start" x="22" y="-322.5" font-family="Helvetica,sans-Serif" font-size="10.00">+ __str__()</text>
<text text-anchor="start" x="22" y="-311.5" font-family="Helvetica,sans-Serif" font-size="10.00">+ to_dict()</text>
<text text-anchor="start" x="22" y="-300.5" font-family="Helvetica,sans-Serif" font-size="10.00">+ to_json()</text>
</a>
</g>
</g>
<!-- Node3&#45;&gt;Node2 -->
<g id="edge2" class="edge">
<title>Node3&#45;&gt;Node2</title>
<path fill="none" stroke="midnightblue" d="M91,-283.13C91,-273.56 91,-264.54 91,-256.7"/>
<polygon fill="none" stroke="midnightblue" points="87.5,-283.26 91,-293.26 94.5,-283.26 87.5,-283.26"/>
</g>
<!-- Node4 -->
<g id="node4" class="node">
<title>Node4</title>
<g id="a_node4"><a xlink:title=" ">
<polygon fill="none" stroke="#bfbfbf" points="58.5,-519.5 58.5,-576.5 123.5,-576.5 123.5,-519.5 58.5,-519.5"/>
<text text-anchor="middle" x="91" y="-564.5" font-family="Helvetica,sans-Serif" font-size="10.00">Exception</text>
<polyline fill="none" stroke="#bfbfbf" points="58.5,-557.5 123.5,-557.5 "/>
<text text-anchor="middle" x="91" y="-545.5" font-family="Helvetica,sans-Serif" font-size="10.00"> </text>
<polyline fill="none" stroke="#bfbfbf" points="58.5,-538.5 123.5,-538.5 "/>
<text text-anchor="middle" x="91" y="-526.5" font-family="Helvetica,sans-Serif" font-size="10.00"> </text>
</a>
</g>
</g>
<!-- Node4&#45;&gt;Node3 -->
<g id="edge3" class="edge">
<title>Node4&#45;&gt;Node3</title>
<path fill="none" stroke="midnightblue" d="M91,-509.22C91,-501.01 91,-491.99 91,-482.68"/>
<polygon fill="none" stroke="midnightblue" points="87.5,-509.48 91,-519.48 94.5,-509.48 87.5,-509.48"/>
</g>
</g>
</svg>
