<?xml version="1.0" encoding="UTF-8" standalone="no"?>
<!DOCTYPE svg PUBLIC "-//W3C//DTD SVG 1.1//EN"
 "http://www.w3.org/Graphics/SVG/1.1/DTD/svg11.dtd">
<!-- Generated by graphviz version 2.43.0 (0)
 -->
<!-- Title: configurator.Configurator.configure Pages: 1 -->
<svg width="808pt" height="176pt"
 viewBox="0.00 0.00 808.00 176.00" xmlns="http://www.w3.org/2000/svg" xmlns:xlink="http://www.w3.org/1999/xlink">
<g id="graph0" class="graph" transform="scale(1 1) rotate(0) translate(4 172)">
<title>configurator.Configurator.configure</title>
<!-- Node1 -->
<g id="node1" class="node">
<title>Node1</title>
<g id="a_node1"><a xlink:title=" ">
<polygon fill="#bfbfbf" stroke="black" points="0,-88 0,-107 188,-107 188,-88 0,-88"/>
<text text-anchor="middle" x="94" y="-95" font-family="Helvetica,sans-Serif" font-size="10.00">configurator.Configurator.configure</text>
</a>
</g>
</g>
<!-- Node2 -->
<g id="node2" class="node">
<title>Node2</title>
<g id="a_node2"><a xlink:href="classconfigurator_1_1Configurator.html#a6a7a9f06fb955a0f9643bfc5e70342df" target="_top" xlink:title=" ">
<polygon fill="none" stroke="black" points="437.5,-137.5 437.5,-167.5 595.5,-167.5 595.5,-137.5 437.5,-137.5"/>
<text text-anchor="start" x="445.5" y="-155.5" font-family="Helvetica,sans-Serif" font-size="10.00">configurator.Configurator.set</text>
<text text-anchor="middle" x="516.5" y="-144.5" font-family="Helvetica,sans-Serif" font-size="10.00">_telegram_webhook</text>
</a>
</g>
</g>
<!-- Node1&#45;&gt;Node2 -->
<g id="edge1" class="edge">
<title>Node1&#45;&gt;Node2</title>
<path fill="none" stroke="midnightblue" d="M139.01,-107.04C163.87,-112.17 195.57,-118.29 224,-122.5 291.89,-132.55 369.17,-140.34 427.1,-145.46"/>
<polygon fill="midnightblue" stroke="midnightblue" points="427.05,-148.97 437.32,-146.35 427.66,-142 427.05,-148.97"/>
</g>
<!-- Node4 -->
<g id="node4" class="node">
<title>Node4</title>
<g id="a_node4"><a xlink:href="classconfigurator_1_1Configurator.html#a7d2d4f9f2c0ce3910d53e5748d92cbe9" target="_top" xlink:title=" ">
<polygon fill="none" stroke="black" points="227,-82.5 227,-112.5 392,-112.5 392,-82.5 227,-82.5"/>
<text text-anchor="start" x="235" y="-100.5" font-family="Helvetica,sans-Serif" font-size="10.00">configurator.Configurator.start</text>
<text text-anchor="middle" x="309.5" y="-89.5" font-family="Helvetica,sans-Serif" font-size="10.00">_ngrok</text>
</a>
</g>
</g>
<!-- Node1&#45;&gt;Node4 -->
<g id="edge3" class="edge">
<title>Node1&#45;&gt;Node4</title>
<path fill="none" stroke="midnightblue" d="M188.02,-97.5C197.51,-97.5 207.15,-97.5 216.63,-97.5"/>
<polygon fill="midnightblue" stroke="midnightblue" points="216.84,-101 226.84,-97.5 216.84,-94 216.84,-101"/>
</g>
<!-- Node6 -->
<g id="node6" class="node">
<title>Node6</title>
<g id="a_node6"><a xlink:href="classconfigurator_1_1Configurator.html#aed68704c19cba14d0f2fa93933a3bcb4" target="_top" xlink:title=" ">
<polygon fill="none" stroke="black" points="224,-22.5 224,-52.5 395,-52.5 395,-22.5 224,-22.5"/>
<text text-anchor="start" x="232" y="-40.5" font-family="Helvetica,sans-Serif" font-size="10.00">configurator.Configurator.verify</text>
<text text-anchor="middle" x="309.5" y="-29.5" font-family="Helvetica,sans-Serif" font-size="10.00">_ngrok</text>
</a>
</g>
</g>
<!-- Node1&#45;&gt;Node6 -->
<g id="edge6" class="edge">
<title>Node1&#45;&gt;Node6</title>
<path fill="none" stroke="midnightblue" d="M128.83,-87.99C159.92,-79.26 206.8,-66.08 244.89,-55.38"/>
<polygon fill="midnightblue" stroke="midnightblue" points="246.19,-58.65 254.87,-52.57 244.29,-51.91 246.19,-58.65"/>
</g>
<!-- Node3 -->
<g id="node3" class="node">
<title>Node3</title>
<g id="a_node3"><a xlink:href="classconfigurator_1_1Configurator.html#af018c5b4193c24793e3b771121ce3d48" target="_top" xlink:title=" ">
<polygon fill="none" stroke="black" points="638,-93.5 638,-123.5 800,-123.5 800,-93.5 638,-93.5"/>
<text text-anchor="start" x="646" y="-111.5" font-family="Helvetica,sans-Serif" font-size="10.00">configurator.Configurator.http</text>
<text text-anchor="middle" x="719" y="-100.5" font-family="Helvetica,sans-Serif" font-size="10.00">_request_with_retry</text>
</a>
</g>
</g>
<!-- Node2&#45;&gt;Node3 -->
<g id="edge2" class="edge">
<title>Node2&#45;&gt;Node3</title>
<path fill="none" stroke="midnightblue" d="M585.94,-137.48C603.1,-133.71 621.66,-129.64 639.28,-125.78"/>
<polygon fill="midnightblue" stroke="midnightblue" points="640.51,-129.09 649.53,-123.53 639.01,-122.25 640.51,-129.09"/>
</g>
<!-- Node4&#45;&gt;Node3 -->
<g id="edge4" class="edge">
<title>Node4&#45;&gt;Node3</title>
<path fill="none" stroke="midnightblue" d="M392.47,-99.71C460.59,-101.55 557.39,-104.16 627.72,-106.06"/>
<polygon fill="midnightblue" stroke="midnightblue" points="627.8,-109.57 637.89,-106.34 627.99,-102.57 627.8,-109.57"/>
</g>
<!-- Node5 -->
<g id="node5" class="node">
<title>Node5</title>
<g id="a_node5"><a xlink:href="classconfigurator_1_1Configurator.html#a0e0ecf1e952a5119a3b667b4254ecfea" target="_top" xlink:title=" ">
<polygon fill="none" stroke="black" points="434.5,-49.5 434.5,-79.5 598.5,-79.5 598.5,-49.5 434.5,-49.5"/>
<text text-anchor="start" x="442.5" y="-67.5" font-family="Helvetica,sans-Serif" font-size="10.00">configurator.Configurator.stop</text>
<text text-anchor="middle" x="516.5" y="-56.5" font-family="Helvetica,sans-Serif" font-size="10.00">_ngrok</text>
</a>
</g>
</g>
<!-- Node4&#45;&gt;Node5 -->
<g id="edge5" class="edge">
<title>Node4&#45;&gt;Node5</title>
<path fill="none" stroke="midnightblue" d="M392.11,-84.36C402.6,-82.67 413.4,-80.94 424.04,-79.22"/>
<polygon fill="midnightblue" stroke="midnightblue" points="424.85,-82.64 434.17,-77.59 423.74,-75.73 424.85,-82.64"/>
</g>
<!-- Node7 -->
<g id="node7" class="node">
<title>Node7</title>
<g id="a_node7"><a xlink:href="classconfigurator_1_1Configurator.html#aa06514ca8386fc8b9b9a2662d47d8b90" target="_top" xlink:title=" ">
<polygon fill="none" stroke="black" points="431,-0.5 431,-30.5 602,-30.5 602,-0.5 431,-0.5"/>
<text text-anchor="start" x="439" y="-18.5" font-family="Helvetica,sans-Serif" font-size="10.00">configurator.Configurator.check</text>
<text text-anchor="middle" x="516.5" y="-7.5" font-family="Helvetica,sans-Serif" font-size="10.00">_ngrok</text>
</a>
</g>
</g>
<!-- Node6&#45;&gt;Node7 -->
<g id="edge7" class="edge">
<title>Node6&#45;&gt;Node7</title>
<path fill="none" stroke="midnightblue" d="M395.06,-28.42C403.55,-27.51 412.2,-26.59 420.78,-25.67"/>
<polygon fill="midnightblue" stroke="midnightblue" points="421.23,-29.14 430.8,-24.59 420.48,-22.18 421.23,-29.14"/>
</g>
<!-- Node7&#45;&gt;Node3 -->
<g id="edge8" class="edge">
<title>Node7&#45;&gt;Node3</title>
<path fill="none" stroke="midnightblue" d="M577.73,-30.52C586,-33.18 594.3,-36.18 602,-39.5 632.78,-52.76 665.37,-72.74 688.14,-87.79"/>
<polygon fill="midnightblue" stroke="midnightblue" points="686.41,-90.84 696.67,-93.5 690.31,-85.02 686.41,-90.84"/>
</g>
</g>
</svg>
