<?xml version="1.0" encoding="UTF-8" standalone="no"?>
<!DOCTYPE svg PUBLIC "-//W3C//DTD SVG 1.1//EN"
 "http://www.w3.org/Graphics/SVG/1.1/DTD/svg11.dtd">
<!-- Generated by graphviz version 2.43.0 (0)
 -->
<!-- Title: bot.BotManager.get_bot Pages: 1 -->
<svg width="853pt" height="88pt"
 viewBox="0.00 0.00 853.00 88.00" xmlns="http://www.w3.org/2000/svg" xmlns:xlink="http://www.w3.org/1999/xlink">
<g id="graph0" class="graph" transform="scale(1 1) rotate(0) translate(4 84)">
<title>bot.BotManager.get_bot</title>
<!-- Node1 -->
<g id="node1" class="node">
<title>Node1</title>
<g id="a_node1"><a xlink:title=" ">
<polygon fill="#bfbfbf" stroke="black" points="711,-30 711,-49 845,-49 845,-30 711,-30"/>
<text text-anchor="middle" x="778" y="-37" font-family="Helvetica,sans-Serif" font-size="10.00">bot.BotManager.get_bot</text>
</a>
</g>
</g>
<!-- Node2 -->
<g id="node2" class="node">
<title>Node2</title>
<g id="a_node2"><a xlink:href="classbot_1_1BotManager.html#a6c4d0cf24bbffdb34c08b2385699edde" target="_top" xlink:title=" ">
<polygon fill="none" stroke="black" points="508,-30 508,-49 675,-49 675,-30 508,-30"/>
<text text-anchor="middle" x="591.5" y="-37" font-family="Helvetica,sans-Serif" font-size="10.00">bot.BotManager.terminate_bot</text>
</a>
</g>
</g>
<!-- Node1&#45;&gt;Node2 -->
<g id="edge1" class="edge">
<title>Node1&#45;&gt;Node2</title>
<path fill="none" stroke="midnightblue" d="M700.74,-39.5C692.31,-39.5 683.69,-39.5 675.19,-39.5"/>
<polygon fill="midnightblue" stroke="midnightblue" points="700.91,-43 710.91,-39.5 700.91,-36 700.91,-43"/>
</g>
<!-- Node3 -->
<g id="node3" class="node">
<title>Node3</title>
<g id="a_node3"><a xlink:href="classbot_1_1BotManager.html#a6277812686ae6ccc51f8663ec760df8a" target="_top" xlink:title=" ">
<polygon fill="none" stroke="black" points="326,-49.5 326,-79.5 472,-79.5 472,-49.5 326,-49.5"/>
<text text-anchor="start" x="334" y="-67.5" font-family="Helvetica,sans-Serif" font-size="10.00">bot.BotManager.terminate</text>
<text text-anchor="middle" x="399" y="-56.5" font-family="Helvetica,sans-Serif" font-size="10.00">_and_restart_bot</text>
</a>
</g>
</g>
<!-- Node2&#45;&gt;Node3 -->
<g id="edge2" class="edge">
<title>Node2&#45;&gt;Node3</title>
<path fill="none" stroke="midnightblue" d="M507.97,-50.33C496.01,-51.9 483.78,-53.51 472.05,-55.05"/>
<polygon fill="midnightblue" stroke="midnightblue" points="508.48,-53.79 517.94,-49.02 507.57,-46.85 508.48,-53.79"/>
</g>
<!-- Node6 -->
<g id="node6" class="node">
<title>Node6</title>
<g id="a_node6"><a xlink:href="classbot_1_1BotManager.html#ac7437459a4a3eb3bbed8f238bca10b20" target="_top" xlink:title=" ">
<polygon fill="none" stroke="black" points="326,-0.5 326,-30.5 472,-30.5 472,-0.5 326,-0.5"/>
<text text-anchor="start" x="334" y="-18.5" font-family="Helvetica,sans-Serif" font-size="10.00">bot.BotManager.terminate</text>
<text text-anchor="middle" x="399" y="-7.5" font-family="Helvetica,sans-Serif" font-size="10.00">_bot_by_instance</text>
</a>
</g>
</g>
<!-- Node2&#45;&gt;Node6 -->
<g id="edge5" class="edge">
<title>Node2&#45;&gt;Node6</title>
<path fill="none" stroke="midnightblue" d="M504.92,-28.72C493.94,-27.34 482.79,-25.93 472.06,-24.58"/>
<polygon fill="midnightblue" stroke="midnightblue" points="504.58,-32.2 514.94,-29.98 505.45,-25.26 504.58,-32.2"/>
</g>
<!-- Node4 -->
<g id="node4" class="node">
<title>Node4</title>
<g id="a_node4"><a xlink:href="classbot_1_1BotManager.html#ad22b0997528b8f1d1903733008df541d" target="_top" xlink:title=" ">
<polygon fill="none" stroke="black" points="149,-49.5 149,-79.5 290,-79.5 290,-49.5 149,-49.5"/>
<text text-anchor="start" x="157" y="-67.5" font-family="Helvetica,sans-Serif" font-size="10.00">bot.BotManager.maintain</text>
<text text-anchor="middle" x="219.5" y="-56.5" font-family="Helvetica,sans-Serif" font-size="10.00">_alive_bots</text>
</a>
</g>
</g>
<!-- Node3&#45;&gt;Node4 -->
<g id="edge3" class="edge">
<title>Node3&#45;&gt;Node4</title>
<path fill="none" stroke="midnightblue" d="M315.77,-64.5C307.17,-64.5 298.49,-64.5 290.05,-64.5"/>
<polygon fill="midnightblue" stroke="midnightblue" points="315.8,-68 325.8,-64.5 315.8,-61 315.8,-68"/>
</g>
<!-- Node5 -->
<g id="node5" class="node">
<title>Node5</title>
<g id="a_node5"><a xlink:href="classbot_1_1BotManager.html#aea79e8e1137316f2f7e782292d0e298b" target="_top" xlink:title=" ">
<polygon fill="none" stroke="black" points="0,-55 0,-74 113,-74 113,-55 0,-55"/>
<text text-anchor="middle" x="56.5" y="-62" font-family="Helvetica,sans-Serif" font-size="10.00">bot.BotManager.run</text>
</a>
</g>
</g>
<!-- Node4&#45;&gt;Node5 -->
<g id="edge4" class="edge">
<title>Node4&#45;&gt;Node5</title>
<path fill="none" stroke="midnightblue" d="M138.73,-64.5C130.11,-64.5 121.48,-64.5 113.23,-64.5"/>
<polygon fill="midnightblue" stroke="midnightblue" points="138.82,-68 148.82,-64.5 138.82,-61 138.82,-68"/>
</g>
</g>
</svg>
