<?xml version="1.0" encoding="UTF-8" standalone="no"?>
<!DOCTYPE svg PUBLIC "-//W3C//DTD SVG 1.1//EN"
 "http://www.w3.org/Graphics/SVG/1.1/DTD/svg11.dtd">
<!-- Generated by graphviz version 2.43.0 (0)
 -->
<!-- Title: env.Env.__init__ Pages: 1 -->
<svg width="366pt" height="47pt"
 viewBox="0.00 0.00 366.00 47.00" xmlns="http://www.w3.org/2000/svg" xmlns:xlink="http://www.w3.org/1999/xlink">
<g id="graph0" class="graph" transform="scale(1 1) rotate(0) translate(4 43)">
<title>env.Env.__init__</title>
<!-- Node1 -->
<g id="node1" class="node">
<title>Node1</title>
<g id="a_node1"><a xlink:title=" ">
<polygon fill="#bfbfbf" stroke="black" points="0,-0.5 0,-19.5 94,-19.5 94,-0.5 0,-0.5"/>
<text text-anchor="middle" x="47" y="-7.5" font-family="Helvetica,sans-Serif" font-size="10.00">env.Env.__init__</text>
</a>
</g>
</g>
<!-- Node2 -->
<g id="node2" class="node">
<title>Node2</title>
<g id="a_node2"><a xlink:href="classenv_1_1Env.html#ae17cf8ec7a1ecde876c6d7f4df2c48dd" target="_top" xlink:title=" ">
<polygon fill="none" stroke="black" points="130,-19.5 130,-38.5 226,-38.5 226,-19.5 130,-19.5"/>
<text text-anchor="middle" x="178" y="-26.5" font-family="Helvetica,sans-Serif" font-size="10.00">env.Env._get_int</text>
</a>
</g>
</g>
<!-- Node1&#45;&gt;Node2 -->
<g id="edge1" class="edge">
<title>Node1&#45;&gt;Node2</title>
<path fill="none" stroke="midnightblue" d="M94.21,-16.81C102.52,-18.03 111.28,-19.32 119.86,-20.58"/>
<polygon fill="midnightblue" stroke="midnightblue" points="119.41,-24.06 129.81,-22.05 120.43,-17.13 119.41,-24.06"/>
</g>
<!-- Node3 -->
<g id="node3" class="node">
<title>Node3</title>
<g id="a_node3"><a xlink:href="classenv_1_1Env.html#a9746e9e625cdf0e56f542f217639325a" target="_top" xlink:title=" ">
<polygon fill="none" stroke="black" points="262,-0.5 262,-19.5 358,-19.5 358,-0.5 262,-0.5"/>
<text text-anchor="middle" x="310" y="-7.5" font-family="Helvetica,sans-Serif" font-size="10.00">env.Env._get_str</text>
</a>
</g>
</g>
<!-- Node1&#45;&gt;Node3 -->
<g id="edge3" class="edge">
<title>Node1&#45;&gt;Node3</title>
<path fill="none" stroke="midnightblue" d="M94.06,-10C137.96,-10 204.21,-10 251.54,-10"/>
<polygon fill="midnightblue" stroke="midnightblue" points="251.64,-13.5 261.64,-10 251.64,-6.5 251.64,-13.5"/>
</g>
<!-- Node2&#45;&gt;Node3 -->
<g id="edge2" class="edge">
<title>Node2&#45;&gt;Node3</title>
<path fill="none" stroke="midnightblue" d="M226.3,-22.09C234.65,-20.87 243.42,-19.58 252,-18.33"/>
<polygon fill="midnightblue" stroke="midnightblue" points="252.56,-21.79 261.95,-16.88 251.55,-14.86 252.56,-21.79"/>
</g>
</g>
</svg>
