<?xml version="1.0" encoding="UTF-8" standalone="no"?>
<!DOCTYPE svg PUBLIC "-//W3C//DTD SVG 1.1//EN"
 "http://www.w3.org/Graphics/SVG/1.1/DTD/svg11.dtd">
<!-- Generated by graphviz version 2.43.0 (0)
 -->
<!-- Title: bot.BotReceiveMessageException Pages: 1 -->
<svg width="190pt" height="574pt"
 viewBox="0.00 0.00 190.00 574.00" xmlns="http://www.w3.org/2000/svg" xmlns:xlink="http://www.w3.org/1999/xlink">
<g id="graph0" class="graph" transform="scale(1 1) rotate(0) translate(4 570)">
<title>bot.BotReceiveMessageException</title>
<!-- Node1 -->
<g id="node1" class="node">
<title>Node1</title>
<g id="a_node1"><a xlink:title=" ">
<polygon fill="#bfbfbf" stroke="black" points="0,-0.5 0,-57.5 182,-57.5 182,-0.5 0,-0.5"/>
<text text-anchor="middle" x="91" y="-45.5" font-family="Helvetica,sans-Serif" font-size="10.00">bot.BotReceiveMessageException</text>
<polyline fill="none" stroke="black" points="0,-38.5 182,-38.5 "/>
<text text-anchor="middle" x="91" y="-26.5" font-family="Helvetica,sans-Serif" font-size="10.00"> </text>
<polyline fill="none" stroke="black" points="0,-19.5 182,-19.5 "/>
<text text-anchor="middle" x="91" y="-7.5" font-family="Helvetica,sans-Serif" font-size="10.00"> </text>
</a>
</g>
</g>
<!-- Node2 -->
<g id="node2" class="node">
<title>Node2</title>
<g id="a_node2"><a xlink:href="classbot_1_1BotMessageException.html" target="_top" xlink:title=" ">
<polygon fill="none" stroke="black" points="19.5,-94.5 19.5,-151.5 162.5,-151.5 162.5,-94.5 19.5,-94.5"/>
<text text-anchor="middle" x="91" y="-139.5" font-family="Helvetica,sans-Serif" font-size="10.00">bot.BotMessageException</text>
<polyline fill="none" stroke="black" points="19.5,-132.5 162.5,-132.5 "/>
<text text-anchor="middle" x="91" y="-120.5" font-family="Helvetica,sans-Serif" font-size="10.00"> </text>
<polyline fill="none" stroke="black" points="19.5,-113.5 162.5,-113.5 "/>
<text text-anchor="middle" x="91" y="-101.5" font-family="Helvetica,sans-Serif" font-size="10.00"> </text>
</a>
</g>
</g>
<!-- Node2&#45;&gt;Node1 -->
<g id="edge1" class="edge">
<title>Node2&#45;&gt;Node1</title>
<path fill="none" stroke="midnightblue" d="M91,-84.21C91,-75.29 91,-65.95 91,-57.58"/>
<polygon fill="none" stroke="midnightblue" points="87.5,-84.4 91,-94.4 94.5,-84.4 87.5,-84.4"/>
</g>
<!-- Node3 -->
<g id="node3" class="node">
<title>Node3</title>
<g id="a_node3"><a xlink:href="classbot_1_1BotException.html" target="_top" xlink:title=" ">
<polygon fill="none" stroke="black" points="41,-188.5 41,-245.5 141,-245.5 141,-188.5 41,-188.5"/>
<text text-anchor="middle" x="91" y="-233.5" font-family="Helvetica,sans-Serif" font-size="10.00">bot.BotException</text>
<polyline fill="none" stroke="black" points="41,-226.5 141,-226.5 "/>
<text text-anchor="middle" x="91" y="-214.5" font-family="Helvetica,sans-Serif" font-size="10.00"> </text>
<polyline fill="none" stroke="black" points="41,-207.5 141,-207.5 "/>
<text text-anchor="middle" x="91" y="-195.5" font-family="Helvetica,sans-Serif" font-size="10.00"> </text>
</a>
</g>
</g>
<!-- Node3&#45;&gt;Node2 -->
<g id="edge2" class="edge">
<title>Node3&#45;&gt;Node2</title>
<path fill="none" stroke="midnightblue" d="M91,-178.21C91,-169.29 91,-159.95 91,-151.58"/>
<polygon fill="none" stroke="midnightblue" points="87.5,-178.4 91,-188.4 94.5,-178.4 87.5,-178.4"/>
</g>
<!-- Node4 -->
<g id="node4" class="node">
<title>Node4</title>
<g id="a_node4"><a xlink:href="classexception_1_1ChatbotException.html" target="_top" xlink:title=" ">
<polygon fill="none" stroke="black" points="14,-282.5 14,-471.5 168,-471.5 168,-282.5 14,-282.5"/>
<text text-anchor="middle" x="91" y="-459.5" font-family="Helvetica,sans-Serif" font-size="10.00">exception.ChatbotException</text>
<polyline fill="none" stroke="black" points="14,-452.5 168,-452.5 "/>
<text text-anchor="start" x="22" y="-440.5" font-family="Helvetica,sans-Serif" font-size="10.00">+ cause</text>
<text text-anchor="start" x="22" y="-429.5" font-family="Helvetica,sans-Serif" font-size="10.00">+ code</text>
<text text-anchor="start" x="22" y="-418.5" font-family="Helvetica,sans-Serif" font-size="10.00">+ filename</text>
<text text-anchor="start" x="22" y="-407.5" font-family="Helvetica,sans-Serif" font-size="10.00">+ lineno</text>
<text text-anchor="start" x="22" y="-396.5" font-family="Helvetica,sans-Serif" font-size="10.00">+ message</text>
<text text-anchor="start" x="22" y="-385.5" font-family="Helvetica,sans-Serif" font-size="10.00">+ severity</text>
<text text-anchor="start" x="22" y="-374.5" font-family="Helvetica,sans-Serif" font-size="10.00">+ traceback</text>
<text text-anchor="start" x="22" y="-363.5" font-family="Helvetica,sans-Serif" font-size="10.00">+ type</text>
<text text-anchor="start" x="22" y="-352.5" font-family="Helvetica,sans-Serif" font-size="10.00">+ SEVERITY_TO_LOGGING</text>
<polyline fill="none" stroke="black" points="14,-345.5 168,-345.5 "/>
<text text-anchor="start" x="22" y="-333.5" font-family="Helvetica,sans-Serif" font-size="10.00">+ __init__()</text>
<text text-anchor="start" x="22" y="-322.5" font-family="Helvetica,sans-Serif" font-size="10.00">+ __repr__()</text>
<text text-anchor="start" x="22" y="-311.5" font-family="Helvetica,sans-Serif" font-size="10.00">+ __str__()</text>
<text text-anchor="start" x="22" y="-300.5" font-family="Helvetica,sans-Serif" font-size="10.00">+ to_dict()</text>
<text text-anchor="start" x="22" y="-289.5" font-family="Helvetica,sans-Serif" font-size="10.00">+ to_json()</text>
</a>
</g>
</g>
<!-- Node4&#45;&gt;Node3 -->
<g id="edge3" class="edge">
<title>Node4&#45;&gt;Node3</title>
<path fill="none" stroke="midnightblue" d="M91,-272.13C91,-262.56 91,-253.54 91,-245.7"/>
<polygon fill="none" stroke="midnightblue" points="87.5,-272.26 91,-282.26 94.5,-272.26 87.5,-272.26"/>
</g>
<!-- Node5 -->
<g id="node5" class="node">
<title>Node5</title>
<g id="a_node5"><a xlink:title=" ">
<polygon fill="none" stroke="#bfbfbf" points="58.5,-508.5 58.5,-565.5 123.5,-565.5 123.5,-508.5 58.5,-508.5"/>
<text text-anchor="middle" x="91" y="-553.5" font-family="Helvetica,sans-Serif" font-size="10.00">Exception</text>
<polyline fill="none" stroke="#bfbfbf" points="58.5,-546.5 123.5,-546.5 "/>
<text text-anchor="middle" x="91" y="-534.5" font-family="Helvetica,sans-Serif" font-size="10.00"> </text>
<polyline fill="none" stroke="#bfbfbf" points="58.5,-527.5 123.5,-527.5 "/>
<text text-anchor="middle" x="91" y="-515.5" font-family="Helvetica,sans-Serif" font-size="10.00"> </text>
</a>
</g>
</g>
<!-- Node5&#45;&gt;Node4 -->
<g id="edge4" class="edge">
<title>Node5&#45;&gt;Node4</title>
<path fill="none" stroke="midnightblue" d="M91,-498.22C91,-490.01 91,-480.99 91,-471.68"/>
<polygon fill="none" stroke="midnightblue" points="87.5,-498.48 91,-508.48 94.5,-498.48 87.5,-498.48"/>
</g>
</g>
</svg>
