<?xml version="1.0" encoding="UTF-8" standalone="no"?>
<!DOCTYPE svg PUBLIC "-//W3C//DTD SVG 1.1//EN"
 "http://www.w3.org/Graphics/SVG/1.1/DTD/svg11.dtd">
<!-- Generated by graphviz version 2.43.0 (0)
 -->
<!-- Title: bot.Bot.alive Pages: 1 -->
<svg width="231pt" height="66pt"
 viewBox="0.00 0.00 231.00 66.00" xmlns="http://www.w3.org/2000/svg" xmlns:xlink="http://www.w3.org/1999/xlink">
<g id="graph0" class="graph" transform="scale(1 1) rotate(0) translate(4 62)">
<title>bot.Bot.alive</title>
<!-- Node1 -->
<g id="node1" class="node">
<title>Node1</title>
<g id="a_node1"><a xlink:title=" ">
<polygon fill="#bfbfbf" stroke="black" points="0,-19.5 0,-38.5 79,-38.5 79,-19.5 0,-19.5"/>
<text text-anchor="middle" x="39.5" y="-26.5" font-family="Helvetica,sans-Serif" font-size="10.00">bot.Bot.alive</text>
</a>
</g>
</g>
<!-- Node2 -->
<g id="node2" class="node">
<title>Node2</title>
<g id="a_node2"><a xlink:href="classbot_1_1Bot.html#abcb1dacfc1a62e2605216467ab1ccbea" target="_top" xlink:title=" ">
<polygon fill="none" stroke="black" points="115,-38.5 115,-57.5 223,-57.5 223,-38.5 115,-38.5"/>
<text text-anchor="middle" x="169" y="-45.5" font-family="Helvetica,sans-Serif" font-size="10.00">bot.Bot.http_check</text>
</a>
</g>
</g>
<!-- Node1&#45;&gt;Node2 -->
<g id="edge1" class="edge">
<title>Node1&#45;&gt;Node2</title>
<path fill="none" stroke="midnightblue" d="M79.1,-34.75C87.3,-35.97 96.16,-37.29 105.01,-38.61"/>
<polygon fill="midnightblue" stroke="midnightblue" points="104.54,-42.08 114.95,-40.09 105.57,-35.16 104.54,-42.08"/>
</g>
<!-- Node3 -->
<g id="node3" class="node">
<title>Node3</title>
<g id="a_node3"><a xlink:href="classbot_1_1Bot.html#ad5d7132f04e1da19e3353fdaea60671b" target="_top" xlink:title=" ">
<polygon fill="none" stroke="black" points="116.5,-0.5 116.5,-19.5 221.5,-19.5 221.5,-0.5 116.5,-0.5"/>
<text text-anchor="middle" x="169" y="-7.5" font-family="Helvetica,sans-Serif" font-size="10.00">bot.Bot.is_running</text>
</a>
</g>
</g>
<!-- Node1&#45;&gt;Node3 -->
<g id="edge2" class="edge">
<title>Node1&#45;&gt;Node3</title>
<path fill="none" stroke="midnightblue" d="M79.1,-23.25C87.71,-21.96 97.05,-20.57 106.34,-19.19"/>
<polygon fill="midnightblue" stroke="midnightblue" points="106.97,-22.63 116.35,-17.7 105.94,-15.71 106.97,-22.63"/>
</g>
</g>
</svg>
