<?xml version="1.0" encoding="UTF-8" standalone="no"?>
<!DOCTYPE svg PUBLIC "-//W3C//DTD SVG 1.1//EN"
 "http://www.w3.org/Graphics/SVG/1.1/DTD/svg11.dtd">
<!-- Generated by graphviz version 2.43.0 (0)
 -->
<!-- Title: env.Env._get_str Pages: 1 -->
<svg width="366pt" height="47pt"
 viewBox="0.00 0.00 366.00 47.00" xmlns="http://www.w3.org/2000/svg" xmlns:xlink="http://www.w3.org/1999/xlink">
<g id="graph0" class="graph" transform="scale(1 1) rotate(0) translate(4 43)">
<title>env.Env._get_str</title>
<!-- Node1 -->
<g id="node1" class="node">
<title>Node1</title>
<g id="a_node1"><a xlink:title=" ">
<polygon fill="#bfbfbf" stroke="black" points="262,-19.5 262,-38.5 358,-38.5 358,-19.5 262,-19.5"/>
<text text-anchor="middle" x="310" y="-26.5" font-family="Helvetica,sans-Serif" font-size="10.00">env.Env._get_str</text>
</a>
</g>
</g>
<!-- Node2 -->
<g id="node2" class="node">
<title>Node2</title>
<g id="a_node2"><a xlink:href="classenv_1_1Env.html#abf6274b4f2488b43cdcbdc2a2f372696" target="_top" xlink:title=" ">
<polygon fill="none" stroke="black" points="0,-19.5 0,-38.5 94,-38.5 94,-19.5 0,-19.5"/>
<text text-anchor="middle" x="47" y="-26.5" font-family="Helvetica,sans-Serif" font-size="10.00">env.Env.__init__</text>
</a>
</g>
</g>
<!-- Node1&#45;&gt;Node2 -->
<g id="edge1" class="edge">
<title>Node1&#45;&gt;Node2</title>
<path fill="none" stroke="midnightblue" d="M251.63,-29C204.29,-29 137.97,-29 94.04,-29"/>
<polygon fill="midnightblue" stroke="midnightblue" points="251.73,-32.5 261.73,-29 251.73,-25.5 251.73,-32.5"/>
</g>
<!-- Node3 -->
<g id="node3" class="node">
<title>Node3</title>
<g id="a_node3"><a xlink:href="classenv_1_1Env.html#ae17cf8ec7a1ecde876c6d7f4df2c48dd" target="_top" xlink:title=" ">
<polygon fill="none" stroke="black" points="130,-0.5 130,-19.5 226,-19.5 226,-0.5 130,-0.5"/>
<text text-anchor="middle" x="178" y="-7.5" font-family="Helvetica,sans-Serif" font-size="10.00">env.Env._get_int</text>
</a>
</g>
</g>
<!-- Node1&#45;&gt;Node3 -->
<g id="edge2" class="edge">
<title>Node1&#45;&gt;Node3</title>
<path fill="none" stroke="midnightblue" d="M251.74,-20.63C243.16,-19.38 234.39,-18.1 226.05,-16.88"/>
<polygon fill="midnightblue" stroke="midnightblue" points="251.3,-24.1 261.7,-22.09 252.31,-17.18 251.3,-24.1"/>
</g>
<!-- Node3&#45;&gt;Node2 -->
<g id="edge3" class="edge">
<title>Node3&#45;&gt;Node2</title>
<path fill="none" stroke="midnightblue" d="M119.71,-18.44C111.11,-19.7 102.33,-21 94.01,-22.22"/>
<polygon fill="midnightblue" stroke="midnightblue" points="120.31,-21.89 129.7,-16.97 119.29,-14.96 120.31,-21.89"/>
</g>
</g>
</svg>
