<?xml version="1.0" encoding="UTF-8" standalone="no"?>
<!DOCTYPE svg PUBLIC "-//W3C//DTD SVG 1.1//EN"
 "http://www.w3.org/Graphics/SVG/1.1/DTD/svg11.dtd">
<!-- Generated by graphviz version 2.43.0 (0)
 -->
<!-- Title: bot.BotException Pages: 1 -->
<!--zoomable 690 -->
<svg id="main" version="1.1" xmlns="http://www.w3.org/2000/svg" xmlns:xlink="http://www.w3.org/1999/xlink" xml:space="preserve" onload="init(evt)">
<style type="text/css"><![CDATA[
.edge:hover path { stroke: red; }
.edge:hover polygon { stroke: red; fill: red; }
]]></style>
<script type="text/javascript"><![CDATA[
var edges = document.getElementsByTagName('g');
if (edges && edges.length) {
  for (var i=0;i<edges.length;i++) {
    if (edges[i].id.substr(0,4)=='edge') {
      edges[i].setAttribute('class','edge');
    }
  }
}
]]></script>
        <defs>
                <circle id="rim" cx="0" cy="0" r="7"/>
                <circle id="rim2" cx="0" cy="0" r="3.5"/>
                <g id="zoomPlus">
                        <use xlink:href="#rim" fill="#404040">
                                <set attributeName="fill" to="#808080" begin="zoomplus.mouseover" end="zoomplus.mouseout"/>
                        </use>
                        <path d="M-4,0h8M0,-4v8" fill="none" stroke="white" stroke-width="1.5" pointer-events="none"/>
                </g>
                <g id="zoomMin">
                        <use xlink:href="#rim" fill="#404040">
                                <set attributeName="fill" to="#808080" begin="zoomminus.mouseover" end="zoomminus.mouseout"/>
                        </use>
                        <path d="M-4,0h8" fill="none" stroke="white" stroke-width="1.5" pointer-events="none"/>
                </g>
                <g id="dirArrow">
                        <path fill="none" stroke="white" stroke-width="1.5" d="M0,-3.0v7 M-2.5,-0.5L0,-3.0L2.5,-0.5"/>
                </g>
               <g id="resetDef">
                       <use xlink:href="#rim2" fill="#404040">
                               <set attributeName="fill" to="#808080" begin="reset.mouseover" end="reset.mouseout"/>
                       </use>
               </g>
        </defs>

<script type="text/javascript">
var viewWidth = 2272;
var viewHeight = 690;
var sectionId = 'dynsection-0';
</script>
<script xlink:href="svgpan.js"/>
<svg id="graph" class="graph">
<g id="viewport">
<title>bot.BotException</title>
<!-- Node1 -->
<g id="node1" class="node">
<title>Node1</title>
<g id="a_node1"><a xlink:title=" ">
<polygon fill="#bfbfbf" stroke="black" points="1238,-304.5 1238,-361.5 1338,-361.5 1338,-304.5 1238,-304.5"/>
<text text-anchor="middle" x="1288" y="-349.5" font-family="Helvetica,sans-Serif" font-size="10.00">bot.BotException</text>
<polyline fill="none" stroke="black" points="1238,-342.5 1338,-342.5 "/>
<text text-anchor="middle" x="1288" y="-330.5" font-family="Helvetica,sans-Serif" font-size="10.00"> </text>
<polyline fill="none" stroke="black" points="1238,-323.5 1338,-323.5 "/>
<text text-anchor="middle" x="1288" y="-311.5" font-family="Helvetica,sans-Serif" font-size="10.00"> </text>
</a>
</g>
</g>
<!-- Node4 -->
<g id="node4" class="node">
<title>Node4</title>
<g id="a_node4"><a xlink:href="classbot_1_1BotDeserializationException.html" target="_top" xlink:title=" ">
<polygon fill="none" stroke="black" points="266.5,-210.5 266.5,-267.5 439.5,-267.5 439.5,-210.5 266.5,-210.5"/>
<text text-anchor="middle" x="353" y="-255.5" font-family="Helvetica,sans-Serif" font-size="10.00">bot.BotDeserializationException</text>
<polyline fill="none" stroke="black" points="266.5,-248.5 439.5,-248.5 "/>
<text text-anchor="middle" x="353" y="-236.5" font-family="Helvetica,sans-Serif" font-size="10.00"> </text>
<polyline fill="none" stroke="black" points="266.5,-229.5 439.5,-229.5 "/>
<text text-anchor="middle" x="353" y="-217.5" font-family="Helvetica,sans-Serif" font-size="10.00"> </text>
</a>
</g>
</g>
<!-- Node1&#45;&gt;Node4 -->
<g id="edge3" class="edge">
<title>Node1&#45;&gt;Node4</title>
<path fill="none" stroke="midnightblue" d="M1227.48,-331.67C1088.69,-329.99 737.2,-320.43 449,-268 445.93,-267.44 442.81,-266.82 439.67,-266.15"/>
<polygon fill="none" stroke="midnightblue" points="1227.85,-335.18 1237.89,-331.79 1227.93,-328.18 1227.85,-335.18"/>
</g>
<!-- Node5 -->
<g id="node5" class="node">
<title>Node5</title>
<g id="a_node5"><a xlink:href="classbot_1_1BotHealthCheckException.html" target="_top" xlink:title=" ">
<polygon fill="none" stroke="black" points="458,-210.5 458,-267.5 620,-267.5 620,-210.5 458,-210.5"/>
<text text-anchor="middle" x="539" y="-255.5" font-family="Helvetica,sans-Serif" font-size="10.00">bot.BotHealthCheckException</text>
<polyline fill="none" stroke="black" points="458,-248.5 620,-248.5 "/>
<text text-anchor="middle" x="539" y="-236.5" font-family="Helvetica,sans-Serif" font-size="10.00"> </text>
<polyline fill="none" stroke="black" points="458,-229.5 620,-229.5 "/>
<text text-anchor="middle" x="539" y="-217.5" font-family="Helvetica,sans-Serif" font-size="10.00"> </text>
</a>
</g>
</g>
<!-- Node1&#45;&gt;Node5 -->
<g id="edge4" class="edge">
<title>Node1&#45;&gt;Node5</title>
<path fill="none" stroke="midnightblue" d="M1227.73,-330.27C1111.06,-326.01 846.65,-311.94 629,-268 626.11,-267.42 623.19,-266.78 620.24,-266.09"/>
<polygon fill="none" stroke="midnightblue" points="1227.77,-333.77 1237.89,-330.63 1228.02,-326.78 1227.77,-333.77"/>
</g>
<!-- Node6 -->
<g id="node6" class="node">
<title>Node6</title>
<g id="a_node6"><a xlink:href="classbot_1_1BotInitializationException.html" target="_top" xlink:title=" ">
<polygon fill="none" stroke="black" points="638.5,-210.5 638.5,-267.5 799.5,-267.5 799.5,-210.5 638.5,-210.5"/>
<text text-anchor="middle" x="719" y="-255.5" font-family="Helvetica,sans-Serif" font-size="10.00">bot.BotInitializationException</text>
<polyline fill="none" stroke="black" points="638.5,-248.5 799.5,-248.5 "/>
<text text-anchor="middle" x="719" y="-236.5" font-family="Helvetica,sans-Serif" font-size="10.00"> </text>
<polyline fill="none" stroke="black" points="638.5,-229.5 799.5,-229.5 "/>
<text text-anchor="middle" x="719" y="-217.5" font-family="Helvetica,sans-Serif" font-size="10.00"> </text>
</a>
</g>
</g>
<!-- Node1&#45;&gt;Node6 -->
<g id="edge5" class="edge">
<title>Node1&#45;&gt;Node6</title>
<path fill="none" stroke="midnightblue" d="M1227.56,-327.31C1135.98,-319.44 956.96,-301.1 808,-268 805.31,-267.4 802.59,-266.76 799.85,-266.08"/>
<polygon fill="none" stroke="midnightblue" points="1227.49,-330.81 1237.75,-328.17 1228.08,-323.84 1227.49,-330.81"/>
</g>
<!-- Node7 -->
<g id="node7" class="node">
<title>Node7</title>
<g id="a_node7"><a xlink:href="classbot_1_1BotMessageException.html" target="_top" xlink:title=" ">
<polygon fill="none" stroke="black" points="817.5,-210.5 817.5,-267.5 960.5,-267.5 960.5,-210.5 817.5,-210.5"/>
<text text-anchor="middle" x="889" y="-255.5" font-family="Helvetica,sans-Serif" font-size="10.00">bot.BotMessageException</text>
<polyline fill="none" stroke="black" points="817.5,-248.5 960.5,-248.5 "/>
<text text-anchor="middle" x="889" y="-236.5" font-family="Helvetica,sans-Serif" font-size="10.00"> </text>
<polyline fill="none" stroke="black" points="817.5,-229.5 960.5,-229.5 "/>
<text text-anchor="middle" x="889" y="-217.5" font-family="Helvetica,sans-Serif" font-size="10.00"> </text>
</a>
</g>
</g>
<!-- Node1&#45;&gt;Node7 -->
<g id="edge6" class="edge">
<title>Node1&#45;&gt;Node7</title>
<path fill="none" stroke="midnightblue" d="M1227.76,-322.48C1163.19,-311.68 1057.95,-292.36 969,-268 966.3,-267.26 963.57,-266.48 960.81,-265.66"/>
<polygon fill="none" stroke="midnightblue" points="1227.33,-325.96 1237.77,-324.14 1228.48,-319.05 1227.33,-325.96"/>
</g>
<!-- Node21 -->
<g id="node21" class="node">
<title>Node21</title>
<g id="a_node21"><a xlink:href="classbot_1_1BotQueueException.html" target="_top" xlink:title=" ">
<polygon fill="none" stroke="black" points="978.5,-210.5 978.5,-267.5 1109.5,-267.5 1109.5,-210.5 978.5,-210.5"/>
<text text-anchor="middle" x="1044" y="-255.5" font-family="Helvetica,sans-Serif" font-size="10.00">bot.BotQueueException</text>
<polyline fill="none" stroke="black" points="978.5,-248.5 1109.5,-248.5 "/>
<text text-anchor="middle" x="1044" y="-236.5" font-family="Helvetica,sans-Serif" font-size="10.00"> </text>
<polyline fill="none" stroke="black" points="978.5,-229.5 1109.5,-229.5 "/>
<text text-anchor="middle" x="1044" y="-217.5" font-family="Helvetica,sans-Serif" font-size="10.00"> </text>
</a>
</g>
</g>
<!-- Node1&#45;&gt;Node21 -->
<g id="edge20" class="edge">
<title>Node1&#45;&gt;Node21</title>
<path fill="none" stroke="midnightblue" d="M1228.38,-309.58C1195.77,-297.31 1154.66,-281.83 1118,-268 1115.3,-266.98 1112.55,-265.94 1109.77,-264.89"/>
<polygon fill="none" stroke="midnightblue" points="1227.19,-312.87 1237.78,-313.12 1229.65,-306.32 1227.19,-312.87"/>
</g>
<!-- Node22 -->
<g id="node22" class="node">
<title>Node22</title>
<g id="a_node22"><a xlink:href="classbot_1_1BotSerializationException.html" target="_top" xlink:title=" ">
<polygon fill="none" stroke="black" points="1127.5,-210.5 1127.5,-267.5 1288.5,-267.5 1288.5,-210.5 1127.5,-210.5"/>
<text text-anchor="middle" x="1208" y="-255.5" font-family="Helvetica,sans-Serif" font-size="10.00">bot.BotSerializationException</text>
<polyline fill="none" stroke="black" points="1127.5,-248.5 1288.5,-248.5 "/>
<text text-anchor="middle" x="1208" y="-236.5" font-family="Helvetica,sans-Serif" font-size="10.00"> </text>
<polyline fill="none" stroke="black" points="1127.5,-229.5 1288.5,-229.5 "/>
<text text-anchor="middle" x="1208" y="-217.5" font-family="Helvetica,sans-Serif" font-size="10.00"> </text>
</a>
</g>
</g>
<!-- Node1&#45;&gt;Node22 -->
<g id="edge21" class="edge">
<title>Node1&#45;&gt;Node22</title>
<path fill="none" stroke="midnightblue" d="M1257.4,-296.81C1248.98,-287.13 1239.97,-276.77 1231.99,-267.58"/>
<polygon fill="none" stroke="midnightblue" points="1254.79,-299.15 1264,-304.4 1260.08,-294.55 1254.79,-299.15"/>
</g>
<!-- Node23 -->
<g id="node23" class="node">
<title>Node23</title>
<g id="a_node23"><a xlink:href="classbot_1_1BotStartException.html" target="_top" xlink:title=" ">
<polygon fill="none" stroke="black" points="1306.5,-210.5 1306.5,-267.5 1429.5,-267.5 1429.5,-210.5 1306.5,-210.5"/>
<text text-anchor="middle" x="1368" y="-255.5" font-family="Helvetica,sans-Serif" font-size="10.00">bot.BotStartException</text>
<polyline fill="none" stroke="black" points="1306.5,-248.5 1429.5,-248.5 "/>
<text text-anchor="middle" x="1368" y="-236.5" font-family="Helvetica,sans-Serif" font-size="10.00"> </text>
<polyline fill="none" stroke="black" points="1306.5,-229.5 1429.5,-229.5 "/>
<text text-anchor="middle" x="1368" y="-217.5" font-family="Helvetica,sans-Serif" font-size="10.00"> </text>
</a>
</g>
</g>
<!-- Node1&#45;&gt;Node23 -->
<g id="edge22" class="edge">
<title>Node1&#45;&gt;Node23</title>
<path fill="none" stroke="midnightblue" d="M1318.6,-296.81C1327.02,-287.13 1336.03,-276.77 1344.01,-267.58"/>
<polygon fill="none" stroke="midnightblue" points="1315.92,-294.55 1312,-304.4 1321.21,-299.15 1315.92,-294.55"/>
</g>
<!-- Node24 -->
<g id="node24" class="node">
<title>Node24</title>
<g id="a_node24"><a xlink:href="classbot_1_1BotStopException.html" target="_top" xlink:title=" ">
<polygon fill="none" stroke="black" points="1448,-210.5 1448,-267.5 1570,-267.5 1570,-210.5 1448,-210.5"/>
<text text-anchor="middle" x="1509" y="-255.5" font-family="Helvetica,sans-Serif" font-size="10.00">bot.BotStopException</text>
<polyline fill="none" stroke="black" points="1448,-248.5 1570,-248.5 "/>
<text text-anchor="middle" x="1509" y="-236.5" font-family="Helvetica,sans-Serif" font-size="10.00"> </text>
<polyline fill="none" stroke="black" points="1448,-229.5 1570,-229.5 "/>
<text text-anchor="middle" x="1509" y="-217.5" font-family="Helvetica,sans-Serif" font-size="10.00"> </text>
</a>
</g>
</g>
<!-- Node1&#45;&gt;Node24 -->
<g id="edge23" class="edge">
<title>Node1&#45;&gt;Node24</title>
<path fill="none" stroke="midnightblue" d="M1347.53,-307.22C1378.52,-294.32 1416.36,-278.56 1447.62,-265.55"/>
<polygon fill="none" stroke="midnightblue" points="1346.04,-304.05 1338.15,-311.12 1348.73,-310.51 1346.04,-304.05"/>
</g>
<!-- Node25 -->
<g id="node25" class="node">
<title>Node25</title>
<g id="a_node25"><a xlink:href="classbot_1_1BotThreadException.html" target="_top" xlink:title=" ">
<polygon fill="none" stroke="black" points="1588,-210.5 1588,-267.5 1722,-267.5 1722,-210.5 1588,-210.5"/>
<text text-anchor="middle" x="1655" y="-255.5" font-family="Helvetica,sans-Serif" font-size="10.00">bot.BotThreadException</text>
<polyline fill="none" stroke="black" points="1588,-248.5 1722,-248.5 "/>
<text text-anchor="middle" x="1655" y="-236.5" font-family="Helvetica,sans-Serif" font-size="10.00"> </text>
<polyline fill="none" stroke="black" points="1588,-229.5 1722,-229.5 "/>
<text text-anchor="middle" x="1655" y="-217.5" font-family="Helvetica,sans-Serif" font-size="10.00"> </text>
</a>
</g>
</g>
<!-- Node1&#45;&gt;Node25 -->
<g id="edge24" class="edge">
<title>Node1&#45;&gt;Node25</title>
<path fill="none" stroke="midnightblue" d="M1348.15,-321.26C1407.42,-310.1 1500.27,-291.04 1579,-268 1581.83,-267.17 1584.71,-266.29 1587.61,-265.37"/>
<polygon fill="none" stroke="midnightblue" points="1347.4,-317.84 1338.21,-323.12 1348.68,-324.72 1347.4,-317.84"/>
</g>
<!-- Node28 -->
<g id="node28" class="node">
<title>Node28</title>
<g id="a_node28"><a xlink:href="classbot_1_1FacebookBotException.html" target="_top" xlink:title=" ">
<polygon fill="none" stroke="black" points="1740,-210.5 1740,-267.5 1886,-267.5 1886,-210.5 1740,-210.5"/>
<text text-anchor="middle" x="1813" y="-255.5" font-family="Helvetica,sans-Serif" font-size="10.00">bot.FacebookBotException</text>
<polyline fill="none" stroke="black" points="1740,-248.5 1886,-248.5 "/>
<text text-anchor="middle" x="1813" y="-236.5" font-family="Helvetica,sans-Serif" font-size="10.00"> </text>
<polyline fill="none" stroke="black" points="1740,-229.5 1886,-229.5 "/>
<text text-anchor="middle" x="1813" y="-217.5" font-family="Helvetica,sans-Serif" font-size="10.00"> </text>
</a>
</g>
</g>
<!-- Node1&#45;&gt;Node28 -->
<g id="edge27" class="edge">
<title>Node1&#45;&gt;Node28</title>
<path fill="none" stroke="midnightblue" d="M1348.15,-326.88C1433.98,-318.77 1596.15,-300.47 1731,-268 1733.93,-267.3 1736.89,-266.53 1739.88,-265.72"/>
<polygon fill="none" stroke="midnightblue" points="1347.7,-323.41 1338.07,-327.82 1348.35,-330.38 1347.7,-323.41"/>
</g>
<!-- Node30 -->
<g id="node30" class="node">
<title>Node30</title>
<g id="a_node30"><a xlink:href="classbot_1_1TelegramBotException.html" target="_top" xlink:title=" ">
<polygon fill="none" stroke="black" points="1913.5,-210.5 1913.5,-267.5 2058.5,-267.5 2058.5,-210.5 1913.5,-210.5"/>
<text text-anchor="middle" x="1986" y="-255.5" font-family="Helvetica,sans-Serif" font-size="10.00">bot.TelegramBotException</text>
<polyline fill="none" stroke="black" points="1913.5,-248.5 2058.5,-248.5 "/>
<text text-anchor="middle" x="1986" y="-236.5" font-family="Helvetica,sans-Serif" font-size="10.00"> </text>
<polyline fill="none" stroke="black" points="1913.5,-229.5 2058.5,-229.5 "/>
<text text-anchor="middle" x="1986" y="-217.5" font-family="Helvetica,sans-Serif" font-size="10.00"> </text>
</a>
</g>
</g>
<!-- Node1&#45;&gt;Node30 -->
<g id="edge29" class="edge">
<title>Node1&#45;&gt;Node30</title>
<path fill="none" stroke="midnightblue" d="M1348.28,-329.51C1458.03,-324.12 1697.38,-308.43 1895,-268 1900.99,-266.77 1907.15,-265.32 1913.31,-263.72"/>
<polygon fill="none" stroke="midnightblue" points="1347.89,-326.02 1338.07,-330 1348.22,-333.01 1347.89,-326.02"/>
</g>
<!-- Node32 -->
<g id="node32" class="node">
<title>Node32</title>
<g id="a_node32"><a xlink:href="classbot_1_1WhatsappBotException.html" target="_top" xlink:title=" ">
<polygon fill="none" stroke="black" points="2090.5,-210.5 2090.5,-267.5 2239.5,-267.5 2239.5,-210.5 2090.5,-210.5"/>
<text text-anchor="middle" x="2165" y="-255.5" font-family="Helvetica,sans-Serif" font-size="10.00">bot.WhatsappBotException</text>
<polyline fill="none" stroke="black" points="2090.5,-248.5 2239.5,-248.5 "/>
<text text-anchor="middle" x="2165" y="-236.5" font-family="Helvetica,sans-Serif" font-size="10.00"> </text>
<polyline fill="none" stroke="black" points="2090.5,-229.5 2239.5,-229.5 "/>
<text text-anchor="middle" x="2165" y="-217.5" font-family="Helvetica,sans-Serif" font-size="10.00"> </text>
</a>
</g>
</g>
<!-- Node1&#45;&gt;Node32 -->
<g id="edge31" class="edge">
<title>Node1&#45;&gt;Node32</title>
<path fill="none" stroke="midnightblue" d="M1348.38,-331.06C1479.99,-328.14 1802.16,-316.23 2067,-268 2074.66,-266.61 2082.58,-264.86 2090.45,-262.93"/>
<polygon fill="none" stroke="midnightblue" points="1348.04,-327.57 1338.11,-331.28 1348.18,-334.57 1348.04,-327.57"/>
</g>
<!-- Node2 -->
<g id="node2" class="node">
<title>Node2</title>
<g id="a_node2"><a xlink:href="classexception_1_1ChatbotException.html" target="_top" xlink:title=" ">
<polygon fill="none" stroke="black" points="1211,-398.5 1211,-587.5 1365,-587.5 1365,-398.5 1211,-398.5"/>
<text text-anchor="middle" x="1288" y="-575.5" font-family="Helvetica,sans-Serif" font-size="10.00">exception.ChatbotException</text>
<polyline fill="none" stroke="black" points="1211,-568.5 1365,-568.5 "/>
<text text-anchor="start" x="1219" y="-556.5" font-family="Helvetica,sans-Serif" font-size="10.00">+ cause</text>
<text text-anchor="start" x="1219" y="-545.5" font-family="Helvetica,sans-Serif" font-size="10.00">+ code</text>
<text text-anchor="start" x="1219" y="-534.5" font-family="Helvetica,sans-Serif" font-size="10.00">+ filename</text>
<text text-anchor="start" x="1219" y="-523.5" font-family="Helvetica,sans-Serif" font-size="10.00">+ lineno</text>
<text text-anchor="start" x="1219" y="-512.5" font-family="Helvetica,sans-Serif" font-size="10.00">+ message</text>
<text text-anchor="start" x="1219" y="-501.5" font-family="Helvetica,sans-Serif" font-size="10.00">+ severity</text>
<text text-anchor="start" x="1219" y="-490.5" font-family="Helvetica,sans-Serif" font-size="10.00">+ traceback</text>
<text text-anchor="start" x="1219" y="-479.5" font-family="Helvetica,sans-Serif" font-size="10.00">+ type</text>
<text text-anchor="start" x="1219" y="-468.5" font-family="Helvetica,sans-Serif" font-size="10.00">+ SEVERITY_TO_LOGGING</text>
<polyline fill="none" stroke="black" points="1211,-461.5 1365,-461.5 "/>
<text text-anchor="start" x="1219" y="-449.5" font-family="Helvetica,sans-Serif" font-size="10.00">+ __init__()</text>
<text text-anchor="start" x="1219" y="-438.5" font-family="Helvetica,sans-Serif" font-size="10.00">+ __repr__()</text>
<text text-anchor="start" x="1219" y="-427.5" font-family="Helvetica,sans-Serif" font-size="10.00">+ __str__()</text>
<text text-anchor="start" x="1219" y="-416.5" font-family="Helvetica,sans-Serif" font-size="10.00">+ to_dict()</text>
<text text-anchor="start" x="1219" y="-405.5" font-family="Helvetica,sans-Serif" font-size="10.00">+ to_json()</text>
</a>
</g>
</g>
<!-- Node2&#45;&gt;Node1 -->
<g id="edge1" class="edge">
<title>Node2&#45;&gt;Node1</title>
<path fill="none" stroke="midnightblue" d="M1288,-388.13C1288,-378.56 1288,-369.54 1288,-361.7"/>
<polygon fill="none" stroke="midnightblue" points="1284.5,-388.26 1288,-398.26 1291.5,-388.26 1284.5,-388.26"/>
</g>
<!-- Node3 -->
<g id="node3" class="node">
<title>Node3</title>
<g id="a_node3"><a xlink:title=" ">
<polygon fill="none" stroke="#bfbfbf" points="1255.5,-624.5 1255.5,-681.5 1320.5,-681.5 1320.5,-624.5 1255.5,-624.5"/>
<text text-anchor="middle" x="1288" y="-669.5" font-family="Helvetica,sans-Serif" font-size="10.00">Exception</text>
<polyline fill="none" stroke="#bfbfbf" points="1255.5,-662.5 1320.5,-662.5 "/>
<text text-anchor="middle" x="1288" y="-650.5" font-family="Helvetica,sans-Serif" font-size="10.00"> </text>
<polyline fill="none" stroke="#bfbfbf" points="1255.5,-643.5 1320.5,-643.5 "/>
<text text-anchor="middle" x="1288" y="-631.5" font-family="Helvetica,sans-Serif" font-size="10.00"> </text>
</a>
</g>
</g>
<!-- Node3&#45;&gt;Node2 -->
<g id="edge2" class="edge">
<title>Node3&#45;&gt;Node2</title>
<path fill="none" stroke="midnightblue" d="M1288,-614.22C1288,-606.01 1288,-596.99 1288,-587.68"/>
<polygon fill="none" stroke="midnightblue" points="1284.5,-614.48 1288,-624.48 1291.5,-614.48 1284.5,-614.48"/>
</g>
<!-- Node8 -->
<g id="node8" class="node">
<title>Node8</title>
<g id="a_node8"><a xlink:href="classbot_1_1BotMessageQueueException.html" target="_top" xlink:title=" ">
<polygon fill="none" stroke="black" points="291.5,-111 291.5,-168 466.5,-168 466.5,-111 291.5,-111"/>
<text text-anchor="middle" x="379" y="-156" font-family="Helvetica,sans-Serif" font-size="10.00">bot.BotMessageQueueException</text>
<polyline fill="none" stroke="black" points="291.5,-149 466.5,-149 "/>
<text text-anchor="middle" x="379" y="-137" font-family="Helvetica,sans-Serif" font-size="10.00"> </text>
<polyline fill="none" stroke="black" points="291.5,-130 466.5,-130 "/>
<text text-anchor="middle" x="379" y="-118" font-family="Helvetica,sans-Serif" font-size="10.00"> </text>
</a>
</g>
</g>
<!-- Node7&#45;&gt;Node8 -->
<g id="edge7" class="edge">
<title>Node7&#45;&gt;Node8</title>
<path fill="none" stroke="midnightblue" d="M807.14,-210.39C760.31,-201.59 577.79,-172.29 466.52,-154.49"/>
<polygon fill="none" stroke="midnightblue" points="806.71,-213.88 817.21,-212.46 808.12,-207.02 806.71,-213.88"/>
</g>
<!-- Node12 -->
<g id="node12" class="node">
<title>Node12</title>
<g id="a_node12"><a xlink:href="classbot_1_1BotQueuedMessageException.html" target="_top" xlink:title=" ">
<polygon fill="none" stroke="black" points="598.5,-111 598.5,-168 779.5,-168 779.5,-111 598.5,-111"/>
<text text-anchor="middle" x="689" y="-156" font-family="Helvetica,sans-Serif" font-size="10.00">bot.BotQueuedMessageException</text>
<polyline fill="none" stroke="black" points="598.5,-149 779.5,-149 "/>
<text text-anchor="middle" x="689" y="-137" font-family="Helvetica,sans-Serif" font-size="10.00"> </text>
<polyline fill="none" stroke="black" points="598.5,-130 779.5,-130 "/>
<text text-anchor="middle" x="689" y="-118" font-family="Helvetica,sans-Serif" font-size="10.00"> </text>
</a>
</g>
</g>
<!-- Node7&#45;&gt;Node12 -->
<g id="edge11" class="edge">
<title>Node7&#45;&gt;Node12</title>
<path fill="none" stroke="midnightblue" d="M823.41,-206.02C798.31,-193.79 769.92,-179.95 745.72,-168.15"/>
<polygon fill="none" stroke="midnightblue" points="821.97,-209.22 832.49,-210.45 825.03,-202.92 821.97,-209.22"/>
</g>
<!-- Node15 -->
<g id="node15" class="node">
<title>Node15</title>
<g id="a_node15"><a xlink:href="classbot_1_1BotReceiveMessageException.html" target="_top" xlink:title=" ">
<polygon fill="none" stroke="black" points="798,-111 798,-168 980,-168 980,-111 798,-111"/>
<text text-anchor="middle" x="889" y="-156" font-family="Helvetica,sans-Serif" font-size="10.00">bot.BotReceiveMessageException</text>
<polyline fill="none" stroke="black" points="798,-149 980,-149 "/>
<text text-anchor="middle" x="889" y="-137" font-family="Helvetica,sans-Serif" font-size="10.00"> </text>
<polyline fill="none" stroke="black" points="798,-130 980,-130 "/>
<text text-anchor="middle" x="889" y="-118" font-family="Helvetica,sans-Serif" font-size="10.00"> </text>
</a>
</g>
</g>
<!-- Node7&#45;&gt;Node15 -->
<g id="edge14" class="edge">
<title>Node7&#45;&gt;Node15</title>
<path fill="none" stroke="midnightblue" d="M889,-200.04C889,-189.45 889,-178.14 889,-168.25"/>
<polygon fill="none" stroke="midnightblue" points="885.5,-200.32 889,-210.32 892.5,-200.32 885.5,-200.32"/>
</g>
<!-- Node16 -->
<g id="node16" class="node">
<title>Node16</title>
<g id="a_node16"><a xlink:href="classbot_1_1BotSendMessageException.html" target="_top" xlink:title=" ">
<polygon fill="none" stroke="black" points="998.5,-111 998.5,-168 1165.5,-168 1165.5,-111 998.5,-111"/>
<text text-anchor="middle" x="1082" y="-156" font-family="Helvetica,sans-Serif" font-size="10.00">bot.BotSendMessageException</text>
<polyline fill="none" stroke="black" points="998.5,-149 1165.5,-149 "/>
<text text-anchor="middle" x="1082" y="-137" font-family="Helvetica,sans-Serif" font-size="10.00"> </text>
<polyline fill="none" stroke="black" points="998.5,-130 1165.5,-130 "/>
<text text-anchor="middle" x="1082" y="-118" font-family="Helvetica,sans-Serif" font-size="10.00"> </text>
</a>
</g>
</g>
<!-- Node7&#45;&gt;Node16 -->
<g id="edge15" class="edge">
<title>Node7&#45;&gt;Node16</title>
<path fill="none" stroke="midnightblue" d="M952.62,-205.86C976.76,-193.67 1004.02,-179.9 1027.27,-168.15"/>
<polygon fill="none" stroke="midnightblue" points="950.88,-202.82 943.53,-210.45 954.04,-209.07 950.88,-202.82"/>
</g>
<!-- Node17 -->
<g id="node17" class="node">
<title>Node17</title>
<g id="a_node17"><a xlink:href="classbot_1_1HTTPMessageException.html" target="_top" xlink:title=" ">
<polygon fill="none" stroke="black" points="1189,-111 1189,-168 1341,-168 1341,-111 1189,-111"/>
<text text-anchor="middle" x="1265" y="-156" font-family="Helvetica,sans-Serif" font-size="10.00">bot.HTTPMessageException</text>
<polyline fill="none" stroke="black" points="1189,-149 1341,-149 "/>
<text text-anchor="middle" x="1265" y="-137" font-family="Helvetica,sans-Serif" font-size="10.00"> </text>
<polyline fill="none" stroke="black" points="1189,-130 1341,-130 "/>
<text text-anchor="middle" x="1265" y="-118" font-family="Helvetica,sans-Serif" font-size="10.00"> </text>
</a>
</g>
</g>
<!-- Node7&#45;&gt;Node17 -->
<g id="edge16" class="edge">
<title>Node7&#45;&gt;Node17</title>
<path fill="none" stroke="midnightblue" d="M970.56,-209.76C1060.37,-187.38 1087.74,-197.25 1174,-174 1180.5,-172.25 1187.19,-170.22 1193.86,-168.06"/>
<polygon fill="none" stroke="midnightblue" points="969.61,-206.39 960.79,-212.25 971.34,-213.17 969.61,-206.39"/>
</g>
<!-- Node9 -->
<g id="node9" class="node">
<title>Node9</title>
<g id="a_node9"><a xlink:href="classbot_1_1BotMessageQueueEmptyException.html" target="_top" xlink:title=" ">
<polygon fill="none" stroke="black" points="0,-0.5 0,-68.5 158,-68.5 158,-0.5 0,-0.5"/>
<text text-anchor="start" x="8" y="-56.5" font-family="Helvetica,sans-Serif" font-size="10.00">bot.BotMessageQueueEmpty</text>
<text text-anchor="middle" x="79" y="-45.5" font-family="Helvetica,sans-Serif" font-size="10.00">Exception</text>
<polyline fill="none" stroke="black" points="0,-38.5 158,-38.5 "/>
<text text-anchor="middle" x="79" y="-26.5" font-family="Helvetica,sans-Serif" font-size="10.00"> </text>
<polyline fill="none" stroke="black" points="0,-19.5 158,-19.5 "/>
<text text-anchor="middle" x="79" y="-7.5" font-family="Helvetica,sans-Serif" font-size="10.00"> </text>
</a>
</g>
</g>
<!-- Node8&#45;&gt;Node9 -->
<g id="edge8" class="edge">
<title>Node8&#45;&gt;Node9</title>
<path fill="none" stroke="midnightblue" d="M282.2,-107.82C245.93,-96.05 204.46,-82.26 167,-69 164.07,-67.96 161.09,-66.9 158.09,-65.81"/>
<polygon fill="none" stroke="midnightblue" points="281.2,-111.18 291.79,-110.93 283.35,-104.52 281.2,-111.18"/>
</g>
<!-- Node10 -->
<g id="node10" class="node">
<title>Node10</title>
<g id="a_node10"><a xlink:href="classbot_1_1BotMessageQueueFullException.html" target="_top" xlink:title=" ">
<polygon fill="none" stroke="black" points="176,-6 176,-63 368,-63 368,-6 176,-6"/>
<text text-anchor="middle" x="272" y="-51" font-family="Helvetica,sans-Serif" font-size="10.00">bot.BotMessageQueueFullException</text>
<polyline fill="none" stroke="black" points="176,-44 368,-44 "/>
<text text-anchor="middle" x="272" y="-32" font-family="Helvetica,sans-Serif" font-size="10.00"> </text>
<polyline fill="none" stroke="black" points="176,-25 368,-25 "/>
<text text-anchor="middle" x="272" y="-13" font-family="Helvetica,sans-Serif" font-size="10.00"> </text>
</a>
</g>
</g>
<!-- Node8&#45;&gt;Node10 -->
<g id="edge9" class="edge">
<title>Node8&#45;&gt;Node10</title>
<path fill="none" stroke="midnightblue" d="M342.9,-103.75C329.17,-90.53 313.72,-75.66 300.75,-63.18"/>
<polygon fill="none" stroke="midnightblue" points="340.69,-106.48 350.33,-110.9 345.55,-101.44 340.69,-106.48"/>
</g>
<!-- Node11 -->
<g id="node11" class="node">
<title>Node11</title>
<g id="a_node11"><a xlink:href="classbot_1_1BotMessageQueueLockException.html" target="_top" xlink:title=" ">
<polygon fill="none" stroke="black" points="386.5,-6 386.5,-63 583.5,-63 583.5,-6 386.5,-6"/>
<text text-anchor="middle" x="485" y="-51" font-family="Helvetica,sans-Serif" font-size="10.00">bot.BotMessageQueueLockException</text>
<polyline fill="none" stroke="black" points="386.5,-44 583.5,-44 "/>
<text text-anchor="middle" x="485" y="-32" font-family="Helvetica,sans-Serif" font-size="10.00"> </text>
<polyline fill="none" stroke="black" points="386.5,-25 583.5,-25 "/>
<text text-anchor="middle" x="485" y="-13" font-family="Helvetica,sans-Serif" font-size="10.00"> </text>
</a>
</g>
</g>
<!-- Node8&#45;&gt;Node11 -->
<g id="edge10" class="edge">
<title>Node8&#45;&gt;Node11</title>
<path fill="none" stroke="midnightblue" d="M414.76,-103.75C428.37,-90.53 443.67,-75.66 456.52,-63.18"/>
<polygon fill="none" stroke="midnightblue" points="412.14,-101.42 407.41,-110.9 417.02,-106.44 412.14,-101.42"/>
</g>
<!-- Node13 -->
<g id="node13" class="node">
<title>Node13</title>
<g id="a_node13"><a xlink:href="classbot_1_1BotQueuedMessageInvalidException.html" target="_top" xlink:title=" ">
<polygon fill="none" stroke="black" points="602,-0.5 602,-68.5 768,-68.5 768,-0.5 602,-0.5"/>
<text text-anchor="start" x="610" y="-56.5" font-family="Helvetica,sans-Serif" font-size="10.00">bot.BotQueuedMessageInvalid</text>
<text text-anchor="middle" x="685" y="-45.5" font-family="Helvetica,sans-Serif" font-size="10.00">Exception</text>
<polyline fill="none" stroke="black" points="602,-38.5 768,-38.5 "/>
<text text-anchor="middle" x="685" y="-26.5" font-family="Helvetica,sans-Serif" font-size="10.00"> </text>
<polyline fill="none" stroke="black" points="602,-19.5 768,-19.5 "/>
<text text-anchor="middle" x="685" y="-7.5" font-family="Helvetica,sans-Serif" font-size="10.00"> </text>
</a>
</g>
</g>
<!-- Node12&#45;&gt;Node13 -->
<g id="edge12" class="edge">
<title>Node12&#45;&gt;Node13</title>
<path fill="none" stroke="midnightblue" d="M687.53,-100.74C687.13,-90.23 686.69,-78.9 686.29,-68.68"/>
<polygon fill="none" stroke="midnightblue" points="684.04,-101.04 687.93,-110.9 691.04,-100.77 684.04,-101.04"/>
</g>
<!-- Node14 -->
<g id="node14" class="node">
<title>Node14</title>
<g id="a_node14"><a xlink:href="classbot_1_1BotQueuedMessageResultException.html" target="_top" xlink:title=" ">
<polygon fill="none" stroke="black" points="786,-0.5 786,-68.5 950,-68.5 950,-0.5 786,-0.5"/>
<text text-anchor="start" x="794" y="-56.5" font-family="Helvetica,sans-Serif" font-size="10.00">bot.BotQueuedMessageResult</text>
<text text-anchor="middle" x="868" y="-45.5" font-family="Helvetica,sans-Serif" font-size="10.00">Exception</text>
<polyline fill="none" stroke="black" points="786,-38.5 950,-38.5 "/>
<text text-anchor="middle" x="868" y="-26.5" font-family="Helvetica,sans-Serif" font-size="10.00"> </text>
<polyline fill="none" stroke="black" points="786,-19.5 950,-19.5 "/>
<text text-anchor="middle" x="868" y="-7.5" font-family="Helvetica,sans-Serif" font-size="10.00"> </text>
</a>
</g>
</g>
<!-- Node12&#45;&gt;Node14 -->
<g id="edge13" class="edge">
<title>Node12&#45;&gt;Node14</title>
<path fill="none" stroke="midnightblue" d="M745.91,-105.75C766.48,-93.92 789.7,-80.55 810.34,-68.68"/>
<polygon fill="none" stroke="midnightblue" points="743.89,-102.88 736.97,-110.9 747.38,-108.94 743.89,-102.88"/>
</g>
<!-- Node18 -->
<g id="node18" class="node">
<title>Node18</title>
<g id="a_node18"><a xlink:href="classbot_1_1HTTPMessageHeadersException.html" target="_top" xlink:title=" ">
<polygon fill="none" stroke="black" points="968.5,-6 968.5,-63 1161.5,-63 1161.5,-6 968.5,-6"/>
<text text-anchor="middle" x="1065" y="-51" font-family="Helvetica,sans-Serif" font-size="10.00">bot.HTTPMessageHeadersException</text>
<polyline fill="none" stroke="black" points="968.5,-44 1161.5,-44 "/>
<text text-anchor="middle" x="1065" y="-32" font-family="Helvetica,sans-Serif" font-size="10.00"> </text>
<polyline fill="none" stroke="black" points="968.5,-25 1161.5,-25 "/>
<text text-anchor="middle" x="1065" y="-13" font-family="Helvetica,sans-Serif" font-size="10.00"> </text>
</a>
</g>
</g>
<!-- Node17&#45;&gt;Node18 -->
<g id="edge17" class="edge">
<title>Node17&#45;&gt;Node18</title>
<path fill="none" stroke="midnightblue" d="M1202.47,-106.3C1175.62,-92.47 1144.55,-76.47 1118.74,-63.18"/>
<polygon fill="none" stroke="midnightblue" points="1200.91,-109.43 1211.4,-110.9 1204.12,-103.21 1200.91,-109.43"/>
</g>
<!-- Node19 -->
<g id="node19" class="node">
<title>Node19</title>
<g id="a_node19"><a xlink:href="classbot_1_1HTTPMessageParamsException.html" target="_top" xlink:title=" ">
<polygon fill="none" stroke="black" points="1179.5,-6 1179.5,-63 1368.5,-63 1368.5,-6 1179.5,-6"/>
<text text-anchor="middle" x="1274" y="-51" font-family="Helvetica,sans-Serif" font-size="10.00">bot.HTTPMessageParamsException</text>
<polyline fill="none" stroke="black" points="1179.5,-44 1368.5,-44 "/>
<text text-anchor="middle" x="1274" y="-32" font-family="Helvetica,sans-Serif" font-size="10.00"> </text>
<polyline fill="none" stroke="black" points="1179.5,-25 1368.5,-25 "/>
<text text-anchor="middle" x="1274" y="-13" font-family="Helvetica,sans-Serif" font-size="10.00"> </text>
</a>
</g>
</g>
<!-- Node17&#45;&gt;Node19 -->
<g id="edge18" class="edge">
<title>Node17&#45;&gt;Node19</title>
<path fill="none" stroke="midnightblue" d="M1268.3,-100.79C1269.38,-88.34 1270.57,-74.73 1271.58,-63.18"/>
<polygon fill="none" stroke="midnightblue" points="1264.8,-100.63 1267.41,-110.9 1271.77,-101.24 1264.8,-100.63"/>
</g>
<!-- Node20 -->
<g id="node20" class="node">
<title>Node20</title>
<g id="a_node20"><a xlink:href="classbot_1_1HTTPMessagePayloadException.html" target="_top" xlink:title=" ">
<polygon fill="none" stroke="black" points="1386.5,-6 1386.5,-63 1577.5,-63 1577.5,-6 1386.5,-6"/>
<text text-anchor="middle" x="1482" y="-51" font-family="Helvetica,sans-Serif" font-size="10.00">bot.HTTPMessagePayloadException</text>
<polyline fill="none" stroke="black" points="1386.5,-44 1577.5,-44 "/>
<text text-anchor="middle" x="1482" y="-32" font-family="Helvetica,sans-Serif" font-size="10.00"> </text>
<polyline fill="none" stroke="black" points="1386.5,-25 1577.5,-25 "/>
<text text-anchor="middle" x="1482" y="-13" font-family="Helvetica,sans-Serif" font-size="10.00"> </text>
</a>
</g>
</g>
<!-- Node17&#45;&gt;Node20 -->
<g id="edge19" class="edge">
<title>Node17&#45;&gt;Node20</title>
<path fill="none" stroke="midnightblue" d="M1332.46,-106.48C1361.69,-92.61 1395.57,-76.52 1423.69,-63.18"/>
<polygon fill="none" stroke="midnightblue" points="1330.69,-103.45 1323.15,-110.9 1333.69,-109.77 1330.69,-103.45"/>
</g>
<!-- Node26 -->
<g id="node26" class="node">
<title>Node26</title>
<g id="a_node26"><a xlink:href="classbot_1_1BotStartThreadException.html" target="_top" xlink:title=" ">
<polygon fill="none" stroke="black" points="1381.5,-111 1381.5,-168 1538.5,-168 1538.5,-111 1381.5,-111"/>
<text text-anchor="middle" x="1460" y="-156" font-family="Helvetica,sans-Serif" font-size="10.00">bot.BotStartThreadException</text>
<polyline fill="none" stroke="black" points="1381.5,-149 1538.5,-149 "/>
<text text-anchor="middle" x="1460" y="-137" font-family="Helvetica,sans-Serif" font-size="10.00"> </text>
<polyline fill="none" stroke="black" points="1381.5,-130 1538.5,-130 "/>
<text text-anchor="middle" x="1460" y="-118" font-family="Helvetica,sans-Serif" font-size="10.00"> </text>
</a>
</g>
</g>
<!-- Node25&#45;&gt;Node26 -->
<g id="edge25" class="edge">
<title>Node25&#45;&gt;Node26</title>
<path fill="none" stroke="midnightblue" d="M1590.72,-205.86C1566.33,-193.67 1538.79,-179.9 1515.3,-168.15"/>
<polygon fill="none" stroke="midnightblue" points="1589.39,-209.11 1599.9,-210.45 1592.52,-202.85 1589.39,-209.11"/>
</g>
<!-- Node27 -->
<g id="node27" class="node">
<title>Node27</title>
<g id="a_node27"><a xlink:href="classbot_1_1BotStopThreadException.html" target="_top" xlink:title=" ">
<polygon fill="none" stroke="black" points="1556.5,-111 1556.5,-168 1711.5,-168 1711.5,-111 1556.5,-111"/>
<text text-anchor="middle" x="1634" y="-156" font-family="Helvetica,sans-Serif" font-size="10.00">bot.BotStopThreadException</text>
<polyline fill="none" stroke="black" points="1556.5,-149 1711.5,-149 "/>
<text text-anchor="middle" x="1634" y="-137" font-family="Helvetica,sans-Serif" font-size="10.00"> </text>
<polyline fill="none" stroke="black" points="1556.5,-130 1711.5,-130 "/>
<text text-anchor="middle" x="1634" y="-118" font-family="Helvetica,sans-Serif" font-size="10.00"> </text>
</a>
</g>
</g>
<!-- Node25&#45;&gt;Node27 -->
<g id="edge26" class="edge">
<title>Node25&#45;&gt;Node27</title>
<path fill="none" stroke="midnightblue" d="M1646.9,-200.37C1644.59,-189.68 1642.13,-178.24 1639.98,-168.25"/>
<polygon fill="none" stroke="midnightblue" points="1643.51,-201.28 1649.04,-210.32 1650.35,-199.81 1643.51,-201.28"/>
</g>
<!-- Node29 -->
<g id="node29" class="node">
<title>Node29</title>
<g id="a_node29"><a xlink:href="classbot_1_1FacebookBotSendMessageException.html" target="_top" xlink:title=" ">
<polygon fill="none" stroke="black" points="1730,-105.5 1730,-173.5 1896,-173.5 1896,-105.5 1730,-105.5"/>
<text text-anchor="start" x="1738" y="-161.5" font-family="Helvetica,sans-Serif" font-size="10.00">bot.FacebookBotSendMessage</text>
<text text-anchor="middle" x="1813" y="-150.5" font-family="Helvetica,sans-Serif" font-size="10.00">Exception</text>
<polyline fill="none" stroke="black" points="1730,-143.5 1896,-143.5 "/>
<text text-anchor="middle" x="1813" y="-131.5" font-family="Helvetica,sans-Serif" font-size="10.00"> </text>
<polyline fill="none" stroke="black" points="1730,-124.5 1896,-124.5 "/>
<text text-anchor="middle" x="1813" y="-112.5" font-family="Helvetica,sans-Serif" font-size="10.00"> </text>
</a>
</g>
</g>
<!-- Node28&#45;&gt;Node29 -->
<g id="edge28" class="edge">
<title>Node28&#45;&gt;Node29</title>
<path fill="none" stroke="midnightblue" d="M1813,-200.06C1813,-191.39 1813,-182.24 1813,-173.79"/>
<polygon fill="none" stroke="midnightblue" points="1809.5,-200.32 1813,-210.32 1816.5,-200.32 1809.5,-200.32"/>
</g>
<!-- Node31 -->
<g id="node31" class="node">
<title>Node31</title>
<g id="a_node31"><a xlink:href="classbot_1_1TelegramBotSendMessageException.html" target="_top" xlink:title=" ">
<polygon fill="none" stroke="black" points="1914,-105.5 1914,-173.5 2078,-173.5 2078,-105.5 1914,-105.5"/>
<text text-anchor="start" x="1922" y="-161.5" font-family="Helvetica,sans-Serif" font-size="10.00">bot.TelegramBotSendMessage</text>
<text text-anchor="middle" x="1996" y="-150.5" font-family="Helvetica,sans-Serif" font-size="10.00">Exception</text>
<polyline fill="none" stroke="black" points="1914,-143.5 2078,-143.5 "/>
<text text-anchor="middle" x="1996" y="-131.5" font-family="Helvetica,sans-Serif" font-size="10.00"> </text>
<polyline fill="none" stroke="black" points="1914,-124.5 2078,-124.5 "/>
<text text-anchor="middle" x="1996" y="-112.5" font-family="Helvetica,sans-Serif" font-size="10.00"> </text>
</a>
</g>
</g>
<!-- Node30&#45;&gt;Node31 -->
<g id="edge30" class="edge">
<title>Node30&#45;&gt;Node31</title>
<path fill="none" stroke="midnightblue" d="M1989.86,-200.35C1990.76,-191.59 1991.71,-182.34 1992.59,-173.79"/>
<polygon fill="none" stroke="midnightblue" points="1986.38,-200.02 1988.84,-210.32 1993.34,-200.73 1986.38,-200.02"/>
</g>
<!-- Node33 -->
<g id="node33" class="node">
<title>Node33</title>
<g id="a_node33"><a xlink:href="classbot_1_1WhatsappBotSendMessageException.html" target="_top" xlink:title=" ">
<polygon fill="none" stroke="black" points="2096,-105.5 2096,-173.5 2264,-173.5 2264,-105.5 2096,-105.5"/>
<text text-anchor="start" x="2104" y="-161.5" font-family="Helvetica,sans-Serif" font-size="10.00">bot.WhatsappBotSendMessage</text>
<text text-anchor="middle" x="2180" y="-150.5" font-family="Helvetica,sans-Serif" font-size="10.00">Exception</text>
<polyline fill="none" stroke="black" points="2096,-143.5 2264,-143.5 "/>
<text text-anchor="middle" x="2180" y="-131.5" font-family="Helvetica,sans-Serif" font-size="10.00"> </text>
<polyline fill="none" stroke="black" points="2096,-124.5 2264,-124.5 "/>
<text text-anchor="middle" x="2180" y="-112.5" font-family="Helvetica,sans-Serif" font-size="10.00"> </text>
</a>
</g>
</g>
<!-- Node32&#45;&gt;Node33 -->
<g id="edge32" class="edge">
<title>Node32&#45;&gt;Node33</title>
<path fill="none" stroke="midnightblue" d="M2170.79,-200.35C2172.14,-191.59 2173.56,-182.34 2174.88,-173.79"/>
<polygon fill="none" stroke="midnightblue" points="2167.32,-199.91 2169.26,-210.32 2174.24,-200.97 2167.32,-199.91"/>
</g>
</g>
</svg>
        <g id="navigator" transform="translate(0 0)" fill="#404254">
                <rect fill="#f2f5e9" fill-opacity="0.5" stroke="#606060" stroke-width=".5" x="0" y="0" width="60" height="60"/>
                <use id="zoomplus" xlink:href="#zoomPlus" x="17" y="9" onmousedown="handleZoom(evt,'in')"/>
                <use id="zoomminus" xlink:href="#zoomMin" x="42" y="9" onmousedown="handleZoom(evt,'out')"/>
                <use id="reset" xlink:href="#resetDef" x="30" y="36" onmousedown="handleReset()"/>
                <g id="arrowUp" xlink:href="#dirArrow" transform="translate(30 24)" onmousedown="handlePan(0,-1)">
                  <use xlink:href="#rim" fill="#404040">
                        <set attributeName="fill" to="#808080" begin="arrowUp.mouseover" end="arrowUp.mouseout"/>
                  </use>
                  <path fill="none" stroke="white" stroke-width="1.5" d="M0,-3.0v7 M-2.5,-0.5L0,-3.0L2.5,-0.5"/>
                </g>
                <g id="arrowRight" xlink:href="#dirArrow" transform="rotate(90) translate(36 -43)" onmousedown="handlePan(1,0)">
                  <use xlink:href="#rim" fill="#404040">
                        <set attributeName="fill" to="#808080" begin="arrowRight.mouseover" end="arrowRight.mouseout"/>
                  </use>
                  <path fill="none" stroke="white" stroke-width="1.5" d="M0,-3.0v7 M-2.5,-0.5L0,-3.0L2.5,-0.5"/>
                </g>
                <g id="arrowDown" xlink:href="#dirArrow" transform="rotate(180) translate(-30 -48)" onmousedown="handlePan(0,1)">
                  <use xlink:href="#rim" fill="#404040">
                        <set attributeName="fill" to="#808080" begin="arrowDown.mouseover" end="arrowDown.mouseout"/>
                  </use>
                  <path fill="none" stroke="white" stroke-width="1.5" d="M0,-3.0v7 M-2.5,-0.5L0,-3.0L2.5,-0.5"/>
                </g>
                <g id="arrowLeft" xlink:href="#dirArrow" transform="rotate(270) translate(-36 17)" onmousedown="handlePan(-1,0)">
                  <use xlink:href="#rim" fill="#404040">
                        <set attributeName="fill" to="#808080" begin="arrowLeft.mouseover" end="arrowLeft.mouseout"/>
                  </use>
                  <path fill="none" stroke="white" stroke-width="1.5" d="M0,-3.0v7 M-2.5,-0.5L0,-3.0L2.5,-0.5"/>
                </g>
        </g>
        <svg viewBox="0 0 15 15" width="100%" height="30px" preserveAspectRatio="xMaxYMin meet">
         <g id="arrow_out" transform="scale(0.3 0.3)">
          <a xlink:href="classbot_1_1BotException__inherit__graph_org.svg" target="_base">
           <rect id="button" ry="5" rx="5" y="6" x="6" height="38" width="38"
                fill="#f2f5e9" fill-opacity="0.5" stroke="#606060" stroke-width="1.0"/>
           <path id="arrow"
             d="M 11.500037,31.436501 C 11.940474,20.09759 22.043105,11.32322 32.158766,21.979434 L 37.068811,17.246167 C 37.068811,17.246167 37.088388,32 37.088388,32 L 22.160133,31.978069 C 22.160133,31.978069 26.997745,27.140456 26.997745,27.140456 C 18.528582,18.264221 13.291696,25.230495 11.500037,31.436501 z"
             style="fill:#404040;"/>
          </a>
         </g>
        </svg>
</svg>
