<?xml version="1.0" encoding="UTF-8" standalone="no"?>
<!DOCTYPE svg PUBLIC "-//W3C//DTD SVG 1.1//EN"
 "http://www.w3.org/Graphics/SVG/1.1/DTD/svg11.dtd">
<!-- Generated by graphviz version 2.43.0 (0)
 -->
<!-- Title: bot.HTTPMessageException Pages: 1 -->
<!--zoomable 668 -->
<svg id="main" version="1.1" xmlns="http://www.w3.org/2000/svg" xmlns:xlink="http://www.w3.org/1999/xlink" xml:space="preserve" onload="init(evt)">
<style type="text/css"><![CDATA[
.edge:hover path { stroke: red; }
.edge:hover polygon { stroke: red; fill: red; }
]]></style>
<script type="text/javascript"><![CDATA[
var edges = document.getElementsByTagName('g');
if (edges && edges.length) {
  for (var i=0;i<edges.length;i++) {
    if (edges[i].id.substr(0,4)=='edge') {
      edges[i].setAttribute('class','edge');
    }
  }
}
]]></script>
        <defs>
                <circle id="rim" cx="0" cy="0" r="7"/>
                <circle id="rim2" cx="0" cy="0" r="3.5"/>
                <g id="zoomPlus">
                        <use xlink:href="#rim" fill="#404040">
                                <set attributeName="fill" to="#808080" begin="zoomplus.mouseover" end="zoomplus.mouseout"/>
                        </use>
                        <path d="M-4,0h8M0,-4v8" fill="none" stroke="white" stroke-width="1.5" pointer-events="none"/>
                </g>
                <g id="zoomMin">
                        <use xlink:href="#rim" fill="#404040">
                                <set attributeName="fill" to="#808080" begin="zoomminus.mouseover" end="zoomminus.mouseout"/>
                        </use>
                        <path d="M-4,0h8" fill="none" stroke="white" stroke-width="1.5" pointer-events="none"/>
                </g>
                <g id="dirArrow">
                        <path fill="none" stroke="white" stroke-width="1.5" d="M0,-3.0v7 M-2.5,-0.5L0,-3.0L2.5,-0.5"/>
                </g>
               <g id="resetDef">
                       <use xlink:href="#rim2" fill="#404040">
                               <set attributeName="fill" to="#808080" begin="reset.mouseover" end="reset.mouseout"/>
                       </use>
               </g>
        </defs>

<script type="text/javascript">
var viewWidth = 617;
var viewHeight = 668;
var sectionId = 'dynsection-0';
</script>
<script xlink:href="svgpan.js"/>
<svg id="graph" class="graph">
<g id="viewport">
<title>bot.HTTPMessageException</title>
<!-- Node1 -->
<g id="node1" class="node">
<title>Node1</title>
<g id="a_node1"><a xlink:title=" ">
<polygon fill="#bfbfbf" stroke="black" points="229.5,-94.5 229.5,-151.5 381.5,-151.5 381.5,-94.5 229.5,-94.5"/>
<text text-anchor="middle" x="305.5" y="-139.5" font-family="Helvetica,sans-Serif" font-size="10.00">bot.HTTPMessageException</text>
<polyline fill="none" stroke="black" points="229.5,-132.5 381.5,-132.5 "/>
<text text-anchor="middle" x="305.5" y="-120.5" font-family="Helvetica,sans-Serif" font-size="10.00"> </text>
<polyline fill="none" stroke="black" points="229.5,-113.5 381.5,-113.5 "/>
<text text-anchor="middle" x="305.5" y="-101.5" font-family="Helvetica,sans-Serif" font-size="10.00"> </text>
</a>
</g>
</g>
<!-- Node6 -->
<g id="node6" class="node">
<title>Node6</title>
<g id="a_node6"><a xlink:href="classbot_1_1HTTPMessageHeadersException.html" target="_top" xlink:title=" ">
<polygon fill="none" stroke="black" points="0,-0.5 0,-57.5 193,-57.5 193,-0.5 0,-0.5"/>
<text text-anchor="middle" x="96.5" y="-45.5" font-family="Helvetica,sans-Serif" font-size="10.00">bot.HTTPMessageHeadersException</text>
<polyline fill="none" stroke="black" points="0,-38.5 193,-38.5 "/>
<text text-anchor="middle" x="96.5" y="-26.5" font-family="Helvetica,sans-Serif" font-size="10.00"> </text>
<polyline fill="none" stroke="black" points="0,-19.5 193,-19.5 "/>
<text text-anchor="middle" x="96.5" y="-7.5" font-family="Helvetica,sans-Serif" font-size="10.00"> </text>
</a>
</g>
</g>
<!-- Node1&#45;&gt;Node6 -->
<g id="edge5" class="edge">
<title>Node1&#45;&gt;Node6</title>
<path fill="none" stroke="midnightblue" d="M233.33,-90.23C209.2,-79.61 182.51,-67.86 159.16,-57.58"/>
<polygon fill="none" stroke="midnightblue" points="232.23,-93.57 242.79,-94.4 235.05,-87.16 232.23,-93.57"/>
</g>
<!-- Node7 -->
<g id="node7" class="node">
<title>Node7</title>
<g id="a_node7"><a xlink:href="classbot_1_1HTTPMessageParamsException.html" target="_top" xlink:title=" ">
<polygon fill="none" stroke="black" points="211,-0.5 211,-57.5 400,-57.5 400,-0.5 211,-0.5"/>
<text text-anchor="middle" x="305.5" y="-45.5" font-family="Helvetica,sans-Serif" font-size="10.00">bot.HTTPMessageParamsException</text>
<polyline fill="none" stroke="black" points="211,-38.5 400,-38.5 "/>
<text text-anchor="middle" x="305.5" y="-26.5" font-family="Helvetica,sans-Serif" font-size="10.00"> </text>
<polyline fill="none" stroke="black" points="211,-19.5 400,-19.5 "/>
<text text-anchor="middle" x="305.5" y="-7.5" font-family="Helvetica,sans-Serif" font-size="10.00"> </text>
</a>
</g>
</g>
<!-- Node1&#45;&gt;Node7 -->
<g id="edge6" class="edge">
<title>Node1&#45;&gt;Node7</title>
<path fill="none" stroke="midnightblue" d="M305.5,-84.21C305.5,-75.29 305.5,-65.95 305.5,-57.58"/>
<polygon fill="none" stroke="midnightblue" points="302,-84.4 305.5,-94.4 309,-84.4 302,-84.4"/>
</g>
<!-- Node8 -->
<g id="node8" class="node">
<title>Node8</title>
<g id="a_node8"><a xlink:href="classbot_1_1HTTPMessagePayloadException.html" target="_top" xlink:title=" ">
<polygon fill="none" stroke="black" points="418,-0.5 418,-57.5 609,-57.5 609,-0.5 418,-0.5"/>
<text text-anchor="middle" x="513.5" y="-45.5" font-family="Helvetica,sans-Serif" font-size="10.00">bot.HTTPMessagePayloadException</text>
<polyline fill="none" stroke="black" points="418,-38.5 609,-38.5 "/>
<text text-anchor="middle" x="513.5" y="-26.5" font-family="Helvetica,sans-Serif" font-size="10.00"> </text>
<polyline fill="none" stroke="black" points="418,-19.5 609,-19.5 "/>
<text text-anchor="middle" x="513.5" y="-7.5" font-family="Helvetica,sans-Serif" font-size="10.00"> </text>
</a>
</g>
</g>
<!-- Node1&#45;&gt;Node8 -->
<g id="edge7" class="edge">
<title>Node1&#45;&gt;Node8</title>
<path fill="none" stroke="midnightblue" d="M377.32,-90.23C401.34,-79.61 427.9,-67.86 451.14,-57.58"/>
<polygon fill="none" stroke="midnightblue" points="375.64,-87.15 367.91,-94.4 378.47,-93.55 375.64,-87.15"/>
</g>
<!-- Node2 -->
<g id="node2" class="node">
<title>Node2</title>
<g id="a_node2"><a xlink:href="classbot_1_1BotMessageException.html" target="_top" xlink:title=" ">
<polygon fill="none" stroke="black" points="234,-188.5 234,-245.5 377,-245.5 377,-188.5 234,-188.5"/>
<text text-anchor="middle" x="305.5" y="-233.5" font-family="Helvetica,sans-Serif" font-size="10.00">bot.BotMessageException</text>
<polyline fill="none" stroke="black" points="234,-226.5 377,-226.5 "/>
<text text-anchor="middle" x="305.5" y="-214.5" font-family="Helvetica,sans-Serif" font-size="10.00"> </text>
<polyline fill="none" stroke="black" points="234,-207.5 377,-207.5 "/>
<text text-anchor="middle" x="305.5" y="-195.5" font-family="Helvetica,sans-Serif" font-size="10.00"> </text>
</a>
</g>
</g>
<!-- Node2&#45;&gt;Node1 -->
<g id="edge1" class="edge">
<title>Node2&#45;&gt;Node1</title>
<path fill="none" stroke="midnightblue" d="M305.5,-178.21C305.5,-169.29 305.5,-159.95 305.5,-151.58"/>
<polygon fill="none" stroke="midnightblue" points="302,-178.4 305.5,-188.4 309,-178.4 302,-178.4"/>
</g>
<!-- Node3 -->
<g id="node3" class="node">
<title>Node3</title>
<g id="a_node3"><a xlink:href="classbot_1_1BotException.html" target="_top" xlink:title=" ">
<polygon fill="none" stroke="black" points="255.5,-282.5 255.5,-339.5 355.5,-339.5 355.5,-282.5 255.5,-282.5"/>
<text text-anchor="middle" x="305.5" y="-327.5" font-family="Helvetica,sans-Serif" font-size="10.00">bot.BotException</text>
<polyline fill="none" stroke="black" points="255.5,-320.5 355.5,-320.5 "/>
<text text-anchor="middle" x="305.5" y="-308.5" font-family="Helvetica,sans-Serif" font-size="10.00"> </text>
<polyline fill="none" stroke="black" points="255.5,-301.5 355.5,-301.5 "/>
<text text-anchor="middle" x="305.5" y="-289.5" font-family="Helvetica,sans-Serif" font-size="10.00"> </text>
</a>
</g>
</g>
<!-- Node3&#45;&gt;Node2 -->
<g id="edge2" class="edge">
<title>Node3&#45;&gt;Node2</title>
<path fill="none" stroke="midnightblue" d="M305.5,-272.21C305.5,-263.29 305.5,-253.95 305.5,-245.58"/>
<polygon fill="none" stroke="midnightblue" points="302,-272.4 305.5,-282.4 309,-272.4 302,-272.4"/>
</g>
<!-- Node4 -->
<g id="node4" class="node">
<title>Node4</title>
<g id="a_node4"><a xlink:href="classexception_1_1ChatbotException.html" target="_top" xlink:title=" ">
<polygon fill="none" stroke="black" points="228.5,-376.5 228.5,-565.5 382.5,-565.5 382.5,-376.5 228.5,-376.5"/>
<text text-anchor="middle" x="305.5" y="-553.5" font-family="Helvetica,sans-Serif" font-size="10.00">exception.ChatbotException</text>
<polyline fill="none" stroke="black" points="228.5,-546.5 382.5,-546.5 "/>
<text text-anchor="start" x="236.5" y="-534.5" font-family="Helvetica,sans-Serif" font-size="10.00">+ cause</text>
<text text-anchor="start" x="236.5" y="-523.5" font-family="Helvetica,sans-Serif" font-size="10.00">+ code</text>
<text text-anchor="start" x="236.5" y="-512.5" font-family="Helvetica,sans-Serif" font-size="10.00">+ filename</text>
<text text-anchor="start" x="236.5" y="-501.5" font-family="Helvetica,sans-Serif" font-size="10.00">+ lineno</text>
<text text-anchor="start" x="236.5" y="-490.5" font-family="Helvetica,sans-Serif" font-size="10.00">+ message</text>
<text text-anchor="start" x="236.5" y="-479.5" font-family="Helvetica,sans-Serif" font-size="10.00">+ severity</text>
<text text-anchor="start" x="236.5" y="-468.5" font-family="Helvetica,sans-Serif" font-size="10.00">+ traceback</text>
<text text-anchor="start" x="236.5" y="-457.5" font-family="Helvetica,sans-Serif" font-size="10.00">+ type</text>
<text text-anchor="start" x="236.5" y="-446.5" font-family="Helvetica,sans-Serif" font-size="10.00">+ SEVERITY_TO_LOGGING</text>
<polyline fill="none" stroke="black" points="228.5,-439.5 382.5,-439.5 "/>
<text text-anchor="start" x="236.5" y="-427.5" font-family="Helvetica,sans-Serif" font-size="10.00">+ __init__()</text>
<text text-anchor="start" x="236.5" y="-416.5" font-family="Helvetica,sans-Serif" font-size="10.00">+ __repr__()</text>
<text text-anchor="start" x="236.5" y="-405.5" font-family="Helvetica,sans-Serif" font-size="10.00">+ __str__()</text>
<text text-anchor="start" x="236.5" y="-394.5" font-family="Helvetica,sans-Serif" font-size="10.00">+ to_dict()</text>
<text text-anchor="start" x="236.5" y="-383.5" font-family="Helvetica,sans-Serif" font-size="10.00">+ to_json()</text>
</a>
</g>
</g>
<!-- Node4&#45;&gt;Node3 -->
<g id="edge3" class="edge">
<title>Node4&#45;&gt;Node3</title>
<path fill="none" stroke="midnightblue" d="M305.5,-366.13C305.5,-356.56 305.5,-347.54 305.5,-339.7"/>
<polygon fill="none" stroke="midnightblue" points="302,-366.26 305.5,-376.26 309,-366.26 302,-366.26"/>
</g>
<!-- Node5 -->
<g id="node5" class="node">
<title>Node5</title>
<g id="a_node5"><a xlink:title=" ">
<polygon fill="none" stroke="#bfbfbf" points="273,-602.5 273,-659.5 338,-659.5 338,-602.5 273,-602.5"/>
<text text-anchor="middle" x="305.5" y="-647.5" font-family="Helvetica,sans-Serif" font-size="10.00">Exception</text>
<polyline fill="none" stroke="#bfbfbf" points="273,-640.5 338,-640.5 "/>
<text text-anchor="middle" x="305.5" y="-628.5" font-family="Helvetica,sans-Serif" font-size="10.00"> </text>
<polyline fill="none" stroke="#bfbfbf" points="273,-621.5 338,-621.5 "/>
<text text-anchor="middle" x="305.5" y="-609.5" font-family="Helvetica,sans-Serif" font-size="10.00"> </text>
</a>
</g>
</g>
<!-- Node5&#45;&gt;Node4 -->
<g id="edge4" class="edge">
<title>Node5&#45;&gt;Node4</title>
<path fill="none" stroke="midnightblue" d="M305.5,-592.22C305.5,-584.01 305.5,-574.99 305.5,-565.68"/>
<polygon fill="none" stroke="midnightblue" points="302,-592.48 305.5,-602.48 309,-592.48 302,-592.48"/>
</g>
</g>
</svg>
        <g id="navigator" transform="translate(0 0)" fill="#404254">
                <rect fill="#f2f5e9" fill-opacity="0.5" stroke="#606060" stroke-width=".5" x="0" y="0" width="60" height="60"/>
                <use id="zoomplus" xlink:href="#zoomPlus" x="17" y="9" onmousedown="handleZoom(evt,'in')"/>
                <use id="zoomminus" xlink:href="#zoomMin" x="42" y="9" onmousedown="handleZoom(evt,'out')"/>
                <use id="reset" xlink:href="#resetDef" x="30" y="36" onmousedown="handleReset()"/>
                <g id="arrowUp" xlink:href="#dirArrow" transform="translate(30 24)" onmousedown="handlePan(0,-1)">
                  <use xlink:href="#rim" fill="#404040">
                        <set attributeName="fill" to="#808080" begin="arrowUp.mouseover" end="arrowUp.mouseout"/>
                  </use>
                  <path fill="none" stroke="white" stroke-width="1.5" d="M0,-3.0v7 M-2.5,-0.5L0,-3.0L2.5,-0.5"/>
                </g>
                <g id="arrowRight" xlink:href="#dirArrow" transform="rotate(90) translate(36 -43)" onmousedown="handlePan(1,0)">
                  <use xlink:href="#rim" fill="#404040">
                        <set attributeName="fill" to="#808080" begin="arrowRight.mouseover" end="arrowRight.mouseout"/>
                  </use>
                  <path fill="none" stroke="white" stroke-width="1.5" d="M0,-3.0v7 M-2.5,-0.5L0,-3.0L2.5,-0.5"/>
                </g>
                <g id="arrowDown" xlink:href="#dirArrow" transform="rotate(180) translate(-30 -48)" onmousedown="handlePan(0,1)">
                  <use xlink:href="#rim" fill="#404040">
                        <set attributeName="fill" to="#808080" begin="arrowDown.mouseover" end="arrowDown.mouseout"/>
                  </use>
                  <path fill="none" stroke="white" stroke-width="1.5" d="M0,-3.0v7 M-2.5,-0.5L0,-3.0L2.5,-0.5"/>
                </g>
                <g id="arrowLeft" xlink:href="#dirArrow" transform="rotate(270) translate(-36 17)" onmousedown="handlePan(-1,0)">
                  <use xlink:href="#rim" fill="#404040">
                        <set attributeName="fill" to="#808080" begin="arrowLeft.mouseover" end="arrowLeft.mouseout"/>
                  </use>
                  <path fill="none" stroke="white" stroke-width="1.5" d="M0,-3.0v7 M-2.5,-0.5L0,-3.0L2.5,-0.5"/>
                </g>
        </g>
        <svg viewBox="0 0 15 15" width="100%" height="30px" preserveAspectRatio="xMaxYMin meet">
         <g id="arrow_out" transform="scale(0.3 0.3)">
          <a xlink:href="classbot_1_1HTTPMessageException__inherit__graph_org.svg" target="_base">
           <rect id="button" ry="5" rx="5" y="6" x="6" height="38" width="38"
                fill="#f2f5e9" fill-opacity="0.5" stroke="#606060" stroke-width="1.0"/>
           <path id="arrow"
             d="M 11.500037,31.436501 C 11.940474,20.09759 22.043105,11.32322 32.158766,21.979434 L 37.068811,17.246167 C 37.068811,17.246167 37.088388,32 37.088388,32 L 22.160133,31.978069 C 22.160133,31.978069 26.997745,27.140456 26.997745,27.140456 C 18.528582,18.264221 13.291696,25.230495 11.500037,31.436501 z"
             style="fill:#404040;"/>
          </a>
         </g>
        </svg>
</svg>
