<?xml version="1.0" encoding="UTF-8" standalone="no"?>
<!DOCTYPE svg PUBLIC "-//W3C//DTD SVG 1.1//EN"
 "http://www.w3.org/Graphics/SVG/1.1/DTD/svg11.dtd">
<!-- Generated by graphviz version 2.43.0 (0)
 -->
<!-- Title: bot.BotSendMessageException Pages: 1 -->
<svg width="175pt" height="574pt"
 viewBox="0.00 0.00 175.00 574.00" xmlns="http://www.w3.org/2000/svg" xmlns:xlink="http://www.w3.org/1999/xlink">
<g id="graph0" class="graph" transform="scale(1 1) rotate(0) translate(4 570)">
<title>bot.BotSendMessageException</title>
<!-- Node1 -->
<g id="node1" class="node">
<title>Node1</title>
<g id="a_node1"><a xlink:title=" ">
<polygon fill="#bfbfbf" stroke="black" points="0,-0.5 0,-57.5 167,-57.5 167,-0.5 0,-0.5"/>
<text text-anchor="middle" x="83.5" y="-45.5" font-family="Helvetica,sans-Serif" font-size="10.00">bot.BotSendMessageException</text>
<polyline fill="none" stroke="black" points="0,-38.5 167,-38.5 "/>
<text text-anchor="middle" x="83.5" y="-26.5" font-family="Helvetica,sans-Serif" font-size="10.00"> </text>
<polyline fill="none" stroke="black" points="0,-19.5 167,-19.5 "/>
<text text-anchor="middle" x="83.5" y="-7.5" font-family="Helvetica,sans-Serif" font-size="10.00"> </text>
</a>
</g>
</g>
<!-- Node2 -->
<g id="node2" class="node">
<title>Node2</title>
<g id="a_node2"><a xlink:href="classbot_1_1BotMessageException.html" target="_top" xlink:title=" ">
<polygon fill="none" stroke="black" points="12,-94.5 12,-151.5 155,-151.5 155,-94.5 12,-94.5"/>
<text text-anchor="middle" x="83.5" y="-139.5" font-family="Helvetica,sans-Serif" font-size="10.00">bot.BotMessageException</text>
<polyline fill="none" stroke="black" points="12,-132.5 155,-132.5 "/>
<text text-anchor="middle" x="83.5" y="-120.5" font-family="Helvetica,sans-Serif" font-size="10.00"> </text>
<polyline fill="none" stroke="black" points="12,-113.5 155,-113.5 "/>
<text text-anchor="middle" x="83.5" y="-101.5" font-family="Helvetica,sans-Serif" font-size="10.00"> </text>
</a>
</g>
</g>
<!-- Node2&#45;&gt;Node1 -->
<g id="edge1" class="edge">
<title>Node2&#45;&gt;Node1</title>
<path fill="none" stroke="midnightblue" d="M83.5,-84.21C83.5,-75.29 83.5,-65.95 83.5,-57.58"/>
<polygon fill="none" stroke="midnightblue" points="80,-84.4 83.5,-94.4 87,-84.4 80,-84.4"/>
</g>
<!-- Node3 -->
<g id="node3" class="node">
<title>Node3</title>
<g id="a_node3"><a xlink:href="classbot_1_1BotException.html" target="_top" xlink:title=" ">
<polygon fill="none" stroke="black" points="33.5,-188.5 33.5,-245.5 133.5,-245.5 133.5,-188.5 33.5,-188.5"/>
<text text-anchor="middle" x="83.5" y="-233.5" font-family="Helvetica,sans-Serif" font-size="10.00">bot.BotException</text>
<polyline fill="none" stroke="black" points="33.5,-226.5 133.5,-226.5 "/>
<text text-anchor="middle" x="83.5" y="-214.5" font-family="Helvetica,sans-Serif" font-size="10.00"> </text>
<polyline fill="none" stroke="black" points="33.5,-207.5 133.5,-207.5 "/>
<text text-anchor="middle" x="83.5" y="-195.5" font-family="Helvetica,sans-Serif" font-size="10.00"> </text>
</a>
</g>
</g>
<!-- Node3&#45;&gt;Node2 -->
<g id="edge2" class="edge">
<title>Node3&#45;&gt;Node2</title>
<path fill="none" stroke="midnightblue" d="M83.5,-178.21C83.5,-169.29 83.5,-159.95 83.5,-151.58"/>
<polygon fill="none" stroke="midnightblue" points="80,-178.4 83.5,-188.4 87,-178.4 80,-178.4"/>
</g>
<!-- Node4 -->
<g id="node4" class="node">
<title>Node4</title>
<g id="a_node4"><a xlink:href="classexception_1_1ChatbotException.html" target="_top" xlink:title=" ">
<polygon fill="none" stroke="black" points="6.5,-282.5 6.5,-471.5 160.5,-471.5 160.5,-282.5 6.5,-282.5"/>
<text text-anchor="middle" x="83.5" y="-459.5" font-family="Helvetica,sans-Serif" font-size="10.00">exception.ChatbotException</text>
<polyline fill="none" stroke="black" points="6.5,-452.5 160.5,-452.5 "/>
<text text-anchor="start" x="14.5" y="-440.5" font-family="Helvetica,sans-Serif" font-size="10.00">+ cause</text>
<text text-anchor="start" x="14.5" y="-429.5" font-family="Helvetica,sans-Serif" font-size="10.00">+ code</text>
<text text-anchor="start" x="14.5" y="-418.5" font-family="Helvetica,sans-Serif" font-size="10.00">+ filename</text>
<text text-anchor="start" x="14.5" y="-407.5" font-family="Helvetica,sans-Serif" font-size="10.00">+ lineno</text>
<text text-anchor="start" x="14.5" y="-396.5" font-family="Helvetica,sans-Serif" font-size="10.00">+ message</text>
<text text-anchor="start" x="14.5" y="-385.5" font-family="Helvetica,sans-Serif" font-size="10.00">+ severity</text>
<text text-anchor="start" x="14.5" y="-374.5" font-family="Helvetica,sans-Serif" font-size="10.00">+ traceback</text>
<text text-anchor="start" x="14.5" y="-363.5" font-family="Helvetica,sans-Serif" font-size="10.00">+ type</text>
<text text-anchor="start" x="14.5" y="-352.5" font-family="Helvetica,sans-Serif" font-size="10.00">+ SEVERITY_TO_LOGGING</text>
<polyline fill="none" stroke="black" points="6.5,-345.5 160.5,-345.5 "/>
<text text-anchor="start" x="14.5" y="-333.5" font-family="Helvetica,sans-Serif" font-size="10.00">+ __init__()</text>
<text text-anchor="start" x="14.5" y="-322.5" font-family="Helvetica,sans-Serif" font-size="10.00">+ __repr__()</text>
<text text-anchor="start" x="14.5" y="-311.5" font-family="Helvetica,sans-Serif" font-size="10.00">+ __str__()</text>
<text text-anchor="start" x="14.5" y="-300.5" font-family="Helvetica,sans-Serif" font-size="10.00">+ to_dict()</text>
<text text-anchor="start" x="14.5" y="-289.5" font-family="Helvetica,sans-Serif" font-size="10.00">+ to_json()</text>
</a>
</g>
</g>
<!-- Node4&#45;&gt;Node3 -->
<g id="edge3" class="edge">
<title>Node4&#45;&gt;Node3</title>
<path fill="none" stroke="midnightblue" d="M83.5,-272.13C83.5,-262.56 83.5,-253.54 83.5,-245.7"/>
<polygon fill="none" stroke="midnightblue" points="80,-272.26 83.5,-282.26 87,-272.26 80,-272.26"/>
</g>
<!-- Node5 -->
<g id="node5" class="node">
<title>Node5</title>
<g id="a_node5"><a xlink:title=" ">
<polygon fill="none" stroke="#bfbfbf" points="51,-508.5 51,-565.5 116,-565.5 116,-508.5 51,-508.5"/>
<text text-anchor="middle" x="83.5" y="-553.5" font-family="Helvetica,sans-Serif" font-size="10.00">Exception</text>
<polyline fill="none" stroke="#bfbfbf" points="51,-546.5 116,-546.5 "/>
<text text-anchor="middle" x="83.5" y="-534.5" font-family="Helvetica,sans-Serif" font-size="10.00"> </text>
<polyline fill="none" stroke="#bfbfbf" points="51,-527.5 116,-527.5 "/>
<text text-anchor="middle" x="83.5" y="-515.5" font-family="Helvetica,sans-Serif" font-size="10.00"> </text>
</a>
</g>
</g>
<!-- Node5&#45;&gt;Node4 -->
<g id="edge4" class="edge">
<title>Node5&#45;&gt;Node4</title>
<path fill="none" stroke="midnightblue" d="M83.5,-498.22C83.5,-490.01 83.5,-480.99 83.5,-471.68"/>
<polygon fill="none" stroke="midnightblue" points="80,-498.48 83.5,-508.48 87,-498.48 80,-498.48"/>
</g>
</g>
</svg>
