<?xml version="1.0" encoding="UTF-8" standalone="no"?>
<!DOCTYPE svg PUBLIC "-//W3C//DTD SVG 1.1//EN"
 "http://www.w3.org/Graphics/SVG/1.1/DTD/svg11.dtd">
<!-- Generated by graphviz version 2.43.0 (0)
 -->
<!-- Title: Graphical Class Hierarchy Pages: 1 -->
<svg width="245pt" height="137pt"
 viewBox="0.00 0.00 245.00 137.00" xmlns="http://www.w3.org/2000/svg" xmlns:xlink="http://www.w3.org/1999/xlink">
<g id="graph0" class="graph" transform="scale(1 1) rotate(0) translate(4 133)">
<title>Graphical Class Hierarchy</title>
<!-- Node90 -->
<g id="node1" class="node">
<title>Node90</title>
<g id="a_node1"><a xlink:title=" ">
<polygon fill="none" stroke="#bfbfbf" points="0,-55 0,-74 44,-74 44,-55 0,-55"/>
<text text-anchor="middle" x="22" y="-62" font-family="Helvetica,sans-Serif" font-size="10.00">Enum</text>
</a>
</g>
</g>
<!-- Node0 -->
<g id="node2" class="node">
<title>Node0</title>
<g id="a_node2"><a xlink:href="classconfigurator_1_1ConfigurationExceptionCode.html" target="_top" xlink:title=" ">
<polygon fill="none" stroke="black" points="86,-98.5 86,-128.5 231,-128.5 231,-98.5 86,-98.5"/>
<text text-anchor="start" x="94" y="-116.5" font-family="Helvetica,sans-Serif" font-size="10.00">configurator.Configuration</text>
<text text-anchor="middle" x="158.5" y="-105.5" font-family="Helvetica,sans-Serif" font-size="10.00">ExceptionCode</text>
</a>
</g>
</g>
<!-- Node90&#45;&gt;Node0 -->
<g id="edge1" class="edge">
<title>Node90&#45;&gt;Node0</title>
<path fill="none" stroke="midnightblue" d="M52.72,-78.29C61.43,-82.13 71.02,-86.15 80,-89.5 88.31,-92.6 97.23,-95.63 105.95,-98.43"/>
<polygon fill="midnightblue" stroke="midnightblue" points="53.91,-74.99 43.35,-74.09 51.04,-81.38 53.91,-74.99"/>
</g>
<!-- Node92 -->
<g id="node3" class="node">
<title>Node92</title>
<g id="a_node3"><a xlink:href="classexception_1_1ChatbotException_1_1ChatbotExceptionCode.html" target="_top" xlink:title=" ">
<polygon fill="none" stroke="black" points="80,-49.5 80,-79.5 237,-79.5 237,-49.5 80,-49.5"/>
<text text-anchor="start" x="88" y="-67.5" font-family="Helvetica,sans-Serif" font-size="10.00">exception.ChatbotException.</text>
<text text-anchor="middle" x="158.5" y="-56.5" font-family="Helvetica,sans-Serif" font-size="10.00">ChatbotExceptionCode</text>
</a>
</g>
</g>
<!-- Node90&#45;&gt;Node92 -->
<g id="edge2" class="edge">
<title>Node90&#45;&gt;Node92</title>
<path fill="none" stroke="midnightblue" d="M54.07,-64.5C61.92,-64.5 70.7,-64.5 79.75,-64.5"/>
<polygon fill="midnightblue" stroke="midnightblue" points="54.02,-61 44.02,-64.5 54.02,-68 54.02,-61"/>
</g>
<!-- Node93 -->
<g id="node4" class="node">
<title>Node93</title>
<g id="a_node4"><a xlink:href="classexception_1_1ChatbotException_1_1ChatbotExceptionSeverity.html" target="_top" xlink:title=" ">
<polygon fill="none" stroke="black" points="80,-0.5 80,-30.5 237,-30.5 237,-0.5 80,-0.5"/>
<text text-anchor="start" x="88" y="-18.5" font-family="Helvetica,sans-Serif" font-size="10.00">exception.ChatbotException.</text>
<text text-anchor="middle" x="158.5" y="-7.5" font-family="Helvetica,sans-Serif" font-size="10.00">ChatbotExceptionSeverity</text>
</a>
</g>
</g>
<!-- Node90&#45;&gt;Node93 -->
<g id="edge3" class="edge">
<title>Node90&#45;&gt;Node93</title>
<path fill="none" stroke="midnightblue" d="M53.43,-51.11C61.97,-47.51 71.3,-43.73 80,-40.5 89.15,-37.11 98.99,-33.73 108.5,-30.6"/>
<polygon fill="midnightblue" stroke="midnightblue" points="52.03,-47.91 44.21,-55.06 54.78,-54.34 52.03,-47.91"/>
</g>
</g>
</svg>
